<svg width="356" height="333" viewBox="0 0 356 333" fill="none" xmlns="http://www.w3.org/2000/svg">
<path d="M281.475 278.388C273.486 276.683 264.928 275.005 257.267 277.722C251.777 279.72 247.463 283.716 242.607 286.806C233.996 292.278 223.682 294.909 213.294 294.285C197.302 293.28 182.763 284.655 166.793 283.35C152.553 282.178 138.619 286.906 124.892 290.642C100.209 297.342 74.6951 300.992 48.9997 301.498L36.853 314.099C37.6291 319.633 44.8559 322.464 50.737 321.678C56.6182 320.892 61.8229 317.682 67.4334 315.777C89.5054 308.338 114.974 321.771 137.074 314.399C148.644 310.549 158.149 301.285 170.374 300.226C181.218 299.287 191.236 305.061 201.61 308.158C210.243 310.67 219.359 311.384 228.319 310.25C237.278 309.115 245.863 306.16 253.472 301.591C258.926 298.261 263.96 294.059 270.19 292.301C278.897 289.837 288.161 292.58 297.11 294.072C311.913 296.525 327.134 295.516 341.418 291.135L281.475 278.388Z" fill="#E0E0E0"/>
<path d="M346.203 143.616H9.05664V178.401H346.203V143.616Z" fill="#EBEBEB"/>
<path d="M95.1589 15.1115H56.1484V76.5367H95.1589V15.1115Z" fill="#F5F5F5"/>
<path d="M54.8311 15.1115H23.083V76.5367H54.8311V15.1115Z" fill="#F5F5F5"/>
<path d="M172.553 15.1115H138.271V76.5367H172.553V15.1115Z" fill="#F5F5F5"/>
<path d="M54.8311 77.6356H23.083V132.987H54.8311V77.6356Z" fill="#F5F5F5"/>
<path d="M95.1589 77.6356H56.1484V132.987H95.1589V77.6356Z" fill="#F5F5F5"/>
<path d="M172.553 77.6356H138.271V132.987H172.553V77.6356Z" fill="#F5F5F5"/>
<path d="M136.953 77.6356H99.9077V132.987H136.953V77.6356Z" fill="#F5F5F5"/>
<path d="M136.953 15.1115H99.9077V76.5367H136.953V15.1115Z" fill="#F5F5F5"/>
<path d="M260.364 17.4292H221.354V78.8544H260.364V17.4292Z" fill="#F5F5F5"/>
<path d="M220.036 17.4292H188.288V78.8544H220.036V17.4292Z" fill="#F5F5F5"/>
<path d="M337.759 17.4292H303.476V78.8544H337.759V17.4292Z" fill="#F5F5F5"/>
<path d="M220.036 79.9466H188.288V135.298H220.036V79.9466Z" fill="#F5F5F5"/>
<path d="M260.364 79.9466H221.354V135.298H260.364V79.9466Z" fill="#F5F5F5"/>
<path d="M337.759 79.9466H303.476V135.298H337.759V79.9466Z" fill="#F5F5F5"/>
<path d="M302.159 79.9466H265.113V135.298H302.159V79.9466Z" fill="#F5F5F5"/>
<path d="M302.159 17.4292H265.113V78.8544H302.159V17.4292Z" fill="#F5F5F5"/>
<path d="M166.608 183.39C166.608 183.39 166.608 183.689 166.608 184.262C166.608 184.835 166.608 185.687 166.608 186.806C166.608 189.051 166.608 192.367 166.608 196.663C166.608 205.255 166.651 217.782 166.679 233.546L166.558 233.433L337.687 233.373L337.502 233.546V183.39L337.687 183.556L215.28 183.483L179.488 183.43H169.883H167.398H166.544H167.37H169.84H179.402L215.152 183.383L337.687 183.31H337.865V183.476C337.865 199.367 337.865 216.257 337.865 233.633V233.806H337.666L166.608 233.659H166.487V233.546C166.487 217.749 166.537 205.201 166.551 196.597C166.551 192.308 166.551 189.004 166.551 186.766C166.551 185.654 166.551 184.808 166.551 184.236C166.551 183.663 166.608 183.39 166.608 183.39Z" fill="#E0E0E0"/>
<path d="M17.7004 183.39C17.7004 183.39 17.7004 183.696 17.7004 184.276C17.7004 184.855 17.7004 185.734 17.7004 186.866C17.7004 189.144 17.7004 192.501 17.736 196.823C17.736 205.481 17.7716 217.988 17.8001 233.546L17.6719 233.426L155.38 233.373L155.195 233.546C155.195 216.01 155.195 199.061 155.195 183.39L155.373 183.556L56.6681 183.476L28.003 183.43H20.3277H18.3412H17.6292H18.2913H20.2565H27.8962L56.5186 183.383L155.344 183.303H155.522V183.47C155.522 199.141 155.522 216.104 155.522 233.626V233.799H155.33L17.6221 233.746H17.4939V233.626C17.5295 218.042 17.5509 205.494 17.5651 196.83C17.5651 192.521 17.5651 189.177 17.5651 186.906C17.5651 185.781 17.5651 184.908 17.5651 184.335C17.5651 183.763 17.7004 183.39 17.7004 183.39Z" fill="#E0E0E0"/>
<path d="M341.561 239.7C341.561 239.8 268.445 239.873 178.278 239.873C88.1099 239.873 14.9519 239.8 14.9519 239.7C14.9519 239.6 88.0458 239.527 178.249 239.527C268.452 239.527 341.561 239.607 341.561 239.7Z" fill="#263238"/>
<path d="M131.008 308.684C130.641 308.587 130.281 308.464 129.933 308.318C129.257 308.052 128.26 307.699 127.021 307.299C125.782 306.899 124.287 306.473 122.607 306.074C118.954 305.227 115.212 304.767 111.449 304.702C109.712 304.702 108.153 304.702 106.843 304.808C105.533 304.915 104.479 304.995 103.746 305.088C103.369 305.149 102.988 305.182 102.606 305.188C102.971 305.08 103.345 305.002 103.724 304.955C104.436 304.822 105.511 304.688 106.821 304.568C108.36 304.431 109.904 304.369 111.449 304.382C113.354 304.401 115.256 304.524 117.145 304.748C119.023 304.988 120.884 305.326 122.72 305.761C124.217 306.135 125.693 306.579 127.142 307.093C128.374 307.525 129.356 307.918 129.99 308.218C130.342 308.347 130.683 308.503 131.008 308.684V308.684Z" fill="#263238"/>
<path d="M139.104 304.602C139.104 304.655 138.078 304.242 136.405 303.776C134.217 303.166 131.958 302.806 129.677 302.704C127.396 302.614 125.113 302.786 122.877 303.216C121.161 303.543 120.129 303.883 120.107 303.809C120.332 303.69 120.571 303.596 120.819 303.53C121.473 303.306 122.142 303.122 122.82 302.977C127.341 301.958 132.077 302.155 136.483 303.543C137.147 303.745 137.796 303.985 138.427 304.262C138.67 304.341 138.899 304.456 139.104 304.602V304.602Z" fill="#263238"/>
<path d="M44.7065 314.672C44.7065 314.732 43.5602 314.452 41.709 314.139C39.2979 313.728 36.8544 313.505 34.4039 313.473C31.9534 313.447 29.505 313.614 27.0845 313.972C25.2262 314.245 24.087 314.499 24.0728 314.439C24.3236 314.332 24.5862 314.251 24.856 314.199C25.3615 314.059 26.1091 313.899 27.0418 313.726C31.9109 312.873 36.9122 312.927 41.7588 313.886C42.6844 314.079 43.4249 314.259 43.9304 314.405C44.1986 314.468 44.4588 314.557 44.7065 314.672V314.672Z" fill="#263238"/>
<path d="M246.943 304.702C246.943 304.762 245.783 304.349 243.881 303.916C242.767 303.661 241.638 303.465 240.499 303.33C239.108 303.169 237.707 303.093 236.306 303.103C234.905 303.124 233.507 303.227 232.119 303.41C230.984 303.571 229.86 303.794 228.751 304.076C226.858 304.549 225.733 304.981 225.704 304.921C225.947 304.776 226.208 304.658 226.48 304.568C227.198 304.285 227.933 304.04 228.68 303.836C229.79 303.527 230.92 303.285 232.062 303.11C233.476 302.902 234.903 302.786 236.334 302.764C237.763 302.759 239.19 302.846 240.606 303.023C241.752 303.182 242.886 303.404 244.003 303.689C244.753 303.872 245.493 304.095 246.217 304.355C246.471 304.448 246.714 304.564 246.943 304.702Z" fill="#263238"/>
<path d="M313.038 289.577C313.038 289.63 311.927 289.677 310.147 289.863C307.829 290.097 305.531 290.48 303.269 291.009C301.005 291.54 298.783 292.219 296.619 293.04C294.96 293.666 293.956 294.112 293.928 294.059C294.134 293.908 294.359 293.781 294.597 293.679C295.039 293.453 295.694 293.153 296.52 292.814C300.826 291.028 305.428 289.947 310.126 289.617C311.023 289.557 311.756 289.53 312.262 289.537C312.521 289.517 312.783 289.53 313.038 289.577V289.577Z" fill="#263238"/>
<path d="M316.897 289.044C316.511 289.072 316.123 289.072 315.736 289.044L312.582 288.911C309.919 288.798 306.238 288.658 302.18 288.731C298.714 288.778 295.255 289.045 291.827 289.53C291.165 289.61 290.574 289.723 290.055 289.81C289.535 289.896 289.086 289.976 288.723 290.056C288.349 290.145 287.968 290.207 287.584 290.243C287.942 290.102 288.314 289.995 288.695 289.923C289.051 289.83 289.492 289.723 290.012 289.623C290.532 289.524 291.123 289.39 291.785 289.284C295.216 288.726 298.69 288.423 302.173 288.378C306.245 288.305 309.934 288.485 312.597 288.658C313.928 288.744 315.003 288.831 315.744 288.897C316.132 288.915 316.518 288.964 316.897 289.044V289.044Z" fill="#263238"/>
<path d="M51.2641 292.221L45.9027 293.859C44.0643 293.525 42.1603 293.727 40.4488 294.439C36.426 296.11 35.1088 296.59 30.6232 296.57C29.768 296.557 28.9217 296.734 28.1542 297.088C27.3867 297.441 26.7199 297.96 26.2088 298.601C24.3434 300.999 24.7421 304.275 25.3971 307.166C25.9027 309.37 26.5719 311.655 28.594 313.107C29.4675 313.759 30.5794 314.065 31.6912 313.959C34.5392 313.646 35.2156 310.816 37.1309 309.297C39.938 307.004 43.2517 305.319 46.8355 304.362C48.4232 303.896 57.6365 304.449 57.6365 304.449L51.2641 292.221Z" fill="#FFBF9D"/>
<path d="M28.3233 301.032C28.5439 301.02 28.7646 301.055 28.9691 301.133C29.1736 301.212 29.3568 301.332 29.5052 301.485C29.6935 301.646 29.8453 301.842 29.9516 302.059C30.058 302.276 30.1168 302.511 30.1246 302.75C30.1342 303.061 30.0642 303.369 29.9205 303.65C29.7769 303.93 29.5637 304.174 29.2987 304.362L29.1563 304.082C30.2457 303.763 31.4703 304.702 31.5486 305.861C31.5516 306.331 31.4477 306.797 31.244 307.228C31.0403 307.658 30.7413 308.044 30.3667 308.358L30.267 308.085C30.9604 308.191 31.5815 308.547 31.9972 309.077C32.3095 309.491 32.4694 309.989 32.4529 310.496C32.4455 310.817 32.3629 311.133 32.2108 311.422C32.104 311.621 32.0114 311.708 31.9972 311.701C32.1579 311.317 32.2423 310.908 32.2464 310.496C32.225 309.981 32.0108 309.489 31.6411 309.107C31.2715 308.725 30.77 308.476 30.2243 308.405L29.8897 308.365L30.1246 308.132C30.4554 307.842 30.7195 307.493 30.9007 307.104C31.0819 306.716 31.1764 306.297 31.1784 305.874C31.1286 304.915 30.0748 304.122 29.2489 304.369L28.2307 304.675L29.1065 304.089C29.3248 303.931 29.5022 303.73 29.6255 303.499C29.7487 303.269 29.8147 303.015 29.8185 302.757C29.8192 302.333 29.6459 301.926 29.3343 301.618C29.0468 301.356 28.7018 301.156 28.3233 301.032V301.032Z" fill="#FF725E"/>
<path d="M83.7313 271.562L76.654 284.728L69.7761 297.882C69.5276 298.356 69.0885 298.719 68.5548 298.891C68.0211 299.063 67.4363 299.031 66.9281 298.801L38.5905 285.148C38.2754 284.989 38.0036 284.764 37.7959 284.491C37.5883 284.218 37.4502 283.904 37.3925 283.574C37.3347 283.243 37.3588 282.905 37.4628 282.584C37.5668 282.263 37.748 281.969 37.9924 281.725C38.2025 281.512 38.4618 281.346 38.7505 281.241C39.0393 281.136 39.3498 281.094 39.6585 281.119C42.1718 281.252 62.3072 280.333 62.3072 280.333L66.9281 260.712L83.7313 271.562Z" fill="#FFBF9D"/>
<path d="M299.645 280.299C299.645 280.299 300.129 286.68 303.034 288.185C305.939 289.69 313.444 288.038 315.623 288.185C317.801 288.331 325.071 293.087 331.365 293.087C334.042 293.087 335.893 292.987 337.139 292.873C337.483 292.842 337.816 292.738 338.111 292.57C338.407 292.402 338.659 292.174 338.848 291.903C339.037 291.632 339.159 291.325 339.205 291.004C339.25 290.684 339.218 290.357 339.111 290.05C338.677 288.838 337.794 287.013 335.487 286.82C330.033 286.353 327.492 284.309 327.492 284.309C325.261 282.182 322.898 280.18 320.414 278.315C317.858 276.596 310.781 270.989 310.781 270.989L299.645 280.299Z" fill="#AE7461"/>
<path d="M219.296 189.464C219.296 189.644 284.33 213.726 285.056 214.405C285.783 215.085 319.546 273.679 319.546 273.679L293.202 282.504L260.834 238.894L256.619 238.594C256.619 238.594 214.376 224.289 214.568 223.609C214.761 222.93 219.296 189.464 219.296 189.464Z" fill="#FF725E"/>
<path d="M269.606 226.067C269.296 226.76 268.927 227.428 268.502 228.065C267.79 229.257 266.751 230.889 265.597 232.687C264.444 234.485 263.39 236.097 262.607 237.262C262.224 237.904 261.788 238.516 261.304 239.094C261.617 238.401 261.988 237.733 262.415 237.096C263.127 235.904 264.159 234.272 265.313 232.474C266.466 230.676 267.52 229.064 268.303 227.905C268.689 227.264 269.125 226.65 269.606 226.067V226.067Z" fill="#263238"/>
<path opacity="0.3" d="M243.39 198.595V208.744L256.619 238.594L246.48 235.138L234.91 201.911L237.395 196.323L243.39 198.595Z" fill="black"/>
<path d="M54.4895 262.551C54.4895 261.885 78.2632 211.895 82.5636 208.298C86.8641 204.702 93.8844 202.577 102.941 206.813C109.94 210.09 137.345 226.433 149.449 233.693L155.245 237.183L163.39 281.591L146.416 300.852L58.79 308.684L47.9177 287.932L94.7744 281.472L108.601 278.608C108.601 278.608 111.77 275.011 114.938 274.372C118.107 273.733 119.018 275.431 119.018 275.431L130.339 264.695L98.1849 244.828C98.1849 244.828 87.5761 274.392 84.1514 274.798C80.7267 275.205 54.4895 262.551 54.4895 262.551Z" fill="#455A64"/>
<g opacity="0.3">
<path opacity="0.3" d="M147.384 232.521C146.344 239.753 145.248 247.292 145.64 254.578C146.031 261.865 147.961 269.23 152.404 275.224C153.379 276.556 154.497 277.835 155.01 279.374C156.348 283.456 147.384 295.471 147.384 299.7L162.336 281.565L158.577 269.25L151.848 235.111L147.384 232.521Z" fill="black"/>
</g>
<path d="M87.1702 228.438C87.3175 228.647 87.4394 228.87 87.5333 229.104C87.7326 229.557 88.0388 230.21 88.4162 231.002C89.415 233.078 90.5296 235.103 91.7554 237.069C92.9929 239.028 94.343 240.922 95.7996 242.744C96.3621 243.443 96.8178 244.009 97.1382 244.395C97.323 244.584 97.4809 244.795 97.6081 245.021C97.3957 244.861 97.2023 244.681 97.0314 244.482C96.6754 244.122 96.177 243.583 95.6074 242.897C92.551 239.313 90.0532 235.342 88.1883 231.102C87.8394 230.289 87.576 229.623 87.4122 229.157C87.302 228.927 87.2207 228.686 87.1702 228.438V228.438Z" fill="#263238"/>
<path d="M95.3083 222.271C95.4151 222.271 96.0915 227.366 96.832 233.673C97.5724 239.98 98.0851 245.115 97.9783 245.121C97.8715 245.128 97.2022 240.026 96.4617 233.713C95.7212 227.399 95.2086 222.278 95.3083 222.271Z" fill="#263238"/>
<path d="M151.186 272.247C151.129 272.294 150.303 271.322 148.694 270.023C147.751 269.265 146.747 268.577 145.689 267.965C144.386 267.232 143.019 266.604 141.603 266.087C140.176 265.59 138.706 265.211 137.21 264.955C135.986 264.756 134.749 264.644 133.507 264.622C131.371 264.622 130.068 264.808 130.061 264.742C130.356 264.651 130.662 264.592 130.972 264.569C131.332 264.505 131.696 264.465 132.062 264.449C132.535 264.404 133.01 264.382 133.486 264.382C134.745 264.367 136.002 264.454 137.245 264.642C138.769 264.884 140.266 265.259 141.716 265.761C143.156 266.282 144.539 266.931 145.846 267.699C146.911 268.327 147.914 269.042 148.844 269.837C149.207 270.137 149.554 270.455 149.883 270.789C150.136 271.029 150.374 271.282 150.595 271.548C150.818 271.761 151.016 271.996 151.186 272.247V272.247Z" fill="#263238"/>
<path d="M132.937 282.597C132.561 282.608 132.185 282.588 131.812 282.537L128.744 282.277C126.159 282.064 122.578 281.825 118.619 281.711C114.66 281.598 111.065 281.625 108.466 281.711L105.39 281.791C105.014 281.824 104.635 281.824 104.258 281.791C104.629 281.722 105.005 281.68 105.383 281.665C106.095 281.598 107.156 281.532 108.459 281.472C111.058 281.345 114.653 281.278 118.626 281.392C122.599 281.505 126.188 281.785 128.772 282.058C130.068 282.191 131.108 282.317 131.827 282.424C132.201 282.452 132.573 282.51 132.937 282.597V282.597Z" fill="#263238"/>
<path d="M138.043 299.7C137.979 299.7 138.221 298.914 138.413 297.635C138.937 294.301 138.471 290.896 137.067 287.792C136.533 286.606 136.092 285.914 136.149 285.88C136.206 285.847 136.298 286.034 136.512 286.333C136.809 286.76 137.075 287.205 137.309 287.665C138.875 290.779 139.353 294.274 138.676 297.655C138.578 298.163 138.442 298.664 138.271 299.154C138.128 299.547 138.071 299.733 138.043 299.7Z" fill="#263238"/>
<path d="M143.931 246.547C144.009 246.6 141.297 249.943 137.872 254.006C134.447 258.068 131.599 261.332 131.514 261.258C131.428 261.185 134.148 257.855 137.58 253.793C141.012 249.73 143.824 246.487 143.931 246.547Z" fill="#263238"/>
<g opacity="0.3">
<path opacity="0.3" d="M88.2453 231.015C87.6349 234.194 88.2801 237.472 90.0609 240.24C91.7882 242.97 94.5351 245.006 97.7718 245.954L97.9783 245.394C93.8487 241.252 90.8014 236.25 88.2453 231.015Z" fill="black"/>
</g>
<g opacity="0.3">
<path opacity="0.3" d="M108.366 278.661C116.251 277.739 124.216 277.592 132.133 278.222C126.01 279.6 119.652 279.733 113.35 279.853C111.613 279.887 109.627 279.853 108.502 278.588" fill="black"/>
</g>
<path d="M249.627 237.762L238.912 201.711L238.079 174.459C238.079 174.459 219.766 176.583 219.695 177.223C219.624 177.862 213.436 212.414 213.194 212.894C212.952 213.373 218.698 251.921 218.698 251.921L227.335 254.365L250.446 244.835L249.627 237.762Z" fill="#455A64"/>
<path d="M151.072 230.383C153.208 228.911 163.077 228.997 173.201 245.121L180.193 247.585L233.807 239.966L248.388 241.345C252.261 247.239 254.448 253.966 254.739 260.879C255.209 272.367 258.734 282.857 238.363 300.026L183.34 292.7L167.156 291.042L146.416 300.879L160.2 278.528C160.2 278.528 156.156 278.275 152.154 266.407C148.153 254.539 151.072 230.383 151.072 230.383Z" fill="#455A64"/>
<path d="M250.019 244.369C249.728 244.477 249.424 244.553 249.115 244.595C248.524 244.715 247.691 244.902 246.63 245.135C241.186 246.355 235.906 248.142 230.887 250.463C229.919 250.909 229.143 251.282 228.609 251.542C228.341 251.693 228.057 251.818 227.762 251.915C228.004 251.725 228.266 251.56 228.545 251.422C229.058 251.129 229.812 250.722 230.766 250.25C233.254 249.032 235.828 247.975 238.47 247.086C241.117 246.194 243.824 245.466 246.573 244.908C247.627 244.702 248.488 244.555 249.086 244.475C249.393 244.414 249.705 244.378 250.019 244.369Z" fill="#263238"/>
<path d="M245.811 243.936C245.58 244.007 245.341 244.054 245.099 244.076L243.084 244.355C241.382 244.588 239.047 244.935 236.477 245.414C233.906 245.894 231.606 246.407 229.94 246.8L227.968 247.266C227.737 247.335 227.498 247.38 227.256 247.399C227.48 247.282 227.719 247.192 227.968 247.133C228.424 246.986 229.086 246.793 229.912 246.567C231.564 246.107 233.871 245.554 236.448 245.075C239.025 244.595 241.382 244.282 243.091 244.109C243.945 244.022 244.643 243.969 245.12 243.942C245.349 243.914 245.581 243.912 245.811 243.936Z" fill="#263238"/>
<path d="M167.156 291.015L172.646 264.362L176.882 265.321L175.173 291.841L167.156 291.015Z" fill="#263238"/>
<g opacity="0.3">
<path opacity="0.3" d="M171.3 242.151L165.996 235.797C165.846 245.927 165.739 256.29 169.228 265.881C169.619 267.255 170.39 268.509 171.464 269.517C172.61 270.436 174.454 270.742 175.615 269.83L171.3 242.151Z" fill="black"/>
</g>
<path d="M175.152 271.382C175.152 271.448 174.105 271.435 172.468 271.688C171.502 271.842 170.55 272.065 169.62 272.354C168.496 272.709 167.407 273.154 166.366 273.686C165.336 274.243 164.359 274.883 163.447 275.597C162.708 276.19 162.018 276.833 161.382 277.522C160.307 278.708 159.787 279.554 159.723 279.52C159.804 279.304 159.914 279.098 160.05 278.907C160.189 278.678 160.341 278.455 160.506 278.241C160.714 277.943 160.94 277.656 161.183 277.382C161.798 276.66 162.482 275.991 163.226 275.384C164.138 274.629 165.128 273.96 166.181 273.386C167.245 272.847 168.36 272.401 169.513 272.054C170.456 271.776 171.423 271.576 172.404 271.455C172.824 271.388 173.208 271.382 173.543 271.355C173.827 271.336 174.113 271.336 174.397 271.355C174.649 271.334 174.903 271.343 175.152 271.382V271.382Z" fill="#263238"/>
<path d="M267.264 115.471C268.077 116.21 269.172 116.617 270.306 116.601C271.441 116.586 272.522 116.149 273.312 115.388C274.102 114.627 274.537 113.603 274.52 112.542C274.503 111.481 274.037 110.469 273.223 109.73C274.134 109.519 274.952 109.046 275.559 108.376C276.167 107.707 276.533 106.875 276.607 106C276.681 105.124 276.459 104.249 275.972 103.499C275.484 102.748 274.757 102.16 273.892 101.818C274.346 101.065 274.584 100.215 274.582 99.3503C274.58 98.4858 274.34 97.6364 273.883 96.8847C273.426 96.1331 272.77 95.5048 271.976 95.061C271.183 94.6173 270.281 94.3731 269.357 94.3522C268.92 93.1641 268.071 92.1469 266.944 91.4625C265.818 90.7782 264.479 90.4661 263.141 90.576C262.465 89.9932 261.607 89.6297 260.693 89.5395C259.779 89.4494 258.858 89.6374 258.067 90.0757C257.276 90.5139 256.658 91.1791 256.303 91.9723C255.949 92.7655 255.877 93.6445 256.099 94.4788" fill="#263238"/>
<path d="M224.736 122.95L237.381 101.991C242.016 93.4864 251.165 88.9243 260.115 93.4864L260.919 93.9526C264.809 96.2207 267.644 99.7754 268.859 103.91C270.074 108.044 269.581 112.454 267.477 116.264C263.419 123.59 258.84 131.675 256.291 135.398C251.016 143.103 241.902 139.467 241.902 139.467L230.887 149.504C228.809 145.843 227.162 141.982 225.974 137.989C223.924 131.202 224.736 122.95 224.736 122.95Z" fill="#AE7461"/>
<path d="M241.973 139.5C238.118 137.251 235.032 134.015 233.08 130.176C233.08 130.176 230.788 137.502 239.545 141.618L241.973 139.5Z" fill="#6F4439"/>
<path d="M259.723 122.178C259.529 122.463 259.226 122.669 258.876 122.753C258.525 122.837 258.154 122.793 257.836 122.631C257.678 122.554 257.537 122.449 257.423 122.321C257.309 122.193 257.223 122.045 257.17 121.885C257.118 121.726 257.1 121.558 257.118 121.392C257.136 121.226 257.189 121.065 257.274 120.919C257.468 120.632 257.773 120.425 258.125 120.341C258.477 120.256 258.85 120.301 259.168 120.466C259.327 120.542 259.467 120.648 259.581 120.776C259.696 120.904 259.781 121.052 259.833 121.212C259.885 121.372 259.902 121.539 259.883 121.705C259.864 121.871 259.81 122.032 259.723 122.178V122.178Z" fill="#263238"/>
<path d="M263.162 119.021C262.92 119.081 262.45 117.935 261.155 117.189C259.859 116.443 258.541 116.523 258.499 116.277C258.499 116.17 258.798 115.997 259.396 115.957C260.186 115.922 260.969 116.115 261.639 116.51C262.302 116.898 262.818 117.471 263.113 118.148C263.319 118.661 263.276 118.994 263.162 119.021Z" fill="#263238"/>
<path d="M248.267 115.937C248.073 116.223 247.77 116.429 247.42 116.513C247.069 116.597 246.698 116.553 246.38 116.39C246.222 116.314 246.081 116.209 245.967 116.08C245.853 115.952 245.767 115.804 245.715 115.644C245.664 115.485 245.647 115.317 245.665 115.151C245.684 114.985 245.739 114.824 245.825 114.679C246.019 114.393 246.322 114.187 246.673 114.103C247.023 114.019 247.395 114.063 247.712 114.226C247.87 114.302 248.011 114.407 248.125 114.535C248.24 114.664 248.325 114.812 248.377 114.971C248.429 115.131 248.446 115.299 248.427 115.465C248.408 115.631 248.354 115.791 248.267 115.937V115.937Z" fill="#263238"/>
<path d="M250.467 111.928C250.225 111.988 249.755 110.842 248.459 110.103C247.164 109.364 245.846 109.437 245.804 109.184C245.804 109.084 246.103 108.904 246.701 108.871C247.492 108.833 248.275 109.026 248.944 109.424C249.606 109.809 250.122 110.38 250.417 111.055C250.624 111.568 250.581 111.888 250.467 111.928Z" fill="#263238"/>
<path d="M249.2 123.483C250.004 123.68 250.778 123.968 251.507 124.342C251.856 124.502 252.219 124.622 252.397 124.442C252.633 124.145 252.767 123.787 252.781 123.416C252.966 122.497 253.159 121.538 253.365 120.533C254.227 116.443 255.067 113.16 255.245 113.207C255.423 113.253 254.86 116.583 253.999 120.666C253.778 121.672 253.565 122.664 253.365 123.543C253.326 124.029 253.104 124.487 252.739 124.835C252.62 124.917 252.484 124.971 252.339 124.994C252.194 125.017 252.046 125.008 251.906 124.968C251.694 124.908 251.491 124.826 251.3 124.722C250.547 124.394 249.841 123.978 249.2 123.483Z" fill="#263238"/>
<path d="M253.913 107.446C253.572 107.692 252.397 106.78 250.788 106.114C249.179 105.448 247.712 105.088 247.705 104.682C247.705 104.489 248.125 104.302 248.823 104.276C249.733 104.261 250.634 104.45 251.45 104.828C252.272 105.188 252.992 105.724 253.55 106.393C253.963 106.906 254.07 107.319 253.913 107.446Z" fill="#263238"/>
<path d="M264.992 115.291C264.586 115.431 263.896 114.625 262.856 114.006C261.817 113.386 260.777 113.053 260.763 112.674C260.763 112.487 261.083 112.294 261.646 112.268C262.38 112.253 263.1 112.456 263.704 112.847C264.317 113.221 264.791 113.763 265.063 114.399C265.241 114.865 265.177 115.218 264.992 115.291Z" fill="#263238"/>
<path d="M269.051 112.228C269.051 112.228 270.104 106.087 268.339 103.49C266.203 100.346 262.835 102.704 260.443 100.26C258.05 97.8154 256.035 94.8051 251.685 95.1781C246.922 95.5777 247.363 98.0685 244.871 101.399C234.747 114.905 229.385 117.269 232.995 110.23C233.394 109.457 231.635 107.639 233.344 104.409C235.565 100.22 238.598 95.3246 241.411 93.0868C243.782 91.1887 246.309 90.4228 250.09 90.1031C256.064 89.6369 261.703 92.8404 265.27 95.4311C268.837 98.0219 273.458 106.34 269.051 112.228Z" fill="#263238"/>
<path d="M233.678 110.33C233.859 110.039 233.975 109.717 234.019 109.384C234.063 109.05 234.033 108.711 233.933 108.389C233.832 108.066 233.662 107.766 233.434 107.506C233.205 107.247 232.923 107.034 232.603 106.88C230.958 106.114 228.687 105.927 226.793 108.984C223.44 114.399 229.947 116.437 230.054 116.31C230.161 116.184 232.297 112.607 233.678 110.33Z" fill="#AE7461"/>
<path d="M230.054 113.566C230.054 113.533 229.912 113.566 229.698 113.566C229.398 113.532 229.125 113.388 228.937 113.167C228.452 112.627 228.502 111.442 229.079 110.449C229.352 109.977 229.734 109.568 230.197 109.251C230.357 109.111 230.55 109.01 230.761 108.956C230.972 108.901 231.193 108.895 231.407 108.938C231.539 108.974 231.654 109.051 231.733 109.156C231.812 109.261 231.85 109.389 231.842 109.517C231.842 109.71 231.72 109.803 231.742 109.823C231.763 109.843 231.927 109.823 232.02 109.557C232.075 109.406 232.075 109.242 232.02 109.091C231.931 108.892 231.762 108.734 231.55 108.651C231.285 108.567 231.001 108.547 230.726 108.594C230.451 108.64 230.192 108.752 229.976 108.918C229.437 109.257 228.995 109.714 228.687 110.25C228.047 111.362 227.975 112.707 228.687 113.393C228.817 113.519 228.975 113.616 229.15 113.677C229.325 113.738 229.512 113.761 229.698 113.746C229.976 113.693 230.069 113.586 230.054 113.566Z" fill="#6F4439"/>
<path d="M240.656 100.1C240.997 101.036 241.585 101.877 242.365 102.544C243.198 103.143 244.536 103.257 245.213 102.544C245.526 102.211 245.718 101.725 246.167 101.592C246.615 101.458 247.206 101.871 247.648 102.198C248.438 102.742 249.404 103.016 250.385 102.972C251.365 102.928 252.299 102.57 253.031 101.958C253.031 102.79 254.056 103.343 254.953 103.33C255.841 103.219 256.708 102.995 257.53 102.664C257.944 102.504 258.392 102.44 258.837 102.478C259.283 102.517 259.711 102.656 260.086 102.884C260.464 103.183 260.706 103.65 261.147 103.863C261.938 104.236 262.842 103.63 263.419 103.004C263.995 102.378 264.622 101.618 265.498 101.612C266.373 101.605 266.922 102.278 267.57 102.744C268.217 103.21 269.179 103.603 269.77 103.077C269.911 102.926 270.019 102.749 270.086 102.558C270.154 102.367 270.179 102.165 270.161 101.965C270.126 101.054 269.764 100.181 269.134 99.4862C268.504 98.7915 267.642 98.3156 266.687 98.1351C266.991 97.0898 266.958 95.9837 266.593 94.9555C266.228 93.9274 265.547 93.023 264.634 92.3558C263.721 91.6886 262.619 91.2883 261.464 91.2051C260.309 91.1218 259.154 91.3594 258.143 91.888C257.881 91.022 257.4 90.228 256.739 89.5739C256.079 88.9198 255.258 88.425 254.349 88.1318C253.439 87.8386 252.468 87.7558 251.516 87.8903C250.565 88.0248 249.663 88.3727 248.887 88.9043C248.305 88.3272 247.555 87.9229 246.73 87.7416C245.904 87.5603 245.04 87.6101 244.245 87.8849C243.449 88.1596 242.758 88.6471 242.256 89.2867C241.755 89.9262 241.466 90.6896 241.425 91.4818C240.734 91.4202 240.038 91.5236 239.402 91.7822C238.766 92.0408 238.21 92.4461 237.787 92.9603C237.032 94.0459 237.445 95.8108 238.769 96.1771C238.235 96.4693 237.842 96.9439 237.674 97.5011C237.506 98.0583 237.575 98.6549 237.868 99.1653C238.16 99.6757 238.652 100.06 239.241 100.238C239.83 100.416 240.47 100.374 241.026 100.12" fill="#263238"/>
<path d="M266.081 99.94C266.063 99.9763 266.039 100.01 266.01 100.04C265.942 100.13 265.868 100.217 265.79 100.3C265.473 100.617 265.103 100.882 264.693 101.085C264.047 101.407 263.331 101.585 262.6 101.605C261.625 101.646 260.663 101.389 259.859 100.872L260.037 100.806C259.884 101.391 259.49 101.897 258.94 102.211C258.37 102.54 257.751 102.789 257.103 102.95C256.764 103.062 256.413 103.142 256.057 103.19C255.676 103.202 255.297 103.129 254.953 102.977C254.589 102.825 254.269 102.593 254.021 102.301C253.773 102.009 253.604 101.665 253.529 101.299L253.785 101.365C253.337 101.87 252.782 102.283 252.154 102.577C251.527 102.87 250.841 103.038 250.14 103.07C249.352 103.127 248.565 102.945 247.897 102.551C247.284 102.157 246.747 101.668 246.309 101.105H246.501C245.779 101.576 244.942 101.869 244.066 101.958C243.652 102.017 243.229 101.987 242.828 101.872C242.428 101.757 242.06 101.558 241.752 101.292C241.235 100.824 240.876 100.224 240.719 99.5675C240.562 98.9106 240.614 98.225 240.87 97.5956L240.962 97.7288C240.163 97.68 239.407 97.3714 238.826 96.8564C238.392 96.49 238.056 96.0339 237.844 95.5244C237.719 95.1971 237.651 94.8529 237.644 94.5054C237.635 94.3841 237.65 94.2623 237.687 94.1458C237.686 94.6012 237.775 95.0529 237.95 95.4778C238.17 95.972 238.508 96.4119 238.94 96.7631C239.498 97.2386 240.215 97.5187 240.969 97.5557H241.112L241.062 97.6822C240.831 98.2734 240.79 98.9145 240.943 99.5272C241.096 100.14 241.437 100.698 241.923 101.132C242.211 101.371 242.552 101.545 242.922 101.643C243.292 101.741 243.681 101.76 244.059 101.698C244.887 101.609 245.678 101.328 246.359 100.879L246.466 100.806L246.551 100.906C246.971 101.443 247.484 101.911 248.068 102.291C248.688 102.655 249.417 102.821 250.147 102.764C250.808 102.735 251.456 102.578 252.048 102.301C252.64 102.025 253.164 101.636 253.586 101.159L253.785 100.932L253.835 101.225C253.9 101.549 254.048 101.854 254.266 102.112C254.484 102.371 254.766 102.576 255.088 102.711C255.392 102.846 255.727 102.912 256.064 102.904C256.398 102.861 256.727 102.788 257.046 102.684C257.67 102.54 258.269 102.316 258.826 102.018C259.076 101.884 259.295 101.704 259.469 101.489C259.642 101.273 259.768 101.028 259.837 100.766V100.606L259.98 100.699C260.737 101.204 261.649 101.463 262.578 101.438C263.288 101.431 263.986 101.274 264.622 100.979C265.171 100.717 265.666 100.365 266.081 99.94Z" fill="#455A64"/>
<path d="M247.327 128.405C246.441 127.876 245.708 127.151 245.191 126.294C244.603 125.494 244.143 124.619 243.824 123.696C244.459 124.448 245.019 125.253 245.498 126.1C246.416 127.432 247.406 128.332 247.327 128.405Z" fill="#263238"/>
<path d="M194.02 179.154C193.52 178.768 193.079 178.32 192.71 177.822C190.792 175.508 189.476 172.808 188.865 169.937C188.706 169.351 188.634 168.749 188.651 168.145C188.849 168.714 189.006 169.295 189.121 169.883C189.495 171.277 190 172.636 190.631 173.946C191.279 175.248 192.046 176.496 192.923 177.675C193.319 178.148 193.685 178.642 194.02 179.154V179.154Z" fill="#FF725E"/>
<path d="M280.528 279.394L243.454 277.222C237.146 276.856 227.968 275.111 229.043 265.814C230.118 260.386 231.849 259.773 231.849 259.773C231.849 259.773 238.584 258.754 242.351 258.082C243.347 257.909 249.962 256.896 250.254 256.896C250.254 256.896 251.728 248.118 261.112 248.025C265.647 247.978 274.996 248.598 283.447 249.25C287.824 249.59 291.903 251.459 294.873 254.485C297.843 257.512 299.486 261.473 299.474 265.581V266.4C298.848 275.557 290.233 280.193 280.528 279.394Z" fill="#FFBF9D"/>
<path d="M250.218 256.896C250.21 260.946 251.446 264.913 253.778 268.325C253.778 268.325 246.388 266.067 247.249 257.309L250.218 256.896Z" fill="#FF9A6C"/>
<path d="M278.392 263.896C278.193 264.056 278.976 265.121 278.905 266.56C278.833 267.998 277.972 269.064 278.193 269.224C278.413 269.384 278.634 269.151 279.033 268.698C279.541 268.088 279.832 267.345 279.866 266.573C279.903 265.807 279.676 265.051 279.218 264.415C278.833 263.982 278.484 263.816 278.392 263.896Z" fill="#263238"/>
<path d="M274.754 263.736C274.423 263.731 274.103 263.847 273.864 264.06C273.624 264.273 273.483 264.566 273.472 264.875C273.458 265.026 273.477 265.178 273.528 265.322C273.578 265.465 273.659 265.598 273.765 265.713C273.871 265.827 274.001 265.92 274.146 265.987C274.291 266.053 274.45 266.092 274.611 266.1C274.941 266.102 275.258 265.985 275.497 265.772C275.736 265.56 275.878 265.269 275.893 264.961C275.907 264.81 275.889 264.658 275.839 264.514C275.789 264.369 275.709 264.236 275.602 264.122C275.496 264.007 275.366 263.914 275.22 263.848C275.074 263.781 274.916 263.743 274.754 263.736Z" fill="#263238"/>
<path d="M267.819 259.474C268.063 258.764 268.206 258.027 268.246 257.282C268.289 256.943 268.36 256.616 268.609 256.557C268.991 256.529 269.374 256.61 269.706 256.79L272.504 257.809C276.491 259.234 279.773 260.259 279.837 260.113C279.902 259.966 276.712 258.688 272.717 257.262L269.869 256.283C269.431 256.071 268.928 256.008 268.445 256.104C268.315 256.153 268.199 256.23 268.105 256.328C268.011 256.426 267.943 256.543 267.904 256.67C267.849 256.861 267.818 257.058 267.812 257.256C267.718 257.993 267.72 258.737 267.819 259.474V259.474Z" fill="#263238"/>
<path d="M284.216 264.928C283.86 265.048 284.031 266.26 283.839 267.632C283.647 269.004 283.227 270.156 283.547 270.336C283.704 270.423 284.038 270.223 284.387 269.77C284.81 269.167 285.075 268.481 285.163 267.765C285.251 267.049 285.158 266.324 284.893 265.647C284.672 265.135 284.387 264.882 284.216 264.928Z" fill="#263238"/>
<path d="M282.436 250.849C282.137 250.982 282.365 252.181 282.301 253.513C282.237 254.845 281.952 256.037 282.237 256.177C282.372 256.25 282.643 256.037 282.906 255.571C283.232 254.948 283.412 254.266 283.433 253.573C283.465 252.865 283.336 252.159 283.056 251.502C282.828 251.029 282.579 250.789 282.436 250.849Z" fill="#263238"/>
<path d="M273.543 278.661C273.614 278.814 275.437 284.695 269.022 284.495C262.607 284.295 264.152 278.308 264.337 278.301C264.522 278.295 273.543 278.661 273.543 278.661Z" fill="#FFBF9D"/>
<path d="M266.701 280.213C266.701 280.213 266.615 280.313 266.523 280.486C266.401 280.733 266.385 281.015 266.48 281.272C266.701 281.938 267.762 282.477 268.915 282.544C269.464 282.578 270.014 282.496 270.524 282.304C270.728 282.255 270.916 282.161 271.071 282.028C271.226 281.896 271.344 281.73 271.414 281.545C271.451 281.426 271.443 281.299 271.391 281.185C271.339 281.071 271.247 280.977 271.13 280.919C270.952 280.832 270.823 280.866 270.809 280.832C270.795 280.799 270.923 280.706 271.187 280.766C271.345 280.8 271.484 280.888 271.578 281.012C271.707 281.182 271.758 281.393 271.721 281.598C271.659 281.842 271.532 282.068 271.351 282.253C271.171 282.438 270.942 282.577 270.688 282.657C270.123 282.895 269.505 283 268.887 282.963C267.598 282.884 266.409 282.224 266.174 281.352C266.128 281.189 266.122 281.018 266.158 280.853C266.194 280.688 266.27 280.532 266.381 280.399C266.544 280.22 266.687 280.193 266.701 280.213Z" fill="#FF9A6C"/>
<path d="M292.71 238.255C293.076 238.388 293.372 238.648 293.536 238.981C293.818 239.703 293.889 240.482 293.743 241.239C293.607 243.57 294.164 245.891 295.352 247.945C296.682 248.96 297.923 250.074 299.061 251.275C301.76 254.126 303.576 256.437 304.359 258.754C305.377 261.758 305.498 266.66 304.401 269.63C303.305 272.6 300.457 275.151 297.103 275.338C298.527 277.149 298.285 279.7 297.232 281.711V281.765C296.171 284.016 293.458 285.141 290.888 285.647C288.317 286.154 285.605 286.253 283.248 287.339C282.757 287.572 282.166 287.839 281.689 287.579C281.517 287.461 281.389 287.297 281.319 287.109C281.249 286.922 281.241 286.718 281.297 286.527C281.42 286.145 281.626 285.791 281.902 285.488L279.866 286.12C279.78 285.272 279.909 284.416 280.243 283.623C278.033 283.041 275.863 282.336 273.743 281.512C273.821 280.552 273.821 279.66 273.294 279.027C272.582 278.162 271.158 277.695 271.813 276.397C272.148 275.731 273.728 275.218 274.497 275.065C279.581 273.893 284.875 273.759 290.019 274.672C291.175 273.783 292.141 272.699 292.867 271.475L292.76 271.568C293.857 269.197 294.967 266.5 293.928 264.102C293.123 262.244 291.222 261.052 289.741 259.593C288.374 258.253 287.311 256.667 286.617 254.932C285.923 253.197 285.613 251.348 285.704 249.497C283.084 249.184 279.36 249.131 276.74 248.831L281.112 247.059C281.439 246.913 281.76 246.793 282.08 246.68L282.18 246.64C282.709 246.471 283.227 246.276 283.732 246.054V246.054C283.507 245.751 283.406 245.382 283.447 245.015C283.488 244.648 283.669 244.307 283.956 244.055C284.244 243.802 284.619 243.654 285.013 243.639C285.407 243.623 285.794 243.74 286.103 243.969C286.384 244.196 286.624 244.464 286.815 244.762C286.528 244.44 286.335 244.055 286.255 243.643C286.175 243.23 286.211 242.806 286.359 242.411C286.524 242.017 286.822 241.686 287.208 241.467C287.594 241.248 288.046 241.153 288.495 241.199C288.794 241.254 289.072 241.381 289.302 241.568C289.532 241.755 289.706 241.995 289.805 242.264C289.801 241.177 290.143 240.112 290.788 239.207C291.208 238.548 291.92 237.988 292.71 238.255Z" fill="#263238"/>
<path d="M296.249 272.521C295.963 272.813 295.654 273.085 295.323 273.333C294.376 273.958 293.273 274.343 292.119 274.452C291.329 274.55 290.529 274.57 289.734 274.512C288.873 274.452 287.961 274.325 286.993 274.199C285.982 274.044 284.962 273.951 283.939 273.919C283.394 273.906 282.849 273.933 282.308 273.999C281.735 274.038 281.181 274.212 280.699 274.505C280.507 274.645 280.356 274.829 280.261 275.039C280.166 275.248 280.131 275.478 280.158 275.704C280.205 276.14 280.408 276.548 280.735 276.863C281.395 277.383 282.191 277.73 283.041 277.869V277.682C282.317 277.898 281.629 278.21 280.998 278.608C280.418 278.998 280.017 279.578 279.873 280.233C279.819 280.54 279.854 280.855 279.973 281.145C280.093 281.418 280.299 281.65 280.564 281.811C280.807 281.956 281.087 282.039 281.375 282.051C281.646 282.063 281.912 281.983 282.123 281.825L282.045 281.725C281.37 282.203 280.808 282.806 280.393 283.496C280.286 283.677 280.191 283.864 280.108 284.056C280.078 284.123 280.052 284.192 280.03 284.262C280.074 284.202 280.11 284.137 280.136 284.069C280.208 283.949 280.307 283.756 280.457 283.53C280.885 282.863 281.451 282.283 282.123 281.825L282.045 281.725C281.838 281.855 281.593 281.921 281.344 281.914C281.094 281.907 280.854 281.827 280.656 281.685C280.419 281.546 280.235 281.341 280.129 281.099C280.021 280.836 279.994 280.549 280.051 280.273C280.183 279.658 280.566 279.116 281.119 278.761C281.734 278.376 282.406 278.078 283.113 277.875L283.419 277.769L283.098 277.689C282.288 277.554 281.53 277.224 280.898 276.73C280.609 276.448 280.426 276.086 280.379 275.697C280.353 275.503 280.382 275.307 280.463 275.126C280.544 274.946 280.675 274.79 280.841 274.672C281.295 274.401 281.814 274.24 282.351 274.206C282.88 274.143 283.413 274.116 283.946 274.126C284.959 274.154 285.97 274.243 286.972 274.392C287.94 274.512 288.858 274.638 289.727 274.685C290.535 274.737 291.346 274.711 292.148 274.605C293.324 274.482 294.442 274.066 295.388 273.4C295.725 273.154 296.017 272.857 296.249 272.521V272.521Z" fill="#455A64"/>
<path d="M289.336 244.888L289.264 244.955C289.215 245.015 289.158 245.081 289.079 245.161C288.975 245.272 288.88 245.39 288.794 245.514C288.671 245.68 288.557 245.851 288.453 246.027C287.794 247.157 287.447 248.423 287.442 249.71C287.421 251.624 287.995 253.503 289.094 255.118C290.456 257.07 292.229 258.743 294.305 260.033C295.388 260.746 296.505 261.365 297.524 261.991C298.524 262.584 299.428 263.308 300.208 264.142C300.911 264.891 301.401 265.793 301.632 266.766C301.724 267.205 301.743 267.654 301.689 268.098C301.631 268.511 301.514 268.914 301.34 269.297C301.04 269.955 300.594 270.546 300.03 271.029C299.609 271.395 299.128 271.696 298.606 271.921C298.147 272.09 297.669 272.208 297.182 272.274H297.282H297.573C297.942 272.228 298.303 272.141 298.649 272.014C299.196 271.802 299.702 271.505 300.144 271.135C300.733 270.647 301.202 270.045 301.518 269.37C301.7 268.976 301.827 268.562 301.895 268.138C301.956 267.675 301.94 267.205 301.845 266.746C301.624 265.745 301.134 264.812 300.421 264.036C299.635 263.183 298.718 262.442 297.702 261.838C296.669 261.172 295.566 260.586 294.49 259.88C292.438 258.603 290.681 256.954 289.321 255.031C288.23 253.442 287.649 251.593 287.648 249.703C287.643 248.434 287.965 247.182 288.588 246.054C288.987 245.274 289.364 244.908 289.336 244.888Z" fill="#455A64"/>
<path d="M293.501 244.382C293.4 244.469 293.313 244.57 293.244 244.682C293.023 244.963 292.827 245.262 292.661 245.574C292.407 246.033 292.198 246.513 292.034 247.006C291.834 247.61 291.694 248.23 291.614 248.858C291.554 249.489 291.554 250.124 291.614 250.756C291.664 251.271 291.762 251.781 291.906 252.281C292.002 252.617 292.123 252.946 292.269 253.266C292.313 253.387 292.375 253.502 292.454 253.606C292.497 253.606 292.269 253.093 292.062 252.274C291.939 251.779 291.856 251.276 291.813 250.769C291.772 250.15 291.784 249.528 291.849 248.911C291.924 248.293 292.055 247.683 292.24 247.086C292.396 246.599 292.589 246.122 292.817 245.661C293.202 244.848 293.536 244.422 293.501 244.382Z" fill="#455A64"/>
<path d="M278.876 250.536C278.67 250.696 279.46 251.761 279.382 253.2C279.303 254.638 278.456 255.697 278.67 255.864C278.883 256.03 279.111 255.784 279.51 255.338C280.018 254.726 280.309 253.981 280.343 253.207C280.38 252.443 280.153 251.688 279.695 251.055C279.31 250.622 278.962 250.456 278.876 250.536Z" fill="#263238"/>
<path d="M275.16 251.242C274.83 251.24 274.512 251.357 274.273 251.57C274.034 251.782 273.893 252.073 273.878 252.381C273.864 252.532 273.883 252.683 273.934 252.827C273.984 252.971 274.065 253.104 274.171 253.219C274.277 253.333 274.407 253.426 274.552 253.493C274.697 253.559 274.856 253.598 275.017 253.606C275.348 253.612 275.668 253.495 275.907 253.282C276.147 253.069 276.288 252.776 276.299 252.467C276.312 252.316 276.294 252.165 276.243 252.021C276.193 251.877 276.112 251.744 276.006 251.629C275.9 251.515 275.77 251.422 275.625 251.355C275.479 251.289 275.321 251.25 275.16 251.242V251.242Z" fill="#263238"/>
<path d="M264.864 263.197C264.441 262.307 264.128 261.375 263.931 260.419C263.618 259.49 263.424 258.528 263.354 257.556C263.784 258.443 264.097 259.375 264.287 260.333C264.601 261.262 264.795 262.224 264.864 263.197Z" fill="#263238"/>
<path d="M235.914 152.094C236.529 152.159 237.116 152.372 237.616 152.714C237.804 152.866 237.957 153.051 238.067 153.259C238.178 153.467 238.242 153.694 238.257 153.926C238.257 153.926 240.898 155.704 240.393 156.883C240.393 156.883 242.287 158.881 242.18 159.867C242.153 160.133 242.064 160.39 241.919 160.62C241.773 160.851 241.576 161.048 241.34 161.199C241.34 161.199 243.034 161.785 242.187 163.663C241.34 165.541 233.857 169.377 233.857 169.377L234.512 174.858L227.441 176.33L234.832 155.777L235.914 152.094Z" fill="#FFBF9D"/>
<path d="M194.255 272.234C192.213 273.115 189.997 273.586 187.749 273.617C185.5 273.647 183.27 273.236 181.202 272.411C179.134 271.586 177.274 270.365 175.741 268.826C174.208 267.287 173.038 265.464 172.304 263.476C171.56 261.571 170.997 259.607 170.624 257.609C169.556 251.075 163.554 224.868 163.554 224.868L170.624 200.859L203.775 213.999C203.775 213.999 199.866 262.724 198.178 268.711C197.737 270.203 196.249 271.355 194.255 272.234Z" fill="#FF725E"/>
<path opacity="0.3" d="M164.351 228.438L168.31 227.685L170.268 215.424C170.474 214.134 171.058 212.922 171.955 211.922C172.852 210.923 174.028 210.176 175.351 209.763L175.829 209.61L181.781 242.351H201.283L202.208 232.574L179.709 204.462L168.317 205.794L164.351 228.438Z" fill="black"/>
<path d="M225.597 120.546L221.596 124.542L207.356 126.433C207.356 126.433 196.512 132.054 188.951 145.854C181.389 159.654 172.112 191.428 172.112 191.428L217.587 209.63L236.028 151.735L238.52 144.602L225.597 120.546Z" fill="#FF725E"/>
<path d="M219.139 211.062L170.531 192.161L170.147 192.954C170.147 192.954 157.701 213.999 156.412 227.712L163.532 231.655L167.249 216.144L169.228 209.357L175.465 205.941L178.776 240.133L221.496 236.65L219.139 211.062Z" fill="#FF725E"/>
<path d="M219.139 211.062C219.139 211.062 219.139 211.209 219.196 211.495C219.253 211.781 219.267 212.221 219.331 212.787C219.438 213.933 219.602 215.618 219.816 217.802C220.236 222.204 220.841 228.605 221.603 236.636V236.75H221.489L178.769 240.279H178.605V240.126C177.587 229.643 176.469 218.088 175.28 205.941L175.551 206.074L169.313 209.484L169.399 209.384C168.901 211.089 168.367 212.92 167.833 214.765C167.384 216.184 167.121 217.622 166.729 219.047C166.337 220.473 166.017 221.891 165.711 223.303L163.703 231.675L163.646 231.908L163.425 231.781L156.305 227.839L156.206 227.779V227.679C156.601 224.366 157.345 221.098 158.427 217.922C159.431 214.798 160.613 211.795 161.873 208.911C164.268 203.43 166.978 198.074 169.99 192.867V192.867L170.381 192.074L170.446 191.948L170.581 192.001L205.896 205.807L215.736 209.69L218.299 210.709L219.161 211.062C219.161 211.062 218.847 210.956 218.263 210.736L215.658 209.743L205.768 205.954L170.46 192.294L170.659 192.221L170.275 193.013C167.278 198.214 164.585 203.564 162.208 209.037C160.947 211.915 159.773 214.912 158.776 218.022C157.711 221.178 156.976 224.423 156.583 227.712L156.497 227.552L163.617 231.495L163.347 231.608C164.002 228.851 164.671 226.058 165.355 223.23C165.687 221.818 166.026 220.399 166.373 218.974C166.722 217.549 167.028 216.104 167.469 214.692L169.043 209.297V209.231L169.114 209.191L175.351 205.781L175.6 205.647V205.914C176.775 218.062 177.886 229.623 178.897 240.1L178.712 239.96L221.432 236.523L221.325 236.643C220.613 228.651 220.051 222.238 219.666 217.849C219.474 215.651 219.331 213.959 219.232 212.807C219.189 212.241 219.153 211.801 219.125 211.475C219.097 211.149 219.139 211.062 219.139 211.062Z" fill="#263238"/>
<path d="M218.057 205.874L173.728 186.02C172.204 187.805 170.531 191.149 169.164 194.319L218.292 216.144L218.057 205.874Z" fill="#263238"/>
<path d="M209.022 154.652C202.187 169.97 196.163 189.577 200.222 205.734L208.545 247.692L229.456 242.551L224.373 199.261L227.149 195.085L232.404 168.125L237.388 155.824L236.797 149.49" fill="#FF725E"/>
<path d="M236.804 149.504C236.804 149.504 236.804 149.644 236.861 149.91C236.918 150.176 236.932 150.576 236.989 151.122C237.096 152.201 237.253 153.786 237.452 155.837C236.242 158.841 234.568 163.023 232.504 168.152C231.08 175.478 229.328 184.595 227.292 195.118C226.437 196.41 225.483 197.835 224.522 199.294V199.201C226.024 211.921 227.769 226.673 229.634 242.457V242.61L229.485 242.644L219.118 245.195L208.616 247.845L208.424 247.892L208.381 247.705C205.782 234.559 203.326 222.131 201.097 210.889C200.549 208.078 200.015 205.341 199.445 202.684C199.032 200.091 198.82 197.473 198.812 194.852C198.812 190.158 199.289 185.475 200.236 180.866C201.609 174.252 203.573 167.758 206.11 161.452C207.89 157.009 209.036 154.632 209.036 154.632C209.036 154.632 208.979 154.785 208.858 155.085L208.303 156.417C207.811 157.576 207.107 159.287 206.238 161.518C203.755 167.83 201.828 174.32 200.478 180.926C199.553 185.515 199.09 190.175 199.097 194.845C199.115 197.454 199.334 200.058 199.752 202.637C200.321 205.301 200.855 208.018 201.418 210.822C203.653 222.064 206.124 234.492 208.737 247.645L208.509 247.512L219.061 244.915L229.428 242.371L229.285 242.557C227.441 226.773 225.725 212.014 224.223 199.267V199.214V199.167L227.007 194.998V195.045C229.072 184.529 230.873 175.391 232.304 168.092L237.331 155.844C237.153 153.786 237.018 152.208 236.925 151.129C236.882 150.603 236.847 150.196 236.825 149.917C236.804 149.637 236.804 149.504 236.804 149.504Z" fill="#263238"/>
<path d="M235.508 148.391C235.268 148.118 235.054 147.826 234.867 147.519C234.483 146.946 233.935 146.107 233.265 145.061C231.927 142.977 230.118 140.073 228.182 136.836C226.245 133.6 224.551 130.636 223.354 128.478C222.749 127.399 222.272 126.52 221.93 125.914C221.747 125.604 221.59 125.281 221.46 124.948C221.69 125.228 221.888 125.529 222.051 125.847C222.443 126.513 222.949 127.339 223.554 128.365L228.481 136.67L233.465 144.942C234.07 145.961 234.575 146.806 234.967 147.452C235.175 147.751 235.356 148.065 235.508 148.391V148.391Z" fill="#263238"/>
<path d="M209.663 145.661C209.552 145.425 209.466 145.18 209.406 144.928C209.264 144.455 209.086 143.763 208.887 142.93C207.846 138.448 207.3 133.877 207.256 129.291C207.256 128.411 207.256 127.699 207.292 127.206C207.285 126.951 207.311 126.696 207.37 126.447C207.427 126.696 207.451 126.951 207.441 127.206C207.441 127.772 207.491 128.465 207.52 129.284C207.591 131.035 207.747 133.453 208.061 136.11C208.374 138.768 208.773 141.152 209.143 142.877C209.3 143.683 209.442 144.362 209.549 144.922C209.621 145.162 209.659 145.411 209.663 145.661V145.661Z" fill="#263238"/>
<path d="M223.134 199.294C221.178 197.83 219.303 196.274 217.516 194.632C215.642 193.084 213.852 191.448 212.155 189.73C212.226 189.663 214.739 191.728 217.772 194.392C220.806 197.056 223.205 199.227 223.134 199.294Z" fill="#263238"/>
<path d="M235.081 151.515C234.259 150.493 233.331 149.55 232.311 148.698C229.82 146.658 226.654 145.482 223.345 145.368C220.036 145.254 216.786 146.209 214.141 148.072C213.059 148.853 212.06 149.729 211.158 150.689C211.196 150.605 211.246 150.527 211.307 150.456C211.421 150.316 211.564 150.096 211.799 149.843C212.44 149.098 213.173 148.427 213.985 147.845C216.664 145.909 219.977 144.899 223.362 144.988C226.747 145.149 229.971 146.395 232.489 148.518C233.246 149.147 233.922 149.855 234.504 150.629C234.67 150.841 234.82 151.064 234.953 151.295C235.006 151.363 235.05 151.437 235.081 151.515V151.515Z" fill="#263238"/>
<path opacity="0.3" d="M207.676 157.749C203.879 162.876 200.925 168.506 198.911 174.452C196.27 182.624 193.607 194.372 198.911 213.486C204.216 232.601 206.032 235.138 206.032 235.138C206.032 235.138 199.211 203.796 199.211 200.18C199.211 196.563 198.648 189.037 200.044 182.864C202.021 174.35 204.57 165.962 207.676 157.749V157.749Z" fill="black"/>
<path d="M252.048 276.81C252.048 276.81 251.963 276.73 251.827 276.57L251.265 275.851C250.788 275.218 250.069 274.325 249.129 273.233C248.189 272.141 247.1 270.876 245.797 269.517C244.494 268.158 242.949 266.74 241.311 265.334C238.453 262.934 235.353 260.797 232.055 258.954C230.788 258.255 229.741 257.709 229.008 257.356L228.168 256.929C228.068 256.884 227.975 256.828 227.89 256.763C227.89 256.763 228.004 256.763 228.203 256.87L229.072 257.236C229.827 257.549 230.895 258.062 232.19 258.741C235.545 260.533 238.686 262.653 241.56 265.068C243.136 266.403 244.635 267.815 246.053 269.297C247.349 270.676 248.46 271.961 249.335 273.08C250.211 274.199 250.902 275.078 251.343 275.744L251.856 276.497C251.933 276.593 251.998 276.698 252.048 276.81V276.81Z" fill="#263238"/>
<path d="M253.102 278.022C253.102 278.022 243.803 263.876 229.534 257.556C215.266 251.235 206.75 268.212 206.75 268.212L244.757 289.044L253.102 278.022Z" fill="#455A64"/>
<path d="M245.683 277.615C245.434 277.392 245.212 277.144 245.02 276.876C244.615 276.383 244.009 275.684 243.24 274.832C239.24 270.411 234.415 266.705 229.001 263.896C227.961 263.356 227.107 262.943 226.509 262.67C226.192 262.541 225.89 262.385 225.604 262.204C225.937 262.291 226.261 262.405 226.573 262.544C227.192 262.784 228.061 263.17 229.122 263.683C231.883 265.032 234.488 266.643 236.897 268.491C239.305 270.341 241.507 272.414 243.468 274.678C244.18 275.551 244.786 276.277 245.156 276.796C245.356 277.055 245.532 277.329 245.683 277.615V277.615Z" fill="#263238"/>
<g opacity="0.3">
<path opacity="0.3" d="M210.987 264.122C212.336 265.586 213.933 266.833 215.715 267.812C216.609 268.296 217.596 268.61 218.62 268.736C219.644 268.861 220.684 268.796 221.681 268.544C223.319 268.065 224.693 266.933 226.366 266.546C228.438 266.087 230.588 266.866 232.454 267.819C234.298 268.789 236.292 269.487 238.364 269.89C231.507 263.49 221.817 260.1 212.126 259.9C210.904 259.798 209.674 260.005 208.566 260.499C207.27 261.205 206.558 262.564 205.953 263.829C204.12 267.711 202.508 271.682 201.126 275.724C200.75 276.49 200.699 277.361 200.984 278.162C201.425 279.007 202.507 279.334 203.476 279.56C212.02 281.558 221.51 282.684 230.289 281.785C227.959 279.312 225.031 277.395 221.75 276.192C218.468 274.99 214.928 274.537 211.421 274.871C210.41 274.978 205.654 276.41 205.256 275.537C205.07 275.125 205.925 273.16 206.081 272.734C207.498 268.884 208.965 266.08 210.987 264.122Z" fill="black"/>
</g>
<path d="M225.704 243.463L224.373 249.996C225.925 250.876 228.032 252.088 228.979 252.714C230.588 253.779 231.464 258.455 231.464 258.455L227.491 256.603L227.035 257.782C227.035 257.782 230.709 264.442 227.491 265.621L225.319 265.181C225.319 265.181 225.319 266.773 222.009 265.621C222.009 265.621 221.062 267.073 218.605 266.04C218.605 266.04 218.135 266.413 216.996 265.887C215.857 265.361 211.044 261.998 211.044 261.998V258.168V247.066C210.36 247.086 225.704 243.463 225.704 243.463Z" fill="#AE7461"/>
<path d="M221.774 258.914C221.774 258.947 221.525 258.914 221.233 258.668C220.847 258.366 220.581 257.951 220.479 257.491C220.377 257.03 220.444 256.551 220.67 256.13C220.841 255.817 221.026 255.677 221.069 255.704C220.86 256.254 220.782 256.841 220.841 257.422C221.055 258.368 221.845 258.834 221.774 258.914Z" fill="#6F4439"/>
<path d="M225.704 265.681C224.457 264.277 223.546 262.64 223.034 260.879C223.572 261.631 224.036 262.427 224.422 263.256C224.924 264.028 225.353 264.839 225.704 265.681V265.681Z" fill="#6F4439"/>
<path d="M227.035 257.609C226.936 257.609 227.035 257.043 227.235 256.403C227.434 255.764 227.69 255.271 227.79 255.298C227.89 255.324 227.79 255.864 227.591 256.503C227.391 257.143 227.128 257.635 227.035 257.609Z" fill="#6F4439"/>
<path d="M219.246 261.938C219.246 261.978 218.912 261.938 218.47 261.651C217.9 261.294 217.453 260.788 217.186 260.197C216.919 259.605 216.843 258.953 216.968 258.321C217.068 257.842 217.238 257.589 217.281 257.602C217.092 258.425 217.179 259.283 217.53 260.058C217.882 260.833 218.481 261.487 219.246 261.931V261.938Z" fill="#6F4439"/>
<path d="M222.087 265.787C222.016 265.847 221.375 265.288 220.791 264.495C220.371 264.044 220.062 263.512 219.887 262.937C219.972 262.884 220.485 263.51 221.09 264.269C221.514 264.717 221.851 265.231 222.087 265.787V265.787Z" fill="#6F4439"/>
<path d="M216.014 262.551C216.014 262.59 215.7 262.551 215.302 262.317C214.763 261.999 214.34 261.534 214.091 260.985C213.842 260.444 213.778 259.844 213.906 259.267C214.006 258.828 214.177 258.601 214.219 258.601C214.033 259.348 214.107 260.132 214.431 260.836C214.755 261.541 215.313 262.13 216.021 262.517L216.014 262.551Z" fill="#6F4439"/>
<path d="M218.933 266.08C218.848 266.14 218.221 265.568 217.559 264.802C217.096 264.373 216.726 263.864 216.469 263.303C216.548 263.243 217.181 263.816 217.844 264.582C218.302 265.014 218.672 265.522 218.933 266.08V266.08Z" fill="#6F4439"/>
<path d="M228.965 243.157C229.25 243.396 224.372 246.833 224.372 246.833C224.372 246.833 220.471 250.483 218.377 251.029C215.993 251.776 213.689 252.735 211.5 253.893L204.38 267.546L188.943 263.869L202.016 246.786C202.134 244.996 202.386 243.216 202.77 241.458C203.24 239.953 208.822 232.174 209.67 231.468C210.517 230.762 211.564 230.05 212.696 230.403C213.828 230.756 213.65 233.067 213.65 233.067C213.65 233.067 215.629 232.8 216.498 233.153C217.366 233.506 217.537 235.364 217.537 235.364C217.889 235.231 218.27 235.178 218.649 235.208C219.027 235.238 219.393 235.351 219.716 235.538C220.074 235.667 220.377 235.901 220.581 236.204C220.785 236.508 220.878 236.865 220.848 237.223C221.263 237.017 221.731 236.925 222.199 236.955C222.667 236.986 223.117 237.138 223.497 237.396C223.909 237.673 224.232 238.05 224.432 238.487C224.631 238.924 224.7 239.403 224.629 239.873L221.133 244.688L223.048 244.056C223.048 244.056 227.035 241.552 228.965 243.157Z" fill="#FFBF9D"/>
<path d="M221.24 239.966C220.919 239.726 220.584 239.504 220.236 239.3C219.325 238.843 218.26 238.736 217.267 239.001L217.067 239.054V238.861C217.02 238.465 216.864 238.088 216.613 237.766C216.362 237.445 216.026 237.189 215.638 237.026C215.25 236.863 214.823 236.797 214.4 236.835C213.976 236.873 213.571 237.013 213.223 237.243L213.002 237.389L212.952 237.143C212.854 236.657 212.589 236.215 212.197 235.884C211.892 235.612 211.524 235.409 211.122 235.291C210.757 235.201 210.382 235.157 210.004 235.158C210.004 235.158 210.104 235.105 210.303 235.065C210.595 235.027 210.892 235.041 211.179 235.105C211.623 235.206 212.036 235.405 212.382 235.684C212.844 236.044 213.163 236.539 213.287 237.089L213.023 236.989C213.417 236.719 213.88 236.551 214.366 236.502C214.852 236.454 215.343 236.527 215.789 236.714C216.234 236.9 216.619 237.195 216.904 237.566C217.189 237.937 217.363 238.373 217.409 238.828L217.188 238.694C217.721 238.557 218.278 238.524 218.825 238.599C219.372 238.673 219.896 238.853 220.364 239.127C221.019 239.56 221.268 239.953 221.24 239.966Z" fill="#FF9A6C"/>
<path d="M221.254 237.183C221.304 237.269 220.955 237.522 220.542 237.849C220.129 238.175 219.78 238.415 219.702 238.348C219.624 238.281 219.866 237.909 220.314 237.582C220.763 237.256 221.211 237.096 221.254 237.183Z" fill="#FF9A6C"/>
<path d="M217.587 234.912C217.666 234.971 217.48 235.318 217.167 235.684C216.854 236.05 216.541 236.297 216.455 236.237C216.37 236.177 216.569 235.831 216.875 235.464C217.181 235.098 217.502 234.852 217.587 234.912Z" fill="#FF9A6C"/>
<path d="M213.814 233.06C213.892 233.12 213.678 233.493 213.337 233.893C212.995 234.292 212.625 234.559 212.575 234.512C212.525 234.465 212.703 234.079 213.045 233.679C213.386 233.28 213.735 233 213.814 233.06Z" fill="#FF9A6C"/>
<path d="M218.969 248.365C219.049 247.688 219.292 247.036 219.681 246.46C219.976 245.832 220.419 245.274 220.976 244.828C220.726 245.458 220.402 246.058 220.008 246.62C219.731 247.235 219.382 247.82 218.969 248.365V248.365Z" fill="#FF9A6C"/>
<path d="M227.413 279.094C227.413 279.094 223.418 278.541 221.005 278.428C214.17 278.108 204.522 278.022 204.522 278.022L208.545 264.362L210.481 258.575L177.181 256.989C177.523 257.935 171.193 289.823 175.914 296.057C180.634 302.291 193.607 303.736 200.627 303.896C205.526 304.009 220.108 303.576 228.488 303.31C231.034 303.241 233.532 302.638 235.796 301.545C238.06 300.453 240.032 298.898 241.567 296.996C242.671 295.604 243.44 294.152 243.39 292.82" fill="#455A64"/>
<path d="M243.39 292.82C243.409 292.977 243.409 293.136 243.39 293.293C243.346 293.75 243.233 294.198 243.055 294.625C242.307 296.267 241.196 297.742 239.795 298.954C236.925 301.506 233.21 303.064 229.264 303.37C228.324 303.436 227.363 303.443 226.373 303.483L220.079 303.689C215.672 303.816 210.823 303.962 205.654 304.036C203.062 304.069 200.371 304.102 197.601 303.909C194.758 303.729 191.931 303.362 189.143 302.81C186.199 302.241 183.352 301.302 180.677 300.02C179.308 299.321 178.047 298.449 176.932 297.429C176.656 297.161 176.397 296.879 176.156 296.583L175.771 296.15L175.465 295.657C175.279 295.324 175.117 294.979 174.981 294.625C174.874 294.259 174.739 293.906 174.661 293.539C174.069 290.554 173.851 287.514 174.013 284.482C174.098 281.412 174.34 278.301 174.668 275.158C174.995 272.014 175.38 268.944 175.814 265.907C176.035 264.389 176.248 262.89 176.469 261.398C176.576 260.652 176.683 259.906 176.79 259.174L176.939 258.068L176.996 257.522C177.005 257.36 177.005 257.198 176.996 257.036V256.803H177.195L210.489 258.408H210.688L210.631 258.588C210.009 260.422 209.411 262.198 208.837 263.916C208.289 265.654 207.811 267.346 207.32 268.971L204.636 278.015L204.522 277.875C211.742 278.068 217.48 278.208 221.404 278.348C225.327 278.668 227.413 279.054 227.413 279.054C227.413 279.054 227.278 279.054 227.021 279.014L225.868 278.881C224.857 278.774 223.354 278.588 221.396 278.468L204.522 278.095H204.344L204.387 277.962C205.191 275.191 206.081 272.168 207.028 268.904C207.512 267.279 207.982 265.574 208.531 263.849C209.079 262.124 209.698 260.333 210.311 258.521L210.453 258.708L177.146 257.143L177.331 256.916C177.356 257.124 177.356 257.334 177.331 257.542L177.274 258.102L177.124 259.207L176.804 261.438C176.59 262.93 176.37 264.429 176.149 265.947C175.729 268.977 175.33 272.061 175.01 275.185C174.689 278.308 174.44 281.418 174.347 284.509C174.187 287.512 174.399 290.522 174.981 293.48C175.067 293.839 175.195 294.179 175.294 294.532C175.421 294.871 175.576 295.201 175.757 295.518L176.042 295.977L176.405 296.397C176.64 296.681 176.892 296.952 177.16 297.209C178.247 298.213 179.479 299.069 180.82 299.753C183.466 301.02 186.282 301.95 189.193 302.517C191.964 303.071 194.774 303.442 197.601 303.629C200.35 303.823 203.027 303.796 205.619 303.769C210.802 303.703 215.636 303.576 220.044 303.463L226.338 303.283C227.327 303.25 228.296 303.243 229.186 303.183C230.085 303.115 230.977 302.986 231.856 302.797C234.775 302.163 237.463 300.817 239.645 298.894C241.045 297.7 242.167 296.249 242.942 294.632C243.125 294.205 243.247 293.757 243.305 293.3C243.39 292.98 243.376 292.82 243.39 292.82Z" fill="#263238"/>
<path d="M195.166 284.542C195.166 284.482 195.878 284.442 197.039 284.182C198.524 283.854 199.944 283.308 201.247 282.564C201.963 282.155 202.638 281.684 203.262 281.159C203.79 280.766 204.219 280.268 204.515 279.7C204.695 279.315 204.747 278.888 204.664 278.475C204.593 278.188 204.493 278.042 204.522 278.022C204.55 278.002 204.686 278.135 204.8 278.441C204.944 278.877 204.929 279.346 204.757 279.773C204.478 280.394 204.046 280.944 203.497 281.378C201.709 282.932 199.487 283.98 197.089 284.402C196.618 284.482 196.142 284.531 195.665 284.549C195.351 284.575 195.166 284.568 195.166 284.542Z" fill="#263238"/>
<path d="M206.615 294.459C206.558 294.459 206.615 293.733 206.615 292.58C206.615 289.561 205.923 286.577 204.586 283.829C204.073 282.777 203.696 282.151 203.746 282.124C204.181 282.609 204.542 283.146 204.821 283.723C206.307 286.464 207.015 289.516 206.879 292.587C206.884 293.219 206.795 293.849 206.615 294.459V294.459Z" fill="#263238"/>
<path d="M241.575 289.643C241.511 289.643 241.24 288.977 240.592 287.985C240.21 287.403 239.779 286.851 239.303 286.333C238.708 285.711 238.061 285.134 237.367 284.608C236.088 283.664 234.709 282.845 233.251 282.164C232.63 281.905 232.026 281.612 231.443 281.285C232.111 281.431 232.757 281.655 233.365 281.951C234.882 282.574 236.306 283.378 237.602 284.342C238.312 284.881 238.968 285.481 239.56 286.134C240.038 286.672 240.46 287.252 240.82 287.865C241.065 288.276 241.273 288.706 241.439 289.151C241.553 289.457 241.603 289.637 241.575 289.643Z" fill="#263238"/>
</svg>
