<svg width="356" height="345" viewBox="0 0 356 345" fill="none" xmlns="http://www.w3.org/2000/svg">
<path d="M281.475 288.42C273.486 286.654 264.928 284.915 257.267 287.73C251.777 289.8 247.463 293.94 242.607 297.142C233.996 302.81 223.682 305.537 213.294 304.89C197.302 303.848 182.763 294.913 166.793 293.561C152.553 292.346 138.619 297.245 124.892 301.116C100.209 308.057 74.6952 311.838 48.9999 312.363L36.8531 325.418C37.6292 331.152 44.856 334.084 50.7372 333.27C56.6183 332.456 61.823 329.13 67.4336 327.157C89.5056 319.449 114.974 333.367 137.074 325.728C148.644 321.74 158.149 312.142 170.375 311.045C181.218 310.072 191.236 316.055 201.61 319.263C210.243 321.866 219.359 322.605 228.319 321.43C237.278 320.255 245.864 317.193 253.472 312.46C258.926 309.01 263.96 304.656 270.19 302.834C278.898 300.281 288.161 303.124 297.111 304.67C311.913 307.21 327.134 306.165 341.418 301.627L281.475 288.42Z" fill="#E0E0E0"/>
<path d="M346.203 148.792H9.05664V184.83H346.203V148.792Z" fill="#EBEBEB"/>
<path d="M95.1588 15.6561H56.1483V79.2948H95.1588V15.6561Z" fill="#F5F5F5"/>
<path d="M54.8311 15.6561H23.083V79.2948H54.8311V15.6561Z" fill="#F5F5F5"/>
<path d="M172.553 15.6561H138.27V79.2948H172.553V15.6561Z" fill="#F5F5F5"/>
<path d="M54.8311 80.4333H23.083V137.779H54.8311V80.4333Z" fill="#F5F5F5"/>
<path d="M95.1588 80.4333H56.1483V137.779H95.1588V80.4333Z" fill="#F5F5F5"/>
<path d="M172.553 80.4333H138.27V137.779H172.553V80.4333Z" fill="#F5F5F5"/>
<path d="M136.953 80.4333H99.9078V137.779H136.953V80.4333Z" fill="#F5F5F5"/>
<path d="M136.953 15.6561H99.9078V79.2948H136.953V15.6561Z" fill="#F5F5F5"/>
<path d="M260.364 18.0573H221.354V81.696H260.364V18.0573Z" fill="#F5F5F5"/>
<path d="M220.037 18.0573H188.288V81.696H220.037V18.0573Z" fill="#F5F5F5"/>
<path d="M337.759 18.0573H303.476V81.696H337.759V18.0573Z" fill="#F5F5F5"/>
<path d="M220.037 82.8276H188.288V140.174H220.037V82.8276Z" fill="#F5F5F5"/>
<path d="M260.364 82.8276H221.354V140.174H260.364V82.8276Z" fill="#F5F5F5"/>
<path d="M337.759 82.8276H303.476V140.174H337.759V82.8276Z" fill="#F5F5F5"/>
<path d="M302.159 82.8276H265.113V140.174H302.159V82.8276Z" fill="#F5F5F5"/>
<path d="M302.159 18.0573H265.113V81.696H302.159V18.0573Z" fill="#F5F5F5"/>
<path d="M166.608 189.998C166.608 189.998 166.608 190.309 166.608 190.902C166.608 191.496 166.608 192.379 166.608 193.538C166.608 195.863 166.608 199.3 166.608 203.75C166.608 212.651 166.651 225.63 166.679 241.962L166.558 241.845L337.687 241.783L337.502 241.962V189.998L337.687 190.171L215.28 190.095L179.488 190.04H169.883H167.398H166.544H167.37H169.84H179.403L215.152 189.992L337.687 189.916H337.865V190.088C337.865 206.552 337.865 224.05 337.865 242.052V242.231H337.666L166.608 242.08H166.487V241.962C166.487 225.596 166.537 212.596 166.551 203.681C166.551 199.238 166.551 195.815 166.551 193.497C166.551 192.344 166.551 191.468 166.551 190.875C166.551 190.281 166.608 189.998 166.608 189.998Z" fill="#E0E0E0"/>
<path d="M17.7003 189.998C17.7003 189.998 17.7003 190.316 17.7003 190.916C17.7003 191.516 17.7003 192.427 17.7003 193.6C17.7003 195.96 17.7003 199.438 17.7359 203.916C17.7359 212.886 17.7715 225.844 17.7999 241.962L17.6718 241.838L155.38 241.783L155.195 241.962C155.195 223.795 155.195 206.234 155.195 189.998L155.373 190.171L56.668 190.088L28.0029 190.04H20.3275H18.3411H17.6291H18.2912H20.2563H27.8961L56.5185 189.992L155.344 189.909H155.522V190.081C155.522 206.317 155.522 223.891 155.522 242.045V242.225H155.33L17.6219 242.169H17.4938V242.045C17.5294 225.899 17.5507 212.9 17.565 203.923C17.565 199.458 17.565 195.995 17.565 193.642C17.565 192.476 17.565 191.572 17.565 190.978C17.565 190.385 17.7003 189.998 17.7003 189.998Z" fill="#E0E0E0"/>
<path d="M341.561 248.338C341.561 248.441 268.445 248.517 178.278 248.517C88.11 248.517 14.952 248.441 14.952 248.338C14.952 248.234 88.046 248.158 178.249 248.158C268.453 248.158 341.561 248.241 341.561 248.338Z" fill="#263238"/>
<path d="M131.008 319.808C130.641 319.707 130.281 319.58 129.933 319.429C129.256 319.153 128.26 318.787 127.021 318.373C125.782 317.959 124.287 317.517 122.606 317.103C118.954 316.227 115.212 315.75 111.449 315.682C109.712 315.682 108.153 315.682 106.843 315.792C105.533 315.903 104.479 315.985 103.746 316.082C103.369 316.145 102.988 316.18 102.606 316.186C102.971 316.073 103.345 315.993 103.724 315.944C104.436 315.806 105.511 315.668 106.821 315.544C108.359 315.401 109.904 315.337 111.449 315.351C113.354 315.371 115.256 315.498 117.145 315.73C119.022 315.978 120.884 316.329 122.72 316.779C124.217 317.166 125.693 317.627 127.142 318.159C128.374 318.607 129.356 319.015 129.99 319.325C130.342 319.459 130.683 319.62 131.008 319.808V319.808Z" fill="#263238"/>
<path d="M139.103 315.578C139.103 315.634 138.078 315.206 136.405 314.723C134.217 314.091 131.957 313.718 129.677 313.612C127.396 313.519 125.113 313.697 122.877 314.143C121.161 314.481 120.129 314.833 120.107 314.757C120.332 314.634 120.571 314.536 120.819 314.467C121.473 314.236 122.141 314.045 122.82 313.895C127.341 312.84 132.077 313.043 136.483 314.481C137.146 314.691 137.796 314.94 138.427 315.226C138.67 315.309 138.898 315.427 139.103 315.578V315.578Z" fill="#263238"/>
<path d="M44.7065 326.011C44.7065 326.073 43.5602 325.783 41.709 325.459C39.2979 325.033 36.8544 324.803 34.4039 324.769C31.9534 324.742 29.505 324.916 27.0845 325.287C25.2262 325.57 24.087 325.832 24.0728 325.77C24.3236 325.659 24.5862 325.576 24.856 325.521C25.3615 325.376 26.1091 325.211 27.0418 325.031C31.9109 324.148 36.9122 324.204 41.7588 325.197C42.6844 325.397 43.4249 325.583 43.9304 325.735C44.1986 325.8 44.4588 325.892 44.7065 326.011V326.011Z" fill="#263238"/>
<path d="M246.943 315.682C246.943 315.744 245.783 315.316 243.881 314.868C242.767 314.603 241.638 314.401 240.499 314.26C239.108 314.094 237.707 314.015 236.306 314.026C234.905 314.048 233.507 314.154 232.119 314.343C230.984 314.511 229.86 314.741 228.751 315.033C226.858 315.523 225.733 315.972 225.704 315.91C225.947 315.759 226.208 315.637 226.48 315.544C227.198 315.25 227.933 314.997 228.68 314.785C229.79 314.465 230.92 314.214 232.062 314.033C233.476 313.817 234.903 313.697 236.334 313.674C237.763 313.67 239.19 313.759 240.606 313.943C241.752 314.107 242.886 314.337 244.003 314.633C244.753 314.823 245.493 315.053 246.217 315.323C246.471 315.419 246.714 315.539 246.943 315.682Z" fill="#263238"/>
<path d="M313.038 300.012C313.038 300.067 311.927 300.115 310.147 300.309C307.829 300.551 305.531 300.947 303.269 301.495C301.005 302.046 298.783 302.749 296.619 303.6C294.96 304.249 293.956 304.711 293.928 304.656C294.134 304.499 294.359 304.367 294.597 304.262C295.039 304.028 295.694 303.717 296.52 303.365C300.826 301.515 305.428 300.395 310.126 300.053C311.023 299.991 311.756 299.964 312.262 299.971C312.521 299.95 312.782 299.964 313.038 300.012V300.012Z" fill="#263238"/>
<path d="M316.897 299.46C316.511 299.489 316.123 299.489 315.736 299.46L312.582 299.322C309.919 299.205 306.238 299.06 302.18 299.136C298.714 299.184 295.255 299.461 291.827 299.964C291.165 300.046 290.574 300.164 290.055 300.253C289.535 300.343 289.086 300.426 288.723 300.509C288.349 300.601 287.968 300.665 287.584 300.702C287.942 300.556 288.314 300.445 288.695 300.371C289.051 300.274 289.492 300.164 290.012 300.06C290.532 299.957 291.123 299.819 291.785 299.708C295.216 299.13 298.69 298.817 302.173 298.77C306.245 298.694 309.934 298.88 312.597 299.06C313.928 299.149 315.003 299.239 315.744 299.308C316.132 299.327 316.518 299.377 316.897 299.46V299.46Z" fill="#263238"/>
<path d="M51.2641 302.751L45.9027 304.449C44.0643 304.102 42.1603 304.312 40.4488 305.049C36.426 306.781 35.1088 307.278 30.6232 307.257C29.768 307.244 28.9217 307.428 28.1542 307.793C27.3867 308.159 26.7199 308.697 26.2088 309.361C24.3434 311.845 24.7421 315.24 25.3971 318.235C25.9027 320.519 26.5719 322.885 28.594 324.39C29.4675 325.065 30.5794 325.382 31.6912 325.273C34.5392 324.949 35.2156 322.016 37.1309 320.443C39.938 318.067 43.2517 316.321 46.8355 315.33C48.4232 314.847 57.6365 315.42 57.6365 315.42L51.2641 302.751Z" fill="#FFBF9D"/>
<path d="M28.3234 311.88C28.544 311.868 28.7647 311.904 28.9692 311.985C29.1737 312.066 29.3569 312.19 29.5053 312.349C29.6936 312.517 29.8454 312.719 29.9518 312.944C30.0581 313.169 30.117 313.413 30.1248 313.66C30.1343 313.982 30.0643 314.302 29.9207 314.592C29.777 314.883 29.5638 315.136 29.2988 315.33L29.1564 315.04C30.2458 314.709 31.4704 315.682 31.5488 316.883C31.5517 317.37 31.4479 317.853 31.2441 318.299C31.0404 318.745 30.7414 319.144 30.3668 319.47L30.2672 319.187C30.9605 319.297 31.5817 319.666 31.9973 320.215C32.3096 320.644 32.4695 321.16 32.453 321.685C32.4457 322.018 32.363 322.345 32.2109 322.644C32.1041 322.851 32.0116 322.941 31.9973 322.934C32.158 322.536 32.2424 322.112 32.2465 321.685C32.2251 321.151 32.0109 320.642 31.6413 320.246C31.2716 319.85 30.7701 319.592 30.2244 319.518L29.8898 319.477L30.1248 319.235C30.4555 318.936 30.7196 318.573 30.9008 318.171C31.082 317.769 31.1765 317.335 31.1785 316.896C31.1287 315.903 30.0749 315.082 29.249 315.337L28.2308 315.654L29.1066 315.047C29.3249 314.884 29.5023 314.675 29.6256 314.436C29.7489 314.197 29.8149 313.934 29.8186 313.667C29.8193 313.228 29.646 312.806 29.3344 312.487C29.0469 312.216 28.7019 312.009 28.3234 311.88V311.88Z" fill="#FF725E"/>
<path d="M83.7313 281.348L76.654 294.989L69.7761 308.616C69.5276 309.108 69.0885 309.483 68.5548 309.662C68.0211 309.84 67.4363 309.807 66.9281 309.568L38.5905 295.423C38.2754 295.258 38.0036 295.026 37.7959 294.743C37.5883 294.46 37.4502 294.135 37.3925 293.793C37.3347 293.45 37.3588 293.099 37.4628 292.767C37.5668 292.435 37.748 292.131 37.9924 291.877C38.2025 291.656 38.4618 291.485 38.7505 291.376C39.0393 291.267 39.3498 291.224 39.6585 291.249C42.1718 291.387 62.3072 290.435 62.3072 290.435L66.9281 270.107L83.7313 281.348Z" fill="#FFBF9D"/>
<path d="M299.645 290.4C299.645 290.4 300.129 297.01 303.034 298.57C305.939 300.129 313.444 298.418 315.623 298.57C317.801 298.722 325.071 303.648 331.365 303.648C334.042 303.648 335.893 303.545 337.139 303.427C337.483 303.394 337.816 303.287 338.111 303.113C338.407 302.939 338.659 302.703 338.848 302.422C339.037 302.142 339.159 301.823 339.205 301.491C339.25 301.159 339.218 300.821 339.111 300.502C338.677 299.246 337.794 297.355 335.487 297.155C330.033 296.672 327.492 294.554 327.492 294.554C325.261 292.351 322.898 290.277 320.414 288.344C317.858 286.564 310.781 280.754 310.781 280.754L299.645 290.4Z" fill="#AE7461"/>
<path d="M219.296 196.291C219.296 196.477 284.33 221.428 285.056 222.132C285.783 222.835 319.546 283.542 319.546 283.542L293.202 292.684L260.834 247.503L256.619 247.192C256.619 247.192 214.376 232.371 214.568 231.667C214.761 230.964 219.296 196.291 219.296 196.291Z" fill="#FF725E"/>
<path d="M269.606 234.214C269.296 234.931 268.927 235.624 268.502 236.284C267.79 237.519 266.751 239.209 265.597 241.072C264.444 242.935 263.39 244.605 262.607 245.812C262.224 246.477 261.789 247.111 261.304 247.71C261.617 246.992 261.988 246.3 262.415 245.64C263.127 244.405 264.159 242.714 265.313 240.851C266.466 238.988 267.52 237.319 268.303 236.118C268.689 235.454 269.125 234.817 269.606 234.214V234.214Z" fill="#263238"/>
<path opacity="0.3" d="M243.39 205.751V216.267L256.619 247.193L246.48 243.611L234.91 209.187L237.395 203.398L243.39 205.751Z" fill="black"/>
<path d="M54.4894 272.012C54.4894 271.322 78.263 219.53 82.5635 215.804C86.864 212.078 93.8843 209.877 102.941 214.266C109.94 217.661 137.345 234.593 149.449 242.114L155.244 245.73L163.39 291.739L146.416 311.694L58.7898 319.808L47.9176 298.308L94.7743 291.615L108.601 288.648C108.601 288.648 111.77 284.922 114.938 284.259C118.107 283.597 119.018 285.356 119.018 285.356L130.339 274.234L98.1848 253.651C98.1848 253.651 87.576 284.28 84.1513 284.701C80.7266 285.122 54.4894 272.012 54.4894 272.012Z" fill="#455A64"/>
<g opacity="0.3">
<path opacity="0.3" d="M147.384 240.9C146.344 248.393 145.248 256.204 145.64 263.752C146.031 271.301 147.961 278.932 152.404 285.142C153.379 286.522 154.497 287.847 155.01 289.441C156.348 293.671 147.384 306.118 147.384 310.5L162.336 291.711L158.577 278.953L151.848 243.584L147.384 240.9Z" fill="black"/>
</g>
<path d="M87.1702 236.67C87.3175 236.886 87.4394 237.118 87.5333 237.36C87.7326 237.829 88.0388 238.505 88.4162 239.326C89.415 241.477 90.5296 243.575 91.7554 245.612C92.9929 247.641 94.343 249.604 95.7996 251.491C96.3621 252.216 96.8178 252.802 97.1382 253.202C97.323 253.398 97.4809 253.616 97.6081 253.851C97.3957 253.685 97.2023 253.498 97.0314 253.292C96.6754 252.919 96.177 252.361 95.6074 251.65C92.551 247.937 90.0532 243.823 88.1883 239.43C87.8394 238.588 87.576 237.898 87.4122 237.415C87.302 237.177 87.2207 236.927 87.1702 236.67V236.67Z" fill="#263238"/>
<path d="M95.3083 230.281C95.4151 230.281 96.0915 235.559 96.832 242.093C97.5724 248.628 98.0851 253.948 97.9783 253.954C97.8715 253.961 97.2022 248.676 96.4617 242.135C95.7212 235.594 95.2086 230.287 95.3083 230.281Z" fill="#263238"/>
<path d="M151.186 282.058C151.129 282.106 150.303 281.099 148.694 279.754C147.751 278.968 146.747 278.255 145.689 277.621C144.386 276.862 143.019 276.211 141.603 275.676C140.176 275.161 138.706 274.768 137.21 274.503C135.986 274.296 134.749 274.181 133.507 274.158C131.371 274.158 130.068 274.351 130.061 274.282C130.356 274.187 130.662 274.127 130.972 274.102C131.332 274.037 131.696 273.995 132.062 273.978C132.535 273.932 133.01 273.909 133.486 273.909C134.745 273.893 136.002 273.983 137.245 274.178C138.769 274.429 140.266 274.818 141.716 275.338C143.156 275.878 144.539 276.551 145.846 277.345C146.911 277.996 147.914 278.738 148.844 279.56C149.207 279.872 149.554 280.201 149.883 280.547C150.136 280.796 150.374 281.058 150.595 281.334C150.818 281.555 151.016 281.797 151.186 282.058V282.058Z" fill="#263238"/>
<path d="M132.938 292.781C132.561 292.792 132.185 292.772 131.813 292.719L128.744 292.45C126.159 292.229 122.578 291.98 118.619 291.863C114.661 291.746 111.065 291.773 108.466 291.863L105.39 291.946C105.014 291.98 104.635 291.98 104.258 291.946C104.629 291.874 105.005 291.831 105.383 291.815C106.095 291.746 107.156 291.677 108.459 291.615C111.058 291.484 114.653 291.415 118.626 291.532C122.599 291.649 126.188 291.939 128.772 292.222C130.068 292.36 131.108 292.491 131.827 292.601C132.202 292.631 132.573 292.691 132.938 292.781V292.781Z" fill="#263238"/>
<path d="M138.043 310.5C137.978 310.5 138.221 309.686 138.413 308.361C138.936 304.906 138.471 301.379 137.067 298.163C136.533 296.935 136.092 296.217 136.149 296.182C136.206 296.148 136.298 296.341 136.512 296.652C136.809 297.094 137.075 297.555 137.309 298.032C138.874 301.257 139.353 304.878 138.676 308.382C138.578 308.908 138.442 309.426 138.27 309.934C138.128 310.341 138.071 310.534 138.043 310.5Z" fill="#263238"/>
<path d="M143.931 255.431C144.009 255.486 141.296 258.95 137.872 263.159C134.447 267.368 131.599 270.749 131.514 270.673C131.428 270.597 134.148 267.147 137.58 262.938C141.012 258.729 143.824 255.369 143.931 255.431Z" fill="#263238"/>
<g opacity="0.3">
<path opacity="0.3" d="M88.2453 239.34C87.6349 242.634 88.2801 246.03 90.0609 248.897C91.7882 251.726 94.5351 253.835 97.7718 254.817L97.9783 254.237C93.8487 249.946 90.8014 244.764 88.2453 239.34Z" fill="black"/>
</g>
<g opacity="0.3">
<path opacity="0.3" d="M108.366 288.703C116.251 287.748 124.216 287.595 132.133 288.247C126.01 289.676 119.652 289.814 113.35 289.938C111.613 289.972 109.627 289.938 108.502 288.627" fill="black"/>
</g>
<path d="M249.627 246.33L238.912 208.98L238.079 180.745C238.079 180.745 219.766 182.947 219.695 183.609C219.624 184.271 213.436 220.069 213.194 220.565C212.952 221.062 218.698 260.999 218.698 260.999L227.335 263.532L250.446 253.658L249.627 246.33Z" fill="#455A64"/>
<path d="M151.072 238.685C153.208 237.16 163.076 237.25 173.201 253.954L180.193 256.507L233.807 248.614L248.388 250.042C252.261 256.149 254.448 263.118 254.739 270.28C255.209 282.182 258.734 293.05 238.363 310.838L183.34 303.248L167.156 301.53L146.416 311.721L160.2 288.565C160.2 288.565 156.156 288.303 152.154 276.007C148.153 263.711 151.072 238.685 151.072 238.685Z" fill="#455A64"/>
<path d="M250.019 253.175C249.728 253.287 249.424 253.366 249.115 253.409C248.524 253.534 247.691 253.727 246.63 253.968C241.186 255.233 235.906 257.084 230.887 259.488C229.919 259.951 229.143 260.337 228.609 260.606C228.341 260.763 228.057 260.892 227.762 260.993C228.004 260.797 228.266 260.625 228.545 260.482C229.058 260.178 229.812 259.757 230.766 259.268C233.254 258.006 235.828 256.911 238.47 255.99C241.117 255.066 243.824 254.312 246.573 253.734C247.627 253.52 248.488 253.368 249.086 253.285C249.393 253.221 249.705 253.184 250.019 253.175Z" fill="#263238"/>
<path d="M245.811 252.726C245.58 252.8 245.341 252.849 245.099 252.871L243.084 253.161C241.382 253.402 239.047 253.761 236.477 254.258C233.906 254.755 231.606 255.286 229.94 255.693L227.968 256.176C227.737 256.248 227.498 256.294 227.256 256.314C227.48 256.193 227.719 256.1 227.968 256.038C228.424 255.887 229.086 255.686 229.912 255.452C231.564 254.976 233.871 254.403 236.448 253.906C239.025 253.409 241.382 253.085 243.091 252.906C243.945 252.816 244.643 252.761 245.12 252.733C245.349 252.704 245.581 252.701 245.811 252.726Z" fill="#263238"/>
<path d="M167.156 301.502L172.646 273.889L176.882 274.882L175.173 302.358L167.156 301.502Z" fill="#263238"/>
<g opacity="0.3">
<path opacity="0.3" d="M171.3 250.877L165.996 244.294C165.846 254.789 165.739 265.526 169.228 275.462C169.619 276.886 170.39 278.185 171.464 279.229C172.61 280.181 174.454 280.499 175.615 279.553L171.3 250.877Z" fill="black"/>
</g>
<path d="M175.152 281.161C175.152 281.23 174.105 281.216 172.468 281.479C171.502 281.638 170.55 281.869 169.62 282.169C168.496 282.536 167.407 282.998 166.366 283.549C165.336 284.126 164.359 284.788 163.447 285.529C162.708 286.142 162.018 286.809 161.382 287.523C160.307 288.751 159.787 289.627 159.723 289.593C159.804 289.369 159.914 289.156 160.051 288.958C160.189 288.72 160.341 288.49 160.506 288.268C160.714 287.959 160.94 287.662 161.183 287.378C161.798 286.63 162.482 285.937 163.226 285.308C164.139 284.526 165.128 283.833 166.181 283.238C167.245 282.679 168.361 282.217 169.513 281.858C170.456 281.57 171.423 281.362 172.404 281.237C172.824 281.168 173.208 281.161 173.543 281.134C173.827 281.114 174.113 281.114 174.397 281.134C174.649 281.112 174.903 281.122 175.152 281.161V281.161Z" fill="#263238"/>
<path d="M267.263 119.632C268.077 120.398 269.172 120.819 270.306 120.803C271.44 120.787 272.522 120.335 273.312 119.546C274.102 118.757 274.537 117.697 274.52 116.597C274.503 115.498 274.037 114.45 273.223 113.684C274.134 113.466 274.952 112.975 275.559 112.282C276.166 111.588 276.533 110.727 276.607 109.82C276.681 108.913 276.459 108.006 275.972 107.229C275.484 106.451 274.757 105.842 273.892 105.487C274.346 104.707 274.584 103.826 274.582 102.93C274.58 102.035 274.339 101.155 273.883 100.376C273.426 99.5973 272.769 98.9464 271.976 98.4866C271.183 98.0269 270.281 97.7739 269.357 97.7523C268.92 96.5213 268.071 95.4674 266.944 94.7584C265.818 94.0494 264.479 93.7261 263.141 93.84C262.465 93.2361 261.607 92.8596 260.693 92.7662C259.779 92.6728 258.858 92.8676 258.067 93.3216C257.276 93.7757 256.658 94.4648 256.303 95.2866C255.949 96.1084 255.877 97.019 256.099 97.8834" fill="#263238"/>
<path d="M224.736 127.381L237.381 105.667C242.016 96.8553 251.165 92.1288 260.115 96.8553L260.92 97.3383C264.809 99.6881 267.644 103.371 268.859 107.654C270.074 111.937 269.581 116.507 267.477 120.453C263.419 128.043 258.841 136.42 256.292 140.277C251.016 148.26 241.902 144.493 241.902 144.493L230.887 154.891C228.809 151.098 227.162 147.098 225.975 142.961C223.924 135.93 224.736 127.381 224.736 127.381Z" fill="#AE7461"/>
<path d="M241.973 144.527C238.118 142.197 235.032 138.844 233.08 134.867C233.08 134.867 230.788 142.457 239.545 146.722L241.973 144.527Z" fill="#6F4439"/>
<path d="M259.723 126.58C259.529 126.876 259.226 127.089 258.876 127.177C258.525 127.264 258.154 127.218 257.837 127.05C257.678 126.971 257.537 126.861 257.423 126.729C257.309 126.596 257.223 126.443 257.17 126.278C257.118 126.113 257.1 125.939 257.118 125.767C257.136 125.595 257.189 125.428 257.274 125.276C257.468 124.979 257.773 124.764 258.125 124.677C258.477 124.59 258.85 124.636 259.168 124.807C259.327 124.886 259.467 124.995 259.582 125.128C259.696 125.261 259.781 125.414 259.833 125.58C259.885 125.745 259.902 125.919 259.883 126.091C259.864 126.263 259.81 126.429 259.723 126.58V126.58Z" fill="#263238"/>
<path d="M263.162 123.31C262.92 123.372 262.45 122.185 261.155 121.412C259.859 120.64 258.541 120.722 258.499 120.467C258.499 120.357 258.798 120.177 259.396 120.136C260.186 120.1 260.969 120.3 261.639 120.709C262.302 121.11 262.818 121.704 263.113 122.406C263.319 122.937 263.276 123.282 263.162 123.31Z" fill="#263238"/>
<path d="M248.267 120.115C248.073 120.411 247.77 120.624 247.42 120.711C247.069 120.798 246.698 120.753 246.381 120.584C246.222 120.505 246.081 120.396 245.967 120.263C245.853 120.131 245.767 119.977 245.715 119.812C245.664 119.646 245.647 119.472 245.666 119.301C245.684 119.129 245.739 118.962 245.825 118.811C246.019 118.515 246.322 118.302 246.673 118.215C247.023 118.128 247.395 118.173 247.712 118.342C247.871 118.421 248.011 118.53 248.125 118.663C248.24 118.796 248.325 118.949 248.377 119.115C248.429 119.28 248.446 119.454 248.427 119.626C248.408 119.798 248.354 119.964 248.267 120.115V120.115Z" fill="#263238"/>
<path d="M250.467 115.961C250.225 116.023 249.755 114.837 248.46 114.071C247.164 113.305 245.847 113.381 245.804 113.119C245.804 113.015 246.103 112.829 246.701 112.794C247.492 112.755 248.276 112.955 248.944 113.367C249.606 113.766 250.122 114.358 250.418 115.057C250.624 115.589 250.581 115.92 250.467 115.961Z" fill="#263238"/>
<path d="M249.2 127.933C250.004 128.137 250.779 128.436 251.507 128.823C251.856 128.989 252.219 129.113 252.397 128.926C252.634 128.618 252.768 128.248 252.781 127.864C252.967 126.912 253.159 125.918 253.365 124.876C254.227 120.64 255.067 117.238 255.245 117.286C255.423 117.334 254.86 120.784 253.999 125.014C253.778 126.056 253.565 127.084 253.365 127.995C253.326 128.499 253.104 128.973 252.739 129.334C252.621 129.418 252.484 129.474 252.339 129.498C252.194 129.522 252.046 129.513 251.906 129.472C251.694 129.409 251.491 129.324 251.3 129.216C250.547 128.877 249.841 128.445 249.2 127.933Z" fill="#263238"/>
<path d="M253.913 111.318C253.572 111.573 252.397 110.628 250.788 109.938C249.179 109.248 247.712 108.875 247.705 108.454C247.705 108.254 248.125 108.061 248.823 108.033C249.733 108.018 250.634 108.214 251.45 108.606C252.272 108.979 252.992 109.534 253.55 110.228C253.963 110.759 254.07 111.187 253.913 111.318Z" fill="#263238"/>
<path d="M264.992 119.446C264.586 119.591 263.896 118.756 262.856 118.114C261.817 117.472 260.777 117.127 260.763 116.734C260.763 116.541 261.083 116.341 261.646 116.313C262.38 116.299 263.1 116.509 263.704 116.914C264.317 117.301 264.791 117.863 265.063 118.521C265.241 119.004 265.177 119.37 264.992 119.446Z" fill="#263238"/>
<path d="M269.051 116.272C269.051 116.272 270.104 109.91 268.339 107.219C266.203 103.962 262.835 106.405 260.442 103.873C258.05 101.34 256.035 98.2215 251.685 98.6079C246.922 99.0219 247.363 101.602 244.871 105.052C234.746 119.046 229.385 121.495 232.995 114.202C233.394 113.401 231.635 111.518 233.344 108.171C235.565 103.831 238.598 98.7597 241.411 96.4413C243.782 94.4748 246.309 93.6813 250.09 93.3501C256.064 92.8671 261.703 96.186 265.27 98.8701C268.837 101.554 273.458 110.172 269.051 116.272Z" fill="#263238"/>
<path d="M233.678 114.305C233.859 114.004 233.975 113.671 234.019 113.325C234.063 112.98 234.033 112.629 233.933 112.295C233.832 111.96 233.663 111.649 233.434 111.38C233.205 111.112 232.923 110.891 232.603 110.731C230.959 109.938 228.687 109.744 226.793 112.912C223.44 118.521 229.948 120.633 230.054 120.502C230.161 120.37 232.297 116.665 233.678 114.305Z" fill="#AE7461"/>
<path d="M230.054 117.659C230.054 117.624 229.912 117.659 229.698 117.659C229.398 117.623 229.125 117.474 228.937 117.245C228.452 116.686 228.502 115.458 229.079 114.43C229.352 113.94 229.734 113.516 230.197 113.188C230.357 113.043 230.55 112.938 230.761 112.882C230.972 112.825 231.193 112.819 231.407 112.863C231.539 112.901 231.654 112.98 231.733 113.09C231.812 113.199 231.85 113.331 231.842 113.464C231.842 113.664 231.72 113.76 231.742 113.781C231.763 113.802 231.927 113.781 232.02 113.505C232.075 113.349 232.075 113.178 232.02 113.022C231.931 112.816 231.762 112.652 231.55 112.567C231.285 112.479 231.001 112.459 230.726 112.507C230.451 112.555 230.192 112.671 229.976 112.843C229.437 113.194 228.995 113.668 228.687 114.223C228.047 115.375 227.975 116.769 228.687 117.479C228.817 117.609 228.975 117.71 229.15 117.773C229.325 117.836 229.512 117.861 229.698 117.845C229.976 117.79 230.069 117.68 230.054 117.659Z" fill="#6F4439"/>
<path d="M240.656 103.707C240.997 104.677 241.585 105.548 242.365 106.239C243.198 106.86 244.536 106.978 245.213 106.239C245.526 105.894 245.718 105.391 246.167 105.253C246.616 105.115 247.207 105.542 247.648 105.88C248.438 106.445 249.405 106.728 250.385 106.683C251.365 106.637 252.299 106.266 253.031 105.632C253.031 106.495 254.056 107.067 254.953 107.053C255.841 106.939 256.708 106.706 257.531 106.363C257.944 106.198 258.392 106.132 258.838 106.171C259.283 106.211 259.712 106.355 260.087 106.591C260.464 106.902 260.706 107.385 261.147 107.605C261.938 107.992 262.842 107.364 263.419 106.715C263.995 106.067 264.622 105.28 265.498 105.273C266.374 105.266 266.922 105.963 267.57 106.446C268.218 106.929 269.179 107.336 269.77 106.791C269.912 106.635 270.019 106.452 270.087 106.254C270.154 106.056 270.179 105.847 270.161 105.639C270.126 104.696 269.764 103.791 269.134 103.071C268.504 102.352 267.642 101.858 266.687 101.671C266.991 100.588 266.959 99.4425 266.593 98.3773C266.228 97.3121 265.547 96.3752 264.634 95.6839C263.722 94.9927 262.619 94.5779 261.464 94.4917C260.309 94.4055 259.154 94.6516 258.143 95.1993C257.882 94.302 257.4 93.4794 256.739 92.8018C256.079 92.1241 255.259 91.6115 254.349 91.3077C253.44 91.004 252.468 90.9181 251.516 91.0575C250.565 91.1969 249.663 91.5573 248.887 92.1081C248.305 91.5102 247.555 91.0912 246.73 90.9034C245.904 90.7156 245.04 90.7672 244.245 91.0519C243.449 91.3365 242.758 91.8416 242.257 92.5042C241.755 93.1668 241.466 93.9577 241.425 94.7784C240.734 94.7146 240.038 94.8217 239.402 95.0896C238.766 95.3575 238.21 95.7775 237.787 96.3102C237.032 97.4349 237.445 99.2634 238.769 99.6429C238.235 99.9456 237.842 100.437 237.674 101.015C237.506 101.592 237.575 102.21 237.868 102.739C238.16 103.268 238.652 103.666 239.241 103.851C239.83 104.035 240.47 103.991 241.026 103.728" fill="#263238"/>
<path d="M266.082 103.541C266.063 103.579 266.039 103.614 266.01 103.645C265.942 103.739 265.869 103.829 265.79 103.914C265.473 104.243 265.103 104.518 264.693 104.728C264.048 105.062 263.331 105.246 262.6 105.266C261.625 105.309 260.663 105.043 259.859 104.507L260.037 104.438C259.884 105.045 259.49 105.569 258.94 105.894C258.37 106.235 257.751 106.493 257.103 106.66C256.764 106.776 256.413 106.859 256.057 106.909C255.676 106.921 255.297 106.846 254.953 106.688C254.589 106.53 254.269 106.29 254.021 105.987C253.773 105.685 253.604 105.328 253.529 104.949L253.785 105.018C253.337 105.541 252.782 105.969 252.154 106.273C251.527 106.577 250.841 106.751 250.14 106.784C249.352 106.843 248.566 106.655 247.897 106.246C247.284 105.838 246.747 105.332 246.309 104.749H246.502C245.779 105.236 244.942 105.54 244.067 105.632C243.652 105.693 243.229 105.662 242.828 105.543C242.428 105.423 242.06 105.218 241.753 104.942C241.235 104.457 240.876 103.836 240.719 103.156C240.562 102.475 240.614 101.765 240.87 101.113L240.962 101.251C240.163 101.2 239.408 100.88 238.826 100.347C238.392 99.9671 238.056 99.4946 237.844 98.9667C237.719 98.6276 237.651 98.271 237.644 97.911C237.635 97.7853 237.65 97.6591 237.687 97.5384C237.686 98.0102 237.775 98.4782 237.95 98.9184C238.17 99.4304 238.509 99.8862 238.94 100.25C239.498 100.743 240.215 101.033 240.969 101.071H241.112L241.062 101.202C240.831 101.815 240.79 102.479 240.943 103.114C241.096 103.749 241.437 104.326 241.923 104.776C242.211 105.024 242.552 105.205 242.922 105.306C243.292 105.408 243.681 105.427 244.059 105.363C244.887 105.271 245.678 104.979 246.359 104.514L246.466 104.438L246.551 104.542C246.971 105.099 247.484 105.584 248.068 105.977C248.688 106.354 249.418 106.526 250.147 106.467C250.808 106.437 251.456 106.274 252.048 105.988C252.64 105.701 253.164 105.298 253.586 104.804L253.785 104.569L253.835 104.873C253.9 105.209 254.048 105.524 254.266 105.792C254.485 106.06 254.767 106.273 255.088 106.412C255.393 106.552 255.727 106.621 256.064 106.612C256.398 106.568 256.727 106.492 257.046 106.384C257.67 106.235 258.269 106.003 258.826 105.694C259.076 105.555 259.295 105.369 259.469 105.146C259.642 104.923 259.768 104.668 259.837 104.397V104.231L259.98 104.328C260.737 104.85 261.649 105.119 262.579 105.094C263.288 105.086 263.986 104.924 264.622 104.618C265.171 104.347 265.666 103.982 266.082 103.541Z" fill="#455A64"/>
<path d="M247.327 133.032C246.441 132.484 245.708 131.733 245.191 130.845C244.603 130.017 244.143 129.11 243.824 128.154C244.459 128.933 245.019 129.767 245.498 130.645C246.416 132.025 247.406 132.956 247.327 133.032Z" fill="#263238"/>
<path d="M194.02 185.61C193.52 185.21 193.079 184.746 192.71 184.23C190.792 181.832 189.476 179.036 188.865 176.06C188.706 175.454 188.634 174.83 188.652 174.204C188.849 174.794 189.006 175.395 189.121 176.005C189.495 177.449 190 178.857 190.631 180.214C191.279 181.564 192.046 182.857 192.924 184.078C193.319 184.568 193.686 185.079 194.02 185.61V185.61Z" fill="#FF725E"/>
<path d="M280.528 289.462L243.454 287.212C237.146 286.833 227.968 285.025 229.043 275.393C230.118 269.769 231.849 269.134 231.849 269.134C231.849 269.134 238.584 268.079 242.351 267.382C243.347 267.202 249.962 266.154 250.254 266.154C250.254 266.154 251.728 257.059 261.112 256.963C265.647 256.915 274.996 257.556 283.447 258.232C287.824 258.585 291.903 260.521 294.873 263.656C297.843 266.791 299.486 270.895 299.474 275.151V276C298.848 285.487 290.233 290.29 280.528 289.462Z" fill="#FFBF9D"/>
<path d="M250.218 266.154C250.21 270.35 251.446 274.459 253.778 277.994C253.778 277.994 246.388 275.655 247.249 266.581L250.218 266.154Z" fill="#FF9A6C"/>
<path d="M278.392 273.406C278.193 273.571 278.976 274.675 278.905 276.166C278.833 277.656 277.972 278.76 278.193 278.926C278.413 279.091 278.634 278.85 279.033 278.381C279.541 277.749 279.832 276.979 279.866 276.179C279.903 275.386 279.676 274.602 279.218 273.944C278.833 273.495 278.485 273.323 278.392 273.406Z" fill="#263238"/>
<path d="M274.754 273.24C274.423 273.234 274.103 273.355 273.864 273.576C273.624 273.796 273.483 274.1 273.472 274.42C273.459 274.576 273.478 274.734 273.528 274.883C273.578 275.032 273.659 275.17 273.765 275.288C273.871 275.406 274.001 275.503 274.146 275.572C274.292 275.641 274.45 275.681 274.611 275.689C274.941 275.692 275.259 275.57 275.498 275.35C275.737 275.13 275.878 274.829 275.893 274.51C275.908 274.353 275.889 274.195 275.839 274.046C275.79 273.896 275.709 273.758 275.603 273.639C275.496 273.521 275.366 273.424 275.22 273.356C275.074 273.287 274.916 273.248 274.754 273.24Z" fill="#263238"/>
<path d="M267.819 268.824C268.062 268.088 268.206 267.325 268.246 266.554C268.289 266.202 268.36 265.864 268.609 265.802C268.991 265.773 269.374 265.857 269.706 266.043L272.504 267.099C276.491 268.576 279.773 269.638 279.837 269.486C279.901 269.335 276.712 268.01 272.717 266.533L269.869 265.519C269.431 265.299 268.928 265.233 268.445 265.333C268.315 265.384 268.199 265.464 268.105 265.565C268.011 265.667 267.942 265.788 267.904 265.919C267.849 266.117 267.818 266.321 267.812 266.526C267.718 267.29 267.72 268.061 267.819 268.824V268.824Z" fill="#263238"/>
<path d="M284.216 274.475C283.86 274.599 284.031 275.855 283.839 277.276C283.647 278.698 283.227 279.892 283.547 280.078C283.704 280.168 284.038 279.961 284.387 279.491C284.81 278.867 285.075 278.156 285.163 277.414C285.251 276.672 285.158 275.921 284.893 275.22C284.672 274.689 284.387 274.427 284.216 274.475Z" fill="#263238"/>
<path d="M282.436 259.888C282.137 260.026 282.365 261.268 282.301 262.648C282.237 264.028 281.952 265.264 282.237 265.408C282.372 265.484 282.643 265.264 282.906 264.781C283.232 264.135 283.412 263.429 283.433 262.711C283.465 261.977 283.336 261.246 283.056 260.565C282.828 260.075 282.579 259.826 282.436 259.888Z" fill="#263238"/>
<path d="M273.543 288.703C273.615 288.862 275.437 294.954 269.022 294.747C262.607 294.54 264.152 288.337 264.337 288.33C264.522 288.323 273.543 288.703 273.543 288.703Z" fill="#FFBF9D"/>
<path d="M266.701 290.311C266.701 290.311 266.615 290.414 266.523 290.593C266.401 290.849 266.385 291.141 266.48 291.408C266.701 292.098 267.762 292.657 268.915 292.726C269.464 292.761 270.014 292.676 270.524 292.477C270.728 292.427 270.916 292.329 271.071 292.192C271.226 292.054 271.344 291.882 271.414 291.691C271.451 291.567 271.443 291.435 271.391 291.317C271.339 291.199 271.247 291.102 271.13 291.042C270.952 290.952 270.823 290.987 270.809 290.952C270.795 290.918 270.923 290.821 271.187 290.883C271.345 290.919 271.484 291.01 271.578 291.139C271.707 291.315 271.758 291.533 271.721 291.746C271.659 291.999 271.532 292.232 271.351 292.424C271.171 292.616 270.942 292.76 270.688 292.843C270.123 293.09 269.505 293.199 268.887 293.16C267.598 293.077 266.409 292.394 266.174 291.49C266.128 291.322 266.122 291.145 266.158 290.974C266.194 290.802 266.27 290.642 266.381 290.504C266.544 290.317 266.687 290.29 266.701 290.311Z" fill="#FF9A6C"/>
<path d="M292.71 246.841C293.076 246.978 293.372 247.248 293.536 247.593C293.818 248.341 293.889 249.148 293.743 249.932C293.607 252.347 294.164 254.752 295.352 256.88C296.682 257.931 297.923 259.085 299.061 260.33C301.76 263.283 303.576 265.678 304.359 268.079C305.377 271.191 305.498 276.269 304.401 279.347C303.305 282.424 300.457 285.067 297.103 285.26C298.527 287.137 298.285 289.779 297.232 291.863V291.918C296.171 294.251 293.458 295.417 290.888 295.941C288.317 296.465 285.605 296.569 283.248 297.694C282.757 297.935 282.166 298.211 281.689 297.942C281.517 297.82 281.389 297.65 281.319 297.456C281.249 297.261 281.241 297.051 281.297 296.852C281.42 296.456 281.626 296.09 281.902 295.775L279.866 296.431C279.78 295.552 279.909 294.665 280.243 293.843C278.033 293.24 275.863 292.51 273.743 291.656C273.821 290.663 273.821 289.738 273.294 289.082C272.582 288.185 271.158 287.702 271.813 286.357C272.148 285.667 273.728 285.136 274.497 284.977C279.581 283.763 284.875 283.624 290.019 284.57C291.175 283.65 292.141 282.526 292.867 281.258L292.76 281.354C293.857 278.898 294.967 276.103 293.928 273.619C293.123 271.694 291.222 270.459 289.741 268.948C288.374 267.56 287.311 265.917 286.617 264.119C285.923 262.321 285.613 260.405 285.704 258.488C283.084 258.163 279.36 258.108 276.74 257.798L281.112 255.962C281.439 255.811 281.76 255.686 282.08 255.569L282.18 255.528C282.709 255.353 283.227 255.151 283.732 254.921V254.921C283.507 254.607 283.406 254.225 283.447 253.845C283.488 253.464 283.669 253.111 283.956 252.849C284.244 252.588 284.619 252.435 285.013 252.418C285.407 252.402 285.794 252.524 286.103 252.761C286.384 252.996 286.624 253.273 286.815 253.582C286.528 253.249 286.335 252.849 286.255 252.422C286.175 251.995 286.211 251.556 286.359 251.146C286.524 250.739 286.822 250.395 287.208 250.168C287.594 249.941 288.046 249.844 288.495 249.89C288.794 249.948 289.072 250.08 289.302 250.273C289.532 250.467 289.706 250.716 289.805 250.994C289.801 249.868 290.143 248.765 290.788 247.827C291.208 247.144 291.92 246.565 292.71 246.841Z" fill="#263238"/>
<path d="M296.249 282.341C295.963 282.644 295.654 282.926 295.323 283.183C294.376 283.83 293.273 284.23 292.119 284.342C291.329 284.444 290.529 284.464 289.734 284.404C288.873 284.342 287.961 284.211 286.993 284.08C285.982 283.92 284.962 283.823 283.939 283.79C283.394 283.777 282.849 283.805 282.308 283.873C281.735 283.913 281.181 284.094 280.699 284.397C280.507 284.542 280.356 284.732 280.261 284.95C280.166 285.167 280.131 285.405 280.158 285.639C280.205 286.091 280.408 286.514 280.735 286.84C281.395 287.379 282.191 287.739 283.041 287.882V287.689C282.317 287.912 281.629 288.235 280.998 288.648C280.418 289.052 280.017 289.653 279.873 290.331C279.819 290.649 279.854 290.976 279.973 291.277C280.093 291.559 280.299 291.799 280.564 291.967C280.807 292.117 281.087 292.203 281.375 292.215C281.646 292.228 281.912 292.144 282.123 291.98L282.045 291.877C281.37 292.372 280.808 292.997 280.393 293.712C280.286 293.9 280.191 294.093 280.108 294.292C280.078 294.362 280.052 294.433 280.03 294.506C280.074 294.444 280.11 294.376 280.136 294.306C280.208 294.181 280.307 293.981 280.457 293.747C280.885 293.056 281.451 292.455 282.123 291.98L282.045 291.877C281.838 292.012 281.593 292.08 281.344 292.073C281.094 292.066 280.854 291.983 280.656 291.835C280.419 291.691 280.235 291.479 280.129 291.228C280.021 290.956 279.994 290.659 280.051 290.373C280.183 289.736 280.566 289.174 281.119 288.806C281.734 288.408 282.406 288.099 283.113 287.889L283.419 287.778L283.098 287.695C282.288 287.556 281.53 287.214 280.898 286.702C280.609 286.41 280.426 286.035 280.379 285.632C280.353 285.431 280.382 285.227 280.463 285.041C280.544 284.854 280.675 284.692 280.841 284.57C281.295 284.289 281.814 284.123 282.351 284.087C282.88 284.022 283.413 283.994 283.946 284.004C284.959 284.034 285.97 284.126 286.972 284.28C287.94 284.404 288.858 284.535 289.727 284.584C290.535 284.638 291.346 284.61 292.148 284.501C293.324 284.373 294.442 283.942 295.388 283.252C295.725 282.997 296.017 282.689 296.249 282.341V282.341Z" fill="#455A64"/>
<path d="M289.335 253.713L289.264 253.782C289.214 253.844 289.158 253.913 289.079 253.996C288.975 254.111 288.88 254.233 288.794 254.362C288.671 254.533 288.557 254.71 288.453 254.893C287.794 256.064 287.447 257.375 287.442 258.709C287.421 260.692 287.995 262.638 289.093 264.311C290.456 266.334 292.229 268.067 294.305 269.404C295.388 270.142 296.505 270.784 297.523 271.432C298.524 272.046 299.428 272.797 300.208 273.661C300.911 274.436 301.401 275.371 301.632 276.379C301.724 276.834 301.743 277.299 301.689 277.759C301.631 278.187 301.513 278.605 301.34 279.001C301.04 279.683 300.594 280.295 300.03 280.795C299.609 281.175 299.128 281.487 298.606 281.72C298.147 281.895 297.669 282.017 297.182 282.086H297.281H297.573C297.941 282.038 298.302 281.948 298.648 281.817C299.196 281.597 299.702 281.289 300.144 280.906C300.733 280.4 301.202 279.776 301.518 279.077C301.7 278.669 301.826 278.24 301.895 277.801C301.956 277.321 301.94 276.834 301.845 276.359C301.624 275.321 301.134 274.355 300.421 273.55C299.635 272.667 298.718 271.899 297.701 271.273C296.669 270.583 295.565 269.976 294.49 269.245C292.438 267.922 290.681 266.214 289.321 264.222C288.23 262.575 287.649 260.659 287.648 258.702C287.642 257.386 287.965 256.089 288.588 254.921C288.987 254.113 289.364 253.734 289.335 253.713Z" fill="#455A64"/>
<path d="M293.501 253.189C293.4 253.279 293.313 253.384 293.244 253.499C293.023 253.79 292.827 254.1 292.661 254.424C292.407 254.899 292.198 255.396 292.034 255.907C291.834 256.533 291.694 257.175 291.614 257.825C291.554 258.48 291.554 259.138 291.614 259.792C291.664 260.326 291.762 260.854 291.906 261.372C292.002 261.72 292.123 262.062 292.269 262.393C292.313 262.519 292.375 262.637 292.454 262.745C292.497 262.745 292.269 262.214 292.062 261.365C291.939 260.852 291.856 260.331 291.813 259.806C291.772 259.164 291.784 258.52 291.849 257.881C291.924 257.241 292.055 256.608 292.24 255.99C292.396 255.485 292.589 254.992 292.817 254.513C293.202 253.672 293.536 253.23 293.501 253.189Z" fill="#455A64"/>
<path d="M278.876 259.564C278.67 259.73 279.46 260.834 279.382 262.324C279.303 263.815 278.456 264.912 278.67 265.084C278.883 265.257 279.111 265.001 279.51 264.539C280.018 263.905 280.309 263.133 280.343 262.331C280.38 261.54 280.153 260.758 279.695 260.102C279.31 259.654 278.962 259.481 278.876 259.564Z" fill="#263238"/>
<path d="M275.16 260.296C274.83 260.293 274.512 260.415 274.273 260.635C274.034 260.855 273.893 261.156 273.878 261.475C273.864 261.632 273.883 261.789 273.934 261.938C273.984 262.087 274.064 262.225 274.171 262.344C274.277 262.462 274.407 262.558 274.552 262.627C274.697 262.696 274.856 262.736 275.017 262.745C275.348 262.751 275.667 262.63 275.907 262.409C276.147 262.189 276.288 261.885 276.299 261.565C276.312 261.409 276.293 261.251 276.243 261.102C276.193 260.953 276.112 260.815 276.006 260.697C275.9 260.579 275.77 260.482 275.625 260.413C275.479 260.344 275.321 260.304 275.16 260.296V260.296Z" fill="#263238"/>
<path d="M264.864 272.681C264.441 271.76 264.128 270.794 263.931 269.804C263.618 268.841 263.424 267.845 263.355 266.837C263.784 267.756 264.098 268.722 264.287 269.714C264.602 270.677 264.795 271.673 264.864 272.681Z" fill="#263238"/>
<path d="M235.914 157.575C236.529 157.642 237.116 157.863 237.616 158.217C237.804 158.374 237.957 158.566 238.067 158.782C238.178 158.998 238.242 159.233 238.257 159.473C238.257 159.473 240.898 161.315 240.393 162.536C240.393 162.536 242.287 164.606 242.18 165.628C242.153 165.903 242.064 166.17 241.919 166.408C241.773 166.647 241.576 166.852 241.34 167.008C241.34 167.008 243.034 167.615 242.187 169.561C241.34 171.506 233.857 175.481 233.857 175.481L234.512 181.159L227.441 182.684L234.832 161.391L235.914 157.575Z" fill="#FFBF9D"/>
<path d="M194.255 282.044C192.213 282.957 189.997 283.445 187.749 283.477C185.5 283.508 183.27 283.083 181.202 282.228C179.134 281.373 177.273 280.108 175.741 278.513C174.208 276.919 173.038 275.031 172.304 272.971C171.559 270.997 170.997 268.962 170.624 266.892C169.556 260.123 163.554 232.972 163.554 232.972L170.624 208.097L203.774 221.711C203.774 221.711 199.866 272.191 198.178 278.394C197.737 279.94 196.249 281.134 194.255 282.044Z" fill="#FF725E"/>
<path opacity="0.3" d="M164.351 236.67L168.31 235.89L170.268 223.187C170.474 221.85 171.058 220.594 171.955 219.559C172.852 218.524 174.028 217.75 175.351 217.322L175.828 217.164L181.781 251.084H201.282L202.208 240.955L179.709 211.83L168.317 213.21L164.351 236.67Z" fill="black"/>
<path d="M225.597 124.89L221.596 129.03L207.356 130.99C207.356 130.99 196.512 136.813 188.951 151.11C181.389 165.407 172.112 198.327 172.112 198.327L217.587 217.184L236.028 157.203L238.52 149.813L225.597 124.89Z" fill="#FF725E"/>
<path d="M219.139 218.668L170.531 199.086L170.147 199.907C170.147 199.907 157.701 221.711 156.412 235.918L163.532 240.003L167.249 223.933L169.228 216.901L175.465 213.362L178.776 248.786L221.496 245.178L219.139 218.668Z" fill="#FF725E"/>
<path d="M219.139 218.668C219.139 218.668 219.139 218.82 219.196 219.116C219.253 219.413 219.268 219.868 219.332 220.455C219.438 221.642 219.602 223.387 219.816 225.651C220.236 230.212 220.841 236.842 221.603 245.164V245.281H221.489L178.769 248.938H178.605V248.779C177.587 237.919 176.469 225.947 175.28 213.362L175.551 213.5L169.314 217.033L169.399 216.929C168.901 218.695 168.367 220.593 167.833 222.504C167.384 223.974 167.121 225.464 166.729 226.941C166.337 228.418 166.017 229.887 165.711 231.35L163.703 240.023L163.646 240.265L163.425 240.134L156.305 236.049L156.206 235.987V235.883C156.601 232.451 157.345 229.065 158.427 225.775C159.431 222.539 160.613 219.427 161.873 216.439C164.268 210.761 166.978 205.212 169.99 199.817V199.817L170.382 198.996L170.446 198.865L170.581 198.92L205.896 213.224L215.736 217.246L218.299 218.302L219.161 218.668C219.161 218.668 218.847 218.557 218.264 218.33L215.658 217.302L205.768 213.376L170.46 199.224L170.659 199.148L170.275 199.969C167.278 205.357 164.585 210.899 162.208 216.57C160.948 219.551 159.773 222.656 158.776 225.878C157.711 229.148 156.976 232.51 156.583 235.918L156.498 235.752L163.618 239.837L163.347 239.954C164.002 237.098 164.671 234.204 165.355 231.274C165.687 229.811 166.027 228.342 166.373 226.865C166.722 225.388 167.028 223.891 167.47 222.428L169.043 216.839V216.77L169.114 216.729L175.351 213.196L175.601 213.058V213.334C176.775 225.92 177.886 237.898 178.897 248.752L178.712 248.607L221.432 245.047L221.325 245.171C220.613 236.891 220.051 230.246 219.666 225.699C219.474 223.422 219.332 221.669 219.232 220.476C219.189 219.889 219.154 219.434 219.125 219.096C219.097 218.758 219.139 218.668 219.139 218.668Z" fill="#263238"/>
<path d="M218.057 213.293L173.728 192.724C172.204 194.573 170.531 198.037 169.164 201.321L218.292 223.933L218.057 213.293Z" fill="#263238"/>
<path d="M209.022 160.225C202.187 176.095 196.163 196.408 200.222 213.148L208.545 256.618L229.456 251.291L224.373 206.441L227.149 202.115L232.404 174.184L237.388 161.439L236.797 154.877" fill="#FF725E"/>
<path d="M236.804 154.891C236.804 154.891 236.804 155.036 236.861 155.312C236.918 155.588 236.932 156.002 236.989 156.568C237.096 157.686 237.253 159.328 237.452 161.453C236.242 164.565 234.568 168.898 232.504 174.211C231.08 181.801 229.328 191.247 227.292 202.149C226.437 203.488 225.483 204.964 224.522 206.476V206.379C226.024 219.558 227.769 234.841 229.634 251.195V251.353L229.485 251.388L219.118 254.03L208.616 256.777L208.424 256.825L208.381 256.632C205.782 243.011 203.326 230.136 201.097 218.488C200.549 215.577 200.015 212.741 199.445 209.988C199.032 207.301 198.82 204.589 198.812 201.873C198.812 197.011 199.289 192.159 200.236 187.383C201.609 180.531 203.573 173.803 206.11 167.27C207.89 162.667 209.036 160.204 209.036 160.204C209.036 160.204 208.979 160.363 208.858 160.673L208.303 162.053C207.811 163.254 207.107 165.027 206.238 167.339C203.755 173.877 201.828 180.602 200.478 187.445C199.553 192.2 199.09 197.028 199.097 201.866C199.115 204.569 199.334 207.267 199.752 209.939C200.321 212.699 200.855 215.515 201.418 218.419C203.653 230.067 206.124 242.942 208.737 256.57L208.509 256.432L219.061 253.741L229.428 251.105L229.285 251.298C227.441 234.945 225.725 219.655 224.223 206.448V206.393V206.344L227.007 202.025V202.073C229.072 191.178 230.873 181.711 232.304 174.149L237.331 161.46C237.153 159.328 237.018 157.693 236.925 156.575C236.882 156.03 236.847 155.609 236.825 155.319C236.804 155.029 236.804 154.891 236.804 154.891Z" fill="#263238"/>
<path d="M235.508 153.739C235.268 153.456 235.054 153.153 234.868 152.835C234.483 152.242 233.935 151.372 233.266 150.289C231.927 148.129 230.118 145.121 228.182 141.767C226.245 138.414 224.551 135.343 223.354 133.108C222.749 131.99 222.272 131.079 221.93 130.451C221.747 130.13 221.59 129.796 221.461 129.451C221.69 129.741 221.888 130.053 222.052 130.382C222.443 131.072 222.949 131.928 223.554 132.991L228.481 141.595L233.465 150.165C234.07 151.22 234.576 152.097 234.967 152.766C235.175 153.075 235.356 153.4 235.508 153.739V153.739Z" fill="#263238"/>
<path d="M209.663 150.91C209.552 150.666 209.466 150.411 209.406 150.151C209.264 149.661 209.086 148.943 208.887 148.081C207.846 143.437 207.3 138.702 207.256 133.95C207.256 133.039 207.256 132.301 207.292 131.79C207.285 131.526 207.311 131.262 207.37 131.003C207.427 131.262 207.451 131.526 207.441 131.79C207.441 132.376 207.491 133.094 207.52 133.943C207.591 135.757 207.747 138.262 208.061 141.015C208.374 143.768 208.773 146.239 209.143 148.026C209.3 148.861 209.442 149.564 209.549 150.144C209.621 150.393 209.659 150.651 209.663 150.91V150.91Z" fill="#263238"/>
<path d="M223.134 206.476C221.178 204.959 219.303 203.347 217.516 201.646C215.642 200.041 213.852 198.347 212.155 196.567C212.226 196.498 214.739 198.637 217.772 201.397C220.805 204.157 223.205 206.407 223.134 206.476Z" fill="#263238"/>
<path d="M235.081 156.975C234.259 155.917 233.331 154.939 232.311 154.056C229.82 151.943 226.654 150.724 223.345 150.606C220.036 150.488 216.786 151.477 214.141 153.408C213.059 154.217 212.06 155.125 211.158 156.119C211.196 156.033 211.246 155.951 211.307 155.878C211.421 155.733 211.564 155.505 211.799 155.243C212.439 154.471 213.173 153.776 213.984 153.173C216.664 151.167 219.977 150.121 223.362 150.213C226.747 150.379 229.971 151.671 232.489 153.87C233.246 154.521 233.922 155.255 234.504 156.057C234.67 156.277 234.82 156.508 234.953 156.747C235.006 156.817 235.049 156.894 235.081 156.975V156.975Z" fill="#263238"/>
<path opacity="0.3" d="M207.676 163.433C203.879 168.745 200.925 174.578 198.911 180.739C196.27 189.205 193.607 201.376 198.911 221.179C204.216 240.982 206.032 243.611 206.032 243.611C206.032 243.611 199.211 211.14 199.211 207.393C199.211 203.647 198.648 195.85 200.044 189.453C202.021 180.633 204.57 171.942 207.676 163.433V163.433Z" fill="black"/>
<path d="M252.048 286.785C252.048 286.785 251.963 286.702 251.827 286.536L251.265 285.791C250.788 285.136 250.069 284.211 249.129 283.079C248.189 281.948 247.1 280.637 245.797 279.229C244.494 277.822 242.949 276.352 241.311 274.896C238.453 272.409 235.353 270.195 232.055 268.286C230.788 267.561 229.741 266.995 229.008 266.63L228.168 266.188C228.068 266.141 227.975 266.083 227.89 266.016C227.89 266.016 228.004 266.016 228.203 266.126L229.072 266.506C229.827 266.83 230.895 267.361 232.19 268.065C235.545 269.921 238.686 272.118 241.56 274.62C243.136 276.003 244.635 277.466 246.053 279.001C247.349 280.43 248.46 281.761 249.335 282.921C250.211 284.08 250.902 284.991 251.343 285.681L251.856 286.46C251.933 286.561 251.998 286.67 252.048 286.785V286.785Z" fill="#263238"/>
<path d="M253.102 288.04C253.102 288.04 243.803 273.385 229.535 266.837C215.266 260.289 206.751 277.877 206.751 277.877L244.757 299.46L253.102 288.04Z" fill="#455A64"/>
<path d="M245.683 287.62C245.434 287.388 245.212 287.132 245.021 286.854C244.615 286.343 244.01 285.619 243.241 284.735C239.24 280.155 234.415 276.316 229.001 273.406C227.961 272.847 227.107 272.419 226.509 272.136C226.192 272.002 225.89 271.841 225.604 271.653C225.937 271.743 226.261 271.861 226.573 272.005C227.192 272.253 228.061 272.653 229.122 273.185C231.883 274.583 234.488 276.252 236.897 278.167C239.305 280.083 241.507 282.23 243.468 284.577C244.18 285.481 244.786 286.233 245.156 286.771C245.356 287.039 245.532 287.323 245.683 287.62V287.62Z" fill="#263238"/>
<g opacity="0.3">
<path opacity="0.3" d="M210.987 273.64C212.336 275.157 213.933 276.448 215.715 277.463C216.608 277.964 217.596 278.289 218.62 278.42C219.644 278.55 220.684 278.483 221.681 278.222C223.319 277.725 224.693 276.552 226.366 276.152C228.438 275.676 230.588 276.483 232.454 277.47C234.298 278.475 236.291 279.199 238.363 279.616C231.507 272.985 221.817 269.473 212.126 269.266C210.904 269.16 209.674 269.374 208.566 269.887C207.27 270.618 206.558 272.026 205.953 273.337C204.12 277.358 202.508 281.472 201.126 285.66C200.75 286.454 200.699 287.356 200.983 288.185C201.425 289.062 202.507 289.4 203.475 289.634C212.019 291.704 221.51 292.87 230.289 291.939C227.959 289.377 225.031 287.391 221.75 286.145C218.468 284.899 214.927 284.43 211.421 284.777C210.41 284.887 205.654 286.371 205.255 285.467C205.07 285.039 205.925 283.003 206.081 282.562C207.498 278.574 208.965 275.669 210.987 273.64Z" fill="black"/>
</g>
<path d="M225.704 252.236L224.373 259.005C225.925 259.916 228.032 261.172 228.979 261.82C230.588 262.924 231.464 267.768 231.464 267.768L227.491 265.85L227.035 267.071C227.035 267.071 230.709 273.971 227.491 275.193L225.319 274.737C225.319 274.737 225.319 276.386 222.009 275.193C222.009 275.193 221.062 276.697 218.605 275.627C218.605 275.627 218.135 276.014 216.996 275.469C215.857 274.924 211.044 271.439 211.044 271.439V267.472V255.969C210.36 255.99 225.704 252.236 225.704 252.236Z" fill="#AE7461"/>
<path d="M221.774 268.244C221.774 268.279 221.525 268.244 221.233 267.989C220.847 267.677 220.581 267.247 220.479 266.77C220.377 266.292 220.444 265.796 220.67 265.36C220.841 265.036 221.026 264.891 221.069 264.919C220.86 265.489 220.782 266.096 220.841 266.699C221.055 267.679 221.845 268.162 221.774 268.244Z" fill="#6F4439"/>
<path d="M225.704 275.255C224.457 273.801 223.547 272.104 223.034 270.28C223.572 271.059 224.036 271.884 224.422 272.743C224.925 273.542 225.353 274.383 225.704 275.255V275.255Z" fill="#6F4439"/>
<path d="M227.035 266.892C226.936 266.892 227.035 266.305 227.235 265.643C227.434 264.981 227.69 264.47 227.79 264.498C227.89 264.525 227.79 265.084 227.591 265.747C227.391 266.409 227.128 266.92 227.035 266.892Z" fill="#6F4439"/>
<path d="M219.246 271.377C219.246 271.418 218.912 271.377 218.47 271.08C217.9 270.71 217.453 270.186 217.186 269.573C216.919 268.96 216.843 268.285 216.968 267.63C217.067 267.133 217.238 266.871 217.281 266.885C217.091 267.738 217.178 268.626 217.53 269.429C217.882 270.232 218.481 270.91 219.246 271.37V271.377Z" fill="#6F4439"/>
<path d="M222.087 275.365C222.016 275.427 221.375 274.848 220.791 274.027C220.371 273.559 220.062 273.008 219.887 272.412C219.972 272.357 220.485 273.005 221.09 273.792C221.514 274.257 221.851 274.789 222.087 275.365V275.365Z" fill="#6F4439"/>
<path d="M216.014 272.012C216.014 272.053 215.7 272.012 215.302 271.77C214.763 271.44 214.341 270.959 214.091 270.39C213.843 269.829 213.778 269.208 213.906 268.61C214.006 268.155 214.177 267.92 214.22 267.92C214.033 268.694 214.107 269.506 214.431 270.236C214.756 270.966 215.313 271.576 216.021 271.977L216.014 272.012Z" fill="#6F4439"/>
<path d="M218.933 275.669C218.847 275.731 218.221 275.137 217.559 274.344C217.095 273.9 216.725 273.372 216.469 272.791C216.548 272.729 217.181 273.323 217.844 274.116C218.302 274.564 218.672 275.091 218.933 275.669V275.669Z" fill="#6F4439"/>
<path d="M228.965 251.919C229.25 252.167 224.373 255.728 224.373 255.728C224.373 255.728 220.471 259.509 218.378 260.075C215.993 260.849 213.69 261.843 211.5 263.042L204.38 277.187L188.943 273.378L202.016 255.679C202.134 253.825 202.386 251.98 202.771 250.159C203.24 248.6 208.823 240.541 209.67 239.809C210.517 239.078 211.564 238.34 212.696 238.705C213.828 239.071 213.65 241.465 213.65 241.465C213.65 241.465 215.629 241.189 216.498 241.555C217.367 241.921 217.537 243.846 217.537 243.846C217.89 243.708 218.27 243.653 218.649 243.684C219.027 243.715 219.393 243.832 219.716 244.025C220.074 244.159 220.377 244.402 220.581 244.716C220.785 245.031 220.879 245.401 220.848 245.771C221.263 245.558 221.731 245.462 222.199 245.494C222.667 245.526 223.117 245.684 223.497 245.95C223.909 246.238 224.233 246.629 224.432 247.081C224.632 247.533 224.7 248.03 224.629 248.517L221.133 253.506L223.048 252.85C223.048 252.85 227.035 250.256 228.965 251.919Z" fill="#FFBF9D"/>
<path d="M221.24 248.614C220.919 248.365 220.584 248.135 220.236 247.924C219.325 247.45 218.26 247.339 217.267 247.613L217.067 247.669V247.468C217.02 247.059 216.864 246.668 216.613 246.334C216.362 246.001 216.026 245.737 215.638 245.568C215.25 245.398 214.823 245.33 214.4 245.369C213.976 245.409 213.571 245.554 213.223 245.792L213.002 245.944L212.952 245.688C212.854 245.185 212.589 244.727 212.197 244.384C211.892 244.103 211.524 243.893 211.122 243.77C210.757 243.677 210.382 243.631 210.004 243.632C210.004 243.632 210.104 243.577 210.303 243.535C210.595 243.497 210.892 243.511 211.179 243.577C211.623 243.682 212.036 243.888 212.382 244.177C212.844 244.55 213.163 245.063 213.287 245.633L213.023 245.53C213.417 245.249 213.88 245.075 214.366 245.025C214.852 244.975 215.343 245.05 215.789 245.244C216.234 245.437 216.619 245.742 216.904 246.127C217.189 246.512 217.363 246.963 217.409 247.434L217.188 247.296C217.721 247.153 218.278 247.12 218.825 247.197C219.372 247.274 219.896 247.461 220.364 247.744C221.019 248.193 221.268 248.6 221.24 248.614Z" fill="#FF9A6C"/>
<path d="M221.254 245.73C221.304 245.819 220.955 246.082 220.542 246.42C220.129 246.758 219.78 247.006 219.702 246.937C219.624 246.868 219.866 246.482 220.314 246.144C220.763 245.806 221.211 245.64 221.254 245.73Z" fill="#FF9A6C"/>
<path d="M217.587 243.377C217.666 243.439 217.48 243.798 217.167 244.177C216.854 244.557 216.541 244.812 216.455 244.75C216.37 244.688 216.569 244.329 216.875 243.949C217.181 243.57 217.502 243.315 217.587 243.377Z" fill="#FF9A6C"/>
<path d="M213.814 241.459C213.892 241.521 213.678 241.907 213.337 242.321C212.995 242.735 212.625 243.011 212.575 242.963C212.525 242.914 212.703 242.514 213.045 242.1C213.386 241.686 213.735 241.396 213.814 241.459Z" fill="#FF9A6C"/>
<path d="M218.969 257.315C219.049 256.613 219.292 255.939 219.681 255.341C219.976 254.691 220.419 254.113 220.976 253.651C220.726 254.303 220.402 254.925 220.008 255.507C219.731 256.145 219.382 256.751 218.969 257.315V257.315Z" fill="#FF9A6C"/>
<path d="M227.413 289.151C227.413 289.151 223.419 288.579 221.005 288.461C214.17 288.13 204.522 288.041 204.522 288.041L208.545 273.889L210.481 267.893L177.181 266.25C177.523 267.23 171.193 300.267 175.914 306.726C180.634 313.184 193.607 314.681 200.627 314.847C205.526 314.964 220.108 314.516 228.488 314.24C231.035 314.169 233.532 313.544 235.796 312.412C238.06 311.28 240.032 309.669 241.567 307.699C242.671 306.257 243.44 304.752 243.39 303.372" fill="#455A64"/>
<path d="M243.39 303.372C243.409 303.535 243.409 303.699 243.39 303.862C243.346 304.335 243.233 304.8 243.055 305.242C242.307 306.943 241.196 308.472 239.795 309.727C236.925 312.371 233.21 313.985 229.264 314.302C228.324 314.371 227.363 314.378 226.373 314.419L220.079 314.633C215.672 314.764 210.823 314.916 205.654 314.992C203.062 315.026 200.371 315.061 197.601 314.861C194.758 314.674 191.931 314.294 189.143 313.722C186.199 313.132 183.352 312.16 180.677 310.831C179.308 310.107 178.047 309.204 176.932 308.147C176.656 307.87 176.397 307.577 176.156 307.271L175.771 306.822L175.465 306.312C175.279 305.966 175.117 305.609 174.981 305.242C174.874 304.863 174.739 304.497 174.661 304.117C174.069 301.024 173.851 297.875 174.013 294.733C174.098 291.553 174.34 288.33 174.668 285.073C174.995 281.817 175.38 278.636 175.814 275.489C176.035 273.916 176.248 272.364 176.469 270.818C176.576 270.045 176.683 269.272 176.79 268.513L176.939 267.368L176.996 266.802C177.005 266.634 177.005 266.466 176.996 266.299V266.057H177.195L210.489 267.72H210.688L210.631 267.906C210.009 269.806 209.411 271.646 208.837 273.426C208.289 275.227 207.811 276.98 207.32 278.663L204.636 288.034L204.522 287.889C211.742 288.089 217.48 288.234 221.404 288.379C225.327 288.71 227.413 289.11 227.413 289.11C227.413 289.11 227.278 289.11 227.021 289.069L225.868 288.931C224.857 288.82 223.354 288.627 221.396 288.503L204.522 288.116H204.344L204.387 287.978C205.191 285.108 206.081 281.975 207.028 278.594C207.512 276.911 207.982 275.144 208.531 273.357C209.079 271.57 209.698 269.714 210.311 267.837L210.453 268.03L177.146 266.409L177.331 266.174C177.356 266.39 177.356 266.607 177.331 266.823L177.274 267.403L177.124 268.548L176.804 270.859C176.59 272.405 176.37 273.958 176.149 275.531C175.729 278.67 175.33 281.865 175.01 285.101C174.689 288.337 174.44 291.559 174.347 294.761C174.187 297.872 174.399 300.991 174.981 304.055C175.067 304.428 175.195 304.78 175.294 305.146C175.421 305.497 175.576 305.839 175.757 306.167L176.042 306.643L176.405 307.078C176.64 307.372 176.892 307.653 177.16 307.919C178.247 308.959 179.479 309.846 180.82 310.555C183.466 311.868 186.282 312.831 189.193 313.419C191.964 313.992 194.774 314.377 197.601 314.571C200.35 314.771 203.027 314.743 205.619 314.716C210.802 314.647 215.636 314.516 220.044 314.398L226.338 314.212C227.327 314.178 228.296 314.171 229.186 314.109C230.085 314.038 230.977 313.905 231.856 313.708C234.775 313.052 237.463 311.657 239.645 309.665C241.045 308.428 242.167 306.925 242.942 305.249C243.125 304.807 243.247 304.343 243.305 303.869C243.39 303.538 243.376 303.372 243.39 303.372Z" fill="#263238"/>
<path d="M195.166 294.796C195.166 294.733 195.878 294.692 197.039 294.423C198.524 294.083 199.944 293.517 201.247 292.746C201.963 292.322 202.638 291.835 203.262 291.29C203.79 290.884 204.219 290.367 204.515 289.779C204.695 289.38 204.747 288.938 204.664 288.51C204.593 288.213 204.493 288.061 204.522 288.041C204.55 288.02 204.686 288.158 204.8 288.475C204.944 288.927 204.929 289.413 204.757 289.855C204.478 290.498 204.046 291.068 203.497 291.518C201.709 293.127 199.487 294.213 197.089 294.651C196.618 294.734 196.142 294.785 195.665 294.803C195.351 294.83 195.166 294.823 195.166 294.796Z" fill="#263238"/>
<path d="M206.615 305.07C206.558 305.07 206.615 304.318 206.615 303.124C206.615 299.996 205.924 296.904 204.586 294.057C204.074 292.967 203.696 292.318 203.746 292.291C204.181 292.793 204.542 293.35 204.821 293.947C206.307 296.787 207.016 299.949 206.879 303.131C206.884 303.786 206.795 304.438 206.615 305.07V305.07Z" fill="#263238"/>
<path d="M241.575 300.081C241.51 300.081 241.24 299.391 240.592 298.363C240.21 297.76 239.779 297.188 239.303 296.652C238.708 296.007 238.06 295.409 237.367 294.865C236.088 293.886 234.709 293.038 233.251 292.332C232.63 292.064 232.026 291.76 231.443 291.422C232.111 291.573 232.756 291.805 233.365 292.112C234.881 292.757 236.305 293.59 237.602 294.589C238.312 295.147 238.968 295.768 239.56 296.445C240.038 297.002 240.46 297.603 240.82 298.239C241.065 298.665 241.272 299.11 241.439 299.57C241.553 299.888 241.603 300.074 241.575 300.081Z" fill="#263238"/>
</svg>
