<svg width="446" height="426" viewBox="0 0 446 426" fill="none" xmlns="http://www.w3.org/2000/svg">
<path d="M352.634 356.136C342.626 353.955 331.904 351.808 322.306 355.284C315.429 357.84 310.024 362.952 303.94 366.905C293.152 373.905 280.231 377.271 267.216 376.473C247.182 375.187 228.967 364.153 208.96 362.483C191.12 360.984 173.663 367.033 156.466 371.813C125.543 380.384 93.5788 385.053 61.3874 385.7L46.1699 401.82C47.1422 408.9 56.196 412.521 63.5639 411.516C70.9318 410.511 77.4524 406.404 84.4813 403.967C112.133 394.45 144.04 411.635 171.728 402.204C186.223 397.279 198.131 385.428 213.447 384.073C227.032 382.872 239.582 390.259 252.579 394.22C263.394 397.434 274.815 398.347 286.04 396.896C297.264 395.445 308.02 391.664 317.552 385.82C324.385 381.56 330.691 376.184 338.496 373.934C349.405 370.782 361.01 374.292 372.223 376.201C390.767 379.338 409.836 378.047 427.732 372.443L352.634 356.136Z" fill="#E0E0E0"/>
<path d="M433.726 183.725H11.3462V228.225H433.726V183.725Z" fill="#EBEBEB"/>
<path d="M119.216 19.3319H70.3431V97.9119H119.216V19.3319Z" fill="#F5F5F5"/>
<path d="M68.6929 19.3319H28.9186V97.9119H68.6929V19.3319Z" fill="#F5F5F5"/>
<path d="M216.176 19.3319H173.226V97.9119H216.176V19.3319Z" fill="#F5F5F5"/>
<path d="M68.6929 99.3177H28.9186V170.127H68.6929V99.3177Z" fill="#F5F5F5"/>
<path d="M119.216 99.3177H70.3431V170.127H119.216V99.3177Z" fill="#F5F5F5"/>
<path d="M216.176 99.3177H173.226V170.127H216.176V99.3177Z" fill="#F5F5F5"/>
<path d="M171.576 99.3177H125.165V170.127H171.576V99.3177Z" fill="#F5F5F5"/>
<path d="M171.576 19.3319H125.165V97.9119H171.576V19.3319Z" fill="#F5F5F5"/>
<path d="M326.187 22.2969H277.314V100.877H326.187V22.2969Z" fill="#F5F5F5"/>
<path d="M275.664 22.2969H235.889V100.877H275.664V22.2969Z" fill="#F5F5F5"/>
<path d="M423.147 22.2969H380.197V100.877H423.147V22.2969Z" fill="#F5F5F5"/>
<path d="M275.664 102.274H235.889V173.084H275.664V102.274Z" fill="#F5F5F5"/>
<path d="M326.187 102.274H277.314V173.084H326.187V102.274Z" fill="#F5F5F5"/>
<path d="M423.147 102.274H380.197V173.084H423.147V102.274Z" fill="#F5F5F5"/>
<path d="M378.547 102.274H332.136V173.084H378.547V102.274Z" fill="#F5F5F5"/>
<path d="M378.547 22.2969H332.136V100.877H378.547V22.2969Z" fill="#F5F5F5"/>
<path d="M208.728 234.607C208.728 234.607 208.728 234.99 208.728 235.723C208.728 236.456 208.728 237.546 208.728 238.978C208.728 241.849 208.728 246.092 208.728 251.587C208.728 262.578 208.781 278.604 208.817 298.771L208.665 298.626L423.058 298.549L422.826 298.771V234.607L423.058 234.82L269.705 234.726L224.864 234.658H212.831H209.718H208.648H209.682H212.778H224.757L269.544 234.598L423.058 234.505H423.281V234.718C423.281 255.046 423.281 276.653 423.281 298.882V299.103H423.031L208.728 298.916H208.576V298.771C208.576 278.561 208.639 262.51 208.657 251.502C208.657 246.015 208.657 241.789 208.657 238.926C208.657 237.504 208.657 236.422 208.657 235.689C208.657 234.956 208.728 234.607 208.728 234.607Z" fill="#E0E0E0"/>
<path d="M22.1751 234.607C22.1751 234.607 22.1751 234.999 22.1751 235.74C22.1751 236.481 22.1751 237.606 22.1751 239.054C22.1751 241.968 22.1751 246.262 22.2197 251.792C22.2197 262.868 22.2643 278.868 22.2999 298.771L22.1394 298.617L194.661 298.549L194.429 298.771C194.429 276.338 194.429 254.654 194.429 234.607L194.652 234.82L70.9942 234.718L35.0823 234.658H25.4665H22.9779H22.0859H22.9154H25.3773H34.9485L70.8069 234.598L194.616 234.496H194.839V234.709C194.839 254.757 194.839 276.457 194.839 298.873V299.095H194.599L22.0769 299.026H21.9164V298.873C21.961 278.936 21.9877 262.885 22.0056 251.8C22.0056 246.288 22.0056 242.011 22.0056 239.105C22.0056 237.665 22.0056 236.549 22.0056 235.817C22.0056 235.084 22.1751 234.607 22.1751 234.607Z" fill="#E0E0E0"/>
<path d="M427.91 306.643C427.91 306.771 336.311 306.865 223.348 306.865C110.385 306.865 18.7321 306.771 18.7321 306.643C18.7321 306.515 110.305 306.422 223.312 306.422C336.32 306.422 427.91 306.524 427.91 306.643Z" fill="#263238"/>
<path d="M164.128 394.893C163.668 394.769 163.218 394.612 162.781 394.425C161.934 394.084 160.685 393.632 159.133 393.121C157.581 392.61 155.708 392.065 153.602 391.554C149.027 390.471 144.338 389.882 139.625 389.799C137.448 389.799 135.495 389.799 133.854 389.935C132.212 390.071 130.892 390.173 129.973 390.293C129.502 390.371 129.025 390.414 128.546 390.42C129.003 390.282 129.471 390.182 129.947 390.122C130.839 389.952 132.186 389.781 133.827 389.628C135.754 389.452 137.689 389.372 139.625 389.39C142.011 389.415 144.394 389.571 146.761 389.858C149.112 390.165 151.444 390.597 153.745 391.153C155.62 391.632 157.469 392.2 159.284 392.857C160.828 393.411 162.059 393.914 162.852 394.297C163.294 394.462 163.721 394.662 164.128 394.893V394.893Z" fill="#263238"/>
<path d="M174.27 389.671C174.27 389.739 172.986 389.211 170.889 388.614C168.148 387.834 165.317 387.373 162.46 387.243C159.603 387.128 156.742 387.348 153.941 387.899C151.792 388.316 150.498 388.751 150.472 388.657C150.753 388.504 151.052 388.384 151.364 388.299C152.183 388.013 153.02 387.777 153.87 387.592C159.533 386.289 165.467 386.54 170.988 388.316C171.818 388.575 172.632 388.882 173.423 389.236C173.727 389.338 174.013 389.484 174.27 389.671V389.671Z" fill="#263238"/>
<path d="M56.0087 402.553C56.0087 402.63 54.5726 402.272 52.2534 401.871C49.2328 401.346 46.1716 401.061 43.1015 401.019C40.0316 400.986 36.9642 401.2 33.9317 401.658C31.6036 402.008 30.1764 402.331 30.1586 402.255C30.4728 402.118 30.8018 402.015 31.1398 401.948C31.7731 401.769 32.7097 401.565 33.8782 401.343C39.9783 400.252 46.2439 400.321 52.3158 401.548C53.4754 401.795 54.4031 402.025 55.0364 402.212C55.3724 402.292 55.6983 402.406 56.0087 402.553V402.553Z" fill="#263238"/>
<path d="M309.372 389.798C309.372 389.875 307.918 389.347 305.537 388.793C304.14 388.467 302.726 388.216 301.3 388.043C299.557 387.838 297.802 387.741 296.046 387.754C294.291 387.781 292.539 387.912 290.801 388.146C289.379 388.352 287.97 388.637 286.582 388.998C284.209 389.603 282.8 390.156 282.764 390.08C283.069 389.894 283.395 389.743 283.736 389.628C284.636 389.266 285.556 388.953 286.493 388.691C287.883 388.296 289.298 387.986 290.73 387.762C292.501 387.496 294.289 387.348 296.082 387.319C297.871 387.314 299.66 387.425 301.434 387.651C302.868 387.854 304.289 388.138 305.688 388.503C306.629 388.738 307.555 389.022 308.463 389.355C308.781 389.474 309.085 389.622 309.372 389.798Z" fill="#263238"/>
<path d="M392.177 370.45C392.177 370.518 390.785 370.577 388.555 370.816C385.651 371.115 382.772 371.605 379.938 372.281C377.101 372.961 374.317 373.829 371.607 374.88C369.529 375.681 368.271 376.252 368.235 376.184C368.494 375.991 368.775 375.828 369.074 375.698C369.627 375.408 370.447 375.025 371.482 374.59C376.878 372.306 382.643 370.923 388.528 370.501C389.652 370.424 390.571 370.39 391.204 370.399C391.529 370.373 391.857 370.39 392.177 370.45V370.45Z" fill="#263238"/>
<path d="M397.011 369.768C396.527 369.803 396.041 369.803 395.558 369.768L391.606 369.598C388.27 369.453 383.658 369.274 378.574 369.368C374.231 369.427 369.898 369.769 365.604 370.39C364.775 370.492 364.034 370.637 363.383 370.748C362.732 370.859 362.17 370.961 361.715 371.063C361.246 371.176 360.769 371.256 360.288 371.302C360.736 371.122 361.202 370.985 361.679 370.893C362.125 370.773 362.678 370.637 363.33 370.509C363.981 370.381 364.721 370.211 365.551 370.075C369.85 369.361 374.202 368.974 378.565 368.916C383.667 368.822 388.288 369.052 391.624 369.274C393.292 369.385 394.639 369.495 395.566 369.581C396.053 369.603 396.536 369.666 397.011 369.768V369.768Z" fill="#263238"/>
<path d="M64.2241 373.832L57.5073 375.928C55.2041 375.5 52.8188 375.759 50.6746 376.669C45.6348 378.808 43.9846 379.421 38.365 379.396C37.2935 379.379 36.2333 379.606 35.2718 380.058C34.3102 380.51 33.4749 381.173 32.8346 381.994C30.4976 385.061 30.9971 389.253 31.8177 392.951C32.451 395.771 33.2895 398.693 35.8228 400.551C36.9171 401.385 38.3101 401.777 39.703 401.641C43.271 401.241 44.1184 397.62 46.5179 395.677C50.0347 392.744 54.1861 390.588 58.6758 389.364C60.665 388.768 72.2075 389.475 72.2075 389.475L64.2241 373.832Z" fill="#FFBF9D"/>
<path d="M35.4838 385.104C35.7602 385.089 36.0367 385.133 36.2929 385.233C36.5491 385.334 36.7786 385.487 36.9645 385.683C37.2003 385.89 37.3905 386.14 37.5238 386.418C37.6571 386.696 37.7308 386.997 37.7405 387.302C37.7525 387.7 37.6648 388.094 37.4848 388.453C37.3048 388.812 37.0378 389.124 36.7058 389.364L36.5274 389.006C37.8922 388.597 39.4264 389.799 39.5245 391.281C39.5282 391.883 39.3981 392.479 39.1429 393.03C38.8876 393.581 38.513 394.074 38.0438 394.476L37.9189 394.127C38.7875 394.263 39.5657 394.718 40.0865 395.396C40.4777 395.926 40.6781 396.563 40.6574 397.211C40.6482 397.622 40.5446 398.026 40.3541 398.395C40.2203 398.651 40.1043 398.762 40.0865 398.753C40.2878 398.261 40.3936 397.739 40.3987 397.211C40.3719 396.552 40.1035 395.923 39.6404 395.434C39.1773 394.945 38.5491 394.627 37.8654 394.536L37.4462 394.485L37.7405 394.186C38.1549 393.816 38.4857 393.369 38.7128 392.872C38.9398 392.376 39.0582 391.84 39.0607 391.298C38.9982 390.071 37.6781 389.057 36.6434 389.373L35.3678 389.764L36.465 389.015C36.7384 388.813 36.9607 388.555 37.1151 388.26C37.2696 387.965 37.3523 387.641 37.357 387.311C37.3579 386.769 37.1407 386.247 36.7504 385.854C36.3902 385.519 35.958 385.263 35.4838 385.104V385.104Z" fill="#FF725E"/>
<path d="M104.899 347.403L96.0328 364.247L87.4161 381.074C87.1048 381.681 86.5547 382.145 85.8861 382.365C85.2175 382.585 84.4848 382.544 83.8481 382.25L48.3465 364.784C47.9518 364.58 47.6113 364.293 47.3511 363.943C47.091 363.594 46.918 363.193 46.8457 362.77C46.7733 362.347 46.8034 361.914 46.9337 361.504C47.064 361.094 47.291 360.718 47.5973 360.405C47.8605 360.132 48.1854 359.921 48.5471 359.786C48.9088 359.652 49.2978 359.598 49.6845 359.629C52.8333 359.8 78.0591 358.624 78.0591 358.624L83.8481 333.524L104.899 347.403Z" fill="#FFBF9D"/>
<path d="M375.398 358.581C375.398 358.581 376.005 366.743 379.644 368.669C383.283 370.594 392.685 368.481 395.415 368.669C398.144 368.856 407.251 374.94 415.137 374.94C418.491 374.94 420.81 374.812 422.371 374.667C422.802 374.626 423.218 374.493 423.589 374.279C423.96 374.064 424.275 373.773 424.512 373.426C424.749 373.079 424.902 372.686 424.959 372.276C425.016 371.866 424.976 371.448 424.842 371.055C424.298 369.504 423.192 367.169 420.301 366.922C413.469 366.326 410.284 363.71 410.284 363.71C407.49 360.989 404.529 358.429 401.418 356.042C398.216 353.844 389.349 346.67 389.349 346.67L375.398 358.581Z" fill="#AE7461"/>
<path d="M274.736 242.377C274.736 242.607 356.211 273.415 357.121 274.284C358.031 275.153 400.33 350.112 400.33 350.112L367.326 361.401L326.775 305.612L321.495 305.229C321.495 305.229 268.572 286.928 268.813 286.059C269.054 285.19 274.736 242.377 274.736 242.377Z" fill="#FF725E"/>
<path d="M337.765 289.203C337.377 290.089 336.914 290.944 336.382 291.759C335.49 293.284 334.188 295.371 332.743 297.672C331.298 299.972 329.978 302.034 328.996 303.525C328.517 304.345 327.971 305.129 327.364 305.868C327.756 304.982 328.221 304.127 328.756 303.312C329.648 301.787 330.941 299.7 332.386 297.399C333.831 295.099 335.151 293.037 336.132 291.554C336.616 290.734 337.162 289.948 337.765 289.203V289.203Z" fill="#263238"/>
<path opacity="0.3" d="M304.921 254.058V267.042L321.495 305.229L308.793 300.807L294.298 258.301L297.411 251.153L304.921 254.058Z" fill="black"/>
<path d="M68.2648 335.875C68.2648 335.023 98.0487 271.072 103.436 266.472C108.824 261.871 117.619 259.153 128.965 264.572C137.734 268.763 172.067 289.672 187.231 298.958L194.492 303.423L204.696 360.234L183.431 384.874L73.6525 394.893L60.0316 368.345L118.734 360.081L136.057 356.417C136.057 356.417 140.026 351.816 143.996 350.998C147.965 350.181 149.107 352.353 149.107 352.353L163.29 338.619L123.007 313.204C123.007 313.204 109.716 351.024 105.425 351.544C101.135 352.063 68.2648 335.875 68.2648 335.875Z" fill="#455A64"/>
<g opacity="0.3">
<path opacity="0.3" d="M184.644 297.459C183.342 306.711 181.968 316.356 182.459 325.677C182.949 334.998 185.366 344.421 190.933 352.089C192.155 353.793 193.555 355.429 194.197 357.397C195.874 362.62 184.644 377.99 184.644 383.4L203.376 360.2L198.666 344.447L190.237 300.773L184.644 297.459Z" fill="black"/>
</g>
<path d="M109.208 292.236C109.392 292.503 109.545 292.789 109.662 293.088C109.912 293.667 110.296 294.502 110.769 295.516C112.02 298.172 113.416 300.762 114.952 303.278C116.502 305.783 118.194 308.206 120.019 310.537C120.723 311.432 121.294 312.156 121.696 312.65C121.927 312.891 122.125 313.161 122.284 313.451C122.018 313.246 121.776 313.015 121.562 312.761C121.116 312.301 120.491 311.61 119.778 310.733C115.949 306.148 112.819 301.068 110.483 295.644C110.046 294.605 109.716 293.753 109.511 293.156C109.373 292.862 109.271 292.553 109.208 292.236V292.236Z" fill="#263238"/>
<path d="M119.403 284.346C119.537 284.346 120.384 290.864 121.312 298.933C122.24 307.001 122.882 313.57 122.748 313.579C122.614 313.587 121.776 307.061 120.848 298.984C119.92 290.907 119.278 284.355 119.403 284.346Z" fill="#263238"/>
<path d="M189.407 348.281C189.336 348.34 188.301 347.096 186.285 345.435C185.104 344.465 183.846 343.585 182.521 342.802C180.888 341.865 179.176 341.061 177.401 340.4C175.614 339.764 173.773 339.279 171.897 338.951C170.365 338.696 168.814 338.554 167.259 338.525C164.583 338.525 162.951 338.764 162.942 338.679C163.312 338.562 163.695 338.488 164.083 338.457C164.534 338.376 164.99 338.325 165.448 338.304C166.041 338.247 166.636 338.218 167.232 338.218C168.809 338.199 170.385 338.31 171.942 338.551C173.852 338.861 175.727 339.34 177.544 339.982C179.347 340.65 181.079 341.48 182.717 342.461C184.051 343.265 185.308 344.18 186.473 345.196C186.928 345.581 187.363 345.988 187.775 346.415C188.092 346.722 188.389 347.046 188.667 347.386C188.946 347.659 189.194 347.959 189.407 348.281V348.281Z" fill="#263238"/>
<path d="M166.545 361.521C166.074 361.535 165.602 361.509 165.136 361.444L161.291 361.112C158.054 360.839 153.567 360.532 148.607 360.387C143.648 360.243 139.143 360.277 135.887 360.387L132.034 360.49C131.562 360.532 131.087 360.532 130.616 360.49C131.08 360.402 131.552 360.348 132.025 360.328C132.917 360.243 134.246 360.157 135.878 360.081C139.134 359.919 143.639 359.834 148.616 359.979C153.594 360.123 158.089 360.481 161.327 360.831C162.951 361.001 164.253 361.163 165.154 361.299C165.623 361.336 166.089 361.41 166.545 361.521V361.521Z" fill="#263238"/>
<path d="M172.941 383.4C172.861 383.4 173.164 382.395 173.405 380.759C174.061 376.493 173.478 372.137 171.719 368.166C171.05 366.65 170.497 365.764 170.568 365.721C170.64 365.678 170.756 365.917 171.023 366.3C171.395 366.847 171.729 367.416 172.022 368.004C173.983 371.987 174.582 376.458 173.735 380.784C173.611 381.434 173.441 382.074 173.226 382.701C173.048 383.204 172.977 383.443 172.941 383.4Z" fill="#263238"/>
<path d="M180.318 315.402C180.416 315.47 177.017 319.747 172.727 324.944C168.436 330.142 164.868 334.316 164.761 334.223C164.654 334.129 168.062 329.869 172.361 324.672C176.661 319.474 180.184 315.325 180.318 315.402Z" fill="#263238"/>
<g opacity="0.3">
<path opacity="0.3" d="M110.555 295.533C109.79 299.6 110.598 303.793 112.829 307.333C114.993 310.826 118.434 313.43 122.49 314.643L122.748 313.928C117.575 308.628 113.757 302.23 110.555 295.533Z" fill="black"/>
</g>
<g opacity="0.3">
<path opacity="0.3" d="M135.762 356.485C145.64 355.306 155.619 355.117 165.537 355.923C157.866 357.687 149.901 357.857 142.006 358.01C139.83 358.053 137.341 358.01 135.932 356.392" fill="black"/>
</g>
<path d="M312.735 304.164L299.311 258.045L298.267 223.181C298.267 223.181 275.325 225.899 275.236 226.717C275.146 227.535 267.395 271.737 267.092 272.35C266.788 272.964 273.987 322.277 273.987 322.277L284.807 325.404L313.761 313.212L312.735 304.164Z" fill="#455A64"/>
<path d="M189.265 294.724C191.941 292.841 204.304 292.952 216.988 313.579L225.747 316.731L292.915 306.984L311.183 308.748C316.035 316.288 318.775 324.893 319.14 333.737C319.729 348.434 324.144 361.853 298.624 383.817L229.69 374.445L209.415 372.324L183.431 384.908L200.7 356.315C200.7 356.315 195.633 355.991 190.62 340.808C185.607 325.626 189.265 294.724 189.265 294.724Z" fill="#455A64"/>
<path d="M313.226 312.616C312.861 312.754 312.481 312.852 312.093 312.906C311.353 313.059 310.309 313.297 308.98 313.596C302.16 315.157 295.545 317.443 289.258 320.412C288.045 320.983 287.072 321.46 286.403 321.792C286.068 321.985 285.712 322.145 285.342 322.269C285.645 322.027 285.974 321.816 286.323 321.639C286.965 321.264 287.911 320.744 289.106 320.139C292.223 318.581 295.447 317.229 298.758 316.092C302.073 314.951 305.464 314.02 308.909 313.306C310.229 313.042 311.308 312.854 312.057 312.752C312.442 312.673 312.833 312.628 313.226 312.616Z" fill="#263238"/>
<path d="M307.954 312.062C307.665 312.153 307.365 312.213 307.062 312.241L304.538 312.599C302.406 312.897 299.48 313.34 296.26 313.953C293.04 314.567 290.159 315.223 288.071 315.726L285.6 316.322C285.311 316.411 285.012 316.468 284.708 316.492C284.989 316.342 285.289 316.228 285.6 316.152C286.171 315.964 287.001 315.717 288.036 315.427C290.105 314.84 292.995 314.132 296.224 313.519C299.453 312.906 302.406 312.505 304.547 312.284C305.617 312.173 306.491 312.105 307.089 312.071C307.376 312.034 307.666 312.031 307.954 312.062Z" fill="#263238"/>
<path d="M209.415 372.29L216.292 338.193L221.6 339.42L219.459 373.346L209.415 372.29Z" fill="#263238"/>
<g opacity="0.3">
<path opacity="0.3" d="M214.606 309.779L207.961 301.651C207.774 314.609 207.64 327.867 212.011 340.135C212.5 341.894 213.466 343.499 214.812 344.787C216.248 345.963 218.558 346.355 220.012 345.188L214.606 309.779Z" fill="black"/>
</g>
<path d="M219.432 347.173C219.432 347.258 218.121 347.241 216.069 347.565C214.859 347.762 213.666 348.047 212.501 348.417C211.093 348.87 209.729 349.441 208.425 350.121C207.134 350.834 205.911 351.652 204.768 352.566C203.842 353.324 202.977 354.147 202.181 355.028C200.834 356.545 200.183 357.627 200.102 357.584C200.204 357.308 200.342 357.044 200.513 356.801C200.686 356.507 200.877 356.222 201.084 355.949C201.344 355.567 201.627 355.2 201.931 354.849C202.702 353.926 203.559 353.07 204.491 352.293C205.634 351.328 206.874 350.471 208.193 349.737C209.526 349.047 210.924 348.477 212.367 348.033C213.549 347.678 214.761 347.421 215.989 347.267C216.515 347.181 216.997 347.173 217.416 347.139C217.772 347.114 218.13 347.114 218.487 347.139C218.802 347.113 219.12 347.124 219.432 347.173V347.173Z" fill="#263238"/>
<path d="M334.83 147.72C335.85 148.665 337.221 149.185 338.642 149.165C340.063 149.146 341.418 148.587 342.408 147.613C343.398 146.639 343.942 145.33 343.921 143.972C343.9 142.615 343.316 141.321 342.296 140.376C343.438 140.106 344.462 139.5 345.223 138.643C345.984 137.787 346.443 136.723 346.536 135.603C346.629 134.484 346.35 133.364 345.74 132.404C345.129 131.444 344.218 130.692 343.135 130.254C343.703 129.29 344.001 128.203 343.999 127.097C343.997 125.991 343.695 124.904 343.123 123.943C342.551 122.981 341.728 122.177 340.734 121.61C339.741 121.042 338.61 120.729 337.453 120.703C336.905 119.183 335.841 117.882 334.43 117.006C333.019 116.131 331.342 115.731 329.665 115.872C328.819 115.126 327.743 114.661 326.598 114.546C325.453 114.431 324.299 114.671 323.309 115.232C322.318 115.793 321.543 116.643 321.099 117.658C320.655 118.673 320.565 119.797 320.844 120.865" fill="#263238"/>
<path d="M281.551 157.288L297.393 130.475C303.2 119.595 314.662 113.759 325.874 119.595L326.882 120.192C331.756 123.093 335.307 127.641 336.829 132.929C338.351 138.218 337.733 143.86 335.098 148.734C330.013 158.106 324.278 168.449 321.084 173.212C314.475 183.069 303.057 178.417 303.057 178.417L289.258 191.257C286.654 186.574 284.591 181.634 283.103 176.526C280.534 167.844 281.551 157.288 281.551 157.288Z" fill="#AE7461"/>
<path d="M303.146 178.46C298.316 175.582 294.45 171.443 292.005 166.532C292.005 166.532 289.133 175.904 300.105 181.169L303.146 178.46Z" fill="#6F4439"/>
<path d="M325.384 156.299C325.141 156.665 324.761 156.928 324.322 157.035C323.883 157.143 323.417 157.087 323.02 156.879C322.822 156.781 322.645 156.646 322.502 156.483C322.359 156.319 322.251 156.13 322.185 155.926C322.12 155.722 322.097 155.507 322.12 155.295C322.142 155.082 322.209 154.877 322.315 154.689C322.559 154.322 322.94 154.057 323.381 153.949C323.822 153.841 324.29 153.899 324.688 154.11C324.887 154.207 325.063 154.342 325.206 154.506C325.349 154.67 325.456 154.86 325.521 155.064C325.586 155.268 325.608 155.483 325.584 155.695C325.56 155.907 325.492 156.113 325.384 156.299V156.299Z" fill="#263238"/>
<path d="M329.692 152.261C329.389 152.338 328.8 150.872 327.177 149.918C325.553 148.964 323.903 149.066 323.85 148.751C323.85 148.614 324.224 148.393 324.974 148.342C325.964 148.297 326.945 148.544 327.783 149.049C328.614 149.545 329.26 150.278 329.63 151.145C329.888 151.801 329.835 152.227 329.692 152.261Z" fill="#263238"/>
<path d="M311.032 148.316C310.788 148.681 310.409 148.945 309.97 149.052C309.53 149.16 309.065 149.104 308.668 148.895C308.469 148.798 308.293 148.663 308.15 148.499C308.007 148.335 307.899 148.146 307.834 147.941C307.77 147.737 307.748 147.523 307.772 147.31C307.796 147.098 307.864 146.893 307.972 146.706C308.215 146.341 308.595 146.077 309.034 145.97C309.473 145.862 309.938 145.918 310.336 146.126C310.534 146.224 310.711 146.359 310.854 146.523C310.997 146.687 311.104 146.876 311.169 147.081C311.234 147.285 311.255 147.499 311.232 147.712C311.208 147.924 311.14 148.129 311.032 148.316V148.316Z" fill="#263238"/>
<path d="M313.788 143.187C313.485 143.264 312.896 141.798 311.272 140.853C309.649 139.907 307.999 140.001 307.945 139.677C307.945 139.549 308.32 139.319 309.069 139.276C310.06 139.228 311.042 139.475 311.879 139.984C312.709 140.477 313.355 141.207 313.725 142.071C313.984 142.727 313.931 143.136 313.788 143.187Z" fill="#263238"/>
<path d="M312.2 157.969C313.207 158.221 314.178 158.59 315.09 159.068C315.527 159.273 315.982 159.426 316.205 159.196C316.502 158.816 316.67 158.358 316.687 157.884C316.919 156.708 317.16 155.481 317.418 154.195C318.498 148.964 319.55 144.763 319.773 144.823C319.996 144.883 319.291 149.143 318.212 154.365C317.936 155.652 317.668 156.921 317.418 158.046C317.369 158.668 317.091 159.254 316.633 159.699C316.485 159.803 316.314 159.873 316.133 159.902C315.951 159.932 315.765 159.921 315.59 159.869C315.325 159.793 315.071 159.687 314.831 159.554C313.887 159.135 313.003 158.602 312.2 157.969Z" fill="#263238"/>
<path d="M318.105 137.453C317.677 137.768 316.205 136.601 314.189 135.749C312.173 134.897 310.336 134.437 310.327 133.917C310.327 133.67 310.853 133.432 311.727 133.398C312.868 133.379 313.997 133.621 315.019 134.105C316.049 134.565 316.95 135.251 317.65 136.107C318.168 136.763 318.301 137.291 318.105 137.453Z" fill="#263238"/>
<path d="M331.985 147.49C331.476 147.669 330.611 146.638 329.309 145.845C328.006 145.053 326.704 144.627 326.686 144.141C326.686 143.903 327.087 143.656 327.792 143.622C328.712 143.603 329.614 143.863 330.37 144.363C331.138 144.842 331.733 145.535 332.074 146.348C332.297 146.944 332.216 147.396 331.985 147.49Z" fill="#263238"/>
<path d="M337.069 143.571C337.069 143.571 338.389 135.715 336.177 132.392C333.501 128.371 329.282 131.387 326.285 128.26C323.288 125.133 320.763 121.282 315.313 121.759C309.346 122.271 309.899 125.457 306.777 129.717C294.092 146.996 287.376 150.02 291.898 141.015C292.398 140.026 290.194 137.7 292.335 133.568C295.118 128.209 298.918 121.947 302.441 119.084C305.412 116.656 308.578 115.676 313.315 115.267C320.799 114.671 327.864 118.769 332.332 122.083C336.801 125.397 342.59 136.039 337.069 143.571Z" fill="#263238"/>
<path d="M292.754 141.142C292.981 140.771 293.126 140.359 293.181 139.932C293.236 139.505 293.199 139.072 293.073 138.659C292.947 138.246 292.735 137.862 292.448 137.531C292.162 137.199 291.808 136.926 291.408 136.729C289.347 135.749 286.502 135.511 284.129 139.421C279.927 146.348 288.08 148.955 288.214 148.793C288.348 148.631 291.024 144.056 292.754 141.142Z" fill="#AE7461"/>
<path d="M288.214 145.283C288.214 145.24 288.036 145.283 287.768 145.283C287.392 145.239 287.049 145.055 286.814 144.772C286.207 144.082 286.27 142.565 286.992 141.296C287.334 140.692 287.813 140.168 288.393 139.762C288.593 139.584 288.836 139.454 289.1 139.385C289.364 139.315 289.641 139.307 289.909 139.362C290.074 139.408 290.218 139.506 290.317 139.641C290.416 139.776 290.464 139.939 290.453 140.103C290.453 140.35 290.302 140.469 290.328 140.495C290.355 140.52 290.56 140.495 290.676 140.154C290.746 139.961 290.746 139.751 290.676 139.558C290.566 139.303 290.354 139.101 290.087 138.995C289.756 138.887 289.4 138.862 289.055 138.921C288.711 138.981 288.387 139.124 288.116 139.336C287.441 139.77 286.887 140.355 286.502 141.04C285.699 142.463 285.61 144.184 286.502 145.062C286.664 145.222 286.862 145.346 287.081 145.424C287.301 145.502 287.535 145.533 287.768 145.513C288.116 145.445 288.232 145.309 288.214 145.283Z" fill="#6F4439"/>
<path d="M301.496 128.056C301.923 129.253 302.659 130.329 303.637 131.182C304.681 131.949 306.357 132.094 307.205 131.182C307.597 130.756 307.838 130.134 308.4 129.964C308.962 129.794 309.702 130.322 310.256 130.739C311.245 131.436 312.456 131.786 313.684 131.73C314.912 131.674 316.083 131.216 316.999 130.433C316.999 131.498 318.284 132.205 319.407 132.188C320.519 132.046 321.606 131.759 322.636 131.336C323.154 131.131 323.716 131.049 324.274 131.098C324.832 131.147 325.369 131.325 325.839 131.617C326.312 132 326.615 132.597 327.168 132.869C328.158 133.347 329.291 132.571 330.013 131.77C330.736 130.969 331.521 129.998 332.618 129.99C333.715 129.981 334.402 130.842 335.214 131.438C336.025 132.034 337.23 132.537 337.97 131.864C338.148 131.67 338.282 131.445 338.367 131.2C338.451 130.956 338.483 130.698 338.461 130.441C338.417 129.276 337.963 128.159 337.174 127.271C336.384 126.382 335.304 125.773 334.108 125.542C334.489 124.205 334.448 122.79 333.991 121.475C333.533 120.159 332.679 119.002 331.536 118.149C330.393 117.295 329.011 116.783 327.564 116.677C326.118 116.57 324.67 116.874 323.404 117.55C323.076 116.443 322.473 115.427 321.645 114.59C320.818 113.753 319.79 113.12 318.651 112.745C317.511 112.37 316.294 112.264 315.102 112.436C313.91 112.608 312.78 113.053 311.808 113.733C311.079 112.995 310.139 112.478 309.105 112.246C308.071 112.014 306.988 112.078 305.992 112.429C304.995 112.781 304.129 113.404 303.501 114.223C302.873 115.041 302.511 116.017 302.459 117.031C301.594 116.952 300.722 117.084 299.925 117.415C299.128 117.746 298.432 118.264 297.901 118.922C296.956 120.311 297.473 122.569 299.132 123.037C298.463 123.411 297.971 124.018 297.76 124.731C297.55 125.444 297.637 126.207 298.003 126.86C298.369 127.513 298.986 128.005 299.724 128.233C300.461 128.461 301.263 128.406 301.96 128.081" fill="#263238"/>
<path d="M333.349 127.851C333.326 127.898 333.296 127.941 333.26 127.979C333.175 128.095 333.083 128.206 332.984 128.311C332.587 128.717 332.123 129.057 331.61 129.317C330.801 129.728 329.904 129.956 328.988 129.981C327.767 130.034 326.561 129.705 325.553 129.044L325.776 128.959C325.586 129.708 325.092 130.354 324.403 130.756C323.688 131.177 322.913 131.496 322.101 131.702C321.676 131.845 321.237 131.948 320.79 132.009C320.313 132.025 319.839 131.931 319.407 131.736C318.951 131.542 318.551 131.245 318.24 130.871C317.93 130.498 317.718 130.058 317.623 129.589L317.945 129.674C317.384 130.321 316.688 130.849 315.901 131.224C315.115 131.6 314.256 131.815 313.378 131.856C312.391 131.928 311.405 131.695 310.568 131.191C309.8 130.687 309.127 130.062 308.579 129.342H308.819C307.914 129.944 306.865 130.319 305.769 130.433C305.25 130.508 304.719 130.47 304.218 130.323C303.716 130.175 303.255 129.921 302.87 129.581C302.222 128.982 301.772 128.215 301.575 127.375C301.378 126.534 301.444 125.657 301.764 124.852L301.88 125.022C300.879 124.96 299.932 124.565 299.204 123.906C298.66 123.438 298.238 122.854 297.973 122.202C297.816 121.784 297.732 121.343 297.723 120.899C297.712 120.744 297.73 120.588 297.776 120.439C297.775 121.021 297.887 121.599 298.107 122.143C298.381 122.775 298.806 123.338 299.346 123.787C300.046 124.395 300.944 124.754 301.889 124.801H302.067L302.005 124.963C301.716 125.719 301.664 126.539 301.856 127.323C302.048 128.107 302.474 128.82 303.084 129.376C303.444 129.681 303.872 129.905 304.335 130.03C304.799 130.156 305.286 130.18 305.76 130.1C306.797 129.987 307.787 129.626 308.641 129.052L308.775 128.959L308.882 129.087C309.408 129.774 310.05 130.373 310.782 130.859C311.559 131.324 312.473 131.537 313.386 131.464C314.215 131.427 315.026 131.225 315.768 130.872C316.51 130.518 317.166 130.02 317.695 129.41L317.945 129.121L318.007 129.495C318.088 129.91 318.274 130.299 318.547 130.63C318.821 130.961 319.174 131.224 319.577 131.395C319.958 131.569 320.377 131.653 320.799 131.643C321.218 131.588 321.63 131.494 322.03 131.361C322.811 131.177 323.561 130.891 324.26 130.509C324.573 130.338 324.847 130.107 325.065 129.832C325.282 129.557 325.44 129.242 325.527 128.908V128.703L325.705 128.822C326.654 129.468 327.797 129.8 328.961 129.768C329.85 129.759 330.725 129.558 331.521 129.18C332.209 128.846 332.828 128.395 333.349 127.851Z" fill="#455A64"/>
<path d="M309.854 164.266C308.744 163.589 307.825 162.661 307.178 161.565C306.441 160.542 305.864 159.423 305.465 158.242C306.261 159.204 306.962 160.234 307.562 161.318C308.712 163.022 309.952 164.172 309.854 164.266Z" fill="#263238"/>
<path d="M243.07 229.188C242.444 228.695 241.892 228.121 241.429 227.484C239.026 224.523 237.377 221.07 236.612 217.396C236.413 216.648 236.323 215.877 236.344 215.104C236.592 215.832 236.788 216.575 236.933 217.328C237.401 219.111 238.034 220.85 238.824 222.525C239.636 224.192 240.597 225.788 241.696 227.297C242.192 227.901 242.651 228.533 243.07 229.188V229.188Z" fill="#FF725E"/>
<path d="M351.448 357.423L305.002 354.645C297.098 354.176 285.601 351.944 286.948 340.05C288.294 333.106 290.462 332.323 290.462 332.323C290.462 332.323 298.9 331.019 303.619 330.159C304.868 329.937 313.155 328.642 313.52 328.642C313.52 328.642 315.367 317.413 327.123 317.293C332.805 317.234 344.517 318.026 355.105 318.861C360.588 319.296 365.699 321.687 369.42 325.558C373.141 329.429 375.199 334.497 375.184 339.752V340.8C374.399 352.515 363.606 358.445 351.448 357.423Z" fill="#FFBF9D"/>
<path d="M313.476 328.642C313.465 333.823 315.013 338.898 317.936 343.262C317.936 343.262 308.677 340.374 309.756 329.17L313.476 328.642Z" fill="#FF9A6C"/>
<path d="M348.772 337.596C348.522 337.801 349.503 339.164 349.414 341.004C349.325 342.845 348.246 344.208 348.522 344.412C348.799 344.617 349.075 344.319 349.575 343.739C350.211 342.96 350.576 342.009 350.618 341.022C350.665 340.042 350.381 339.074 349.807 338.261C349.325 337.707 348.888 337.494 348.772 337.596Z" fill="#263238"/>
<path d="M344.214 337.392C343.8 337.385 343.399 337.534 343.099 337.806C342.799 338.079 342.622 338.453 342.608 338.849C342.591 339.042 342.615 339.236 342.678 339.42C342.741 339.604 342.842 339.775 342.975 339.921C343.108 340.067 343.271 340.186 343.453 340.271C343.635 340.356 343.833 340.406 344.036 340.417C344.448 340.419 344.846 340.269 345.146 339.997C345.445 339.726 345.623 339.354 345.641 338.96C345.659 338.766 345.637 338.572 345.574 338.387C345.512 338.202 345.411 338.032 345.277 337.885C345.144 337.739 344.981 337.62 344.798 337.535C344.616 337.45 344.417 337.402 344.214 337.392Z" fill="#263238"/>
<path d="M335.526 331.939C335.831 331.031 336.011 330.089 336.061 329.136C336.115 328.702 336.204 328.284 336.516 328.207C336.995 328.172 337.474 328.276 337.89 328.506L341.395 329.809C346.39 331.632 350.502 332.945 350.583 332.757C350.663 332.57 346.667 330.934 341.663 329.111L338.095 327.858C337.546 327.587 336.915 327.506 336.311 327.628C336.148 327.692 336.002 327.79 335.884 327.915C335.767 328.041 335.681 328.19 335.633 328.352C335.564 328.597 335.525 328.849 335.517 329.102C335.399 330.045 335.402 330.997 335.526 331.939V331.939Z" fill="#263238"/>
<path d="M356.069 338.917C355.623 339.07 355.837 340.621 355.596 342.376C355.355 344.131 354.829 345.605 355.23 345.835C355.426 345.946 355.846 345.69 356.283 345.111C356.812 344.34 357.145 343.462 357.255 342.546C357.365 341.63 357.249 340.702 356.916 339.837C356.639 339.181 356.283 338.857 356.069 338.917Z" fill="#263238"/>
<path d="M353.839 320.906C353.464 321.076 353.749 322.61 353.669 324.314C353.589 326.018 353.232 327.543 353.589 327.722C353.758 327.816 354.097 327.543 354.427 326.946C354.836 326.149 355.061 325.278 355.087 324.39C355.128 323.485 354.966 322.582 354.615 321.741C354.329 321.136 354.017 320.829 353.839 320.906Z" fill="#263238"/>
<path d="M342.697 356.485C342.787 356.681 345.07 364.204 337.033 363.949C328.996 363.693 330.932 356.034 331.164 356.025C331.396 356.017 342.697 356.485 342.697 356.485Z" fill="#FFBF9D"/>
<path d="M334.125 358.47C334.125 358.47 334.018 358.598 333.902 358.82C333.749 359.136 333.73 359.496 333.849 359.825C334.125 360.677 335.454 361.367 336.899 361.452C337.587 361.496 338.276 361.391 338.915 361.146C339.17 361.084 339.405 360.962 339.6 360.793C339.794 360.624 339.942 360.411 340.03 360.174C340.076 360.022 340.066 359.859 340.001 359.714C339.936 359.568 339.82 359.448 339.674 359.374C339.451 359.263 339.29 359.305 339.272 359.263C339.254 359.22 339.415 359.101 339.745 359.178C339.943 359.222 340.118 359.334 340.236 359.493C340.397 359.71 340.461 359.98 340.414 360.243C340.337 360.555 340.178 360.843 339.952 361.08C339.725 361.318 339.439 361.495 339.121 361.597C338.413 361.902 337.638 362.036 336.864 361.989C335.249 361.887 333.76 361.044 333.465 359.927C333.407 359.719 333.4 359.501 333.445 359.289C333.49 359.078 333.585 358.879 333.724 358.709C333.929 358.479 334.108 358.445 334.125 358.47Z" fill="#FF9A6C"/>
<path d="M366.71 304.794C367.168 304.965 367.539 305.298 367.745 305.723C368.098 306.647 368.187 307.644 368.004 308.611C367.834 311.594 368.532 314.564 370.02 317.191C371.686 318.489 373.24 319.914 374.667 321.451C378.048 325.098 380.322 328.054 381.303 331.019C382.579 334.862 382.731 341.132 381.357 344.932C379.983 348.732 376.415 351.995 372.214 352.234C373.998 354.551 373.695 357.814 372.374 360.387V360.456C371.045 363.335 367.647 364.775 364.427 365.423C361.207 366.07 357.808 366.198 354.855 367.587C354.24 367.885 353.5 368.226 352.902 367.894C352.688 367.743 352.526 367.533 352.438 367.293C352.351 367.053 352.341 366.793 352.411 366.547C352.565 366.059 352.823 365.607 353.17 365.218L350.618 366.028C350.511 364.942 350.673 363.847 351.091 362.833C348.323 362.088 345.603 361.186 342.947 360.132C343.045 358.905 343.045 357.763 342.385 356.954C341.493 355.846 339.709 355.25 340.53 353.589C340.949 352.737 342.929 352.08 343.893 351.885C350.262 350.385 356.894 350.214 363.338 351.382C364.787 350.245 365.997 348.858 366.906 347.292L366.773 347.412C368.146 344.378 369.538 340.928 368.236 337.861C367.228 335.484 364.846 333.958 362.991 332.093C361.277 330.378 359.946 328.349 359.077 326.129C358.207 323.909 357.818 321.544 357.933 319.176C354.65 318.776 349.985 318.708 346.703 318.324L352.179 316.058C352.59 315.87 352.991 315.717 353.393 315.572L353.517 315.521C354.18 315.306 354.829 315.056 355.462 314.771V314.771C355.18 314.384 355.053 313.912 355.105 313.443C355.156 312.974 355.383 312.537 355.743 312.214C356.103 311.891 356.573 311.702 357.066 311.682C357.56 311.662 358.045 311.812 358.432 312.105C358.784 312.395 359.085 312.738 359.324 313.119C358.965 312.707 358.723 312.214 358.623 311.687C358.523 311.16 358.568 310.617 358.754 310.111C358.96 309.608 359.333 309.184 359.817 308.903C360.301 308.623 360.867 308.503 361.43 308.56C361.804 308.631 362.152 308.794 362.44 309.033C362.728 309.272 362.946 309.579 363.071 309.924C363.065 308.532 363.494 307.171 364.302 306.013C364.828 305.169 365.72 304.454 366.71 304.794Z" fill="#263238"/>
<path d="M371.144 348.63C370.785 349.004 370.398 349.352 369.984 349.669C368.797 350.469 367.415 350.962 365.97 351.101C364.979 351.226 363.978 351.252 362.982 351.177C361.902 351.101 360.761 350.939 359.548 350.777C358.281 350.579 357.003 350.46 355.721 350.419C355.038 350.403 354.355 350.437 353.678 350.521C352.96 350.571 352.266 350.794 351.662 351.169C351.421 351.348 351.233 351.583 351.114 351.851C350.995 352.12 350.951 352.413 350.984 352.702C351.043 353.26 351.298 353.783 351.707 354.185C352.534 354.851 353.531 355.295 354.597 355.471V355.233C353.689 355.509 352.827 355.908 352.037 356.417C351.311 356.917 350.808 357.659 350.628 358.496C350.56 358.889 350.603 359.292 350.752 359.663C350.904 360.012 351.162 360.309 351.493 360.515C351.798 360.701 352.148 360.807 352.51 360.822C352.848 360.838 353.181 360.735 353.446 360.532L353.348 360.405C352.503 361.016 351.799 361.788 351.279 362.671C351.145 362.903 351.026 363.142 350.922 363.387C350.885 363.473 350.852 363.561 350.824 363.651C350.879 363.574 350.924 363.491 350.958 363.404C351.047 363.25 351.172 363.003 351.359 362.713C351.895 361.86 352.605 361.119 353.446 360.532L353.348 360.405C353.089 360.571 352.782 360.656 352.47 360.647C352.158 360.638 351.856 360.535 351.609 360.353C351.312 360.175 351.081 359.913 350.949 359.604C350.813 359.267 350.779 358.901 350.851 358.547C351.016 357.761 351.496 357.067 352.189 356.613C352.959 356.121 353.8 355.739 354.686 355.48L355.07 355.344L354.668 355.241C353.653 355.069 352.703 354.646 351.912 354.015C351.549 353.655 351.32 353.19 351.261 352.694C351.228 352.446 351.265 352.194 351.367 351.964C351.468 351.733 351.632 351.533 351.841 351.382C352.409 351.035 353.059 350.83 353.732 350.785C354.394 350.705 355.062 350.671 355.73 350.683C357 350.72 358.266 350.834 359.521 351.024C360.734 351.177 361.885 351.339 362.973 351.399C363.985 351.466 365.001 351.431 366.006 351.297C367.479 351.139 368.88 350.606 370.064 349.755C370.488 349.44 370.852 349.06 371.144 348.63V348.63Z" fill="#455A64"/>
<path d="M362.482 313.28L362.393 313.366C362.33 313.442 362.259 313.527 362.161 313.63C362.031 313.772 361.911 313.923 361.804 314.081C361.65 314.293 361.507 314.512 361.376 314.737C360.551 316.183 360.116 317.802 360.109 319.449C360.084 321.898 360.803 324.301 362.179 326.367C363.886 328.865 366.107 331.004 368.708 332.655C370.064 333.566 371.464 334.359 372.74 335.16C373.994 335.918 375.126 336.845 376.103 337.912C376.984 338.869 377.598 340.024 377.887 341.269C378.002 341.83 378.026 342.404 377.958 342.973C377.886 343.5 377.739 344.016 377.521 344.506C377.146 345.348 376.586 346.103 375.88 346.721C375.353 347.19 374.75 347.575 374.096 347.863C373.521 348.079 372.923 348.23 372.312 348.315H372.437H372.802C373.264 348.255 373.716 348.144 374.149 347.982C374.836 347.711 375.469 347.331 376.023 346.858C376.761 346.233 377.349 345.463 377.744 344.6C377.972 344.096 378.131 343.566 378.217 343.024C378.294 342.431 378.272 341.83 378.154 341.243C377.877 339.961 377.263 338.768 376.37 337.775C375.385 336.684 374.237 335.737 372.963 334.964C371.67 334.112 370.287 333.362 368.94 332.459C366.369 330.825 364.167 328.716 362.464 326.256C361.097 324.223 360.369 321.857 360.368 319.44C360.361 317.816 360.765 316.214 361.545 314.771C362.045 313.775 362.518 313.306 362.482 313.28Z" fill="#455A64"/>
<path d="M367.7 312.633C367.574 312.745 367.465 312.874 367.379 313.016C367.101 313.376 366.857 313.758 366.648 314.158C366.33 314.745 366.068 315.358 365.863 315.99C365.612 316.762 365.436 317.555 365.337 318.358C365.261 319.166 365.261 319.979 365.337 320.787C365.4 321.446 365.522 322.098 365.702 322.738C365.822 323.168 365.974 323.589 366.157 323.999C366.212 324.153 366.29 324.3 366.389 324.433C366.443 324.433 366.157 323.777 365.898 322.729C365.744 322.096 365.64 321.452 365.586 320.804C365.535 320.011 365.55 319.216 365.631 318.426C365.725 317.636 365.889 316.855 366.121 316.092C366.316 315.468 366.558 314.859 366.844 314.269C367.326 313.229 367.745 312.684 367.7 312.633Z" fill="#455A64"/>
<path d="M349.379 320.505C349.12 320.71 350.11 322.073 350.012 323.913C349.914 325.754 348.852 327.108 349.12 327.321C349.388 327.534 349.673 327.219 350.173 326.648C350.809 325.865 351.174 324.912 351.216 323.922C351.263 322.945 350.978 321.98 350.404 321.17C349.923 320.616 349.486 320.403 349.379 320.505Z" fill="#263238"/>
<path d="M344.722 321.408C344.309 321.406 343.911 321.556 343.612 321.828C343.313 322.099 343.135 322.471 343.117 322.865C343.1 323.058 343.123 323.253 343.186 323.437C343.249 323.621 343.35 323.791 343.483 323.937C343.617 324.083 343.779 324.203 343.961 324.288C344.143 324.373 344.341 324.422 344.544 324.433C344.958 324.44 345.359 324.291 345.659 324.019C345.959 323.746 346.136 323.372 346.15 322.976C346.167 322.783 346.143 322.589 346.08 322.405C346.017 322.221 345.916 322.05 345.783 321.904C345.65 321.758 345.487 321.639 345.305 321.554C345.123 321.469 344.925 321.419 344.722 321.408V321.408Z" fill="#263238"/>
<path d="M331.824 336.702C331.294 335.564 330.902 334.372 330.656 333.149C330.263 331.96 330.02 330.73 329.933 329.485C330.472 330.62 330.864 331.813 331.102 333.038C331.495 334.227 331.738 335.457 331.824 336.702Z" fill="#263238"/>
<path d="M295.555 194.571C296.326 194.654 297.061 194.927 297.687 195.364C297.923 195.558 298.115 195.795 298.253 196.061C298.391 196.328 298.471 196.618 298.49 196.914C298.49 196.914 301.799 199.189 301.166 200.697C301.166 200.697 303.539 203.253 303.405 204.514C303.371 204.855 303.26 205.184 303.078 205.478C302.896 205.773 302.648 206.025 302.352 206.218C302.352 206.218 304.475 206.968 303.414 209.37C302.352 211.773 292.977 216.681 292.977 216.681L293.798 223.693L284.941 225.576L294.2 199.283L295.555 194.571Z" fill="#FFBF9D"/>
<path d="M243.364 348.264C240.806 349.39 238.03 349.993 235.213 350.032C232.396 350.071 229.603 349.546 227.011 348.49C224.42 347.435 222.09 345.872 220.17 343.903C218.25 341.934 216.783 339.603 215.864 337.06C214.931 334.622 214.227 332.11 213.759 329.554C212.421 321.195 204.901 287.669 204.901 287.669L213.759 256.955L255.29 273.765C255.29 273.765 250.393 336.097 248.279 343.756C247.726 345.665 245.862 347.139 243.364 348.264Z" fill="#FF725E"/>
<path opacity="0.3" d="M205.9 292.236L210.86 291.273L213.313 275.588C213.571 273.937 214.302 272.386 215.427 271.108C216.551 269.83 218.024 268.874 219.682 268.346L220.279 268.15L227.737 310.034H252.168L253.328 297.527L225.141 261.564L210.869 263.268L205.9 292.236Z" fill="black"/>
<path d="M282.63 154.212L277.617 159.324L259.777 161.744C259.777 161.744 246.192 168.935 236.719 186.588C227.246 204.241 215.623 244.89 215.623 244.89L272.595 268.176L295.698 194.111L298.82 184.986L282.63 154.212Z" fill="#FF725E"/>
<path d="M274.54 270.007L213.643 245.828L213.161 246.841C213.161 246.841 197.569 273.765 195.955 291.307L204.875 296.351L209.531 276.508L212.011 267.826L219.825 263.455L223.972 307.197L277.492 302.741L274.54 270.007Z" fill="#FF725E"/>
<path d="M274.54 270.007C274.54 270.007 274.54 270.195 274.611 270.561C274.682 270.928 274.7 271.49 274.781 272.214C274.914 273.679 275.12 275.835 275.387 278.63C275.913 284.261 276.672 292.449 277.626 302.724V302.869H277.483L223.963 307.385H223.758V307.189C222.483 293.778 221.082 278.996 219.593 263.455L219.932 263.626L212.118 267.988L212.225 267.86C211.6 270.041 210.931 272.384 210.262 274.744C209.7 276.559 209.37 278.4 208.88 280.223C208.389 282.046 207.988 283.861 207.604 285.667L205.089 296.377L205.017 296.675L204.741 296.513L195.821 291.469L195.696 291.393V291.265C196.192 287.027 197.124 282.846 198.479 278.783C199.737 274.787 201.217 270.945 202.796 267.255C205.797 260.244 209.191 253.393 212.965 246.731V246.731L213.456 245.717L213.536 245.555L213.705 245.623L257.949 263.285L270.276 268.252L273.487 269.556L274.567 270.007C274.567 270.007 274.174 269.871 273.443 269.59L270.178 268.32L257.788 263.472L213.554 245.998L213.804 245.904L213.322 246.918C209.567 253.572 206.194 260.415 203.215 267.417C201.637 271.098 200.165 274.932 198.916 278.911C197.581 282.948 196.661 287.1 196.169 291.307L196.062 291.103L204.982 296.147L204.643 296.292C205.463 292.764 206.302 289.192 207.158 285.573C207.574 283.767 208 281.952 208.434 280.129C208.871 278.306 209.254 276.457 209.807 274.651L211.779 267.75V267.664L211.868 267.613L219.682 263.251L219.994 263.081V263.421C221.466 278.962 222.857 293.753 224.124 307.155L223.892 306.976L277.412 302.579L277.278 302.733C276.386 292.509 275.682 284.304 275.2 278.689C274.959 275.878 274.781 273.714 274.656 272.24C274.602 271.515 274.558 270.953 274.522 270.536C274.486 270.118 274.54 270.007 274.54 270.007Z" fill="#263238"/>
<path d="M273.184 263.37L217.648 237.972C215.739 240.255 213.643 244.533 211.93 248.588L273.478 276.508L273.184 263.37Z" fill="#263238"/>
<path d="M261.864 197.843C253.301 217.439 245.755 242.522 250.839 263.191L261.267 316.867L287.465 310.29L281.096 254.91L284.575 249.568L291.158 215.079L297.402 199.342L296.661 191.24" fill="#FF725E"/>
<path d="M296.67 191.257C296.67 191.257 296.67 191.436 296.742 191.777C296.813 192.117 296.831 192.629 296.902 193.327C297.036 194.708 297.232 196.735 297.482 199.359C295.966 203.202 293.869 208.553 291.283 215.113C289.499 224.485 287.304 236.149 284.753 249.61C283.683 251.263 282.488 253.087 281.283 254.952V254.833C283.165 271.106 285.351 289.978 287.688 310.171V310.367L287.501 310.409L274.513 313.672L261.356 317.063L261.115 317.123L261.062 316.884C257.806 300.066 254.729 284.168 251.937 269.786C251.25 266.19 250.581 262.689 249.867 259.289C249.349 255.972 249.084 252.623 249.073 249.27C249.074 243.265 249.671 237.274 250.857 231.378C252.577 222.917 255.039 214.609 258.216 206.542C260.446 200.859 261.882 197.817 261.882 197.817C261.882 197.817 261.811 198.013 261.659 198.397L260.964 200.101C260.348 201.583 259.465 203.773 258.377 206.627C255.266 214.701 252.853 223.004 251.161 231.454C250.002 237.325 249.422 243.287 249.43 249.261C249.453 252.598 249.728 255.93 250.251 259.23C250.964 262.638 251.633 266.114 252.338 269.701C255.139 284.082 258.234 299.981 261.508 316.808L261.222 316.637L274.442 313.315L287.429 310.06L287.251 310.298C284.941 290.106 282.791 271.226 280.909 254.918V254.85V254.791L284.396 249.457V249.517C286.983 236.064 289.24 224.374 291.033 215.036L297.33 199.368C297.107 196.735 296.938 194.716 296.822 193.336C296.768 192.663 296.724 192.143 296.697 191.785C296.67 191.427 296.67 191.257 296.67 191.257Z" fill="#263238"/>
<path d="M295.047 189.834C294.746 189.485 294.478 189.111 294.244 188.718C293.762 187.985 293.076 186.912 292.237 185.574C290.56 182.907 288.294 179.193 285.868 175.052C283.442 170.911 281.319 167.12 279.82 164.359C279.062 162.979 278.465 161.854 278.036 161.079C277.807 160.683 277.61 160.27 277.448 159.844C277.736 160.202 277.984 160.587 278.188 160.994C278.679 161.846 279.312 162.902 280.07 164.215L286.243 174.839L292.487 185.421C293.245 186.724 293.878 187.806 294.369 188.633C294.63 189.014 294.857 189.416 295.047 189.834V189.834Z" fill="#263238"/>
<path d="M262.667 186.341C262.528 186.039 262.421 185.725 262.346 185.404C262.168 184.799 261.945 183.913 261.695 182.848C260.391 177.113 259.707 171.267 259.652 165.399C259.652 164.274 259.652 163.363 259.697 162.732C259.688 162.406 259.721 162.08 259.795 161.761C259.867 162.08 259.897 162.406 259.884 162.732C259.884 163.456 259.947 164.342 259.982 165.39C260.072 167.631 260.268 170.724 260.66 174.123C261.053 177.523 261.552 180.573 262.016 182.78C262.212 183.81 262.391 184.68 262.525 185.395C262.615 185.703 262.663 186.021 262.667 186.341V186.341Z" fill="#263238"/>
<path d="M279.544 254.952C277.093 253.08 274.744 251.089 272.506 248.988C270.158 247.008 267.916 244.915 265.789 242.718C265.879 242.633 269.027 245.274 272.827 248.682C276.627 252.09 279.633 254.867 279.544 254.952Z" fill="#263238"/>
<path d="M294.512 193.83C293.482 192.523 292.319 191.316 291.042 190.226C287.921 187.616 283.954 186.112 279.809 185.966C275.663 185.82 271.592 187.042 268.278 189.425C266.923 190.424 265.671 191.546 264.541 192.773C264.588 192.666 264.651 192.566 264.728 192.475C264.871 192.296 265.049 192.015 265.343 191.691C266.146 190.738 267.065 189.88 268.082 189.135C271.438 186.658 275.589 185.366 279.829 185.48C284.071 185.686 288.109 187.28 291.265 189.996C292.213 190.8 293.06 191.707 293.789 192.697C293.997 192.968 294.184 193.253 294.351 193.549C294.418 193.635 294.472 193.73 294.512 193.83V193.83Z" fill="#263238"/>
<path opacity="0.3" d="M260.179 201.805C255.422 208.364 251.72 215.566 249.198 223.173C245.889 233.627 242.553 248.656 249.198 273.109C255.843 297.561 258.118 300.807 258.118 300.807C258.118 300.807 249.573 260.712 249.573 256.086C249.573 251.459 248.868 241.832 250.616 233.934C253.093 223.043 256.287 212.312 260.179 201.805V201.805Z" fill="black"/>
<path d="M315.768 354.117C315.768 354.117 315.661 354.015 315.491 353.81L314.787 352.89C314.189 352.081 313.288 350.939 312.111 349.542C310.933 348.144 309.569 346.525 307.936 344.787C306.304 343.049 304.368 341.235 302.317 339.437C298.736 336.366 294.852 333.632 290.721 331.275C289.133 330.38 287.822 329.681 286.903 329.23L285.85 328.685C285.726 328.627 285.609 328.555 285.502 328.472C285.502 328.472 285.645 328.472 285.895 328.608L286.983 329.076C287.929 329.477 289.267 330.133 290.89 331.002C295.093 333.294 299.028 336.007 302.629 339.096C304.603 340.804 306.481 342.61 308.257 344.506C309.881 346.27 311.272 347.914 312.369 349.346C313.467 350.777 314.332 351.902 314.885 352.754L315.527 353.716C315.624 353.84 315.705 353.975 315.768 354.117V354.117Z" fill="#263238"/>
<path d="M317.088 355.667C317.088 355.667 305.439 337.571 287.563 329.485C269.687 321.4 259.019 343.117 259.019 343.117L306.634 369.768L317.088 355.667Z" fill="#455A64"/>
<path d="M307.794 355.148C307.482 354.862 307.204 354.545 306.964 354.202C306.456 353.571 305.697 352.677 304.734 351.586C299.722 345.931 293.678 341.191 286.894 337.596C285.592 336.906 284.521 336.378 283.772 336.029C283.376 335.864 282.997 335.664 282.639 335.432C283.056 335.544 283.462 335.689 283.852 335.867C284.628 336.174 285.717 336.668 287.046 337.324C290.505 339.05 293.769 341.111 296.786 343.475C299.803 345.841 302.562 348.493 305.019 351.39C305.911 352.506 306.67 353.435 307.133 354.1C307.384 354.431 307.605 354.781 307.794 355.148V355.148Z" fill="#263238"/>
<g opacity="0.3">
<path opacity="0.3" d="M264.326 337.886C266.017 339.759 268.018 341.353 270.249 342.606C271.369 343.225 272.606 343.627 273.889 343.788C275.172 343.949 276.475 343.866 277.724 343.543C279.776 342.93 281.497 341.482 283.594 340.987C286.189 340.399 288.883 341.396 291.22 342.615C293.531 343.856 296.028 344.75 298.624 345.264C290.034 337.077 277.894 332.74 265.754 332.484C264.222 332.354 262.682 332.619 261.294 333.251C259.67 334.154 258.778 335.892 258.02 337.511C255.723 342.477 253.704 347.557 251.972 352.728C251.502 353.708 251.438 354.823 251.794 355.846C252.347 356.928 253.703 357.346 254.916 357.635C265.62 360.191 277.51 361.631 288.509 360.481C285.589 357.318 281.921 354.865 277.81 353.327C273.699 351.789 269.263 351.21 264.871 351.637C263.604 351.774 257.645 353.605 257.146 352.489C256.914 351.961 257.984 349.448 258.181 348.902C259.956 343.978 261.793 340.391 264.326 337.886Z" fill="black"/>
</g>
<path d="M282.764 311.457L281.096 319.815C283.041 320.94 285.681 322.49 286.867 323.291C288.883 324.655 289.98 330.636 289.98 330.636L285.003 328.267L284.432 329.775C284.432 329.775 289.035 338.295 285.003 339.803L282.282 339.241C282.282 339.241 282.282 341.277 278.135 339.803C278.135 339.803 276.948 341.66 273.871 340.34C273.871 340.34 273.282 340.817 271.855 340.144C270.428 339.471 264.398 335.168 264.398 335.168V330.269V316.066C263.541 316.092 282.764 311.457 282.764 311.457Z" fill="#AE7461"/>
<path d="M277.84 331.224C277.84 331.266 277.528 331.224 277.162 330.908C276.679 330.523 276.346 329.992 276.218 329.403C276.09 328.813 276.174 328.2 276.458 327.662C276.672 327.262 276.904 327.083 276.957 327.117C276.695 327.821 276.598 328.571 276.672 329.315C276.939 330.525 277.929 331.121 277.84 331.224Z" fill="#6F4439"/>
<path d="M282.764 339.88C281.202 338.084 280.061 335.99 279.419 333.737C280.093 334.699 280.675 335.717 281.158 336.779C281.788 337.765 282.325 338.803 282.764 339.88V339.88Z" fill="#6F4439"/>
<path d="M284.432 329.554C284.307 329.554 284.432 328.829 284.682 328.011C284.932 327.194 285.253 326.563 285.378 326.597C285.502 326.631 285.378 327.321 285.128 328.139C284.878 328.957 284.548 329.588 284.432 329.554Z" fill="#6F4439"/>
<path d="M274.674 335.092C274.674 335.143 274.254 335.092 273.701 334.725C272.986 334.268 272.427 333.621 272.093 332.864C271.758 332.107 271.663 331.273 271.819 330.465C271.944 329.852 272.158 329.528 272.212 329.545C271.974 330.598 272.083 331.695 272.524 332.687C272.965 333.678 273.715 334.515 274.674 335.083V335.092Z" fill="#6F4439"/>
<path d="M278.233 340.016C278.143 340.093 277.341 339.377 276.609 338.363C276.082 337.786 275.696 337.106 275.476 336.37C275.583 336.301 276.226 337.102 276.984 338.074C277.514 338.648 277.937 339.305 278.233 340.016V340.016Z" fill="#6F4439"/>
<path d="M270.624 335.875C270.624 335.927 270.232 335.875 269.732 335.577C269.057 335.17 268.528 334.575 268.216 333.873C267.904 333.181 267.823 332.413 267.984 331.675C268.109 331.113 268.323 330.823 268.376 330.823C268.142 331.779 268.235 332.781 268.642 333.683C269.048 334.584 269.746 335.338 270.633 335.833L270.624 335.875Z" fill="#6F4439"/>
<path d="M274.281 340.391C274.174 340.468 273.389 339.735 272.56 338.755C271.979 338.206 271.516 337.555 271.195 336.838C271.293 336.761 272.087 337.494 272.916 338.474C273.491 339.027 273.954 339.677 274.281 340.391V340.391Z" fill="#6F4439"/>
<path d="M286.849 311.065C287.206 311.372 281.096 315.768 281.096 315.768C281.096 315.768 276.208 320.437 273.585 321.136C270.598 322.092 267.712 323.319 264.969 324.799L256.049 342.265L236.71 337.562L253.087 315.709C253.235 313.418 253.551 311.141 254.033 308.893C254.621 306.967 261.615 297.016 262.676 296.113C263.738 295.209 265.049 294.298 266.467 294.749C267.885 295.201 267.662 298.157 267.662 298.157C267.662 298.157 270.142 297.817 271.23 298.268C272.319 298.72 272.533 301.097 272.533 301.097C272.974 300.927 273.451 300.858 273.925 300.896C274.399 300.935 274.857 301.079 275.262 301.318C275.71 301.484 276.09 301.783 276.346 302.171C276.601 302.56 276.719 303.017 276.681 303.474C277.2 303.211 277.786 303.093 278.373 303.132C278.959 303.171 279.523 303.366 279.999 303.695C280.515 304.05 280.92 304.533 281.17 305.091C281.42 305.65 281.506 306.263 281.417 306.865L277.037 313.025L279.437 312.215C279.437 312.215 284.432 309.012 286.849 311.065Z" fill="#FFBF9D"/>
<path d="M277.171 306.984C276.77 306.677 276.35 306.392 275.914 306.132C274.773 305.547 273.439 305.41 272.194 305.749L271.944 305.817V305.57C271.885 305.064 271.689 304.581 271.375 304.169C271.061 303.758 270.64 303.432 270.154 303.223C269.668 303.014 269.133 302.929 268.602 302.978C268.071 303.026 267.563 303.206 267.127 303.499L266.851 303.687L266.788 303.372C266.665 302.751 266.333 302.185 265.843 301.761C265.46 301.414 265 301.154 264.496 301.003C264.039 300.888 263.568 300.831 263.095 300.833C263.095 300.833 263.22 300.765 263.47 300.713C263.836 300.666 264.208 300.683 264.567 300.765C265.124 300.895 265.64 301.149 266.075 301.506C266.653 301.966 267.053 302.599 267.208 303.303L266.878 303.176C267.371 302.829 267.951 302.614 268.56 302.553C269.168 302.491 269.783 302.584 270.342 302.823C270.9 303.062 271.383 303.438 271.739 303.913C272.096 304.388 272.314 304.945 272.372 305.527L272.096 305.357C272.763 305.181 273.461 305.139 274.146 305.234C274.831 305.33 275.487 305.56 276.074 305.911C276.895 306.464 277.207 306.967 277.171 306.984Z" fill="#FF9A6C"/>
<path d="M277.189 303.423C277.251 303.533 276.814 303.857 276.297 304.275C275.78 304.692 275.343 304.999 275.244 304.914C275.146 304.829 275.45 304.351 276.012 303.934C276.574 303.516 277.135 303.312 277.189 303.423Z" fill="#FF9A6C"/>
<path d="M272.595 300.517C272.693 300.594 272.461 301.037 272.069 301.506C271.677 301.974 271.284 302.29 271.177 302.213C271.07 302.136 271.32 301.693 271.703 301.225C272.087 300.756 272.488 300.441 272.595 300.517Z" fill="#FF9A6C"/>
<path d="M267.868 298.149C267.966 298.226 267.698 298.703 267.27 299.214C266.842 299.725 266.378 300.066 266.316 300.006C266.253 299.947 266.476 299.452 266.904 298.941C267.333 298.43 267.77 298.072 267.868 298.149Z" fill="#FF9A6C"/>
<path d="M274.326 317.728C274.426 316.862 274.731 316.029 275.218 315.291C275.588 314.488 276.142 313.774 276.841 313.204C276.528 314.009 276.121 314.778 275.628 315.496C275.281 316.283 274.844 317.032 274.326 317.728V317.728Z" fill="#FF9A6C"/>
<path d="M284.905 357.039C284.905 357.039 279.901 356.332 276.877 356.187C268.314 355.778 256.227 355.667 256.227 355.667L261.267 338.193L263.693 330.789L221.974 328.761C222.402 329.971 214.473 370.765 220.386 378.74C226.3 386.714 242.553 388.563 251.348 388.768C257.485 388.912 275.753 388.359 286.252 388.018C289.442 387.93 292.571 387.159 295.407 385.761C298.243 384.363 300.715 382.374 302.638 379.941C304.02 378.16 304.984 376.303 304.921 374.599" fill="#455A64"/>
<path d="M304.921 374.599C304.945 374.8 304.945 375.003 304.921 375.204C304.866 375.788 304.725 376.361 304.502 376.908C303.565 379.008 302.172 380.896 300.417 382.446C296.822 385.711 292.167 387.704 287.224 388.094C286.047 388.18 284.842 388.188 283.603 388.239L275.717 388.503C270.196 388.665 264.121 388.853 257.645 388.946C254.398 388.989 251.027 389.032 247.557 388.785C243.994 388.554 240.453 388.085 236.96 387.379C233.272 386.65 229.705 385.45 226.354 383.809C224.638 382.915 223.059 381.8 221.662 380.495C221.317 380.152 220.992 379.791 220.69 379.413L220.208 378.859L219.825 378.228C219.591 377.802 219.389 377.36 219.218 376.908C219.084 376.439 218.915 375.988 218.817 375.519C218.075 371.7 217.803 367.811 218.005 363.932C218.112 360.004 218.415 356.025 218.826 352.004C219.236 347.982 219.718 344.055 220.262 340.169C220.538 338.227 220.806 336.31 221.082 334.401C221.216 333.447 221.35 332.493 221.484 331.556L221.671 330.141L221.742 329.443C221.754 329.236 221.754 329.028 221.742 328.821V328.523H221.992L263.702 330.576H263.952L263.88 330.806C263.101 333.152 262.352 335.424 261.633 337.622C260.946 339.846 260.348 342.01 259.733 344.089L256.37 355.659L256.227 355.48C265.272 355.727 272.461 355.906 277.376 356.085C282.291 356.494 284.905 356.988 284.905 356.988C284.905 356.988 284.735 356.988 284.414 356.937L282.969 356.766C281.703 356.63 279.82 356.392 277.367 356.238L256.227 355.761H256.004L256.058 355.591C257.066 352.046 258.181 348.178 259.367 344.003C259.973 341.925 260.562 339.743 261.249 337.537C261.936 335.33 262.712 333.038 263.479 330.721L263.657 330.959L221.93 328.957L222.162 328.667C222.194 328.934 222.194 329.202 222.162 329.468L222.09 330.184L221.903 331.598L221.502 334.452C221.234 336.361 220.957 338.278 220.681 340.221C220.155 344.097 219.655 348.042 219.254 352.038C218.852 356.034 218.54 360.013 218.424 363.966C218.223 367.808 218.489 371.659 219.218 375.442C219.325 375.902 219.486 376.337 219.61 376.788C219.769 377.222 219.963 377.644 220.19 378.049L220.547 378.637L221.002 379.174C221.296 379.538 221.611 379.885 221.948 380.213C223.309 381.497 224.853 382.593 226.532 383.468C229.848 385.089 233.376 386.278 237.022 387.004C240.495 387.712 244.015 388.188 247.557 388.427C251 388.674 254.354 388.64 257.601 388.606C264.095 388.52 270.151 388.359 275.673 388.214L283.558 387.984C284.798 387.941 286.011 387.933 287.126 387.856C288.252 387.769 289.37 387.604 290.471 387.362C294.129 386.551 297.496 384.828 300.229 382.369C301.983 380.842 303.389 378.985 304.359 376.916C304.59 376.37 304.743 375.797 304.814 375.212C304.921 374.803 304.904 374.599 304.921 374.599Z" fill="#263238"/>
<path d="M244.506 364.008C244.506 363.932 245.398 363.881 246.852 363.548C248.713 363.128 250.492 362.43 252.124 361.478C253.021 360.954 253.867 360.353 254.648 359.68C255.311 359.178 255.847 358.54 256.218 357.814C256.444 357.322 256.509 356.775 256.405 356.247C256.316 355.88 256.191 355.693 256.227 355.667C256.263 355.642 256.432 355.812 256.575 356.204C256.755 356.762 256.737 357.362 256.521 357.908C256.172 358.702 255.631 359.405 254.942 359.961C252.702 361.949 249.919 363.29 246.915 363.83C246.325 363.932 245.729 363.995 245.131 364.017C244.738 364.051 244.506 364.043 244.506 364.008Z" fill="#263238"/>
<path d="M258.85 376.695C258.778 376.695 258.85 375.766 258.85 374.292C258.85 370.43 257.983 366.612 256.307 363.097C255.665 361.751 255.192 360.95 255.255 360.916C255.799 361.535 256.253 362.223 256.602 362.96C258.463 366.467 259.351 370.372 259.18 374.301C259.186 375.109 259.075 375.915 258.85 376.695V376.695Z" fill="#263238"/>
<path d="M302.647 370.535C302.566 370.535 302.228 369.683 301.416 368.413C300.938 367.669 300.398 366.962 299.801 366.3C299.056 365.504 298.244 364.766 297.375 364.094C295.773 362.886 294.045 361.838 292.219 360.967C291.441 360.636 290.685 360.26 289.954 359.842C290.79 360.029 291.599 360.316 292.362 360.694C294.262 361.491 296.046 362.519 297.669 363.753C298.56 364.443 299.381 365.21 300.122 366.045C300.721 366.733 301.25 367.475 301.701 368.26C302.009 368.786 302.268 369.336 302.477 369.904C302.62 370.296 302.682 370.526 302.647 370.535Z" fill="#263238"/>
</svg>
