<svg width="558" height="524" viewBox="0 0 558 524" fill="none" xmlns="http://www.w3.org/2000/svg">
<path d="M441.188 438.064C428.667 435.381 415.252 432.74 403.244 437.016C394.64 440.16 387.877 446.448 380.266 451.311C366.769 459.92 350.603 464.061 334.32 463.08C309.255 461.497 286.466 447.926 261.434 445.872C239.114 444.027 217.274 451.468 195.758 457.347C157.069 467.89 117.078 473.633 76.8031 474.43L57.7642 494.258C58.9806 502.967 70.308 507.421 79.5262 506.184C88.7443 504.947 96.9023 499.896 105.696 496.899C140.292 485.193 180.212 506.331 214.852 494.729C232.987 488.672 247.886 474.094 267.048 472.428C284.044 470.95 299.746 480.036 316.007 484.91C329.538 488.862 343.827 489.986 357.87 488.201C371.914 486.415 385.37 481.765 397.296 474.576C405.845 469.336 413.735 462.723 423.5 459.957C437.148 456.079 451.667 460.397 465.696 462.744C488.897 466.604 512.754 465.016 535.144 458.123L441.188 438.064Z" fill="#E0E0E0"/>
<path d="M542.644 225.991H14.1956V280.728H542.644V225.991Z" fill="#EBEBEB"/>
<path d="M149.153 23.7791H88.0078V120.436H149.153V23.7791Z" fill="#F5F5F5"/>
<path d="M85.9431 23.7791H36.1807V120.436H85.9431V23.7791Z" fill="#F5F5F5"/>
<path d="M270.463 23.7791H216.727V120.436H270.463V23.7791Z" fill="#F5F5F5"/>
<path d="M85.9431 122.165H36.1807V209.265H85.9431V122.165Z" fill="#F5F5F5"/>
<path d="M149.153 122.165H88.0078V209.265H149.153V122.165Z" fill="#F5F5F5"/>
<path d="M270.463 122.165H216.727V209.265H270.463V122.165Z" fill="#F5F5F5"/>
<path d="M214.663 122.165H156.597V209.265H214.663V122.165Z" fill="#F5F5F5"/>
<path d="M214.663 23.7791H156.597V120.436H214.663V23.7791Z" fill="#F5F5F5"/>
<path d="M408.099 27.4261H346.953V124.083H408.099V27.4261Z" fill="#F5F5F5"/>
<path d="M344.889 27.4261H295.126V124.083H344.889V27.4261Z" fill="#F5F5F5"/>
<path d="M529.408 27.4261H475.673V124.083H529.408V27.4261Z" fill="#F5F5F5"/>
<path d="M344.889 125.802H295.126V212.901H344.889V125.802Z" fill="#F5F5F5"/>
<path d="M408.099 125.802H346.953V212.901H408.099V125.802Z" fill="#F5F5F5"/>
<path d="M529.408 125.802H475.673V212.901H529.408V125.802Z" fill="#F5F5F5"/>
<path d="M473.608 125.802H415.542V212.901H473.608V125.802Z" fill="#F5F5F5"/>
<path d="M473.608 27.4261H415.542V124.083H473.608V27.4261Z" fill="#F5F5F5"/>
<path d="M261.144 288.577C261.144 288.577 261.144 289.049 261.144 289.95C261.144 290.851 261.144 292.193 261.144 293.954C261.144 297.485 261.144 302.704 261.144 309.464C261.144 322.983 261.211 342.696 261.256 367.502L261.066 367.324L529.297 367.23L529.006 367.502V288.577L529.297 288.839L337.434 288.724L281.333 288.64H266.278H262.383H261.044H262.338H266.211H281.199L337.233 288.567L529.297 288.452H529.576V288.714C529.576 313.719 529.576 340.296 529.576 367.638V367.911H529.263L261.144 367.68H260.954V367.502C260.954 342.644 261.032 322.899 261.055 309.359C261.055 302.61 261.055 297.412 261.055 293.891C261.055 292.141 261.055 290.81 261.055 289.908C261.055 289.007 261.144 288.577 261.144 288.577Z" fill="#E0E0E0"/>
<path d="M27.7438 288.577C27.7438 288.577 27.7438 289.059 27.7438 289.971C27.7438 290.883 27.7438 292.266 27.7438 294.048C27.7438 297.632 27.7438 302.914 27.7996 309.715C27.7996 323.339 27.8554 343.021 27.9 367.502L27.6992 367.313L243.545 367.23L243.255 367.502C243.255 339.908 243.255 313.237 243.255 288.577L243.534 288.839L88.8225 288.713L43.8923 288.64H31.8618H28.7482H27.6322H28.6701H31.7502H43.7249L88.5881 288.567L243.489 288.441H243.768V288.703C243.768 313.362 243.768 340.055 243.768 367.628V367.9H243.467L27.621 367.817H27.4202V367.628C27.476 343.105 27.5094 323.36 27.5318 309.726C27.5318 302.945 27.5318 297.684 27.5318 294.111C27.5318 292.34 27.5318 290.967 27.5318 290.065C27.5318 289.164 27.7438 288.577 27.7438 288.577Z" fill="#E0E0E0"/>
<path d="M535.368 377.186C535.368 377.343 420.765 377.458 279.435 377.458C138.105 377.458 23.436 377.343 23.436 377.186C23.436 377.028 138.005 376.913 279.391 376.913C420.777 376.913 535.368 377.039 535.368 377.186Z" fill="#263238"/>
<path d="M205.344 485.737C204.768 485.584 204.205 485.392 203.659 485.161C202.599 484.742 201.036 484.186 199.094 483.558C197.152 482.929 194.809 482.258 192.175 481.629C186.45 480.298 180.584 479.574 174.687 479.47C171.964 479.47 169.52 479.471 167.467 479.638C165.413 479.806 163.762 479.932 162.612 480.078C162.022 480.175 161.425 480.227 160.827 480.236C161.398 480.065 161.984 479.942 162.579 479.869C163.695 479.659 165.38 479.45 167.433 479.261C169.844 479.044 172.266 478.946 174.687 478.967C177.673 478.998 180.654 479.191 183.615 479.544C186.558 479.921 189.475 480.453 192.354 481.137C194.7 481.725 197.013 482.425 199.284 483.233C201.215 483.914 202.755 484.532 203.748 485.004C204.301 485.207 204.834 485.452 205.344 485.737V485.737Z" fill="#263238"/>
<path d="M218.033 479.313C218.033 479.397 216.426 478.747 213.803 478.014C210.373 477.054 206.832 476.487 203.257 476.327C199.683 476.185 196.103 476.456 192.599 477.133C189.91 477.647 188.292 478.181 188.258 478.066C188.61 477.878 188.985 477.731 189.374 477.626C190.399 477.275 191.446 476.984 192.51 476.756C199.596 475.154 207.019 475.462 213.926 477.647C214.965 477.965 215.983 478.343 216.973 478.779C217.354 478.904 217.712 479.084 218.033 479.313V479.313Z" fill="#263238"/>
<path d="M70.0736 495.159C70.0736 495.253 68.2768 494.813 65.3752 494.321C61.596 493.674 57.7661 493.323 53.9251 493.273C50.0842 493.232 46.2465 493.495 42.4526 494.059C39.5399 494.488 37.7543 494.887 37.7319 494.792C38.125 494.624 38.5368 494.498 38.9595 494.415C39.7519 494.195 40.9237 493.943 42.3857 493.671C50.0176 492.329 57.8567 492.414 65.4534 493.922C66.9042 494.226 68.0648 494.509 68.8572 494.74C69.2775 494.838 69.6853 494.979 70.0736 495.159V495.159Z" fill="#263238"/>
<path d="M387.062 479.47C387.062 479.565 385.243 478.915 382.263 478.234C380.516 477.832 378.747 477.524 376.962 477.312C374.782 477.058 372.586 476.939 370.389 476.955C368.193 476.988 366.002 477.149 363.827 477.437C362.048 477.692 360.285 478.042 358.548 478.485C355.58 479.229 353.817 479.911 353.772 479.816C354.153 479.588 354.562 479.402 354.988 479.261C356.113 478.815 357.265 478.43 358.437 478.108C360.176 477.623 361.947 477.241 363.738 476.966C365.954 476.638 368.191 476.456 370.434 476.421C372.673 476.414 374.91 476.551 377.13 476.829C378.925 477.078 380.703 477.428 382.453 477.877C383.63 478.166 384.789 478.515 385.924 478.925C386.322 479.071 386.703 479.254 387.062 479.47Z" fill="#263238"/>
<path d="M490.66 455.67C490.66 455.754 488.92 455.828 486.13 456.121C482.496 456.489 478.894 457.091 475.349 457.924C471.799 458.76 468.316 459.828 464.926 461.12C462.325 462.105 460.752 462.807 460.707 462.723C461.03 462.486 461.382 462.286 461.756 462.126C462.448 461.77 463.475 461.298 464.769 460.764C471.519 457.954 478.733 456.252 486.096 455.733C487.502 455.639 488.652 455.597 489.444 455.608C489.851 455.576 490.26 455.597 490.66 455.67V455.67Z" fill="#263238"/>
<path d="M496.709 454.832C496.104 454.875 495.496 454.875 494.89 454.832L489.946 454.622C485.772 454.444 480.003 454.224 473.641 454.339C468.208 454.413 462.787 454.833 457.415 455.597C456.377 455.723 455.451 455.901 454.636 456.037C453.821 456.173 453.118 456.299 452.549 456.425C451.962 456.564 451.366 456.662 450.763 456.718C451.325 456.497 451.908 456.328 452.504 456.215C453.062 456.069 453.754 455.901 454.569 455.744C455.384 455.587 456.31 455.377 457.348 455.209C462.727 454.331 468.171 453.855 473.63 453.784C480.014 453.669 485.795 453.952 489.969 454.224C492.055 454.36 493.741 454.497 494.901 454.601C495.51 454.63 496.115 454.707 496.709 454.832V454.832Z" fill="#263238"/>
<path d="M80.352 459.831L71.9485 462.409C69.0668 461.883 66.0825 462.201 63.3999 463.321C57.0945 465.951 55.0299 466.706 47.9991 466.674C46.6586 466.654 45.3321 466.933 44.1291 467.489C42.9261 468.045 41.881 468.861 41.0799 469.871C38.156 473.644 38.781 478.8 39.8077 483.348C40.6 486.817 41.6491 490.412 44.8185 492.696C46.1876 493.722 47.9304 494.204 49.6731 494.038C54.1371 493.545 55.1973 489.091 58.1994 486.702C62.5993 483.093 67.7932 480.442 73.4104 478.936C75.8991 478.202 90.3402 479.072 90.3402 479.072L80.352 459.831Z" fill="#FFBF9D"/>
<path d="M44.3943 473.696C44.7402 473.677 45.0861 473.732 45.4066 473.855C45.7272 473.978 46.0143 474.168 46.2469 474.409C46.542 474.663 46.7799 474.97 46.9467 475.312C47.1134 475.654 47.2056 476.024 47.2178 476.4C47.2328 476.889 47.1231 477.374 46.8979 477.815C46.6728 478.256 46.3386 478.641 45.9233 478.936L45.7001 478.496C47.4076 477.993 49.3271 479.47 49.4498 481.294C49.4544 482.035 49.2917 482.768 48.9724 483.446C48.653 484.123 48.1844 484.729 47.5973 485.224L47.441 484.794C48.5278 484.961 49.5014 485.522 50.1529 486.356C50.6424 487.008 50.893 487.791 50.8672 488.588C50.8557 489.094 50.7261 489.591 50.4877 490.045C50.3203 490.359 50.1752 490.495 50.1529 490.485C50.4047 489.88 50.5371 489.237 50.5435 488.588C50.51 487.778 50.1742 487.004 49.5948 486.402C49.0155 485.801 48.2294 485.41 47.3741 485.297L46.8495 485.234L47.2178 484.868C47.7363 484.412 48.1502 483.862 48.4342 483.251C48.7182 482.641 48.8664 481.982 48.8695 481.315C48.7914 479.806 47.1397 478.559 45.8451 478.947L44.2493 479.429L45.6219 478.506C45.9641 478.258 46.2422 477.941 46.4354 477.578C46.6287 477.215 46.7321 476.816 46.7379 476.41C46.7391 475.744 46.4674 475.102 45.9791 474.618C45.5284 474.206 44.9876 473.892 44.3943 473.696V473.696Z" fill="#FF725E"/>
<path d="M131.241 427.322L120.148 448.041L109.368 468.739C108.978 469.485 108.29 470.056 107.454 470.327C106.617 470.598 105.7 470.547 104.904 470.185L60.4871 448.701C59.9933 448.451 59.5673 448.097 59.2417 447.668C58.9162 447.238 58.6999 446.744 58.6093 446.224C58.5188 445.704 58.5565 445.171 58.7195 444.667C58.8825 444.162 59.1665 443.7 59.5497 443.314C59.879 442.979 60.2855 442.719 60.738 442.554C61.1905 442.389 61.6772 442.323 62.1611 442.361C66.1006 442.57 97.6611 441.124 97.6611 441.124L104.904 410.25L131.241 427.322Z" fill="#FFBF9D"/>
<path d="M469.668 441.072C469.668 441.072 470.427 451.112 474.981 453.48C479.534 455.848 491.297 453.249 494.712 453.48C498.126 453.711 509.521 461.193 519.386 461.193C523.582 461.193 526.484 461.036 528.437 460.858C528.977 460.808 529.497 460.645 529.961 460.38C530.425 460.116 530.819 459.758 531.116 459.331C531.412 458.905 531.603 458.422 531.675 457.917C531.746 457.412 531.696 456.899 531.528 456.414C530.848 454.507 529.464 451.636 525.848 451.332C517.299 450.598 513.315 447.381 513.315 447.381C509.819 444.034 506.115 440.884 502.222 437.949C498.216 435.245 487.123 426.421 487.123 426.421L469.668 441.072Z" fill="#AE7461"/>
<path d="M343.728 298.135C343.728 298.418 445.663 336.314 446.802 337.383C447.94 338.452 500.861 430.655 500.861 430.655L459.569 444.541L408.835 375.918L402.229 375.446C402.229 375.446 336.016 352.935 336.318 351.866C336.619 350.797 343.728 298.135 343.728 298.135Z" fill="#FF725E"/>
<path d="M422.585 355.733C422.099 356.823 421.521 357.875 420.855 358.877C419.739 360.753 418.109 363.321 416.301 366.15C414.494 368.98 412.842 371.516 411.614 373.35C411.014 374.359 410.331 375.323 409.572 376.232C410.062 375.142 410.644 374.091 411.313 373.088C412.429 371.212 414.047 368.644 415.855 365.815C417.663 362.985 419.315 360.449 420.542 358.626C421.148 357.616 421.83 356.65 422.585 355.733V355.733Z" fill="#263238"/>
<path opacity="0.3" d="M381.493 312.503V328.475L402.229 375.446L386.337 370.007L368.202 317.722L372.097 308.929L381.493 312.503Z" fill="black"/>
<path d="M85.4074 413.143C85.4074 412.095 122.671 333.432 129.411 327.772C136.152 322.113 147.156 318.77 161.351 325.435C172.321 330.592 215.276 356.31 234.248 367.733L243.332 373.224L256.1 443.105L229.494 473.413L92.148 485.738L75.1067 453.082L148.551 442.916L170.223 438.41C170.223 438.41 175.19 432.751 180.156 431.745C185.122 430.738 186.55 433.411 186.55 433.411L204.295 416.517L153.896 385.255C153.896 385.255 137.268 431.776 131.9 432.415C126.532 433.055 85.4074 413.143 85.4074 413.143Z" fill="#455A64"/>
<g opacity="0.3">
<path opacity="0.3" d="M231.012 365.888C229.383 377.27 227.664 389.133 228.278 400.598C228.892 412.063 231.916 423.654 238.88 433.086C240.409 435.182 242.161 437.194 242.964 439.615C245.062 446.039 231.012 464.945 231.012 471.6L254.448 443.063L248.555 423.685L238.009 369.965L231.012 365.888Z" fill="black"/>
</g>
<path d="M136.632 359.464C136.863 359.792 137.054 360.144 137.201 360.512C137.513 361.225 137.993 362.252 138.585 363.499C140.15 366.765 141.897 369.952 143.819 373.046C145.759 376.128 147.875 379.108 150.158 381.975C151.039 383.075 151.754 383.966 152.256 384.574C152.546 384.871 152.793 385.202 152.992 385.559C152.659 385.308 152.356 385.023 152.088 384.71C151.53 384.144 150.749 383.296 149.856 382.216C145.066 376.576 141.151 370.328 138.228 363.656C137.681 362.377 137.268 361.329 137.011 360.596C136.838 360.234 136.711 359.854 136.632 359.464V359.464Z" fill="#263238"/>
<path d="M149.388 349.76C149.555 349.76 150.615 357.777 151.776 367.701C152.936 377.626 153.74 385.706 153.573 385.716C153.405 385.727 152.356 377.699 151.195 367.764C150.035 357.829 149.231 349.77 149.388 349.76Z" fill="#263238"/>
<path d="M236.971 428.401C236.882 428.475 235.587 426.945 233.065 424.901C231.587 423.708 230.013 422.626 228.356 421.663C226.313 420.51 224.17 419.521 221.95 418.707C219.715 417.926 217.411 417.33 215.064 416.926C213.147 416.612 211.207 416.437 209.261 416.402C205.913 416.402 203.871 416.695 203.86 416.591C204.323 416.447 204.802 416.356 205.288 416.318C205.852 416.218 206.422 416.155 206.996 416.129C207.737 416.06 208.482 416.025 209.228 416.025C211.201 416 213.172 416.137 215.12 416.433C217.509 416.815 219.856 417.404 222.129 418.194C224.384 419.015 226.552 420.036 228.601 421.244C230.27 422.232 231.843 423.358 233.3 424.608C233.87 425.081 234.413 425.581 234.929 426.106C235.325 426.484 235.698 426.883 236.045 427.301C236.394 427.637 236.704 428.005 236.971 428.401V428.401Z" fill="#263238"/>
<path d="M208.368 444.687C207.779 444.705 207.189 444.674 206.605 444.593L201.795 444.184C197.744 443.849 192.13 443.472 185.925 443.294C179.721 443.115 174.085 443.157 170.011 443.294L165.19 443.419C164.6 443.471 164.006 443.471 163.416 443.419C163.997 443.311 164.587 443.244 165.179 443.22C166.295 443.115 167.958 443.011 170 442.916C174.074 442.717 179.709 442.612 185.937 442.791C192.164 442.969 197.789 443.409 201.84 443.838C203.871 444.048 205.5 444.247 206.627 444.415C207.215 444.46 207.797 444.551 208.368 444.687V444.687Z" fill="#263238"/>
<path d="M216.37 471.6C216.27 471.6 216.649 470.363 216.95 468.351C217.771 463.104 217.042 457.746 214.841 452.862C214.004 450.996 213.312 449.906 213.402 449.854C213.491 449.802 213.636 450.095 213.971 450.567C214.436 451.239 214.854 451.939 215.221 452.663C217.674 457.562 218.424 463.061 217.363 468.383C217.209 469.181 216.996 469.969 216.727 470.741C216.504 471.359 216.415 471.652 216.37 471.6Z" fill="#263238"/>
<path d="M225.599 387.959C225.722 388.043 221.47 393.304 216.102 399.697C210.734 406.09 206.27 411.225 206.136 411.109C206.002 410.994 210.266 405.754 215.645 399.361C221.024 392.969 225.432 387.865 225.599 387.959Z" fill="#263238"/>
<g opacity="0.3">
<path opacity="0.3" d="M138.317 363.52C137.36 368.522 138.372 373.68 141.163 378.035C143.87 382.331 148.176 385.534 153.249 387.026L153.573 386.146C147.1 379.627 142.324 371.757 138.317 363.52Z" fill="black"/>
</g>
<g opacity="0.3">
<path opacity="0.3" d="M169.855 438.494C182.213 437.043 194.698 436.811 207.107 437.802C197.51 439.971 187.544 440.181 177.667 440.37C174.944 440.422 171.831 440.37 170.067 438.378" fill="black"/>
</g>
<path d="M391.27 374.136L374.474 317.408L373.168 274.524C373.168 274.524 344.464 277.867 344.353 278.873C344.241 279.879 334.543 334.249 334.164 335.004C333.784 335.758 342.79 396.416 342.79 396.416L356.328 400.263L392.553 385.266L391.27 374.136Z" fill="#455A64"/>
<path d="M236.793 362.524C240.141 360.208 255.609 360.344 271.478 385.716L282.437 389.594L366.472 377.605L389.328 379.774C395.397 389.049 398.825 399.634 399.282 410.512C400.019 428.59 405.543 445.096 373.614 472.114L287.37 460.586L262.003 457.976L229.494 473.455L251.1 438.284C251.1 438.284 244.761 437.886 238.489 419.21C232.217 400.535 236.793 362.524 236.793 362.524Z" fill="#455A64"/>
<path d="M391.883 384.532C391.427 384.703 390.952 384.822 390.466 384.888C389.54 385.077 388.234 385.371 386.571 385.737C378.038 387.658 369.762 390.47 361.896 394.121C360.379 394.824 359.162 395.41 358.325 395.819C357.905 396.057 357.46 396.254 356.997 396.406C357.377 396.108 357.788 395.849 358.225 395.631C359.028 395.169 360.211 394.53 361.707 393.786C365.606 391.87 369.64 390.207 373.782 388.808C377.93 387.404 382.173 386.259 386.482 385.381C388.133 385.056 389.484 384.826 390.421 384.7C390.902 384.603 391.392 384.547 391.883 384.532Z" fill="#263238"/>
<path d="M385.288 383.851C384.926 383.963 384.551 384.037 384.172 384.071L381.014 384.511C378.346 384.878 374.686 385.423 370.657 386.177C366.628 386.932 363.024 387.739 360.412 388.357L357.321 389.091C356.958 389.2 356.584 389.27 356.205 389.301C356.556 389.116 356.931 388.975 357.321 388.881C358.035 388.651 359.073 388.347 360.368 387.991C362.957 387.267 366.572 386.398 370.612 385.643C374.652 384.888 378.346 384.396 381.025 384.123C382.364 383.987 383.458 383.903 384.205 383.861C384.564 383.817 384.928 383.813 385.288 383.851Z" fill="#263238"/>
<path d="M262.003 457.934L270.608 415.993L277.248 417.502L274.57 459.234L262.003 457.934Z" fill="#263238"/>
<g opacity="0.3">
<path opacity="0.3" d="M268.499 381.042L260.184 371.044C259.95 386.984 259.783 403.291 265.251 418.383C265.864 420.546 267.072 422.519 268.755 424.105C270.552 425.551 273.442 426.033 275.262 424.597L268.499 381.042Z" fill="black"/>
</g>
<path d="M274.536 427.039C274.536 427.144 272.895 427.123 270.329 427.521C268.815 427.763 267.322 428.114 265.865 428.569C264.103 429.127 262.396 429.828 260.765 430.665C259.15 431.542 257.619 432.548 256.189 433.673C255.031 434.605 253.949 435.617 252.953 436.702C251.267 438.567 250.453 439.898 250.352 439.846C250.48 439.505 250.652 439.181 250.866 438.881C251.083 438.52 251.321 438.17 251.58 437.833C251.906 437.364 252.26 436.913 252.64 436.482C253.605 435.345 254.677 434.293 255.843 433.338C257.273 432.149 258.825 431.096 260.474 430.194C262.143 429.345 263.891 428.643 265.697 428.097C267.175 427.66 268.692 427.344 270.228 427.154C270.887 427.05 271.489 427.039 272.014 426.997C272.46 426.967 272.907 426.967 273.353 426.997C273.748 426.965 274.145 426.979 274.536 427.039V427.039Z" fill="#263238"/>
<path d="M418.913 181.702C420.188 182.865 421.904 183.505 423.682 183.481C425.46 183.456 427.154 182.769 428.393 181.571C429.632 180.373 430.313 178.762 430.287 177.093C430.261 175.423 429.529 173.832 428.254 172.668C429.682 172.337 430.963 171.591 431.915 170.538C432.867 169.484 433.442 168.176 433.558 166.799C433.674 165.421 433.326 164.044 432.562 162.863C431.798 161.682 430.658 160.757 429.303 160.218C430.014 159.033 430.386 157.695 430.384 156.335C430.381 154.975 430.004 153.638 429.288 152.455C428.572 151.273 427.543 150.284 426.3 149.586C425.057 148.887 423.642 148.503 422.194 148.47C421.509 146.601 420.178 145 418.413 143.923C416.647 142.846 414.548 142.355 412.451 142.528C411.392 141.611 410.046 141.039 408.614 140.897C407.181 140.755 405.738 141.051 404.498 141.741C403.259 142.43 402.289 143.477 401.734 144.725C401.178 145.973 401.066 147.357 401.414 148.669" fill="#263238"/>
<path d="M352.254 193.471L372.074 160.491C379.34 147.108 393.68 139.929 407.708 147.108L408.969 147.841C415.066 151.41 419.509 157.004 421.414 163.509C423.318 170.015 422.545 176.955 419.248 182.949C412.887 194.477 405.711 207.2 401.715 213.058C393.446 225.184 379.161 219.462 379.161 219.462L361.896 235.255C358.639 229.495 356.057 223.419 354.196 217.135C350.982 206.456 352.254 193.471 352.254 193.471Z" fill="#AE7461"/>
<path d="M379.273 219.514C373.229 215.974 368.392 210.883 365.334 204.842C365.334 204.842 361.74 216.37 375.467 222.847L379.273 219.514Z" fill="#6F4439"/>
<path d="M407.094 192.256C406.79 192.705 406.315 193.029 405.766 193.161C405.216 193.293 404.634 193.224 404.137 192.968C403.889 192.848 403.668 192.682 403.489 192.481C403.309 192.28 403.175 192.047 403.093 191.796C403.01 191.545 402.983 191.281 403.011 191.02C403.038 190.759 403.122 190.505 403.255 190.275C403.56 189.823 404.037 189.497 404.589 189.365C405.141 189.232 405.726 189.303 406.224 189.562C406.472 189.682 406.693 189.848 406.872 190.05C407.051 190.251 407.185 190.485 407.266 190.736C407.348 190.987 407.374 191.251 407.345 191.512C407.315 191.773 407.23 192.026 407.094 192.256V192.256Z" fill="#263238"/>
<path d="M412.485 187.288C412.105 187.382 411.369 185.58 409.338 184.406C407.306 183.232 405.242 183.358 405.175 182.97C405.175 182.803 405.644 182.53 406.581 182.467C407.82 182.413 409.047 182.716 410.096 183.337C411.136 183.947 411.944 184.849 412.407 185.915C412.73 186.722 412.663 187.246 412.485 187.288Z" fill="#263238"/>
<path d="M389.138 182.436C388.834 182.885 388.359 183.209 387.809 183.341C387.26 183.474 386.678 183.405 386.181 183.148C385.932 183.028 385.712 182.863 385.532 182.661C385.353 182.459 385.219 182.226 385.138 181.975C385.057 181.724 385.03 181.46 385.06 181.199C385.089 180.938 385.174 180.685 385.31 180.455C385.614 180.006 386.089 179.682 386.639 179.55C387.188 179.417 387.77 179.486 388.267 179.742C388.516 179.863 388.736 180.028 388.916 180.23C389.095 180.432 389.229 180.665 389.31 180.916C389.391 181.167 389.418 181.431 389.388 181.692C389.359 181.953 389.274 182.206 389.138 182.436V182.436Z" fill="#263238"/>
<path d="M392.586 176.127C392.207 176.221 391.47 174.419 389.439 173.255C387.408 172.092 385.344 172.207 385.277 171.809C385.277 171.652 385.745 171.369 386.683 171.317C387.922 171.257 389.151 171.561 390.198 172.186C391.237 172.793 392.045 173.691 392.508 174.754C392.832 175.561 392.765 176.064 392.586 176.127Z" fill="#263238"/>
<path d="M390.6 194.31C391.86 194.619 393.074 195.073 394.216 195.662C394.763 195.913 395.332 196.102 395.611 195.819C395.982 195.351 396.192 194.788 396.214 194.205C396.504 192.759 396.805 191.249 397.129 189.667C398.479 183.232 399.796 178.066 400.075 178.139C400.354 178.212 399.472 183.452 398.122 189.877C397.776 191.459 397.441 193.021 397.129 194.404C397.067 195.169 396.719 195.89 396.147 196.437C395.962 196.565 395.747 196.651 395.52 196.687C395.294 196.724 395.061 196.71 394.841 196.647C394.51 196.552 394.191 196.422 393.892 196.259C392.711 195.743 391.605 195.088 390.6 194.31Z" fill="#263238"/>
<path d="M397.988 169.074C397.452 169.462 395.611 168.026 393.089 166.978C390.566 165.93 388.268 165.364 388.256 164.725C388.256 164.421 388.915 164.127 390.008 164.085C391.435 164.062 392.848 164.36 394.126 164.955C395.415 165.521 396.543 166.365 397.419 167.418C398.066 168.225 398.233 168.875 397.988 169.074Z" fill="#263238"/>
<path d="M415.353 181.419C414.717 181.639 413.634 180.371 412.005 179.397C410.376 178.422 408.746 177.898 408.724 177.301C408.724 177.007 409.226 176.703 410.108 176.661C411.258 176.639 412.387 176.958 413.333 177.573C414.294 178.162 415.038 179.015 415.465 180.015C415.744 180.749 415.643 181.304 415.353 181.419Z" fill="#263238"/>
<path d="M421.714 176.598C421.714 176.598 423.366 166.936 420.598 162.849C417.25 157.902 411.971 161.612 408.222 157.766C404.472 153.92 401.314 149.183 394.495 149.77C387.029 150.398 387.721 154.318 383.815 159.558C367.945 180.811 359.542 184.532 365.2 173.454C365.825 172.239 363.068 169.378 365.747 164.295C369.229 157.703 373.983 150 378.391 146.479C382.107 143.492 386.069 142.287 391.995 141.784C401.358 141.05 410.197 146.091 415.788 150.168C421.379 154.245 428.622 167.334 421.714 176.598Z" fill="#263238"/>
<path d="M366.271 173.612C366.555 173.155 366.736 172.648 366.805 172.123C366.874 171.598 366.828 171.065 366.67 170.557C366.512 170.05 366.246 169.577 365.888 169.169C365.53 168.761 365.087 168.425 364.586 168.183C362.008 166.978 358.448 166.684 355.479 171.495C350.223 180.015 360.423 183.222 360.591 183.023C360.758 182.824 364.106 177.196 366.271 173.612Z" fill="#AE7461"/>
<path d="M360.591 178.705C360.591 178.653 360.368 178.705 360.033 178.705C359.562 178.65 359.134 178.425 358.839 178.076C358.08 177.227 358.158 175.362 359.062 173.8C359.49 173.057 360.088 172.413 360.814 171.914C361.065 171.695 361.368 171.535 361.698 171.45C362.029 171.364 362.376 171.354 362.711 171.421C362.918 171.478 363.098 171.599 363.222 171.765C363.346 171.931 363.406 172.131 363.392 172.333C363.392 172.637 363.202 172.784 363.236 172.815C363.269 172.847 363.526 172.815 363.671 172.396C363.759 172.158 363.759 171.9 363.671 171.662C363.533 171.349 363.268 171.1 362.934 170.971C362.519 170.838 362.075 170.807 361.643 170.88C361.212 170.953 360.807 171.129 360.468 171.39C359.623 171.924 358.93 172.643 358.448 173.486C357.444 175.236 357.332 177.353 358.448 178.432C358.651 178.63 358.899 178.782 359.173 178.879C359.448 178.975 359.741 179.012 360.033 178.988C360.468 178.904 360.613 178.736 360.591 178.705Z" fill="#6F4439"/>
<path d="M377.208 157.514C377.742 158.988 378.663 160.31 379.886 161.361C381.192 162.304 383.29 162.482 384.35 161.361C384.841 160.837 385.143 160.072 385.846 159.862C386.549 159.652 387.475 160.302 388.167 160.816C389.406 161.672 390.92 162.102 392.457 162.034C393.993 161.965 395.458 161.402 396.604 160.438C396.604 161.748 398.211 162.618 399.617 162.597C401.009 162.423 402.368 162.07 403.657 161.549C404.305 161.297 405.008 161.197 405.706 161.257C406.404 161.318 407.076 161.536 407.664 161.895C408.255 162.367 408.635 163.1 409.327 163.436C410.565 164.022 411.983 163.069 412.887 162.084C413.79 161.099 414.773 159.904 416.145 159.893C417.518 159.883 418.377 160.941 419.393 161.675C420.408 162.409 421.915 163.027 422.841 162.199C423.063 161.961 423.232 161.683 423.338 161.383C423.443 161.082 423.483 160.764 423.455 160.449C423.4 159.016 422.833 157.642 421.845 156.549C420.857 155.456 419.506 154.707 418.009 154.423C418.486 152.778 418.435 151.037 417.863 149.419C417.29 147.802 416.222 146.379 414.792 145.329C413.361 144.279 411.633 143.649 409.823 143.518C408.013 143.387 406.202 143.761 404.617 144.593C404.207 143.23 403.453 141.98 402.417 140.951C401.382 139.922 400.096 139.143 398.671 138.682C397.245 138.221 395.722 138.09 394.231 138.302C392.74 138.513 391.326 139.061 390.109 139.898C389.197 138.989 388.022 138.353 386.728 138.068C385.434 137.783 384.08 137.861 382.833 138.293C381.586 138.726 380.503 139.493 379.717 140.499C378.931 141.506 378.478 142.707 378.413 143.953C377.331 143.856 376.24 144.019 375.242 144.426C374.245 144.833 373.374 145.471 372.711 146.28C371.528 147.988 372.175 150.765 374.251 151.342C373.413 151.801 372.798 152.548 372.534 153.425C372.271 154.302 372.379 155.241 372.837 156.044C373.295 156.847 374.067 157.452 374.99 157.732C375.914 158.012 376.917 157.946 377.788 157.546" fill="#263238"/>
<path d="M417.06 157.263C417.031 157.32 416.994 157.373 416.949 157.42C416.842 157.563 416.726 157.699 416.603 157.829C416.107 158.328 415.526 158.746 414.884 159.065C413.872 159.572 412.749 159.852 411.603 159.883C410.075 159.948 408.567 159.543 407.306 158.73L407.585 158.625C407.347 159.547 406.729 160.342 405.867 160.837C404.973 161.354 404.003 161.746 402.987 162C402.455 162.176 401.906 162.302 401.347 162.377C400.75 162.397 400.157 162.282 399.617 162.042C399.046 161.803 398.545 161.438 398.157 160.978C397.768 160.518 397.503 159.977 397.385 159.401L397.787 159.506C397.085 160.301 396.214 160.95 395.231 161.412C394.247 161.874 393.172 162.138 392.073 162.188C390.838 162.278 389.605 161.991 388.558 161.371C387.597 160.751 386.755 159.982 386.069 159.097H386.37C385.238 159.837 383.925 160.298 382.554 160.438C381.904 160.531 381.241 160.484 380.613 160.303C379.985 160.121 379.408 159.81 378.927 159.39C378.116 158.654 377.552 157.711 377.306 156.677C377.061 155.643 377.143 154.564 377.543 153.574L377.688 153.784C376.435 153.707 375.251 153.221 374.34 152.411C373.66 151.834 373.132 151.116 372.8 150.315C372.604 149.8 372.498 149.258 372.487 148.711C372.473 148.52 372.496 148.329 372.554 148.145C372.552 148.862 372.692 149.573 372.967 150.241C373.311 151.019 373.842 151.711 374.518 152.264C375.393 153.012 376.517 153.453 377.699 153.511H377.922L377.844 153.71C377.483 154.64 377.418 155.649 377.658 156.613C377.898 157.578 378.432 158.455 379.194 159.139C379.645 159.514 380.18 159.789 380.76 159.943C381.34 160.098 381.949 160.127 382.542 160.03C383.84 159.89 385.079 159.446 386.147 158.741L386.314 158.625L386.448 158.782C387.106 159.628 387.91 160.365 388.825 160.962C389.797 161.535 390.941 161.796 392.084 161.706C393.12 161.661 394.135 161.413 395.064 160.978C395.992 160.544 396.813 159.931 397.474 159.181L397.787 158.824L397.865 159.286C397.967 159.795 398.199 160.274 398.541 160.681C398.883 161.088 399.325 161.411 399.829 161.623C400.306 161.836 400.83 161.94 401.358 161.926C401.883 161.86 402.398 161.744 402.898 161.581C403.875 161.354 404.814 161.002 405.688 160.533C406.08 160.322 406.423 160.038 406.695 159.7C406.967 159.361 407.164 158.974 407.273 158.562V158.311L407.496 158.458C408.683 159.251 410.113 159.66 411.569 159.621C412.681 159.609 413.776 159.362 414.772 158.898C415.633 158.486 416.408 157.932 417.06 157.263Z" fill="#455A64"/>
<path d="M387.665 202.054C386.275 201.222 385.126 200.081 384.317 198.732C383.395 197.475 382.673 196.098 382.174 194.645C383.169 195.829 384.047 197.095 384.797 198.428C386.236 200.524 387.788 201.939 387.665 202.054Z" fill="#263238"/>
<path d="M304.11 281.912C303.326 281.305 302.636 280.6 302.057 279.816C299.051 276.174 296.988 271.927 296.03 267.408C295.781 266.487 295.668 265.538 295.695 264.589C296.005 265.484 296.251 266.398 296.432 267.324C297.018 269.516 297.809 271.656 298.798 273.717C299.814 275.766 301.016 277.73 302.391 279.585C303.012 280.329 303.586 281.106 304.11 281.912V281.912Z" fill="#FF725E"/>
<path d="M439.704 439.646L381.594 436.23C371.706 435.654 357.321 432.908 359.006 418.278C360.691 409.737 363.403 408.772 363.403 408.772C363.403 408.772 373.96 407.169 379.864 406.11C381.426 405.838 391.794 404.245 392.252 404.245C392.252 404.245 394.562 390.432 409.271 390.286C416.38 390.212 431.033 391.187 444.28 392.214C451.14 392.749 457.534 395.69 462.189 400.452C466.844 405.213 469.419 411.447 469.401 417.911V419.2C468.419 433.61 454.915 440.904 439.704 439.646Z" fill="#FFBF9D"/>
<path d="M392.196 404.245C392.183 410.618 394.12 416.86 397.776 422.229C397.776 422.229 386.192 418.676 387.542 404.895L392.196 404.245Z" fill="#FF9A6C"/>
<path d="M436.356 415.26C436.044 415.511 437.271 417.188 437.16 419.452C437.048 421.715 435.698 423.392 436.044 423.644C436.39 423.895 436.736 423.528 437.36 422.816C438.157 421.856 438.613 420.688 438.666 419.473C438.725 418.268 438.369 417.077 437.651 416.077C437.048 415.396 436.501 415.134 436.356 415.26Z" fill="#263238"/>
<path d="M430.653 415.008C430.135 414.999 429.634 415.183 429.258 415.518C428.882 415.853 428.662 416.314 428.644 416.8C428.623 417.037 428.653 417.276 428.732 417.503C428.81 417.729 428.937 417.939 429.103 418.119C429.27 418.298 429.473 418.445 429.701 418.55C429.929 418.654 430.177 418.715 430.43 418.728C430.947 418.732 431.444 418.547 431.819 418.213C432.194 417.878 432.416 417.421 432.439 416.936C432.462 416.699 432.433 416.459 432.355 416.232C432.277 416.005 432.15 415.795 431.984 415.615C431.817 415.435 431.613 415.288 431.384 415.184C431.156 415.08 430.907 415.02 430.653 415.008Z" fill="#263238"/>
<path d="M419.783 408.301C420.165 407.184 420.39 406.025 420.453 404.853C420.52 404.318 420.632 403.805 421.022 403.711C421.621 403.667 422.22 403.795 422.741 404.077L427.127 405.681C433.376 407.923 438.521 409.537 438.621 409.307C438.722 409.076 433.722 407.064 427.461 404.821L422.997 403.281C422.311 402.947 421.522 402.847 420.765 402.998C420.561 403.076 420.379 403.197 420.232 403.351C420.085 403.506 419.977 403.689 419.917 403.889C419.831 404.19 419.782 404.499 419.772 404.811C419.625 405.97 419.628 407.142 419.783 408.301V408.301Z" fill="#263238"/>
<path d="M445.485 416.884C444.927 417.072 445.195 418.98 444.893 421.139C444.592 423.298 443.934 425.111 444.436 425.394C444.681 425.53 445.206 425.216 445.753 424.503C446.415 423.555 446.831 422.474 446.969 421.348C447.107 420.221 446.961 419.08 446.545 418.016C446.199 417.209 445.753 416.81 445.485 416.884Z" fill="#263238"/>
<path d="M442.695 394.729C442.226 394.939 442.583 396.825 442.483 398.921C442.382 401.017 441.936 402.893 442.382 403.113C442.594 403.228 443.019 402.893 443.431 402.16C443.942 401.179 444.224 400.107 444.257 399.016C444.307 397.902 444.106 396.791 443.666 395.756C443.309 395.012 442.918 394.635 442.695 394.729Z" fill="#263238"/>
<path d="M428.756 438.494C428.868 438.735 431.725 447.989 421.669 447.674C411.614 447.36 414.036 437.938 414.326 437.928C414.616 437.917 428.756 438.494 428.756 438.494Z" fill="#FFBF9D"/>
<path d="M418.031 440.936C418.031 440.936 417.897 441.093 417.752 441.365C417.56 441.754 417.536 442.197 417.685 442.602C418.031 443.65 419.694 444.499 421.502 444.603C422.362 444.657 423.224 444.528 424.024 444.226C424.343 444.15 424.637 444.001 424.88 443.792C425.124 443.584 425.309 443.323 425.419 443.031C425.476 442.844 425.463 442.644 425.382 442.465C425.301 442.285 425.156 442.137 424.973 442.046C424.694 441.91 424.493 441.963 424.47 441.91C424.448 441.858 424.649 441.711 425.062 441.805C425.31 441.859 425.529 441.997 425.676 442.193C425.877 442.461 425.958 442.792 425.899 443.115C425.803 443.5 425.604 443.854 425.32 444.146C425.037 444.438 424.679 444.656 424.281 444.782C423.396 445.156 422.426 445.322 421.457 445.264C419.437 445.138 417.574 444.1 417.205 442.728C417.132 442.471 417.124 442.203 417.18 441.943C417.236 441.683 417.355 441.438 417.529 441.229C417.786 440.946 418.009 440.904 418.031 440.936Z" fill="#FF9A6C"/>
<path d="M458.799 374.911C459.371 375.121 459.835 375.53 460.093 376.054C460.535 377.19 460.647 378.416 460.417 379.607C460.205 383.275 461.078 386.928 462.939 390.16C465.024 391.757 466.969 393.509 468.754 395.4C472.983 399.885 475.829 403.522 477.057 407.169C478.652 411.895 478.842 419.609 477.124 424.283C475.405 428.957 470.941 432.971 465.685 433.264C467.917 436.115 467.537 440.129 465.885 443.294V443.377C464.223 446.92 459.971 448.691 455.942 449.487C451.913 450.284 447.661 450.441 443.967 452.149C443.197 452.516 442.271 452.935 441.523 452.526C441.255 452.341 441.053 452.083 440.943 451.788C440.834 451.492 440.822 451.173 440.909 450.871C441.102 450.27 441.425 449.713 441.858 449.236L438.666 450.231C438.532 448.896 438.734 447.549 439.258 446.301C435.794 445.385 432.391 444.276 429.069 442.979C429.191 441.47 429.191 440.066 428.365 439.07C427.249 437.708 425.017 436.974 426.044 434.93C426.569 433.882 429.046 433.076 430.252 432.834C438.22 430.99 446.518 430.78 454.58 432.216C456.392 430.818 457.907 429.112 459.044 427.186L458.877 427.332C460.596 423.602 462.337 419.357 460.707 415.584C459.446 412.66 456.466 410.785 454.145 408.489C452.002 406.38 450.336 403.885 449.248 401.154C448.161 398.424 447.674 395.514 447.817 392.602C443.71 392.109 437.874 392.025 433.767 391.554L440.619 388.766C441.133 388.536 441.635 388.347 442.137 388.169L442.293 388.106C443.122 387.841 443.934 387.533 444.726 387.184V387.184C444.373 386.707 444.215 386.127 444.279 385.549C444.344 384.972 444.627 384.436 445.077 384.038C445.528 383.64 446.116 383.408 446.733 383.383C447.351 383.359 447.957 383.543 448.442 383.903C448.882 384.261 449.259 384.682 449.558 385.15C449.108 384.645 448.806 384.038 448.681 383.389C448.555 382.741 448.612 382.073 448.844 381.451C449.102 380.832 449.57 380.31 450.175 379.966C450.78 379.621 451.489 379.473 452.192 379.544C452.66 379.63 453.096 379.831 453.457 380.125C453.817 380.419 454.089 380.797 454.246 381.22C454.239 379.509 454.775 377.834 455.786 376.41C456.444 375.373 457.56 374.492 458.799 374.911Z" fill="#263238"/>
<path d="M464.345 428.831C463.897 429.291 463.412 429.719 462.895 430.11C461.41 431.093 459.68 431.699 457.873 431.87C456.633 432.025 455.38 432.056 454.134 431.965C452.784 431.87 451.355 431.671 449.837 431.472C448.253 431.229 446.654 431.082 445.05 431.032C444.196 431.012 443.341 431.054 442.494 431.158C441.595 431.219 440.728 431.493 439.972 431.954C439.67 432.174 439.434 432.463 439.286 432.793C439.137 433.124 439.081 433.484 439.124 433.841C439.198 434.527 439.516 435.169 440.028 435.664C441.062 436.483 442.31 437.029 443.643 437.247V436.953C442.507 437.293 441.429 437.784 440.441 438.41C439.532 439.024 438.903 439.937 438.677 440.967C438.593 441.45 438.647 441.946 438.834 442.403C439.023 442.832 439.346 443.197 439.76 443.451C440.141 443.679 440.58 443.809 441.032 443.828C441.456 443.847 441.873 443.721 442.204 443.472L442.081 443.314C441.024 444.067 440.142 445.016 439.492 446.102C439.325 446.387 439.176 446.681 439.046 446.982C438.999 447.089 438.958 447.197 438.923 447.307C438.992 447.213 439.048 447.111 439.09 447.003C439.202 446.815 439.358 446.511 439.592 446.155C440.263 445.105 441.151 444.193 442.204 443.472L442.081 443.314C441.757 443.519 441.373 443.624 440.982 443.612C440.592 443.601 440.215 443.475 439.905 443.252C439.534 443.033 439.245 442.71 439.079 442.329C438.909 441.915 438.867 441.465 438.956 441.03C439.164 440.063 439.764 439.209 440.63 438.651C441.594 438.046 442.647 437.576 443.755 437.257L444.235 437.089L443.733 436.964C442.463 436.752 441.274 436.232 440.284 435.454C439.83 435.012 439.544 434.441 439.47 433.83C439.429 433.525 439.474 433.215 439.602 432.932C439.729 432.648 439.934 432.402 440.195 432.216C440.906 431.79 441.719 431.537 442.561 431.482C443.39 431.383 444.225 431.341 445.061 431.357C446.65 431.402 448.234 431.542 449.804 431.776C451.322 431.965 452.761 432.164 454.123 432.237C455.389 432.319 456.66 432.277 457.917 432.111C459.76 431.917 461.514 431.262 462.995 430.214C463.525 429.828 463.981 429.36 464.345 428.831V428.831Z" fill="#455A64"/>
<path d="M453.509 385.35L453.397 385.454C453.319 385.549 453.23 385.654 453.107 385.779C452.944 385.954 452.795 386.14 452.661 386.335C452.468 386.595 452.289 386.864 452.125 387.142C451.093 388.92 450.549 390.912 450.54 392.937C450.508 395.949 451.408 398.905 453.13 401.447C455.265 404.519 458.045 407.15 461.299 409.181C462.995 410.302 464.747 411.277 466.343 412.262C467.912 413.195 469.329 414.335 470.55 415.647C471.653 416.825 472.421 418.245 472.782 419.776C472.927 420.467 472.957 421.174 472.872 421.872C472.781 422.521 472.597 423.156 472.325 423.759C471.855 424.794 471.155 425.723 470.271 426.484C469.611 427.06 468.858 427.534 468.039 427.888C467.321 428.153 466.572 428.339 465.807 428.443H465.964H466.421C466.998 428.371 467.564 428.233 468.106 428.035C468.965 427.701 469.757 427.233 470.45 426.651C471.374 425.883 472.109 424.936 472.604 423.874C472.889 423.254 473.087 422.603 473.195 421.935C473.291 421.206 473.265 420.467 473.117 419.745C472.77 418.169 472.002 416.701 470.885 415.48C469.652 414.137 468.216 412.972 466.622 412.021C465.004 410.973 463.274 410.051 461.589 408.94C458.372 406.931 455.617 404.337 453.487 401.311C451.776 398.809 450.866 395.899 450.864 392.927C450.855 390.929 451.361 388.959 452.337 387.184C452.962 385.957 453.554 385.381 453.509 385.35Z" fill="#455A64"/>
<path d="M460.038 384.553C459.879 384.69 459.744 384.849 459.636 385.025C459.288 385.467 458.982 385.937 458.721 386.429C458.324 387.152 457.995 387.906 457.739 388.682C457.425 389.633 457.205 390.608 457.08 391.596C456.986 392.589 456.986 393.589 457.08 394.582C457.159 395.393 457.312 396.196 457.538 396.982C457.688 397.511 457.878 398.03 458.107 398.533C458.176 398.724 458.274 398.904 458.397 399.068C458.464 399.068 458.107 398.261 457.783 396.972C457.59 396.193 457.459 395.401 457.393 394.603C457.329 393.629 457.347 392.651 457.449 391.679C457.566 390.708 457.771 389.747 458.062 388.808C458.306 388.041 458.608 387.291 458.966 386.565C459.569 385.287 460.093 384.616 460.038 384.553Z" fill="#455A64"/>
<path d="M437.115 394.237C436.791 394.488 438.03 396.165 437.907 398.429C437.785 400.692 436.456 402.359 436.791 402.621C437.126 402.883 437.483 402.495 438.108 401.793C438.904 400.83 439.361 399.657 439.414 398.439C439.472 397.238 439.116 396.05 438.398 395.054C437.796 394.373 437.249 394.111 437.115 394.237Z" fill="#263238"/>
<path d="M431.289 395.348C430.773 395.344 430.275 395.529 429.9 395.863C429.526 396.198 429.304 396.655 429.281 397.14C429.259 397.377 429.289 397.616 429.368 397.843C429.447 398.069 429.573 398.278 429.739 398.458C429.906 398.638 430.109 398.784 430.337 398.889C430.565 398.994 430.813 399.055 431.066 399.068C431.584 399.076 432.086 398.893 432.461 398.558C432.837 398.223 433.058 397.762 433.075 397.276C433.096 397.038 433.067 396.799 432.988 396.573C432.909 396.347 432.783 396.137 432.616 395.957C432.45 395.778 432.246 395.631 432.019 395.526C431.791 395.422 431.543 395.361 431.289 395.348V395.348Z" fill="#263238"/>
<path d="M415.152 414.159C414.489 412.76 413.998 411.293 413.69 409.789C413.199 408.326 412.895 406.813 412.786 405.283C413.46 406.678 413.951 408.146 414.248 409.653C414.741 411.115 415.044 412.628 415.152 414.159Z" fill="#263238"/>
<path d="M369.775 239.332C370.74 239.433 371.659 239.769 372.443 240.306C372.737 240.545 372.978 240.837 373.151 241.165C373.323 241.492 373.424 241.849 373.447 242.214C373.447 242.214 377.587 245.012 376.795 246.867C376.795 246.867 379.764 250.011 379.596 251.562C379.554 251.981 379.415 252.386 379.187 252.748C378.959 253.11 378.649 253.421 378.279 253.658C378.279 253.658 380.935 254.58 379.607 257.536C378.279 260.491 366.55 266.527 366.55 266.527L367.577 275.152L356.495 277.468L368.079 245.127L369.775 239.332Z" fill="#FFBF9D"/>
<path d="M304.478 428.38C301.278 429.767 297.804 430.508 294.28 430.556C290.756 430.604 287.261 429.958 284.019 428.659C280.777 427.361 277.861 425.439 275.459 423.017C273.057 420.595 271.222 417.728 270.072 414.599C268.905 411.601 268.024 408.511 267.438 405.366C265.764 395.085 256.356 353.847 256.356 353.847L267.438 316.066L319.399 336.743C319.399 336.743 313.272 413.415 310.628 422.837C309.936 425.184 307.603 426.997 304.478 428.38Z" fill="#FF725E"/>
<path opacity="0.3" d="M257.606 359.464L263.811 358.28L266.88 338.986C267.203 336.955 268.118 335.048 269.525 333.475C270.931 331.903 272.774 330.727 274.848 330.078L275.596 329.837L284.926 381.357H315.493L316.944 365.972L281.678 321.736L263.822 323.832L257.606 359.464Z" fill="black"/>
<path d="M353.605 189.688L347.333 195.976L325.013 198.952C325.013 198.952 308.016 207.797 296.164 229.512C284.312 251.227 269.771 301.227 269.771 301.227L341.05 329.869L369.954 238.766L373.86 227.542L353.605 189.688Z" fill="#FF725E"/>
<path d="M343.482 332.122L267.293 302.379L266.69 303.627C266.69 303.627 247.183 336.743 245.163 358.322L256.323 364.526L262.148 340.118L265.251 329.439L275.027 324.063L280.216 377.867L347.176 372.386L343.482 332.122Z" fill="#FF725E"/>
<path d="M343.482 332.122C343.482 332.122 343.482 332.352 343.572 332.803C343.661 333.254 343.683 333.945 343.784 334.836C343.951 336.639 344.208 339.29 344.543 342.727C345.201 349.655 346.15 359.726 347.344 372.365V372.543H347.165L280.205 378.097H279.948V377.856C278.353 361.361 276.6 343.178 274.737 324.063L275.161 324.272L265.385 329.638L265.519 329.481C264.737 332.164 263.9 335.046 263.063 337.949C262.36 340.181 261.947 342.444 261.334 344.687C260.72 346.93 260.218 349.162 259.738 351.384L256.591 364.557L256.501 364.924L256.155 364.725L244.995 358.521L244.839 358.426V358.269C245.459 353.056 246.625 347.914 248.321 342.916C249.895 338.001 251.747 333.274 253.722 328.737C257.477 320.112 261.724 311.685 266.445 303.49V303.49L267.059 302.243L267.159 302.044L267.371 302.128L322.725 323.853L338.148 329.963L342.165 331.566L343.516 332.122C343.516 332.122 343.025 331.954 342.11 331.608L338.025 330.047L322.524 324.084L267.181 302.589L267.494 302.474L266.891 303.721C262.194 311.905 257.973 320.322 254.247 328.936C252.272 333.463 250.43 338.179 248.868 343.073C247.198 348.039 246.047 353.146 245.431 358.322L245.297 358.07L256.457 364.274L256.033 364.452C257.059 360.114 258.108 355.719 259.18 351.269C259.701 349.047 260.232 346.815 260.776 344.572C261.322 342.329 261.802 340.055 262.494 337.833L264.961 329.344V329.24L265.072 329.177L274.848 323.811L275.239 323.601V324.021C277.08 343.136 278.821 361.329 280.406 377.814L280.116 377.594L347.076 372.187L346.908 372.375C345.792 359.799 344.911 349.707 344.308 342.801C344.007 339.342 343.784 336.68 343.627 334.867C343.56 333.977 343.505 333.285 343.46 332.771C343.415 332.258 343.482 332.122 343.482 332.122Z" fill="#263238"/>
<path d="M341.786 323.958L272.304 292.717C269.916 295.526 267.293 300.786 265.15 305.775L342.154 340.118L341.786 323.958Z" fill="#263238"/>
<path d="M327.624 243.356C316.91 267.46 307.469 298.313 313.83 323.738L326.876 389.762L359.653 381.671L351.685 313.551L356.037 306.98L364.274 264.557L372.086 245.201L371.159 235.234" fill="#FF725E"/>
<path d="M371.17 235.255C371.17 235.255 371.17 235.475 371.26 235.894C371.349 236.313 371.371 236.942 371.46 237.802C371.628 239.499 371.873 241.994 372.186 245.221C370.289 249.948 367.666 256.529 364.43 264.599C362.198 276.127 359.452 290.474 356.261 307.033C354.921 309.066 353.426 311.308 351.919 313.604V313.457C354.274 333.474 357.008 356.687 359.932 381.524V381.765L359.698 381.818L343.449 385.832L326.988 390.003L326.687 390.076L326.62 389.783C322.546 369.095 318.696 349.539 315.203 331.849C314.344 327.427 313.507 323.119 312.614 318.938C311.965 314.858 311.633 310.739 311.621 306.613C311.621 299.228 312.368 291.858 313.853 284.605C316.004 274.198 319.084 263.979 323.06 254.056C325.85 247.066 327.646 243.325 327.646 243.325C327.646 243.325 327.557 243.566 327.367 244.037L326.497 246.133C325.727 247.957 324.622 250.65 323.26 254.161C319.369 264.092 316.349 274.306 314.232 284.7C312.782 291.921 312.057 299.254 312.067 306.603C312.096 310.708 312.439 314.806 313.094 318.864C313.986 323.056 314.824 327.332 315.705 331.744C319.209 349.435 323.082 368.99 327.178 389.688L326.821 389.479L343.36 385.392L359.609 381.388L359.385 381.682C356.495 356.844 353.805 333.62 351.451 313.562V313.478V313.404L355.814 306.844V306.917C359.051 290.369 361.874 275.991 364.117 264.505L371.996 245.232C371.717 241.994 371.505 239.51 371.36 237.812C371.293 236.984 371.237 236.345 371.204 235.905C371.17 235.465 371.17 235.255 371.17 235.255Z" fill="#263238"/>
<path d="M369.139 233.505C368.763 233.075 368.427 232.616 368.135 232.132C367.532 231.231 366.673 229.91 365.624 228.265C363.526 224.985 360.691 220.415 357.656 215.322C354.62 210.229 351.964 205.565 350.089 202.17C349.141 200.472 348.393 199.089 347.857 198.135C347.57 197.647 347.324 197.139 347.121 196.615C347.481 197.055 347.791 197.53 348.047 198.03C348.661 199.078 349.453 200.378 350.402 201.992L358.124 215.06L365.936 228.076C366.885 229.68 367.677 231.011 368.291 232.027C368.617 232.497 368.901 232.991 369.139 233.505V233.505Z" fill="#263238"/>
<path d="M328.629 229.208C328.455 228.837 328.32 228.451 328.227 228.055C328.004 227.311 327.725 226.221 327.412 224.911C325.781 217.858 324.925 210.666 324.856 203.448C324.856 202.065 324.856 200.944 324.912 200.168C324.902 199.767 324.943 199.365 325.035 198.973C325.125 199.366 325.163 199.767 325.147 200.168C325.147 201.059 325.225 202.149 325.269 203.438C325.381 206.194 325.626 209.998 326.118 214.18C326.609 218.361 327.234 222.113 327.814 224.827C328.059 226.095 328.283 227.164 328.45 228.045C328.563 228.424 328.623 228.815 328.629 229.208V229.208Z" fill="#263238"/>
<path d="M349.743 313.603C346.677 311.3 343.738 308.852 340.938 306.267C338 303.831 335.195 301.257 332.534 298.554C332.646 298.449 336.585 301.698 341.34 305.89C346.094 310.082 349.855 313.499 349.743 313.603Z" fill="#263238"/>
<path d="M368.47 238.42C367.181 236.812 365.727 235.327 364.129 233.987C360.224 230.777 355.261 228.926 350.075 228.747C344.888 228.568 339.794 230.07 335.648 233.002C333.953 234.231 332.387 235.61 330.972 237.12C331.032 236.989 331.111 236.865 331.207 236.754C331.385 236.534 331.608 236.188 331.977 235.789C332.981 234.617 334.131 233.561 335.403 232.645C339.602 229.598 344.795 228.009 350.1 228.15C355.407 228.402 360.46 230.364 364.408 233.704C365.593 234.693 366.653 235.808 367.566 237.026C367.825 237.36 368.06 237.71 368.269 238.074C368.353 238.18 368.42 238.297 368.47 238.42V238.42Z" fill="#263238"/>
<path opacity="0.3" d="M325.515 248.229C319.563 256.297 314.933 265.157 311.777 274.513C307.637 287.372 303.463 305.859 311.777 335.936C320.091 366.014 322.937 370.007 322.937 370.007C322.937 370.007 312.246 320.688 312.246 314.997C312.246 309.307 311.364 297.464 313.551 287.749C316.65 274.353 320.646 261.153 325.515 248.229V248.229Z" fill="black"/>
<path d="M395.064 435.58C395.064 435.58 394.93 435.455 394.718 435.203L393.836 434.071C393.089 433.076 391.962 431.671 390.488 429.953C389.015 428.234 387.308 426.243 385.266 424.105C383.223 421.967 380.802 419.734 378.235 417.523C373.755 413.745 368.896 410.383 363.727 407.483C361.74 406.383 360.1 405.524 358.95 404.968L357.633 404.297C357.478 404.226 357.332 404.138 357.198 404.035C357.198 404.035 357.377 404.035 357.689 404.203L359.051 404.779C360.234 405.272 361.908 406.079 363.939 407.148C369.197 409.967 374.121 413.305 378.625 417.104C381.095 419.205 383.445 421.427 385.667 423.759C387.698 425.928 389.439 427.951 390.812 429.711C392.185 431.472 393.267 432.855 393.959 433.903L394.763 435.088C394.884 435.24 394.985 435.405 395.064 435.58V435.58Z" fill="#263238"/>
<path d="M396.716 437.488C396.716 437.488 382.141 415.228 359.776 405.283C337.411 395.337 324.064 422.051 324.064 422.051L383.636 454.832L396.716 437.488Z" fill="#455A64"/>
<path d="M385.087 436.848C384.697 436.497 384.349 436.107 384.049 435.685C383.413 434.909 382.464 433.809 381.259 432.468C374.989 425.511 367.426 419.68 358.939 415.259C357.31 414.411 355.971 413.761 355.033 413.331C354.538 413.128 354.063 412.883 353.616 412.598C354.137 412.735 354.645 412.914 355.133 413.132C356.104 413.509 357.466 414.117 359.129 414.924C363.457 417.047 367.54 419.583 371.315 422.491C375.09 425.401 378.542 428.663 381.616 432.227C382.732 433.599 383.681 434.742 384.261 435.559C384.574 435.966 384.851 436.398 385.087 436.848V436.848Z" fill="#263238"/>
<g opacity="0.3">
<path opacity="0.3" d="M330.704 415.616C332.819 417.919 335.322 419.881 338.115 421.422C339.515 422.183 341.063 422.677 342.668 422.875C344.273 423.073 345.904 422.971 347.467 422.575C350.033 421.82 352.187 420.038 354.81 419.431C358.057 418.707 361.428 419.934 364.352 421.432C367.243 422.959 370.367 424.058 373.614 424.691C362.867 414.62 347.679 409.286 332.49 408.971C330.573 408.811 328.646 409.137 326.91 409.915C324.879 411.026 323.763 413.163 322.814 415.155C319.94 421.263 317.415 427.511 315.248 433.872C314.659 435.078 314.579 436.449 315.024 437.708C315.716 439.039 317.413 439.552 318.93 439.908C332.322 443.052 347.199 444.824 360.959 443.409C357.306 439.518 352.717 436.501 347.574 434.609C342.43 432.717 336.881 432.004 331.385 432.531C329.8 432.698 322.345 434.951 321.72 433.579C321.43 432.929 322.77 429.837 323.015 429.166C325.236 423.109 327.535 418.697 330.704 415.616Z" fill="black"/>
</g>
<path d="M353.772 383.107L351.685 393.388C354.118 394.771 357.421 396.678 358.906 397.664C361.428 399.34 362.8 406.697 362.8 406.697L356.573 403.784L355.859 405.639C355.859 405.639 361.617 416.119 356.573 417.974L353.169 417.282C353.169 417.282 353.169 419.787 347.98 417.974C347.98 417.974 346.496 420.258 342.645 418.634C342.645 418.634 341.909 419.221 340.123 418.393C338.338 417.565 330.794 412.273 330.794 412.273V406.247V388.776C329.722 388.808 353.772 383.107 353.772 383.107Z" fill="#AE7461"/>
<path d="M347.612 407.42C347.612 407.473 347.221 407.42 346.764 407.033C346.158 406.558 345.742 405.905 345.582 405.181C345.422 404.456 345.527 403.701 345.882 403.04C346.15 402.547 346.44 402.327 346.507 402.369C346.179 403.235 346.057 404.158 346.15 405.073C346.485 406.561 347.723 407.295 347.612 407.42Z" fill="#6F4439"/>
<path d="M353.772 418.068C351.817 415.86 350.39 413.283 349.587 410.512C350.43 411.696 351.158 412.948 351.763 414.253C352.55 415.467 353.222 416.744 353.772 418.068V418.068Z" fill="#6F4439"/>
<path d="M355.859 405.366C355.703 405.366 355.859 404.476 356.171 403.469C356.484 402.463 356.886 401.688 357.042 401.73C357.198 401.772 357.042 402.621 356.729 403.627C356.417 404.633 356.004 405.408 355.859 405.366Z" fill="#6F4439"/>
<path d="M343.65 412.178C343.65 412.241 343.125 412.178 342.433 411.728C341.539 411.165 340.839 410.37 340.421 409.439C340.003 408.507 339.884 407.482 340.079 406.488C340.235 405.733 340.503 405.335 340.57 405.356C340.272 406.651 340.409 408.001 340.96 409.22C341.512 410.44 342.451 411.469 343.65 412.168V412.178Z" fill="#6F4439"/>
<path d="M348.103 418.236C347.991 418.33 346.987 417.45 346.072 416.203C345.413 415.493 344.929 414.656 344.654 413.75C344.788 413.667 345.592 414.652 346.54 415.846C347.204 416.552 347.732 417.361 348.103 418.236V418.236Z" fill="#6F4439"/>
<path d="M338.583 413.143C338.583 413.205 338.092 413.143 337.467 412.776C336.622 412.275 335.961 411.543 335.57 410.68C335.18 409.828 335.079 408.884 335.28 407.976C335.436 407.284 335.704 406.928 335.771 406.928C335.478 408.104 335.595 409.336 336.103 410.445C336.611 411.554 337.484 412.481 338.594 413.09L338.583 413.143Z" fill="#6F4439"/>
<path d="M343.159 418.697C343.025 418.791 342.043 417.89 341.005 416.685C340.279 416.01 339.699 415.209 339.297 414.327C339.42 414.232 340.413 415.134 341.451 416.339C342.17 417.019 342.749 417.819 343.159 418.697V418.697Z" fill="#6F4439"/>
<path d="M358.883 382.625C359.33 383.002 351.685 388.41 351.685 388.41C351.685 388.41 345.569 394.153 342.288 395.012C338.55 396.188 334.94 397.697 331.508 399.519L320.348 421.003L296.153 415.218L316.643 388.336C316.828 385.519 317.223 382.718 317.826 379.952C318.562 377.584 327.312 365.343 328.64 364.232C329.968 363.122 331.608 362 333.383 362.556C335.157 363.111 334.878 366.748 334.878 366.748C334.878 366.748 337.981 366.328 339.342 366.884C340.704 367.439 340.971 370.363 340.971 370.363C341.523 370.154 342.12 370.069 342.714 370.117C343.307 370.164 343.88 370.342 344.386 370.636C344.947 370.839 345.422 371.207 345.742 371.685C346.062 372.163 346.208 372.725 346.161 373.287C346.811 372.964 347.544 372.818 348.278 372.867C349.012 372.915 349.716 373.155 350.312 373.56C350.959 373.996 351.465 374.589 351.778 375.277C352.091 375.964 352.198 376.718 352.087 377.458L346.607 385.035L349.609 384.04C349.609 384.04 355.859 380.099 358.883 382.625Z" fill="#FFBF9D"/>
<path d="M346.775 377.605C346.272 377.227 345.747 376.877 345.201 376.557C343.774 375.837 342.105 375.668 340.547 376.085L340.235 376.169V375.865C340.161 375.243 339.915 374.649 339.522 374.143C339.13 373.637 338.603 373.235 337.995 372.978C337.387 372.721 336.718 372.617 336.054 372.677C335.39 372.737 334.754 372.958 334.208 373.319L333.862 373.549L333.784 373.161C333.631 372.398 333.215 371.702 332.601 371.181C332.123 370.753 331.546 370.434 330.916 370.248C330.344 370.107 329.755 370.036 329.164 370.038C329.164 370.038 329.32 369.954 329.633 369.892C330.091 369.833 330.556 369.854 331.005 369.954C331.702 370.115 332.348 370.427 332.892 370.866C333.616 371.432 334.115 372.212 334.309 373.077L333.896 372.92C334.513 372.495 335.239 372.23 336.001 372.154C336.762 372.078 337.531 372.192 338.23 372.486C338.929 372.78 339.532 373.243 339.979 373.827C340.425 374.412 340.698 375.097 340.77 375.813L340.425 375.603C341.259 375.387 342.133 375.335 342.989 375.453C343.846 375.57 344.668 375.853 345.402 376.284C346.429 376.966 346.819 377.584 346.775 377.605Z" fill="#FF9A6C"/>
<path d="M346.797 373.224C346.875 373.36 346.328 373.759 345.681 374.272C345.034 374.786 344.487 375.163 344.364 375.058C344.241 374.953 344.621 374.367 345.324 373.853C346.027 373.34 346.73 373.088 346.797 373.224Z" fill="#FF9A6C"/>
<path d="M341.049 369.651C341.172 369.745 340.882 370.29 340.391 370.866C339.9 371.443 339.409 371.83 339.275 371.736C339.141 371.642 339.454 371.097 339.933 370.52C340.413 369.944 340.916 369.556 341.049 369.651Z" fill="#FF9A6C"/>
<path d="M335.135 366.737C335.258 366.831 334.923 367.418 334.387 368.047C333.852 368.676 333.271 369.095 333.193 369.022C333.115 368.948 333.394 368.341 333.93 367.712C334.465 367.083 335.012 366.643 335.135 366.737Z" fill="#FF9A6C"/>
<path d="M343.215 390.82C343.341 389.755 343.722 388.73 344.331 387.823C344.793 386.834 345.488 385.957 346.362 385.255C345.97 386.245 345.461 387.191 344.844 388.074C344.41 389.043 343.863 389.964 343.215 390.82V390.82Z" fill="#FF9A6C"/>
<path d="M356.45 439.175C356.45 439.175 350.189 438.305 346.406 438.127C335.693 437.624 320.571 437.488 320.571 437.488L326.876 415.993L329.912 406.886L277.716 404.392C278.252 405.88 268.331 456.058 275.73 465.868C283.129 475.677 303.463 477.951 314.466 478.202C322.144 478.381 345 477.699 358.135 477.28C362.127 477.172 366.042 476.223 369.59 474.504C373.138 472.784 376.23 470.338 378.636 467.345C380.366 465.155 381.571 462.87 381.493 460.774" fill="#455A64"/>
<path d="M381.493 460.774C381.523 461.021 381.523 461.271 381.493 461.518C381.425 462.237 381.248 462.942 380.969 463.614C379.796 466.198 378.054 468.52 375.858 470.426C371.361 474.442 365.537 476.894 359.352 477.374C357.879 477.479 356.372 477.49 354.821 477.553L344.956 477.877C338.048 478.077 330.448 478.307 322.345 478.422C318.283 478.475 314.065 478.527 309.723 478.223C305.266 477.94 300.836 477.362 296.465 476.494C291.852 475.598 287.388 474.121 283.196 472.103C281.05 471.003 279.074 469.632 277.326 468.026C276.894 467.605 276.488 467.16 276.11 466.695L275.507 466.014L275.027 465.239C274.735 464.714 274.482 464.171 274.268 463.614C274.101 463.038 273.889 462.482 273.766 461.906C272.838 457.208 272.497 452.425 272.75 447.653C272.884 442.822 273.264 437.928 273.777 432.981C274.29 428.035 274.893 423.203 275.574 418.424C275.92 416.035 276.255 413.677 276.601 411.329C276.768 410.156 276.935 408.982 277.103 407.829L277.337 406.089L277.426 405.23C277.441 404.975 277.441 404.72 277.426 404.465V404.098H277.739L329.923 406.624H330.236L330.146 406.907C329.172 409.792 328.234 412.587 327.334 415.291C326.475 418.026 325.727 420.688 324.957 423.245L320.75 437.477L320.571 437.257C331.887 437.561 340.882 437.781 347.031 438.001C353.18 438.504 356.45 439.112 356.45 439.112C356.45 439.112 356.238 439.112 355.837 439.049L354.029 438.839C352.444 438.672 350.089 438.378 347.02 438.19L320.571 437.603H320.292L320.359 437.393C321.62 433.034 323.015 428.276 324.499 423.14C325.258 420.583 325.995 417.9 326.854 415.186C327.713 412.472 328.684 409.653 329.644 406.802L329.867 407.096L277.661 404.633L277.951 404.276C277.991 404.604 277.991 404.934 277.951 405.262L277.862 406.142L277.627 407.882L277.125 411.392C276.79 413.74 276.444 416.098 276.098 418.487C275.44 423.256 274.815 428.108 274.313 433.023C273.811 437.938 273.42 442.832 273.275 447.695C273.023 452.421 273.356 457.158 274.268 461.812C274.402 462.378 274.603 462.912 274.759 463.467C274.958 464.001 275.2 464.52 275.485 465.019L275.931 465.742L276.5 466.402C276.868 466.849 277.263 467.276 277.683 467.68C279.387 469.26 281.318 470.607 283.419 471.684C287.568 473.677 291.982 475.14 296.543 476.033C300.888 476.904 305.292 477.489 309.723 477.783C314.031 478.087 318.227 478.045 322.29 478.003C330.414 477.898 337.992 477.699 344.9 477.521L354.765 477.238C356.316 477.186 357.834 477.175 359.229 477.081C360.638 476.974 362.037 476.771 363.414 476.473C367.991 475.476 372.204 473.357 375.623 470.332C377.818 468.453 379.577 466.17 380.79 463.625C381.078 462.953 381.27 462.248 381.359 461.529C381.493 461.026 381.471 460.774 381.493 460.774Z" fill="#263238"/>
<path d="M305.907 447.747C305.907 447.653 307.023 447.59 308.842 447.182C311.17 446.665 313.396 445.805 315.437 444.635C316.561 443.991 317.618 443.251 318.596 442.424C319.424 441.806 320.095 441.022 320.56 440.129C320.842 439.522 320.924 438.851 320.794 438.2C320.683 437.75 320.526 437.519 320.571 437.488C320.616 437.456 320.828 437.666 321.006 438.148C321.232 438.834 321.208 439.571 320.939 440.244C320.502 441.22 319.825 442.085 318.964 442.769C316.161 445.214 312.679 446.863 308.92 447.527C308.183 447.654 307.437 447.731 306.688 447.758C306.197 447.8 305.907 447.789 305.907 447.747Z" fill="#263238"/>
<path d="M323.852 463.352C323.763 463.352 323.852 462.21 323.852 460.397C323.852 455.646 322.768 450.95 320.671 446.626C319.868 444.97 319.276 443.985 319.355 443.943C320.036 444.706 320.603 445.552 321.04 446.458C323.369 450.772 324.479 455.575 324.265 460.407C324.273 461.402 324.134 462.393 323.852 463.352V463.352Z" fill="#263238"/>
<path d="M378.648 455.775C378.547 455.775 378.123 454.727 377.107 453.166C376.509 452.25 375.834 451.381 375.087 450.567C374.155 449.587 373.139 448.679 372.052 447.852C370.048 446.366 367.886 445.077 365.601 444.006C364.628 443.599 363.681 443.137 362.767 442.623C363.814 442.853 364.826 443.205 365.78 443.671C368.157 444.651 370.389 445.916 372.42 447.433C373.534 448.281 374.562 449.225 375.489 450.252C376.239 451.099 376.9 452.012 377.465 452.977C377.849 453.624 378.174 454.301 378.435 455C378.614 455.482 378.692 455.765 378.648 455.775Z" fill="#263238"/>
</svg>
