<svg width="558" height="524" viewBox="0 0 558 524" fill="none" xmlns="http://www.w3.org/2000/svg">
<path d="M58.3446 132.603C58.3446 132.603 51.5816 137.445 58.0656 143.838C58.1784 143.943 58.3305 144.004 58.4896 144.006L117.638 143.681C117.638 143.681 122.682 138.367 118.497 132.237L58.3446 132.603Z" fill="#EBEBEB"/>
<path d="M104.536 137.655C104.536 137.718 97.1814 137.77 88.0971 137.77C79.0129 137.77 71.6584 137.718 71.6584 137.655C71.6584 137.592 79.0241 137.54 88.0971 137.54C97.1702 137.54 104.536 137.592 104.536 137.655Z" fill="#E0E0E0"/>
<path d="M95.3399 139.667C95.3399 139.667 91.8803 139.772 87.6172 139.772C83.3541 139.772 79.8833 139.719 79.8833 139.667C79.8833 139.615 83.3429 139.552 87.6172 139.552C91.8915 139.552 95.3399 139.604 95.3399 139.667Z" fill="#E0E0E0"/>
<path d="M110.585 143.503C110.585 143.503 110.707 142.863 110.897 141.836C111.133 140.499 111.245 139.146 111.232 137.791C111.221 136.433 111.079 135.079 110.808 133.746C110.607 132.698 110.428 132.1 110.462 132.09C110.495 132.079 110.54 132.237 110.64 132.52C110.774 132.912 110.885 133.311 110.975 133.714C111.294 135.053 111.463 136.419 111.477 137.791C111.487 139.16 111.348 140.525 111.064 141.868C110.942 142.381 110.841 142.8 110.741 143.073C110.705 143.221 110.653 143.365 110.585 143.503Z" fill="#E0E0E0"/>
<path d="M114.948 132.174C115.053 132.295 115.139 132.429 115.205 132.572C115.307 132.733 115.397 132.901 115.473 133.075C115.562 133.274 115.685 133.494 115.774 133.756C116.013 134.352 116.2 134.965 116.332 135.59C116.489 136.361 116.578 137.143 116.6 137.927C116.598 138.711 116.523 139.493 116.376 140.264C116.256 140.896 116.077 141.517 115.841 142.119C115.763 142.381 115.64 142.601 115.562 142.8C115.484 143 115.383 143.167 115.305 143.304C115.232 143.446 115.146 143.583 115.048 143.712C115.048 143.712 115.339 143.094 115.685 142.067C115.889 141.467 116.049 140.854 116.164 140.233C116.288 139.47 116.352 138.699 116.354 137.927C116.343 137.158 116.265 136.39 116.12 135.632C115.999 135.014 115.832 134.404 115.618 133.809C115.294 132.782 114.948 132.195 114.948 132.174Z" fill="#E0E0E0"/>
<path d="M67.6743 143.576C67.5629 143.467 67.4689 143.343 67.3953 143.209C67.2962 143.061 67.2068 142.907 67.1274 142.748C67.027 142.559 66.9042 142.35 66.8038 142.109C66.5555 141.544 66.3649 140.958 66.2346 140.359C66.0782 139.62 65.9997 138.869 66.0002 138.116C66.0226 137.368 66.1197 136.625 66.2904 135.894C66.4546 135.292 66.6788 134.706 66.96 134.144C67.0716 133.903 67.1944 133.693 67.2948 133.515C67.381 133.356 67.4779 133.202 67.585 133.054C67.6657 132.925 67.7632 132.805 67.8751 132.698C67.8751 132.698 67.5292 133.253 67.1163 134.207C66.8768 134.763 66.6901 135.338 66.5583 135.926C66.3914 136.646 66.298 137.379 66.2792 138.116C66.2783 138.851 66.3492 139.584 66.4913 140.306C66.6152 140.894 66.7869 141.472 67.0047 142.035C67.3506 143.01 67.7189 143.576 67.6743 143.576Z" fill="#E0E0E0"/>
<path d="M61.2908 144.938C61.1767 144.804 61.0758 144.66 60.9895 144.509C60.8726 144.345 60.7682 144.173 60.677 143.995C60.5431 143.761 60.4239 143.519 60.3199 143.272C60.0358 142.639 59.8117 141.983 59.6503 141.312C59.4522 140.49 59.3401 139.651 59.3155 138.808C59.2975 137.965 59.3685 137.122 59.5275 136.292C59.6607 135.618 59.8548 134.955 60.1078 134.312C60.2083 134.029 60.331 133.798 60.4315 133.578C60.5319 133.358 60.6324 133.19 60.7216 133.044C60.798 132.891 60.8915 132.747 61.0006 132.614C61.0006 132.614 60.6658 133.264 60.2641 134.364C60.0367 135.008 59.8614 135.666 59.7396 136.334C59.6049 137.153 59.5415 137.98 59.5498 138.808C59.5736 139.636 59.6782 140.46 59.8623 141.27C60.0171 141.933 60.2222 142.585 60.4761 143.22C60.9225 144.299 61.3801 144.907 61.2908 144.938Z" fill="#E0E0E0"/>
<path d="M115.428 160.585V171.212H93.5432V160.585H115.428Z" fill="#EBEBEB"/>
<path d="M44.7405 165.993C44.7405 166.087 44.7405 166.181 44.7405 166.276C44.8432 167.827 45.5748 169.282 46.7849 170.343C47.995 171.403 49.5917 171.988 51.2468 171.977H116.432V171.212H100.976C99.4751 171.212 98.036 170.652 96.9749 169.656C95.9138 168.659 95.3176 167.308 95.3176 165.898V165.898C95.3176 164.489 95.9138 163.138 96.9749 162.141C98.036 161.145 99.4751 160.585 100.976 160.585H116.455V159.464L51.2468 159.663C50.3732 159.665 49.509 159.832 48.7053 160.154C47.9017 160.476 47.175 160.946 46.5683 161.536C45.9616 162.126 45.4872 162.825 45.1732 163.59C44.8593 164.356 44.7121 165.173 44.7405 165.993V165.993Z" fill="#E0E0E0"/>
<path d="M115.428 166.045C115.428 166.108 110.964 166.15 105.384 166.15C99.8041 166.15 95.3401 166.15 95.3401 166.045C95.3401 165.94 99.8041 165.93 105.384 165.93C110.964 165.93 115.428 165.982 115.428 166.045Z" fill="#E0E0E0"/>
<path d="M115.116 168.435C115.116 168.497 110.852 168.55 105.607 168.55C100.362 168.55 96.0989 168.497 96.0989 168.435C96.0989 168.372 100.351 168.319 105.607 168.319C110.864 168.319 115.116 168.372 115.116 168.435Z" fill="#E0E0E0"/>
<path d="M115.428 170.625C115.428 170.688 111.6 170.74 106.879 170.74C102.159 170.74 98.3308 170.74 98.3308 170.625C98.3308 170.51 102.159 170.51 106.879 170.51C111.6 170.51 115.428 170.562 115.428 170.625Z" fill="#E0E0E0"/>
<path d="M115.428 163.886C115.428 163.949 110.964 164.002 105.585 164.002C100.206 164.002 95.7417 163.949 95.7417 163.886C95.7417 163.823 100.15 163.781 105.585 163.781C111.02 163.781 115.428 163.823 115.428 163.886Z" fill="#E0E0E0"/>
<path d="M115.115 161.738C115.115 161.801 111.187 161.853 106.355 161.853C101.523 161.853 97.5942 161.801 97.5942 161.738C97.5942 161.675 101.511 161.633 106.355 161.633C111.198 161.633 115.115 161.675 115.115 161.738Z" fill="#E0E0E0"/>
<path d="M52.6417 159.841C52.1413 160.326 51.6788 160.844 51.2579 161.392C50.2714 162.733 49.7524 164.328 49.7724 165.957C49.7924 167.586 50.3504 169.17 51.3695 170.489C51.8053 171.027 52.2828 171.535 52.798 172.008C52.6246 171.924 52.4664 171.814 52.3293 171.683C51.9178 171.373 51.5436 171.022 51.2133 170.635C50.1251 169.308 49.5258 167.685 49.5057 166.01C49.4855 164.335 50.0457 162.7 51.1017 161.35C51.4093 160.94 51.7649 160.564 52.1619 160.229C52.3022 160.079 52.4637 159.949 52.6417 159.841V159.841Z" fill="#F5F5F5"/>
<path d="M50.4434 159.621C49.9544 160.1 49.5066 160.615 49.1042 161.161C48.1169 162.504 47.5983 164.102 47.6203 165.733C47.6423 167.365 48.2038 168.95 49.227 170.269C49.6552 170.807 50.1292 171.311 50.6443 171.778C50.4751 171.687 50.3178 171.578 50.1756 171.453C49.7609 171.146 49.3863 170.794 49.0596 170.405C47.9732 169.077 47.3741 167.455 47.352 165.781C47.3298 164.107 47.8859 162.472 48.9368 161.119C49.2655 160.71 49.6396 160.334 50.0528 159.998C50.1609 159.854 50.2928 159.726 50.4434 159.621V159.621Z" fill="#F5F5F5"/>
<path d="M94.7262 159.841C94.2296 160.329 93.7674 160.847 93.3423 161.392C92.3559 162.733 91.8368 164.328 91.8568 165.957C91.8768 167.586 92.4348 169.17 93.4539 170.489C93.8826 171.027 94.3526 171.535 94.8601 172.008C94.6888 171.921 94.5311 171.811 94.3914 171.683C93.98 171.373 93.6058 171.022 93.2754 170.635C92.194 169.305 91.599 167.683 91.5789 166.01C91.5588 164.337 92.1147 162.703 93.1638 161.35C93.4921 160.94 93.8662 160.564 94.2798 160.229C94.4132 160.085 94.5628 159.955 94.7262 159.841V159.841Z" fill="#F5F5F5"/>
<path d="M92.5275 159.621C92.0251 160.1 91.5624 160.615 91.1437 161.161C90.1515 162.502 89.6291 164.099 89.6491 165.732C89.6691 167.364 90.2306 168.95 91.2553 170.269C91.6732 170.802 92.1319 171.307 92.628 171.778C92.4588 171.687 92.3015 171.578 92.1592 171.453C91.7471 171.143 91.3728 170.792 91.0432 170.405C89.9569 169.077 89.3577 167.455 89.3356 165.781C89.3135 164.107 89.8695 162.472 90.9205 161.119C91.2316 160.712 91.5869 160.336 91.9807 159.998C92.139 159.844 92.3239 159.717 92.5275 159.621V159.621Z" fill="#F5F5F5"/>
<path d="M60.0632 167.491L59.9963 163.174C60.0182 162.797 59.9652 162.421 59.84 162.063C59.7737 161.883 59.6566 161.724 59.5013 161.602C59.346 161.48 59.1583 161.4 58.9584 161.371C58.3892 161.13 57.4853 161.581 57.0835 162.199C56.7383 162.848 56.5842 163.571 56.6371 164.295C56.624 165.436 56.6836 166.577 56.8157 167.711C56.8374 168.254 56.9819 168.787 57.2398 169.273C57.3562 169.524 57.5536 169.735 57.8042 169.875C58.0548 170.016 58.346 170.079 58.6367 170.056C58.9275 170.033 59.2032 169.924 59.4251 169.746C59.647 169.568 59.8038 169.329 59.8735 169.063C60.0348 168.554 60.099 168.022 60.0632 167.491V167.491Z" fill="#F5F5F5"/>
<path d="M85.3739 166.244C85.3739 166.307 80.6644 166.359 74.8501 166.359C69.0357 166.359 64.3262 166.307 64.3262 166.244C64.3262 166.181 69.0357 166.139 74.8501 166.139C80.6644 166.139 85.3739 166.192 85.3739 166.244Z" fill="#F5F5F5"/>
<path d="M55.6997 159.422L55.5769 149.35H61.4136L61.6145 159.422H55.6997Z" fill="#F5F5F5"/>
<path d="M61.0676 151.143C60.1691 151.257 59.2615 151.295 58.3557 151.258C57.4499 151.295 56.5423 151.257 55.6438 151.143C56.5423 151.028 57.4499 150.99 58.3557 151.027C59.2615 150.99 60.1691 151.028 61.0676 151.143V151.143Z" fill="#E0E0E0"/>
<path d="M61.0676 152.694C60.1691 152.808 59.2615 152.846 58.3557 152.809C57.4499 152.846 56.5423 152.808 55.6438 152.694C56.5429 152.586 57.4502 152.551 58.3557 152.589C59.2612 152.551 60.1684 152.586 61.0676 152.694V152.694Z" fill="#E0E0E0"/>
<path d="M61.0676 154.255C60.1679 154.356 59.2612 154.391 58.3557 154.36C57.4502 154.391 56.5435 154.356 55.6438 154.255C56.5423 154.141 57.4499 154.102 58.3557 154.14C59.2615 154.102 60.1691 154.141 61.0676 154.255V154.255Z" fill="#E0E0E0"/>
<path d="M61.0676 155.806C60.1691 155.92 59.2615 155.959 58.3557 155.921C57.4499 155.959 56.5423 155.92 55.6438 155.806C56.5423 155.692 57.4499 155.653 58.3557 155.691C59.2615 155.653 60.1691 155.692 61.0676 155.806V155.806Z" fill="#E0E0E0"/>
<path d="M61.0676 157.357C60.1691 157.472 59.2615 157.51 58.3557 157.472C57.4499 157.51 56.5423 157.472 55.6438 157.357C56.5423 157.243 57.4499 157.204 58.3557 157.242C59.2615 157.204 60.1691 157.243 61.0676 157.357V157.357Z" fill="#E0E0E0"/>
<path d="M55.2644 149.089H119.992C120.735 152.681 120.735 156.374 119.992 159.967H55.5434V159.223H59.4717C59.7197 159.23 59.9666 159.19 60.1978 159.106C60.4291 159.021 60.6399 158.894 60.8179 158.732C60.9959 158.57 61.1374 158.376 61.2339 158.161C61.3305 157.946 61.3802 157.716 61.3801 157.483V151.457C61.3801 151.228 61.3318 151.001 61.238 150.789C61.1442 150.577 61.0067 150.385 60.8335 150.223C60.6603 150.061 60.4548 149.934 60.2287 149.847C60.0027 149.76 59.7606 149.716 59.5164 149.717H55.2644V149.089Z" fill="#EBEBEB"/>
<path d="M70.5537 154.528H71.6697C71.7061 154.517 71.745 154.517 71.7813 154.528C71.8185 154.545 71.8496 154.572 71.8713 154.606C71.893 154.639 71.9044 154.677 71.9041 154.716C71.9041 154.716 71.9041 154.769 71.9041 154.79C71.8832 154.875 71.8571 154.959 71.826 155.041C71.7013 155.469 71.472 155.864 71.1564 156.194C71.0431 156.324 70.9022 156.43 70.7427 156.506C70.5832 156.582 70.4086 156.625 70.2301 156.634H70.1073C69.9516 156.609 69.8041 156.551 69.6764 156.463C69.5486 156.376 69.444 156.262 69.3708 156.131C69.1449 155.762 69.0328 155.341 69.0471 154.915C69.0516 154.624 69.1005 154.335 69.1922 154.056C69.3029 153.62 69.5208 153.214 69.8283 152.872C69.9437 152.731 70.0901 152.614 70.2577 152.531C70.4253 152.448 70.61 152.4 70.7992 152.39C70.9429 152.39 71.0845 152.422 71.2122 152.484C71.3641 152.56 71.4979 152.664 71.6054 152.79C71.7129 152.916 71.7917 153.062 71.8371 153.218C71.849 153.252 71.849 153.288 71.8371 153.322C71.8477 153.357 71.8477 153.393 71.8371 153.427C71.8166 153.461 71.7875 153.489 71.7524 153.509C71.7173 153.529 71.6773 153.541 71.6362 153.542H71.5581C71.5228 153.531 71.4911 153.512 71.4657 153.486C71.4404 153.461 71.4223 153.43 71.413 153.396V153.396C71.3845 153.308 71.3391 153.227 71.2791 153.155C71.2433 153.068 71.1838 152.991 71.1065 152.932C71.0292 152.873 70.9368 152.834 70.8385 152.819C70.7403 152.805 70.6396 152.814 70.5466 152.847C70.4535 152.88 70.3713 152.936 70.3082 153.008C70.0372 153.218 69.8326 153.493 69.7167 153.804C69.5528 154.166 69.4656 154.554 69.46 154.947C69.4515 155.257 69.5163 155.565 69.6498 155.848C69.6902 155.958 69.7652 156.054 69.8648 156.123C69.9644 156.192 70.0839 156.232 70.2078 156.236C70.3122 156.224 70.413 156.192 70.5034 156.142C70.5937 156.091 70.6718 156.023 70.7323 155.942C70.9839 155.666 71.1736 155.346 71.2903 154.999H70.5091C70.4409 154.994 70.3771 154.966 70.3298 154.919C70.2825 154.873 70.2549 154.812 70.2524 154.748C70.2524 154.748 70.2524 154.748 70.2524 154.674C70.2728 154.618 70.3156 154.572 70.3717 154.544C70.4278 154.517 70.493 154.511 70.5537 154.528V154.528Z" fill="#FAFAFA"/>
<path d="M77.8409 156.666H75.8879C75.8478 156.676 75.8053 156.676 75.7652 156.666C75.7306 156.636 75.7028 156.601 75.6836 156.561C75.6643 156.522 75.6541 156.479 75.6536 156.435V156.435C75.6536 156.362 75.8321 155.114 76.1892 152.683C76.1892 152.683 76.1892 152.683 76.1892 152.61C76.2038 152.568 76.2325 152.533 76.2708 152.508C76.3091 152.483 76.3549 152.471 76.4013 152.474H76.5017C76.5416 152.491 76.5748 152.519 76.5968 152.555C76.6188 152.59 76.6285 152.632 76.6245 152.673C76.6245 152.83 76.6245 153.176 76.4906 153.721C76.2785 155.314 76.1558 156.162 76.1446 156.246H77.8075C77.8478 156.237 77.8899 156.237 77.9302 156.246C77.9754 156.258 78.0146 156.285 78.0411 156.321C78.0676 156.358 78.0797 156.402 78.0753 156.445C78.0807 156.47 78.0807 156.495 78.0753 156.519C78.057 156.563 78.0247 156.601 77.9827 156.627C77.9408 156.653 77.8913 156.667 77.8409 156.666Z" fill="#FAFAFA"/>
<path d="M83.6108 154.716C83.7559 155.114 83.8787 155.418 83.9568 155.628C84.1577 156.152 84.2581 156.424 84.2581 156.456C84.2696 156.494 84.2696 156.534 84.2581 156.571C84.2371 156.606 84.2054 156.634 84.1671 156.652C84.1289 156.669 84.0859 156.676 84.0438 156.67C84.0017 156.664 83.9623 156.647 83.9309 156.62C83.8994 156.593 83.8773 156.558 83.8675 156.519V156.424C83.7559 156.204 83.5885 155.775 83.343 155.135L82.227 156.55C82.2083 156.585 82.1795 156.614 82.144 156.635C82.1085 156.655 82.0677 156.666 82.0261 156.666C81.9858 156.675 81.9437 156.675 81.9033 156.666C81.8683 156.649 81.8391 156.624 81.8192 156.592C81.7994 156.56 81.7899 156.524 81.7917 156.487V156.487C81.8206 156.421 81.8622 156.361 81.9145 156.309C82.2828 155.859 82.6957 155.324 83.1421 154.706C83.0912 154.593 83.0465 154.477 83.0082 154.36C82.5841 153.312 82.3832 152.777 82.3832 152.736C82.3733 152.701 82.3733 152.665 82.3832 152.631C82.3969 152.597 82.4213 152.567 82.4532 152.547C82.4852 152.526 82.523 152.515 82.5618 152.515C82.6075 152.516 82.6524 152.528 82.6916 152.55C82.7309 152.572 82.7631 152.603 82.785 152.641L83.4323 154.287L84.738 152.62C84.7617 152.591 84.7921 152.568 84.8269 152.551C84.8617 152.535 84.9 152.526 84.9389 152.526C84.9751 152.515 85.0142 152.515 85.0505 152.526C85.0873 152.546 85.1174 152.575 85.1371 152.61C85.1569 152.645 85.1655 152.685 85.1621 152.725C85.1662 152.756 85.1662 152.788 85.1621 152.819L83.6108 154.716Z" fill="#FAFAFA"/>
<path d="M88.4318 152.463C88.4684 152.454 88.5068 152.454 88.5434 152.463C88.579 152.482 88.609 152.51 88.6304 152.543C88.6519 152.576 88.6642 152.613 88.6662 152.652C88.3388 155.02 88.1602 156.299 88.1305 156.487C88.0778 156.845 87.9363 157.186 87.7176 157.483C87.5722 157.676 87.3775 157.832 87.1513 157.937C86.9252 158.041 86.6748 158.09 86.423 158.08C86.2066 158.069 85.9945 158.02 85.798 157.934C85.5055 157.823 85.2642 157.619 85.1173 157.357C85.1061 157.323 85.1061 157.287 85.1173 157.252C85.1073 157.218 85.1073 157.182 85.1173 157.148C85.1365 157.114 85.1657 157.086 85.2013 157.067C85.2369 157.049 85.2775 157.04 85.3182 157.043C85.3527 157.044 85.3866 157.052 85.4174 157.066C85.4483 157.081 85.4754 157.101 85.4967 157.127C85.605 157.284 85.7516 157.414 85.9243 157.507C86.0971 157.6 86.291 157.653 86.49 157.661C86.6412 157.659 86.79 157.625 86.9252 157.562C87.0605 157.498 87.1787 157.407 87.2712 157.294C87.5374 156.961 87.6858 156.558 87.6952 156.142C87.6232 156.252 87.5284 156.349 87.4162 156.425C87.2154 156.571 86.9674 156.649 86.7132 156.645H86.5792C86.4235 156.62 86.2761 156.561 86.1483 156.474C86.0206 156.387 85.916 156.273 85.8427 156.142C85.6104 155.775 85.4979 155.352 85.519 154.926C85.519 154.702 85.519 154.472 85.519 154.234C85.519 153.867 85.6418 153.343 85.7757 152.662C85.7757 152.662 85.7757 152.662 85.7757 152.599C85.7883 152.556 85.816 152.518 85.8545 152.491C85.893 152.465 85.94 152.451 85.9878 152.453C86.0243 152.443 86.0628 152.443 86.0994 152.453C86.1345 152.466 86.1642 152.489 86.1843 152.519C86.2043 152.549 86.2137 152.585 86.211 152.62C86.211 152.736 86.211 153.008 86.1105 153.459C86.0344 153.882 85.9822 154.309 85.9543 154.737C85.9399 155.074 86.0007 155.409 86.1328 155.722C86.2556 156.026 86.4565 156.173 86.702 156.173H86.7801C87.0291 156.101 87.2402 155.944 87.3716 155.733C87.603 155.416 87.7661 155.06 87.8515 154.685L88.1416 152.589C88.1369 152.558 88.1369 152.526 88.1416 152.495C88.158 152.474 88.1787 152.457 88.2024 152.444C88.2261 152.431 88.2523 152.423 88.2795 152.42C88.3067 152.417 88.3342 152.419 88.3604 152.427C88.3866 152.434 88.4109 152.447 88.4318 152.463V152.463Z" fill="#FAFAFA"/>
<path d="M117.515 160.113C117.448 160.113 117.403 157.609 117.403 154.528C117.403 151.446 117.403 148.942 117.515 148.942C117.627 148.942 117.638 151.446 117.638 154.528C117.638 157.609 117.582 160.113 117.515 160.113Z" fill="#F5F5F5"/>
<path d="M64.583 160.113C64.5161 160.113 64.4714 157.609 64.4714 154.528C64.4714 151.446 64.4714 148.942 64.583 148.942C64.6946 148.942 64.7058 151.446 64.7058 154.528C64.7058 157.609 64.65 160.113 64.583 160.113Z" fill="#E0E0E0"/>
<path d="M118.653 160.113C118.586 160.113 118.531 157.609 118.531 154.528C118.531 151.446 118.586 148.942 118.653 148.942C118.72 148.942 118.776 151.446 118.776 154.528C118.776 157.609 118.72 160.113 118.653 160.113Z" fill="#F5F5F5"/>
<path d="M63.5227 160.113C63.4558 160.113 63.4111 157.609 63.4111 154.528C63.4111 151.446 63.4111 148.942 63.5227 148.942C63.6343 148.942 63.6455 151.446 63.6455 154.528C63.6455 157.609 63.612 160.113 63.5227 160.113Z" fill="#E0E0E0"/>
<path d="M101.835 150.786L108.676 155.963H108.598L107.694 156.194L101.924 157.609L96.7014 155.513L95.2171 154.926L94.8265 154.758H94.7261H94.8265L95.2283 154.915L96.7126 155.492L101.958 157.588L107.716 156.152L108.62 155.921V155.995L101.802 150.755" fill="#E0E0E0"/>
<path d="M108.04 155.135L108.419 155.46L108.911 155.366L108.698 155.796L108.955 156.215L108.442 156.152L108.107 156.508L108.007 156.037L107.538 155.848L107.995 155.618L108.04 155.135Z" fill="#E0E0E0"/>
<path d="M101.489 157.179L101.735 157.378L102.058 157.294L101.936 157.577L102.114 157.839L101.791 157.818L101.579 158.059L101.5 157.766L101.188 157.651L101.467 157.493L101.489 157.179Z" fill="#E0E0E0"/>
<path d="M94.2351 154.391L94.648 154.412L94.8935 154.108L94.994 154.486L95.3846 154.611L95.0386 154.811L95.0163 155.198L94.7038 154.957L94.3132 155.062L94.4695 154.706L94.2351 154.391Z" fill="#E0E0E0"/>
<path d="M111.109 150.86L111.511 150.891L111.767 150.587L111.868 150.954L112.247 151.09L111.901 151.289L111.89 151.677L111.578 151.436L111.187 151.541L111.332 151.184L111.109 150.86Z" fill="#E0E0E0"/>
<path d="M101.5 150.619L101.757 150.629L101.924 150.44L101.991 150.671L102.226 150.755L102.014 150.891L102.002 151.132L101.802 150.975L101.556 151.048L101.645 150.818L101.5 150.619Z" fill="#E0E0E0"/>
<path d="M111.678 151.132C111.678 151.132 109.446 151.132 106.734 150.975C104.023 150.818 101.802 150.755 101.802 150.734C101.802 150.713 104.034 150.734 106.746 150.891C109.458 151.048 111.678 151.111 111.678 151.132Z" fill="#E0E0E0"/>
<path d="M114.156 148.994H48.5573C47.698 147.16 47.4413 145.42 48.5573 143.859H114.156C114.567 144.66 114.781 145.537 114.781 146.427C114.781 147.316 114.567 148.193 114.156 148.994V148.994Z" fill="#E0E0E0"/>
<path d="M97.6835 145.326H62.1389V147.192H97.6835V145.326Z" fill="#EBEBEB"/>
<path d="M51.0794 149.015C51.0794 149.015 50.8228 148.826 50.5549 148.397C50.2219 147.835 50.0202 147.214 49.9634 146.573C49.9039 145.935 49.9876 145.293 50.209 144.687C50.2837 144.43 50.4212 144.193 50.6107 143.995C50.5475 144.247 50.4693 144.496 50.3764 144.739C50.2033 145.333 50.1429 145.95 50.1978 146.563C50.2539 147.174 50.4278 147.771 50.7112 148.323C50.8479 148.547 50.9708 148.778 51.0794 149.015Z" fill="#E0E0E0"/>
<path d="M52.452 149.015C52.452 149.015 52.1953 148.826 51.9386 148.397C51.5964 147.838 51.3906 147.216 51.336 146.573C51.2765 145.935 51.3601 145.293 51.5815 144.687C51.6615 144.432 51.7984 144.196 51.9833 143.995C51.9201 144.247 51.8418 144.496 51.7489 144.739C51.5759 145.333 51.5154 145.95 51.5703 146.563C51.6264 147.174 51.8004 147.771 52.0837 148.323C52.2204 148.547 52.3434 148.778 52.452 149.015Z" fill="#E0E0E0"/>
<path d="M111.511 148.9C111.766 148.084 111.919 147.244 111.968 146.395C111.939 145.543 111.792 144.697 111.533 143.88C112.02 144.636 112.253 145.513 112.203 146.395C112.233 147.275 111.992 148.145 111.511 148.9V148.9Z" fill="#F5F5F5"/>
<path d="M110.283 148.889C110.216 148.889 110.495 147.841 110.484 146.427C110.473 145.012 110.205 143.995 110.283 143.974C110.614 144.753 110.762 145.589 110.719 146.427C110.761 147.267 110.613 148.107 110.283 148.889V148.889Z" fill="#F5F5F5"/>
<path d="M168.419 72.5972L145.061 72.7159L145.195 95.9811L168.553 95.8625L168.419 72.5972Z" fill="#EBEBEB"/>
<path d="M192.021 71.6434L168.664 71.8627L168.911 95.1283L192.269 94.909L192.021 71.6434Z" fill="#F5F5F5"/>
<path d="M145.08 79.145C160.604 79.2707 176.172 79.145 191.684 78.9458C191.75 78.9458 191.812 78.9216 191.858 78.8783C191.904 78.8351 191.93 78.7764 191.93 78.7153C191.93 78.6541 191.904 78.5955 191.858 78.5522C191.812 78.509 191.75 78.4847 191.684 78.4847C176.165 78.4009 160.63 78.4882 145.08 78.7467C145.024 78.7467 144.97 78.7677 144.93 78.805C144.891 78.8424 144.868 78.893 144.868 78.9458C144.868 78.9987 144.891 79.0493 144.93 79.0866C144.97 79.124 145.024 79.145 145.08 79.145Z" fill="#E0E0E0"/>
<path d="M172.937 95.4728L130.496 95.6884L130.605 114.646L173.046 114.431L172.937 95.4728Z" fill="#EBEBEB"/>
<path d="M215.187 95.2582L172.746 95.4738L172.855 114.432L215.296 114.216L215.187 95.2582Z" fill="#F5F5F5"/>
<path d="M130.572 100.975C158.762 101.268 187.053 100.975 215.243 100.577C215.308 100.577 215.371 100.552 215.417 100.509C215.463 100.466 215.488 100.407 215.488 100.346C215.488 100.285 215.463 100.226 215.417 100.183C215.371 100.14 215.308 100.115 215.243 100.115C187.053 99.9792 158.751 99.9896 130.561 100.577C130.505 100.577 130.451 100.598 130.411 100.635C130.371 100.672 130.349 100.723 130.349 100.776C130.349 100.828 130.371 100.879 130.411 100.916C130.451 100.954 130.505 100.975 130.561 100.975H130.572Z" fill="#E0E0E0"/>
<path d="M134.641 202.813L92.2 203.029L92.3092 221.987L134.75 221.771L134.641 202.813Z" fill="#EBEBEB"/>
<path d="M176.88 202.588L134.439 202.804L134.548 221.762L176.989 221.546L176.88 202.588Z" fill="#F5F5F5"/>
<path d="M92.2153 208.3C120.405 208.604 148.696 208.3 176.897 207.913C176.955 207.901 177.007 207.872 177.044 207.829C177.081 207.786 177.101 207.732 177.101 207.677C177.101 207.622 177.081 207.568 177.044 207.525C177.007 207.482 176.955 207.453 176.897 207.441C148.707 207.305 120.417 207.315 92.2264 207.902C92.1702 207.902 92.1163 207.923 92.0765 207.961C92.0368 207.998 92.0144 208.049 92.0144 208.101C92.0144 208.154 92.0368 208.205 92.0765 208.242C92.1163 208.279 92.1702 208.3 92.2264 208.3H92.2153Z" fill="#E0E0E0"/>
<path d="M77.6547 64.6846L66.9524 64.739L67.2406 114.759L77.9429 114.705L77.6547 64.6846Z" fill="#E0E0E0"/>
<path d="M88.1046 46.0295L77.4023 46.0839L77.7987 114.884L88.501 114.83L88.1046 46.0295Z" fill="#EBEBEB"/>
<path d="M104.851 58.8453L88.2119 58.9298L88.5331 114.683L105.172 114.598L104.851 58.8453Z" fill="#F5F5F5"/>
<path d="M104.725 69.5872C101.963 69.8498 99.1858 69.9373 96.4113 69.8492C93.6331 69.9375 90.8516 69.8499 88.0859 69.5872C90.8507 69.3112 93.6328 69.2202 96.4113 69.3147C99.1861 69.2204 101.964 69.3114 104.725 69.5872V69.5872Z" fill="#E0E0E0"/>
<path d="M104.725 67.2397C101.964 67.5092 99.1861 67.6002 96.4113 67.5122C93.6328 67.6004 90.8511 67.5093 88.0859 67.2397C90.8511 66.97 93.6328 66.879 96.4113 66.9672C99.1861 66.8792 101.964 66.9702 104.725 67.2397V67.2397Z" fill="#E0E0E0"/>
<path d="M104.725 106.204C101.964 106.48 99.1861 106.571 96.4113 106.477C93.6328 106.571 90.8507 106.48 88.0859 106.204C90.8511 105.935 93.6328 105.844 96.4113 105.932C99.1861 105.844 101.964 105.935 104.725 106.204V106.204Z" fill="#E0E0E0"/>
<path d="M104.725 103.867C101.964 104.137 99.1861 104.228 96.4113 104.14C93.6328 104.228 90.8511 104.137 88.0859 103.867C90.8511 103.598 93.6328 103.507 96.4113 103.595C99.1861 103.507 101.964 103.598 104.725 103.867V103.867Z" fill="#E0E0E0"/>
<path d="M96.6791 98.7531C96.5117 98.7531 96.3889 93.1253 96.3889 86.1771C96.3889 79.2288 96.5117 73.6011 96.6791 73.6011C96.8465 73.6011 96.9581 79.2184 96.9581 86.1771C96.9581 93.1358 96.8353 98.7531 96.6791 98.7531Z" fill="#E0E0E0"/>
<path d="M123.006 72.5321H104.904V114.62H123.006V72.5321Z" fill="#EBEBEB"/>
<path d="M85.6754 57.7762C85.6777 58.3483 85.4992 58.9082 85.1625 59.385C84.8259 59.8618 84.3463 60.2341 83.7843 60.455C83.2223 60.6758 82.6033 60.7352 82.0053 60.6256C81.4074 60.5161 80.8575 60.2424 80.4252 59.8394C79.9929 59.4363 79.6975 58.922 79.5765 58.3613C79.4555 57.8006 79.5143 57.2188 79.7453 56.6895C79.9764 56.1602 80.3695 55.7071 80.8748 55.3875C81.3801 55.068 81.9749 54.8963 82.5841 54.8942C82.989 54.8915 83.3905 54.964 83.7654 55.1076C84.1404 55.2512 84.4813 55.463 84.7687 55.7309C85.056 55.9988 85.2841 56.3174 85.4397 56.6685C85.5953 57.0195 85.6755 57.396 85.6754 57.7762V57.7762Z" fill="#E0E0E0"/>
<path d="M83.5439 65.7306H81.6467V106.655H83.5439V65.7306Z" fill="#E0E0E0"/>
<path d="M225.611 172.323H37.1294V178.38H225.611V172.323Z" fill="#E0E0E0"/>
<path d="M225.611 114.892H37.1294V120.95H225.611V114.892Z" fill="#E0E0E0"/>
<path d="M225.611 222.019H75.5979V227.73H225.611V222.019Z" fill="#E0E0E0"/>
<path d="M131.364 119.755H124.177V176.892H131.364V119.755Z" fill="#E0E0E0"/>
<path d="M82.8184 172.323H75.6313V227.709H82.8184V172.323Z" fill="#E0E0E0"/>
<path d="M167.4 146.353L162.936 152.316C162.936 152.316 172.88 154.905 172.88 163.205C172.88 171.505 166.798 173.056 160.18 173.056C153.562 173.056 147.201 171.243 147.468 162.943C147.736 154.643 156.028 151.53 156.028 151.53L151.888 146.353H167.4Z" fill="#F5F5F5"/>
<path d="M467.013 359.862H267.494V446.27H467.013V359.862Z" fill="#F5F5F5"/>
<path d="M462.258 442.193H272.059V364.411H462.258V442.193ZM273.297 441.03H461.02V365.574H273.297V441.03Z" fill="#E0E0E0"/>
<path d="M515.759 359.862H467.013V446.27H515.759V359.862Z" fill="#E0E0E0"/>
<path d="M272.672 388.483H461.645C461.702 388.472 461.754 388.442 461.791 388.399C461.828 388.356 461.848 388.303 461.848 388.247C461.848 388.192 461.828 388.139 461.791 388.096C461.754 388.053 461.702 388.023 461.645 388.012H272.672C272.615 388.023 272.563 388.053 272.526 388.096C272.489 388.139 272.469 388.192 272.469 388.247C272.469 388.303 272.489 388.356 272.526 388.399C272.563 388.442 272.615 388.472 272.672 388.483V388.483Z" fill="#E0E0E0"/>
<path d="M367.778 388.242C368.302 380.429 368.325 372.593 367.845 364.777C367.845 364.713 367.818 364.652 367.77 364.607C367.722 364.562 367.656 364.536 367.588 364.536C367.52 364.536 367.455 364.562 367.407 364.607C367.359 364.652 367.331 364.713 367.331 364.777C366.852 372.593 366.874 380.429 367.398 388.242C367.398 388.289 367.418 388.335 367.454 388.368C367.49 388.401 367.538 388.42 367.588 388.42C367.638 388.42 367.687 388.401 367.722 388.368C367.758 388.335 367.778 388.289 367.778 388.242Z" fill="#E0E0E0"/>
<path d="M418.634 376.515C418.634 376.994 418.482 377.463 418.199 377.861C417.915 378.259 417.512 378.57 417.04 378.753C416.568 378.935 416.049 378.983 415.549 378.889C415.049 378.794 414.589 378.563 414.229 378.223C413.869 377.883 413.624 377.451 413.526 376.981C413.428 376.511 413.481 376.023 413.677 375.581C413.874 375.139 414.206 374.762 414.632 374.497C415.057 374.232 415.557 374.092 416.067 374.094C416.405 374.094 416.74 374.157 417.052 374.279C417.364 374.4 417.648 374.579 417.886 374.804C418.125 375.029 418.313 375.296 418.442 375.589C418.57 375.883 418.635 376.198 418.634 376.515V376.515Z" fill="#E0E0E0"/>
<path d="M319.466 376.515C319.475 376.998 319.33 377.472 319.05 377.876C318.769 378.281 318.366 378.598 317.893 378.786C317.419 378.974 316.897 379.025 316.392 378.932C315.888 378.839 315.425 378.606 315.062 378.264C314.699 377.922 314.454 377.486 314.357 377.012C314.26 376.538 314.317 376.047 314.519 375.603C314.721 375.16 315.06 374.783 315.492 374.521C315.925 374.26 316.43 374.126 316.944 374.136C317.611 374.147 318.248 374.401 318.719 374.845C319.19 375.289 319.458 375.888 319.466 376.515V376.515Z" fill="#E0E0E0"/>
<path d="M369.731 403.302C369.731 403.781 369.579 404.249 369.296 404.648C369.012 405.046 368.609 405.356 368.137 405.539C367.665 405.722 367.146 405.77 366.646 405.675C366.145 405.581 365.686 405.349 365.326 405.01C364.966 404.67 364.721 404.238 364.623 403.768C364.525 403.297 364.578 402.81 364.774 402.368C364.971 401.926 365.303 401.549 365.729 401.284C366.154 401.019 366.654 400.879 367.164 400.881C367.846 400.884 368.499 401.14 368.98 401.594C369.461 402.047 369.731 402.662 369.731 403.302V403.302Z" fill="#E0E0E0"/>
<path d="M291.343 446.27L281.076 500.525H286.845L305.784 446.27H291.343Z" fill="#E0E0E0"/>
<path d="M452.895 446.27L461.488 500.619H455.707L438.454 446.27H452.895Z" fill="#E0E0E0"/>
<path d="M491.464 446.27L501.196 500.619H495.415L477.023 446.27H491.464Z" fill="#E0E0E0"/>
<path d="M369.563 427.762C369.563 428.241 369.412 428.709 369.129 429.107C368.846 429.505 368.443 429.816 367.972 429.999C367.501 430.182 366.983 430.23 366.483 430.137C365.982 430.043 365.523 429.813 365.163 429.474C364.802 429.135 364.556 428.704 364.457 428.234C364.358 427.765 364.409 427.278 364.604 426.836C364.799 426.393 365.129 426.015 365.553 425.749C365.977 425.483 366.476 425.341 366.985 425.341C367.669 425.341 368.325 425.596 368.808 426.05C369.292 426.504 369.563 427.12 369.563 427.762V427.762Z" fill="#E0E0E0"/>
<path d="M272.672 415.239H461.645C461.702 415.227 461.754 415.197 461.791 415.154C461.828 415.112 461.848 415.058 461.848 415.003C461.848 414.948 461.828 414.894 461.791 414.851C461.754 414.808 461.702 414.778 461.645 414.767H272.672C272.615 414.778 272.563 414.808 272.526 414.851C272.489 414.894 272.469 414.948 272.469 415.003C272.469 415.058 272.489 415.112 272.526 415.154C272.563 415.197 272.615 415.227 272.672 415.239Z" fill="#E0E0E0"/>
<path d="M406.77 330.515L406.706 318.987L346.376 319.284L346.44 330.812L406.77 330.515Z" fill="#E0E0E0"/>
<path d="M414.018 359.611L413.918 341.691L346.68 342.021L346.78 359.942L414.018 359.611Z" fill="#F5F5F5"/>
<path d="M401.09 359.464C400.901 359.464 400.756 355.45 400.756 350.504C400.756 345.557 400.901 341.543 401.09 341.543C401.413 344.52 401.521 347.513 401.414 350.504C401.521 353.494 401.413 356.488 401.09 359.464V359.464Z" fill="#E0E0E0"/>
<path d="M403.914 359.464C403.584 356.488 403.472 353.494 403.579 350.504C403.472 347.513 403.584 344.519 403.914 341.543C404.237 344.52 404.345 347.513 404.238 350.504C404.345 353.494 404.237 356.488 403.914 359.464V359.464Z" fill="#E0E0E0"/>
<path d="M356.919 359.464C356.596 356.488 356.488 353.494 356.596 350.504C356.488 347.513 356.596 344.52 356.919 341.543C357.242 344.52 357.35 347.513 357.243 350.504C357.35 353.494 357.242 356.488 356.919 359.464V359.464Z" fill="#E0E0E0"/>
<path d="M359.743 359.464C359.42 356.488 359.312 353.494 359.419 350.504C359.312 347.513 359.42 344.52 359.743 341.543C360.066 344.52 360.174 347.513 360.066 350.504C360.174 353.494 360.066 356.488 359.743 359.464V359.464Z" fill="#E0E0E0"/>
<path d="M365.903 350.829C365.903 350.65 372.688 350.514 381.058 350.514C389.428 350.514 396.202 350.65 396.202 350.829C396.202 351.007 389.428 351.132 381.058 351.132C372.688 351.132 365.903 350.996 365.903 350.829Z" fill="#E0E0E0"/>
<path d="M439.268 341.584L439.203 330.057L356.241 330.464L356.305 341.992L439.268 341.584Z" fill="#EBEBEB"/>
<path d="M427.428 340.17C426.641 340.183 425.868 339.975 425.206 339.574C424.545 339.174 424.025 338.597 423.713 337.918C423.401 337.24 423.311 336.489 423.454 335.762C423.597 335.036 423.967 334.365 424.516 333.836C425.066 333.306 425.77 332.942 426.541 332.79C427.311 332.637 428.112 332.703 428.842 332.978C429.573 333.254 430.2 333.727 430.643 334.338C431.087 334.948 431.327 335.669 431.334 336.408C431.343 336.896 431.249 337.382 431.057 337.836C430.865 338.29 430.579 338.704 430.216 339.054C429.853 339.403 429.419 339.682 428.941 339.874C428.462 340.065 427.948 340.166 427.428 340.17V340.17Z" fill="#E0E0E0"/>
<path d="M416.625 337.592V335.287H361.082V337.592H416.625Z" fill="#E0E0E0"/>
<path d="M469.122 162.985H374.586V255.523H469.122V162.985Z" fill="#E0E0E0"/>
<path d="M462.727 162.985H368.191V255.523H462.727V162.985Z" fill="#FAFAFA"/>
<path d="M462.749 255.544H368.157V162.954H462.749V255.544ZM368.213 255.492H462.693V163.006H368.213V255.492Z" fill="#E0E0E0"/>
<path d="M450.005 175.425H380.891V243.084H450.005V175.425Z" fill="white"/>
<path d="M380.891 243.534C380.398 244.211 379.825 244.833 379.183 245.389C378.067 246.437 376.539 247.967 374.798 249.581C373.057 251.195 371.45 252.631 370.334 253.647C369.732 254.237 369.062 254.76 368.336 255.209C368.819 254.528 369.388 253.905 370.032 253.354C371.148 252.254 372.688 250.776 374.496 249.162C376.304 247.548 377.844 246.112 378.96 245.096C379.535 244.505 380.184 243.981 380.891 243.534V243.534Z" fill="#E0E0E0"/>
<path d="M450.005 243.367C450.733 243.824 451.4 244.362 451.991 244.97C453.163 246.018 454.737 247.454 456.455 249.089C458.174 250.723 459.703 252.233 460.785 253.281C461.416 253.843 461.974 254.473 462.448 255.157C461.722 254.72 461.055 254.203 460.462 253.616C459.29 252.568 457.716 251.122 455.998 249.476C454.279 247.831 452.75 246.332 451.668 245.232C451.042 244.669 450.485 244.044 450.005 243.367V243.367Z" fill="#E0E0E0"/>
<path d="M449.826 175.603C450.31 174.92 450.88 174.293 451.522 173.737C452.639 172.689 454.179 171.17 455.92 169.545C457.661 167.921 459.268 166.506 460.439 165.49C461.031 164.891 461.703 164.366 462.437 163.928C461.947 164.604 461.378 165.226 460.741 165.783C459.625 166.831 458.073 168.361 456.277 169.975C454.48 171.589 452.929 173.025 451.813 174.041C451.217 174.632 450.551 175.156 449.826 175.603Z" fill="#E0E0E0"/>
<path d="M380.701 175.771C379.978 175.311 379.315 174.772 378.726 174.167C377.554 173.119 375.98 171.673 374.262 170.038C372.543 168.403 371.025 166.894 369.943 165.846C369.315 165.281 368.758 164.652 368.28 163.97C369.009 164.419 369.672 164.955 370.255 165.563C371.371 166.611 373.001 168.057 374.719 169.692C376.438 171.327 377.967 172.836 379.049 173.947C379.678 174.488 380.233 175.101 380.701 175.771V175.771Z" fill="#E0E0E0"/>
<path d="M449.826 243.136C449.817 243.024 449.817 242.912 449.826 242.801C449.826 242.57 449.826 242.266 449.826 241.857C449.826 241.005 449.826 239.789 449.826 238.21C449.826 235.004 449.826 230.34 449.759 224.419C449.759 212.566 449.681 195.683 449.625 175.477L449.893 175.729H380.969L381.281 175.446C381.281 200.273 381.281 223.507 381.281 243.105L381.014 242.853L430.921 242.979L444.938 243.042H448.654H449.614H449.949H448.632H444.971L431.01 243.105L380.935 243.23H380.679V243.136C380.679 223.538 380.679 200.304 380.679 175.477V175.184H380.991H449.915H450.183V175.435C450.127 195.714 450.083 212.65 450.049 224.534C450.049 230.434 449.993 235.077 449.982 238.273C449.982 239.835 449.982 241.04 449.982 241.868C449.982 242.266 449.982 242.57 449.982 242.79C449.982 243.01 449.826 243.136 449.826 243.136Z" fill="#E0E0E0"/>
<path d="M426.993 198.418H403.925V220.08H426.993V198.418Z" fill="#EBEBEB"/>
<path d="M257.673 108.321C251.451 112.047 244.206 113.989 236.826 113.907C234.493 113.773 232.154 113.748 229.818 113.834C227.466 113.925 225.213 114.747 223.412 116.171C222.528 116.896 221.897 117.856 221.602 118.923C221.307 119.991 221.363 121.117 221.76 122.155C223.077 124.984 227.34 126.106 227.988 129.135C228.456 131.314 226.727 133.389 224.774 134.658C222.821 135.926 220.544 136.754 218.903 138.367C217.913 139.334 217.214 140.529 216.877 141.832C216.539 143.135 216.576 144.498 216.984 145.784C217.391 147.069 218.154 148.229 219.195 149.147C220.236 150.064 221.518 150.706 222.91 151.006C224.573 151.373 226.615 151.384 227.519 152.746C227.998 153.781 228.085 154.939 227.764 156.026C227.326 158.362 227.657 160.768 228.713 162.922C229.257 163.989 230.105 164.893 231.163 165.535C232.22 166.177 233.447 166.531 234.706 166.559C235.688 166.559 236.648 166.244 237.63 166.265C238.12 166.237 238.607 166.349 239.028 166.587C239.448 166.824 239.782 167.176 239.985 167.596C240.088 168.224 240.058 168.866 239.895 169.483C239.538 172.574 242.819 174.995 246 175.875C252.35 177.657 259.392 175.938 264.793 172.27C270.195 168.602 273.889 163.174 276.4 157.41C278.911 151.646 280.261 145.525 281.6 139.426" fill="#263238"/>
<path d="M328.606 262.472C327.895 260.82 326.827 259.325 325.47 258.08C317.067 249.696 304.333 245.662 292.091 246.322C279.848 246.982 268.119 251.981 258.611 259.223C253.533 263.09 246.681 270.541 244.895 276.452C252.35 278.139 263.488 275.792 270.563 272.91C277.638 270.028 284.558 266.548 292.18 265.815C301.019 264.966 309.701 267.911 318.406 269.577C320.146 269.975 321.944 270.11 323.729 269.975C324.621 269.9 325.486 269.648 326.267 269.237C327.048 268.825 327.728 268.262 328.26 267.586C328.728 266.814 329.003 265.953 329.063 265.066C329.123 264.18 328.967 263.293 328.606 262.472V262.472Z" fill="#FF725E"/>
<g opacity="0.3">
<path opacity="0.3" d="M328.606 262.472C327.895 260.82 326.827 259.325 325.47 258.08C317.067 249.696 304.333 245.662 292.091 246.322C279.848 246.982 268.119 251.981 258.611 259.223C253.533 263.09 246.681 270.541 244.895 276.452C252.35 278.139 263.488 275.792 270.563 272.91C277.638 270.028 284.558 266.548 292.18 265.815C301.019 264.966 309.701 267.911 318.406 269.577C320.146 269.975 321.944 270.11 323.729 269.975C324.621 269.9 325.486 269.648 326.267 269.237C327.048 268.825 327.728 268.262 328.26 267.586C328.728 266.814 329.003 265.953 329.063 265.066C329.123 264.18 328.967 263.293 328.606 262.472V262.472Z" fill="black"/>
</g>
<path d="M322.524 362.451L343.806 349.508C343.806 349.508 365.01 365.469 369.15 363.436L343.884 323.832L309.835 342.696L322.524 362.451Z" fill="#FF725E"/>
<path d="M334.153 338.274C334.031 337.822 334.091 337.344 334.322 336.932C334.553 336.52 334.938 336.203 335.403 336.041C335.879 335.911 336.391 335.958 336.832 336.173C337.272 336.387 337.608 336.753 337.769 337.194C337.893 337.672 337.826 338.176 337.578 338.609C337.331 339.042 336.922 339.375 336.429 339.542C335.918 339.629 335.391 339.527 334.958 339.258C334.526 338.988 334.221 338.571 334.108 338.095" fill="#E0E0E0"/>
<g opacity="0.6">
<path opacity="0.6" d="M343.884 323.832L340.536 325.865L366.048 363.069C366.048 363.069 367.99 364.379 369.184 363.436L343.884 323.832Z" fill="white"/>
</g>
<path d="M343.985 350.263C344.186 350.147 343.661 349.12 343.717 347.8C343.773 346.479 344.319 345.484 344.13 345.347C343.94 345.211 342.924 346.175 342.891 347.779C342.858 349.382 343.828 350.42 343.985 350.263Z" fill="#263238"/>
<path d="M348.471 353.396C348.694 353.333 348.471 352.348 348.962 351.143C349.453 349.938 350.223 349.288 350.078 349.099C349.933 348.911 348.705 349.445 348.17 350.881C347.634 352.317 348.27 353.501 348.471 353.396Z" fill="#263238"/>
<path d="M355.279 352.778C355.2 352.579 354.006 352.893 353.192 354.025C352.377 355.157 352.511 356.31 352.734 356.299C352.957 356.289 353.203 355.387 353.85 354.465C354.497 353.543 355.379 352.987 355.279 352.778Z" fill="#263238"/>
<path d="M338.784 352.715C338.929 352.526 338.07 351.793 337.456 350.619C336.842 349.445 336.664 348.418 336.418 348.418C336.173 348.418 335.972 349.644 336.719 350.986C337.467 352.327 338.684 352.904 338.784 352.715Z" fill="#263238"/>
<path opacity="0.3" d="M325.883 333.778L335.559 354.507L332.311 356.666L321.151 336.45L325.883 333.778Z" fill="black"/>
<path d="M313.205 252.442C312.335 252.442 283.71 251.845 268.253 261.434L255.977 267.911L256.301 279.544C256.301 279.544 253.678 283.652 254.258 286.115C254.839 288.577 254.18 298.984 254.18 298.984C254.18 298.984 249.593 299.256 249.013 306.655C249.013 306.655 242.652 309.118 239.862 313.499C237.072 317.879 208.48 367.167 206.739 375.111C204.998 383.054 203.815 397.014 210.232 401.667C216.649 406.32 231.012 404.675 231.012 404.675C231.012 404.675 233.054 410.428 245.598 410.701C258.142 410.973 277.371 397.286 277.371 397.286L335.113 360.323L321.408 332.855L301.242 344.436L322.814 320.887C322.814 320.887 332.735 305.01 329.812 288.305C327.658 275.907 313.205 252.442 313.205 252.442Z" fill="#263238"/>
<path d="M318.149 260.952H317.469H315.527C313.83 260.952 311.397 260.952 308.384 260.952C305.371 260.952 301.778 261.088 297.827 261.486C293.539 261.872 289.31 262.701 285.216 263.96C276.5 266.726 269.492 271.118 264.503 274.251L258.633 278.066L257.037 279.114C256.861 279.247 256.665 279.356 256.457 279.439C256.457 279.439 256.613 279.282 256.959 279.02L258.499 277.909C259.849 276.944 261.847 275.572 264.269 273.937C269.213 270.719 276.221 266.244 285.026 263.457C289.161 262.183 293.437 261.357 297.771 260.994C301.299 260.687 304.841 260.551 308.384 260.585C311.397 260.585 313.842 260.69 315.527 260.774L317.469 260.879C317.698 260.874 317.927 260.899 318.149 260.952Z" fill="#455A64"/>
<path d="M259.236 269.504C258.779 269.935 258.465 270.481 258.332 271.076C258.274 271.382 258.3 271.696 258.405 271.991C258.51 272.286 258.692 272.551 258.934 272.763C259.23 273.018 259.593 273.193 259.986 273.271C260.379 273.348 260.786 273.325 261.166 273.203C261.531 273.046 261.843 272.799 262.071 272.49C262.299 272.18 262.433 271.818 262.461 271.442C262.483 271.131 262.422 270.82 262.284 270.536C262.145 270.252 261.934 270.006 261.668 269.818C261.134 269.469 260.5 269.279 259.849 269.273C259.849 269.273 260.017 269.137 260.396 269.116C260.932 269.087 261.462 269.227 261.903 269.514C262.254 269.719 262.542 270.007 262.738 270.349C262.933 270.691 263.03 271.075 263.019 271.463C263.028 271.953 262.878 272.434 262.589 272.842C262.3 273.25 261.885 273.566 261.401 273.747C260.916 273.928 260.384 273.965 259.875 273.855C259.367 273.745 258.906 273.492 258.555 273.13C258.268 272.859 258.059 272.526 257.946 272.159C257.833 271.793 257.82 271.406 257.908 271.034C258.025 270.542 258.306 270.097 258.711 269.766C259.024 269.514 259.224 269.472 259.236 269.504Z" fill="#455A64"/>
<path d="M269.514 270.918C269.458 270.971 269.056 270.688 268.487 270.143C267.657 269.462 267.075 268.554 266.825 267.546C266.575 266.537 266.668 265.481 267.092 264.526C267.349 263.792 267.583 263.373 267.65 263.394C267.717 263.415 267.65 263.886 267.494 264.62C267.259 265.537 267.225 266.489 267.394 267.418C267.683 268.322 268.161 269.163 268.8 269.891C269.268 270.489 269.57 270.866 269.514 270.918Z" fill="#455A64"/>
<path d="M271.935 269.525C271.935 269.577 271.489 269.346 270.965 268.833C270.291 268.139 269.791 267.311 269.503 266.412C269.054 265.164 269.035 263.815 269.447 262.555C269.648 262.555 269.447 264.295 270.061 266.255C270.543 267.412 271.172 268.51 271.935 269.525V269.525Z" fill="#455A64"/>
<path d="M302.838 260.952C302.748 260.952 302.715 260.459 302.637 259.684C302.551 258.697 302.314 257.726 301.934 256.802C301.515 255.896 300.925 255.068 300.193 254.36C299.635 253.794 299.278 253.438 299.333 253.375C299.389 253.312 299.836 253.564 300.449 254.077C301.313 254.757 301.994 255.619 302.436 256.592C302.85 257.572 303.048 258.62 303.016 259.673C303.065 260.107 303.004 260.545 302.838 260.952V260.952Z" fill="#455A64"/>
<path d="M306.587 260.952C306.498 260.952 306.487 260.459 306.498 259.694C306.562 258.724 306.475 257.749 306.242 256.802C305.867 255.892 305.38 255.027 304.791 254.224C304.355 253.574 304.121 253.176 304.188 253.102C304.255 253.029 304.612 253.406 305.126 254.004C305.844 254.785 306.41 255.679 306.8 256.645C307.068 257.653 307.102 258.704 306.9 259.726C306.788 260.438 306.666 260.952 306.587 260.952Z" fill="#455A64"/>
<path d="M257.227 379.984C257.346 379.556 257.522 379.144 257.751 378.758C258.142 377.972 258.744 376.829 259.537 375.373C261.121 372.449 263.454 368.246 266.378 363.069C272.226 352.715 280.395 338.452 289.49 322.742L296.186 311.266C298.221 307.714 299.799 303.946 300.884 300.042C302.728 293.408 303.108 286.489 302 279.711C301.27 275.145 299.885 270.692 297.882 266.475C297.179 264.976 296.566 263.844 296.141 263.079L295.65 262.21C295.593 262.112 295.544 262.011 295.505 261.906C295.582 261.993 295.649 262.088 295.706 262.189L296.242 263.027C296.699 263.771 297.358 264.892 298.094 266.381C303.308 276.951 304.449 288.895 301.32 300.168C300.235 304.118 298.65 307.932 296.599 311.528C294.456 315.228 292.235 319.064 289.97 322.994L266.724 363.247L259.715 375.467L257.829 378.8L257.36 379.68C257.325 379.785 257.28 379.886 257.227 379.984V379.984Z" fill="#455A64"/>
<path d="M321.631 344.52C321.435 344.674 321.226 344.815 321.006 344.939L319.154 345.987L312.313 350.032C306.543 353.386 298.597 358.049 289.903 363.331C281.21 368.613 273.42 373.465 267.84 377.008L261.144 381.2L259.302 382.31C259.095 382.451 258.875 382.574 258.644 382.677C258.822 382.506 259.021 382.355 259.236 382.227L261.01 381.021L267.594 376.693C273.174 373.078 280.986 368.131 289.635 362.839C298.284 357.546 306.32 352.935 312.145 349.676C315.058 348.041 317.435 346.741 319.075 345.861L320.984 344.813C321.191 344.699 321.407 344.6 321.631 344.52Z" fill="#455A64"/>
<path d="M330.659 363.132C330.443 362.801 330.264 362.45 330.124 362.084L328.729 359.108C327.524 356.603 325.805 353.166 323.874 349.382C321.944 345.599 320.27 342.277 318.953 339.678L317.491 336.722C317.29 336.37 317.133 335.997 317.022 335.612C317.293 335.932 317.518 336.284 317.692 336.66C318.093 337.341 318.651 338.315 319.321 339.542C320.66 341.983 322.479 345.389 324.399 349.183C326.318 352.977 327.992 356.435 329.108 358.992C329.666 360.26 330.079 361.308 330.336 362.042C330.484 362.394 330.592 362.759 330.659 363.132V363.132Z" fill="#455A64"/>
<path d="M257.227 379.984C257.126 379.869 266.992 371.673 279.279 361.675C291.566 351.677 301.599 343.671 301.711 343.786C301.822 343.901 291.946 352.128 279.658 362.084C267.371 372.04 257.338 380.099 257.227 379.984Z" fill="#455A64"/>
<path d="M244.995 399.194C245.897 398.464 246.696 397.63 247.372 396.71C248.567 394.97 250.029 392.413 251.68 389.636C253.332 386.859 254.727 384.27 255.754 382.415C256.253 381.386 256.835 380.395 257.495 379.449C257.138 380.534 256.679 381.586 256.122 382.593C255.184 384.501 253.823 387.1 252.194 389.929C250.564 392.759 249.024 395.232 247.73 396.961C247.21 397.648 246.586 398.259 245.877 398.775C245.616 398.968 245.316 399.11 244.995 399.194V399.194Z" fill="#455A64"/>
<path d="M255.452 402.16C255.363 402.16 255.999 400.975 256.702 399.016C257.58 396.444 258.185 393.797 258.51 391.114C258.908 388.444 258.908 385.735 258.51 383.065C258.378 382.267 258.127 381.491 257.762 380.759C257.573 380.52 257.408 380.264 257.271 379.994C257.271 379.994 257.561 380.173 257.952 380.655C258.416 381.374 258.741 382.166 258.912 382.992C259.452 385.691 259.527 388.455 259.135 391.177C258.813 393.902 258.139 396.58 257.126 399.152C256.814 399.928 256.441 400.681 256.01 401.405C255.675 401.908 255.486 402.181 255.452 402.16Z" fill="#455A64"/>
<path d="M243.366 386.24C244.08 385.936 244.829 385.711 245.598 385.57C247.357 385.122 249.078 384.548 250.743 383.851C254.615 382.153 257.149 379.816 257.282 379.984C256.797 380.562 256.217 381.064 255.564 381.472C254.151 382.612 252.577 383.564 250.888 384.302C249.194 385.019 247.419 385.557 245.598 385.905C244.874 386.111 244.123 386.224 243.366 386.24V386.24Z" fill="#455A64"/>
<path d="M258.131 310.093C258.089 310.172 258.036 310.246 257.974 310.313L257.483 310.931C257.048 311.476 256.423 312.283 255.675 313.352C253.573 316.399 251.801 319.636 250.386 323.015C248.337 328.042 246.634 333.188 245.286 338.42C243.623 344.299 241.938 350.849 239.136 357.389C236.335 363.929 232.697 369.734 230.398 375.415C228.237 380.396 227.061 385.705 226.927 391.082C226.927 393.138 227.174 395.188 227.664 397.192C228.057 398.704 228.591 400.18 229.26 401.604C229.686 402.506 230.167 403.384 230.699 404.235C230.856 404.507 230.99 404.727 231.101 404.905C231.15 404.982 231.191 405.063 231.224 405.146C231.155 405.084 231.095 405.014 231.045 404.937L230.599 404.297C230.024 403.463 229.506 402.595 229.048 401.698C228.338 400.273 227.77 398.789 227.351 397.265C226.822 395.238 226.541 393.159 226.514 391.072C226.573 385.64 227.708 380.267 229.862 375.226C232.15 369.493 235.688 363.635 238.556 357.169C241.424 350.703 243.02 344.153 244.716 338.305C246.099 333.059 247.851 327.906 249.962 322.878C251.415 319.493 253.252 316.264 255.441 313.247C256.222 312.199 256.881 311.392 257.349 310.879L257.885 310.292C258.053 310.208 258.12 310.082 258.131 310.093Z" fill="#455A64"/>
<path d="M260.028 277.018C259.865 277.456 259.671 277.883 259.448 278.296C258.914 279.449 258.539 280.66 258.332 281.901C258.082 283.744 258.15 285.612 258.533 287.435C258.878 289.531 259.805 291.627 260.43 294.079C260.746 295.264 260.855 296.488 260.753 297.705C260.657 298.825 260.467 299.936 260.184 301.028C259.712 302.861 259.134 304.67 258.454 306.446C257.885 307.965 257.338 309.17 257.026 310.009C256.872 310.452 256.666 310.877 256.412 311.277C256.502 310.819 256.637 310.37 256.814 309.936C257.149 308.982 257.562 307.766 258.064 306.32C258.566 304.874 259.18 302.977 259.66 300.912C260.299 298.724 260.368 296.423 259.861 294.205C259.258 291.868 258.32 289.657 258.008 287.519C257.634 285.644 257.604 283.723 257.919 281.839C258.157 280.575 258.597 279.353 259.224 278.213C259.386 277.901 259.568 277.6 259.771 277.311C259.905 277.112 260.028 277.007 260.028 277.018Z" fill="#455A64"/>
<path d="M261.367 308.552C262.608 307.252 263.564 305.735 264.18 304.088C264.8 302.295 265.094 300.417 265.05 298.533C264.962 296.214 264.656 293.906 264.135 291.637C263.593 289.35 263.179 287.038 262.896 284.71C262.718 282.79 262.759 280.858 263.019 278.946C263.179 277.655 263.509 276.388 264.001 275.173C264.132 274.845 264.289 274.526 264.47 274.22C264.604 274.01 264.671 273.905 264.693 273.905C264.715 273.905 264.503 274.387 264.213 275.247C263.811 276.468 263.546 277.726 263.421 278.999C263.23 280.881 263.23 282.776 263.421 284.658C263.633 286.754 264.191 289.091 264.693 291.533C265.224 293.834 265.519 296.179 265.575 298.533C265.597 300.469 265.249 302.393 264.548 304.213C264.079 305.447 263.376 306.59 262.472 307.588C262.222 307.852 261.954 308.101 261.669 308.332C261.49 308.489 261.378 308.563 261.367 308.552Z" fill="#455A64"/>
<path d="M289.669 300.294C289.228 300.411 288.776 300.488 288.319 300.524C287.448 300.629 286.187 300.818 284.647 301.069C280.622 301.725 276.66 302.678 272.795 303.92C268.935 305.178 265.185 306.716 261.579 308.521C260.195 309.223 259.091 309.799 258.332 310.219C257.953 310.462 257.544 310.663 257.115 310.816C257.456 310.52 257.83 310.259 258.231 310.04C258.957 309.569 260.039 308.929 261.401 308.185C268.555 304.335 276.419 301.789 284.58 300.682C286.142 300.483 287.415 300.357 288.296 300.315C288.751 300.255 289.212 300.248 289.669 300.294Z" fill="#455A64"/>
<path d="M291.488 288.86C291.488 288.965 289.836 288.944 287.236 289.321C285.725 289.548 284.233 289.877 282.772 290.306C279.168 291.369 275.797 293.03 272.817 295.211C271.601 296.103 270.456 297.076 269.391 298.125C267.583 299.917 266.668 301.206 266.579 301.143C266.723 300.804 266.919 300.486 267.159 300.2C267.739 299.376 268.385 298.595 269.09 297.863C270.112 296.759 271.232 295.739 272.438 294.813C273.941 293.697 275.547 292.708 277.237 291.858C278.948 291.035 280.733 290.354 282.571 289.824C284.071 289.409 285.605 289.114 287.158 288.944C288.205 288.813 289.26 288.757 290.316 288.776C290.709 288.761 291.102 288.79 291.488 288.86V288.86Z" fill="#455A64"/>
<path d="M293.977 312.839C293.579 313.032 293.16 313.183 292.727 313.289C291.901 313.541 290.729 313.918 289.267 314.4C285.489 315.668 281.789 317.134 278.185 318.791C274.592 320.46 271.105 322.322 267.739 324.366C266.445 325.152 265.407 325.802 264.693 326.263C264.347 326.521 263.973 326.742 263.577 326.924C263.879 326.611 264.22 326.333 264.592 326.096C265.262 325.582 266.266 324.88 267.538 324C270.856 321.841 274.34 319.918 277.962 318.246C281.568 316.574 285.297 315.148 289.122 313.981C290.595 313.551 291.8 313.226 292.637 313.038C293.073 312.919 293.523 312.852 293.977 312.839V312.839Z" fill="#455A64"/>
<path d="M329.22 285.412C328.835 285.338 328.46 285.222 328.104 285.067C327.412 284.815 326.396 284.459 325.079 284.019C321.451 282.903 317.712 282.134 313.919 281.723L314.198 281.482C314.332 285.999 314.299 291.355 313.875 297.066C313.474 302.631 312.688 308.166 311.52 313.635V313.52C312.552 316.691 313.793 319.799 315.236 322.826C315.761 323.874 316.241 324.733 316.564 325.299C316.758 325.572 316.933 325.855 317.089 326.148C316.845 325.908 316.628 325.644 316.442 325.362C315.905 324.582 315.417 323.774 314.98 322.941C313.441 319.937 312.132 316.834 311.062 313.656V313.604V313.541C312.153 308.081 312.898 302.566 313.295 297.024C313.719 291.334 313.774 285.999 313.707 281.493V281.22H313.998C317.804 281.665 321.546 282.502 325.158 283.715C326.463 284.165 327.457 284.574 328.137 284.857C328.515 285.011 328.878 285.197 329.22 285.412Z" fill="#455A64"/>
<path d="M330.068 289.961C329.27 289.821 328.486 289.618 327.724 289.353C326.296 288.955 324.298 288.431 322.078 287.949C317.614 286.963 313.975 286.335 313.998 286.177C314.814 286.148 315.632 286.215 316.431 286.377C317.926 286.576 319.968 286.911 322.211 287.425C326.709 288.368 330.146 289.814 330.068 289.961Z" fill="#455A64"/>
<path d="M324.756 273.832C324.756 273.905 323.394 273.538 321.218 273.056C318.383 272.434 315.503 272.004 312.603 271.767C309.699 271.554 306.784 271.519 303.875 271.663C302.666 271.769 301.452 271.811 300.237 271.788C300.544 271.674 300.868 271.604 301.197 271.579C301.822 271.484 302.726 271.369 303.842 271.275C306.77 271.021 309.716 271.003 312.647 271.222C315.58 271.453 318.483 271.941 321.319 272.679C322.435 272.973 323.272 273.235 323.852 273.455C324.173 273.535 324.478 273.662 324.756 273.832V273.832Z" fill="#455A64"/>
<path d="M302.001 278.558C301.522 278.746 301.025 278.89 300.516 278.988C299.557 279.229 298.151 279.523 296.387 279.816C291.802 280.569 287.135 280.787 282.493 280.466C279.804 280.214 277.114 279.942 275.016 278.705C274.027 278.125 273.222 277.307 272.683 276.337C272.238 275.463 272.105 274.478 272.304 273.528C272.53 272.213 272.947 270.933 273.543 269.724C273.731 269.266 273.999 268.841 274.335 268.466C274.335 268.466 274.112 268.938 273.755 269.797C273.252 271.016 272.9 272.286 272.706 273.58C272.564 274.443 272.712 275.326 273.13 276.106C273.658 276.982 274.429 277.706 275.362 278.202C277.315 279.334 279.937 279.606 282.605 279.847C287.208 280.161 291.834 279.996 296.398 279.355C298.151 279.124 299.568 278.883 300.539 278.705C301.02 278.615 301.51 278.566 302.001 278.558Z" fill="#455A64"/>
<path d="M299.155 90.7149C293.82 79.8576 280.618 81.9955 274.302 84.8775C267.953 87.6919 262.968 92.6502 260.34 98.7635C258.488 102.956 256.992 107.734 253.265 110.292C251.551 111.247 249.781 112.111 247.964 112.88C247.031 113.305 246.212 113.923 245.568 114.687C244.925 115.451 244.473 116.341 244.248 117.292C243.69 120.908 247.596 123.412 250.81 124.869C248.879 126.106 248.377 128.904 249.058 131.157C249.882 133.31 251.183 135.275 252.874 136.921C258.567 142.824 265.08 147.981 272.237 152.253C278.33 155.817 282.281 156.236 288.821 153.679C291.477 152.631 293.954 150.933 296.789 150.629C300.081 150.283 303.228 151.866 306.487 152.505C309.746 153.144 313.853 152.264 314.913 149.047C315.175 147.764 315.325 146.464 315.359 145.158C315.527 143.869 316.207 142.465 317.446 142.172C318.451 141.931 319.455 142.507 320.437 142.811C322.792 143.545 326.341 159.956 328.595 158.961C328.595 158.961 331.876 131.147 325.559 114.871C323.54 109.631 319.232 98.6063 315.794 94.299C311.063 88.3883 299.724 89.6983 299.155 90.7463" fill="#263238"/>
<path d="M292.392 92.5175C283.988 89.7612 272.65 95.8187 270.072 103.815C267.204 112.691 264.09 123.643 263.543 130.623C262.427 144.655 273.063 148.816 273.063 148.816L268.744 170.751L305.159 159.694L317.87 108.007L319.053 103.668L292.392 92.5175Z" fill="#FFBE9D"/>
<path d="M270.072 114.63C270.195 114.934 271.925 114.494 273.822 115.196C275.719 115.898 276.746 117.292 277.036 117.166C277.326 117.041 277.125 116.642 276.69 116.003C276.092 115.163 275.23 114.518 274.224 114.159C273.238 113.783 272.15 113.716 271.121 113.97C270.373 114.232 270.072 114.494 270.072 114.63Z" fill="#263238"/>
<path d="M288.921 119.294C289.144 119.535 290.651 118.634 292.682 118.77C294.713 118.906 296.142 119.954 296.387 119.734C296.633 119.514 296.298 119.2 295.673 118.686C294.832 118.062 293.807 117.696 292.738 117.638C291.676 117.567 290.617 117.812 289.713 118.34C289.044 118.77 288.821 119.179 288.921 119.294Z" fill="#263238"/>
<path d="M280.462 127.143C279.493 126.602 278.454 126.18 277.371 125.886C276.879 125.718 276.422 125.519 276.422 125.173C276.499 124.672 276.741 124.207 277.114 123.842L279.513 120.541C282.861 115.835 285.462 111.916 285.261 111.79C285.06 111.664 282.158 115.374 278.777 120.08C277.962 121.254 277.181 122.354 276.433 123.423C275.964 123.925 275.703 124.568 275.697 125.236C275.73 125.419 275.807 125.593 275.92 125.746C276.034 125.898 276.183 126.024 276.355 126.116C276.623 126.243 276.903 126.345 277.192 126.42C278.245 126.791 279.344 127.034 280.462 127.143V127.143Z" fill="#263238"/>
<path d="M273.074 148.816C279.989 150.451 287.247 150.28 294.066 148.323C294.066 148.323 287.002 156.77 272.393 152.243L273.074 148.816Z" fill="#EB996E"/>
<path d="M279.379 133.41C279.189 133.18 279.468 133.693 279.379 133.41V133.41Z" fill="#EB996E"/>
<path d="M285.863 132.499C285.645 132.067 285.334 131.682 284.95 131.369C284.566 131.055 284.117 130.819 283.631 130.675C282.974 130.454 282.269 130.393 281.58 130.497C280.891 130.602 280.241 130.868 279.692 131.272C279.467 131.574 279.319 131.919 279.259 132.283C279.199 132.646 279.229 133.018 279.346 133.368C280.049 134.217 280.116 134.93 281.098 135.464C281.805 135.683 282.555 135.756 283.295 135.676C284.035 135.596 284.747 135.367 285.383 135.003C285.727 134.682 285.957 134.27 286.043 133.822C286.129 133.374 286.066 132.912 285.863 132.499V132.499Z" fill="#EB996E"/>
<path d="M285.997 129.721C285.674 129.638 285.16 131.66 282.962 132.687C280.763 133.714 278.498 132.991 278.42 133.274C278.42 133.389 278.833 133.777 279.804 134.018C281.06 134.315 282.388 134.185 283.553 133.651C284.676 133.136 285.54 132.23 285.964 131.126C286.265 130.298 286.142 129.742 285.997 129.721Z" fill="#263238"/>
<path d="M293.028 109.411C292.916 109.946 294.579 110.459 296.264 111.654C297.95 112.849 299.099 114.075 299.612 113.75C299.836 113.603 299.824 113.048 299.49 112.304C299.037 111.379 298.333 110.584 297.447 109.998C296.587 109.4 295.567 109.038 294.501 108.95C293.62 108.992 293.084 109.16 293.028 109.411Z" fill="#263238"/>
<path d="M271.299 107.451C271.735 107.85 273.264 107.252 275.138 107.064C277.013 106.875 278.654 107.064 278.977 106.561C279.111 106.32 278.821 105.911 278.073 105.513C277.07 105.09 275.96 104.941 274.871 105.083C273.782 105.19 272.748 105.586 271.891 106.225C271.266 106.791 271.099 107.252 271.299 107.451Z" fill="#263238"/>
<path d="M321.107 103.637C320.48 102.587 319.498 101.765 318.317 101.3C311.072 97.5661 303.571 94.2891 295.863 91.4904L292.693 93.1777C292.277 96.0768 292.787 99.0266 294.158 101.653C295.529 104.28 297.699 106.466 300.394 107.934C302.559 109.065 305.371 110.134 305.65 112.45C305.929 114.766 303.262 116.485 301.755 118.434C300.834 119.651 300.318 121.097 300.272 122.59C300.226 124.082 300.653 125.554 301.498 126.818C302.469 128.233 303.942 129.302 304.846 130.759C305.407 131.748 305.724 132.841 305.776 133.96C305.829 135.079 305.614 136.194 305.148 137.225C304.244 139.321 302.737 142.077 300.684 143.241C303.456 143.826 306.353 143.584 308.972 142.549C311.591 141.514 313.8 139.737 315.292 137.466C316.989 134.762 317.122 131.482 317.346 128.349C317.858 121.221 319.065 114.152 320.95 107.231C321.426 106.083 321.481 104.818 321.107 103.637V103.637Z" fill="#263238"/>
<path d="M296.365 91.8153C294.413 94.2408 292.067 96.3628 289.412 98.1033C286.667 99.7067 283.163 100.461 280.161 99.3294C280.908 98.5539 281.667 97.7784 282.393 96.9924C277.05 100.428 271.003 102.777 264.637 103.888C268.632 99.3294 272.75 94.6763 278.208 91.7314C283.665 88.7865 290.818 87.8853 296.142 91.0188" fill="#263238"/>
<path d="M321.843 118.319L304.835 130.728C306.788 132.729 306.029 137.822 304.11 139.845C302.19 141.868 299.646 143.597 298.898 146.217C298.072 149.078 299.69 152.044 299.735 155.01C299.802 159.202 296.8 162.807 294.479 166.391C292.158 169.975 290.483 174.775 293.073 178.202C295.985 182.059 302.581 181.503 306.565 178.621C310.549 175.739 312.826 171.285 315.783 167.47C318.741 163.656 323.361 160.732 328.372 161.182C329.926 146.609 327.685 131.899 321.843 118.319V118.319Z" fill="#263238"/>
<path d="M324.689 152.914C324.588 152.736 325.593 152.054 327.311 150.755C329.738 148.996 331.9 146.937 333.74 144.634C334.954 143.065 335.92 141.339 336.608 139.51C337.4 137.457 337.742 135.276 337.612 133.096C337.434 130.721 336.633 128.423 335.28 126.41C333.768 124.204 331.852 122.267 329.622 120.688C325.046 117.345 319.578 115.448 314.801 113.446C310.355 111.833 306.159 109.669 302.324 107.011C299.708 105.177 297.542 102.836 295.974 100.147C294.936 98.2081 294.769 97.0029 294.925 97.0029C295.081 97.0029 295.673 97.9775 296.934 99.6334C298.757 101.935 300.993 103.921 303.541 105.502C307.394 107.801 311.517 109.675 315.828 111.088C318.261 112 320.861 112.943 323.517 114.096C326.333 115.285 328.995 116.773 331.452 118.529C333.955 120.314 336.092 122.512 337.757 125.016C339.319 127.42 340.205 130.157 340.335 132.97C340.409 135.482 339.923 137.981 338.907 140.306C338.049 142.3 336.867 144.156 335.403 145.808C333.318 148.143 330.809 150.112 327.992 151.625C325.972 152.694 324.756 153.06 324.689 152.914Z" fill="#263238"/>
<path d="M325.013 115.28C324.502 115.181 324.004 115.03 323.528 114.829C322.591 114.504 321.296 114.012 319.589 113.362C315.234 111.741 311.143 109.554 307.436 106.865C303.712 104.118 300.911 100.421 299.367 96.2169C298.918 94.9459 298.651 93.6242 298.575 92.2869C298.555 91.9378 298.555 91.588 298.575 91.2389C298.557 91.1137 298.557 90.9868 298.575 90.8616C298.746 92.6407 299.12 94.3974 299.691 96.1016C301.333 100.169 304.118 103.743 307.748 106.445C311.425 109.096 315.44 111.303 319.7 113.016L323.562 114.63C324.066 114.804 324.551 115.022 325.013 115.28V115.28Z" fill="#455A64"/>
<path d="M325.548 131.147C325.481 131.147 325.827 130.518 326.006 129.344C326.204 127.665 325.891 125.968 325.102 124.45C323.948 122.19 322.167 120.264 319.946 118.875C317.502 117.208 314.466 115.888 311.431 114.18C308.561 112.578 305.99 110.546 303.82 108.164C302.042 106.221 300.541 104.068 299.356 101.761C298.566 100.212 297.941 98.5939 297.492 96.9296C297.313 96.3427 297.246 95.8816 297.18 95.5672C297.128 95.4113 297.105 95.2482 297.113 95.0851C297.345 95.6716 297.543 96.2699 297.704 96.8772C298.236 98.4994 298.912 100.077 299.724 101.593C300.925 103.857 302.424 105.97 304.188 107.881C306.336 110.208 308.868 112.197 311.687 113.771C314.678 115.448 317.736 116.8 320.214 118.518C322.491 119.974 324.297 121.99 325.437 124.345C326.217 125.932 326.477 127.702 326.184 129.428C326.098 129.89 325.952 130.341 325.749 130.769C325.649 131 325.571 131.157 325.548 131.147Z" fill="#455A64"/>
<path d="M231.503 120.52C231.503 120.52 231.503 120.457 231.603 120.352C231.715 120.191 231.838 120.037 231.972 119.891C232.484 119.316 233.134 118.863 233.869 118.571C235.053 118.181 236.297 117.979 237.552 117.973C238.991 117.9 240.643 117.795 242.462 117.795C244.429 117.828 246.394 117.656 248.321 117.282C250.495 116.757 252.509 115.763 254.202 114.379C256.068 112.824 257.684 111.023 259.001 109.034C260.402 106.877 261.679 104.652 262.829 102.369C264.002 100.069 265.345 97.8489 266.847 95.7243C268.266 93.7277 270.049 91.9822 272.114 90.5681C275.673 88.2377 279.885 86.947 284.223 86.8582C287.124 86.7634 290.013 87.2418 292.704 88.2625L293.954 88.7761L294.814 89.2372C295.06 89.3551 295.295 89.4918 295.517 89.6459C295.257 89.5654 295.006 89.46 294.769 89.3315L293.876 88.9228L292.626 88.4617C289.943 87.5339 287.09 87.1205 284.234 87.246C279.997 87.3904 275.895 88.6864 272.427 90.9769C270.42 92.3654 268.69 94.0754 267.315 96.0282C265.842 98.1233 264.526 100.312 263.376 102.578C262.213 104.88 260.92 107.123 259.503 109.296C258.151 111.323 256.489 113.152 254.571 114.725C252.808 116.15 250.713 117.166 248.455 117.69C246.49 118.056 244.487 118.211 242.484 118.152C240.665 118.152 239.036 118.152 237.585 118.246C236.363 118.224 235.145 118.39 233.98 118.738C233.259 118.995 232.61 119.404 232.083 119.933C231.903 120.14 231.709 120.336 231.503 120.52V120.52Z" fill="#455A64"/>
<path d="M224.673 106.382C217.977 90.5053 209.049 74.9425 207.822 63.1105L194.485 63.6136C194.764 68.1933 196.516 106.309 205.969 121.379C215.422 136.45 246.982 171.683 246.982 171.683L258.086 144.865C258.086 144.865 231.38 122.27 224.673 106.382Z" fill="#FFBE9D"/>
<path d="M202.442 38.4616H196.606C196.606 38.4616 197.175 41.6895 199.82 41.8676C202.465 42.0458 201.951 41.4799 201.951 41.4799L201.36 41.9934L197.722 42.6641C197.722 42.6641 197.9 45.326 200.3 45.7452L203.837 42.6641L202.442 38.4616Z" fill="#FFBE9D"/>
<path d="M218.423 37.9795C217.888 42.1086 217.832 41.8571 217.832 41.8571L212.497 45.9862L211.136 39.9078C211.048 39.5051 210.821 39.1408 210.49 38.8717C210.159 38.6026 209.743 38.4437 209.306 38.4197L206.884 38.273C206.884 38.273 207.821 35.129 204.775 35.391C204.775 35.391 203.101 34.9613 201.75 40.2222C200.277 45.9758 193.938 59.495 194.485 64.0118L208.011 64.5254C207.866 60.3334 211.549 55.8584 213.368 53.9301C213.917 53.356 214.301 52.6598 214.484 51.9074C214.734 50.8738 215.256 49.9155 216.002 49.1198C217.676 47.3801 221.191 44.2466 221.191 44.2466V34.6783C221.191 34.6783 218.937 33.9971 218.423 37.9795ZM207.576 47.2229L204.797 48.4071L205.266 45.7452L207.576 45.5356V47.2229Z" fill="#FFBE9D"/>
<path d="M204.652 48.6901C204.651 48.3127 204.696 47.9364 204.786 47.5687C204.92 46.8456 205.11 45.8186 205.366 44.54L206.304 40.0755C206.524 39.2173 206.677 38.3452 206.761 37.466C206.761 36.6171 206.427 35.6425 205.456 35.5901C204.485 35.5377 203.771 36.156 203.302 36.9001C203.079 37.2866 202.899 37.6941 202.766 38.1158L202.331 39.3629L200.88 43.7016C200.445 44.9382 200.043 45.9234 199.764 46.5941C199.637 46.9665 199.453 47.3196 199.217 47.6421C199.282 47.281 199.395 46.929 199.552 46.5941C199.786 45.9024 200.132 44.9068 200.512 43.6702C200.891 42.4335 201.349 40.9034 201.84 39.2895C201.985 38.8703 202.119 38.4511 202.264 38.0214C202.4 37.5625 202.591 37.1195 202.833 36.701C203.103 36.2588 203.459 35.8678 203.882 35.5482C204.118 35.3739 204.389 35.246 204.678 35.1721C204.968 35.0983 205.27 35.0801 205.567 35.1185C205.866 35.1638 206.153 35.2597 206.415 35.4014C206.667 35.5667 206.874 35.7858 207.018 36.0407C207.261 36.5099 207.376 37.0285 207.353 37.5498C207.261 38.4586 207.093 39.3591 206.851 40.2432L205.735 44.6972C205.433 45.9548 205.177 46.9818 204.976 47.684C204.915 48.0311 204.806 48.3693 204.652 48.6901V48.6901Z" fill="#EB996E"/>
<path d="M207.42 47.2543C207.284 46.2325 207.228 45.2027 207.252 44.1732C207.252 43.754 207.185 43.3558 207.152 42.989C207.17 42.713 207.078 42.4405 206.895 42.2239C206.516 41.9619 206.058 41.9619 206.08 41.8676C206.103 41.7733 206.181 41.7943 206.359 41.7733C206.629 41.7377 206.903 41.7855 207.141 41.9095C207.307 42.0358 207.442 42.1954 207.534 42.3767C207.627 42.558 207.676 42.7564 207.676 42.9575C207.76 43.3622 207.812 43.772 207.832 44.1837C207.988 45.2235 207.846 46.2835 207.42 47.2543V47.2543Z" fill="#EB996E"/>
<path d="M214.049 44.9173C214.049 44.9173 213.68 45.3784 212.933 45.9653C211.988 46.7514 210.938 47.4174 209.808 47.946C208.631 48.4254 207.373 48.7057 206.092 48.7739C205.572 48.8692 205.038 48.8692 204.518 48.7739C205 48.5809 205.513 48.464 206.036 48.4281C207.249 48.2562 208.435 47.9393 209.562 47.4849C210.673 46.9799 211.733 46.3837 212.732 45.7033C213.491 45.1583 213.993 44.8544 214.049 44.9173Z" fill="#EB996E"/>
<path d="M320.102 163.949C320.102 163.949 335.123 163.53 344.118 161.015C353.113 158.5 387.642 150.786 387.642 150.786L443.052 142.109L444.168 155.565C444.168 155.565 392.687 169.703 382.687 172.92C372.688 176.137 326.988 190.862 318.35 188.996L312.993 178.653L320.102 163.949Z" fill="#FFBE9D"/>
<path d="M469.691 126.284C468.787 126.095 464.3 128.013 464.3 128.013C464.728 127.526 464.969 126.919 464.985 126.288C465.001 125.657 464.792 125.039 464.39 124.534L458.229 127.374C456.601 128.925 454.883 130.39 453.085 131.765C450.251 134.217 447.638 136.884 445.273 139.74L441.59 142.958L443.878 155.691C445.489 155.817 447.11 155.617 448.632 155.104C450.54 154.276 453.33 150.912 453.33 150.912L458.587 150.493C459.198 150.451 459.782 150.235 460.261 149.874C460.735 149.441 461.098 148.912 461.324 148.327C461.55 147.743 461.633 147.118 461.566 146.5C464.914 144.718 462.961 142.455 462.961 142.455C464.019 142.333 464.985 141.834 465.662 141.061C465.949 140.642 466.087 140.149 466.057 139.652C466.027 139.155 465.83 138.68 465.495 138.294C464.87 137.246 460.048 137.571 460.048 137.571L459.792 136.24C459.792 136.24 467.157 130.748 468.809 129.554C470.461 128.359 470.539 126.462 469.691 126.284Z" fill="#FFBE9D"/>
<path d="M464.39 127.856C463.86 128.849 463.097 129.716 462.158 130.392C461.203 131.159 460.305 131.985 459.468 132.865C458.54 133.997 457.868 135.295 457.493 136.68C457.105 138.129 456.551 139.535 455.841 140.872C455.233 141.941 454.483 142.934 453.609 143.828C453.019 144.422 452.373 144.966 451.679 145.452C451.437 145.645 451.161 145.797 450.864 145.903C450.797 145.829 451.913 145.106 453.308 143.566C454.113 142.668 454.806 141.687 455.373 140.642C456.039 139.337 456.57 137.976 456.957 136.575C457.349 135.121 458.068 133.763 459.067 132.593C459.94 131.709 460.888 130.892 461.901 130.151C462.779 129.434 463.61 128.668 464.39 127.856V127.856Z" fill="#EB996E"/>
<path d="M461.678 146.468C460.929 146.946 460.098 147.3 459.223 147.516C458.276 147.815 457.294 148.005 456.299 148.082C455.708 148.124 455.115 148.124 454.524 148.082C453.85 148.038 453.2 147.829 452.638 147.475C452.347 147.28 452.109 147.022 451.946 146.723C451.783 146.424 451.699 146.092 451.701 145.756C451.826 145.153 452.173 144.611 452.683 144.226C453.09 143.86 453.589 143.597 454.134 143.461C454.625 143.335 455.071 143.241 455.484 143.167C456.359 142.919 457.273 142.82 458.185 142.874C458.185 142.937 457.181 143.125 455.573 143.534L454.279 143.89C453.813 144.024 453.391 144.266 453.051 144.593C452.662 144.903 452.389 145.321 452.27 145.787C452.272 146.034 452.339 146.276 452.463 146.494C452.588 146.711 452.766 146.897 452.984 147.034C453.993 147.527 455.136 147.724 456.265 147.6C457.224 147.548 458.174 147.4 459.1 147.16C460.696 146.772 461.644 146.385 461.678 146.468Z" fill="#EB996E"/>
<path d="M463.14 142.455C462.557 142.761 461.909 142.943 461.243 142.989C460.531 143.103 459.81 143.152 459.089 143.136C458.615 143.168 458.14 143.102 457.696 142.942C457.253 142.783 456.852 142.534 456.522 142.214C456.239 141.836 456.079 141.39 456.059 140.93C456.039 140.469 456.161 140.012 456.41 139.615C456.787 138.991 457.36 138.493 458.051 138.189C458.635 137.87 459.295 137.694 459.97 137.676C459.97 137.76 459.267 137.969 458.252 138.525C457.674 138.835 457.202 139.293 456.89 139.845C456.702 140.156 456.61 140.51 456.624 140.867C456.638 141.224 456.757 141.571 456.968 141.868C457.251 142.125 457.587 142.326 457.956 142.457C458.324 142.589 458.717 142.649 459.111 142.633C459.806 142.676 460.503 142.676 461.198 142.633C461.84 142.528 462.489 142.468 463.14 142.455V142.455Z" fill="#EB996E"/>
<path d="M459.502 150.315C459.014 150.543 458.49 150.696 457.95 150.765C456.68 151.097 455.363 151.246 454.044 151.205C453.821 151.215 453.597 151.178 453.391 151.096C453.184 151.015 452.999 150.891 452.85 150.734C452.609 150.433 452.487 150.062 452.504 149.686C452.53 149.378 452.627 149.08 452.789 148.812C452.951 148.544 453.174 148.313 453.442 148.135C454.424 147.579 455.138 147.925 455.093 147.967C454.59 148.017 454.107 148.183 453.687 148.449C453.492 148.605 453.334 148.797 453.222 149.014C453.111 149.23 453.049 149.466 453.04 149.707C453.034 149.967 453.121 150.221 453.286 150.43C453.386 150.53 453.51 150.606 453.648 150.653C453.785 150.701 453.932 150.717 454.078 150.702C455.349 150.729 456.62 150.638 457.872 150.43C458.403 150.294 458.956 150.255 459.502 150.315V150.315Z" fill="#EB996E"/>
<path d="M294.624 208.625C294.303 208.858 293.95 209.048 293.575 209.191C292.586 209.624 291.56 209.975 290.506 210.239C286.997 211.202 283.296 211.374 279.703 210.742C276.115 210.107 272.742 208.669 269.871 206.55C269.009 205.918 268.206 205.216 267.472 204.454C267.187 204.184 266.939 203.881 266.735 203.553C266.824 203.48 267.918 204.727 270.083 206.257C272.96 208.248 276.273 209.612 279.781 210.25C283.291 210.869 286.902 210.758 290.361 209.925C293.028 209.286 294.557 208.552 294.624 208.625Z" fill="#FF725E"/>
<path d="M269.257 169.87C269.257 169.87 304.568 159.265 305.884 158.929C307.201 158.594 338.349 161.203 338.349 161.203C338.349 161.203 337.032 180.581 344.844 186.858L321.932 194.614L314.712 213.278C314.712 213.278 310.683 220.887 313.886 228.024C319.946 241.533 330.459 262.849 328.907 265.291C328.74 265.542 327.791 257.955 312.848 253.93C308.317 252.725 300.092 252.704 292.649 254.119C260.619 260.176 248.254 274.031 244.661 276.452C244.661 276.452 251.256 227.856 248.143 220.269C245.029 212.681 241.726 207.693 244.292 200.975C246.859 194.257 250.709 183.4 250.709 183.4L238.087 169.986L255.72 142.455L271.858 155.031L269.257 169.87Z" fill="#FF725E"/>
<path d="M280.997 214.892C280.594 214.941 280.185 214.941 279.781 214.892C278.673 214.85 277.572 214.717 276.489 214.494C272.884 213.759 269.559 212.118 266.869 209.747C264.188 207.36 262.3 204.295 261.434 200.923C261.177 199.891 261.027 198.838 260.988 197.779C260.953 197.4 260.975 197.019 261.055 196.647C261.23 198.036 261.491 199.415 261.836 200.776C262.793 204.029 264.671 206.977 267.271 209.307C269.899 211.606 273.105 213.243 276.589 214.065C279.268 214.84 280.997 214.84 280.997 214.892Z" fill="#263238"/>
<path d="M247.841 173.811C249.217 175.459 250.068 177.439 250.297 179.522C250.715 181.58 250.514 183.707 249.716 185.664C249.934 183.65 249.934 181.62 249.716 179.606C249.301 177.62 248.673 175.678 247.841 173.811V173.811Z" fill="#263238"/>
<path d="M322.781 179.554C322.781 179.638 322.055 180.109 320.984 181.084C319.597 182.344 318.48 183.842 317.692 185.496C316.909 187.147 316.484 188.929 316.442 190.736C316.442 192.13 316.587 192.989 316.442 193.01C316.124 192.29 315.968 191.516 315.984 190.736C315.901 188.853 316.283 186.977 317.1 185.255C317.909 183.531 319.117 181.998 320.638 180.77C321.257 180.233 321.986 179.819 322.781 179.554V179.554Z" fill="#263238"/>
<g opacity="0.3">
<path opacity="0.3" d="M275.752 214.169C272.346 213.534 269.248 211.888 266.914 209.474C265.329 208.044 264.033 206.358 263.086 204.496C262.282 207.787 267.159 213.624 271.913 215.773C274.323 216.827 276.961 217.341 279.619 217.271C282.277 217.202 284.881 216.553 287.225 215.375C283.367 215.336 279.524 214.932 275.752 214.169V214.169Z" fill="black"/>
</g>
<path d="M318.997 238.252C318.997 238.315 318.071 237.655 316.241 236.879C313.636 235.824 310.831 235.275 307.994 235.266C303.774 235.241 299.594 236.037 295.718 237.603C291.015 239.592 286.53 242.007 282.326 244.813C274.576 249.858 266.31 254.165 257.651 257.672C254.303 259.003 251.58 259.956 249.671 260.575C248.723 260.9 247.975 261.12 247.439 261.266C247.187 261.358 246.925 261.425 246.658 261.466C246.895 261.339 247.146 261.237 247.406 261.162L249.571 260.376C251.457 259.694 254.169 258.699 257.461 257.315C266.057 253.726 274.277 249.389 282.013 244.362C286.247 241.531 290.775 239.108 295.528 237.131C299.477 235.567 303.731 234.799 308.016 234.878C310.9 234.923 313.741 235.54 316.352 236.691C317.299 237.107 318.188 237.631 318.997 238.252V238.252Z" fill="white"/>
<path d="M312.614 220.877C311.943 220.317 311.235 219.799 310.493 219.325C308.411 218.127 306.046 217.429 303.608 217.292C299.986 217.131 296.374 217.755 293.05 219.116C288.964 220.782 284.974 222.65 281.098 224.712C277.185 226.754 273.15 228.58 269.012 230.183C265.604 231.465 262.044 232.359 258.41 232.845C255.961 233.166 253.48 233.205 251.022 232.96C250.354 232.891 249.691 232.79 249.035 232.656C248.802 232.625 248.574 232.568 248.354 232.488C248.354 232.436 249.314 232.614 251.044 232.75C253.484 232.907 255.936 232.812 258.354 232.467C261.939 231.929 265.448 231.008 268.811 229.722C272.914 228.107 276.922 226.288 280.819 224.272C284.717 222.204 288.733 220.339 292.849 218.686C296.253 217.326 299.949 216.73 303.641 216.947C306.133 217.118 308.536 217.89 310.616 219.189C311.381 219.639 312.057 220.21 312.614 220.877V220.877Z" fill="white"/>
<path d="M265.474 207.672C265.474 207.672 265.24 207.892 264.76 208.217C264.469 208.419 264.163 208.601 263.845 208.762C263.438 208.995 263.017 209.205 262.583 209.39C261.456 209.888 260.278 210.278 259.068 210.554C257.582 210.885 256.064 211.068 254.537 211.099C253.007 211.096 251.481 210.945 249.984 210.648C248.766 210.412 247.577 210.061 246.435 209.6C245.996 209.427 245.567 209.231 245.152 209.013C244.828 208.863 244.518 208.688 244.225 208.489C243.734 208.185 243.478 207.997 243.5 207.965C243.522 207.934 244.616 208.541 246.591 209.244C247.726 209.645 248.894 209.957 250.084 210.176C251.557 210.429 253.051 210.552 254.548 210.543C256.031 210.511 257.507 210.346 258.956 210.051C260.144 209.798 261.305 209.447 262.427 209.003C264.336 208.279 265.407 207.588 265.474 207.672Z" fill="white"/>
<path d="M317.937 205.041C317.809 205.177 317.663 205.297 317.502 205.398C317.059 205.711 316.589 205.988 316.096 206.225C314.278 207.113 312.29 207.651 310.248 207.808C307.228 208.032 304.19 207.77 301.264 207.032C297.916 206.278 294.446 205.052 290.707 204.056C284.296 202.383 277.585 201.976 270.998 202.861C269 203.128 267.021 203.51 265.072 204.004C263.7 204.35 262.941 204.57 262.93 204.528C262.919 204.486 263.097 204.433 263.454 204.308C263.811 204.182 264.325 203.993 265.017 203.805C266.951 203.229 268.928 202.787 270.931 202.484C277.578 201.472 284.379 201.83 290.863 203.532C294.635 204.58 298.117 205.775 301.387 206.54C304.257 207.29 307.241 207.588 310.215 207.42C312.216 207.298 314.176 206.829 315.996 206.037C317.279 205.46 317.904 204.989 317.937 205.041Z" fill="white"/>
<path d="M317.011 189.311C316.777 189.37 316.538 189.405 316.297 189.415C315.828 189.415 315.181 189.541 314.232 189.604C311.694 189.662 309.157 189.49 306.654 189.091C303.485 188.609 299.78 187.728 295.695 186.691C291.316 185.472 286.837 184.595 282.303 184.071C281.112 183.979 279.916 183.944 278.721 183.966C278.129 183.966 277.549 183.966 276.969 184.018L275.261 184.207C273.087 184.497 270.952 184.999 268.889 185.706C264.916 187.026 261.445 188.546 258.398 189.51C256.013 190.331 253.521 190.846 250.988 191.04C250.301 191.098 249.61 191.098 248.924 191.04C248.68 191.046 248.437 191.025 248.198 190.977C248.44 190.959 248.682 190.959 248.924 190.977C249.606 190.98 250.289 190.942 250.966 190.862C253.465 190.59 255.917 190.023 258.265 189.174C261.267 188.179 264.704 186.628 268.71 185.265C270.8 184.535 272.966 184.012 275.172 183.704L276.924 183.505C277.516 183.505 278.107 183.505 278.71 183.505C279.924 183.482 281.138 183.517 282.348 183.61C286.922 184.138 291.439 185.032 295.851 186.282C299.925 187.33 303.596 188.273 306.744 188.797C309.217 189.229 311.727 189.454 314.243 189.468L316.297 189.395C316.53 189.34 316.77 189.312 317.011 189.311Z" fill="white"/>
<path d="M328.104 161.193C328.204 161.245 327.066 162.775 325.995 165.553C324.592 169.176 324.208 173.078 324.879 176.881C325.607 180.673 327.342 184.23 329.923 187.225C331.91 189.52 333.505 190.631 333.427 190.715C333.025 190.505 332.651 190.252 332.311 189.96C331.338 189.205 330.438 188.37 329.622 187.466C326.891 184.478 325.057 180.861 324.31 176.986C323.618 173.106 324.058 169.123 325.582 165.458C326.044 164.366 326.608 163.313 327.267 162.314C327.498 161.911 327.779 161.534 328.104 161.193V161.193Z" fill="white"/>
<path d="M269.235 164.536C268.923 164.658 268.59 164.729 268.253 164.746C267.34 164.888 266.42 164.983 265.496 165.029C264.115 165.112 262.728 165.01 261.378 164.725C259.678 164.361 258.127 163.542 256.914 162.367C255.62 161.172 254.682 159.872 253.644 158.793C252.785 157.83 251.768 157.002 250.631 156.341C249.564 155.765 248.367 155.435 247.138 155.376C247.463 155.268 247.811 155.232 248.154 155.272C249.094 155.322 250.01 155.573 250.832 156.005C252.05 156.641 253.139 157.475 254.046 158.468C255.084 159.516 256.077 160.837 257.316 161.979C258.448 163.077 259.881 163.86 261.456 164.243C262.757 164.537 264.092 164.67 265.429 164.641C267.84 164.536 269.235 164.4 269.235 164.536Z" fill="white"/>
<path d="M266.992 483.673C266.836 483.673 266.702 472.69 266.702 459.139C266.702 445.589 266.836 434.606 266.992 434.606C267.148 434.606 267.282 445.589 267.282 459.139C267.282 472.69 267.159 483.673 266.992 483.673Z" fill="#263238"/>
<path d="M271.936 471.065C271.768 471.065 271.646 460.082 271.646 446.532C271.646 432.981 271.768 421.998 271.936 421.998C272.103 421.998 272.226 432.981 272.226 446.532C272.226 460.082 272.092 471.065 271.936 471.065Z" fill="#263238"/>
<path d="M502.557 500.032C502.557 500.179 402.452 500.305 279.011 500.305C155.57 500.305 55.4429 500.179 55.4429 500.032C55.4429 499.886 155.526 499.76 279.011 499.76C402.497 499.76 502.557 499.896 502.557 500.032Z" fill="#263238"/>
</svg>
