<svg width="446" height="426" viewBox="0 0 446 426" fill="none" xmlns="http://www.w3.org/2000/svg">
<path d="M46.6337 107.804C46.6337 107.804 41.2282 111.74 46.4107 116.937C46.5009 117.023 46.6225 117.072 46.7497 117.073L94.0257 116.809C94.0257 116.809 98.0575 112.49 94.7125 107.505L46.6337 107.804Z" fill="#EBEBEB"/>
<path d="M83.5535 111.91C83.5535 111.961 77.6752 112.004 70.4143 112.004C63.1534 112.004 57.2751 111.961 57.2751 111.91C57.2751 111.859 63.1623 111.817 70.4143 111.817C77.6663 111.817 83.5535 111.859 83.5535 111.91Z" fill="#E0E0E0"/>
<path d="M76.2033 113.546C76.2033 113.546 73.4381 113.631 70.0307 113.631C66.6232 113.631 63.8491 113.589 63.8491 113.546C63.8491 113.503 66.6143 113.452 70.0307 113.452C73.447 113.452 76.2033 113.495 76.2033 113.546Z" fill="#E0E0E0"/>
<path d="M88.3882 116.664C88.3882 116.664 88.4864 116.145 88.638 115.31C88.8264 114.223 88.916 113.123 88.9056 112.021C88.8969 110.917 88.7834 109.816 88.5666 108.732C88.4061 107.88 88.2634 107.395 88.2901 107.386C88.3169 107.378 88.3526 107.505 88.4328 107.735C88.5392 108.055 88.6286 108.379 88.7004 108.707C88.9555 109.795 89.09 110.906 89.1018 112.021C89.1093 113.134 88.9987 114.244 88.7718 115.335C88.6737 115.753 88.5934 116.094 88.5131 116.315C88.4849 116.435 88.443 116.553 88.3882 116.664Z" fill="#E0E0E0"/>
<path d="M91.876 107.454C91.9599 107.552 92.0289 107.661 92.0811 107.778C92.1632 107.909 92.2347 108.046 92.2952 108.187C92.3666 108.349 92.4647 108.528 92.536 108.741C92.7276 109.225 92.8768 109.724 92.982 110.232C93.1075 110.858 93.1791 111.494 93.1961 112.132C93.1947 112.769 93.135 113.405 93.0177 114.032C92.9218 114.545 92.7786 115.05 92.5896 115.54C92.5271 115.753 92.429 115.932 92.3666 116.094C92.3041 116.255 92.2239 116.392 92.1614 116.502C92.1032 116.619 92.0345 116.73 91.9563 116.835C91.9563 116.835 92.1882 116.332 92.4647 115.497C92.628 115.009 92.7561 114.511 92.8482 114.006C92.9472 113.386 92.9979 112.759 92.9999 112.132C92.9909 111.506 92.9283 110.882 92.8126 110.266C92.7164 109.763 92.5822 109.268 92.4112 108.783C92.1525 107.948 91.876 107.471 91.876 107.454Z" fill="#E0E0E0"/>
<path d="M54.0907 116.724C54.0016 116.635 53.9265 116.535 53.8677 116.426C53.7885 116.305 53.717 116.18 53.6536 116.051C53.5733 115.898 53.4752 115.727 53.3949 115.531C53.1965 115.072 53.0442 114.595 52.94 114.108C52.815 113.508 52.7522 112.897 52.7527 112.285C52.7705 111.677 52.8482 111.073 52.9846 110.479C53.1158 109.99 53.295 109.513 53.5198 109.056C53.609 108.86 53.7071 108.69 53.7874 108.545C53.8563 108.415 53.9337 108.29 54.0193 108.17C54.0839 108.065 54.1618 107.967 54.2512 107.88C54.2512 107.88 53.9747 108.332 53.6447 109.107C53.4533 109.559 53.3041 110.027 53.1987 110.504C53.0654 111.09 52.9907 111.686 52.9757 112.285C52.9749 112.882 53.0316 113.478 53.1452 114.066C53.2442 114.544 53.3814 115.014 53.5555 115.472C53.832 116.264 54.1264 116.724 54.0907 116.724Z" fill="#E0E0E0"/>
<path d="M48.9885 117.832C48.8973 117.722 48.8167 117.606 48.7477 117.482C48.6542 117.349 48.5708 117.209 48.4979 117.065C48.3909 116.874 48.2956 116.678 48.2125 116.477C47.9854 115.962 47.8063 115.429 47.6773 114.884C47.519 114.215 47.4293 113.533 47.4097 112.847C47.3953 112.162 47.452 111.477 47.5791 110.803C47.6856 110.254 47.8407 109.716 48.043 109.192C48.1233 108.962 48.2214 108.775 48.3017 108.596C48.3819 108.417 48.4622 108.281 48.5336 108.161C48.5946 108.038 48.6694 107.921 48.7566 107.812C48.7566 107.812 48.489 108.34 48.1679 109.235C47.9861 109.758 47.846 110.293 47.7486 110.837C47.641 111.502 47.5903 112.174 47.597 112.847C47.616 113.521 47.6996 114.191 47.8467 114.85C47.9704 115.388 48.1344 115.918 48.3373 116.434C48.6941 117.312 49.0599 117.806 48.9885 117.832Z" fill="#E0E0E0"/>
<path d="M92.2595 130.552V139.191H74.7673V130.552H92.2595Z" fill="#EBEBEB"/>
<path d="M35.7603 134.948C35.7603 135.025 35.7603 135.102 35.7603 135.178C35.8424 136.439 36.4271 137.623 37.3944 138.485C38.3616 139.347 39.6378 139.822 40.9607 139.813H93.0624V139.191H80.7082C79.5088 139.191 78.3585 138.736 77.5104 137.926C76.6622 137.116 76.1858 136.017 76.1858 134.872V134.872C76.1858 133.726 76.6622 132.627 77.5104 131.817C78.3585 131.007 79.5088 130.552 80.7082 130.552H93.0802V129.64L40.9607 129.802C40.2624 129.804 39.5717 129.94 38.9293 130.201C38.287 130.463 37.7062 130.845 37.2213 131.325C36.7363 131.805 36.3571 132.373 36.1062 132.995C35.8553 133.618 35.7376 134.282 35.7603 134.948V134.948Z" fill="#E0E0E0"/>
<path d="M92.2596 134.991C92.2596 135.042 88.6916 135.076 84.2316 135.076C79.7716 135.076 76.2036 135.076 76.2036 134.991C76.2036 134.906 79.7716 134.897 84.2316 134.897C88.6916 134.897 92.2596 134.94 92.2596 134.991Z" fill="#E0E0E0"/>
<path d="M92.0097 136.933C92.0097 136.985 88.6023 137.027 84.4099 137.027C80.2175 137.027 76.8101 136.985 76.8101 136.933C76.8101 136.882 80.2086 136.84 84.4099 136.84C88.6112 136.84 92.0097 136.882 92.0097 136.933Z" fill="#E0E0E0"/>
<path d="M92.2594 138.714C92.2594 138.765 89.1999 138.808 85.4267 138.808C81.6536 138.808 78.594 138.808 78.594 138.714C78.594 138.62 81.6536 138.62 85.4267 138.62C89.1999 138.62 92.2594 138.663 92.2594 138.714Z" fill="#E0E0E0"/>
<path d="M92.2595 133.236C92.2595 133.287 88.6915 133.329 84.3921 133.329C80.0927 133.329 76.5247 133.287 76.5247 133.236C76.5247 133.185 80.0481 133.151 84.3921 133.151C88.7361 133.151 92.2595 133.185 92.2595 133.236Z" fill="#E0E0E0"/>
<path d="M92.0098 131.489C92.0098 131.54 88.8699 131.583 85.0076 131.583C81.1452 131.583 78.0054 131.54 78.0054 131.489C78.0054 131.438 81.1363 131.404 85.0076 131.404C88.8789 131.404 92.0098 131.438 92.0098 131.489Z" fill="#E0E0E0"/>
<path d="M42.0757 129.947C41.6756 130.341 41.306 130.763 40.9696 131.208C40.1811 132.298 39.7662 133.595 39.7822 134.919C39.7982 136.244 40.2442 137.531 41.0588 138.603C41.4071 139.041 41.7887 139.454 42.2005 139.839C42.0619 139.77 41.9355 139.681 41.8259 139.575C41.4971 139.322 41.198 139.037 40.9339 138.723C40.0641 137.644 39.5851 136.324 39.569 134.962C39.5529 133.601 40.0007 132.271 40.8447 131.174C41.0905 130.841 41.3748 130.535 41.6921 130.262C41.8043 130.141 41.9333 130.035 42.0757 129.947V129.947Z" fill="#F5F5F5"/>
<path d="M40.3184 129.768C39.9275 130.158 39.5696 130.577 39.248 131.021C38.4588 132.112 38.0443 133.411 38.0619 134.737C38.0795 136.064 38.5283 137.352 39.3461 138.424C39.6884 138.862 40.0672 139.272 40.479 139.651C40.3437 139.578 40.218 139.489 40.1043 139.387C39.7729 139.138 39.4735 138.852 39.2123 138.535C38.344 137.456 37.8651 136.137 37.8474 134.776C37.8297 133.416 38.2742 132.086 39.1142 130.986C39.3769 130.653 39.6759 130.348 40.0062 130.075C40.0926 129.957 40.198 129.854 40.3184 129.768V129.768Z" fill="#F5F5F5"/>
<path d="M75.713 129.947C75.3161 130.344 74.9467 130.765 74.6069 131.208C73.8185 132.298 73.4036 133.595 73.4196 134.919C73.4355 136.244 73.8816 137.531 74.6961 138.603C75.0387 139.041 75.4144 139.454 75.8201 139.839C75.6831 139.767 75.5571 139.679 75.4454 139.575C75.1166 139.322 74.8175 139.037 74.5534 138.723C73.6891 137.641 73.2135 136.323 73.1974 134.962C73.1814 133.602 73.6257 132.273 74.4642 131.174C74.7266 130.84 75.0257 130.535 75.3562 130.262C75.4628 130.145 75.5825 130.039 75.713 129.947V129.947Z" fill="#F5F5F5"/>
<path d="M73.9556 129.768C73.554 130.158 73.1842 130.577 72.8495 131.021C72.0565 132.11 71.6389 133.409 71.6549 134.736C71.6709 136.063 72.1196 137.352 72.9387 138.424C73.2727 138.858 73.6394 139.268 74.0359 139.651C73.9006 139.578 73.7749 139.489 73.6612 139.387C73.3318 139.136 73.0326 138.85 72.7692 138.535C71.9009 137.456 71.422 136.137 71.4043 134.776C71.3866 133.416 71.8311 132.086 72.6711 130.986C72.9198 130.655 73.2038 130.35 73.5185 130.075C73.645 129.95 73.7928 129.846 73.9556 129.768V129.768Z" fill="#F5F5F5"/>
<path d="M48.0073 136.167L47.9538 132.656C47.9713 132.351 47.929 132.044 47.8289 131.753C47.7759 131.607 47.6823 131.478 47.5581 131.379C47.434 131.28 47.284 131.215 47.1242 131.191C46.6693 130.995 45.9468 131.361 45.6257 131.864C45.3498 132.391 45.2266 132.98 45.2689 133.568C45.2583 134.496 45.306 135.423 45.4116 136.346C45.4289 136.787 45.5445 137.22 45.7506 137.615C45.8436 137.819 46.0014 137.991 46.2017 138.105C46.402 138.219 46.6347 138.27 46.8671 138.251C47.0995 138.233 47.3199 138.145 47.4972 138C47.6746 137.855 47.7999 137.661 47.8557 137.445C47.9845 137.03 48.0359 136.598 48.0073 136.167V136.167Z" fill="#F5F5F5"/>
<path d="M68.2379 135.153C68.2379 135.204 64.4737 135.246 59.8264 135.246C55.179 135.246 51.4148 135.204 51.4148 135.153C51.4148 135.102 55.179 135.068 59.8264 135.068C64.4737 135.068 68.2379 135.11 68.2379 135.153Z" fill="#F5F5F5"/>
<path d="M44.5195 129.606L44.4214 121.419H49.0866L49.2471 129.606H44.5195Z" fill="#F5F5F5"/>
<path d="M48.8102 122.875C48.0921 122.968 47.3667 123 46.6427 122.969C45.9187 123 45.1932 122.968 44.4751 122.875C45.1932 122.783 45.9187 122.751 46.6427 122.782C47.3667 122.751 48.0921 122.783 48.8102 122.875V122.875Z" fill="#E0E0E0"/>
<path d="M48.8102 124.136C48.0921 124.229 47.3667 124.261 46.6427 124.23C45.9187 124.261 45.1932 124.229 44.4751 124.136C45.1938 124.049 45.9189 124.021 46.6427 124.051C47.3664 124.021 48.0916 124.049 48.8102 124.136V124.136Z" fill="#E0E0E0"/>
<path d="M48.8102 125.406C48.0911 125.488 47.3664 125.517 46.6427 125.491C45.9189 125.517 45.1942 125.488 44.4751 125.406C45.1932 125.313 45.9187 125.282 46.6427 125.312C47.3667 125.282 48.0921 125.313 48.8102 125.406V125.406Z" fill="#E0E0E0"/>
<path d="M48.8102 126.667C48.0921 126.76 47.3667 126.791 46.6427 126.761C45.9187 126.791 45.1932 126.76 44.4751 126.667C45.1932 126.574 45.9187 126.543 46.6427 126.573C47.3667 126.543 48.0921 126.574 48.8102 126.667V126.667Z" fill="#E0E0E0"/>
<path d="M48.8102 127.928C48.0921 128.021 47.3667 128.052 46.6427 128.022C45.9187 128.052 45.1932 128.021 44.4751 127.928C45.1932 127.835 45.9187 127.804 46.6427 127.834C47.3667 127.804 48.0921 127.835 48.8102 127.928V127.928Z" fill="#E0E0E0"/>
<path d="M44.1719 121.206H95.9079C96.5018 124.126 96.5018 127.129 95.9079 130.049H44.3949V129.444H47.5347C47.7329 129.45 47.9302 129.418 48.1151 129.349C48.2999 129.281 48.4684 129.177 48.6107 129.046C48.7529 128.914 48.866 128.756 48.9432 128.581C49.0204 128.407 49.0601 128.219 49.06 128.03V123.131C49.06 122.945 49.0214 122.76 48.9465 122.588C48.8715 122.416 48.7616 122.259 48.6232 122.128C48.4847 121.997 48.3205 121.893 48.1398 121.822C47.9591 121.751 47.7656 121.716 47.5704 121.717H44.1719V121.206Z" fill="#EBEBEB"/>
<path d="M56.3922 125.627H57.2842C57.3132 125.619 57.3443 125.619 57.3734 125.627C57.4031 125.642 57.428 125.664 57.4453 125.691C57.4627 125.718 57.4717 125.749 57.4715 125.781C57.4715 125.781 57.4715 125.823 57.4715 125.84C57.4548 125.91 57.434 125.978 57.4091 126.045C57.3095 126.393 57.1262 126.714 56.8739 126.982C56.7834 127.088 56.6707 127.174 56.5433 127.236C56.4158 127.297 56.2762 127.333 56.1335 127.34H56.0354C55.9109 127.32 55.7931 127.272 55.691 127.201C55.5888 127.13 55.5052 127.038 55.4467 126.931C55.2661 126.631 55.1766 126.289 55.188 125.943C55.1916 125.706 55.2306 125.47 55.3039 125.244C55.3924 124.89 55.5666 124.56 55.8124 124.281C55.9046 124.166 56.0217 124.072 56.1556 124.004C56.2895 123.937 56.4372 123.897 56.5884 123.889C56.7033 123.889 56.8164 123.916 56.9185 123.966C57.0399 124.028 57.1469 124.112 57.2328 124.215C57.3187 124.317 57.3817 124.436 57.418 124.562C57.4275 124.59 57.4275 124.62 57.418 124.648C57.4264 124.675 57.4264 124.705 57.418 124.733C57.4016 124.76 57.3783 124.783 57.3502 124.799C57.3222 124.816 57.2903 124.825 57.2574 124.827H57.195C57.1668 124.817 57.1414 124.802 57.1211 124.781C57.1009 124.76 57.0864 124.735 57.079 124.707V124.707C57.0563 124.636 57.02 124.57 56.972 124.511C56.9434 124.44 56.8958 124.378 56.834 124.33C56.7722 124.282 56.6984 124.251 56.6198 124.239C56.5413 124.227 56.4609 124.234 56.3865 124.261C56.3121 124.288 56.2464 124.333 56.1959 124.392C55.9793 124.562 55.8158 124.786 55.7232 125.04C55.5922 125.333 55.5225 125.649 55.518 125.968C55.5112 126.22 55.563 126.47 55.6697 126.701C55.702 126.79 55.7619 126.868 55.8415 126.925C55.9211 126.981 56.0167 127.013 56.1157 127.016C56.1992 127.007 56.2797 126.981 56.3519 126.94C56.4242 126.899 56.4865 126.843 56.5349 126.778C56.736 126.553 56.8877 126.292 56.9809 126.011H56.3565C56.302 126.007 56.251 125.984 56.2132 125.946C56.1754 125.908 56.1534 125.859 56.1513 125.806C56.1513 125.806 56.1513 125.806 56.1513 125.747C56.1677 125.701 56.2018 125.663 56.2467 125.641C56.2916 125.619 56.3437 125.614 56.3922 125.627V125.627Z" fill="#FAFAFA"/>
<path d="M62.2168 127.365H60.6558C60.6238 127.374 60.5898 127.374 60.5577 127.365C60.53 127.342 60.5078 127.313 60.4925 127.281C60.4771 127.248 60.469 127.213 60.4685 127.178V127.178C60.4685 127.118 60.6112 126.105 60.8967 124.128C60.8967 124.128 60.8967 124.128 60.8967 124.068C60.9083 124.035 60.9312 124.006 60.9618 123.986C60.9925 123.966 61.0291 123.956 61.0661 123.957H61.1464C61.1783 123.971 61.2049 123.995 61.2224 124.024C61.24 124.053 61.2477 124.086 61.2446 124.119C61.2446 124.247 61.2445 124.528 61.1375 124.971C60.968 126.266 60.8699 126.957 60.861 127.025H62.1901C62.2223 127.017 62.256 127.017 62.2882 127.025C62.3243 127.034 62.3556 127.056 62.3768 127.086C62.398 127.115 62.4077 127.151 62.4041 127.187C62.4085 127.206 62.4085 127.227 62.4041 127.246C62.3895 127.282 62.3637 127.313 62.3302 127.334C62.2967 127.355 62.2571 127.366 62.2168 127.365Z" fill="#FAFAFA"/>
<path d="M66.8287 125.781C66.9446 126.105 67.0427 126.352 67.1052 126.522C67.2657 126.948 67.346 127.17 67.346 127.195C67.3552 127.226 67.3552 127.258 67.346 127.289C67.3292 127.317 67.3039 127.34 67.2733 127.354C67.2428 127.368 67.2084 127.374 67.1747 127.369C67.1411 127.364 67.1096 127.35 67.0845 127.328C67.0593 127.306 67.0417 127.278 67.0338 127.246V127.17C66.9446 126.991 66.8108 126.641 66.6146 126.122L65.7226 127.272C65.7076 127.3 65.6847 127.324 65.6563 127.341C65.6279 127.357 65.5953 127.366 65.562 127.366C65.5298 127.373 65.4961 127.373 65.4639 127.366C65.4359 127.352 65.4125 127.332 65.3967 127.306C65.3808 127.28 65.3732 127.25 65.3747 127.221V127.221C65.3977 127.167 65.431 127.118 65.4728 127.076C65.7672 126.709 66.0972 126.275 66.454 125.772C66.4133 125.68 66.3776 125.587 66.347 125.491C66.008 124.639 65.8475 124.205 65.8475 124.171C65.8395 124.143 65.8395 124.113 65.8475 124.085C65.8584 124.058 65.8779 124.034 65.9034 124.017C65.9289 124 65.9592 123.991 65.9902 123.992C66.0268 123.992 66.0626 124.002 66.094 124.02C66.1253 124.037 66.1511 124.063 66.1686 124.094L66.6859 125.431L67.7296 124.077C67.7485 124.053 67.7728 124.034 67.8006 124.021C67.8284 124.007 67.859 124 67.8901 124C67.9191 123.991 67.9504 123.991 67.9793 124C68.0088 124.016 68.0328 124.04 68.0486 124.069C68.0644 124.097 68.0713 124.13 68.0685 124.162C68.0718 124.187 68.0718 124.213 68.0685 124.239L66.8287 125.781Z" fill="#FAFAFA"/>
<path d="M70.6821 123.949C70.7113 123.942 70.742 123.942 70.7713 123.949C70.7998 123.965 70.8237 123.987 70.8408 124.014C70.858 124.041 70.8678 124.071 70.8694 124.102C70.6077 126.028 70.465 127.067 70.4412 127.221C70.3991 127.511 70.286 127.789 70.1112 128.03C69.995 128.187 69.8394 128.314 69.6586 128.399C69.4779 128.484 69.2777 128.524 69.0765 128.516C68.9035 128.507 68.734 128.466 68.5769 128.396C68.3431 128.307 68.1502 128.141 68.0328 127.928C68.0239 127.9 68.0239 127.87 68.0328 127.843C68.0249 127.815 68.0249 127.785 68.0328 127.757C68.0482 127.73 68.0715 127.707 68.1 127.692C68.1285 127.677 68.1609 127.67 68.1934 127.672C68.221 127.673 68.2481 127.679 68.2727 127.691C68.2974 127.703 68.319 127.72 68.3361 127.74C68.4226 127.868 68.5398 127.974 68.6779 128.05C68.816 128.125 68.971 128.168 69.13 128.175C69.2509 128.173 69.3698 128.146 69.4779 128.094C69.586 128.042 69.6805 127.968 69.7544 127.877C69.9672 127.606 70.0858 127.278 70.0934 126.94C70.0358 127.03 69.96 127.108 69.8704 127.17C69.7098 127.289 69.5116 127.352 69.3084 127.348H69.2014C69.0769 127.328 68.959 127.281 68.8569 127.21C68.7548 127.139 68.6712 127.046 68.6126 126.94C68.427 126.641 68.337 126.298 68.354 125.951C68.354 125.769 68.354 125.582 68.354 125.389C68.354 125.091 68.4521 124.665 68.5591 124.111C68.5591 124.111 68.5591 124.111 68.5591 124.06C68.5691 124.025 68.5913 123.994 68.6221 123.972C68.6529 123.95 68.6904 123.939 68.7286 123.94C68.7578 123.933 68.7886 123.933 68.8178 123.94C68.8459 123.951 68.8696 123.97 68.8857 123.995C68.9017 124.019 68.9092 124.048 68.907 124.077C68.907 124.171 68.907 124.392 68.8267 124.758C68.7659 125.103 68.7242 125.449 68.7018 125.798C68.6903 126.071 68.7389 126.344 68.8446 126.599C68.9427 126.846 69.1032 126.965 69.2995 126.965H69.3619C69.5609 126.907 69.7297 126.779 69.8347 126.607C70.0196 126.35 70.15 126.06 70.2182 125.755L70.4502 124.051C70.4464 124.026 70.4464 124 70.4502 123.975C70.4632 123.958 70.4798 123.944 70.4987 123.933C70.5177 123.923 70.5386 123.916 70.5603 123.914C70.5821 123.912 70.6041 123.914 70.625 123.92C70.6459 123.926 70.6653 123.936 70.6821 123.949V123.949Z" fill="#FAFAFA"/>
<path d="M93.9276 130.169C93.8741 130.169 93.8384 128.132 93.8384 125.627C93.8384 123.123 93.8384 121.086 93.9276 121.086C94.0168 121.086 94.0257 123.123 94.0257 125.627C94.0257 128.132 93.9811 130.169 93.9276 130.169Z" fill="#F5F5F5"/>
<path d="M51.62 130.169C51.5664 130.169 51.5308 128.132 51.5308 125.627C51.5308 123.123 51.5308 121.086 51.62 121.086C51.7092 121.086 51.7181 123.123 51.7181 125.627C51.7181 128.132 51.6735 130.169 51.62 130.169Z" fill="#E0E0E0"/>
<path d="M94.8374 130.169C94.7839 130.169 94.7393 128.132 94.7393 125.627C94.7393 123.123 94.7839 121.086 94.8374 121.086C94.8909 121.086 94.9355 123.123 94.9355 125.627C94.9355 128.132 94.8909 130.169 94.8374 130.169Z" fill="#F5F5F5"/>
<path d="M50.7725 130.169C50.719 130.169 50.6833 128.132 50.6833 125.627C50.6833 123.123 50.6833 121.086 50.7725 121.086C50.8617 121.086 50.8707 123.123 50.8707 125.627C50.8707 128.132 50.8439 130.169 50.7725 130.169Z" fill="#E0E0E0"/>
<path d="M81.3949 122.586L86.8629 126.795H86.8005L86.0779 126.982L81.4663 128.132L77.2917 126.428L76.1054 125.951L75.7932 125.815H75.7129H75.7932L76.1143 125.943L77.3007 126.411L81.4931 128.115L86.0958 126.948L86.8183 126.761V126.82L81.3682 122.56" fill="#E0E0E0"/>
<path d="M86.3545 126.122L86.6578 126.386L87.0503 126.309L86.8808 126.658L87.086 126.999L86.6756 126.948L86.408 127.238L86.3278 126.854L85.9531 126.701L86.3188 126.514L86.3545 126.122Z" fill="#E0E0E0"/>
<path d="M81.1185 127.783L81.3148 127.945L81.5735 127.877L81.4753 128.107L81.6181 128.32L81.3594 128.303L81.1899 128.499L81.1274 128.26L80.8777 128.166L81.1007 128.039L81.1185 127.783Z" fill="#E0E0E0"/>
<path d="M75.3206 125.517L75.6506 125.534L75.8468 125.287L75.9271 125.593L76.2393 125.696L75.9628 125.857L75.945 126.173L75.6952 125.977L75.383 126.062L75.5079 125.772L75.3206 125.517Z" fill="#E0E0E0"/>
<path d="M88.8074 122.645L89.1285 122.671L89.3337 122.424L89.4139 122.722L89.7172 122.833L89.4407 122.995L89.4318 123.31L89.182 123.114L88.8698 123.199L88.9858 122.91L88.8074 122.645Z" fill="#E0E0E0"/>
<path d="M81.1274 122.449L81.3326 122.458L81.4664 122.305L81.5199 122.492L81.7072 122.56L81.5378 122.671L81.5288 122.867L81.3683 122.739L81.172 122.799L81.2434 122.611L81.1274 122.449Z" fill="#E0E0E0"/>
<path d="M89.2624 122.867C89.2624 122.867 87.4784 122.867 85.3108 122.739C83.1432 122.611 81.3682 122.56 81.3682 122.543C81.3682 122.526 83.1522 122.543 85.3197 122.671C87.4873 122.799 89.2624 122.85 89.2624 122.867Z" fill="#E0E0E0"/>
<path d="M91.2426 121.129H38.8109C38.124 119.638 37.9189 118.224 38.8109 116.954H91.2426C91.5713 117.605 91.7421 118.319 91.7421 119.041C91.7421 119.764 91.5713 120.478 91.2426 121.129V121.129Z" fill="#E0E0E0"/>
<path d="M78.0767 118.147H49.6665V119.663H78.0767V118.147Z" fill="#EBEBEB"/>
<path d="M40.8268 121.146C40.8268 121.146 40.6216 120.993 40.4076 120.643C40.1413 120.187 39.9802 119.681 39.9348 119.161C39.8872 118.642 39.9541 118.12 40.131 117.627C40.1907 117.418 40.3007 117.226 40.4522 117.065C40.4017 117.27 40.3391 117.472 40.2648 117.67C40.1265 118.152 40.0782 118.654 40.1221 119.152C40.1669 119.649 40.306 120.134 40.5324 120.584C40.6417 120.766 40.74 120.953 40.8268 121.146Z" fill="#E0E0E0"/>
<path d="M41.924 121.146C41.924 121.146 41.7188 120.993 41.5136 120.643C41.2401 120.189 41.0756 119.683 41.032 119.161C40.9844 118.642 41.0512 118.12 41.2282 117.627C41.2921 117.42 41.4016 117.228 41.5493 117.065C41.4988 117.27 41.4363 117.472 41.362 117.67C41.2237 118.152 41.1754 118.654 41.2193 119.152C41.2641 119.649 41.4031 120.134 41.6296 120.584C41.7389 120.766 41.8372 120.953 41.924 121.146Z" fill="#E0E0E0"/>
<path d="M89.1287 121.052C89.3324 120.389 89.4551 119.706 89.4944 119.016C89.4706 118.323 89.3537 117.636 89.1465 116.971C89.5358 117.586 89.7223 118.298 89.6817 119.016C89.7056 119.731 89.5136 120.438 89.1287 121.052V121.052Z" fill="#F5F5F5"/>
<path d="M88.1474 121.044C88.0939 121.044 88.3169 120.192 88.3079 119.041C88.299 117.891 88.0849 117.065 88.1474 117.048C88.4116 117.681 88.5303 118.361 88.4953 119.041C88.5293 119.725 88.4107 120.407 88.1474 121.044V121.044Z" fill="#F5F5F5"/>
<path d="M134.614 59.0199L115.945 59.1164L116.052 78.0305L134.721 77.934L134.614 59.0199Z" fill="#EBEBEB"/>
<path d="M153.479 58.2445L134.81 58.4228L135.008 77.3372L153.677 77.1589L153.479 58.2445Z" fill="#F5F5F5"/>
<path d="M115.96 64.343C128.368 64.4453 140.811 64.3431 153.21 64.1812C153.262 64.1812 153.312 64.1614 153.349 64.1263C153.386 64.0911 153.406 64.0434 153.406 63.9937C153.406 63.944 153.386 63.8963 153.349 63.8612C153.312 63.826 153.262 63.8063 153.21 63.8063C140.805 63.7381 128.389 63.8091 115.96 64.0193C115.915 64.0193 115.872 64.0363 115.84 64.0667C115.808 64.0971 115.791 64.1382 115.791 64.1812C115.791 64.2241 115.808 64.2653 115.84 64.2956C115.872 64.326 115.915 64.343 115.96 64.343Z" fill="#E0E0E0"/>
<path d="M138.225 77.6172L104.303 77.7925L104.39 93.205L138.313 93.0297L138.225 77.6172Z" fill="#EBEBEB"/>
<path d="M171.995 77.4427L138.073 77.618L138.16 93.0305L172.082 92.8552L171.995 77.4427Z" fill="#F5F5F5"/>
<path d="M104.364 82.0902C126.896 82.3288 149.508 82.0902 172.04 81.7664C172.092 81.7664 172.142 81.7467 172.179 81.7115C172.216 81.6764 172.236 81.6287 172.236 81.579C172.236 81.5293 172.216 81.4816 172.179 81.4465C172.142 81.4113 172.092 81.3916 172.04 81.3916C149.508 81.2808 126.887 81.2893 104.355 81.7664C104.31 81.7664 104.267 81.7835 104.235 81.8139C104.203 81.8442 104.186 81.8854 104.186 81.9283C104.186 81.9713 104.203 82.0124 104.235 82.0428C104.267 82.0731 104.31 82.0902 104.355 82.0902H104.364Z" fill="#E0E0E0"/>
<path d="M107.616 164.883L73.6938 165.058L73.7812 180.47L107.703 180.295L107.616 164.883Z" fill="#EBEBEB"/>
<path d="M141.377 164.7L107.454 164.875L107.542 180.287L141.464 180.112L141.377 164.7Z" fill="#F5F5F5"/>
<path d="M73.706 169.344C96.2379 169.591 118.85 169.344 141.391 169.028C141.437 169.019 141.478 168.995 141.508 168.96C141.537 168.925 141.554 168.882 141.554 168.837C141.554 168.792 141.537 168.748 141.508 168.713C141.478 168.678 141.437 168.654 141.391 168.645C118.859 168.534 96.2468 168.543 73.7149 169.02C73.6699 169.02 73.6268 169.037 73.5951 169.067C73.5633 169.098 73.5454 169.139 73.5454 169.182C73.5454 169.225 73.5633 169.266 73.5951 169.296C73.6268 169.326 73.6699 169.344 73.7149 169.344H73.706Z" fill="#E0E0E0"/>
<path d="M62.0681 52.5871L53.5139 52.6313L53.7443 93.2967L62.2984 93.2525L62.0681 52.5871Z" fill="#E0E0E0"/>
<path d="M70.4204 37.4209L61.8662 37.4651L62.183 93.3981L70.7372 93.3539L70.4204 37.4209Z" fill="#EBEBEB"/>
<path d="M83.8056 47.8399L70.5061 47.9086L70.7629 93.2344L84.0624 93.1656L83.8056 47.8399Z" fill="#F5F5F5"/>
<path d="M83.7052 56.5728C81.4976 56.7863 79.2775 56.8574 77.0598 56.7858C74.8392 56.8576 72.6161 56.7864 70.4055 56.5728C72.6153 56.3485 74.839 56.2744 77.0598 56.3513C79.2777 56.2746 81.4984 56.3486 83.7052 56.5728V56.5728Z" fill="#E0E0E0"/>
<path d="M83.7052 54.6643C81.498 54.8834 79.2777 54.9574 77.0598 54.8859C74.839 54.9576 72.6157 54.8836 70.4055 54.6643C72.6157 54.4451 74.839 54.3711 77.0598 54.4428C79.2777 54.3713 81.498 54.4453 83.7052 54.6643V54.6643Z" fill="#E0E0E0"/>
<path d="M83.7052 86.3417C81.4984 86.5659 79.2777 86.6399 77.0598 86.5632C74.839 86.6401 72.6153 86.566 70.4055 86.3417C72.6157 86.1225 74.839 86.0484 77.0598 86.1202C79.2777 86.0486 81.498 86.1226 83.7052 86.3417V86.3417Z" fill="#E0E0E0"/>
<path d="M83.7052 84.4417C81.498 84.6608 79.2777 84.7348 77.0598 84.6632C74.839 84.735 72.6157 84.6609 70.4055 84.4417C72.6157 84.2225 74.839 84.1485 77.0598 84.2202C79.2777 84.1486 81.498 84.2226 83.7052 84.4417V84.4417Z" fill="#E0E0E0"/>
<path d="M77.2739 80.284C77.1401 80.284 77.042 75.7088 77.042 70.06C77.042 64.4112 77.1401 59.836 77.2739 59.836C77.4077 59.836 77.4969 64.4027 77.4969 70.06C77.4969 75.7173 77.3988 80.284 77.2739 80.284Z" fill="#E0E0E0"/>
<path d="M98.3161 58.9669H83.8479V93.1833H98.3161V58.9669Z" fill="#EBEBEB"/>
<path d="M68.4788 46.9708C68.4805 47.4359 68.3379 47.891 68.0688 48.2786C67.7998 48.6663 67.4164 48.969 66.9672 49.1485C66.518 49.3281 66.0232 49.3763 65.5453 49.2873C65.0674 49.1982 64.6279 48.9757 64.2823 48.6481C63.9368 48.3204 63.7007 47.9022 63.604 47.4464C63.5073 46.9906 63.5542 46.5176 63.7389 46.0873C63.9236 45.657 64.2378 45.2886 64.6417 45.0288C65.0455 44.769 65.521 44.6295 66.0079 44.6278C66.3316 44.6255 66.6525 44.6845 66.9521 44.8012C67.2518 44.918 67.5243 45.0902 67.754 45.308C67.9837 45.5258 68.166 45.7848 68.2903 46.0702C68.4147 46.3556 68.4788 46.6617 68.4788 46.9708V46.9708Z" fill="#E0E0E0"/>
<path d="M66.7749 53.4375H65.2585V86.7081H66.7749V53.4375Z" fill="#E0E0E0"/>
<path d="M180.327 140.094H29.6768V145.019H180.327V140.094Z" fill="#E0E0E0"/>
<path d="M180.327 93.4048H29.6768V98.3294H180.327V93.4048Z" fill="#E0E0E0"/>
<path d="M180.327 180.496H60.4241V185.14H180.327V180.496Z" fill="#E0E0E0"/>
<path d="M104.997 97.358H99.2527V143.809H104.997V97.358Z" fill="#E0E0E0"/>
<path d="M66.1952 140.094H60.4507V185.123H66.1952V140.094Z" fill="#E0E0E0"/>
<path d="M133.8 118.982L130.232 123.83C130.232 123.83 138.18 125.934 138.18 132.682C138.18 139.43 133.318 140.691 128.029 140.691C122.739 140.691 117.655 139.217 117.869 132.469C118.083 125.721 124.71 123.191 124.71 123.191L121.401 118.982H133.8Z" fill="#F5F5F5"/>
<path d="M373.275 292.56H213.803V362.807H373.275V292.56Z" fill="#F5F5F5"/>
<path d="M369.475 359.493H217.452V296.257H369.475V359.493ZM218.442 358.547H368.485V297.203H218.442V358.547Z" fill="#E0E0E0"/>
<path d="M412.238 292.56H373.275V362.807H412.238V292.56Z" fill="#E0E0E0"/>
<path d="M217.942 315.828H368.985C369.031 315.819 369.072 315.794 369.102 315.76C369.131 315.725 369.147 315.681 369.147 315.636C369.147 315.591 369.131 315.548 369.102 315.513C369.072 315.478 369.031 315.454 368.985 315.445H217.942C217.896 315.454 217.855 315.478 217.826 315.513C217.796 315.548 217.78 315.591 217.78 315.636C217.78 315.681 217.796 315.725 217.826 315.76C217.855 315.794 217.896 315.819 217.942 315.828V315.828Z" fill="#E0E0E0"/>
<path d="M293.959 315.632C294.378 309.28 294.396 302.91 294.012 296.556C294.012 296.504 293.99 296.454 293.952 296.417C293.914 296.38 293.861 296.36 293.807 296.36C293.753 296.36 293.7 296.38 293.662 296.417C293.623 296.454 293.602 296.504 293.602 296.556C293.218 302.91 293.236 309.28 293.655 315.632C293.655 315.67 293.671 315.707 293.7 315.734C293.728 315.762 293.767 315.777 293.807 315.777C293.847 315.777 293.886 315.762 293.914 315.734C293.943 315.707 293.959 315.67 293.959 315.632Z" fill="#E0E0E0"/>
<path d="M334.607 306.098C334.607 306.488 334.486 306.869 334.259 307.192C334.032 307.516 333.71 307.768 333.333 307.917C332.956 308.066 332.541 308.104 332.141 308.028C331.741 307.951 331.374 307.763 331.086 307.487C330.798 307.211 330.603 306.859 330.524 306.477C330.446 306.094 330.488 305.698 330.645 305.339C330.803 304.98 331.068 304.673 331.408 304.457C331.748 304.242 332.147 304.128 332.555 304.13C332.825 304.13 333.093 304.181 333.342 304.28C333.592 304.379 333.819 304.524 334.009 304.707C334.2 304.89 334.351 305.107 334.453 305.346C334.556 305.584 334.608 305.84 334.607 306.098V306.098Z" fill="#E0E0E0"/>
<path d="M255.344 306.098C255.351 306.49 255.235 306.876 255.011 307.205C254.787 307.534 254.465 307.791 254.086 307.944C253.708 308.097 253.29 308.139 252.887 308.063C252.484 307.987 252.113 307.798 251.823 307.52C251.534 307.242 251.337 306.888 251.26 306.502C251.183 306.117 251.228 305.718 251.389 305.357C251.551 304.996 251.822 304.69 252.168 304.477C252.513 304.265 252.917 304.156 253.328 304.164C253.861 304.173 254.37 304.38 254.746 304.741C255.123 305.102 255.337 305.589 255.344 306.098V306.098Z" fill="#E0E0E0"/>
<path d="M295.519 327.875C295.519 328.265 295.398 328.646 295.172 328.969C294.945 329.293 294.622 329.546 294.245 329.694C293.868 329.843 293.454 329.881 293.054 329.805C292.654 329.728 292.287 329.54 291.999 329.264C291.711 328.988 291.515 328.636 291.437 328.254C291.358 327.872 291.401 327.476 291.558 327.116C291.715 326.757 291.981 326.45 292.321 326.235C292.661 326.019 293.06 325.905 293.468 325.907C294.013 325.909 294.535 326.118 294.919 326.487C295.304 326.855 295.519 327.355 295.519 327.875V327.875Z" fill="#E0E0E0"/>
<path d="M232.865 362.807L224.659 406.915H229.271L244.408 362.807H232.865Z" fill="#E0E0E0"/>
<path d="M361.991 362.807L368.86 406.992H364.239L350.449 362.807H361.991Z" fill="#E0E0E0"/>
<path d="M392.819 362.807L400.597 406.992H395.977L381.276 362.807H392.819Z" fill="#E0E0E0"/>
<path d="M295.386 347.761C295.386 348.15 295.265 348.531 295.038 348.854C294.812 349.178 294.49 349.43 294.114 349.579C293.737 349.728 293.323 349.767 292.923 349.691C292.523 349.615 292.156 349.428 291.868 349.153C291.58 348.877 291.384 348.527 291.304 348.145C291.225 347.763 291.266 347.367 291.422 347.008C291.577 346.648 291.842 346.341 292.18 346.124C292.519 345.908 292.918 345.793 293.325 345.793C293.872 345.793 294.396 346 294.782 346.369C295.169 346.738 295.386 347.239 295.386 347.761V347.761Z" fill="#E0E0E0"/>
<path d="M217.942 337.579H368.985C369.031 337.57 369.072 337.546 369.102 337.511C369.131 337.476 369.147 337.433 369.147 337.388C369.147 337.343 369.131 337.299 369.102 337.264C369.072 337.229 369.031 337.205 368.985 337.196H217.942C217.896 337.205 217.855 337.229 217.826 337.264C217.796 337.299 217.78 337.343 217.78 337.388C217.78 337.433 217.796 337.476 217.826 337.511C217.855 337.546 217.896 337.57 217.942 337.579Z" fill="#E0E0E0"/>
<path d="M325.125 268.701L325.073 259.329L276.852 259.571L276.904 268.943L325.125 268.701Z" fill="#E0E0E0"/>
<path d="M330.917 292.356L330.837 277.787L277.095 278.055L277.175 292.624L330.917 292.356Z" fill="#F5F5F5"/>
<path d="M320.585 292.236C320.433 292.236 320.317 288.973 320.317 284.951C320.317 280.93 320.433 277.667 320.585 277.667C320.843 280.087 320.929 282.52 320.843 284.951C320.929 287.382 320.843 289.816 320.585 292.236V292.236Z" fill="#E0E0E0"/>
<path d="M322.842 292.236C322.578 289.817 322.488 287.383 322.574 284.951C322.488 282.52 322.578 280.086 322.842 277.667C323.1 280.087 323.186 282.52 323.1 284.951C323.186 287.382 323.1 289.816 322.842 292.236V292.236Z" fill="#E0E0E0"/>
<path d="M285.279 292.236C285.021 289.816 284.935 287.382 285.021 284.951C284.935 282.52 285.021 280.087 285.279 277.667C285.537 280.087 285.624 282.52 285.538 284.951C285.624 287.382 285.537 289.816 285.279 292.236V292.236Z" fill="#E0E0E0"/>
<path d="M287.536 292.236C287.278 289.816 287.192 287.382 287.277 284.951C287.192 282.52 287.278 280.087 287.536 277.667C287.794 280.087 287.881 282.52 287.795 284.951C287.881 287.382 287.794 289.816 287.536 292.236V292.236Z" fill="#E0E0E0"/>
<path d="M292.46 285.216C292.46 285.071 297.883 284.96 304.573 284.96C311.263 284.96 316.678 285.071 316.678 285.216C316.678 285.36 311.263 285.463 304.573 285.463C297.883 285.463 292.46 285.352 292.46 285.216Z" fill="#E0E0E0"/>
<path d="M351.099 277.7L351.048 268.328L284.737 268.66L284.789 278.032L351.099 277.7Z" fill="#EBEBEB"/>
<path d="M341.636 276.551C341.007 276.561 340.389 276.392 339.86 276.066C339.332 275.74 338.916 275.272 338.667 274.72C338.418 274.168 338.346 273.558 338.46 272.967C338.574 272.376 338.87 271.831 339.309 271.401C339.748 270.97 340.311 270.674 340.927 270.55C341.542 270.426 342.183 270.48 342.766 270.704C343.35 270.928 343.851 271.312 344.206 271.809C344.56 272.305 344.753 272.891 344.758 273.492C344.765 273.889 344.69 274.284 344.536 274.653C344.383 275.022 344.154 275.358 343.864 275.643C343.574 275.927 343.228 276.154 342.845 276.31C342.463 276.465 342.052 276.547 341.636 276.551V276.551Z" fill="#E0E0E0"/>
<path d="M333.001 274.455V272.58H288.606V274.455H333.001Z" fill="#E0E0E0"/>
<path d="M374.961 132.503H299.4V207.735H374.961V132.503Z" fill="#E0E0E0"/>
<path d="M369.85 132.503H294.289V207.735H369.85V132.503Z" fill="#FAFAFA"/>
<path d="M369.868 207.752H294.262V132.478H369.868V207.752ZM294.306 207.709H369.823V132.52H294.306V207.709Z" fill="#E0E0E0"/>
<path d="M359.681 142.616H304.439V197.621H359.681V142.616Z" fill="white"/>
<path d="M304.44 197.988C304.046 198.538 303.588 199.044 303.075 199.496C302.183 200.348 300.961 201.592 299.569 202.904C298.178 204.216 296.893 205.383 296.001 206.21C295.521 206.689 294.985 207.114 294.405 207.479C294.79 206.926 295.246 206.419 295.76 205.971C296.652 205.076 297.883 203.875 299.328 202.563C300.773 201.251 302.004 200.084 302.896 199.257C303.356 198.777 303.874 198.351 304.44 197.988V197.988Z" fill="#E0E0E0"/>
<path d="M359.681 197.851C360.263 198.223 360.796 198.661 361.269 199.155C362.206 200.007 363.463 201.174 364.837 202.503C366.211 203.832 367.433 205.059 368.298 205.911C368.802 206.369 369.248 206.88 369.627 207.436C369.047 207.082 368.514 206.661 368.039 206.184C367.103 205.332 365.845 204.156 364.471 202.819C363.098 201.481 361.875 200.263 361.01 199.368C360.51 198.91 360.065 198.402 359.681 197.851V197.851Z" fill="#E0E0E0"/>
<path d="M359.538 142.761C359.925 142.206 360.38 141.697 360.894 141.245C361.786 140.393 363.017 139.157 364.409 137.837C365.8 136.516 367.085 135.366 368.021 134.539C368.494 134.052 369.031 133.626 369.618 133.27C369.227 133.819 368.772 134.325 368.262 134.778C367.37 135.63 366.13 136.874 364.694 138.186C363.258 139.498 362.018 140.665 361.126 141.492C360.65 141.972 360.117 142.398 359.538 142.761Z" fill="#E0E0E0"/>
<path d="M304.288 142.897C303.71 142.523 303.18 142.086 302.709 141.594C301.772 140.742 300.515 139.566 299.141 138.237C297.767 136.908 296.554 135.681 295.689 134.829C295.187 134.37 294.742 133.858 294.36 133.304C294.942 133.669 295.473 134.104 295.939 134.599C296.831 135.451 298.133 136.627 299.507 137.956C300.88 139.285 302.102 140.512 302.968 141.415C303.47 141.855 303.914 142.353 304.288 142.897V142.897Z" fill="#E0E0E0"/>
<path d="M359.538 197.664C359.531 197.573 359.531 197.482 359.538 197.391C359.538 197.204 359.538 196.957 359.538 196.625C359.538 195.932 359.538 194.943 359.538 193.66C359.538 191.053 359.538 187.261 359.485 182.447C359.485 172.811 359.422 159.085 359.378 142.659L359.592 142.863H304.502L304.752 142.633C304.752 162.817 304.752 181.706 304.752 197.638L304.538 197.434L344.428 197.536L355.631 197.587H358.602H359.369H359.636H358.584H355.658L344.499 197.638L304.475 197.741H304.27V197.664C304.27 181.732 304.27 162.843 304.27 142.659V142.42H304.52H359.61H359.824V142.625C359.779 159.111 359.743 172.879 359.717 182.541C359.717 187.338 359.672 191.112 359.663 193.711C359.663 194.98 359.663 195.96 359.663 196.633C359.663 196.957 359.663 197.204 359.663 197.383C359.663 197.562 359.538 197.664 359.538 197.664Z" fill="#E0E0E0"/>
<path d="M341.288 161.309H322.85V178.92H341.288V161.309Z" fill="#EBEBEB"/>
<path d="M205.954 88.0627C200.98 91.092 195.189 92.6702 189.291 92.6039C187.426 92.4946 185.556 92.4747 183.689 92.5443C181.809 92.6183 180.008 93.2866 178.569 94.4442C177.862 95.0341 177.358 95.814 177.123 96.682C176.887 97.5499 176.931 98.4655 177.249 99.3091C178.302 101.61 181.709 102.521 182.226 104.983C182.601 106.756 181.219 108.443 179.658 109.474C178.097 110.504 176.277 111.178 174.966 112.49C174.174 113.275 173.615 114.247 173.346 115.306C173.076 116.365 173.106 117.474 173.431 118.519C173.757 119.563 174.367 120.507 175.199 121.253C176.031 121.999 177.056 122.521 178.168 122.765C179.497 123.063 181.129 123.071 181.852 124.179C182.235 125.02 182.304 125.962 182.048 126.846C181.698 128.745 181.962 130.7 182.806 132.452C183.241 133.319 183.919 134.055 184.764 134.576C185.61 135.098 186.59 135.386 187.596 135.408C188.381 135.408 189.148 135.153 189.933 135.17C190.325 135.147 190.715 135.238 191.051 135.431C191.387 135.624 191.654 135.911 191.815 136.252C191.898 136.763 191.874 137.284 191.744 137.785C191.459 140.299 194.081 142.267 196.623 142.983C201.699 144.431 207.327 143.034 211.645 140.052C215.962 137.07 218.914 132.656 220.921 127.97C222.928 123.284 224.008 118.309 225.078 113.35" fill="#263238"/>
<path d="M262.649 213.383C262.081 212.041 261.227 210.826 260.143 209.814C253.426 202.998 243.248 199.717 233.463 200.254C223.678 200.791 214.303 204.855 206.703 210.742C202.645 213.886 197.168 219.944 195.74 224.749C201.699 226.121 210.601 224.212 216.256 221.869C221.912 219.526 227.442 216.698 233.535 216.101C240.599 215.411 247.539 217.805 254.497 219.16C255.888 219.484 257.324 219.593 258.751 219.484C259.464 219.423 260.156 219.218 260.78 218.883C261.404 218.548 261.947 218.091 262.373 217.541C262.747 216.914 262.966 216.213 263.014 215.493C263.062 214.772 262.937 214.051 262.649 213.383V213.383Z" fill="#FF725E"/>
<g opacity="0.3">
<path opacity="0.3" d="M262.649 213.383C262.081 212.041 261.227 210.826 260.143 209.814C253.426 202.998 243.248 199.717 233.463 200.254C223.678 200.791 214.303 204.855 206.703 210.742C202.645 213.886 197.168 219.944 195.74 224.749C201.699 226.121 210.601 224.212 216.256 221.869C221.912 219.526 227.442 216.698 233.535 216.101C240.599 215.411 247.539 217.805 254.497 219.16C255.888 219.484 257.324 219.593 258.751 219.484C259.464 219.423 260.156 219.218 260.78 218.883C261.404 218.548 261.947 218.091 262.373 217.541C262.747 216.914 262.966 216.213 263.014 215.493C263.062 214.772 262.937 214.051 262.649 213.383V213.383Z" fill="black"/>
</g>
<path d="M257.788 294.664L274.798 284.142C274.798 284.142 291.746 297.118 295.056 295.465L274.861 263.268L247.646 278.604L257.788 294.664Z" fill="#FF725E"/>
<path d="M267.083 275.009C266.985 274.642 267.033 274.253 267.218 273.918C267.402 273.583 267.71 273.325 268.082 273.194C268.463 273.088 268.872 273.126 269.224 273.301C269.576 273.475 269.844 273.773 269.973 274.131C270.072 274.519 270.018 274.929 269.821 275.281C269.623 275.634 269.296 275.904 268.902 276.04C268.494 276.111 268.072 276.028 267.727 275.809C267.381 275.589 267.137 275.251 267.047 274.864" fill="#E0E0E0"/>
<g opacity="0.6">
<path opacity="0.6" d="M274.861 263.268L272.185 264.921L292.576 295.167C292.576 295.167 294.128 296.232 295.082 295.465L274.861 263.268Z" fill="white"/>
</g>
<path d="M274.941 284.755C275.102 284.662 274.683 283.827 274.727 282.753C274.772 281.68 275.209 280.87 275.057 280.76C274.906 280.649 274.094 281.433 274.067 282.736C274.04 284.04 274.816 284.883 274.941 284.755Z" fill="#263238"/>
<path d="M278.527 287.303C278.705 287.252 278.527 286.451 278.919 285.471C279.312 284.491 279.927 283.963 279.811 283.81C279.695 283.656 278.714 284.091 278.286 285.258C277.858 286.425 278.366 287.388 278.527 287.303Z" fill="#263238"/>
<path d="M283.968 286.8C283.906 286.638 282.951 286.894 282.3 287.814C281.649 288.734 281.756 289.671 281.934 289.663C282.113 289.654 282.309 288.922 282.826 288.172C283.344 287.422 284.049 286.971 283.968 286.8Z" fill="#263238"/>
<path d="M270.784 286.749C270.9 286.596 270.214 285.999 269.723 285.045C269.232 284.091 269.09 283.256 268.893 283.256C268.697 283.256 268.537 284.253 269.134 285.343C269.732 286.434 270.704 286.903 270.784 286.749Z" fill="#263238"/>
<path opacity="0.3" d="M260.473 271.354L268.206 288.206L265.611 289.961L256.691 273.526L260.473 271.354Z" fill="black"/>
<path d="M250.34 205.23C249.644 205.23 226.764 204.744 214.41 212.54L204.598 217.805L204.857 227.262C204.857 227.262 202.761 230.602 203.224 232.605C203.688 234.607 203.162 243.067 203.162 243.067C203.162 243.067 199.496 243.289 199.032 249.304C199.032 249.304 193.948 251.306 191.718 254.867C189.488 258.429 166.635 298.498 165.243 304.956C163.851 311.415 162.906 322.763 168.035 326.546C173.164 330.329 184.644 328.991 184.644 328.991C184.644 328.991 186.276 333.669 196.302 333.89C206.329 334.112 221.698 322.985 221.698 322.985L267.85 292.935L256.896 270.604L240.778 280.018L258.02 260.874C258.02 260.874 265.95 247.966 263.613 234.385C261.891 224.306 250.34 205.23 250.34 205.23Z" fill="#263238"/>
<path d="M254.291 212.148H253.747H252.195C250.839 212.148 248.895 212.148 246.486 212.148C244.078 212.148 241.206 212.259 238.048 212.582C234.621 212.896 231.24 213.57 227.968 214.593C221.002 216.842 215.4 220.412 211.413 222.96L206.721 226.061L205.445 226.913C205.304 227.021 205.148 227.11 204.981 227.177C204.981 227.177 205.106 227.049 205.383 226.836L206.614 225.933C207.693 225.149 209.29 224.033 211.225 222.704C215.177 220.089 220.779 216.451 227.817 214.184C231.121 213.149 234.539 212.477 238.003 212.182C240.823 211.933 243.654 211.822 246.486 211.85C248.895 211.85 250.848 211.935 252.195 212.003L253.747 212.088C253.93 212.085 254.113 212.105 254.291 212.148Z" fill="#455A64"/>
<path d="M207.203 219.1C206.837 219.451 206.586 219.895 206.48 220.378C206.434 220.627 206.454 220.883 206.539 221.123C206.623 221.362 206.768 221.578 206.962 221.75C207.198 221.957 207.488 222.1 207.802 222.163C208.116 222.226 208.442 222.207 208.746 222.108C209.037 221.98 209.287 221.78 209.469 221.528C209.651 221.276 209.758 220.982 209.78 220.677C209.798 220.423 209.75 220.17 209.639 219.94C209.528 219.709 209.359 219.508 209.147 219.356C208.72 219.072 208.213 218.918 207.693 218.913C207.693 218.913 207.827 218.802 208.13 218.785C208.558 218.761 208.982 218.875 209.334 219.109C209.615 219.276 209.845 219.51 210.002 219.788C210.158 220.066 210.236 220.378 210.226 220.694C210.234 221.092 210.114 221.483 209.883 221.814C209.652 222.146 209.321 222.403 208.933 222.55C208.545 222.697 208.12 222.728 207.714 222.638C207.307 222.548 206.939 222.343 206.658 222.048C206.43 221.828 206.262 221.557 206.172 221.259C206.081 220.962 206.071 220.647 206.141 220.344C206.235 219.944 206.46 219.583 206.783 219.313C207.033 219.109 207.194 219.075 207.203 219.1Z" fill="#455A64"/>
<path d="M215.418 220.251C215.373 220.293 215.052 220.063 214.597 219.62C213.934 219.067 213.469 218.328 213.269 217.508C213.069 216.689 213.143 215.83 213.482 215.053C213.687 214.457 213.875 214.116 213.928 214.133C213.982 214.15 213.928 214.534 213.803 215.13C213.615 215.875 213.588 216.649 213.723 217.405C213.954 218.14 214.336 218.823 214.847 219.416C215.222 219.901 215.462 220.208 215.418 220.251Z" fill="#455A64"/>
<path d="M217.353 219.117C217.353 219.16 216.997 218.973 216.577 218.555C216.039 217.991 215.64 217.318 215.409 216.587C215.051 215.572 215.035 214.475 215.364 213.452C215.525 213.452 215.364 214.866 215.855 216.459C216.24 217.4 216.744 218.292 217.353 219.117V219.117Z" fill="#455A64"/>
<path d="M242.053 212.148C241.982 212.148 241.955 211.748 241.892 211.117C241.824 210.314 241.635 209.525 241.33 208.774C240.996 208.037 240.525 207.365 239.939 206.789C239.493 206.329 239.208 206.039 239.252 205.988C239.297 205.937 239.654 206.141 240.144 206.559C240.835 207.112 241.379 207.812 241.732 208.604C242.063 209.4 242.221 210.252 242.196 211.109C242.235 211.461 242.186 211.817 242.053 212.148V212.148Z" fill="#455A64"/>
<path d="M245.05 212.148C244.979 212.148 244.97 211.748 244.979 211.126C245.03 210.336 244.961 209.544 244.774 208.774C244.475 208.034 244.085 207.331 243.614 206.678C243.266 206.15 243.079 205.826 243.132 205.767C243.186 205.707 243.471 206.014 243.882 206.499C244.456 207.135 244.908 207.861 245.22 208.646C245.434 209.466 245.462 210.32 245.3 211.151C245.211 211.731 245.113 212.148 245.05 212.148Z" fill="#455A64"/>
<path d="M205.597 308.918C205.692 308.57 205.833 308.235 206.016 307.921C206.328 307.282 206.81 306.354 207.443 305.169C208.71 302.792 210.574 299.376 212.911 295.167C217.585 286.749 224.115 275.153 231.385 262.382L236.737 253.053C238.363 250.164 239.624 247.101 240.492 243.928C241.966 238.534 242.269 232.909 241.384 227.399C240.8 223.686 239.693 220.067 238.092 216.638C237.531 215.42 237.04 214.5 236.701 213.878L236.308 213.17C236.263 213.091 236.224 213.009 236.193 212.923C236.254 212.995 236.308 213.072 236.353 213.153L236.781 213.835C237.147 214.44 237.673 215.352 238.262 216.561C242.429 225.155 243.341 234.865 240.84 244.03C239.973 247.241 238.706 250.342 237.067 253.266C235.354 256.273 233.579 259.391 231.768 262.586L213.188 295.312L207.586 305.246L206.079 307.955L205.704 308.671C205.676 308.756 205.64 308.839 205.597 308.918V308.918Z" fill="#455A64"/>
<path d="M257.074 280.087C256.917 280.212 256.75 280.326 256.575 280.427L255.094 281.279L249.626 284.568C245.014 287.294 238.663 291.086 231.715 295.38C224.766 299.674 218.54 303.619 214.08 306.499L208.728 309.907L207.256 310.81C207.09 310.924 206.914 311.024 206.73 311.108C206.872 310.969 207.031 310.846 207.202 310.742L208.621 309.762L213.884 306.243C218.344 303.304 224.588 299.282 231.501 294.98C238.414 290.677 244.836 286.928 249.492 284.278C251.82 282.949 253.72 281.893 255.032 281.177L256.557 280.325C256.722 280.232 256.895 280.152 257.074 280.087Z" fill="#455A64"/>
<path d="M264.291 295.218C264.118 294.949 263.974 294.663 263.862 294.366L262.747 291.946C261.784 289.91 260.41 287.115 258.867 284.04C257.324 280.964 255.986 278.263 254.934 276.15L253.765 273.748C253.604 273.461 253.479 273.158 253.39 272.844C253.607 273.105 253.787 273.391 253.926 273.696C254.247 274.25 254.693 275.043 255.228 276.039C256.298 278.025 257.752 280.794 259.286 283.878C260.821 286.962 262.159 289.774 263.051 291.853C263.497 292.884 263.827 293.736 264.032 294.332C264.15 294.618 264.237 294.915 264.291 295.218V295.218Z" fill="#455A64"/>
<path d="M205.597 308.918C205.517 308.824 213.402 302.162 223.223 294.034C233.044 285.906 241.063 279.396 241.152 279.49C241.241 279.584 233.347 286.272 223.526 294.366C213.705 302.46 205.686 309.012 205.597 308.918Z" fill="#455A64"/>
<path d="M195.821 324.535C196.542 323.942 197.18 323.264 197.721 322.516C198.675 321.102 199.844 319.023 201.164 316.765C202.484 314.507 203.599 312.403 204.42 310.895C204.819 310.058 205.284 309.252 205.811 308.484C205.526 309.365 205.159 310.221 204.714 311.04C203.965 312.59 202.876 314.703 201.574 317.004C200.272 319.304 199.041 321.315 198.006 322.721C197.591 323.279 197.092 323.775 196.525 324.195C196.317 324.352 196.077 324.468 195.821 324.535V324.535Z" fill="#455A64"/>
<path d="M204.179 326.947C204.107 326.947 204.616 325.984 205.178 324.391C205.879 322.3 206.363 320.148 206.623 317.966C206.941 315.796 206.941 313.594 206.623 311.423C206.517 310.774 206.316 310.143 206.025 309.549C205.873 309.354 205.742 309.146 205.633 308.927C205.633 308.927 205.864 309.072 206.177 309.464C206.548 310.049 206.808 310.692 206.944 311.363C207.375 313.558 207.435 315.805 207.122 318.018C206.865 320.233 206.326 322.41 205.517 324.501C205.267 325.132 204.969 325.744 204.625 326.333C204.357 326.742 204.205 326.964 204.179 326.947Z" fill="#455A64"/>
<path d="M194.518 314.005C195.089 313.757 195.687 313.574 196.302 313.459C197.709 313.095 199.083 312.628 200.414 312.062C203.51 310.682 205.534 308.782 205.642 308.918C205.253 309.388 204.79 309.796 204.268 310.128C203.138 311.055 201.881 311.829 200.53 312.428C199.176 313.012 197.758 313.449 196.302 313.732C195.723 313.9 195.123 313.991 194.518 314.005V314.005Z" fill="#455A64"/>
<path d="M206.319 252.098C206.286 252.163 206.244 252.223 206.195 252.277L205.802 252.78C205.454 253.223 204.955 253.879 204.357 254.748C202.676 257.225 201.26 259.857 200.129 262.603C198.492 266.691 197.13 270.874 196.053 275.128C194.723 279.908 193.377 285.233 191.138 290.549C188.899 295.866 185.991 300.586 184.153 305.203C182.426 309.253 181.486 313.569 181.379 317.941C181.379 319.613 181.576 321.279 181.968 322.908C182.282 324.137 182.709 325.337 183.243 326.495C183.584 327.228 183.968 327.942 184.394 328.633C184.519 328.855 184.626 329.034 184.715 329.179C184.754 329.241 184.787 329.307 184.813 329.375C184.758 329.324 184.71 329.267 184.671 329.204L184.314 328.685C183.854 328.006 183.44 327.3 183.074 326.572C182.507 325.413 182.053 324.206 181.718 322.968C181.295 321.319 181.071 319.63 181.049 317.932C181.096 313.517 182.003 309.148 183.725 305.05C185.554 300.39 188.381 295.627 190.674 290.37C192.966 285.113 194.242 279.788 195.598 275.034C196.703 270.77 198.103 266.58 199.79 262.493C200.952 259.74 202.42 257.115 204.17 254.663C204.794 253.811 205.32 253.155 205.695 252.737L206.123 252.26C206.257 252.192 206.311 252.09 206.319 252.098Z" fill="#455A64"/>
<path d="M207.836 225.209C207.706 225.565 207.551 225.913 207.372 226.249C206.946 227.185 206.646 228.17 206.48 229.18C206.281 230.678 206.335 232.196 206.641 233.678C206.917 235.382 207.657 237.086 208.157 239.08C208.41 240.043 208.497 241.038 208.416 242.028C208.339 242.938 208.187 243.841 207.961 244.729C207.583 246.22 207.122 247.69 206.578 249.133C206.123 250.369 205.686 251.349 205.436 252.03C205.313 252.39 205.149 252.736 204.946 253.061C205.018 252.689 205.125 252.324 205.267 251.971C205.535 251.195 205.865 250.207 206.266 249.031C206.667 247.855 207.158 246.313 207.542 244.635C208.053 242.856 208.108 240.986 207.702 239.182C207.22 237.282 206.471 235.484 206.221 233.746C205.923 232.222 205.899 230.66 206.15 229.128C206.341 228.101 206.692 227.107 207.194 226.18C207.323 225.927 207.469 225.683 207.631 225.448C207.738 225.286 207.836 225.201 207.836 225.209Z" fill="#455A64"/>
<path d="M208.906 250.846C209.898 249.789 210.662 248.556 211.154 247.216C211.65 245.759 211.885 244.233 211.85 242.701C211.78 240.815 211.535 238.939 211.118 237.095C210.685 235.235 210.355 233.355 210.128 231.463C209.986 229.902 210.019 228.331 210.226 226.777C210.355 225.727 210.618 224.697 211.011 223.71C211.116 223.443 211.242 223.184 211.386 222.934C211.493 222.764 211.547 222.679 211.564 222.679C211.582 222.679 211.413 223.071 211.181 223.769C210.86 224.762 210.647 225.785 210.548 226.819C210.396 228.35 210.396 229.89 210.548 231.42C210.717 233.124 211.163 235.024 211.564 237.009C211.989 238.881 212.225 240.786 212.269 242.701C212.287 244.274 212.009 245.839 211.448 247.319C211.074 248.321 210.512 249.251 209.789 250.062C209.59 250.277 209.375 250.479 209.147 250.667C209.004 250.795 208.915 250.854 208.906 250.846Z" fill="#455A64"/>
<path d="M231.527 244.132C231.175 244.227 230.813 244.29 230.448 244.32C229.752 244.405 228.744 244.558 227.513 244.763C224.297 245.295 221.129 246.07 218.04 247.08C214.955 248.102 211.958 249.353 209.076 250.82C207.97 251.391 207.087 251.86 206.48 252.201C206.177 252.399 205.851 252.562 205.508 252.686C205.78 252.445 206.079 252.234 206.4 252.056C206.98 251.672 207.845 251.153 208.933 250.548C214.651 247.417 220.937 245.348 227.46 244.447C228.709 244.285 229.726 244.183 230.43 244.149C230.794 244.1 231.162 244.095 231.527 244.132Z" fill="#455A64"/>
<path d="M232.981 234.837C232.981 234.922 231.661 234.905 229.583 235.212C228.375 235.396 227.182 235.663 226.015 236.013C223.134 236.876 220.44 238.227 218.058 240C217.086 240.725 216.171 241.516 215.32 242.368C213.875 243.825 213.143 244.873 213.072 244.822C213.188 244.547 213.344 244.289 213.536 244.055C213.999 243.386 214.515 242.751 215.079 242.155C215.896 241.258 216.791 240.429 217.755 239.676C218.957 238.769 220.24 237.965 221.591 237.273C222.959 236.604 224.385 236.051 225.854 235.621C227.053 235.283 228.279 235.043 229.521 234.905C230.357 234.799 231.201 234.753 232.045 234.769C232.359 234.756 232.673 234.779 232.981 234.837V234.837Z" fill="#455A64"/>
<path d="M234.97 254.331C234.653 254.488 234.318 254.611 233.971 254.697C233.311 254.901 232.375 255.208 231.206 255.6C228.186 256.631 225.229 257.823 222.349 259.17C219.477 260.527 216.689 262.04 214 263.703C212.965 264.342 212.135 264.87 211.564 265.245C211.288 265.454 210.989 265.634 210.672 265.781C210.914 265.527 211.187 265.301 211.484 265.108C212.019 264.691 212.822 264.12 213.839 263.404C216.49 261.649 219.275 260.086 222.17 258.727C225.052 257.367 228.033 256.208 231.09 255.259C232.268 254.91 233.231 254.646 233.9 254.492C234.248 254.396 234.608 254.342 234.97 254.331V254.331Z" fill="#455A64"/>
<path d="M263.14 232.034C262.832 231.973 262.533 231.879 262.248 231.753C261.695 231.548 260.883 231.258 259.83 230.901C256.93 229.993 253.942 229.368 250.91 229.035L251.133 228.839C251.241 232.511 251.214 236.865 250.875 241.508C250.555 246.032 249.926 250.532 248.993 254.978V254.884C249.817 257.463 250.809 259.99 251.963 262.45C252.382 263.302 252.766 264.001 253.025 264.461C253.179 264.682 253.319 264.913 253.444 265.151C253.249 264.955 253.076 264.741 252.926 264.512C252.498 263.878 252.107 263.221 251.758 262.544C250.528 260.102 249.482 257.579 248.627 254.995V254.952V254.901C249.498 250.463 250.094 245.979 250.411 241.474C250.75 236.847 250.795 232.511 250.741 228.847V228.626H250.973C254.015 228.988 257.006 229.668 259.893 230.653C260.937 231.02 261.73 231.352 262.275 231.582C262.577 231.707 262.866 231.859 263.14 232.034Z" fill="#455A64"/>
<path d="M263.818 235.731C263.18 235.618 262.553 235.453 261.945 235.237C260.803 234.913 259.206 234.487 257.431 234.096C253.863 233.295 250.955 232.783 250.973 232.656C251.626 232.632 252.279 232.686 252.918 232.818C254.113 232.979 255.745 233.252 257.538 233.67C261.133 234.436 263.88 235.612 263.818 235.731Z" fill="#455A64"/>
<path d="M259.572 222.619C259.572 222.679 258.484 222.381 256.744 221.989C254.478 221.483 252.177 221.133 249.858 220.941C247.537 220.767 245.207 220.739 242.883 220.855C241.916 220.942 240.945 220.976 239.975 220.958C240.22 220.865 240.479 220.808 240.742 220.787C241.241 220.711 241.964 220.617 242.856 220.54C245.196 220.334 247.551 220.319 249.894 220.498C252.237 220.685 254.558 221.082 256.825 221.682C257.717 221.92 258.385 222.133 258.849 222.312C259.106 222.377 259.35 222.481 259.572 222.619V222.619Z" fill="#455A64"/>
<path d="M241.384 226.462C241.001 226.614 240.604 226.731 240.198 226.811C239.431 227.007 238.307 227.245 236.897 227.484C233.232 228.096 229.502 228.273 225.792 228.012C223.642 227.808 221.493 227.586 219.816 226.581C219.025 226.11 218.382 225.445 217.951 224.655C217.595 223.945 217.489 223.144 217.648 222.372C217.829 221.303 218.162 220.262 218.638 219.279C218.789 218.907 219.003 218.562 219.271 218.257C219.271 218.257 219.093 218.64 218.808 219.339C218.406 220.33 218.124 221.362 217.969 222.415C217.856 223.116 217.974 223.834 218.308 224.468C218.73 225.18 219.347 225.769 220.092 226.172C221.653 227.092 223.749 227.314 225.881 227.51C229.56 227.765 233.258 227.631 236.906 227.109C238.307 226.922 239.44 226.726 240.216 226.581C240.601 226.508 240.992 226.468 241.384 226.462Z" fill="#455A64"/>
<path d="M239.109 73.7491C234.846 64.9224 224.293 66.6605 219.245 69.0035C214.17 71.2915 210.186 75.3226 208.086 80.2925C206.605 83.7005 205.41 87.5856 202.43 89.6645C201.061 90.4415 199.646 91.1441 198.193 91.7689C197.447 92.1145 196.793 92.6166 196.278 93.2377C195.764 93.8588 195.403 94.5829 195.223 95.3559C194.777 98.2953 197.899 100.332 200.468 101.516C198.925 102.521 198.523 104.796 199.068 106.628C199.726 108.378 200.766 109.975 202.118 111.314C206.669 116.113 211.874 120.305 217.594 123.779C222.465 126.675 225.622 127.016 230.85 124.937C232.972 124.085 234.953 122.705 237.218 122.458C239.85 122.177 242.365 123.463 244.97 123.983C247.575 124.503 250.857 123.787 251.704 121.171C251.914 120.129 252.034 119.072 252.061 118.011C252.195 116.963 252.739 115.821 253.729 115.582C254.532 115.386 255.335 115.855 256.12 116.102C258.002 116.698 260.839 130.041 262.64 129.231C262.64 129.231 265.263 106.619 260.214 93.3877C258.6 89.1277 255.157 80.1647 252.409 76.663C248.627 71.8577 239.564 72.9227 239.109 73.7747" fill="#263238"/>
<path d="M233.704 75.2146C226.987 72.9738 217.924 77.8984 215.864 84.3991C213.571 91.6156 211.083 100.519 210.646 106.193C209.754 117.602 218.254 120.984 218.254 120.984L214.802 138.816L243.908 129.828L254.068 87.8071L255.014 84.2798L233.704 75.2146Z" fill="#FFBE9D"/>
<path d="M215.864 93.1918C215.962 93.4389 217.345 93.081 218.861 93.6519C220.378 94.2227 221.198 95.3559 221.43 95.2536C221.662 95.1514 221.501 94.8276 221.154 94.3079C220.676 93.6245 219.987 93.1004 219.182 92.8084C218.395 92.5027 217.525 92.4489 216.702 92.655C216.105 92.868 215.864 93.081 215.864 93.1918Z" fill="#263238"/>
<path d="M230.93 96.9832C231.108 97.1791 232.312 96.4464 233.936 96.5572C235.559 96.6679 236.701 97.5199 236.897 97.341C237.093 97.1621 236.826 96.9065 236.326 96.489C235.654 95.9819 234.835 95.6844 233.98 95.637C233.132 95.5789 232.286 95.7787 231.563 96.2078C231.028 96.5572 230.849 96.8894 230.93 96.9832Z" fill="#263238"/>
<path d="M224.168 103.365C223.394 102.925 222.563 102.581 221.698 102.342C221.305 102.206 220.939 102.044 220.939 101.763C221.001 101.356 221.194 100.977 221.492 100.681L223.41 97.997C226.086 94.1716 228.165 90.9851 228.004 90.8828C227.843 90.7806 225.524 93.7967 222.822 97.6222C222.17 98.5764 221.546 99.471 220.948 100.34C220.574 100.748 220.365 101.271 220.36 101.814C220.386 101.963 220.448 102.105 220.539 102.228C220.63 102.352 220.748 102.455 220.886 102.53C221.1 102.633 221.324 102.716 221.555 102.777C222.396 103.078 223.275 103.276 224.168 103.365V103.365Z" fill="#263238"/>
<path d="M218.263 120.984C223.79 122.313 229.592 122.174 235.042 120.584C235.042 120.584 229.396 127.451 217.719 123.77L218.263 120.984Z" fill="#EB996E"/>
<path d="M223.303 108.46C223.151 108.272 223.374 108.69 223.303 108.46V108.46Z" fill="#EB996E"/>
<path d="M228.486 107.718C228.311 107.367 228.062 107.055 227.755 106.8C227.448 106.545 227.09 106.353 226.702 106.236C226.177 106.056 225.613 106.006 225.062 106.091C224.511 106.176 223.992 106.393 223.553 106.722C223.373 106.966 223.255 107.247 223.207 107.543C223.159 107.838 223.183 108.14 223.276 108.426C223.838 109.116 223.892 109.695 224.677 110.13C225.242 110.308 225.841 110.366 226.433 110.302C227.024 110.237 227.594 110.05 228.102 109.755C228.377 109.494 228.561 109.158 228.629 108.794C228.698 108.43 228.648 108.054 228.486 107.718V107.718Z" fill="#EB996E"/>
<path d="M228.593 105.461C228.334 105.392 227.924 107.037 226.167 107.872C224.409 108.707 222.599 108.119 222.536 108.349C222.536 108.443 222.866 108.758 223.642 108.954C224.647 109.195 225.708 109.089 226.639 108.656C227.536 108.236 228.227 107.5 228.566 106.602C228.807 105.929 228.709 105.478 228.593 105.461Z" fill="#263238"/>
<path d="M234.212 88.9488C234.123 89.3833 235.452 89.8008 236.799 90.7721C238.146 91.7434 239.065 92.7402 239.475 92.4761C239.653 92.3568 239.645 91.9052 239.377 91.3003C239.015 90.5489 238.452 89.9022 237.745 89.4259C237.057 88.9399 236.242 88.6451 235.39 88.5739C234.685 88.608 234.257 88.7443 234.212 88.9488Z" fill="#263238"/>
<path d="M216.845 87.3555C217.193 87.6793 218.415 87.1936 219.914 87.0403C221.412 86.8869 222.723 87.0403 222.982 86.6313C223.089 86.4354 222.857 86.1031 222.259 85.7793C221.457 85.4357 220.57 85.3146 219.699 85.43C218.829 85.5171 218.003 85.8392 217.318 86.3587C216.818 86.8188 216.685 87.1936 216.845 87.3555Z" fill="#263238"/>
<path d="M256.655 84.2543C256.154 83.4013 255.369 82.7326 254.425 82.3544C248.634 79.319 242.639 76.6549 236.478 74.3796L233.945 75.7514C233.612 78.1083 234.02 80.5064 235.115 82.642C236.211 84.7775 237.946 86.5544 240.099 87.7475C241.83 88.6677 244.078 89.5367 244.301 91.4196C244.524 93.3026 242.392 94.6998 241.188 96.2846C240.451 97.2738 240.039 98.4495 240.002 99.6628C239.966 100.876 240.307 102.073 240.983 103.101C241.759 104.251 242.936 105.12 243.659 106.304C244.106 107.108 244.36 107.997 244.402 108.906C244.444 109.816 244.272 110.723 243.899 111.561C243.177 113.265 241.973 115.506 240.331 116.451C242.547 116.927 244.863 116.73 246.956 115.889C249.049 115.047 250.815 113.603 252.008 111.757C253.364 109.559 253.471 106.892 253.649 104.344C254.059 98.5498 255.023 92.8032 256.53 87.1767C256.91 86.2428 256.954 85.2147 256.655 84.2543V84.2543Z" fill="#263238"/>
<path d="M236.879 74.6437C235.319 76.6156 233.444 78.3407 231.322 79.7557C229.128 81.0593 226.327 81.6727 223.927 80.7526C224.525 80.1221 225.132 79.4916 225.711 78.8526C221.442 81.6455 216.608 83.555 211.52 84.4588C214.713 80.7526 218.005 76.9697 222.366 74.5756C226.728 72.1814 232.446 71.4487 236.701 73.9962" fill="#263238"/>
<path d="M257.244 96.1908L243.65 106.278C245.211 107.906 244.604 112.047 243.07 113.691C241.536 115.335 239.502 116.741 238.904 118.871C238.244 121.197 239.538 123.608 239.573 126.019C239.627 129.427 237.227 132.358 235.372 135.272C233.517 138.186 232.179 142.088 234.248 144.874C236.576 148.009 241.848 147.558 245.032 145.215C248.217 142.872 250.037 139.251 252.4 136.15C254.764 133.048 258.457 130.671 262.462 131.038C263.704 119.19 261.913 107.231 257.244 96.1908V96.1908Z" fill="#263238"/>
<path d="M259.518 124.315C259.438 124.171 260.241 123.617 261.615 122.56C263.554 121.13 265.282 119.456 266.752 117.585C267.723 116.309 268.495 114.906 269.045 113.418C269.679 111.75 269.952 109.976 269.848 108.204C269.706 106.273 269.065 104.405 267.983 102.768C266.775 100.975 265.244 99.4001 263.461 98.1163C259.804 95.3985 255.433 93.8563 251.615 92.229C248.062 90.9179 244.708 89.1585 241.643 86.9977C239.551 85.5069 237.82 83.6036 236.567 81.4171C235.738 79.8409 235.604 78.8611 235.729 78.8611C235.854 78.8611 236.326 79.6535 237.334 80.9997C238.791 82.8706 240.578 84.4851 242.615 85.7709C245.695 87.6398 248.99 89.1636 252.436 90.312C254.38 91.0533 256.459 91.8201 258.582 92.7573C260.832 93.7244 262.96 94.9335 264.924 96.3612C266.925 97.8125 268.633 99.5996 269.964 101.635C271.212 103.59 271.92 105.815 272.024 108.102C272.084 110.144 271.695 112.176 270.882 114.066C270.197 115.686 269.252 117.195 268.082 118.539C266.415 120.437 264.41 122.038 262.159 123.267C260.544 124.136 259.572 124.435 259.518 124.315Z" fill="#263238"/>
<path d="M259.777 93.72C259.369 93.6392 258.971 93.5164 258.591 93.3536C257.841 93.0895 256.807 92.6891 255.442 92.1608C251.961 90.8432 248.691 89.065 245.728 86.8784C242.752 84.6451 240.513 81.6397 239.279 78.2221C238.92 77.1888 238.707 76.1143 238.646 75.0271C238.63 74.7433 238.63 74.4589 238.646 74.1751C238.631 74.0734 238.631 73.9702 238.646 73.8684C238.783 75.3148 239.082 76.7429 239.538 78.1284C240.851 81.4352 243.076 84.341 245.978 86.5376C248.916 88.6923 252.126 90.4869 255.531 91.8797L258.617 93.1918C259.02 93.3333 259.408 93.5101 259.777 93.72V93.72Z" fill="#455A64"/>
<path d="M260.205 106.619C260.152 106.619 260.428 106.108 260.571 105.154C260.729 103.789 260.479 102.409 259.848 101.175C258.926 99.338 257.502 97.7723 255.727 96.6424C253.774 95.2877 251.348 94.2142 248.921 92.8254C246.628 91.5231 244.573 89.8711 242.838 87.935C241.417 86.355 240.218 84.6051 239.27 82.7292C238.639 81.4703 238.14 80.1546 237.78 78.8015C237.638 78.3244 237.584 77.9495 237.531 77.6939C237.489 77.5672 237.471 77.4346 237.477 77.302C237.663 77.7788 237.821 78.2652 237.95 78.7589C238.375 80.0777 238.915 81.3602 239.564 82.5929C240.524 84.4334 241.723 86.151 243.132 87.7049C244.85 89.5968 246.873 91.2134 249.127 92.4932C251.517 93.8564 253.961 94.9554 255.941 96.3527C257.761 97.5363 259.205 99.1751 260.116 101.09C260.74 102.38 260.948 103.819 260.714 105.222C260.645 105.598 260.528 105.964 260.366 106.313C260.285 106.5 260.223 106.628 260.205 106.619Z" fill="#455A64"/>
<path d="M185.036 97.98C185.036 97.98 185.036 97.9289 185.117 97.8437C185.206 97.7126 185.304 97.5873 185.411 97.4688C185.82 97.0012 186.34 96.6332 186.927 96.3953C187.874 96.0787 188.868 95.9146 189.871 95.9097C191.022 95.85 192.342 95.7648 193.796 95.7648C195.368 95.7915 196.939 95.6515 198.479 95.3473C200.217 94.9206 201.826 94.1125 203.18 92.9873C204.671 91.723 205.963 90.2595 207.015 88.6421C208.135 86.8888 209.156 85.08 210.075 83.2234C211.013 81.3538 212.086 79.5489 213.286 77.8217C214.42 76.1985 215.845 74.7794 217.496 73.6298C220.341 71.7353 223.708 70.686 227.174 70.6138C229.493 70.5367 231.803 70.9256 233.954 71.7554L234.953 72.1729L235.64 72.5478C235.836 72.6437 236.024 72.7548 236.201 72.8801C235.994 72.8146 235.793 72.729 235.604 72.6245L234.89 72.2922L233.891 71.9173C231.747 71.1631 229.466 70.827 227.183 70.929C223.797 71.0464 220.518 72.1 217.746 73.9621C216.142 75.091 214.759 76.4812 213.661 78.0688C212.483 79.772 211.431 81.5513 210.512 83.3938C209.582 85.2654 208.549 87.0885 207.417 88.8551C206.336 90.5027 205.007 91.9897 203.474 93.2685C202.065 94.4274 200.391 95.2534 198.586 95.6796C197.015 95.977 195.414 96.1028 193.814 96.0545C192.36 96.0545 191.057 96.0545 189.898 96.1312C188.921 96.113 187.948 96.2483 187.017 96.5316C186.44 96.7401 185.921 97.0724 185.5 97.5029C185.356 97.6708 185.201 97.8301 185.036 97.98V97.98Z" fill="#455A64"/>
<path d="M179.577 86.4865C174.225 73.5787 167.089 60.9265 166.108 51.3074L155.449 51.7164C155.672 55.4396 157.072 86.4269 164.627 98.6786C172.183 110.93 197.408 139.575 197.408 139.575L206.284 117.772C206.284 117.772 184.938 99.4028 179.577 86.4865Z" fill="#FFBE9D"/>
<path d="M161.809 31.2684H157.144C157.144 31.2684 157.598 33.8926 159.713 34.0374C161.827 34.1822 161.416 33.7222 161.416 33.7222L160.943 34.1396L158.036 34.6849C158.036 34.6849 158.178 36.849 160.096 37.1898L162.924 34.6849L161.809 31.2684Z" fill="#FFBE9D"/>
<path d="M174.582 30.8765C174.154 34.2334 174.109 34.0289 174.109 34.0289L169.846 37.3858L168.757 32.4442C168.687 32.1167 168.506 31.8206 168.241 31.6018C167.977 31.383 167.644 31.2538 167.295 31.2343L165.359 31.1151C165.359 31.1151 166.108 28.5591 163.673 28.7721C163.673 28.7721 162.335 28.4227 161.256 32.6998C160.078 37.3773 155.012 48.3681 155.449 52.0402L166.26 52.4577C166.144 49.0497 169.087 45.4116 170.541 43.8439C170.98 43.3772 171.287 42.8112 171.433 42.1996C171.633 41.3593 172.05 40.5802 172.647 39.9332C173.985 38.5189 176.794 35.9715 176.794 35.9715V28.1927C176.794 28.1927 174.992 27.6389 174.582 30.8765ZM165.912 38.3911L163.691 39.3539L164.065 37.1898L165.912 37.0194V38.3911Z" fill="#FFBE9D"/>
<path d="M163.575 39.5839C163.574 39.2771 163.61 38.9712 163.682 38.6723C163.789 38.0844 163.941 37.2494 164.146 36.21L164.895 32.5805C165.071 31.8828 165.193 31.1737 165.261 30.459C165.261 29.7689 164.993 28.9765 164.217 28.9339C163.441 28.8913 162.87 29.394 162.496 29.9989C162.317 30.3132 162.174 30.6444 162.068 30.9872L161.72 32.0011L160.56 35.5284C160.212 36.5338 159.891 37.3346 159.668 37.8799C159.566 38.1827 159.419 38.4697 159.231 38.7319C159.283 38.4384 159.373 38.1522 159.499 37.8799C159.686 37.3176 159.962 36.5082 160.266 35.5028C160.569 34.4975 160.935 33.2536 161.327 31.9415C161.443 31.6007 161.55 31.2599 161.666 30.9106C161.775 30.5374 161.927 30.1773 162.121 29.837C162.337 29.4775 162.621 29.1597 162.96 28.8998C163.148 28.7581 163.364 28.6542 163.596 28.5941C163.827 28.5341 164.069 28.5193 164.306 28.5505C164.545 28.5874 164.775 28.6653 164.984 28.7806C165.186 28.915 165.351 29.0931 165.466 29.3003C165.66 29.6817 165.752 30.1033 165.734 30.5272C165.66 31.2659 165.526 31.998 165.332 32.7168L164.44 36.3378C164.199 37.3602 163.994 38.1952 163.834 38.766C163.785 39.0482 163.698 39.3231 163.575 39.5839V39.5839Z" fill="#EB996E"/>
<path d="M165.787 38.4167C165.679 37.586 165.634 36.7488 165.653 35.9118C165.653 35.571 165.6 35.2473 165.573 34.9491C165.587 34.7247 165.514 34.5032 165.368 34.3271C165.065 34.1141 164.699 34.1141 164.717 34.0374C164.735 33.9607 164.797 33.9778 164.94 33.9607C165.155 33.9318 165.374 33.9707 165.564 34.0715C165.697 34.1741 165.805 34.3039 165.879 34.4513C165.953 34.5987 165.992 34.76 165.992 34.9235C166.059 35.2525 166.101 35.5856 166.117 35.9203C166.242 36.7657 166.128 37.6274 165.787 38.4167V38.4167Z" fill="#EB996E"/>
<path d="M171.085 36.5167C171.085 36.5167 170.791 36.8916 170.193 37.3687C169.439 38.0078 168.599 38.5492 167.696 38.979C166.755 39.3687 165.749 39.5966 164.725 39.6521C164.31 39.7295 163.883 39.7295 163.468 39.6521C163.853 39.4951 164.263 39.4001 164.681 39.3709C165.651 39.2312 166.598 38.9735 167.5 38.6041C168.387 38.1936 169.235 37.7089 170.033 37.1557C170.639 36.7127 171.041 36.4656 171.085 36.5167Z" fill="#EB996E"/>
<path d="M255.852 133.287C255.852 133.287 267.859 132.946 275.048 130.901C282.238 128.857 309.836 122.586 309.836 122.586L354.124 115.531L355.016 126.471C355.016 126.471 313.868 137.964 305.876 140.58C297.883 143.196 261.356 155.166 254.452 153.65L250.17 145.24L255.852 133.287Z" fill="#FFBE9D"/>
<path d="M375.416 102.666C374.693 102.513 371.108 104.072 371.108 104.072C371.449 103.676 371.642 103.182 371.655 102.669C371.668 102.156 371.5 101.654 371.179 101.243L366.255 103.552C364.953 104.813 363.581 106.004 362.143 107.122C359.878 109.115 357.789 111.284 355.899 113.606L352.955 116.221L354.784 126.573C356.072 126.676 357.368 126.513 358.584 126.096C360.109 125.423 362.339 122.688 362.339 122.688L366.54 122.347C367.03 122.313 367.496 122.138 367.878 121.845C368.257 121.492 368.548 121.062 368.729 120.587C368.91 120.112 368.976 119.604 368.922 119.101C371.598 117.653 370.037 115.812 370.037 115.812C370.882 115.713 371.655 115.307 372.196 114.679C372.425 114.339 372.535 113.938 372.511 113.534C372.487 113.13 372.33 112.743 372.062 112.43C371.562 111.578 367.709 111.842 367.709 111.842L367.504 110.76C367.504 110.76 373.391 106.296 374.711 105.324C376.031 104.353 376.094 102.811 375.416 102.666Z" fill="#FFBE9D"/>
<path d="M371.179 103.944C370.755 104.751 370.145 105.456 369.395 106.006C368.632 106.629 367.914 107.301 367.245 108.017C366.503 108.937 365.966 109.992 365.666 111.118C365.356 112.296 364.914 113.439 364.346 114.526C363.86 115.395 363.26 116.202 362.562 116.929C362.091 117.412 361.574 117.854 361.019 118.249C360.826 118.406 360.605 118.53 360.368 118.615C360.314 118.556 361.206 117.968 362.321 116.716C362.965 115.986 363.518 115.188 363.972 114.338C364.505 113.278 364.929 112.171 365.238 111.033C365.551 109.851 366.126 108.747 366.924 107.795C367.622 107.076 368.38 106.412 369.19 105.81C369.892 105.227 370.556 104.604 371.179 103.944V103.944Z" fill="#EB996E"/>
<path d="M369.011 119.076C368.412 119.463 367.749 119.752 367.049 119.928C366.292 120.171 365.508 120.325 364.712 120.388C364.24 120.422 363.766 120.422 363.294 120.388C362.755 120.352 362.235 120.181 361.786 119.893C361.553 119.735 361.363 119.525 361.233 119.282C361.103 119.039 361.035 118.769 361.037 118.496C361.136 118.006 361.415 117.565 361.822 117.252C362.147 116.955 362.546 116.741 362.981 116.63C363.374 116.528 363.731 116.451 364.061 116.392C364.76 116.19 365.491 116.109 366.219 116.153C366.219 116.204 365.417 116.358 364.132 116.69L363.097 116.98C362.725 117.088 362.388 117.285 362.116 117.55C361.805 117.803 361.587 118.143 361.492 118.522C361.494 118.722 361.547 118.919 361.646 119.096C361.746 119.273 361.889 119.424 362.063 119.536C362.869 119.936 363.782 120.097 364.685 119.996C365.451 119.953 366.211 119.833 366.951 119.638C368.226 119.323 368.985 119.007 369.011 119.076Z" fill="#EB996E"/>
<path d="M370.18 115.812C369.714 116.061 369.196 116.21 368.664 116.247C368.095 116.34 367.519 116.38 366.942 116.366C366.564 116.392 366.184 116.338 365.829 116.209C365.475 116.079 365.154 115.877 364.891 115.616C364.665 115.31 364.536 114.947 364.52 114.572C364.504 114.198 364.602 113.827 364.801 113.503C365.102 112.997 365.56 112.592 366.113 112.345C366.579 112.085 367.107 111.942 367.647 111.927C367.647 111.995 367.085 112.166 366.273 112.617C365.812 112.87 365.434 113.242 365.185 113.691C365.035 113.944 364.961 114.231 364.972 114.522C364.983 114.812 365.078 115.094 365.247 115.335C365.474 115.545 365.742 115.708 366.037 115.815C366.331 115.922 366.645 115.97 366.96 115.957C367.515 115.992 368.073 115.992 368.628 115.957C369.141 115.872 369.66 115.823 370.18 115.812V115.812Z" fill="#EB996E"/>
<path d="M367.272 122.202C366.882 122.388 366.464 122.512 366.032 122.569C365.016 122.839 363.964 122.959 362.91 122.927C362.731 122.934 362.553 122.904 362.387 122.838C362.222 122.772 362.075 122.671 361.956 122.543C361.763 122.298 361.665 121.997 361.679 121.691C361.699 121.441 361.777 121.199 361.906 120.981C362.036 120.763 362.214 120.575 362.428 120.43C363.213 119.979 363.784 120.26 363.749 120.294C363.346 120.335 362.96 120.469 362.625 120.686C362.469 120.812 362.342 120.969 362.253 121.145C362.164 121.321 362.114 121.513 362.107 121.708C362.103 121.92 362.172 122.126 362.303 122.296C362.384 122.377 362.483 122.439 362.593 122.478C362.703 122.516 362.82 122.53 362.937 122.518C363.953 122.54 364.969 122.465 365.97 122.296C366.393 122.186 366.836 122.154 367.272 122.202V122.202Z" fill="#EB996E"/>
<path d="M235.488 169.608C235.231 169.797 234.949 169.951 234.649 170.068C233.859 170.42 233.039 170.705 232.196 170.92C229.392 171.702 226.434 171.842 223.562 171.329C220.694 170.812 217.998 169.643 215.703 167.921C215.014 167.406 214.372 166.836 213.785 166.217C213.558 165.997 213.36 165.751 213.197 165.484C213.268 165.424 214.142 166.438 215.873 167.682C218.172 169.301 220.82 170.41 223.624 170.928C226.429 171.432 229.316 171.341 232.08 170.664C234.212 170.144 235.434 169.548 235.488 169.608Z" fill="#FF725E"/>
<path d="M215.213 138.101C215.213 138.101 243.436 129.478 244.488 129.206C245.541 128.933 270.437 131.055 270.437 131.055C270.437 131.055 269.384 146.808 275.628 151.912L257.315 158.216L251.544 173.391C251.544 173.391 248.324 179.576 250.884 185.378C255.728 196.36 264.13 213.69 262.89 215.675C262.756 215.88 261.998 209.711 250.054 206.44C246.433 205.46 239.859 205.443 233.909 206.593C208.309 211.518 198.425 222.781 195.553 224.749C195.553 224.749 200.825 185.242 198.336 179.073C195.848 172.905 193.207 168.849 195.259 163.388C197.31 157.927 200.388 149.1 200.388 149.1L190.299 138.194L204.393 115.812L217.291 126.036L215.213 138.101Z" fill="#FF725E"/>
<path d="M224.597 174.703C224.274 174.742 223.947 174.742 223.624 174.703C222.739 174.668 221.859 174.56 220.993 174.379C218.111 173.781 215.454 172.447 213.304 170.519C211.161 168.579 209.652 166.087 208.96 163.345C208.754 162.507 208.635 161.65 208.603 160.789C208.575 160.482 208.593 160.172 208.657 159.869C208.797 160.999 209.005 162.12 209.281 163.226C210.046 165.87 211.547 168.267 213.625 170.161C215.726 172.031 218.288 173.362 221.073 174.03C223.214 174.66 224.597 174.66 224.597 174.703Z" fill="#263238"/>
<path d="M198.095 141.304C199.195 142.644 199.875 144.254 200.058 145.948C200.392 147.621 200.231 149.35 199.594 150.94C199.768 149.303 199.768 147.653 199.594 146.016C199.262 144.401 198.76 142.822 198.095 141.304V141.304Z" fill="#263238"/>
<path d="M257.993 145.973C257.993 146.041 257.413 146.425 256.557 147.217C255.449 148.242 254.555 149.459 253.925 150.804C253.3 152.147 252.96 153.595 252.926 155.064C252.926 156.197 253.042 156.896 252.926 156.913C252.673 156.327 252.548 155.698 252.561 155.064C252.494 153.533 252.8 152.008 253.453 150.608C254.099 149.206 255.065 147.961 256.28 146.961C256.776 146.525 257.358 146.189 257.993 145.973V145.973Z" fill="#263238"/>
<g opacity="0.3">
<path opacity="0.3" d="M220.404 174.115C217.682 173.598 215.206 172.26 213.34 170.298C212.073 169.135 211.037 167.764 210.28 166.251C209.638 168.926 213.536 173.672 217.336 175.418C219.262 176.276 221.371 176.693 223.495 176.637C225.619 176.581 227.701 176.053 229.574 175.095C226.491 175.063 223.419 174.735 220.404 174.115V174.115Z" fill="black"/>
</g>
<path d="M254.969 193.694C254.969 193.745 254.229 193.208 252.766 192.578C250.684 191.719 248.442 191.273 246.174 191.266C242.801 191.246 239.461 191.893 236.362 193.165C232.603 194.783 229.018 196.746 225.658 199.027C219.464 203.129 212.857 206.63 205.936 209.481C203.26 210.563 201.084 211.339 199.558 211.841C198.8 212.105 198.202 212.284 197.774 212.404C197.573 212.478 197.363 212.533 197.15 212.565C197.339 212.462 197.539 212.38 197.748 212.318L199.478 211.679C200.986 211.126 203.153 210.316 205.784 209.192C212.655 206.273 219.225 202.748 225.408 198.661C228.793 196.359 232.412 194.389 236.211 192.782C239.367 191.51 242.767 190.886 246.192 190.95C248.497 190.987 250.768 191.489 252.855 192.424C253.612 192.762 254.322 193.189 254.969 193.694V193.694Z" fill="white"/>
<path d="M249.867 179.568C249.331 179.113 248.765 178.692 248.172 178.307C246.508 177.332 244.617 176.764 242.669 176.654C239.774 176.523 236.887 177.03 234.23 178.136C230.964 179.491 227.775 181.01 224.677 182.686C221.55 184.345 218.324 185.83 215.017 187.133C212.293 188.176 209.448 188.903 206.543 189.297C204.586 189.559 202.602 189.59 200.637 189.391C200.104 189.335 199.574 189.253 199.05 189.144C198.864 189.118 198.681 189.073 198.506 189.008C198.506 188.965 199.273 189.11 200.655 189.221C202.606 189.348 204.565 189.271 206.498 188.991C209.364 188.553 212.168 187.804 214.856 186.758C218.136 185.446 221.34 183.967 224.454 182.328C227.569 180.647 230.78 179.131 234.07 177.787C236.79 176.681 239.744 176.196 242.695 176.373C244.687 176.512 246.607 177.14 248.27 178.196C248.881 178.562 249.422 179.026 249.867 179.568V179.568Z" fill="white"/>
<path d="M212.189 168.832C212.189 168.832 212.001 169.011 211.618 169.275C211.386 169.44 211.141 169.588 210.886 169.718C210.562 169.908 210.225 170.079 209.879 170.23C208.978 170.634 208.036 170.951 207.069 171.175C205.881 171.445 204.667 171.593 203.447 171.618C202.224 171.616 201.005 171.493 199.808 171.252C198.835 171.06 197.884 170.774 196.971 170.4C196.62 170.26 196.278 170.1 195.945 169.923C195.687 169.801 195.439 169.658 195.205 169.497C194.813 169.25 194.608 169.096 194.625 169.071C194.643 169.045 195.517 169.539 197.096 170.11C198.003 170.437 198.937 170.69 199.888 170.869C201.065 171.074 202.26 171.174 203.456 171.167C204.641 171.141 205.821 171.007 206.98 170.766C207.929 170.561 208.857 170.276 209.754 169.914C211.279 169.326 212.135 168.764 212.189 168.832Z" fill="white"/>
<path d="M254.122 166.694C254.02 166.804 253.903 166.902 253.774 166.984C253.42 167.238 253.044 167.463 252.65 167.657C251.197 168.378 249.608 168.815 247.976 168.943C245.562 169.125 243.134 168.912 240.795 168.313C238.119 167.699 235.345 166.702 232.357 165.893C227.233 164.533 221.869 164.202 216.604 164.922C215.007 165.139 213.425 165.449 211.868 165.85C210.771 166.132 210.164 166.31 210.155 166.276C210.146 166.242 210.289 166.2 210.574 166.097C210.86 165.995 211.27 165.842 211.823 165.688C213.369 165.22 214.949 164.861 216.551 164.615C221.863 163.792 227.299 164.083 232.482 165.467C235.497 166.319 238.28 167.29 240.894 167.912C243.188 168.522 245.572 168.764 247.949 168.628C249.549 168.529 251.116 168.147 252.57 167.503C253.596 167.035 254.095 166.651 254.122 166.694Z" fill="white"/>
<path d="M253.381 153.905C253.195 153.953 253.003 153.982 252.81 153.99C252.436 153.99 251.918 154.093 251.16 154.144C249.132 154.191 247.104 154.051 245.104 153.726C242.57 153.334 239.609 152.619 236.344 151.775C232.844 150.784 229.264 150.072 225.64 149.645C224.688 149.571 223.732 149.542 222.777 149.56C222.304 149.56 221.84 149.56 221.376 149.603L220.012 149.756C218.274 149.992 216.567 150.4 214.918 150.974C211.743 152.048 208.969 153.283 206.533 154.067C204.627 154.735 202.635 155.154 200.611 155.311C200.062 155.358 199.509 155.358 198.96 155.311C198.766 155.316 198.571 155.299 198.381 155.26C198.574 155.246 198.767 155.246 198.96 155.26C199.506 155.263 200.051 155.231 200.593 155.166C202.59 154.945 204.55 154.484 206.426 153.794C208.826 152.985 211.573 151.724 214.776 150.617C216.446 150.023 218.177 149.597 219.94 149.347L221.341 149.185C221.813 149.185 222.286 149.185 222.768 149.185C223.738 149.167 224.709 149.195 225.676 149.27C229.332 149.7 232.943 150.427 236.469 151.443C239.725 152.295 242.659 153.062 245.175 153.488C247.152 153.839 249.158 154.021 251.169 154.033L252.81 153.973C252.997 153.929 253.189 153.906 253.381 153.905Z" fill="white"/>
<path d="M262.248 131.046C262.328 131.089 261.418 132.333 260.562 134.59C259.441 137.536 259.134 140.708 259.67 143.801C260.252 146.883 261.639 149.775 263.702 152.21C265.29 154.076 266.565 154.979 266.503 155.047C266.181 154.876 265.882 154.671 265.611 154.434C264.833 153.819 264.114 153.141 263.461 152.406C261.278 149.977 259.813 147.036 259.215 143.886C258.663 140.731 259.014 137.493 260.232 134.514C260.601 133.625 261.052 132.77 261.579 131.958C261.764 131.63 261.988 131.324 262.248 131.046V131.046Z" fill="white"/>
<path d="M215.195 133.764C214.945 133.863 214.68 133.921 214.41 133.934C213.681 134.05 212.945 134.127 212.207 134.164C211.103 134.232 209.994 134.149 208.915 133.917C207.556 133.622 206.317 132.956 205.347 132C204.312 131.029 203.563 129.973 202.734 129.095C202.047 128.312 201.234 127.639 200.325 127.101C199.472 126.634 198.516 126.365 197.533 126.317C197.793 126.23 198.071 126.2 198.345 126.232C199.097 126.273 199.829 126.477 200.486 126.829C201.46 127.345 202.329 128.023 203.055 128.831C203.884 129.683 204.678 130.756 205.668 131.685C206.573 132.577 207.718 133.214 208.978 133.525C210.017 133.764 211.084 133.873 212.153 133.849C214.08 133.764 215.195 133.653 215.195 133.764Z" fill="white"/>
<path d="M213.402 393.215C213.277 393.215 213.17 384.286 213.17 373.27C213.17 362.253 213.277 353.324 213.402 353.324C213.527 353.324 213.634 362.253 213.634 373.27C213.634 384.286 213.536 393.215 213.402 393.215Z" fill="#263238"/>
<path d="M217.354 382.965C217.22 382.965 217.122 374.036 217.122 363.02C217.122 352.004 217.22 343.075 217.354 343.075C217.487 343.075 217.585 352.004 217.585 363.02C217.585 374.036 217.478 382.965 217.354 382.965Z" fill="#263238"/>
<path d="M401.685 406.515C401.685 406.634 321.673 406.736 223.009 406.736C124.345 406.736 44.3145 406.634 44.3145 406.515C44.3145 406.396 124.309 406.293 223.009 406.293C321.709 406.293 401.685 406.404 401.685 406.515Z" fill="#263238"/>
</svg>
