<svg width="356" height="345" viewBox="0 0 356 345" fill="none" xmlns="http://www.w3.org/2000/svg">
<path d="M37.2233 87.3057C37.2233 87.3057 32.9086 90.4935 37.0453 94.7025C37.1173 94.7719 37.2143 94.8115 37.3159 94.8129L75.0519 94.599C75.0519 94.599 78.2701 91.1007 75.6001 87.0642L37.2233 87.3057Z" fill="#EBEBEB"/>
<path d="M66.693 90.6315C66.693 90.6729 62.001 90.7074 56.2053 90.7074C50.4096 90.7074 45.7175 90.6729 45.7175 90.6315C45.7175 90.5901 50.4167 90.5556 56.2053 90.5556C61.9939 90.5556 66.693 90.5901 66.693 90.6315Z" fill="#E0E0E0"/>
<path d="M60.8262 91.9563C60.8262 91.9563 58.619 92.0253 55.8991 92.0253C53.1793 92.0253 50.965 91.9908 50.965 91.9563C50.965 91.9218 53.1722 91.8804 55.8991 91.8804C58.6261 91.8804 60.8262 91.9149 60.8262 91.9563Z" fill="#E0E0E0"/>
<path d="M70.5521 94.4817C70.5521 94.4817 70.6304 94.0608 70.7515 93.3846C70.9019 92.5044 70.9734 91.6133 70.9651 90.7212C70.9581 89.8273 70.8675 88.9359 70.6945 88.0578C70.5663 87.3678 70.4524 86.9745 70.4738 86.9676C70.4951 86.9607 70.5236 87.0642 70.5877 87.2505C70.6726 87.509 70.7439 87.7716 70.8013 88.0371C71.0049 88.9184 71.1123 89.8181 71.1217 90.7212C71.1276 91.6222 71.0394 92.5215 70.8583 93.4053C70.7799 93.7434 70.7159 94.0194 70.6518 94.1988C70.6292 94.2963 70.5958 94.3912 70.5521 94.4817Z" fill="#E0E0E0"/>
<path d="M73.3359 87.0228C73.4029 87.1024 73.458 87.1906 73.4997 87.285C73.5652 87.3911 73.6223 87.5018 73.6706 87.6162C73.7275 87.7473 73.8059 87.8922 73.8628 88.0647C74.0157 88.457 74.1348 88.8609 74.2188 89.2722C74.319 89.7798 74.3761 90.2944 74.3897 90.8109C74.3885 91.3269 74.3409 91.8417 74.2473 92.3496C74.1707 92.7657 74.0564 93.1744 73.9055 93.5709C73.8557 93.7434 73.7774 93.8883 73.7275 94.0194C73.6777 94.1505 73.6136 94.2609 73.5638 94.3506C73.5173 94.4448 73.4625 94.5348 73.4 94.6197C73.4 94.6197 73.5851 94.2126 73.8059 93.5364C73.9362 93.1412 74.0385 92.7377 74.112 92.3289C74.191 91.8265 74.2315 91.3191 74.2331 90.8109C74.2259 90.3041 74.1759 89.7987 74.0835 89.2998C74.0068 88.8927 73.8997 88.4914 73.7631 88.0992C73.5567 87.423 73.3359 87.0366 73.3359 87.0228Z" fill="#E0E0E0"/>
<path d="M43.1757 94.53C43.1046 94.4583 43.0446 94.3769 42.9977 94.2885C42.9345 94.1907 42.8774 94.0893 42.8268 93.9849C42.7627 93.8607 42.6844 93.7227 42.6203 93.564C42.4619 93.1919 42.3403 92.806 42.2572 92.4117C42.1574 91.9254 42.1073 91.4309 42.1077 90.9351C42.1219 90.4429 42.1839 89.9532 42.2928 89.4723C42.3975 89.076 42.5406 88.6902 42.72 88.32C42.7912 88.1613 42.8695 88.0233 42.9336 87.906C42.9886 87.8011 43.0504 87.6997 43.1187 87.6024C43.1702 87.5171 43.2324 87.4383 43.3038 87.3678C43.3038 87.3678 43.0831 87.7335 42.8197 88.3614C42.6669 88.7277 42.5478 89.1064 42.4637 89.493C42.3572 89.9671 42.2976 90.45 42.2857 90.9351C42.285 91.4188 42.3303 91.9015 42.4209 92.3772C42.5 92.7642 42.6095 93.1448 42.7485 93.5157C42.9692 94.1574 43.2041 94.53 43.1757 94.53Z" fill="#E0E0E0"/>
<path d="M39.1031 95.427C39.0302 95.3386 38.9659 95.2439 38.9108 95.1441C38.8362 95.0361 38.7696 94.9231 38.7115 94.806C38.626 94.6517 38.5499 94.4928 38.4836 94.3299C38.3024 93.9128 38.1594 93.4811 38.0564 93.0396C37.9301 92.498 37.8585 91.9456 37.8428 91.3905C37.8313 90.8355 37.8766 90.2808 37.9781 89.7345C38.063 89.2904 38.1869 88.8541 38.3483 88.4304C38.4124 88.2441 38.4907 88.0923 38.5548 87.9474C38.6189 87.8025 38.683 87.6921 38.7399 87.5955C38.7886 87.4953 38.8483 87.4005 38.9179 87.3126C38.9179 87.3126 38.7043 87.7404 38.448 88.4649C38.303 88.8886 38.1911 89.3222 38.1134 89.7621C38.0275 90.3008 37.987 90.8454 37.9923 91.3905C38.0075 91.9358 38.0742 92.4786 38.1917 93.012C38.2904 93.4483 38.4213 93.8772 38.5833 94.2954C38.8681 95.0061 39.16 95.4063 39.1031 95.427Z" fill="#E0E0E0"/>
<path d="M73.6421 105.729V112.725H59.6798V105.729H73.6421Z" fill="#EBEBEB"/>
<path d="M28.5441 109.289C28.5441 109.351 28.5441 109.413 28.5441 109.475C28.6096 110.497 29.0763 111.455 29.8484 112.153C30.6204 112.851 31.6391 113.236 32.695 113.229H74.2829V112.725H64.4218C63.4644 112.725 62.5462 112.357 61.8692 111.701C61.1922 111.045 60.8119 110.155 60.8119 109.227V109.227C60.8119 108.299 61.1922 107.409 61.8692 106.753C62.5462 106.097 63.4644 105.729 64.4218 105.729H74.2972V104.99L32.695 105.122C32.1377 105.123 31.5863 105.233 31.0736 105.445C30.5609 105.657 30.0973 105.966 29.7102 106.355C29.3231 106.743 29.0205 107.203 28.8202 107.707C28.6198 108.211 28.526 108.749 28.5441 109.289V109.289Z" fill="#E0E0E0"/>
<path d="M73.6422 109.324C73.6422 109.365 70.7942 109.393 67.2342 109.393C63.6742 109.393 60.8262 109.393 60.8262 109.324C60.8262 109.255 63.6742 109.248 67.2342 109.248C70.7942 109.248 73.6422 109.282 73.6422 109.324Z" fill="#E0E0E0"/>
<path d="M73.4428 110.897C73.4428 110.938 70.7229 110.973 67.3765 110.973C64.0301 110.973 61.3103 110.938 61.3103 110.897C61.3103 110.855 64.023 110.821 67.3765 110.821C70.7301 110.821 73.4428 110.855 73.4428 110.897Z" fill="#E0E0E0"/>
<path d="M73.6421 112.339C73.6421 112.38 71.1999 112.415 68.1882 112.415C65.1764 112.415 62.7343 112.415 62.7343 112.339C62.7343 112.263 65.1764 112.263 68.1882 112.263C71.1999 112.263 73.6421 112.298 73.6421 112.339Z" fill="#E0E0E0"/>
<path d="M73.6422 107.902C73.6422 107.944 70.7942 107.978 67.3624 107.978C63.9305 107.978 61.0825 107.944 61.0825 107.902C61.0825 107.861 63.8949 107.833 67.3624 107.833C70.8298 107.833 73.6422 107.861 73.6422 107.902Z" fill="#E0E0E0"/>
<path d="M73.4428 106.488C73.4428 106.529 70.9366 106.564 67.8536 106.564C64.7706 106.564 62.2644 106.529 62.2644 106.488C62.2644 106.446 64.7635 106.419 67.8536 106.419C70.9437 106.419 73.4428 106.446 73.4428 106.488Z" fill="#E0E0E0"/>
<path d="M33.585 105.239C33.2657 105.558 32.9707 105.899 32.7021 106.26C32.0728 107.143 31.7416 108.193 31.7544 109.266C31.7671 110.338 32.1232 111.381 32.7733 112.249C33.0514 112.604 33.356 112.938 33.6847 113.25C33.5741 113.194 33.4731 113.122 33.3856 113.036C33.1232 112.832 32.8844 112.6 32.6736 112.346C31.9794 111.472 31.597 110.403 31.5842 109.301C31.5714 108.198 31.9287 107.121 32.6024 106.232C32.7987 105.963 33.0256 105.715 33.2788 105.494C33.3684 105.396 33.4714 105.31 33.585 105.239V105.239Z" fill="#F5F5F5"/>
<path d="M32.1825 105.094C31.8705 105.41 31.5848 105.749 31.3281 106.108C30.6981 106.992 30.3673 108.044 30.3813 109.118C30.3954 110.193 30.7536 111.236 31.4064 112.104C31.6796 112.459 31.982 112.791 32.3106 113.098C32.2027 113.038 32.1023 112.966 32.0116 112.884C31.747 112.682 31.508 112.45 31.2996 112.194C30.6065 111.32 30.2242 110.252 30.2101 109.15C30.196 108.048 30.5508 106.971 31.2213 106.081C31.4309 105.811 31.6696 105.563 31.9333 105.342C32.0022 105.247 32.0863 105.163 32.1825 105.094V105.094Z" fill="#F5F5F5"/>
<path d="M60.4346 105.239C60.1178 105.56 59.8229 105.901 59.5517 106.26C58.9223 107.143 58.5912 108.193 58.6039 109.266C58.6167 110.338 58.9727 111.381 59.6229 112.249C59.8963 112.603 60.1962 112.938 60.52 113.25C60.4107 113.192 60.3101 113.12 60.221 113.036C59.9585 112.832 59.7197 112.6 59.509 112.346C58.8191 111.47 58.4394 110.402 58.4266 109.301C58.4138 108.199 58.7684 107.123 59.4378 106.232C59.6472 105.962 59.8859 105.715 60.1498 105.494C60.2349 105.399 60.3303 105.314 60.4346 105.239V105.239Z" fill="#F5F5F5"/>
<path d="M59.032 105.094C58.7114 105.41 58.4162 105.749 58.1491 106.108C57.5161 106.991 57.1828 108.043 57.1956 109.117C57.2083 110.192 57.5665 111.236 58.2203 112.104C58.4869 112.456 58.7796 112.788 59.096 113.098C58.9881 113.038 58.8877 112.966 58.797 112.884C58.534 112.68 58.2952 112.449 58.085 112.194C57.3919 111.32 57.0096 110.252 56.9955 109.15C56.9814 108.048 57.3362 106.971 58.0067 106.081C58.2052 105.813 58.4318 105.565 58.6831 105.342C58.7841 105.241 58.902 105.157 59.032 105.094V105.094Z" fill="#F5F5F5"/>
<path d="M38.3198 110.276L38.277 107.433C38.2911 107.185 38.2572 106.937 38.1774 106.702C38.135 106.583 38.0603 106.479 37.9612 106.398C37.8622 106.318 37.7424 106.266 37.6149 106.246C37.2518 106.088 36.6751 106.384 36.4187 106.791C36.1985 107.218 36.1002 107.695 36.1339 108.171C36.1255 108.923 36.1636 109.674 36.2479 110.421C36.2617 110.778 36.3539 111.129 36.5184 111.449C36.5927 111.614 36.7186 111.753 36.8785 111.845C37.0384 111.938 37.2242 111.979 37.4097 111.964C37.5952 111.949 37.7711 111.878 37.9126 111.76C38.0542 111.643 38.1542 111.486 38.1987 111.311C38.3016 110.975 38.3426 110.625 38.3198 110.276V110.276Z" fill="#F5F5F5"/>
<path d="M54.468 109.455C54.468 109.496 51.4634 109.531 47.7538 109.531C44.0443 109.531 41.0397 109.496 41.0397 109.455C41.0397 109.413 44.0443 109.386 47.7538 109.386C51.4634 109.386 54.468 109.42 54.468 109.455Z" fill="#F5F5F5"/>
<path d="M35.536 104.963L35.4576 98.3319H39.1814L39.3096 104.963H35.536Z" fill="#F5F5F5"/>
<path d="M38.9606 99.5118C38.3873 99.5871 37.8083 99.6125 37.2304 99.5877C36.6525 99.6125 36.0735 99.5871 35.5002 99.5118C36.0735 99.4366 36.6525 99.4112 37.2304 99.4359C37.8083 99.4112 38.3873 99.4366 38.9606 99.5118V99.5118Z" fill="#E0E0E0"/>
<path d="M38.9606 100.533C38.3873 100.608 37.8083 100.634 37.2304 100.609C36.6525 100.634 36.0735 100.608 35.5002 100.533C36.0739 100.462 36.6527 100.439 37.2304 100.464C37.8081 100.439 38.3869 100.462 38.9606 100.533V100.533Z" fill="#E0E0E0"/>
<path d="M38.9606 101.561C38.3866 101.628 37.8081 101.651 37.2304 101.63C36.6527 101.651 36.0742 101.628 35.5002 101.561C36.0735 101.486 36.6525 101.46 37.2304 101.485C37.8083 101.46 38.3873 101.486 38.9606 101.561V101.561Z" fill="#E0E0E0"/>
<path d="M38.9606 102.582C38.3873 102.658 37.8083 102.683 37.2304 102.658C36.6525 102.683 36.0735 102.658 35.5002 102.582C36.0735 102.507 36.6525 102.482 37.2304 102.506C37.8083 102.482 38.3873 102.507 38.9606 102.582V102.582Z" fill="#E0E0E0"/>
<path d="M38.9606 103.603C38.3873 103.679 37.8083 103.704 37.2304 103.679C36.6525 103.704 36.0735 103.679 35.5002 103.603C36.0735 103.528 36.6525 103.503 37.2304 103.528C37.8083 103.503 38.3873 103.528 38.9606 103.603V103.603Z" fill="#E0E0E0"/>
<path d="M35.2582 98.1594H76.5542C77.0282 100.525 77.0282 102.956 76.5542 105.322H35.4362V104.832H37.9424C38.1006 104.836 38.2581 104.81 38.4057 104.755C38.5532 104.699 38.6877 104.616 38.8013 104.509C38.9148 104.402 39.0051 104.274 39.0667 104.133C39.1283 103.992 39.16 103.84 39.1599 103.686V99.7188C39.1599 99.5678 39.1291 99.4183 39.0693 99.2789C39.0095 99.1395 38.9218 99.0129 38.8112 98.9065C38.7007 98.8 38.5696 98.7158 38.4254 98.6586C38.2812 98.6015 38.1267 98.5725 37.9709 98.5734H35.2582V98.1594Z" fill="#EBEBEB"/>
<path d="M45.0126 101.741H45.7246C45.7478 101.734 45.7726 101.734 45.7958 101.741C45.8195 101.752 45.8394 101.77 45.8533 101.792C45.8671 101.814 45.8743 101.839 45.8742 101.865C45.8742 101.865 45.8742 101.899 45.8742 101.913C45.8608 101.969 45.8442 102.024 45.8243 102.079C45.7448 102.36 45.5985 102.62 45.3971 102.838C45.3249 102.923 45.235 102.993 45.1332 103.043C45.0315 103.093 44.9201 103.122 44.8062 103.127H44.7278C44.6285 103.111 44.5344 103.073 44.4529 103.015C44.3714 102.958 44.3047 102.883 44.2579 102.796C44.1138 102.553 44.0423 102.276 44.0514 101.996C44.0543 101.804 44.0855 101.613 44.144 101.43C44.2146 101.143 44.3536 100.876 44.5498 100.65C44.6234 100.557 44.7169 100.481 44.8238 100.426C44.9307 100.371 45.0485 100.34 45.1693 100.333C45.2609 100.333 45.3512 100.354 45.4327 100.395C45.5297 100.445 45.615 100.514 45.6836 100.597C45.7522 100.68 45.8025 100.775 45.8314 100.878C45.839 100.9 45.839 100.925 45.8314 100.947C45.8382 100.97 45.8382 100.994 45.8314 101.016C45.8183 101.038 45.7998 101.057 45.7774 101.07C45.755 101.083 45.7295 101.091 45.7033 101.092H45.6534C45.6309 101.085 45.6107 101.072 45.5945 101.055C45.5783 101.038 45.5668 101.018 45.5609 100.995V100.995C45.5427 100.938 45.5137 100.884 45.4754 100.837C45.4526 100.779 45.4146 100.729 45.3653 100.69C45.316 100.651 45.257 100.626 45.1944 100.616C45.1317 100.606 45.0675 100.612 45.0081 100.634C44.9487 100.656 44.8963 100.692 44.856 100.74C44.6831 100.878 44.5526 101.059 44.4786 101.264C44.3741 101.502 44.3184 101.758 44.3149 102.017C44.3094 102.221 44.3508 102.423 44.4359 102.61C44.4617 102.682 44.5096 102.745 44.5731 102.791C44.6366 102.837 44.7129 102.862 44.7919 102.865C44.8586 102.858 44.9228 102.837 44.9805 102.803C45.0382 102.77 45.0879 102.725 45.1266 102.672C45.2871 102.49 45.4081 102.279 45.4826 102.051H44.9842C44.9407 102.048 44.9 102.029 44.8698 101.998C44.8396 101.968 44.822 101.928 44.8204 101.885C44.8204 101.885 44.8204 101.885 44.8204 101.837C44.8334 101.8 44.8607 101.769 44.8965 101.751C44.9323 101.733 44.9739 101.73 45.0126 101.741V101.741Z" fill="#FAFAFA"/>
<path d="M49.662 103.148H48.416C48.3904 103.155 48.3633 103.155 48.3377 103.148C48.3156 103.129 48.2979 103.106 48.2856 103.079C48.2734 103.053 48.2668 103.025 48.2665 102.996V102.996C48.2665 102.948 48.3804 102.127 48.6082 100.526C48.6082 100.526 48.6082 100.526 48.6082 100.478C48.6175 100.451 48.6358 100.427 48.6603 100.411C48.6847 100.395 48.7139 100.387 48.7435 100.388H48.8076C48.8331 100.399 48.8543 100.418 48.8683 100.442C48.8823 100.465 48.8885 100.492 48.8859 100.519C48.8859 100.623 48.8859 100.85 48.8005 101.209C48.6652 102.258 48.5869 102.817 48.5798 102.872H49.6406C49.6664 102.866 49.6932 102.866 49.719 102.872C49.7478 102.88 49.7728 102.897 49.7897 102.921C49.8066 102.945 49.8143 102.974 49.8115 103.003C49.815 103.019 49.815 103.036 49.8115 103.051C49.7998 103.081 49.7792 103.105 49.7525 103.123C49.7257 103.14 49.6941 103.149 49.662 103.148Z" fill="#FAFAFA"/>
<path d="M53.3431 101.865C53.4356 102.127 53.514 102.327 53.5638 102.465C53.692 102.81 53.756 102.989 53.756 103.01C53.7634 103.035 53.7634 103.061 53.756 103.086C53.7426 103.109 53.7224 103.127 53.698 103.139C53.6736 103.15 53.6462 103.155 53.6193 103.151C53.5924 103.147 53.5673 103.136 53.5473 103.118C53.5272 103.1 53.5131 103.077 53.5068 103.052V102.989C53.4356 102.845 53.3288 102.562 53.1722 102.141L52.4602 103.072C52.4483 103.095 52.4299 103.114 52.4073 103.128C52.3846 103.141 52.3586 103.148 52.332 103.148C52.3063 103.154 52.2794 103.154 52.2537 103.148C52.2314 103.137 52.2127 103.121 52.2001 103.1C52.1874 103.079 52.1813 103.055 52.1825 103.031V103.031C52.2009 102.987 52.2275 102.948 52.2608 102.914C52.4958 102.617 52.7592 102.265 53.044 101.858C53.0116 101.783 52.983 101.707 52.9586 101.63C52.688 100.94 52.5599 100.588 52.5599 100.561C52.5535 100.538 52.5535 100.514 52.5599 100.492C52.5686 100.469 52.5842 100.45 52.6046 100.436C52.6249 100.423 52.6491 100.416 52.6738 100.416C52.703 100.416 52.7316 100.424 52.7566 100.438C52.7817 100.453 52.8022 100.474 52.8162 100.499L53.2292 101.582L54.0622 100.485C54.0773 100.466 54.0967 100.45 54.1189 100.439C54.1411 100.429 54.1655 100.423 54.1904 100.423C54.2135 100.415 54.2384 100.415 54.2616 100.423C54.2851 100.436 54.3042 100.455 54.3169 100.478C54.3295 100.501 54.335 100.528 54.3328 100.554C54.3354 100.574 54.3354 100.595 54.3328 100.616L53.3431 101.865Z" fill="#FAFAFA"/>
<path d="M56.4188 100.381C56.4422 100.375 56.4667 100.375 56.49 100.381C56.5128 100.394 56.5319 100.412 56.5455 100.434C56.5592 100.455 56.5671 100.48 56.5683 100.505C56.3595 102.065 56.2456 102.907 56.2266 103.031C56.1929 103.266 56.1027 103.491 55.9631 103.686C55.8704 103.814 55.7462 103.916 55.6019 103.985C55.4576 104.054 55.2978 104.086 55.1372 104.08C54.9992 104.072 54.8638 104.04 54.7385 103.983C54.5518 103.91 54.3979 103.776 54.3042 103.603C54.297 103.581 54.297 103.557 54.3042 103.534C54.2978 103.512 54.2978 103.488 54.3042 103.465C54.3164 103.443 54.3351 103.425 54.3578 103.413C54.3805 103.4 54.4064 103.395 54.4323 103.396C54.4544 103.397 54.476 103.402 54.4957 103.412C54.5154 103.421 54.5326 103.435 54.5463 103.452C54.6153 103.555 54.7089 103.641 54.8191 103.702C54.9293 103.763 55.053 103.798 55.1799 103.804C55.2764 103.802 55.3714 103.78 55.4577 103.738C55.5439 103.696 55.6194 103.636 55.6783 103.562C55.8482 103.343 55.9429 103.077 55.9489 102.803C55.903 102.876 55.8424 102.939 55.7709 102.989C55.6428 103.086 55.4845 103.137 55.3223 103.134H55.2369C55.1376 103.118 55.0435 103.079 54.962 103.022C54.8805 102.965 54.8137 102.89 54.767 102.803C54.6188 102.562 54.547 102.283 54.5605 102.003C54.5605 101.855 54.5605 101.704 54.5605 101.547C54.5605 101.306 54.6388 100.961 54.7243 100.512C54.7243 100.512 54.7243 100.512 54.7243 100.471C54.7323 100.442 54.75 100.417 54.7745 100.4C54.7991 100.382 54.8291 100.373 54.8595 100.374C54.8829 100.368 54.9074 100.368 54.9307 100.374C54.9532 100.383 54.9721 100.398 54.9849 100.418C54.9977 100.438 55.0037 100.461 55.0019 100.485C55.0019 100.561 55.0019 100.74 54.9379 101.037C54.8893 101.315 54.856 101.596 54.8382 101.878C54.829 102.1 54.8678 102.321 54.9521 102.527C55.0304 102.727 55.1586 102.824 55.3152 102.824H55.3651C55.5239 102.776 55.6586 102.673 55.7424 102.534C55.8901 102.326 55.9941 102.091 56.0486 101.844L56.2337 100.464C56.2307 100.443 56.2307 100.422 56.2337 100.402C56.2442 100.388 56.2573 100.377 56.2725 100.369C56.2876 100.36 56.3043 100.355 56.3217 100.353C56.339 100.351 56.3565 100.352 56.3733 100.357C56.39 100.362 56.4055 100.37 56.4188 100.381V100.381Z" fill="#FAFAFA"/>
<path d="M74.9735 105.418C74.9308 105.418 74.9023 103.769 74.9023 101.741C74.9023 99.7119 74.9023 98.0628 74.9735 98.0628C75.0447 98.0628 75.0519 99.7119 75.0519 101.741C75.0519 103.769 75.0163 105.418 74.9735 105.418Z" fill="#F5F5F5"/>
<path d="M41.2034 105.418C41.1607 105.418 41.1322 103.769 41.1322 101.741C41.1322 99.7119 41.1322 98.0628 41.2034 98.0628C41.2746 98.0628 41.2817 99.7119 41.2817 101.741C41.2817 103.769 41.2461 105.418 41.2034 105.418Z" fill="#E0E0E0"/>
<path d="M75.6999 105.418C75.6572 105.418 75.6216 103.769 75.6216 101.741C75.6216 99.7119 75.6572 98.0628 75.6999 98.0628C75.7426 98.0628 75.7782 99.7119 75.7782 101.741C75.7782 103.769 75.7426 105.418 75.6999 105.418Z" fill="#F5F5F5"/>
<path d="M40.527 105.418C40.4843 105.418 40.4558 103.769 40.4558 101.741C40.4558 99.7119 40.4558 98.0628 40.527 98.0628C40.5982 98.0628 40.6053 99.7119 40.6053 101.741C40.6053 103.769 40.584 105.418 40.527 105.418Z" fill="#E0E0E0"/>
<path d="M64.97 99.2772L69.3346 102.686H69.2847L68.708 102.838L65.027 103.769L61.6948 102.389L60.7479 102.003L60.4987 101.892H60.4346H60.4987L60.755 101.996L61.7019 102.375L65.0483 103.755L68.7223 102.81L69.299 102.658V102.707L64.9487 99.2565" fill="#E0E0E0"/>
<path d="M68.9287 102.141L69.1708 102.355L69.484 102.293L69.3488 102.575L69.5125 102.851L69.185 102.81L68.9714 103.045L68.9073 102.734L68.6083 102.61L68.9002 102.458L68.9287 102.141Z" fill="#E0E0E0"/>
<path d="M64.7493 103.486L64.9059 103.617L65.1124 103.562L65.034 103.748L65.148 103.921L64.9415 103.907L64.8062 104.066L64.7564 103.873L64.557 103.797L64.735 103.693L64.7493 103.486Z" fill="#E0E0E0"/>
<path d="M60.1213 101.651L60.3848 101.665L60.5414 101.465L60.6055 101.713L60.8547 101.796L60.634 101.927L60.6197 102.182L60.4204 102.023L60.1712 102.092L60.2709 101.858L60.1213 101.651Z" fill="#E0E0E0"/>
<path d="M70.8867 99.3255L71.143 99.3462L71.3068 99.1461L71.3709 99.3876L71.613 99.4773L71.3922 99.6084L71.3851 99.8637L71.1858 99.705L70.9366 99.774L71.0291 99.5394L70.8867 99.3255Z" fill="#E0E0E0"/>
<path d="M64.7563 99.1668L64.9201 99.1737L65.0269 99.0495L65.0696 99.2013L65.2192 99.2565L65.0839 99.3462L65.0768 99.5049L64.9486 99.4014L64.792 99.4497L64.8489 99.2979L64.7563 99.1668Z" fill="#E0E0E0"/>
<path d="M71.2498 99.5049C71.2498 99.5049 69.8258 99.5049 68.0956 99.4014C66.3655 99.2979 64.9486 99.2565 64.9486 99.2427C64.9486 99.2289 66.3726 99.2427 68.1028 99.3462C69.8329 99.4497 71.2498 99.4911 71.2498 99.5049Z" fill="#E0E0E0"/>
<path d="M72.8304 98.0973H30.9791C30.4308 96.8898 30.2671 95.7444 30.9791 94.7163H72.8304C73.0928 95.2436 73.2291 95.8214 73.2291 96.4068C73.2291 96.9922 73.0928 97.57 72.8304 98.0973V98.0973Z" fill="#E0E0E0"/>
<path d="M62.3214 95.6823H39.6442V96.9105H62.3214V95.6823Z" fill="#EBEBEB"/>
<path d="M32.5883 98.1111C32.5883 98.1111 32.4245 97.9869 32.2536 97.704C32.0411 97.3344 31.9125 96.9251 31.8763 96.5034C31.8383 96.0834 31.8916 95.6603 32.0329 95.2614C32.0805 95.0924 32.1683 94.9364 32.2892 94.806C32.2489 94.9719 32.199 95.1355 32.1397 95.2959C32.0293 95.6866 31.9907 96.093 32.0258 96.4965C32.0616 96.899 32.1725 97.2918 32.3533 97.6557C32.4405 97.8031 32.519 97.9551 32.5883 98.1111Z" fill="#E0E0E0"/>
<path d="M33.464 98.1111C33.464 98.1111 33.3002 97.9869 33.1365 97.704C32.9181 97.3364 32.7868 96.9263 32.752 96.5034C32.714 96.0834 32.7674 95.6603 32.9086 95.2614C32.9596 95.0937 33.047 94.9384 33.1649 94.806C33.1246 94.9719 33.0747 95.1355 33.0154 95.2959C32.905 95.6866 32.8665 96.093 32.9015 96.4965C32.9373 96.899 33.0483 97.2918 33.229 97.6557C33.3162 97.8031 33.3947 97.9551 33.464 98.1111Z" fill="#E0E0E0"/>
<path d="M71.1431 98.0352C71.3057 97.4983 71.4037 96.9449 71.435 96.3861C71.416 95.8249 71.3227 95.2683 71.1573 94.7301C71.468 95.228 71.6169 95.8051 71.5845 96.3861C71.6036 96.9655 71.4504 97.5379 71.1431 98.0352V98.0352Z" fill="#F5F5F5"/>
<path d="M70.3599 98.0283C70.3172 98.0283 70.4952 97.3383 70.4881 96.4068C70.481 95.4753 70.3101 94.806 70.3599 94.7922C70.5708 95.3049 70.6655 95.8556 70.6376 96.4068C70.6648 96.9603 70.5701 97.5131 70.3599 98.0283V98.0283Z" fill="#F5F5F5"/>
<path d="M107.45 47.7978L92.5481 47.8759L92.6336 63.1937L107.536 63.1156L107.45 47.7978Z" fill="#EBEBEB"/>
<path d="M122.508 47.1698L107.606 47.3142L107.764 62.6322L122.666 62.4878L122.508 47.1698Z" fill="#F5F5F5"/>
<path d="M92.56 52.1088C102.464 52.1916 112.396 52.1088 122.293 51.9777C122.335 51.9777 122.374 51.9617 122.404 51.9333C122.433 51.9048 122.45 51.8662 122.45 51.8259C122.45 51.7857 122.433 51.747 122.404 51.7186C122.374 51.6901 122.335 51.6741 122.293 51.6741C112.392 51.6189 102.48 51.6764 92.56 51.8466C92.5241 51.8466 92.4897 51.8604 92.4643 51.885C92.4389 51.9096 92.4247 51.9429 92.4247 51.9777C92.4247 52.0125 92.4389 52.0458 92.4643 52.0704C92.4897 52.095 92.5241 52.1088 92.56 52.1088Z" fill="#E0E0E0"/>
<path d="M110.332 62.859L83.2554 63.001L83.3251 75.4829L110.402 75.3409L110.332 62.859Z" fill="#EBEBEB"/>
<path d="M137.288 62.7177L110.211 62.8597L110.28 75.3416L137.357 75.1996L137.288 62.7177Z" fill="#F5F5F5"/>
<path d="M83.304 66.4815C101.289 66.6747 119.338 66.4815 137.323 66.2193C137.365 66.2193 137.405 66.2033 137.434 66.1748C137.464 66.1464 137.48 66.1078 137.48 66.0675C137.48 66.0272 137.464 65.9886 137.434 65.9602C137.405 65.9317 137.365 65.9157 137.323 65.9157C119.338 65.826 101.282 65.8329 83.2969 66.2193C83.261 66.2193 83.2266 66.2331 83.2012 66.2577C83.1759 66.2823 83.1616 66.3156 83.1616 66.3504C83.1616 66.3852 83.1759 66.4185 83.2012 66.4431C83.2266 66.4677 83.261 66.4815 83.2969 66.4815H83.304Z" fill="#E0E0E0"/>
<path d="M85.8998 133.532L58.8229 133.674L58.8926 146.156L85.9695 146.014L85.8998 133.532Z" fill="#EBEBEB"/>
<path d="M112.848 133.384L85.7709 133.526L85.8406 146.007L112.918 145.865L112.848 133.384Z" fill="#F5F5F5"/>
<path d="M58.8325 137.144C76.8176 137.344 94.8668 137.144 112.859 136.889C112.896 136.882 112.929 136.862 112.952 136.834C112.976 136.805 112.989 136.77 112.989 136.734C112.989 136.697 112.976 136.662 112.952 136.634C112.929 136.606 112.896 136.586 112.859 136.579C94.8739 136.489 76.8247 136.496 58.8396 136.882C58.8037 136.882 58.7693 136.896 58.744 136.921C58.7186 136.945 58.7043 136.979 58.7043 137.013C58.7043 137.048 58.7186 137.081 58.744 137.106C58.7693 137.131 58.8037 137.144 58.8396 137.144H58.8325Z" fill="#E0E0E0"/>
<path d="M49.5432 42.5881L42.7152 42.6239L42.8991 75.5572L49.7271 75.5214L49.5432 42.5881Z" fill="#E0E0E0"/>
<path d="M56.2101 30.3057L49.3821 30.3415L49.635 75.6393L56.463 75.6035L56.2101 30.3057Z" fill="#EBEBEB"/>
<path d="M66.8942 38.7436L56.2784 38.7993L56.4834 75.5067L67.0991 75.4511L66.8942 38.7436Z" fill="#F5F5F5"/>
<path d="M66.8142 45.816C65.052 45.9889 63.2799 46.0465 61.5098 45.9885C59.7373 46.0466 57.9627 45.989 56.1982 45.816C57.9621 45.6343 59.7371 45.5744 61.5098 45.6366C63.28 45.5745 65.0526 45.6344 66.8142 45.816V45.816Z" fill="#E0E0E0"/>
<path d="M66.8142 44.2704C65.0523 44.4478 63.28 44.5078 61.5098 44.4498C59.7371 44.5079 57.9624 44.448 56.1982 44.2704C57.9624 44.0929 59.7371 44.0329 61.5098 44.091C63.28 44.0331 65.0523 44.093 66.8142 44.2704V44.2704Z" fill="#E0E0E0"/>
<path d="M66.8142 69.9246C65.0526 70.1062 63.28 70.1661 61.5098 70.104C59.7371 70.1662 57.9621 70.1063 56.1982 69.9246C57.9624 69.7471 59.7371 69.6871 61.5098 69.7452C63.28 69.6872 65.0523 69.7472 66.8142 69.9246V69.9246Z" fill="#E0E0E0"/>
<path d="M66.8142 68.3859C65.0523 68.5633 63.28 68.6233 61.5098 68.5653C59.7371 68.6234 57.9624 68.5634 56.1982 68.3859C57.9624 68.2084 59.7371 68.1484 61.5098 68.2065C63.28 68.1485 65.0523 68.2085 66.8142 68.3859V68.3859Z" fill="#E0E0E0"/>
<path d="M61.6805 65.0187C61.5737 65.0187 61.4954 61.3134 61.4954 56.7387C61.4954 52.164 61.5737 48.4587 61.6805 48.4587C61.7873 48.4587 61.8585 52.1571 61.8585 56.7387C61.8585 61.3203 61.7802 65.0187 61.6805 65.0187Z" fill="#E0E0E0"/>
<path d="M78.4766 47.7549H66.928V75.4653H78.4766V47.7549Z" fill="#EBEBEB"/>
<path d="M54.6602 38.0397C54.6616 38.4164 54.5477 38.7849 54.333 39.0989C54.1182 39.4128 53.8122 39.658 53.4537 39.8034C53.0952 39.9488 52.7002 39.9879 52.3187 39.9157C51.9372 39.8436 51.5864 39.6634 51.3106 39.3981C51.0348 39.1327 50.8463 38.794 50.7691 38.4249C50.6919 38.0557 50.7294 37.6727 50.8769 37.3242C51.0243 36.9757 51.275 36.6774 51.5974 36.467C51.9198 36.2566 52.2993 36.1436 52.688 36.1422C52.9463 36.1404 53.2024 36.1881 53.4416 36.2827C53.6808 36.3772 53.8984 36.5167 54.0817 36.6931C54.265 36.8694 54.4105 37.0792 54.5098 37.3104C54.6091 37.5415 54.6602 37.7894 54.6602 38.0397V38.0397Z" fill="#E0E0E0"/>
<path d="M53.3004 43.2768H52.09V70.2213H53.3004V43.2768Z" fill="#E0E0E0"/>
<path d="M143.938 113.457H23.6882V117.445H143.938V113.457Z" fill="#E0E0E0"/>
<path d="M143.938 75.6447H23.6882V79.6329H143.938V75.6447Z" fill="#E0E0E0"/>
<path d="M143.938 146.177H48.2308V149.937H143.938V146.177Z" fill="#E0E0E0"/>
<path d="M83.8095 78.8463H79.2242V116.465H83.8095V78.8463Z" fill="#E0E0E0"/>
<path d="M52.8375 113.457H48.2522V149.923H52.8375V113.457Z" fill="#E0E0E0"/>
<path d="M106.8 96.3585L103.952 100.285C103.952 100.285 110.296 101.989 110.296 107.454C110.296 112.919 106.415 113.94 102.193 113.94C97.9711 113.94 93.9127 112.746 94.0836 107.281C94.2545 101.816 99.5446 99.7671 99.5446 99.7671L96.9031 96.3585H106.8Z" fill="#F5F5F5"/>
<path d="M297.951 236.932H170.659V293.823H297.951V236.932Z" fill="#F5F5F5"/>
<path d="M294.917 291.139H173.571V239.927H294.917V291.139ZM174.362 290.373H294.127V240.693H174.362V290.373Z" fill="#E0E0E0"/>
<path d="M329.051 236.932H297.951V293.823H329.051V236.932Z" fill="#E0E0E0"/>
<path d="M173.963 255.776H294.526C294.563 255.769 294.596 255.749 294.619 255.721C294.643 255.693 294.656 255.657 294.656 255.621C294.656 255.585 294.643 255.549 294.619 255.521C294.596 255.493 294.563 255.473 294.526 255.466H173.963C173.926 255.473 173.893 255.493 173.87 255.521C173.846 255.549 173.833 255.585 173.833 255.621C173.833 255.657 173.846 255.693 173.87 255.721C173.893 255.749 173.926 255.769 173.963 255.776V255.776Z" fill="#E0E0E0"/>
<path d="M234.64 255.617C234.974 250.473 234.989 245.314 234.682 240.168C234.682 240.126 234.665 240.086 234.634 240.056C234.604 240.026 234.562 240.01 234.519 240.01C234.475 240.01 234.434 240.026 234.403 240.056C234.372 240.086 234.355 240.126 234.355 240.168C234.049 245.314 234.063 250.473 234.398 255.617C234.398 255.649 234.41 255.678 234.433 255.7C234.456 255.722 234.487 255.735 234.519 255.735C234.551 255.735 234.582 255.722 234.604 255.7C234.627 255.678 234.64 255.649 234.64 255.617Z" fill="#E0E0E0"/>
<path d="M267.085 247.896C267.085 248.212 266.989 248.52 266.808 248.783C266.627 249.045 266.369 249.249 266.068 249.369C265.767 249.49 265.436 249.521 265.117 249.459C264.798 249.397 264.505 249.244 264.275 249.021C264.045 248.797 263.889 248.513 263.827 248.203C263.764 247.893 263.798 247.573 263.923 247.282C264.049 246.99 264.261 246.742 264.532 246.568C264.803 246.393 265.122 246.301 265.448 246.302C265.663 246.302 265.877 246.344 266.076 246.424C266.275 246.504 266.456 246.622 266.608 246.77C266.76 246.918 266.881 247.094 266.963 247.287C267.045 247.48 267.086 247.687 267.085 247.896V247.896Z" fill="#E0E0E0"/>
<path d="M203.817 247.896C203.823 248.214 203.73 248.526 203.551 248.793C203.372 249.059 203.115 249.268 202.813 249.392C202.511 249.515 202.178 249.549 201.856 249.488C201.534 249.426 201.238 249.273 201.007 249.048C200.776 248.823 200.619 248.536 200.557 248.223C200.495 247.911 200.531 247.588 200.661 247.296C200.79 247.004 201.006 246.756 201.282 246.584C201.557 246.412 201.88 246.323 202.208 246.33C202.634 246.337 203.04 246.505 203.34 246.797C203.64 247.089 203.812 247.484 203.817 247.896V247.896Z" fill="#E0E0E0"/>
<path d="M235.886 265.533C235.886 265.848 235.789 266.157 235.608 266.419C235.427 266.681 235.17 266.886 234.869 267.006C234.568 267.126 234.237 267.158 233.917 267.095C233.598 267.033 233.305 266.881 233.075 266.657C232.846 266.434 232.69 266.149 232.627 265.839C232.564 265.53 232.598 265.209 232.723 264.918C232.849 264.627 233.061 264.378 233.332 264.204C233.604 264.03 233.922 263.937 234.248 263.939C234.683 263.941 235.1 264.109 235.406 264.408C235.713 264.707 235.886 265.111 235.886 265.533V265.533Z" fill="#E0E0E0"/>
<path d="M185.875 293.823L179.324 329.544H183.005L195.088 293.823H185.875Z" fill="#E0E0E0"/>
<path d="M288.944 293.823L294.426 329.606H290.738L279.73 293.823H288.944Z" fill="#E0E0E0"/>
<path d="M313.551 293.823L319.759 329.606H316.071L304.337 293.823H313.551Z" fill="#E0E0E0"/>
<path d="M235.779 281.637C235.779 281.953 235.682 282.261 235.501 282.523C235.321 282.785 235.064 282.989 234.763 283.11C234.463 283.23 234.132 283.262 233.813 283.201C233.494 283.139 233.201 282.987 232.971 282.764C232.741 282.541 232.584 282.257 232.521 281.948C232.457 281.639 232.49 281.319 232.614 281.027C232.739 280.736 232.95 280.487 233.22 280.312C233.491 280.137 233.809 280.043 234.134 280.043C234.57 280.043 234.989 280.211 235.297 280.51C235.605 280.809 235.779 281.215 235.779 281.637V281.637Z" fill="#E0E0E0"/>
<path d="M173.963 273.392H294.526C294.563 273.384 294.596 273.365 294.619 273.336C294.643 273.308 294.656 273.273 294.656 273.237C294.656 273.2 294.643 273.165 294.619 273.137C294.596 273.108 294.563 273.089 294.526 273.081H173.963C173.926 273.089 173.893 273.108 173.87 273.137C173.846 273.165 173.833 273.2 173.833 273.237C173.833 273.273 173.846 273.308 173.87 273.336C173.893 273.365 173.926 273.384 173.963 273.392Z" fill="#E0E0E0"/>
<path d="M259.517 217.61L259.476 210.02L220.985 210.216L221.026 217.806L259.517 217.61Z" fill="#E0E0E0"/>
<path d="M264.14 236.767L264.076 224.968L221.179 225.186L221.243 236.985L264.14 236.767Z" fill="#F5F5F5"/>
<path d="M255.893 236.67C255.772 236.67 255.679 234.027 255.679 230.771C255.679 227.514 255.772 224.871 255.893 224.871C256.099 226.831 256.168 228.802 256.099 230.771C256.168 232.739 256.099 234.71 255.893 236.67V236.67Z" fill="#E0E0E0"/>
<path d="M257.694 236.67C257.483 234.711 257.412 232.739 257.48 230.771C257.412 228.802 257.483 226.83 257.694 224.871C257.9 226.831 257.969 228.802 257.901 230.771C257.969 232.739 257.9 234.71 257.694 236.67V236.67Z" fill="#E0E0E0"/>
<path d="M227.712 236.67C227.506 234.71 227.437 232.739 227.505 230.771C227.437 228.802 227.506 226.831 227.712 224.871C227.918 226.831 227.987 228.802 227.918 230.771C227.987 232.739 227.918 234.71 227.712 236.67V236.67Z" fill="#E0E0E0"/>
<path d="M229.513 236.67C229.307 234.71 229.238 232.739 229.307 230.771C229.238 228.802 229.307 226.831 229.513 224.871C229.719 226.831 229.788 228.802 229.72 230.771C229.788 232.739 229.719 234.71 229.513 236.67V236.67Z" fill="#E0E0E0"/>
<path d="M233.443 230.984C233.443 230.867 237.772 230.777 243.112 230.777C248.452 230.777 252.774 230.867 252.774 230.984C252.774 231.102 248.452 231.185 243.112 231.185C237.772 231.185 233.443 231.095 233.443 230.984Z" fill="#E0E0E0"/>
<path d="M280.25 224.898L280.208 217.308L227.279 217.577L227.32 225.167L280.25 224.898Z" fill="#EBEBEB"/>
<path d="M272.696 223.967C272.194 223.975 271.701 223.839 271.279 223.575C270.857 223.311 270.525 222.931 270.326 222.484C270.127 222.038 270.07 221.544 270.161 221.065C270.252 220.586 270.488 220.145 270.838 219.796C271.189 219.448 271.639 219.208 272.13 219.108C272.621 219.007 273.132 219.05 273.598 219.232C274.064 219.413 274.464 219.725 274.747 220.127C275.03 220.529 275.184 221.003 275.188 221.49C275.194 221.812 275.134 222.131 275.011 222.43C274.889 222.729 274.706 223.001 274.475 223.232C274.243 223.462 273.966 223.646 273.661 223.772C273.356 223.898 273.028 223.964 272.696 223.967V223.967Z" fill="#E0E0E0"/>
<path d="M265.804 222.27V220.752H230.367V222.27H265.804Z" fill="#E0E0E0"/>
<path d="M299.296 107.309H238.983V168.236H299.296V107.309Z" fill="#E0E0E0"/>
<path d="M295.217 107.309H234.903V168.236H295.217V107.309Z" fill="#FAFAFA"/>
<path d="M295.231 168.25H234.882V107.288H295.231V168.25ZM234.917 168.215H295.195V107.323H234.917V168.215Z" fill="#E0E0E0"/>
<path d="M287.1 115.499H243.006V160.045H287.1V115.499Z" fill="white"/>
<path d="M243.006 160.342C242.691 160.788 242.326 161.197 241.916 161.563C241.204 162.253 240.229 163.261 239.118 164.323C238.007 165.386 236.982 166.331 236.27 167.001C235.886 167.389 235.459 167.733 234.996 168.029C235.304 167.58 235.667 167.17 236.078 166.807C236.79 166.083 237.772 165.11 238.926 164.047C240.079 162.985 241.062 162.04 241.774 161.37C242.141 160.981 242.554 160.636 243.006 160.342V160.342Z" fill="#E0E0E0"/>
<path d="M287.1 160.232C287.565 160.533 287.99 160.888 288.367 161.288C289.115 161.978 290.119 162.923 291.215 163.999C292.312 165.076 293.287 166.069 293.978 166.759C294.38 167.129 294.736 167.544 295.039 167.994C294.576 167.707 294.15 167.366 293.771 166.98C293.024 166.29 292.02 165.338 290.923 164.255C289.827 163.171 288.851 162.185 288.161 161.46C287.762 161.089 287.406 160.678 287.1 160.232V160.232Z" fill="#E0E0E0"/>
<path d="M286.986 115.616C287.295 115.167 287.658 114.754 288.068 114.388C288.78 113.698 289.763 112.698 290.873 111.628C291.984 110.559 293.009 109.627 293.757 108.958C294.134 108.564 294.563 108.218 295.031 107.93C294.719 108.375 294.356 108.785 293.949 109.151C293.237 109.841 292.248 110.849 291.101 111.911C289.955 112.974 288.965 113.919 288.253 114.588C287.873 114.978 287.448 115.323 286.986 115.616Z" fill="#E0E0E0"/>
<path d="M242.885 115.727C242.423 115.424 242 115.07 241.624 114.671C240.877 113.981 239.873 113.029 238.776 111.952C237.68 110.876 236.711 109.882 236.021 109.192C235.621 108.821 235.265 108.406 234.96 107.957C235.425 108.253 235.848 108.606 236.22 109.006C236.932 109.696 237.972 110.648 239.068 111.725C240.165 112.801 241.14 113.795 241.831 114.526C242.232 114.883 242.586 115.286 242.885 115.727V115.727Z" fill="#E0E0E0"/>
<path d="M286.986 160.08C286.98 160.007 286.98 159.933 286.986 159.859C286.986 159.707 286.986 159.507 286.986 159.238C286.986 158.677 286.986 157.877 286.986 156.837C286.986 154.726 286.986 151.655 286.943 147.757C286.943 139.953 286.893 128.837 286.858 115.534L287.029 115.699H243.055L243.255 115.513C243.255 131.859 243.255 147.156 243.255 160.059L243.084 159.894L274.925 159.977L283.867 160.018H286.238H286.851H287.064H286.224H283.889L274.982 160.059L243.034 160.142H242.87V160.08C242.87 147.177 242.87 131.88 242.87 115.534V115.34H243.07H287.043H287.214V115.506C287.178 128.858 287.15 140.008 287.128 147.833C287.128 151.717 287.093 154.774 287.086 156.878C287.086 157.907 287.086 158.7 287.086 159.245C287.086 159.507 287.086 159.707 287.086 159.852C287.086 159.997 286.986 160.08 286.986 160.08Z" fill="#E0E0E0"/>
<path d="M272.418 130.638H257.701V144.9H272.418V130.638Z" fill="#EBEBEB"/>
<path d="M164.394 71.3184C160.424 73.7717 155.802 75.0498 151.093 74.9961C149.605 74.9076 148.112 74.8915 146.622 74.9478C145.122 75.0078 143.684 75.549 142.535 76.4865C141.971 76.9643 141.569 77.5959 141.381 78.2988C141.193 79.0017 141.228 79.7432 141.481 80.4264C142.322 82.2894 145.041 83.0277 145.454 85.0218C145.753 86.457 144.65 87.8232 143.404 88.6581C142.158 89.493 140.705 90.0381 139.659 91.1007C139.027 91.7368 138.581 92.5239 138.366 93.3817C138.15 94.2395 138.174 95.1373 138.434 95.9835C138.694 96.8296 139.181 97.5937 139.845 98.1978C140.509 98.8019 141.327 99.2244 142.215 99.4221C143.276 99.6636 144.579 99.6705 145.155 100.568C145.461 101.249 145.517 102.011 145.312 102.727C145.032 104.265 145.243 105.849 145.917 107.267C146.264 107.97 146.805 108.565 147.48 108.988C148.155 109.411 148.937 109.644 149.741 109.662C150.367 109.662 150.98 109.455 151.606 109.469C151.919 109.45 152.23 109.524 152.498 109.68C152.766 109.837 152.979 110.068 153.108 110.345C153.175 110.758 153.155 111.181 153.051 111.587C152.824 113.622 154.917 115.216 156.946 115.796C160.997 116.969 165.49 115.837 168.936 113.422C172.382 111.007 174.739 107.433 176.341 103.638C177.943 99.843 178.805 95.8134 179.659 91.7976" fill="#263238"/>
<path d="M209.648 172.811C209.194 171.723 208.513 170.739 207.648 169.919C202.286 164.399 194.162 161.743 186.352 162.178C178.541 162.612 171.058 165.904 164.992 170.672C161.752 173.218 157.38 178.124 156.241 182.015C160.997 183.126 168.103 181.58 172.617 179.683C177.131 177.785 181.546 175.495 186.409 175.012C192.048 174.453 197.587 176.392 203.141 177.489C204.251 177.751 205.398 177.84 206.537 177.751C207.106 177.702 207.658 177.536 208.156 177.265C208.655 176.993 209.088 176.623 209.428 176.178C209.726 175.67 209.901 175.102 209.94 174.519C209.978 173.935 209.878 173.351 209.648 172.811V172.811Z" fill="#FF725E"/>
<g opacity="0.3">
<path opacity="0.3" d="M209.648 172.811C209.194 171.723 208.513 170.739 207.648 169.919C202.286 164.399 194.162 161.743 186.352 162.178C178.541 162.612 171.058 165.904 164.992 170.672C161.752 173.218 157.38 178.124 156.241 182.015C160.997 183.126 168.103 181.58 172.617 179.683C177.131 177.785 181.546 175.495 186.409 175.012C192.048 174.453 197.587 176.392 203.141 177.489C204.251 177.751 205.398 177.84 206.537 177.751C207.106 177.702 207.658 177.536 208.156 177.265C208.655 176.993 209.088 176.623 209.428 176.178C209.726 175.67 209.901 175.102 209.94 174.519C209.978 173.935 209.878 173.351 209.648 172.811V172.811Z" fill="black"/>
</g>
<path d="M205.768 238.637L219.346 230.115C219.346 230.115 232.874 240.624 235.515 239.285L219.396 213.21L197.673 225.63L205.768 238.637Z" fill="#FF725E"/>
<path d="M213.187 222.718C213.109 222.421 213.148 222.107 213.295 221.835C213.442 221.564 213.688 221.355 213.984 221.248C214.288 221.163 214.615 221.194 214.896 221.335C215.177 221.476 215.391 221.717 215.494 222.008C215.573 222.322 215.53 222.654 215.372 222.939C215.215 223.224 214.954 223.443 214.639 223.553C214.313 223.611 213.977 223.544 213.701 223.366C213.425 223.189 213.23 222.914 213.158 222.601" fill="#E0E0E0"/>
<g opacity="0.6">
<path opacity="0.6" d="M219.396 213.21L217.26 214.549L233.536 239.044C233.536 239.044 234.775 239.906 235.537 239.285L219.396 213.21Z" fill="white"/>
</g>
<path d="M219.46 230.612C219.588 230.536 219.253 229.86 219.289 228.99C219.324 228.121 219.673 227.465 219.552 227.376C219.431 227.286 218.783 227.921 218.762 228.977C218.741 230.032 219.36 230.715 219.46 230.612Z" fill="#263238"/>
<path d="M222.322 232.675C222.465 232.633 222.322 231.985 222.635 231.191C222.949 230.398 223.44 229.97 223.347 229.846C223.255 229.722 222.472 230.074 222.13 231.019C221.788 231.964 222.194 232.744 222.322 232.675Z" fill="#263238"/>
<path d="M226.665 232.268C226.615 232.137 225.853 232.344 225.334 233.089C224.814 233.834 224.899 234.593 225.042 234.586C225.184 234.579 225.341 233.986 225.754 233.379C226.167 232.772 226.729 232.406 226.665 232.268Z" fill="#263238"/>
<path d="M216.142 232.226C216.234 232.102 215.686 231.619 215.295 230.846C214.903 230.074 214.789 229.397 214.632 229.397C214.476 229.397 214.348 230.205 214.825 231.088C215.302 231.971 216.078 232.351 216.142 232.226Z" fill="#263238"/>
<path opacity="0.3" d="M207.911 219.758L214.084 233.406L212.012 234.828L204.892 221.518L207.911 219.758Z" fill="black"/>
<path d="M199.823 166.207C199.267 166.207 181.005 165.814 171.143 172.127L163.311 176.392L163.518 184.051C163.518 184.051 161.845 186.755 162.215 188.377C162.585 189.998 162.165 196.85 162.165 196.85C162.165 196.85 159.239 197.03 158.869 201.901C158.869 201.901 154.81 203.522 153.03 206.407C151.25 209.291 133.009 241.742 131.898 246.972C130.787 252.202 130.033 261.393 134.127 264.456C138.221 267.52 147.384 266.437 147.384 266.437C147.384 266.437 148.687 270.225 156.69 270.404C164.693 270.584 176.96 261.572 176.96 261.572L213.799 237.236L205.056 219.151L192.19 226.775L205.953 211.271C205.953 211.271 212.283 200.818 210.417 189.819C209.043 181.656 199.823 166.207 199.823 166.207Z" fill="#263238"/>
<path d="M202.977 171.81H202.543H201.304C200.222 171.81 198.669 171.81 196.747 171.81C194.825 171.81 192.532 171.9 190.012 172.162C187.276 172.415 184.578 172.962 181.966 173.79C176.405 175.612 171.934 178.503 168.751 180.566L165.006 183.078L163.988 183.768C163.875 183.855 163.751 183.927 163.618 183.982C163.618 183.982 163.717 183.878 163.938 183.706L164.921 182.974C165.782 182.339 167.057 181.436 168.602 180.359C171.756 178.241 176.227 175.295 181.845 173.459C184.483 172.621 187.211 172.077 189.976 171.838C192.227 171.636 194.487 171.546 196.747 171.569C198.669 171.569 200.229 171.638 201.304 171.693L202.543 171.762C202.689 171.759 202.835 171.775 202.977 171.81Z" fill="#455A64"/>
<path d="M165.39 177.44C165.099 177.724 164.899 178.084 164.814 178.475C164.777 178.677 164.793 178.884 164.861 179.078C164.928 179.272 165.044 179.447 165.198 179.586C165.387 179.754 165.619 179.87 165.869 179.921C166.12 179.972 166.38 179.956 166.622 179.876C166.855 179.773 167.054 179.61 167.199 179.406C167.345 179.202 167.431 178.964 167.448 178.717C167.462 178.512 167.424 178.307 167.335 178.12C167.247 177.933 167.112 177.771 166.943 177.647C166.602 177.417 166.197 177.292 165.782 177.289C165.782 177.289 165.889 177.199 166.131 177.185C166.473 177.166 166.811 177.258 167.092 177.447C167.316 177.582 167.5 177.772 167.625 177.997C167.75 178.222 167.812 178.475 167.804 178.731C167.81 179.053 167.715 179.37 167.53 179.639C167.346 179.907 167.081 180.115 166.772 180.234C166.462 180.353 166.123 180.378 165.799 180.306C165.474 180.233 165.18 180.066 164.956 179.828C164.773 179.65 164.64 179.43 164.568 179.189C164.496 178.948 164.487 178.693 164.543 178.448C164.618 178.124 164.798 177.831 165.056 177.613C165.255 177.447 165.383 177.42 165.39 177.44Z" fill="#455A64"/>
<path d="M171.948 178.372C171.912 178.406 171.656 178.22 171.293 177.861C170.763 177.413 170.392 176.815 170.232 176.151C170.073 175.488 170.132 174.792 170.403 174.163C170.567 173.68 170.716 173.404 170.759 173.418C170.802 173.432 170.759 173.742 170.659 174.225C170.509 174.829 170.487 175.455 170.595 176.067C170.78 176.662 171.085 177.216 171.492 177.696C171.791 178.089 171.983 178.337 171.948 178.372Z" fill="#455A64"/>
<path d="M173.493 177.454C173.493 177.489 173.208 177.337 172.874 176.999C172.444 176.542 172.125 175.997 171.941 175.405C171.655 174.583 171.642 173.695 171.905 172.866C172.033 172.866 171.905 174.011 172.297 175.301C172.605 176.063 173.006 176.786 173.493 177.454V177.454Z" fill="#455A64"/>
<path d="M193.208 171.81C193.151 171.81 193.13 171.486 193.08 170.975C193.026 170.325 192.874 169.686 192.632 169.078C192.365 168.481 191.988 167.936 191.521 167.47C191.165 167.097 190.937 166.863 190.973 166.821C191.008 166.78 191.293 166.946 191.685 167.284C192.236 167.731 192.67 168.299 192.952 168.94C193.217 169.584 193.343 170.275 193.322 170.968C193.353 171.254 193.314 171.542 193.208 171.81V171.81Z" fill="#455A64"/>
<path d="M195.601 171.81C195.544 171.81 195.536 171.486 195.544 170.982C195.584 170.343 195.529 169.701 195.38 169.078C195.141 168.479 194.83 167.909 194.454 167.38C194.176 166.952 194.027 166.69 194.07 166.642C194.112 166.594 194.34 166.842 194.668 167.235C195.126 167.75 195.487 168.338 195.736 168.974C195.907 169.638 195.929 170.33 195.8 171.003C195.729 171.472 195.65 171.81 195.601 171.81Z" fill="#455A64"/>
<path d="M164.109 250.18C164.185 249.899 164.297 249.627 164.444 249.373C164.693 248.855 165.077 248.103 165.583 247.144C166.594 245.219 168.082 242.452 169.947 239.044C173.678 232.226 178.89 222.836 184.693 212.492L188.965 204.937C190.263 202.598 191.27 200.117 191.962 197.547C193.139 193.179 193.381 188.623 192.674 184.161C192.208 181.155 191.325 178.223 190.047 175.446C189.598 174.46 189.207 173.714 188.936 173.211L188.623 172.638C188.586 172.574 188.555 172.507 188.53 172.438C188.579 172.496 188.622 172.558 188.659 172.624L189 173.176C189.292 173.666 189.712 174.404 190.182 175.384C193.509 182.344 194.236 190.208 192.24 197.63C191.548 200.231 190.537 202.742 189.228 205.109C187.861 207.545 186.444 210.071 184.999 212.658L170.168 239.161L165.697 247.206L164.493 249.401L164.194 249.98C164.172 250.049 164.143 250.116 164.109 250.18V250.18Z" fill="#455A64"/>
<path d="M205.198 226.831C205.073 226.933 204.94 227.025 204.8 227.107L203.618 227.797L199.253 230.46C195.572 232.668 190.503 235.739 184.956 239.216C179.41 242.694 174.44 245.888 170.88 248.221L166.608 250.981L165.433 251.712C165.301 251.804 165.16 251.885 165.013 251.954C165.127 251.841 165.254 251.741 165.391 251.657L166.523 250.863L170.723 248.014C174.283 245.633 179.267 242.376 184.785 238.892C190.303 235.407 195.43 232.371 199.146 230.225C201.005 229.149 202.521 228.293 203.568 227.714L204.786 227.024C204.917 226.949 205.056 226.884 205.198 226.831Z" fill="#455A64"/>
<path d="M210.958 239.085C210.821 238.867 210.706 238.636 210.617 238.395L209.727 236.435C208.958 234.786 207.861 232.523 206.629 230.032C205.398 227.541 204.33 225.354 203.49 223.643L202.557 221.697C202.429 221.465 202.328 221.22 202.258 220.966C202.431 221.177 202.574 221.409 202.685 221.656C202.941 222.104 203.297 222.746 203.725 223.553C204.579 225.161 205.739 227.403 206.964 229.901C208.189 232.399 209.257 234.676 209.969 236.36C210.325 237.194 210.588 237.884 210.752 238.367C210.846 238.599 210.916 238.84 210.958 239.085V239.085Z" fill="#455A64"/>
<path d="M164.109 250.18C164.045 250.104 170.339 244.708 178.178 238.126C186.017 231.543 192.418 226.272 192.489 226.348C192.56 226.424 186.259 231.84 178.42 238.395C170.581 244.95 164.18 250.256 164.109 250.18Z" fill="#455A64"/>
<path d="M156.305 262.828C156.881 262.348 157.39 261.798 157.822 261.193C158.584 260.047 159.517 258.364 160.57 256.535C161.624 254.707 162.514 253.002 163.169 251.781C163.487 251.104 163.859 250.451 164.28 249.828C164.052 250.542 163.759 251.235 163.404 251.898C162.806 253.154 161.937 254.865 160.898 256.728C159.858 258.591 158.876 260.22 158.05 261.358C157.719 261.81 157.32 262.213 156.868 262.552C156.701 262.679 156.51 262.773 156.305 262.828V262.828Z" fill="#455A64"/>
<path d="M162.977 264.781C162.92 264.781 163.326 264.001 163.774 262.711C164.334 261.017 164.72 259.275 164.928 257.508C165.182 255.75 165.182 253.967 164.928 252.209C164.844 251.683 164.683 251.172 164.451 250.691C164.33 250.533 164.225 250.365 164.137 250.187C164.137 250.187 164.322 250.304 164.572 250.622C164.868 251.096 165.075 251.617 165.184 252.161C165.528 253.938 165.576 255.757 165.326 257.549C165.121 259.344 164.691 261.107 164.045 262.8C163.846 263.311 163.608 263.807 163.333 264.284C163.119 264.615 162.998 264.794 162.977 264.781Z" fill="#455A64"/>
<path d="M155.266 254.3C155.721 254.099 156.199 253.951 156.69 253.858C157.812 253.563 158.91 253.185 159.972 252.726C162.443 251.608 164.059 250.07 164.144 250.18C163.835 250.561 163.465 250.891 163.048 251.16C162.147 251.911 161.143 252.538 160.065 253.023C158.984 253.496 157.852 253.85 156.69 254.079C156.228 254.214 155.749 254.289 155.266 254.3V254.3Z" fill="#455A64"/>
<path d="M164.686 204.164C164.659 204.216 164.625 204.265 164.586 204.309L164.273 204.716C163.995 205.075 163.596 205.606 163.119 206.31C161.778 208.316 160.647 210.447 159.744 212.672C158.437 215.982 157.351 219.37 156.49 222.815C155.43 226.686 154.354 230.998 152.567 235.304C150.78 239.609 148.459 243.432 146.992 247.172C145.614 250.451 144.863 253.947 144.778 257.487C144.778 258.841 144.935 260.191 145.248 261.51C145.499 262.505 145.839 263.478 146.266 264.415C146.538 265.009 146.845 265.587 147.185 266.147C147.284 266.326 147.37 266.471 147.441 266.588C147.472 266.639 147.498 266.692 147.519 266.747C147.475 266.706 147.437 266.66 147.405 266.609L147.121 266.188C146.754 265.639 146.423 265.067 146.131 264.477C145.678 263.539 145.316 262.561 145.049 261.558C144.711 260.223 144.532 258.855 144.515 257.48C144.552 253.905 145.276 250.367 146.651 247.048C148.11 243.273 150.367 239.416 152.197 235.159C154.027 230.902 155.045 226.589 156.127 222.739C157.01 219.285 158.127 215.892 159.474 212.582C160.401 210.353 161.573 208.227 162.97 206.241C163.468 205.551 163.888 205.02 164.187 204.682L164.529 204.295C164.636 204.24 164.678 204.157 164.686 204.164Z" fill="#455A64"/>
<path d="M165.896 182.388C165.792 182.676 165.669 182.957 165.526 183.23C165.185 183.988 164.946 184.786 164.814 185.603C164.655 186.816 164.698 188.046 164.942 189.246C165.163 190.626 165.754 192.006 166.152 193.621C166.354 194.401 166.424 195.207 166.359 196.008C166.297 196.746 166.176 197.477 165.996 198.196C165.694 199.403 165.326 200.594 164.892 201.763C164.529 202.763 164.18 203.557 163.981 204.109C163.882 204.4 163.751 204.68 163.589 204.944C163.647 204.642 163.732 204.347 163.845 204.061C164.059 203.433 164.322 202.632 164.643 201.68C164.963 200.728 165.355 199.479 165.661 198.12C166.069 196.679 166.113 195.164 165.789 193.704C165.405 192.165 164.807 190.709 164.607 189.302C164.369 188.067 164.35 186.802 164.55 185.562C164.702 184.73 164.983 183.925 165.383 183.174C165.486 182.969 165.603 182.771 165.732 182.581C165.818 182.45 165.896 182.381 165.896 182.388Z" fill="#455A64"/>
<path d="M166.75 203.15C167.542 202.294 168.152 201.295 168.544 200.21C168.94 199.03 169.128 197.794 169.1 196.553C169.044 195.026 168.848 193.507 168.516 192.013C168.17 190.507 167.906 188.985 167.726 187.452C167.612 186.188 167.638 184.916 167.804 183.657C167.906 182.808 168.117 181.973 168.431 181.173C168.514 180.957 168.614 180.747 168.73 180.545C168.815 180.407 168.858 180.338 168.872 180.338C168.886 180.338 168.751 180.656 168.566 181.222C168.309 182.026 168.14 182.854 168.06 183.692C167.939 184.931 167.939 186.179 168.06 187.418C168.196 188.798 168.552 190.337 168.872 191.944C169.211 193.46 169.399 195.003 169.434 196.553C169.449 197.828 169.227 199.095 168.779 200.293C168.48 201.105 168.032 201.858 167.455 202.515C167.296 202.689 167.124 202.853 166.942 203.005C166.829 203.108 166.757 203.157 166.75 203.15Z" fill="#455A64"/>
<path d="M184.807 197.713C184.525 197.79 184.237 197.841 183.945 197.864C183.39 197.933 182.585 198.058 181.603 198.223C179.035 198.655 176.507 199.282 174.041 200.1C171.578 200.928 169.186 201.941 166.886 203.129C166.003 203.591 165.298 203.971 164.814 204.247C164.572 204.407 164.311 204.539 164.038 204.64C164.255 204.445 164.494 204.274 164.75 204.13C165.212 203.819 165.903 203.398 166.772 202.908C171.336 200.373 176.353 198.697 181.56 197.968C182.557 197.837 183.368 197.754 183.931 197.726C184.221 197.687 184.515 197.682 184.807 197.713Z" fill="#455A64"/>
<path d="M185.967 190.185C185.967 190.254 184.914 190.24 183.255 190.488C182.29 190.637 181.338 190.854 180.407 191.137C178.107 191.837 175.956 192.93 174.056 194.366C173.28 194.953 172.549 195.594 171.87 196.284C170.716 197.464 170.132 198.313 170.075 198.272C170.168 198.049 170.292 197.839 170.446 197.651C170.816 197.108 171.227 196.594 171.677 196.112C172.329 195.385 173.044 194.713 173.813 194.104C174.773 193.369 175.797 192.718 176.875 192.158C177.967 191.616 179.106 191.168 180.278 190.82C181.235 190.546 182.214 190.352 183.205 190.24C183.873 190.154 184.546 190.117 185.22 190.13C185.47 190.12 185.721 190.138 185.967 190.185V190.185Z" fill="#455A64"/>
<path d="M187.555 205.972C187.302 206.099 187.034 206.199 186.758 206.269C186.231 206.434 185.483 206.683 184.55 207C182.14 207.835 179.779 208.8 177.48 209.891C175.188 210.99 172.963 212.216 170.816 213.562C169.99 214.079 169.328 214.507 168.872 214.811C168.652 214.98 168.413 215.126 168.16 215.245C168.353 215.04 168.571 214.857 168.808 214.7C169.235 214.362 169.876 213.9 170.688 213.32C172.804 211.899 175.027 210.633 177.338 209.532C179.638 208.431 182.018 207.493 184.458 206.724C185.398 206.441 186.167 206.227 186.701 206.103C186.979 206.025 187.266 205.981 187.555 205.972V205.972Z" fill="#455A64"/>
<path d="M210.04 187.915C209.794 187.865 209.556 187.789 209.328 187.687C208.887 187.521 208.239 187.287 207.399 186.997C205.084 186.262 202.698 185.756 200.279 185.486L200.457 185.327C200.542 188.301 200.521 191.827 200.25 195.587C199.994 199.251 199.493 202.896 198.748 206.496V206.42C199.406 208.509 200.198 210.555 201.119 212.548C201.453 213.238 201.759 213.803 201.966 214.176C202.089 214.355 202.201 214.542 202.301 214.735C202.145 214.576 202.007 214.403 201.888 214.217C201.545 213.704 201.234 213.172 200.955 212.624C199.973 210.646 199.138 208.603 198.456 206.51V206.476V206.434C199.151 202.84 199.627 199.209 199.88 195.56C200.15 191.813 200.186 188.301 200.143 185.334V185.155H200.328C202.757 185.448 205.144 185.998 207.448 186.797C208.281 187.094 208.915 187.363 209.349 187.549C209.591 187.65 209.822 187.773 210.04 187.915Z" fill="#455A64"/>
<path d="M210.581 190.909C210.072 190.818 209.571 190.684 209.086 190.509C208.174 190.247 206.9 189.902 205.483 189.584C202.635 188.936 200.314 188.522 200.328 188.418C200.849 188.399 201.371 188.443 201.88 188.549C202.834 188.681 204.137 188.901 205.569 189.239C208.438 189.86 210.631 190.813 210.581 190.909Z" fill="#455A64"/>
<path d="M207.192 180.29C207.192 180.338 206.323 180.097 204.935 179.78C203.126 179.37 201.289 179.086 199.438 178.931C197.586 178.791 195.726 178.767 193.87 178.862C193.099 178.932 192.324 178.959 191.549 178.945C191.745 178.87 191.952 178.823 192.162 178.807C192.56 178.745 193.137 178.669 193.849 178.607C195.717 178.439 197.597 178.428 199.467 178.572C201.338 178.724 203.19 179.045 204.999 179.531C205.711 179.724 206.245 179.897 206.615 180.042C206.82 180.094 207.015 180.178 207.192 180.29V180.29Z" fill="#455A64"/>
<path d="M192.674 183.402C192.369 183.525 192.052 183.62 191.727 183.685C191.115 183.844 190.218 184.037 189.093 184.23C186.168 184.726 183.19 184.869 180.229 184.658C178.513 184.492 176.797 184.313 175.458 183.499C174.827 183.117 174.314 182.578 173.97 181.939C173.686 181.364 173.601 180.716 173.728 180.09C173.872 179.224 174.138 178.381 174.518 177.585C174.638 177.284 174.809 177.004 175.024 176.757C175.024 176.757 174.881 177.068 174.654 177.634C174.333 178.436 174.108 179.272 173.984 180.125C173.894 180.693 173.988 181.274 174.255 181.787C174.592 182.364 175.084 182.841 175.679 183.167C176.925 183.913 178.598 184.092 180.3 184.251C183.237 184.457 186.188 184.349 189.1 183.926C190.218 183.775 191.122 183.616 191.742 183.499C192.049 183.44 192.361 183.407 192.674 183.402Z" fill="#455A64"/>
<path d="M190.859 59.7264C187.455 52.578 179.032 53.9856 175.003 55.8831C170.952 57.7361 167.772 61.0007 166.095 65.0256C164.914 67.7856 163.959 70.932 161.581 72.6156C160.488 73.2449 159.359 73.8139 158.199 74.3199C157.604 74.5998 157.081 75.0064 156.671 75.5094C156.26 76.0124 155.972 76.5988 155.828 77.2248C155.472 79.6053 157.964 81.2544 160.015 82.2135C158.783 83.0277 158.463 84.87 158.897 86.3535C159.423 87.7711 160.253 89.0646 161.332 90.1485C164.964 94.0349 169.119 97.4302 173.685 100.243C177.573 102.589 180.093 102.865 184.266 101.182C185.96 100.492 187.541 99.3738 189.349 99.1737C191.45 98.946 193.458 99.9879 195.537 100.409C197.616 100.83 200.236 100.25 200.912 98.1318C201.08 97.2876 201.175 96.4314 201.197 95.5719C201.304 94.7232 201.738 93.7986 202.528 93.6054C203.169 93.4467 203.81 93.8262 204.437 94.0263C205.939 94.5093 208.203 105.315 209.641 104.659C209.641 104.659 211.735 86.3466 207.705 75.6309C206.416 72.1809 203.668 64.9221 201.475 62.0862C198.456 58.1946 191.222 59.0571 190.859 59.7471" fill="#263238"/>
<path d="M186.544 60.9132C181.183 59.0985 173.949 63.0867 172.304 68.3514C170.474 74.1957 168.488 81.4062 168.139 86.0016C167.427 95.2407 174.212 97.98 174.212 97.98L171.457 112.422L194.689 105.142L202.799 71.1114L203.554 68.2548L186.544 60.9132Z" fill="#FFBE9D"/>
<path d="M172.304 75.4722C172.382 75.6723 173.486 75.3825 174.696 75.8448C175.907 76.3071 176.562 77.2248 176.747 77.142C176.932 77.0592 176.804 76.797 176.526 76.3761C176.145 75.8226 175.595 75.3982 174.953 75.1617C174.324 74.9141 173.63 74.8706 172.973 75.0375C172.496 75.21 172.304 75.3825 172.304 75.4722Z" fill="#263238"/>
<path d="M184.33 78.5427C184.472 78.7014 185.433 78.108 186.729 78.1977C188.025 78.2874 188.936 78.9774 189.093 78.8325C189.249 78.6876 189.036 78.4806 188.637 78.1425C188.101 77.7318 187.447 77.4909 186.765 77.4525C186.087 77.4054 185.412 77.5673 184.835 77.9148C184.408 78.1977 184.265 78.4668 184.33 78.5427Z" fill="#263238"/>
<path d="M178.933 83.7108C178.314 83.3545 177.652 83.0763 176.961 82.8828C176.647 82.7724 176.355 82.6413 176.355 82.4136C176.404 82.084 176.559 81.7776 176.797 81.5373L178.328 79.3638C180.464 76.2657 182.123 73.6851 181.994 73.6023C181.866 73.5195 180.015 75.9621 177.858 79.0602C177.338 79.833 176.84 80.5575 176.363 81.2613C176.063 81.5918 175.897 82.0154 175.893 82.455C175.914 82.5757 175.963 82.6903 176.035 82.7905C176.108 82.8908 176.203 82.9741 176.313 83.0346C176.483 83.1183 176.662 83.1854 176.847 83.2347C177.518 83.4789 178.219 83.6389 178.933 83.7108V83.7108Z" fill="#263238"/>
<path d="M174.219 97.98C178.631 99.0562 183.262 98.944 187.612 97.6557C187.612 97.6557 183.105 103.217 173.785 100.236L174.219 97.98Z" fill="#EB996E"/>
<path d="M178.242 87.837C178.121 87.6852 178.299 88.0233 178.242 87.837V87.837Z" fill="#EB996E"/>
<path d="M182.379 87.2367C182.239 86.9525 182.041 86.6993 181.796 86.4927C181.551 86.2861 181.265 86.1307 180.955 86.0361C180.536 85.8905 180.085 85.8502 179.646 85.919C179.206 85.9878 178.792 86.1634 178.441 86.4294C178.298 86.6277 178.204 86.8552 178.165 87.0945C178.127 87.3338 178.146 87.5784 178.221 87.8094C178.669 88.3683 178.712 88.8375 179.339 89.1894C179.79 89.3336 180.268 89.3811 180.74 89.3287C181.212 89.2763 181.667 89.1252 182.073 88.8858C182.292 88.6744 182.439 88.4029 182.494 88.1079C182.548 87.813 182.508 87.5089 182.379 87.2367V87.2367Z" fill="#EB996E"/>
<path d="M182.464 85.4082C182.258 85.353 181.93 86.6847 180.528 87.3609C179.125 88.0371 177.68 87.561 177.63 87.7473C177.63 87.8232 177.893 88.0785 178.513 88.2372C179.315 88.4323 180.162 88.3467 180.905 87.9957C181.621 87.6561 182.173 87.0597 182.443 86.3328C182.635 85.7877 182.557 85.422 182.464 85.4082Z" fill="#263238"/>
<path d="M186.95 72.036C186.879 72.3879 187.94 72.726 189.015 73.5126C190.09 74.2992 190.823 75.1065 191.151 74.8926C191.293 74.796 191.286 74.4303 191.072 73.9404C190.784 73.3319 190.334 72.8081 189.769 72.4224C189.221 72.0288 188.57 71.79 187.89 71.7324C187.327 71.76 186.986 71.8704 186.95 72.036Z" fill="#263238"/>
<path d="M173.087 70.7457C173.365 71.0079 174.34 70.6146 175.536 70.4904C176.733 70.3662 177.779 70.4904 177.986 70.1592C178.071 70.0005 177.886 69.7314 177.409 69.4692C176.769 69.1909 176.061 69.0929 175.366 69.1863C174.671 69.2568 174.012 69.5177 173.465 69.9384C173.066 70.311 172.959 70.6146 173.087 70.7457Z" fill="#263238"/>
<path d="M204.864 68.2341C204.464 67.5433 203.837 67.0018 203.084 66.6954C198.462 64.2372 193.676 62.0797 188.758 60.237L186.736 61.3479C186.471 63.2567 186.796 65.1988 187.671 66.9283C188.545 68.6579 189.93 70.0969 191.649 71.0631C193.03 71.8083 194.824 72.5121 195.002 74.037C195.18 75.5619 193.479 76.6935 192.518 77.9769C191.93 78.7781 191.601 79.7302 191.571 80.7128C191.542 81.6955 191.815 82.6644 192.354 83.4969C192.973 84.4284 193.913 85.1322 194.49 86.0913C194.847 86.7422 195.05 87.4623 195.083 88.1989C195.116 88.9355 194.979 89.67 194.682 90.3486C194.105 91.7286 193.144 93.5433 191.834 94.3092C193.603 94.6945 195.451 94.5352 197.122 93.8537C198.793 93.1721 200.202 92.0023 201.154 90.5073C202.236 88.7271 202.322 86.5674 202.464 84.5043C202.791 79.8115 203.561 75.1576 204.764 70.6008C205.067 69.8445 205.102 69.0119 204.864 68.2341V68.2341Z" fill="#263238"/>
<path d="M189.079 60.4509C187.833 62.0479 186.336 63.445 184.643 64.5909C182.891 65.6466 180.656 66.1434 178.74 65.3982C179.217 64.8876 179.702 64.377 180.164 63.8595C176.756 66.1213 172.898 67.6678 168.836 68.3997C171.385 65.3982 174.013 62.3346 177.494 60.3957C180.976 58.4568 185.54 57.8634 188.936 59.9265" fill="#263238"/>
<path d="M205.334 77.901L194.483 86.0706C195.729 87.3885 195.245 90.7419 194.02 92.0736C192.795 93.4053 191.172 94.5438 190.695 96.2688C190.168 98.1525 191.201 100.105 191.229 102.058C191.272 104.818 189.357 107.191 187.876 109.551C186.395 111.911 185.327 115.071 186.978 117.328C188.837 119.867 193.045 119.501 195.587 117.604C198.128 115.706 199.581 112.774 201.468 110.262C203.354 107.75 206.302 105.825 209.499 106.122C210.49 96.5269 209.061 86.842 205.334 77.901V77.901Z" fill="#263238"/>
<path d="M207.149 100.678C207.085 100.561 207.726 100.112 208.822 99.2565C210.37 98.0983 211.75 96.7428 212.924 95.2269C213.699 94.1938 214.315 93.0573 214.753 91.8528C215.259 90.5016 215.477 89.0651 215.394 87.63C215.281 86.0661 214.77 84.5537 213.906 83.2278C212.942 81.7755 211.719 80.5001 210.296 79.4604C207.377 77.2593 203.888 76.0104 200.841 74.6925C198.004 73.6307 195.327 72.2058 192.881 70.4559C191.211 69.2485 189.83 67.7071 188.829 65.9364C188.167 64.6599 188.061 63.8664 188.16 63.8664C188.26 63.8664 188.637 64.5081 189.442 65.5983C190.605 67.1135 192.031 68.421 193.657 69.4623C196.115 70.9759 198.746 72.21 201.496 73.14C203.048 73.7403 204.707 74.3613 206.402 75.1203C208.198 75.9036 209.897 76.8828 211.464 78.039C213.061 79.2144 214.424 80.6617 215.487 82.3101C216.483 83.8931 217.049 85.6949 217.132 87.5472C217.179 89.2012 216.868 90.8465 216.22 92.3772C215.673 93.6896 214.919 94.9117 213.984 95.9997C212.654 97.5369 211.054 98.8335 209.257 99.8292C207.968 100.533 207.192 100.775 207.149 100.678Z" fill="#263238"/>
<path d="M207.356 75.9C207.03 75.8346 206.712 75.7351 206.409 75.6033C205.811 75.3894 204.985 75.0651 203.895 74.6373C201.117 73.5702 198.507 72.1302 196.142 70.3593C193.766 68.5507 191.979 66.1167 190.994 63.3489C190.707 62.5121 190.537 61.6419 190.488 60.7614C190.476 60.5316 190.476 60.3013 190.488 60.0714C190.477 59.989 190.477 59.9055 190.488 59.823C190.598 60.9944 190.837 62.151 191.2 63.273C192.248 65.9511 194.025 68.3044 196.341 70.0833C198.687 71.8283 201.248 73.2817 203.967 74.4096L206.43 75.4722C206.752 75.5868 207.061 75.73 207.356 75.9V75.9Z" fill="#455A64"/>
<path d="M207.698 86.3466C207.655 86.3466 207.876 85.9326 207.99 85.1598C208.116 84.0545 207.916 82.937 207.413 81.9375C206.677 80.4498 205.54 79.1817 204.123 78.2667C202.564 77.1696 200.627 76.3002 198.691 75.1755C196.86 74.1208 195.22 72.783 193.835 71.2149C192.701 69.9354 191.743 68.5182 190.987 66.999C190.483 65.9795 190.085 64.9139 189.798 63.8181C189.684 63.4317 189.641 63.1281 189.599 62.9211C189.565 62.8185 189.551 62.7111 189.556 62.6037C189.704 62.9899 189.83 63.3838 189.933 63.7836C190.273 64.8517 190.704 65.8903 191.222 66.8886C191.988 68.3792 192.945 69.7702 194.07 71.0286C195.441 72.5608 197.056 73.87 198.855 74.9064C200.763 76.0104 202.714 76.9005 204.294 78.0321C205.747 78.9906 206.9 80.3178 207.626 81.8685C208.124 82.9135 208.29 84.0784 208.103 85.215C208.048 85.5193 207.955 85.8159 207.826 86.0982C207.762 86.25 207.712 86.3535 207.698 86.3466Z" fill="#455A64"/>
<path d="M147.697 79.35C147.697 79.35 147.697 79.3086 147.761 79.2396C147.833 79.1334 147.911 79.032 147.996 78.936C148.323 78.5573 148.738 78.2593 149.207 78.0666C149.962 77.8102 150.756 77.6773 151.556 77.6733C152.475 77.625 153.529 77.556 154.689 77.556C155.944 77.5777 157.198 77.4643 158.427 77.2179C159.814 76.8724 161.099 76.2179 162.179 75.3066C163.37 74.2827 164.401 73.0975 165.241 71.7876C166.134 70.3677 166.95 68.9028 167.683 67.3992C168.432 65.8852 169.288 64.4234 170.246 63.0246C171.152 61.7101 172.289 60.5608 173.607 59.6298C175.877 58.0955 178.565 57.2457 181.332 57.1872C183.183 57.1248 185.026 57.4398 186.743 58.1118L187.541 58.4499L188.089 58.7535C188.246 58.8312 188.396 58.9212 188.538 59.0226C188.372 58.9696 188.212 58.9002 188.061 58.8156L187.491 58.5465L186.694 58.2429C184.982 57.6321 183.161 57.3599 181.339 57.4425C178.636 57.5376 176.019 58.3909 173.806 59.8989C172.526 60.8132 171.422 61.939 170.545 63.2247C169.606 64.6041 168.766 66.0451 168.032 67.5372C167.29 69.053 166.465 70.5294 165.561 71.9601C164.699 73.2944 163.638 74.4987 162.414 75.5343C161.29 76.4729 159.953 77.1419 158.513 77.487C157.259 77.7279 155.981 77.8297 154.703 77.7906C153.543 77.7906 152.503 77.7906 151.578 77.8527C150.798 77.838 150.021 77.9476 149.278 78.177C148.818 78.3459 148.403 78.615 148.068 78.9636C147.952 79.0996 147.829 79.2286 147.697 79.35V79.35Z" fill="#455A64"/>
<path d="M143.34 70.0419C139.068 59.5884 133.372 49.3419 132.589 41.5518L124.08 41.883C124.258 44.8983 125.376 69.9936 131.407 79.9158C137.437 89.838 157.573 113.036 157.573 113.036L164.657 95.3787C164.657 95.3787 147.619 80.5023 143.34 70.0419Z" fill="#FFBE9D"/>
<path d="M129.157 25.323H125.433C125.433 25.323 125.796 27.4482 127.484 27.5655C129.171 27.6828 128.843 27.3102 128.843 27.3102L128.466 27.6483L126.145 28.0899C126.145 28.0899 126.259 29.8425 127.79 30.1185L130.047 28.0899L129.157 25.323Z" fill="#FFBE9D"/>
<path d="M139.353 25.0056C139.011 27.7242 138.975 27.5586 138.975 27.5586L135.572 30.2772L134.703 26.2752C134.647 26.01 134.502 25.7702 134.291 25.593C134.08 25.4158 133.814 25.3112 133.536 25.2954L131.991 25.1988C131.991 25.1988 132.589 23.1288 130.645 23.3013C130.645 23.3013 129.577 23.0184 128.715 26.4822C127.776 30.2703 123.731 39.1713 124.08 42.1452L132.71 42.4833C132.617 39.7233 134.967 36.777 136.127 35.5074C136.478 35.1294 136.723 34.6711 136.839 34.1757C136.999 33.4952 137.332 32.8642 137.808 32.3403C138.876 31.1949 141.118 29.1318 141.118 29.1318V22.8321C141.118 22.8321 139.68 22.3836 139.353 25.0056ZM132.432 31.0914L130.659 31.8711L130.958 30.1185L132.432 29.9805V31.0914Z" fill="#FFBE9D"/>
<path d="M130.567 32.0574C130.566 31.809 130.594 31.5612 130.652 31.3191C130.737 30.843 130.858 30.1668 131.022 29.325L131.62 26.3856C131.761 25.8206 131.858 25.2464 131.912 24.6675C131.912 24.1086 131.699 23.4669 131.079 23.4324C130.46 23.3979 130.004 23.805 129.705 24.2949C129.563 24.5494 129.448 24.8177 129.363 25.0953L129.086 25.9164L128.16 28.773C127.882 29.5872 127.626 30.2358 127.448 30.6774C127.367 30.9226 127.249 31.1551 127.099 31.3674C127.14 31.1297 127.212 30.8979 127.313 30.6774C127.462 30.222 127.683 29.5665 127.925 28.7523C128.167 27.9381 128.459 26.9307 128.772 25.8681C128.865 25.5921 128.95 25.3161 129.043 25.0332C129.13 24.731 129.251 24.4394 129.406 24.1638C129.578 23.8727 129.805 23.6153 130.075 23.4048C130.226 23.2901 130.398 23.2059 130.583 23.1573C130.768 23.1087 130.961 23.0966 131.15 23.1219C131.341 23.1518 131.524 23.2149 131.692 23.3082C131.852 23.4171 131.984 23.5613 132.076 23.7291C132.231 24.038 132.305 24.3795 132.29 24.7227C132.231 25.321 132.124 25.9139 131.969 26.496L131.257 29.4285C131.065 30.2565 130.901 30.9327 130.773 31.395C130.734 31.6236 130.665 31.8462 130.567 32.0574V32.0574Z" fill="#EB996E"/>
<path d="M132.332 31.1121C132.246 30.4393 132.21 29.7613 132.226 29.0835C132.226 28.8075 132.183 28.5453 132.161 28.3038C132.173 28.1221 132.114 27.9427 131.998 27.8001C131.756 27.6276 131.464 27.6276 131.478 27.5655C131.492 27.5034 131.542 27.5172 131.656 27.5034C131.828 27.48 132.003 27.5115 132.154 27.5931C132.261 27.6763 132.347 27.7813 132.406 27.9007C132.465 28.0201 132.496 28.1507 132.496 28.2831C132.549 28.5495 132.583 28.8193 132.596 29.0904C132.695 29.775 132.604 30.4729 132.332 31.1121V31.1121Z" fill="#EB996E"/>
<path d="M136.562 29.5734C136.562 29.5734 136.327 29.877 135.85 30.2634C135.247 30.781 134.577 31.2195 133.856 31.5675C133.105 31.8831 132.302 32.0677 131.485 32.1126C131.153 32.1753 130.813 32.1753 130.481 32.1126C130.789 31.9855 131.116 31.9086 131.449 31.8849C132.224 31.7718 132.98 31.5631 133.699 31.2639C134.408 30.9315 135.084 30.5389 135.721 30.0909C136.206 29.7321 136.526 29.532 136.562 29.5734Z" fill="#EB996E"/>
<path d="M204.223 107.944C204.223 107.944 213.806 107.668 219.545 106.012C225.284 104.356 247.313 99.2772 247.313 99.2772L282.664 93.564L283.376 102.424C283.376 102.424 250.531 111.732 244.152 113.85C237.772 115.968 208.616 125.663 203.105 124.435L199.688 117.624L204.223 107.944Z" fill="#FFBE9D"/>
<path d="M299.659 83.145C299.083 83.0208 296.22 84.2835 296.22 84.2835C296.493 83.963 296.647 83.563 296.657 83.1477C296.668 82.7323 296.534 82.3257 296.277 81.9927L292.347 83.8626C291.308 84.8836 290.212 85.8487 289.065 86.7537C287.257 88.3678 285.59 90.1241 284.081 92.0046L281.731 94.1229L283.191 102.506C284.219 102.59 285.253 102.458 286.224 102.12C287.441 101.575 289.221 99.36 289.221 99.36L292.575 99.084C292.965 99.0565 293.338 98.9145 293.643 98.6769C293.945 98.3913 294.177 98.0431 294.322 97.6584C294.466 97.2737 294.519 96.8624 294.476 96.4551C296.612 95.2821 295.366 93.7917 295.366 93.7917C296.041 93.7114 296.657 93.3829 297.089 92.874C297.272 92.5984 297.36 92.2737 297.341 91.9464C297.322 91.6192 297.196 91.3063 296.982 91.0524C296.583 90.3624 293.508 90.5763 293.508 90.5763L293.344 89.7C293.344 89.7 298.043 86.0844 299.097 85.2978C300.151 84.5112 300.2 83.2623 299.659 83.145Z" fill="#FFBE9D"/>
<path d="M296.277 84.18C295.939 84.8339 295.452 85.4049 294.853 85.8498C294.244 86.3545 293.671 86.8986 293.138 87.4782C292.545 88.2234 292.116 89.0781 291.877 89.9898C291.63 90.9439 291.277 91.8693 290.824 92.7498C290.435 93.4538 289.957 94.1076 289.4 94.6956C289.023 95.0873 288.611 95.4452 288.168 95.7651C288.013 95.8921 287.838 95.9925 287.648 96.0618C287.605 96.0135 288.317 95.5374 289.207 94.5231C289.721 93.9322 290.163 93.2863 290.525 92.598C290.95 91.7393 291.288 90.8427 291.536 89.9208C291.785 88.9636 292.244 88.0694 292.881 87.2988C293.438 86.7165 294.043 86.1789 294.69 85.6911C295.25 85.219 295.78 84.7143 296.277 84.18V84.18Z" fill="#EB996E"/>
<path d="M294.547 96.4344C294.069 96.7485 293.54 96.9818 292.981 97.1244C292.377 97.3212 291.751 97.4464 291.116 97.497C290.739 97.5245 290.36 97.5245 289.984 97.497C289.553 97.468 289.138 97.33 288.78 97.0968C288.594 96.9685 288.443 96.7987 288.339 96.6017C288.235 96.4048 288.181 96.1865 288.182 95.9652C288.262 95.5682 288.484 95.2113 288.809 94.9578C289.069 94.7171 289.387 94.5439 289.734 94.4541C290.048 94.3713 290.332 94.3092 290.596 94.2609C291.154 94.0974 291.737 94.032 292.319 94.0677C292.319 94.1091 291.678 94.2333 290.653 94.5024L289.827 94.737C289.53 94.825 289.261 94.984 289.044 95.1993C288.795 95.4035 288.621 95.679 288.545 95.9859C288.547 96.1484 288.589 96.308 288.668 96.4511C288.748 96.5941 288.862 96.7163 289.001 96.807C289.644 97.1315 290.374 97.2613 291.094 97.1796C291.706 97.1451 292.312 97.0479 292.903 96.8898C293.921 96.6345 294.526 96.3792 294.547 96.4344Z" fill="#EB996E"/>
<path d="M295.48 93.7917C295.108 93.9932 294.695 94.1134 294.27 94.1436C293.816 94.2188 293.356 94.2511 292.895 94.2402C292.593 94.2612 292.29 94.2177 292.007 94.1128C291.724 94.0079 291.468 93.8441 291.258 93.633C291.078 93.3846 290.975 93.0911 290.962 92.7876C290.95 92.4841 291.028 92.1835 291.187 91.9218C291.427 91.5115 291.793 91.1836 292.233 90.9834C292.606 90.7732 293.027 90.657 293.458 90.6453C293.458 90.7005 293.009 90.8385 292.361 91.2042C291.993 91.4088 291.692 91.7102 291.493 92.0736C291.373 92.2783 291.314 92.5112 291.323 92.7463C291.332 92.9815 291.408 93.2096 291.543 93.4053C291.723 93.5748 291.938 93.7069 292.173 93.7935C292.408 93.8801 292.658 93.9194 292.91 93.909C293.353 93.9374 293.798 93.9374 294.241 93.909C294.65 93.8399 295.065 93.8007 295.48 93.7917V93.7917Z" fill="#EB996E"/>
<path d="M293.159 98.9667C292.848 99.1173 292.514 99.2175 292.169 99.2634C291.359 99.4819 290.518 99.5797 289.677 99.5532C289.534 99.5596 289.392 99.5351 289.26 99.4814C289.128 99.4276 289.011 99.3461 288.915 99.2427C288.761 99.0445 288.683 98.8006 288.695 98.5527C288.711 98.3503 288.773 98.1539 288.876 97.9774C288.979 97.8009 289.122 97.6486 289.293 97.5315C289.919 97.1658 290.375 97.3935 290.347 97.4211C290.025 97.4541 289.717 97.5631 289.449 97.7385C289.325 97.8411 289.224 97.9677 289.153 98.1103C289.082 98.2529 289.042 98.4082 289.036 98.5665C289.033 98.7376 289.088 98.9051 289.193 99.0426C289.257 99.1083 289.336 99.1587 289.424 99.1898C289.512 99.2209 289.606 99.2319 289.699 99.222C290.51 99.2397 291.321 99.1796 292.119 99.0426C292.458 98.9533 292.811 98.9275 293.159 98.9667V98.9667Z" fill="#EB996E"/>
<path d="M187.968 137.358C187.763 137.511 187.538 137.637 187.299 137.731C186.668 138.016 186.013 138.247 185.341 138.421C183.102 139.055 180.741 139.168 178.448 138.752C176.159 138.334 174.007 137.387 172.176 135.992C171.626 135.576 171.113 135.114 170.645 134.612C170.463 134.434 170.305 134.235 170.175 134.019C170.232 133.97 170.93 134.792 172.311 135.799C174.146 137.11 176.26 138.008 178.498 138.428C180.737 138.835 183.041 138.762 185.248 138.214C186.95 137.793 187.925 137.31 187.968 137.358Z" fill="#FF725E"/>
<path d="M171.784 111.842C171.784 111.842 194.312 104.859 195.152 104.638C195.992 104.418 215.864 106.136 215.864 106.136C215.864 106.136 215.024 118.894 220.008 123.027L205.391 128.133L200.784 140.422C200.784 140.422 198.214 145.431 200.257 150.13C204.123 159.024 210.83 173.059 209.841 174.667C209.734 174.832 209.129 169.837 199.595 167.187C196.704 166.393 191.457 166.38 186.708 167.311C166.273 171.299 158.385 180.421 156.092 182.015C156.092 182.015 160.3 150.02 158.313 145.024C156.327 140.029 154.219 136.744 155.857 132.321C157.495 127.898 159.951 120.75 159.951 120.75L151.898 111.918L163.148 93.7917L173.443 102.072L171.784 111.842Z" fill="#FF725E"/>
<path d="M179.274 141.485C179.017 141.517 178.756 141.517 178.498 141.485C177.792 141.457 177.089 141.369 176.398 141.222C174.098 140.738 171.977 139.658 170.26 138.097C168.55 136.525 167.346 134.507 166.793 132.287C166.629 131.607 166.534 130.914 166.508 130.217C166.486 129.968 166.5 129.717 166.551 129.472C166.663 130.386 166.829 131.294 167.049 132.19C167.66 134.332 168.858 136.273 170.517 137.807C172.194 139.321 174.239 140.398 176.462 140.939C178.171 141.45 179.274 141.45 179.274 141.485Z" fill="#263238"/>
<path d="M158.121 114.437C158.998 115.522 159.541 116.825 159.687 118.197C159.954 119.552 159.826 120.952 159.317 122.24C159.456 120.914 159.456 119.578 159.317 118.252C159.052 116.944 158.651 115.666 158.121 114.437V114.437Z" fill="#263238"/>
<path d="M205.932 118.218C205.932 118.273 205.469 118.583 204.785 119.225C203.901 120.055 203.188 121.041 202.685 122.13C202.186 123.217 201.915 124.39 201.888 125.58C201.888 126.498 201.98 127.064 201.888 127.077C201.685 126.603 201.586 126.093 201.596 125.58C201.543 124.34 201.786 123.105 202.308 121.971C202.824 120.836 203.595 119.827 204.565 119.018C204.96 118.665 205.425 118.392 205.932 118.218V118.218Z" fill="#263238"/>
<g opacity="0.3">
<path opacity="0.3" d="M175.928 141.008C173.755 140.59 171.778 139.507 170.289 137.917C169.278 136.976 168.451 135.866 167.847 134.64C167.334 136.806 170.446 140.65 173.479 142.064C175.016 142.759 176.699 143.096 178.395 143.051C180.091 143.005 181.752 142.578 183.247 141.802C180.786 141.777 178.334 141.511 175.928 141.008V141.008Z" fill="black"/>
</g>
<path d="M203.518 156.865C203.518 156.906 202.927 156.471 201.759 155.961C200.098 155.266 198.308 154.904 196.498 154.898C193.806 154.882 191.139 155.406 188.666 156.437C185.665 157.747 182.804 159.337 180.122 161.184C175.177 164.506 169.904 167.342 164.379 169.65C162.243 170.527 160.506 171.155 159.289 171.562C158.683 171.776 158.206 171.92 157.865 172.017C157.704 172.078 157.537 172.122 157.366 172.148C157.517 172.065 157.677 171.998 157.843 171.948L159.225 171.431C160.428 170.982 162.158 170.327 164.258 169.416C169.743 167.052 174.987 164.197 179.922 160.887C182.624 159.023 185.513 157.428 188.545 156.126C191.064 155.096 193.778 154.591 196.512 154.643C198.352 154.672 200.165 155.079 201.831 155.837C202.435 156.11 203.002 156.456 203.518 156.865V156.865Z" fill="white"/>
<path d="M199.445 145.424C199.018 145.056 198.566 144.715 198.093 144.403C196.764 143.614 195.255 143.154 193.7 143.065C191.389 142.958 189.084 143.369 186.964 144.265C184.357 145.362 181.812 146.592 179.339 147.95C176.842 149.294 174.268 150.497 171.628 151.552C169.453 152.396 167.183 152.985 164.864 153.304C163.302 153.516 161.719 153.541 160.15 153.38C159.724 153.335 159.301 153.268 158.883 153.18C158.734 153.159 158.588 153.122 158.448 153.07C158.448 153.035 159.061 153.152 160.164 153.242C161.721 153.345 163.285 153.283 164.828 153.056C167.116 152.701 169.354 152.095 171.499 151.248C174.117 150.185 176.675 148.987 179.161 147.66C181.647 146.299 184.21 145.071 186.836 143.982C189.008 143.087 191.365 142.694 193.721 142.837C195.311 142.95 196.844 143.458 198.171 144.314C198.659 144.61 199.09 144.986 199.445 145.424V145.424Z" fill="white"/>
<path d="M169.37 136.73C169.37 136.73 169.221 136.875 168.915 137.089C168.73 137.223 168.534 137.342 168.331 137.448C168.072 137.602 167.803 137.74 167.526 137.862C166.807 138.19 166.056 138.446 165.284 138.628C164.336 138.846 163.367 138.966 162.393 138.987C161.417 138.985 160.443 138.886 159.488 138.69C158.711 138.534 157.953 138.303 157.224 138C156.944 137.886 156.67 137.757 156.405 137.614C156.198 137.515 156.001 137.399 155.814 137.269C155.501 137.068 155.337 136.944 155.351 136.924C155.365 136.903 156.063 137.303 157.323 137.765C158.047 138.03 158.793 138.235 159.552 138.379C160.491 138.546 161.445 138.627 162.4 138.621C163.346 138.6 164.288 138.491 165.212 138.297C165.97 138.13 166.711 137.9 167.427 137.607C168.644 137.131 169.328 136.675 169.37 136.73Z" fill="white"/>
<path d="M202.842 134.999C202.76 135.088 202.667 135.167 202.564 135.233C202.282 135.439 201.981 135.622 201.667 135.778C200.507 136.363 199.239 136.717 197.936 136.82C196.009 136.967 194.071 136.795 192.204 136.31C190.068 135.813 187.854 135.005 185.469 134.35C181.379 133.248 177.097 132.98 172.895 133.563C171.62 133.739 170.357 133.99 169.114 134.315C168.238 134.543 167.754 134.688 167.747 134.66C167.74 134.633 167.854 134.598 168.082 134.516C168.31 134.433 168.637 134.309 169.079 134.184C170.313 133.805 171.574 133.514 172.852 133.315C177.092 132.649 181.432 132.884 185.569 134.005C187.975 134.695 190.197 135.482 192.283 135.985C194.114 136.479 196.017 136.675 197.915 136.565C199.191 136.485 200.442 136.176 201.603 135.654C202.422 135.275 202.82 134.964 202.842 134.999Z" fill="white"/>
<path d="M202.251 124.642C202.102 124.68 201.949 124.704 201.795 124.711C201.496 124.711 201.083 124.793 200.478 124.835C198.859 124.873 197.24 124.76 195.643 124.497C193.621 124.179 191.258 123.6 188.652 122.917C185.858 122.114 183 121.537 180.108 121.192C179.347 121.131 178.585 121.108 177.822 121.123C177.445 121.123 177.074 121.123 176.704 121.157L175.615 121.281C174.228 121.472 172.865 121.803 171.549 122.268C169.015 123.137 166.8 124.138 164.857 124.773C163.335 125.314 161.744 125.653 160.129 125.78C159.691 125.818 159.25 125.818 158.812 125.78C158.656 125.784 158.501 125.77 158.349 125.739C158.503 125.727 158.658 125.727 158.812 125.739C159.247 125.741 159.682 125.715 160.115 125.663C161.709 125.484 163.273 125.11 164.771 124.552C166.686 123.896 168.879 122.875 171.435 121.978C172.769 121.497 174.151 121.153 175.558 120.95L176.676 120.819C177.053 120.819 177.43 120.819 177.815 120.819C178.589 120.804 179.364 120.827 180.136 120.888C183.054 121.236 185.936 121.825 188.751 122.648C191.35 123.338 193.693 123.958 195.7 124.303C197.279 124.588 198.88 124.736 200.485 124.745L201.795 124.697C201.944 124.661 202.097 124.643 202.251 124.642Z" fill="white"/>
<path d="M209.328 106.129C209.392 106.163 208.666 107.171 207.982 108.999C207.087 111.385 206.842 113.954 207.27 116.458C207.735 118.954 208.842 121.297 210.489 123.269C211.756 124.78 212.774 125.511 212.724 125.566C212.468 125.428 212.229 125.261 212.012 125.069C211.392 124.572 210.817 124.022 210.296 123.427C208.554 121.46 207.384 119.078 206.907 116.527C206.466 113.973 206.747 111.35 207.719 108.937C208.013 108.218 208.373 107.525 208.794 106.867C208.941 106.602 209.121 106.354 209.328 106.129V106.129Z" fill="white"/>
<path d="M171.77 108.33C171.571 108.41 171.359 108.457 171.143 108.468C170.561 108.562 169.974 108.624 169.385 108.654C168.504 108.709 167.619 108.642 166.757 108.454C165.673 108.215 164.684 107.676 163.909 106.902C163.084 106.115 162.485 105.259 161.823 104.549C161.275 103.915 160.626 103.37 159.901 102.934C159.22 102.555 158.456 102.338 157.672 102.299C157.88 102.228 158.102 102.205 158.32 102.23C158.92 102.263 159.505 102.429 160.029 102.713C160.806 103.132 161.501 103.681 162.08 104.335C162.742 105.025 163.375 105.894 164.166 106.646C164.888 107.369 165.802 107.885 166.807 108.137C167.637 108.33 168.489 108.419 169.342 108.399C170.88 108.33 171.77 108.24 171.77 108.33Z" fill="white"/>
<path d="M170.339 318.449C170.239 318.449 170.154 311.218 170.154 302.296C170.154 293.374 170.239 286.143 170.339 286.143C170.439 286.143 170.524 293.374 170.524 302.296C170.524 311.218 170.446 318.449 170.339 318.449Z" fill="#263238"/>
<path d="M173.493 310.148C173.386 310.148 173.308 302.917 173.308 293.995C173.308 285.073 173.386 277.842 173.493 277.842C173.6 277.842 173.678 285.073 173.678 293.995C173.678 302.917 173.593 310.148 173.493 310.148Z" fill="#263238"/>
<path d="M320.628 329.22C320.628 329.316 256.761 329.399 178.007 329.399C99.2528 329.399 35.3722 329.316 35.3722 329.22C35.3722 329.123 99.2243 329.04 178.007 329.04C256.79 329.04 320.628 329.13 320.628 329.22Z" fill="#263238"/>
</svg>
