<svg width="446" height="426" viewBox="0 0 446 426" fill="none" xmlns="http://www.w3.org/2000/svg">
<path d="M373.115 28.1331H367.219V150.361H373.115V28.1331Z" fill="#E0E0E0"/>
<path d="M366.228 29.0703H281.747C281.698 29.0703 281.658 29.1084 281.658 29.1555V149.339C281.658 149.386 281.698 149.424 281.747 149.424H366.228C366.278 149.424 366.318 149.386 366.318 149.339V29.1555C366.318 29.1084 366.278 29.0703 366.228 29.0703Z" fill="#F5F5F5"/>
<path d="M367.219 150.37H280.766C280.743 150.368 280.721 150.358 280.705 150.342C280.689 150.327 280.679 150.306 280.677 150.284V28.2183C280.679 28.1963 280.689 28.1757 280.705 28.1601C280.721 28.1446 280.743 28.135 280.766 28.1331H367.219C367.242 28.135 367.263 28.1446 367.279 28.1601C367.296 28.1757 367.306 28.1963 367.308 28.2183V150.284C367.306 150.306 367.296 150.327 367.279 150.342C367.263 150.358 367.242 150.368 367.219 150.37ZM282.764 148.495H365.292C365.315 148.493 365.336 148.484 365.353 148.468C365.369 148.452 365.379 148.432 365.381 148.41V30.0927C365.379 30.0707 365.369 30.0501 365.353 30.0346C365.336 30.019 365.315 30.0094 365.292 30.0075H282.764C282.741 30.0094 282.72 30.019 282.703 30.0346C282.687 30.0501 282.677 30.0707 282.675 30.0927V148.41C282.677 148.432 282.687 148.452 282.703 148.468C282.72 148.484 282.741 148.493 282.764 148.495V148.495Z" fill="#EBEBEB"/>
<path d="M357.861 36.4997H290.275C290.225 36.4997 290.185 36.5378 290.185 36.5849V141.841C290.185 141.888 290.225 141.926 290.275 141.926H357.861C357.911 141.926 357.951 141.888 357.951 141.841V36.5849C357.951 36.5378 357.911 36.4997 357.861 36.4997Z" fill="white"/>
<path d="M342.956 66.3878H305.019C304.99 66.3878 304.966 66.4107 304.966 66.4389V108.928C304.966 108.956 304.99 108.979 305.019 108.979H342.956C342.986 108.979 343.01 108.956 343.01 108.928V66.4389C343.01 66.4107 342.986 66.3878 342.956 66.3878Z" fill="#EBEBEB"/>
<path d="M340.004 103.765C340.057 103.901 338.175 104.694 334.598 104.293C332.405 104.017 330.32 103.22 328.532 101.976C326.101 100.247 324.421 97.7236 323.814 94.8873C323.459 93.1141 323.603 91.283 324.23 89.58C324.856 87.877 325.944 86.3629 327.382 85.1915C328.198 84.54 329.124 84.0244 330.12 83.6664C331.214 83.2797 332.388 83.1482 333.545 83.283C334.814 83.4043 336.009 83.9053 336.962 84.7144C337.499 85.1934 337.903 85.7917 338.14 86.4561C338.377 87.1205 338.438 87.8304 338.318 88.5228C338.056 89.7717 337.399 90.9137 336.436 91.7945C335.597 92.5891 334.645 93.2661 333.608 93.8052C331.507 94.9188 329.166 95.5571 326.766 95.6711C324.23 95.8036 321.705 95.2546 319.479 94.0864C317.183 92.8627 315.321 91.0152 314.127 88.7784C312.89 86.4874 312.548 83.8503 313.163 81.3404C313.77 78.9156 315.216 76.7572 317.266 75.2146C318.293 74.4592 319.462 73.8982 320.71 73.5617C321.973 73.237 323.298 73.1962 324.581 73.4424C325.937 73.6907 327.171 74.3548 328.095 75.3338C328.981 76.3382 329.47 77.6075 329.478 78.9208C329.495 80.1114 329.187 81.2857 328.586 82.3288C328.021 83.2748 327.284 84.1172 326.409 84.8166C324.846 86.0773 323.023 87.0092 321.057 87.5515C319.22 88.0639 317.291 88.2061 315.393 87.969C313.622 87.7387 311.931 87.1206 310.452 86.1628C309.181 85.3623 308.103 84.3122 307.291 83.0825C306.479 81.8527 305.951 80.4717 305.742 79.0315C305.496 76.8522 306.134 74.6658 307.526 72.9227C308.343 71.83 309.46 70.9748 310.755 70.4519C311.647 70.1366 312.146 70.1452 312.173 70.2218C312.2 70.2985 311.772 70.5286 311.049 70.9886C310.026 71.6554 309.167 72.5277 308.534 73.5446C307.553 75.1108 307.189 76.9596 307.508 78.7589C307.76 79.9206 308.263 81.0194 308.984 81.9848C309.706 82.9502 310.631 83.7609 311.7 84.365C312.976 85.0808 314.397 85.5258 315.869 85.6699C317.34 85.814 318.827 85.6537 320.228 85.2C321.822 84.7096 323.295 83.9122 324.554 82.857C325.165 82.3919 325.663 81.8047 326.011 81.1364C326.359 80.4682 326.55 79.7352 326.57 78.9889C326.567 78.3042 326.3 77.6446 325.819 77.1367C325.338 76.6288 324.678 76.3084 323.965 76.237C323.14 76.0985 322.292 76.1392 321.486 76.3562C320.634 76.6049 319.838 77.0037 319.14 77.532C317.66 78.6806 316.622 80.2659 316.187 82.0391C315.744 83.8643 316.001 85.7805 316.91 87.4408C317.824 89.1521 319.249 90.5663 321.004 91.5048C322.722 92.4123 324.671 92.8459 326.632 92.7573C328.57 92.68 330.463 92.1848 332.172 91.3088C332.98 90.9154 333.725 90.4133 334.384 89.8178C334.926 89.3679 335.317 88.7751 335.508 88.1138C335.563 87.8619 335.55 87.6007 335.471 87.3547C335.391 87.1088 335.247 86.8862 335.053 86.708C334.543 86.2737 333.904 86.0026 333.224 85.9327C332.5 85.8316 331.761 85.8929 331.066 86.1116C330.339 86.3496 329.661 86.704 329.059 87.1596C327.914 88.0317 327.029 89.1749 326.49 90.4753C325.952 91.7757 325.78 93.1881 325.99 94.572C326.401 96.9631 327.688 99.1371 329.621 100.706C331.134 101.907 332.917 102.758 334.83 103.194C338.068 103.859 339.977 103.509 340.004 103.765Z" fill="#E0E0E0"/>
<path d="M189.247 22.0498H50.9688V259.306H189.247V22.0498Z" fill="#EBEBEB"/>
<path d="M182.298 28.9254H56.4993V252.235H182.298V28.9254Z" fill="#FAFAFA"/>
<path d="M195.089 261.445L189.247 259.306V18.0283H195.089V261.445Z" fill="#E0E0E0"/>
<path d="M185.028 93.1663H56.4993V95.5433H185.028V93.1663Z" fill="#E0E0E0"/>
<path d="M185.028 146.348H56.4993V148.725H185.028V146.348Z" fill="#E0E0E0"/>
<path d="M185.028 199.53H56.4993V201.907H185.028V199.53Z" fill="#E0E0E0"/>
<path d="M116.219 94.359L116.219 258.573H122.579L122.579 94.359H116.219Z" fill="#E0E0E0"/>
<path d="M83.5982 28.9254H80.717V94.3505H83.5982V28.9254Z" fill="#E0E0E0"/>
<path d="M108.431 28.9254H105.55V94.3505H108.431V28.9254Z" fill="#E0E0E0"/>
<path d="M133.265 28.9254H130.384V94.3505H133.265V28.9254Z" fill="#E0E0E0"/>
<path d="M158.098 28.9254H155.217V94.3505H158.098V28.9254Z" fill="#E0E0E0"/>
<path d="M50.9687 18.0198H45.1172V260.772H50.9687V18.0198Z" fill="#E0E0E0"/>
<path d="M195.089 15.5746H45.1172V22.0498H195.089V15.5746Z" fill="#E0E0E0"/>
<path d="M199.05 262.246H40.9695V268.278H199.05V262.246Z" fill="#E0E0E0"/>
<path d="M189.247 259.306L199.05 262.246H40.9695L50.9688 259.306H189.247Z" fill="#E0E0E0"/>
<path d="M143.032 132.248C142.916 132.188 145.547 127.51 148.892 121.811C152.237 116.111 155.056 111.535 155.136 111.586C155.217 111.638 152.63 116.324 149.276 122.024C145.922 127.723 143.148 132.307 143.032 132.248Z" fill="#E0E0E0"/>
<path d="M96.1397 182.728C96.0237 182.669 98.6462 178 102 172.3C105.354 166.6 108.155 162.025 108.244 162.076C108.333 162.127 105.729 166.805 102.375 172.504C99.0208 178.204 96.2467 182.788 96.1397 182.728Z" fill="#E0E0E0"/>
<path d="M126.334 228.617C126.218 228.558 128.849 223.889 132.194 218.189C135.539 212.489 138.349 207.914 138.438 207.965C138.527 208.016 135.923 212.693 132.569 218.402C129.215 224.11 126.441 228.685 126.334 228.617Z" fill="#E0E0E0"/>
<path d="M84.2227 230.134C84.1067 230.074 86.7381 225.405 90.0831 219.705C93.4281 214.005 96.2468 209.43 96.3271 209.481C96.4074 209.532 93.8117 214.21 90.4667 219.91C87.1217 225.61 84.3386 230.193 84.2227 230.134Z" fill="#E0E0E0"/>
<path d="M66.2576 122.168C66.1416 122.109 68.773 117.431 72.118 111.731C75.463 106.031 78.2728 101.456 78.362 101.507C78.4512 101.558 75.8466 106.244 72.5016 111.944C69.1566 117.644 66.3646 122.228 66.2576 122.168Z" fill="#E0E0E0"/>
<path d="M102.205 124.154C102.089 124.094 104.721 119.416 108.066 113.716C111.411 108.017 114.221 103.441 114.31 103.492C114.399 103.544 111.794 108.23 108.449 113.929C105.104 119.629 102.312 124.213 102.205 124.154Z" fill="#E0E0E0"/>
<path d="M90.5022 89.0511C90.3951 88.9915 93.0176 84.3225 96.3716 78.6226C99.7255 72.9227 102.526 68.3475 102.616 68.3986C102.705 68.4497 100.1 73.1272 96.7462 78.8271C93.3923 84.527 90.6181 89.1107 90.5022 89.0511Z" fill="#E0E0E0"/>
<path d="M83.7944 140.58C83.6874 140.52 86.3099 135.851 89.6638 130.152C93.0177 124.452 95.8186 119.876 95.9078 119.928C95.997 119.979 93.4191 124.665 90.092 130.356C86.7648 136.047 83.9104 140.648 83.7944 140.58Z" fill="#E0E0E0"/>
<path d="M145.191 87.8071C145.084 87.7475 147.706 83.0785 151.06 77.3787C154.414 71.6788 157.215 67.1035 157.304 67.1547C157.393 67.2058 154.798 71.8833 151.444 77.5831C148.09 83.283 145.307 87.8668 145.191 87.8071Z" fill="#E0E0E0"/>
<path d="M128.573 145.419C128.457 145.36 131.088 140.691 134.433 134.991C137.778 129.291 140.597 124.716 140.677 124.767C140.758 124.818 138.162 129.495 134.817 135.195C131.472 140.895 128.689 145.479 128.573 145.419Z" fill="#E0E0E0"/>
<path d="M80.1103 183.819C80.0033 183.759 82.6258 179.09 85.9797 173.391C89.3336 167.691 92.1345 163.115 92.2237 163.167C92.3129 163.218 89.7083 167.895 86.3543 173.595C83.0004 179.295 80.2263 183.879 80.1103 183.819Z" fill="#E0E0E0"/>
<path d="M145.191 160.559C145.084 160.5 147.706 155.831 151.06 150.131C154.414 144.431 157.215 139.856 157.304 139.907C157.393 139.958 154.798 144.636 151.444 150.335C148.09 156.035 145.307 160.619 145.191 160.559Z" fill="#E0E0E0"/>
<path d="M153.959 245.376C153.843 245.316 156.474 240.648 159.819 234.948C163.164 229.248 165.974 224.673 166.063 224.724C166.153 224.775 163.548 229.452 160.203 235.152C156.858 240.852 154.066 245.444 153.959 245.376Z" fill="#E0E0E0"/>
<path d="M66.8999 238.671C66.784 238.611 69.4154 233.934 72.7604 228.234C76.1054 222.534 78.9241 217.959 79.0044 218.01C79.0847 218.061 76.4889 222.738 73.1439 228.447C69.7989 234.155 67.0337 238.73 66.8999 238.671Z" fill="#E0E0E0"/>
<path d="M146.912 187.73C146.796 187.67 149.419 183.001 152.773 177.301C156.127 171.601 158.928 167.026 159.017 167.077C159.106 167.128 156.501 171.806 153.147 177.506C149.794 183.206 147.019 187.789 146.912 187.73Z" fill="#E0E0E0"/>
<path d="M133.425 199.496C133.318 199.436 135.941 194.767 139.295 189.067C142.649 183.367 145.449 178.792 145.539 178.843C145.628 178.894 143.023 183.572 139.669 189.272C136.315 194.972 133.541 199.555 133.425 199.496Z" fill="#E0E0E0"/>
<path d="M169.774 117.9C169.658 117.84 172.281 113.171 175.635 107.471C178.989 101.771 181.789 97.1962 181.879 97.2473C181.968 97.2984 179.363 101.976 176.009 107.676C172.655 113.376 169.881 117.959 169.774 117.9Z" fill="#E0E0E0"/>
<path d="M162.344 78.5374C162.228 78.4778 164.851 73.8088 168.204 68.1089C171.558 62.4091 174.359 57.8338 174.448 57.8849C174.538 57.9361 171.933 62.6135 168.579 68.3134C165.225 74.0133 162.478 78.5971 162.344 78.5374Z" fill="#E0E0E0"/>
<path d="M424.066 179.286H360.493V242.581H424.066V179.286Z" fill="#E0E0E0"/>
<path d="M419.748 179.286H356.185V242.581H419.748V179.286Z" fill="#FAFAFA"/>
<path d="M419.775 242.598H356.167V179.269H419.775V242.598ZM356.211 242.598H419.74V179.303H356.211V242.598Z" fill="#E0E0E0"/>
<path d="M411.212 187.798H364.73V234.07H411.212V187.798Z" fill="white"/>
<path d="M364.73 234.377C364.407 234.847 364.023 235.276 363.588 235.655C362.848 236.404 361.804 237.418 360.636 238.517C359.467 239.617 358.388 240.596 357.594 241.286C357.19 241.69 356.741 242.05 356.256 242.36C356.577 241.891 356.961 241.465 357.398 241.09C358.138 240.341 359.182 239.327 360.35 238.228C361.519 237.129 362.607 236.14 363.401 235.442C363.799 235.039 364.245 234.681 364.73 234.377V234.377Z" fill="#E0E0E0"/>
<path d="M411.212 234.3C411.701 234.613 412.147 234.982 412.541 235.399C413.326 236.106 414.387 237.103 415.538 238.219C416.689 239.335 417.715 240.358 418.446 241.116C418.875 241.497 419.249 241.929 419.561 242.403C419.08 242.087 418.637 241.721 418.241 241.312C417.456 240.605 416.394 239.608 415.235 238.483C414.075 237.359 413.049 236.336 412.327 235.578C411.902 235.197 411.528 234.768 411.212 234.3Z" fill="#E0E0E0"/>
<path d="M411.087 187.917C411.416 187.454 411.799 187.028 412.229 186.648C412.969 185.898 414.013 184.884 415.181 183.785C416.35 182.686 417.429 181.706 418.223 181.007C418.622 180.602 419.072 180.244 419.561 179.942C419.239 180.408 418.858 180.834 418.428 181.212C417.679 181.953 416.644 182.976 415.467 184.075C414.289 185.174 413.21 186.162 412.425 186.852C412.026 187.258 411.577 187.615 411.087 187.917Z" fill="#E0E0E0"/>
<path d="M364.605 188.036C364.119 187.72 363.673 187.351 363.276 186.937C362.491 186.23 361.429 185.233 360.279 184.117C359.128 183.001 358.102 181.97 357.371 181.212C356.944 180.833 356.569 180.403 356.256 179.934C356.742 180.243 357.186 180.609 357.576 181.024C358.361 181.732 359.422 182.728 360.582 183.853C361.742 184.978 362.767 186 363.49 186.758C363.917 187.137 364.292 187.567 364.605 188.036V188.036Z" fill="#E0E0E0"/>
<path d="M411.087 234.07C411.077 233.996 411.077 233.922 411.087 233.848C411.087 233.687 411.087 233.474 411.087 233.201C411.087 232.622 411.087 231.787 411.087 230.705C411.087 228.515 411.087 225.32 411.043 221.273C411.043 213.17 410.989 201.617 410.953 187.798L411.132 187.968H364.748L364.953 187.772C364.953 204.753 364.953 220.643 364.953 234.044L364.774 233.874L398.34 233.968L407.769 234.01H410.258H410.302H407.84L398.447 234.053L364.774 234.138H364.605V233.968C364.605 220.566 364.605 204.676 364.605 187.696V187.5H364.819H411.203H411.382V187.67C411.382 201.541 411.31 213.119 411.292 221.256C411.292 225.286 411.292 228.464 411.239 230.628C411.239 231.701 411.239 232.519 411.239 233.099C411.239 233.363 411.239 233.567 411.239 233.721C411.239 233.874 411.087 234.079 411.087 234.07Z" fill="#E0E0E0"/>
<path d="M395.727 203.526H380.215V218.342H395.727V203.526Z" fill="#EBEBEB"/>
<path d="M420.176 409.659C420.176 409.778 331.868 409.88 223.045 409.88C114.221 409.88 25.8679 409.812 25.8679 409.659C25.8679 409.505 114.176 409.437 223.053 409.437C331.931 409.437 420.176 409.531 420.176 409.659Z" fill="#263238"/>
<path d="M48.3374 376.039L54.1711 412.632H88.0492L95.9078 376.567L48.3374 376.039Z" fill="#FF725E"/>
<path d="M91.1715 399.494C91.1715 399.596 82.4923 399.681 71.7883 399.681C61.0843 399.681 52.3962 399.596 52.3962 399.494C52.3962 399.392 61.0754 399.307 71.7883 399.307C82.5012 399.307 91.1715 399.392 91.1715 399.494Z" fill="#FAFAFA"/>
<path d="M91.3051 397.696C91.3051 397.798 82.5635 397.883 71.7882 397.883C61.0128 397.883 52.2712 397.798 52.2712 397.696C52.2712 397.594 61.0039 397.501 71.7882 397.501C82.5725 397.501 91.3051 397.586 91.3051 397.696Z" fill="#FAFAFA"/>
<path d="M91.2339 395.66C91.2339 395.762 82.5012 395.847 71.7169 395.847C60.9326 395.847 52.2 395.762 52.2 395.66C52.2 395.558 60.9416 395.473 71.7169 395.473C82.4923 395.473 91.2339 395.558 91.2339 395.66Z" fill="#FAFAFA"/>
<path d="M58.0604 410.545C57.5871 409.04 57.241 407.502 57.0257 405.944C56.6823 404.412 56.4646 402.856 56.3745 401.292C56.8478 402.8 57.1968 404.341 57.4182 405.901C57.7612 407.43 57.9759 408.983 58.0604 410.545Z" fill="#FAFAFA"/>
<path d="M60.3707 410.161C60.1247 408.673 59.9816 407.17 59.9426 405.663C59.7702 404.166 59.6987 402.661 59.7285 401.156C60.3344 404.12 60.5502 407.146 60.3707 410.161V410.161Z" fill="#FAFAFA"/>
<path d="M64.5631 410.161C64.1057 408.657 63.8069 407.113 63.671 405.552C63.4129 404.003 63.3262 402.432 63.4124 400.866C63.7158 402.399 63.9331 403.946 64.0635 405.501C64.3287 407.043 64.4955 408.6 64.5631 410.161V410.161Z" fill="#FAFAFA"/>
<path d="M67.5156 410.349C66.9943 407.25 66.8864 404.101 67.1944 400.977C67.3761 402.535 67.4595 404.103 67.4442 405.671C67.5672 407.228 67.591 408.79 67.5156 410.349V410.349Z" fill="#FAFAFA"/>
<path d="M72.7337 410.161C72.486 408.691 72.3667 407.203 72.3769 405.714C72.2383 404.232 72.2383 402.74 72.3769 401.258C72.625 402.726 72.7443 404.21 72.7337 405.697C72.8612 407.183 72.8612 408.676 72.7337 410.161V410.161Z" fill="#FAFAFA"/>
<path d="M76.5426 410.349C76.3137 407.287 76.3405 404.213 76.6229 401.156C76.8638 404.217 76.8369 407.292 76.5426 410.349V410.349Z" fill="#FAFAFA"/>
<path d="M80.1194 409.863C80.0838 408.256 80.1823 406.65 80.4137 405.058C80.5108 403.453 80.7375 401.858 81.0917 400.287C81.1331 401.893 81.0377 403.5 80.8062 405.092C80.709 406.697 80.4794 408.292 80.1194 409.863V409.863Z" fill="#FAFAFA"/>
<path d="M84.74 409.386C84.7482 408.005 84.9401 406.631 85.3109 405.296C85.5367 403.937 85.9444 402.612 86.524 401.352C86.3096 402.708 86.0117 404.051 85.632 405.373C85.4126 406.725 85.1148 408.065 84.74 409.386Z" fill="#FAFAFA"/>
<path d="M81.4663 303.815C81.475 303.877 81.475 303.94 81.4663 304.002L81.3058 304.513C81.1452 304.999 80.9311 305.655 80.6635 306.49C80.3959 307.325 80.0213 308.39 79.6645 309.625C79.3077 310.861 78.8438 312.232 78.4424 313.792C78.041 315.351 77.5504 317.046 77.1223 318.904C76.6941 320.761 76.2303 322.712 75.82 324.791C75.0082 328.966 74.2679 333.584 73.7416 338.423C73.2153 343.262 73.0191 347.965 72.9477 352.208C72.9477 354.33 72.9477 356.349 73.0102 358.232C73.0726 360.115 73.1529 361.878 73.251 363.48C73.3491 365.082 73.4829 366.53 73.581 367.8C73.6792 369.069 73.804 370.168 73.9111 371.055C74.0181 371.941 74.0806 372.614 74.1341 373.116C74.1341 373.329 74.1341 373.508 74.1787 373.653C74.1865 373.715 74.1865 373.778 74.1787 373.841C74.1662 373.782 74.1662 373.721 74.1787 373.662C74.1787 373.517 74.1252 373.338 74.0895 373.125L73.7951 371.072C73.6613 370.22 73.5186 369.095 73.4026 367.825C73.2867 366.556 73.0994 365.108 73.0012 363.497C72.9031 361.887 72.7693 360.14 72.7158 358.249C72.6623 356.358 72.6266 354.338 72.6177 352.208C72.6177 347.948 72.8853 343.279 73.3848 338.389C73.8843 333.498 74.6604 328.881 75.4899 324.706C75.9448 322.618 76.3819 320.633 76.8368 318.801C77.2918 316.97 77.7288 315.257 78.2105 313.689C78.6922 312.122 79.1025 310.75 79.4861 309.523C79.8696 308.296 80.2354 307.257 80.5476 306.413C80.8598 305.57 81.0917 304.931 81.2612 304.454L81.4574 303.951C81.4553 303.905 81.4583 303.86 81.4663 303.815V303.815Z" fill="#455A64"/>
<path d="M75.3562 326.478C76.286 323.843 78.1466 321.599 80.619 320.131C81.0044 319.836 81.4601 319.636 81.9456 319.55C82.4311 319.464 82.9315 319.493 83.4021 319.636C84.5884 320.182 84.6865 321.775 84.2941 322.976C83.691 325.029 82.328 326.803 80.4585 327.969C78.8069 329.137 76.7395 329.636 74.7051 329.358" fill="#455A64"/>
<path d="M73.2956 341.78C74.1876 338.627 76.8101 334.112 79.5396 332.178C79.9569 331.848 80.4392 331.602 80.9579 331.454C81.2198 331.383 81.4957 331.375 81.7615 331.43C82.0274 331.485 82.2752 331.601 82.4832 331.769C82.7173 332.064 82.8708 332.41 82.9299 332.776C82.9891 333.142 82.9521 333.516 82.8222 333.865C82.2553 336.164 81.0324 338.268 79.2894 339.943C77.5463 341.619 75.3512 342.8 72.9478 343.356" fill="#455A64"/>
<path d="M72.7249 355.284C74.09 352.269 76.2695 349.655 79.0402 347.71C79.335 347.451 79.6811 347.252 80.058 347.123C80.4348 346.994 80.8349 346.939 81.2346 346.96C82.4388 347.173 83.0186 348.562 82.8758 349.72C82.6528 352.106 80.7529 353.98 78.7815 355.497C76.9753 356.689 75.0143 357.651 72.9479 358.36" fill="#455A64"/>
<path d="M73.0459 364.937C74.356 362.638 76.1839 360.644 78.3979 359.101C78.869 358.754 79.419 358.517 80.0035 358.411C80.2961 358.36 80.5979 358.386 80.8762 358.486C81.1544 358.587 81.3986 358.758 81.5823 358.982C82.1265 359.74 81.5823 360.762 81.0382 361.487C79.1449 364.007 76.4615 365.887 73.3759 366.854" fill="#455A64"/>
<path d="M72.7783 361.001C70.466 358.31 67.9012 355.826 65.1161 353.58C64.9293 353.373 64.6909 353.213 64.4229 353.116C64.1548 353.02 63.8657 352.989 63.5818 353.026C63.3774 353.108 63.2025 353.245 63.0788 353.421C62.9551 353.596 62.8881 353.803 62.8861 354.015C62.8793 354.437 62.9771 354.854 63.1715 355.233C64.0867 357.182 65.4509 358.908 67.1622 360.283C68.8736 361.658 70.8879 362.646 73.0549 363.174" fill="#455A64"/>
<path d="M73.0281 348.4C71.0122 346.065 69.0023 343.725 66.9982 341.379C66.4625 340.679 65.7974 340.079 65.0358 339.607C64.6491 339.381 64.2046 339.262 63.7514 339.262C63.2981 339.262 62.8536 339.381 62.4669 339.607C62.1157 339.881 61.8525 340.243 61.7073 340.653C61.5621 341.063 61.541 341.504 61.6462 341.925C61.8673 342.756 62.2684 343.534 62.8237 344.208C63.997 345.931 65.4832 347.44 67.2123 348.664C68.9963 349.823 70.593 350.581 72.7159 350.283" fill="#455A64"/>
<path d="M73.8666 334.214C72.6807 330.853 70.5849 327.852 67.792 325.515C67.3489 325.105 66.8018 324.811 66.2043 324.663C65.5912 324.621 64.9816 324.782 64.478 325.119C63.9744 325.455 63.6076 325.947 63.4391 326.512C63.25 327.15 63.2015 327.819 63.2967 328.476C63.3919 329.133 63.6287 329.764 63.9921 330.329C64.7377 331.434 65.7048 332.386 66.8376 333.132C68.8691 334.615 71.1329 335.782 73.5454 336.591" fill="#455A64"/>
<path d="M76.275 321.562C75.6863 317.498 73.4742 314.107 70.923 310.818C70.3789 310.12 69.6207 309.387 68.7287 309.515C68.4458 309.575 68.1825 309.701 67.9618 309.88C67.7411 310.06 67.5696 310.288 67.4621 310.546C67.2645 311.066 67.1855 311.621 67.2302 312.173C67.3404 314.639 68.2088 317.019 69.727 319.016C71.2452 321.013 73.3459 322.539 75.7666 323.402" fill="#455A64"/>
<path d="M77.961 315.104C77.6819 313.019 77.6072 310.914 77.738 308.816C77.8765 306.704 78.6371 304.672 79.9323 302.954C80.4735 302.197 81.2324 301.605 82.1177 301.25C82.5572 301.085 83.0337 301.029 83.502 301.089C83.9704 301.148 84.415 301.321 84.7937 301.591C85.1111 301.879 85.3563 302.231 85.5108 302.622C85.6652 303.013 85.7251 303.433 85.6857 303.849C85.6109 304.684 85.3813 305.501 85.0078 306.26C83.4022 309.949 80.7262 314.039 77.9253 315.07" fill="#455A64"/>
<path d="M51.7361 319.96C51.7569 320.13 51.7569 320.301 51.7361 320.471C51.7361 320.846 51.7361 321.323 51.7361 321.954C51.7361 322.584 51.7361 323.377 51.7361 324.288C51.7361 325.2 51.7361 326.231 51.852 327.381C51.9591 329.664 52.191 332.391 52.5567 335.398C52.9224 338.406 53.4487 341.695 54.2248 345.12C55.0008 348.545 55.875 351.757 56.7848 354.662C57.6946 357.567 58.6491 360.132 59.5143 362.27C59.9246 363.352 60.3528 364.298 60.7096 365.15C61.0664 366.002 61.3875 366.718 61.6551 367.297L62.2617 368.66C62.3432 368.815 62.406 368.978 62.449 369.146C62.3533 369.001 62.2669 368.85 62.1903 368.694C62.0208 368.354 61.7978 367.911 61.5124 367.357C61.227 366.803 60.8791 366.07 60.5044 365.227C60.1298 364.383 59.6838 363.446 59.2556 362.373C58.3636 360.243 57.3914 357.661 56.4369 354.764C55.4825 351.867 54.5994 348.63 53.8323 345.196C53.0652 341.763 52.6281 338.457 52.2356 335.432C51.8431 332.408 51.6915 329.681 51.6201 327.39C51.5577 326.239 51.5666 325.2 51.5577 324.288C51.5488 323.377 51.5577 322.584 51.5577 321.945C51.5577 321.306 51.5577 320.846 51.6112 320.471C51.6387 320.298 51.6805 320.127 51.7361 319.96V319.96Z" fill="#263238"/>
<path d="M52.6279 336.642C52.6702 334.655 53.4331 332.742 54.7866 331.232C54.9838 330.954 55.2496 330.726 55.5607 330.568C55.8717 330.411 56.2185 330.328 56.5706 330.329C57.4626 330.457 57.9175 331.522 57.9532 332.416C58.0028 333.937 57.4736 335.423 56.4635 336.6C55.6111 337.728 54.3305 338.492 52.8955 338.73" fill="#263238"/>
<path d="M54.6885 347.488C54.5726 345.154 55.3575 341.524 56.7758 339.658C56.9875 339.347 57.2637 339.08 57.5875 338.875C57.7494 338.773 57.9347 338.711 58.1274 338.693C58.32 338.675 58.5144 338.703 58.6936 338.772C58.919 338.926 59.1007 339.132 59.2222 339.37C59.3437 339.608 59.4011 339.871 59.3894 340.135C59.5323 341.823 59.1787 343.514 58.3686 345.02C57.5584 346.525 56.324 347.784 54.8045 348.655" fill="#263238"/>
<path d="M57.3379 356.775C57.5822 354.441 58.4753 352.211 59.9247 350.317C60.0634 350.073 60.2528 349.859 60.4814 349.687C60.71 349.516 60.9728 349.391 61.2538 349.32C62.1458 349.218 62.7969 350.053 62.9842 350.862C63.3767 352.566 62.5115 354.219 61.5035 355.633C60.5439 356.819 59.4253 357.879 58.1764 358.786" fill="#263238"/>
<path d="M59.7642 363.301C60.1321 361.452 60.9308 359.705 62.1012 358.189C62.3298 357.86 62.6351 357.586 62.9932 357.389C63.1814 357.294 63.393 357.251 63.6052 357.263C63.8174 357.275 64.0222 357.342 64.1974 357.457C64.7415 357.857 64.6166 358.658 64.3936 359.271C63.667 361.374 62.2657 363.204 60.3886 364.503" fill="#263238"/>
<path d="M58.6668 360.677C56.4753 359.305 54.155 358.13 51.736 357.167C51.5606 357.068 51.3628 357.011 51.1594 357.001C50.956 356.99 50.7529 357.027 50.5675 357.107C50.4393 357.208 50.346 357.343 50.2998 357.495C50.2536 357.647 50.2568 357.809 50.3088 357.959C50.4249 358.24 50.6082 358.491 50.844 358.692C51.9038 359.836 53.2203 360.736 54.6953 361.327C56.1703 361.917 57.7657 362.181 59.3626 362.1" fill="#263238"/>
<path d="M55.9908 352.046L50.3088 348.468C49.7873 348.103 49.201 347.832 48.5783 347.667C48.2686 347.573 47.936 347.573 47.6264 347.667C47.3167 347.762 47.0453 347.945 46.8495 348.193C46.6538 348.441 46.5433 348.74 46.5334 349.051C46.5235 349.361 46.6147 349.666 46.7943 349.925C47.1309 350.452 47.5808 350.905 48.1144 351.254C49.3016 352.188 50.6553 352.909 52.1106 353.384C52.7609 353.648 53.4602 353.784 54.1667 353.784C54.8731 353.784 55.5724 353.648 56.2227 353.384" fill="#263238"/>
<path d="M53.3684 342.214C51.8042 340.17 49.7026 338.557 47.2761 337.537C46.8841 337.339 46.4436 337.245 46.0005 337.264C45.5715 337.359 45.1907 337.594 44.9236 337.928C44.6566 338.263 44.5201 338.676 44.5376 339.096C44.5517 339.568 44.6684 340.032 44.8803 340.459C45.0922 340.886 45.3947 341.266 45.7686 341.575C46.5263 342.188 47.402 342.654 48.3465 342.947C50.0658 343.538 51.872 343.866 53.6985 343.918" fill="#263238"/>
<path d="M52.1553 333.132C50.8441 330.482 48.5873 328.633 46.0808 326.921C45.8492 326.706 45.5626 326.552 45.2495 326.476C44.9365 326.4 44.608 326.403 44.2968 326.486C44.1178 326.585 43.9673 326.725 43.8583 326.893C43.7494 327.061 43.6856 327.252 43.6724 327.449C43.6555 327.842 43.7254 328.234 43.8775 328.599C44.5103 330.256 45.6392 331.698 47.1238 332.747C48.6083 333.795 50.3829 334.403 52.2267 334.495" fill="#263238"/>
<path d="M51.8521 328.361C51.1875 326.992 50.6618 325.566 50.2822 324.101C49.9044 322.632 49.9631 321.092 50.4516 319.653C50.662 319.037 51.0481 318.488 51.5666 318.069C51.8281 317.864 52.1404 317.728 52.4733 317.673C52.8061 317.618 53.1483 317.645 53.4666 317.753C53.7511 317.881 54.0016 318.068 54.1993 318.301C54.3971 318.534 54.5369 318.807 54.6084 319.1C54.7421 319.684 54.7693 320.287 54.6886 320.88C54.4121 323.76 53.5201 327.083 51.8521 328.361Z" fill="#263238"/>
<path d="M94.5521 319.602C94.5651 319.772 94.5651 319.943 94.5521 320.113C94.5521 320.488 94.5699 320.982 94.6056 321.596C94.6056 322.235 94.6056 323.019 94.6056 323.93C94.6056 324.842 94.6056 325.881 94.5432 327.032C94.4718 329.332 94.2756 332.058 93.9277 335.083C93.5798 338.108 93.0357 341.405 92.2864 344.838C91.5371 348.272 90.6094 351.501 89.6818 354.406C88.7541 357.312 87.764 359.885 86.863 362.015C86.4349 363.088 85.971 364.034 85.6142 364.878C85.2574 365.721 84.8917 366.428 84.5974 367.008L83.9284 368.337C83.8572 368.495 83.7706 368.646 83.6697 368.788C83.7143 368.621 83.7771 368.458 83.857 368.303L84.4636 366.948C84.7312 366.36 85.0612 365.636 85.4091 364.792C85.757 363.949 86.194 362.995 86.6044 361.913C87.4964 359.783 88.3884 357.201 89.3339 354.304C90.2794 351.407 91.1179 348.178 91.8939 344.762C92.67 341.345 93.1695 338.048 93.562 335.04C93.9544 332.033 94.1596 329.315 94.2666 327.023C94.3469 325.881 94.3469 324.842 94.3826 323.93C94.4183 323.019 94.3826 322.226 94.3826 321.596C94.3826 320.965 94.3826 320.497 94.3826 320.122C94.4168 319.943 94.4737 319.768 94.5521 319.602V319.602Z" fill="#455A64"/>
<path d="M93.5799 336.284C93.5378 334.299 92.7747 332.39 91.4212 330.883C91.2245 330.603 90.959 330.374 90.648 330.215C90.337 330.056 89.9899 329.972 89.6372 329.971C88.7452 330.099 88.2903 331.164 88.2546 332.058C88.2033 333.579 88.7328 335.066 89.7443 336.242C90.594 337.372 91.8759 338.138 93.3123 338.372" fill="#455A64"/>
<path d="M91.5281 347.13C91.6441 344.796 90.8591 341.166 89.4409 339.309C89.2269 338.997 88.9512 338.728 88.6291 338.517C88.4665 338.417 88.2808 338.356 88.0882 338.34C87.8955 338.323 87.7016 338.352 87.5231 338.423C87.2971 338.575 87.1149 338.778 86.9933 339.015C86.8717 339.252 86.8146 339.514 86.8273 339.778C86.6833 341.465 87.0364 343.157 87.8467 344.663C88.6569 346.168 89.8919 347.427 91.4122 348.298" fill="#455A64"/>
<path d="M88.879 356.417C88.6333 354.083 87.7404 351.854 86.2922 349.959C86.1482 349.723 85.9566 349.516 85.7285 349.351C85.5003 349.185 85.2402 349.065 84.9631 348.996C84.0711 348.894 83.4199 349.738 83.2326 350.547C82.8401 352.208 83.7054 353.904 84.7133 355.318C85.6747 356.5 86.7932 357.557 88.0405 358.462" fill="#455A64"/>
<path d="M86.524 362.952C86.152 361.103 85.3537 359.357 84.187 357.84C83.9549 357.514 83.6503 357.24 83.295 357.039C83.1046 356.947 82.8919 356.904 82.6787 356.916C82.4656 356.928 82.2596 356.994 82.0818 357.107C81.5466 357.508 81.6715 358.309 81.8945 358.922C82.6162 361.027 84.0186 362.858 85.8996 364.153" fill="#455A64"/>
<path d="M87.55 360.319C89.7352 358.954 92.0461 357.782 94.4541 356.818C94.6282 356.716 94.8257 356.657 95.0294 356.645C95.2331 356.633 95.4368 356.669 95.6226 356.749C95.7498 356.851 95.8423 356.986 95.8884 357.138C95.9345 357.289 95.932 357.451 95.8813 357.601C95.7914 357.893 95.6292 358.159 95.4085 358.377C94.3487 359.521 93.0322 360.421 91.5572 361.011C90.0822 361.601 88.4868 361.866 86.8899 361.785" fill="#455A64"/>
<path d="M90.2258 351.689L95.9078 348.153C96.427 347.783 97.0138 347.508 97.6383 347.343C97.9561 347.263 98.2909 347.269 98.6057 347.359C98.9205 347.449 99.2031 347.621 99.4223 347.855C99.5931 348.117 99.6836 348.419 99.6836 348.728C99.6836 349.037 99.5931 349.339 99.4223 349.601C99.0857 350.129 98.6358 350.582 98.1022 350.93C96.915 351.864 95.5613 352.586 94.106 353.06C93.4563 353.326 92.7568 353.464 92.05 353.464C91.3431 353.464 90.6436 353.326 89.9939 353.06" fill="#455A64"/>
<path d="M92.8483 341.856C94.4129 339.815 96.5146 338.204 98.9407 337.188C99.3335 336.991 99.7728 336.894 100.216 336.906C100.644 337.004 101.022 337.24 101.289 337.574C101.556 337.907 101.693 338.319 101.679 338.738C101.666 339.212 101.55 339.678 101.338 340.106C101.126 340.534 100.823 340.916 100.448 341.226C99.6901 341.837 98.8144 342.3 97.8703 342.589C96.1503 343.179 94.3447 343.509 92.5183 343.569" fill="#455A64"/>
<path d="M94.0616 332.749C95.3728 330.099 97.6296 328.25 100.136 326.538C100.369 326.324 100.655 326.171 100.968 326.095C101.281 326.019 101.609 326.022 101.92 326.103C102.099 326.202 102.25 326.342 102.359 326.51C102.467 326.678 102.531 326.869 102.545 327.066C102.561 327.461 102.491 327.856 102.339 328.224C101.705 329.88 100.576 331.32 99.0912 332.367C97.6068 333.414 95.8329 334.02 93.9902 334.112" fill="#455A64"/>
<path d="M94.3647 328.02C95.0235 326.649 95.549 325.223 95.9347 323.76C96.3127 322.294 96.254 320.757 95.7652 319.321C95.5592 318.702 95.1724 318.152 94.6502 317.736C94.3878 317.531 94.0743 317.393 93.7401 317.336C93.4058 317.279 93.0618 317.306 92.7413 317.413C92.4607 317.544 92.2138 317.733 92.0181 317.965C91.8223 318.198 91.6825 318.469 91.6085 318.759C91.4747 319.346 91.4476 319.952 91.5282 320.548C91.7958 323.385 92.6967 326.725 94.3647 328.003" fill="#455A64"/>
<path d="M44.4485 368.788V375.604C44.4437 375.961 44.5134 376.316 44.6535 376.647C44.7936 376.978 45.0013 377.279 45.2645 377.533C45.5276 377.787 45.841 377.988 46.1864 378.125C46.5317 378.262 46.9022 378.332 47.2761 378.331H96.3361C96.707 378.332 97.0745 378.263 97.4175 378.128C97.7605 377.993 98.0723 377.795 98.335 377.545C98.5977 377.295 98.8061 376.998 98.9483 376.671C99.0905 376.343 99.1637 375.993 99.1637 375.638V368.822L44.4485 368.788Z" fill="#FF725E"/>
<g opacity="0.4">
<path opacity="0.4" d="M48.7034 378.331L49.1137 380.512L94.3738 383.596L95.5245 378.331H48.7034Z" fill="black"/>
</g>
<path d="M245.246 271.831C247.426 260.613 247.267 249.095 244.776 237.936C242.286 226.778 237.514 216.199 230.733 206.806L167.883 217.175C161.844 240.673 169.56 266.949 187.507 284.014L245.246 271.831Z" fill="#FF725E"/>
<path d="M245.246 271.831C247.426 260.613 247.267 249.095 244.776 237.936C242.286 226.778 237.514 216.199 230.733 206.806L167.883 217.175C161.844 240.673 169.56 266.949 187.507 284.014L245.246 271.831Z" fill="#455A64"/>
<g opacity="0.3">
<path opacity="0.3" d="M243.338 230.713C240.983 227.69 238.151 225.034 234.944 222.841C234.204 222.252 233.309 221.868 232.357 221.733C231.743 221.754 231.14 221.895 230.586 222.149C230.032 222.402 229.538 222.763 229.137 223.207C227.965 224.325 227.063 225.675 226.494 227.162C225.926 228.648 225.704 230.235 225.845 231.812C226.14 234.82 227.763 237.776 226.96 240.733C226.604 241.821 225.991 242.817 225.171 243.645C224.35 244.474 223.342 245.112 222.224 245.512C219.981 246.299 217.581 246.59 215.204 246.364C209.308 245.998 203.653 244.124 198.095 242.198C192.538 240.272 186.954 238.262 181.085 237.614C175.216 236.967 168.945 237.827 164.19 241.176L167.446 240.826C175.762 243.021 183.882 245.847 191.726 249.278C197.801 251.936 203.911 255.004 210.583 255.472C216.506 255.881 222.429 254.169 227.692 251.527C232.955 248.886 237.647 245.333 242.303 241.806C243.631 240.959 244.717 239.808 245.461 238.458C246.593 235.868 245.077 232.954 243.338 230.713Z" fill="black"/>
</g>
<path d="M169.685 237.895C169.524 236.977 169.429 236.049 169.4 235.118C169.266 233.414 169.07 231.028 168.784 228.421C168.499 225.814 168.178 223.454 167.946 221.741C167.772 220.827 167.664 219.901 167.625 218.972C167.926 219.861 168.141 220.773 168.267 221.699C168.588 223.403 168.963 225.754 169.248 228.37C169.533 230.986 169.676 233.371 169.73 235.101C169.806 236.032 169.791 236.967 169.685 237.895V237.895Z" fill="#263238"/>
<path d="M218.326 246.015C217.723 244.612 217.041 243.241 216.283 241.908C214.322 238.766 211.805 235.973 208.844 233.652C205.87 231.338 202.708 229.253 199.389 227.416L196.392 225.712C196.013 225.52 195.655 225.295 195.321 225.039C195.724 225.181 196.112 225.358 196.481 225.567C197.212 225.933 198.265 226.47 199.558 227.16C202.944 228.935 206.153 230.999 209.147 233.329C212.152 235.676 214.669 238.539 216.569 241.772C217.128 242.756 217.602 243.782 217.987 244.839C218.142 245.219 218.256 245.613 218.326 246.015V246.015Z" fill="#263238"/>
<path d="M215.703 233.533C215.31 232.947 214.978 232.325 214.713 231.676C214.071 230.364 213.322 228.83 212.483 227.135C211.645 225.439 210.842 223.923 210.182 222.628C209.822 222.02 209.523 221.381 209.29 220.719C209.754 221.259 210.152 221.848 210.476 222.474C211.145 223.59 212.028 225.166 212.911 226.939C213.794 228.711 214.535 230.347 215.025 231.548C215.334 232.181 215.562 232.848 215.703 233.533V233.533Z" fill="#263238"/>
<path d="M239.627 187.534L239.279 190.09C237.17 193.933 235.524 197.991 234.373 202.188C232.491 209.098 228.263 221.784 228.619 227.416C228.976 233.048 241.179 241.218 241.179 241.218L250.777 215.803L253.39 202.776C253.39 202.776 251.678 188.854 249.974 188.207C248.27 187.559 239.627 187.534 239.627 187.534Z" fill="#263238"/>
<path d="M313.163 224.562L298.597 257.977L298.74 275.537L222.465 253.717L242.356 238.142L246.754 226.121L253.212 204.088L257.895 177.514L265.682 169.974L303.913 172.445L314.876 177.693C314.876 177.693 313.502 223.062 313.163 224.562Z" fill="#263238"/>
<path d="M256.263 175.589C256.263 175.589 247.842 181.425 244.872 194.52C241.901 207.615 243.534 216.195 243.534 216.195C243.534 216.195 267.261 190.933 267.475 190.311C267.689 189.689 265.896 179.005 265.896 179.005L256.263 175.589Z" fill="#FF725E"/>
<path d="M317.695 184.083C318.587 184.628 323.225 193.165 321.263 200.697C319.3 208.229 293.807 247.259 283.745 251.34C273.683 255.421 264.469 253.231 260.17 241.849C255.87 230.466 247.432 192.433 247.432 192.433L247.949 188.505L262.177 186.222L263.595 189.502C266.322 194.02 268.65 198.748 270.552 203.637C273.853 212.012 277.002 221.776 277.002 221.776L317.695 184.083Z" fill="#263238"/>
<path d="M317.695 184.083C317.695 184.083 317.454 184.33 316.972 184.782L314.831 186.792L306.67 194.46L277.126 221.972L276.912 222.176L276.823 221.895C275.182 216.911 273.362 211.671 271.293 206.175C269.189 200.46 266.553 194.937 263.416 189.672V189.672L261.989 186.401L262.23 186.528L247.976 188.752L248.163 188.565L247.646 192.492V192.416C249.376 200.084 251.214 208.127 253.239 216.272C254.363 220.796 255.495 225.269 256.682 229.648C257.271 231.838 257.886 234.01 258.519 236.149C259.153 238.287 259.822 240.409 260.651 242.445C261.426 244.467 262.541 246.355 263.952 248.034C265.321 249.685 267.078 251.004 269.081 251.885C271.044 252.715 273.179 253.111 275.325 253.044C277.453 252.979 279.559 252.602 281.569 251.928C282.068 251.783 282.541 251.579 283.032 251.408C283.516 251.242 283.984 251.037 284.432 250.795C284.878 250.565 285.324 250.266 285.716 250.002C286.109 249.738 286.528 249.406 286.921 249.099C288.446 247.834 289.885 246.476 291.229 245.035C293.905 242.224 296.304 239.31 298.561 236.447C303.021 230.713 306.928 225.158 310.336 220.003C313.743 214.849 316.642 210.086 318.926 205.775C320.032 203.602 321.12 201.575 321.414 199.521C321.713 197.661 321.713 195.767 321.414 193.907C321.023 191.318 320.245 188.796 319.104 186.418C318.811 185.8 318.481 185.2 318.114 184.62C317.985 184.424 317.835 184.242 317.668 184.075C317.719 184.108 317.766 184.145 317.811 184.185C317.933 184.314 318.047 184.451 318.15 184.594C318.544 185.165 318.893 185.763 319.193 186.383C320.372 188.758 321.18 191.284 321.593 193.881C321.893 195.762 321.893 197.675 321.593 199.555C321.298 201.651 320.201 203.705 319.113 205.886C316.847 210.222 313.939 214.994 310.568 220.174C307.196 225.354 303.307 230.909 298.82 236.669C296.572 239.54 294.173 242.462 291.479 245.299C290.131 246.756 288.682 248.125 287.144 249.397C286.742 249.721 286.332 250.019 285.922 250.326C285.511 250.633 285.03 250.905 284.593 251.178C284.13 251.429 283.647 251.643 283.147 251.817C282.648 251.996 282.166 252.201 281.658 252.354C279.619 253.037 277.484 253.419 275.325 253.487C273.101 253.568 270.886 253.166 268.849 252.311C266.784 251.402 264.972 250.042 263.559 248.341C262.117 246.625 260.975 244.697 260.178 242.633C259.34 240.579 258.698 238.449 258.038 236.311C257.378 234.172 256.78 231.991 256.182 229.793C254.996 225.405 253.863 220.941 252.748 216.408C250.741 208.246 248.877 200.22 247.155 192.552V192.475C247.343 191.121 247.521 189.774 247.682 188.548V188.394H247.851L262.078 186.128H262.248L262.319 186.281L263.738 189.553C266.892 194.841 269.535 200.394 271.632 206.141C273.701 211.611 275.503 216.885 277.135 221.886L276.823 221.81C289.249 210.342 299.462 200.927 306.571 194.358L314.769 186.818L316.919 184.858L317.695 184.083Z" fill="#455A64"/>
<path d="M224.704 251.97C224.704 251.97 224.802 251.851 225.025 251.664L226.015 250.812L229.717 247.821L242.205 237.946C242.586 237.416 242.901 236.844 243.141 236.242C244.551 232.834 245.55 229.503 246.46 226.572L246.504 226.76C245.903 225.947 245.431 225.054 245.104 224.11C244.774 223.258 244.506 222.406 244.274 221.554C243.876 220.155 243.578 218.732 243.382 217.294C243.253 216.368 243.184 215.434 243.177 214.499C243.171 214.166 243.192 213.833 243.239 213.503C243.293 213.832 243.317 214.166 243.311 214.499C243.364 215.138 243.427 216.084 243.632 217.26C243.859 218.697 244.177 220.12 244.586 221.52C244.836 222.312 245.113 223.147 245.478 224.008C245.795 224.902 246.249 225.746 246.825 226.513L246.897 226.606V226.709C245.943 230.005 244.815 233.252 243.516 236.438C243.263 237.096 242.918 237.718 242.49 238.287V238.287L229.895 248.051L226.104 250.939L225.069 251.698C224.958 251.801 224.835 251.892 224.704 251.97V251.97Z" fill="#455A64"/>
<path d="M164.181 377.768L162.13 399.188V407.128C162.13 410.136 159.579 409.574 156.421 409.582L117.94 409.659C117.94 409.659 116.112 405.97 118.948 404.811C121.785 403.652 143.282 392.269 143.282 392.269L141.346 375.417L164.181 377.768Z" fill="#EBEBEB"/>
<path d="M164.182 377.768H163.762L162.567 377.658L158.018 377.232L141.346 375.596L141.534 375.425C142.113 380.35 142.773 386.041 143.505 392.269V392.406L143.389 392.465L129.456 399.792C126.982 401.082 124.452 402.38 121.865 403.686L119.894 404.649C119.226 404.873 118.617 405.233 118.11 405.705C117.698 406.246 117.519 406.917 117.61 407.58C117.668 408.274 117.849 408.954 118.145 409.59L117.931 409.463H119.171H148.259H154.798C155.85 409.463 156.903 409.463 157.929 409.463C158.911 409.557 159.904 409.473 160.854 409.216C161.253 409.005 161.572 408.681 161.767 408.288C161.962 407.895 162.024 407.454 161.943 407.026V404.274C161.943 402.51 161.943 400.806 161.943 399.162C162.612 392.585 163.147 387.234 163.521 383.545L163.976 379.285L164.101 378.169C164.101 377.913 164.155 377.777 164.155 377.777C164.165 377.896 164.165 378.016 164.155 378.135C164.155 378.407 164.155 378.765 164.066 379.234C163.985 380.222 163.86 381.653 163.7 383.494C163.37 387.234 162.888 392.602 162.29 399.23C162.29 400.849 162.29 402.553 162.29 404.342C162.29 405.194 162.29 406.123 162.29 407.043C162.32 407.529 162.247 408.016 162.076 408.474C161.982 408.719 161.836 408.942 161.647 409.129C161.459 409.317 161.231 409.465 160.979 409.565C159.981 409.858 158.932 409.959 157.893 409.863C156.867 409.863 155.832 409.863 154.771 409.863H148.233L119.144 409.94H117.753L117.699 409.812C117.38 409.127 117.184 408.395 117.12 407.648C117.021 406.875 117.234 406.095 117.717 405.467C117.837 405.307 117.985 405.169 118.154 405.058C118.308 404.933 118.479 404.83 118.663 404.751C119.011 404.572 119.332 404.453 119.662 404.291L121.624 403.328C124.22 402.033 126.744 400.73 129.215 399.452L143.157 392.159L143.05 392.346C142.354 386.109 141.712 380.418 141.159 375.493V375.289H141.364L158.116 377.104L162.621 377.606L163.78 377.743C163.914 377.74 164.049 377.748 164.182 377.768V377.768Z" fill="#263238"/>
<path d="M153.656 409.369C153.736 409.369 153.816 408.67 154.182 407.605C154.646 406.212 155.428 404.935 156.473 403.867C157.517 402.798 158.798 401.965 160.221 401.428C161.309 401.002 162.005 400.875 162.005 400.806C161.346 400.774 160.688 400.882 160.078 401.122C158.563 401.609 157.196 402.446 156.1 403.558C155.012 404.675 154.233 406.034 153.834 407.512C153.63 408.11 153.569 408.745 153.656 409.369V409.369Z" fill="#263238"/>
<path d="M129.34 409.633C129.574 409.22 129.697 408.757 129.697 408.287C129.796 407.149 129.552 406.007 128.992 404.998C128.416 404.005 127.633 403.135 126.691 402.442C126.332 402.127 125.91 401.884 125.451 401.727C125.451 401.786 125.834 402.118 126.476 402.681C127.308 403.406 128.015 404.252 128.573 405.186C129.093 406.132 129.365 407.184 129.367 408.253C129.322 408.712 129.313 409.173 129.34 409.633Z" fill="#263238"/>
<path d="M272.952 176.986C272.217 176.978 271.489 176.846 270.802 176.594C269.113 176.073 267.551 175.232 266.209 174.123C264.861 173.017 263.755 171.668 262.953 170.153C262.591 169.543 262.346 168.877 262.23 168.185C262.311 168.185 262.587 168.9 263.247 170C264.102 171.432 265.206 172.714 266.512 173.791C267.82 174.874 269.309 175.738 270.918 176.347C272.105 176.756 272.952 176.909 272.952 176.986Z" fill="#263238"/>
<path d="M145.726 261.854L105.666 315.402L125.495 327.228L181.477 265.381L145.726 261.854Z" fill="#263238"/>
<path d="M122.828 328.472L107.522 345.298L104.756 352.788C103.704 355.625 101.492 354.279 98.5124 353.273L62.2258 341.013C62.2258 341.013 61.8066 336.957 64.9018 336.753C67.9971 336.548 92.2327 332.732 92.2327 332.732L105.256 316.382L122.828 328.472Z" fill="#EBEBEB"/>
<path d="M122.828 328.472L122.498 328.267L121.606 327.654L118.092 325.277L105.167 316.509H105.39L92.3843 332.876L92.3308 332.936H92.2505L76.4978 335.381C73.7237 335.799 70.8961 336.233 67.9971 336.617L65.8117 336.889C65.1053 336.886 64.4073 337.035 63.769 337.324C63.1965 337.702 62.7975 338.275 62.654 338.926C62.4728 339.595 62.4065 340.289 62.4578 340.979L62.3061 340.791L62.6808 340.919L90.5111 350.291L96.7551 352.413C97.7631 352.762 98.7711 353.086 99.7523 353.452C100.666 353.859 101.641 354.124 102.642 354.236C102.868 354.249 103.094 354.217 103.306 354.142C103.517 354.067 103.711 353.951 103.873 353.802C104.182 353.47 104.416 353.081 104.56 352.66C104.89 351.808 105.211 350.913 105.532 350.104L107.316 345.222L118.636 332.979L121.722 329.647L122.534 328.795L122.828 328.497C122.757 328.603 122.676 328.702 122.587 328.795C122.4 329.008 122.141 329.289 121.82 329.647L118.814 333.004L107.655 345.418V345.367L105.871 350.249C105.559 351.101 105.238 351.953 104.917 352.847C104.753 353.32 104.489 353.755 104.141 354.125C103.943 354.311 103.707 354.457 103.447 354.552C103.188 354.647 102.911 354.691 102.633 354.679C101.587 354.569 100.566 354.298 99.6095 353.878C98.6373 353.52 97.6293 353.197 96.6124 352.856L90.3684 350.743L62.5291 341.371L62.1545 341.243L62.0118 341.192V341.056C61.9572 340.311 62.0295 339.563 62.2258 338.84C62.3996 338.084 62.8685 337.42 63.5371 336.983C63.7043 336.873 63.8876 336.787 64.0812 336.727C64.2708 336.661 64.4687 336.618 64.6699 336.6C65.0713 336.54 65.4014 336.531 65.776 336.489L67.9525 336.216C70.8426 335.824 73.6791 335.364 76.4443 334.989L92.197 332.57L92.0632 332.646C97.0138 326.478 101.456 320.923 105.158 316.305L105.247 316.186L105.381 316.271L118.252 325.242L121.687 327.654L122.579 328.276L122.828 328.472Z" fill="#263238"/>
<path d="M125.415 328.063L121.312 332.033C121.013 332.328 120.61 332.506 120.181 332.533C119.753 332.559 119.329 332.433 118.993 332.178L103.186 320.173C102.858 319.911 102.64 319.544 102.571 319.141C102.502 318.737 102.588 318.323 102.812 317.975L105.862 313.425C105.992 313.231 106.163 313.066 106.365 312.939C106.566 312.812 106.792 312.726 107.03 312.688C107.268 312.649 107.511 312.658 107.745 312.715C107.978 312.772 108.197 312.874 108.387 313.016L125.21 325.6C125.405 325.741 125.566 325.92 125.683 326.124C125.801 326.329 125.872 326.555 125.891 326.787C125.91 327.02 125.878 327.254 125.796 327.474C125.714 327.693 125.584 327.894 125.415 328.063V328.063Z" fill="#EBEBEB"/>
<path d="M102.58 319.739C103.254 320.504 103.99 321.216 104.783 321.869C106.192 323.129 108.182 324.825 110.492 326.589C112.802 328.352 114.952 329.826 116.602 330.849C117.414 331.351 118.074 331.743 118.547 331.999C118.775 332.157 119.028 332.28 119.296 332.365C118.502 331.72 117.664 331.126 116.789 330.584C115.219 329.511 113.079 328.028 110.786 326.248C108.494 324.467 106.469 322.84 105.006 321.647C104.247 320.956 103.436 320.318 102.58 319.739V319.739Z" fill="#263238"/>
<path d="M117.182 330.312C118.596 329.696 119.815 328.732 120.712 327.52C121.61 326.308 122.156 324.89 122.293 323.411C121.788 324.759 121.13 326.05 120.331 327.262C119.398 328.382 118.342 329.405 117.182 330.312Z" fill="#263238"/>
<path d="M110.795 326.606C112.061 325.619 113.196 324.489 114.176 323.24C115.27 322.081 116.208 320.796 116.968 319.415C115.832 320.526 114.774 321.707 113.801 322.951C112.71 324.099 111.705 325.321 110.795 326.606V326.606Z" fill="#263238"/>
<path d="M104.997 321.204C105.75 319.914 106.696 318.737 107.807 317.711C109.02 316.798 110.366 316.06 111.803 315.521C111.33 315.492 110.856 315.571 110.421 315.751C109.345 316.106 108.352 316.655 107.495 317.37C106.634 318.084 105.928 318.952 105.417 319.926C105.169 320.313 105.025 320.752 104.997 321.204V321.204Z" fill="#263238"/>
<path d="M95.9702 352.183C96.0327 352.183 96.3538 351.569 97.0763 350.683C98.0048 349.522 99.191 348.571 100.55 347.899C101.908 347.228 103.406 346.852 104.935 346.798C106.112 346.747 106.844 346.866 106.862 346.798C106.249 346.566 105.593 346.458 104.935 346.483C103.336 346.45 101.755 346.801 100.335 347.504C98.915 348.206 97.7026 349.238 96.8087 350.504C96.4004 350.996 96.1137 351.57 95.9702 352.183Z" fill="#263238"/>
<path d="M72.9387 344.634C73.3059 344.322 73.585 343.926 73.7504 343.484C74.2422 342.44 74.4094 341.284 74.2321 340.152C74.04 339.041 73.6088 337.979 72.9655 337.034C72.4749 336.318 72.0735 335.926 72.0735 335.961C72.2245 336.397 72.4344 336.812 72.6979 337.196C73.2265 338.143 73.5967 339.164 73.795 340.221C73.9516 341.279 73.8384 342.357 73.465 343.365C73.2522 343.773 73.0761 344.197 72.9387 344.634V344.634Z" fill="#263238"/>
<path d="M184.421 262.62H163.013C157.78 262.605 152.672 264.146 148.396 267.028C144.121 269.91 140.89 273.992 139.152 278.706V278.706C137.478 283.245 136.742 288.051 136.984 292.858L140.74 375.928L166.447 376.175L168.044 349.559L171.692 298.933L196.668 299.938L210.833 299.086L184.421 262.62Z" fill="#263238"/>
<path d="M160.034 286.528C159.98 286.681 162.986 287.38 166.188 289.305C169.391 291.231 171.442 293.403 171.54 293.292C171.221 292.716 170.795 292.199 170.283 291.767C167.975 289.525 165.126 287.858 161.987 286.911C161.365 286.673 160.704 286.543 160.034 286.528V286.528Z" fill="#263238"/>
<g opacity="0.3">
<path opacity="0.3" d="M210.378 299.095C204.562 300.125 198.167 298.421 193.171 295.448C188.18 292.469 184.568 287.782 183.074 282.344C182.441 279.942 182.244 277.454 181.611 275.051C181.103 272.584 179.724 270.359 177.704 268.746C175.26 267.042 169.248 265.901 167.455 263.575C167.455 263.225 174.591 264.009 176.973 264.137C179.577 264.273 183.948 264.904 183.859 264.614C183.859 264.614 185.598 270.45 186.374 271.72C191.584 280.24 203.001 292.781 210.378 299.095" fill="black"/>
</g>
<path d="M239.645 256.034C239.645 256.034 175.911 238.142 168.115 240.153C160.319 242.164 145.512 262.075 145.512 262.075L186.696 273.594L210.057 299.904L239.645 256.034Z" fill="#263238"/>
<path d="M140.775 375.919C140.775 375.919 140.775 375.817 140.775 375.621C140.775 375.425 140.775 375.093 140.704 374.718C140.651 373.866 140.579 372.741 140.481 371.259C140.312 368.226 140.062 363.881 139.759 358.53C139.188 347.752 138.403 332.919 137.537 316.527C137.118 308.322 136.726 300.5 136.369 293.395C136.158 290.011 136.4 286.615 137.091 283.29C137.833 280.415 139.036 277.667 140.659 275.145C141.833 272.985 143.336 271.004 145.119 269.266C146.475 267.959 148.012 266.835 149.687 265.926C150.739 265.336 151.883 264.911 153.076 264.665C153.488 264.575 153.911 264.538 154.334 264.555C154.334 264.555 153.897 264.555 153.094 264.75C151.925 265.035 150.807 265.483 149.776 266.08C145.973 268.289 142.907 271.487 140.936 275.298C139.358 277.806 138.191 280.53 137.475 283.375C136.81 286.669 136.585 290.03 136.806 293.378C137.172 300.492 137.582 308.305 138.01 316.501C138.822 332.902 139.562 347.735 140.098 358.513C140.338 363.872 140.535 368.217 140.677 371.25C140.731 372.733 140.775 373.892 140.811 374.71V375.613C140.815 375.716 140.803 375.819 140.775 375.919Z" fill="#455A64"/>
<path d="M145.512 262.075C145.512 262.075 145.601 261.93 145.806 261.649L146.698 260.422C147.519 259.349 148.741 257.773 150.382 255.787C152.024 253.802 154.075 251.391 156.626 248.716C157.902 247.387 159.302 245.989 160.881 244.592C161.675 243.893 162.505 243.195 163.405 242.53C164.323 241.828 165.305 241.206 166.34 240.673C166.887 240.405 167.457 240.183 168.044 240.008L168.989 239.864H169.935C171.218 239.894 172.498 239.99 173.771 240.153C176.366 240.477 179.051 240.946 181.799 241.482C187.329 242.547 193.216 243.876 199.398 245.35C211.77 248.315 225.355 251.868 239.663 255.847L239.957 255.924L239.787 256.179L234.221 264.444L210.191 300.049L210.039 300.279L209.852 300.066C201.11 290.191 193.207 281.271 186.526 273.713L186.606 273.765L161.345 266.625L154.485 264.665L152.701 264.146C152.3 264.026 152.104 263.95 152.104 263.95L152.719 264.103L154.503 264.58L161.39 266.454L186.696 273.458L210.084 299.751H209.745L233.74 264.12L239.315 255.856L239.44 256.188C225.168 252.218 211.565 248.648 199.21 245.657C193.029 244.166 187.159 242.828 181.638 241.746C178.873 241.21 176.206 240.733 173.61 240.409C172.351 240.237 171.082 240.134 169.81 240.102H168.918L168.026 240.23C167.455 240.391 166.903 240.605 166.376 240.869C165.357 241.386 164.39 241.99 163.486 242.675C162.594 243.331 161.755 244.021 160.97 244.711C159.391 246.1 157.982 247.48 156.698 248.801C154.138 251.451 152.077 253.845 150.454 255.813C148.83 257.781 147.546 259.34 146.707 260.397L145.753 261.598C145.628 261.947 145.512 262.075 145.512 262.075Z" fill="#455A64"/>
<path d="M172.709 289.331C172.834 289.331 172.45 293.804 171.817 299.282C171.184 304.76 170.604 309.199 170.479 309.182C170.354 309.165 170.747 304.718 171.371 299.239C171.995 293.761 172.584 289.322 172.709 289.331Z" fill="#455A64"/>
<path d="M261.846 110.181C262.574 107.411 264.06 104.876 266.152 102.836C268.244 100.796 270.867 99.3255 273.751 98.5743C276.636 97.8231 279.677 97.8188 282.564 98.5618C285.45 99.3049 288.078 100.768 290.176 102.802C291.88 104.447 293.236 106.466 295.243 107.752C297.517 109.218 297.848 108.783 300.39 109.746C302.932 110.709 307.606 117.474 307.526 120.089L308.801 131.549C308.694 134.233 305.091 135.741 302.423 134.863C299.756 133.985 297.963 131.617 296.599 129.291C295.234 126.965 293.878 124.452 291.577 122.909C287.759 120.353 282.594 121.205 278.018 122.117C273.442 123.029 268.206 123.651 264.638 120.779C261.534 118.309 260.865 113.904 261.846 110.181Z" fill="#263238"/>
<path d="M259.331 126.539C259.84 119.084 265.04 109.942 272.818 110.743L297.098 116.707C298.238 116.824 299.291 117.345 300.049 118.166C300.807 118.988 301.215 120.051 301.193 121.146L298.454 177.105H298.624C298.624 177.105 288.749 197.11 272.693 192.288C269.509 191.325 272.399 183.768 271.801 180.36H271.632C271.632 179.951 271.632 179.576 271.632 179.184C271.316 176.639 271.283 174.068 271.534 171.516V171.516C271.489 167 271.489 165.152 271.489 165.186C271.489 165.22 261.472 163.584 259.429 151.145C258.421 144.959 258.769 134.829 259.331 126.539Z" fill="#FFBE9D"/>
<path d="M263.006 136.55C263.001 136.966 263.166 137.368 263.466 137.67C263.765 137.972 264.176 138.151 264.612 138.169C264.825 138.184 265.039 138.158 265.241 138.094C265.443 138.03 265.631 137.928 265.792 137.794C265.952 137.66 266.084 137.497 266.179 137.314C266.273 137.131 266.329 136.932 266.342 136.729C266.345 136.314 266.179 135.915 265.88 135.614C265.58 135.314 265.171 135.136 264.737 135.119C264.524 135.102 264.311 135.127 264.108 135.19C263.906 135.254 263.719 135.355 263.557 135.488C263.396 135.621 263.265 135.784 263.17 135.966C263.075 136.148 263.02 136.347 263.006 136.55Z" fill="#263238"/>
<path d="M261.623 131.821C261.829 132.026 263.095 131.131 264.897 131.14C266.699 131.148 268.001 131.992 268.197 131.804C268.394 131.617 268.081 131.336 267.511 130.952C266.73 130.424 265.792 130.149 264.835 130.169C263.9 130.16 262.988 130.438 262.23 130.961C261.713 131.353 261.525 131.728 261.623 131.821Z" fill="#263238"/>
<path d="M279.24 136.652C279.233 137.068 279.398 137.47 279.698 137.772C279.998 138.073 280.411 138.249 280.846 138.263C281.058 138.28 281.272 138.256 281.474 138.193C281.677 138.13 281.864 138.029 282.025 137.895C282.185 137.762 282.316 137.599 282.409 137.416C282.503 137.233 282.557 137.034 282.568 136.831C282.573 136.416 282.408 136.015 282.108 135.714C281.808 135.413 281.397 135.236 280.962 135.221C280.75 135.203 280.536 135.227 280.334 135.29C280.131 135.353 279.944 135.454 279.784 135.588C279.623 135.722 279.492 135.885 279.399 136.067C279.306 136.25 279.252 136.449 279.24 136.652Z" fill="#263238"/>
<path d="M279.285 132.179C279.49 132.384 280.757 131.489 282.55 131.498C284.343 131.506 285.663 132.35 285.859 132.162C286.056 131.975 285.743 131.694 285.172 131.31C284.39 130.785 283.453 130.51 282.496 130.526C281.562 130.52 280.65 130.798 279.892 131.319C279.366 131.711 279.196 132.06 279.285 132.179Z" fill="#263238"/>
<path d="M272.729 144.891C271.784 144.599 270.804 144.427 269.812 144.38C269.357 144.329 268.92 144.244 268.849 143.945C268.808 143.494 268.914 143.042 269.152 142.65C269.589 141.585 270.044 140.478 270.517 139.31C272.417 134.565 273.79 130.663 273.585 130.595C273.38 130.526 271.685 134.309 269.794 139.055C269.339 140.231 268.902 141.347 268.483 142.412C268.199 142.936 268.114 143.538 268.242 144.116C268.31 144.27 268.414 144.407 268.545 144.518C268.676 144.628 268.832 144.709 269 144.755C269.253 144.823 269.514 144.857 269.776 144.857C270.755 144.986 271.747 144.998 272.729 144.891V144.891Z" fill="#263238"/>
<path d="M271.444 165.186C277.575 165.291 283.616 163.766 288.892 160.781C288.892 160.781 284.432 169.429 271.444 168.236V165.186Z" fill="#EB996E"/>
<path d="M273.487 149.023C273.829 148.613 274.275 148.294 274.782 148.094C275.289 147.894 275.841 147.821 276.386 147.882C276.783 147.917 277.168 148.028 277.519 148.208C277.87 148.388 278.179 148.633 278.429 148.93C278.669 149.216 278.811 149.566 278.835 149.932C278.858 150.298 278.764 150.662 278.563 150.974C278.275 151.283 277.897 151.503 277.477 151.605C277.057 151.706 276.615 151.686 276.208 151.545C275.359 151.256 274.579 150.807 273.915 150.225C273.711 150.09 273.535 149.92 273.398 149.722C273.332 149.627 273.297 149.516 273.297 149.402C273.297 149.289 273.332 149.178 273.398 149.083" fill="#EB996E"/>
<path d="M278.019 146.084C277.724 146.084 277.715 147.933 276.047 149.253C274.379 150.574 272.301 150.361 272.283 150.616C272.283 150.736 272.747 150.983 273.621 151.008C274.763 151.024 275.874 150.656 276.761 149.969C277.61 149.308 278.157 148.358 278.286 147.319C278.366 146.544 278.152 146.075 278.019 146.084Z" fill="#263238"/>
<path d="M278.848 125.644C279.026 126.113 280.819 125.9 282.924 126.147C285.03 126.394 286.733 126.939 287.019 126.522C287.144 126.326 286.849 125.883 286.127 125.431C285.208 124.873 284.168 124.523 283.085 124.407C282.003 124.292 280.908 124.415 279.883 124.767C279.196 125.057 278.777 125.423 278.848 125.644Z" fill="#263238"/>
<path d="M262.292 126.854C262.614 127.246 263.853 126.854 265.334 126.854C266.815 126.854 268.082 127.118 268.376 126.709C268.501 126.513 268.305 126.122 267.76 125.755C267.022 125.308 266.16 125.083 265.286 125.107C264.412 125.131 263.565 125.404 262.854 125.891C262.328 126.266 262.159 126.667 262.292 126.854Z" fill="#263238"/>
<path d="M273.246 107.565L274.352 106.21C281.871 107.038 289.238 108.835 296.251 111.552C299.052 112.634 301.889 113.938 303.797 116.179C306.473 119.246 306.857 123.489 307.151 127.451C308.293 142.54 309.239 158.08 304.27 172.436C303.075 170.604 300.702 169.778 298.508 169.369C296.314 168.96 293.95 168.815 291.943 167.835C290.842 167.276 289.877 166.503 289.109 165.565C288.34 164.627 287.787 163.546 287.483 162.391C286.9 160.063 287.183 157.614 288.286 155.464C289.499 153.07 291.648 150.761 291.122 148.154C290.596 145.547 287.295 143.894 286.519 141.185C285.19 136.55 291.996 132.392 290.623 127.774C290.301 126.941 289.804 126.179 289.163 125.536C288.522 124.893 287.75 124.382 286.894 124.034C285.226 123.242 283.406 122.807 281.72 122.058C278.932 120.752 276.627 118.665 275.113 116.076C273.599 113.486 272.948 110.517 273.246 107.565V107.565Z" fill="#263238"/>
<path d="M309.613 174.881C309.613 174.881 320.058 179.993 323.216 184.748C332.431 198.712 322.074 244.175 322.074 244.175C316.692 238.373 309.817 234.015 302.129 231.531L298.508 230.355C292.536 228.444 287.068 225.323 282.477 221.205C277.886 217.088 274.281 212.071 271.908 206.499L260.723 180.275L309.613 174.881Z" fill="#FF725E"/>
<path d="M290.176 102.802C297.776 103.203 301.157 104.847 309.238 115.667C318.257 127.74 324.804 152.568 319.425 165.816C317.267 171.107 314.822 173.152 314.822 173.152L293.896 173.075L275.931 173.016L268.412 168.994C273.764 171.201 284.191 166.924 288.847 163.524C293.504 160.125 296.492 155.388 299.203 150.429C301.469 146.288 303.155 142.386 302.771 137.734C302.433 133.807 300.256 129.393 298.668 125.755" fill="#FF725E"/>
<path d="M324.144 186.145C324.144 186.145 319.639 177.318 313.77 172.513C307.901 167.708 304.288 167.708 295.93 168.381C287.572 169.054 274.575 170.017 271.801 169.352C271.177 169.199 271.703 165.245 271.703 165.245C270.33 165.109 265.745 163.167 264.648 161.582L262.105 168.159L260.732 168.653C258.706 169.362 257.025 170.757 256.008 172.574C254.992 174.39 254.711 176.501 255.219 178.502C255.736 180.411 257.003 181.587 259.536 182.004C269.598 183.708 296.492 176.722 304.6 176.679C312.708 176.637 324.144 186.145 324.144 186.145Z" fill="#FF725E"/>
<path d="M258.626 181.868C258.861 181.847 259.097 181.847 259.331 181.868C259.786 181.868 260.455 181.979 261.329 182.03C263.78 182.216 266.241 182.255 268.697 182.149C272.339 181.971 275.958 181.501 279.517 180.743C281.524 180.326 283.62 179.815 285.761 179.227L292.398 177.267C296.947 175.938 301.514 175.043 305.688 175.435C309.369 175.762 312.929 176.859 316.116 178.647C318.258 179.843 320.196 181.346 321.86 183.103C322.31 183.581 322.733 184.082 323.127 184.603C323.271 184.779 323.402 184.964 323.519 185.157C323.344 185.006 323.185 184.837 323.047 184.654C322.77 184.313 322.315 183.802 321.727 183.223C317.493 178.978 311.784 176.355 305.671 175.844C301.576 175.478 297.081 176.372 292.549 177.693C290.275 178.349 288.089 179.039 285.904 179.644C283.718 180.249 281.631 180.735 279.615 181.144C276.029 181.886 272.382 182.328 268.715 182.464C266.247 182.538 263.776 182.453 261.32 182.209C260.428 182.123 259.777 182.021 259.322 181.953C259.088 181.947 258.855 181.918 258.626 181.868Z" fill="#263238"/>
<path d="M267.475 163.473C267.55 163.634 267.607 163.803 267.645 163.976C267.752 164.308 267.903 164.828 268.144 165.407C268.438 166.153 268.79 166.876 269.197 167.571C269.718 168.483 270.4 169.301 271.213 169.991C272.398 170.529 273.715 170.75 275.021 170.63C276.555 170.585 278.083 170.445 279.597 170.212C281.203 169.982 282.88 169.676 284.61 169.318L287.286 168.756C288.178 168.594 289.115 168.406 290.052 168.313C293.562 167.794 297.117 167.597 300.666 167.725C303.578 167.855 306.44 168.49 309.114 169.599C310.92 170.344 312.573 171.391 313.993 172.692C314.374 173.045 314.732 173.42 315.063 173.816C315.184 173.952 315.291 174.097 315.384 174.251C315.384 174.251 314.885 173.697 313.868 172.82C312.425 171.587 310.775 170.593 308.989 169.88C306.333 168.846 303.506 168.269 300.64 168.176C297.119 168.071 293.595 168.277 290.114 168.79C289.169 168.892 288.277 169.079 287.385 169.233L284.709 169.786C282.966 170.144 281.283 170.428 279.66 170.638C278.127 170.866 276.581 170.994 275.03 171.022C273.648 171.134 272.261 170.875 271.025 170.272C270.185 169.546 269.49 168.68 268.974 167.716C268.574 167.004 268.24 166.26 267.975 165.492C267.806 165.012 267.667 164.522 267.555 164.027C267.509 163.846 267.482 163.66 267.475 163.473V163.473Z" fill="#263238"/>
<g opacity="0.3">
<path opacity="0.3" d="M302.932 175.742C295.93 175.742 289.026 178.843 282.247 180.394C275.467 181.945 270.347 182.2 263.336 182.098L262.596 185.233C270.918 189.493 280.596 189.587 289.57 186.861C294.922 185.25 299.748 182.456 305.109 180.99C310.469 179.525 318.203 180.087 322.271 183.734C318.622 177.983 309.943 175.734 302.932 175.742Z" fill="black"/>
</g>
<g opacity="0.3">
<path opacity="0.3" d="M267.422 175.043C267.752 175.726 268.231 176.333 268.826 176.825C269.421 177.317 270.119 177.683 270.874 177.898C272.386 178.308 273.967 178.435 275.53 178.272C281.248 177.906 286.733 176.083 292.148 174.277C287.822 174.132 283.638 175.572 279.401 176.381C275.164 177.19 270.374 177.233 266.913 174.771" fill="black"/>
</g>
<path d="M167.642 373.125L166.884 379.319C166.829 379.778 166.596 380.201 166.231 380.505C165.867 380.809 165.397 380.973 164.913 380.963L142.238 380.648C141.755 380.643 141.291 380.465 140.937 380.15C140.584 379.835 140.367 379.404 140.329 378.944L139.767 372.895C139.745 372.636 139.779 372.376 139.868 372.13C139.957 371.885 140.098 371.66 140.282 371.469C140.467 371.278 140.691 371.127 140.94 371.023C141.189 370.919 141.458 370.866 141.73 370.867L165.716 371.037C165.991 371.038 166.263 371.094 166.514 371.203C166.765 371.311 166.989 371.469 167.171 371.667C167.354 371.864 167.49 372.096 167.571 372.347C167.652 372.599 167.676 372.864 167.642 373.125V373.125Z" fill="#EBEBEB"/>
<path d="M141.364 380.682C142.511 380.927 143.678 381.078 144.852 381.134C147.01 381.33 150.008 381.534 153.317 381.594C156.626 381.653 159.641 381.526 161.8 381.355C162.888 381.27 163.762 381.185 164.36 381.108C164.679 381.094 164.994 381.036 165.296 380.938C164.125 380.883 162.951 380.903 161.782 380.997C159.623 381.074 156.635 381.134 153.326 381.083C150.016 381.031 147.082 380.878 144.878 380.776C143.711 380.668 142.536 380.636 141.364 380.682V380.682Z" fill="#263238"/>
<path d="M161.943 380.52C162.758 379.044 163.149 377.388 163.075 375.72C163.002 374.053 162.466 372.434 161.523 371.029C161.372 371.088 162.415 373.074 162.54 375.74C162.665 378.407 161.782 380.469 161.943 380.52Z" fill="#263238"/>
<path d="M153.602 381.406C154.268 377.963 154.376 374.443 153.923 370.969C153.772 370.969 153.736 373.312 153.647 376.183C153.558 379.055 153.424 381.389 153.602 381.406Z" fill="#263238"/>
<path d="M144.504 380.392C144.673 380.392 143.915 378.143 144.504 375.442C145.093 372.741 146.627 370.961 146.484 370.876C146.341 370.79 145.976 371.208 145.423 371.983C144.722 373.003 144.234 374.143 143.986 375.34C143.735 376.541 143.735 377.777 143.986 378.978C144.047 379.48 144.224 379.963 144.504 380.392Z" fill="#263238"/>
<path d="M327.373 358.837L319.256 409.556H311.201L314.814 357.797L327.373 358.837Z" fill="#455A64"/>
<path d="M184.492 359.033V409.556H175.992L172.825 358.837L184.492 359.033Z" fill="#455A64"/>
<path d="M319.818 209.362C321.236 205.758 325.839 187.142 329.879 187.21C332.394 187.419 334.876 187.89 337.283 188.616C340.581 189.523 343.454 191.481 345.426 194.164C347.398 196.846 348.349 200.093 348.121 203.364L346.703 224.4C347.041 226.777 327.373 358.803 327.373 358.803H319.274L172.825 360.098L167.865 348.579L171.728 298.899L209.406 299.154C209.406 299.154 224.365 255.847 238.387 252.908C247.878 250.914 269.286 251.468 282.853 254.612L298.089 258.471L319.818 209.362Z" fill="#455A64"/>
<path d="M200.557 359.885C200.569 359.673 200.551 359.461 200.504 359.254C200.432 358.794 200.334 358.206 200.227 357.474C200.12 356.741 199.933 355.77 199.808 354.654C199.683 353.537 199.469 352.302 199.371 350.913C199.273 349.524 199.085 347.999 199.023 346.355C198.96 344.711 198.907 342.947 198.88 341.115C198.896 337.112 199.14 333.113 199.612 329.136C200.122 325.161 200.846 321.214 201.779 317.31C202.671 313.723 203.617 310.494 204.527 307.862C204.946 306.524 205.419 305.306 205.793 304.292C206.168 303.278 206.516 302.349 206.81 301.616L207.461 299.912C207.553 299.72 207.619 299.516 207.657 299.308C207.538 299.484 207.44 299.673 207.363 299.87L206.614 301.523C206.284 302.247 205.9 303.125 205.499 304.172C205.097 305.22 204.607 306.396 204.161 307.734C203.197 310.384 202.198 313.587 201.289 317.191C200.321 321.105 199.58 325.067 199.067 329.059C198.598 333.057 198.365 337.076 198.372 341.098C198.416 342.956 198.434 344.719 198.568 346.364C198.702 348.008 198.827 349.533 198.978 350.93C199.13 352.328 199.344 353.58 199.505 354.679C199.665 355.778 199.852 356.724 200.013 357.491C200.174 358.258 200.298 358.803 200.397 359.263C200.427 359.475 200.481 359.683 200.557 359.885V359.885Z" fill="#263238"/>
<path d="M326.9 271.217C326.765 271.163 326.639 271.092 326.525 271.004L325.526 270.314C325.098 269.999 324.563 269.641 323.921 269.249C323.279 268.857 322.583 268.397 321.744 267.928C320.906 267.46 320.023 266.949 319.024 266.454C318.025 265.96 316.954 265.449 315.821 264.912C313.529 263.898 310.96 262.867 308.222 261.913C302.727 260.013 297.625 258.633 293.95 257.653L289.57 256.452L288.383 256.111C288.116 256.026 287.973 255.975 287.982 255.958C288.127 255.965 288.271 255.988 288.41 256.026L289.614 256.282C290.658 256.52 292.166 256.869 294.021 257.338C297.732 258.258 302.861 259.587 308.373 261.496C311.138 262.459 313.725 263.506 316.009 264.546C317.142 265.091 318.23 265.585 319.211 266.131C320.192 266.676 321.111 267.17 321.887 267.664C322.663 268.158 323.412 268.627 324.037 269.045C324.578 269.395 325.099 269.773 325.598 270.178L326.552 270.927C326.681 271.009 326.798 271.107 326.9 271.217Z" fill="#263238"/>
<path d="M314.813 357.84C314.813 357.84 314.813 357.687 314.858 357.405C314.903 357.124 314.947 356.681 315.019 356.136C315.179 355.011 315.402 353.375 315.688 351.279C316.303 347.019 317.177 340.945 318.257 333.388C319.336 325.83 320.665 316.876 322.119 306.907C323.573 296.939 325.428 286.016 327.471 274.531C331.512 251.63 335.499 230.943 338.38 215.973C339.852 208.51 341.056 202.469 341.886 198.269C342.314 196.19 342.644 194.571 342.876 193.455L343.143 192.211C343.206 191.93 343.25 191.785 343.25 191.785C343.237 191.931 343.217 192.076 343.188 192.22C343.134 192.518 343.063 192.935 342.965 193.472C342.76 194.597 342.457 196.216 342.073 198.294C341.279 202.503 340.128 208.518 338.71 216.033C335.882 231.011 331.976 251.706 327.935 274.608C325.928 286.059 324.081 296.982 322.583 306.933C321.084 316.884 319.755 325.856 318.622 333.396C317.489 340.936 316.562 347.028 315.946 351.237L315.179 356.085C315.09 356.622 315.028 357.039 314.974 357.337C314.921 357.635 314.813 357.84 314.813 357.84Z" fill="#263238"/>
<path d="M168.855 328.335C168.855 328.216 175.492 328.114 183.681 328.114C191.869 328.114 198.497 328.216 198.497 328.335C198.497 328.454 191.86 328.565 183.681 328.565C175.501 328.565 168.855 328.463 168.855 328.335Z" fill="#263238"/>
<path d="M238.164 160.9C238.164 160.9 238.69 157.68 236.184 158.089C233.677 158.498 232.152 162.238 232.152 162.238C232.152 162.238 229.057 163.354 228.834 164.385C228.611 165.416 230.662 167.955 230.662 167.955C229.746 168.246 228.9 168.71 228.173 169.318C227.139 170.247 228.173 171.371 229.065 173.041C229.533 173.973 230.17 174.819 230.948 175.538C230.544 175.862 230.227 176.272 230.021 176.735C229.815 177.199 229.726 177.702 229.761 178.204C230.02 179.729 232.598 181.8 232.598 181.8C233.687 182.498 234.724 183.266 235.702 184.1C237.043 185.201 238.443 186.236 239.894 187.201H248.538L249.965 180.692L239.35 171.686L238.164 160.9Z" fill="#FFBE9D"/>
<path d="M261.356 158.745C261.501 158.692 261.656 158.671 261.811 158.684C261.966 158.696 262.115 158.742 262.249 158.817C262.382 158.893 262.497 158.996 262.583 159.119C262.669 159.242 262.725 159.382 262.747 159.528C263.033 161.232 263.586 163.959 263.916 165.007C264.184 165.859 262.89 169.267 262.89 169.267L259.322 165.757C259.322 165.757 258.742 162.528 259.26 160.645C259.431 160.194 259.709 159.788 260.073 159.458C260.437 159.128 260.876 158.884 261.356 158.745Z" fill="#EB996E"/>
<path d="M260.598 160.176L239.698 155.379C239.698 155.379 235.024 168.824 235.515 172.198C235.644 173.319 236.031 174.398 236.648 175.36C237.265 176.322 238.096 177.142 239.083 177.761L249.938 180.036C249.938 180.036 257.271 179.363 259.483 168.824C260.089 165.825 260.598 160.176 260.598 160.176Z" fill="white"/>
<path d="M260.598 160.176C260.612 160.326 260.612 160.477 260.598 160.628C260.598 160.96 260.535 161.394 260.5 161.94C260.393 163.081 260.241 164.76 259.938 166.864C259.783 168.027 259.551 169.18 259.242 170.315C259.108 170.945 258.841 171.567 258.626 172.223C258.372 172.894 258.074 173.548 257.734 174.183C257.003 175.592 256.002 176.858 254.782 177.915C253.43 179.104 251.754 179.907 249.947 180.232H249.876L239.02 177.983C237.523 177.029 236.398 175.631 235.818 174.004C235.501 173.165 235.34 172.28 235.345 171.388C235.398 170.53 235.511 169.676 235.684 168.832C236.014 167.128 236.434 165.561 236.862 164.01C237.754 160.9 238.646 158.046 239.6 155.337L239.654 155.166L239.841 155.209L255.005 158.796L259.224 159.818L260.321 160.099C260.447 160.12 260.57 160.154 260.687 160.202C260.546 160.19 260.405 160.167 260.268 160.133L259.126 159.895L254.844 158.966L239.743 155.558L239.984 155.43C239.092 158.089 238.2 160.994 237.308 164.087C236.88 165.629 236.469 167.231 236.148 168.875C235.976 169.696 235.865 170.527 235.818 171.363C235.811 172.203 235.965 173.038 236.273 173.825C236.812 175.351 237.862 176.666 239.261 177.565H239.19L250.045 179.849H249.974C251.695 179.53 253.292 178.77 254.595 177.65C255.786 176.63 256.768 175.408 257.494 174.047C257.824 173.422 258.122 172.782 258.386 172.13C258.6 171.482 258.867 170.877 259.01 170.255C259.331 169.135 259.582 167.997 259.759 166.847C260.089 164.751 260.286 163.081 260.428 161.948C260.5 161.403 260.553 160.968 260.598 160.645C260.574 160.489 260.574 160.331 260.598 160.176V160.176Z" fill="#263238"/>
<path d="M254.157 162.809C254.157 162.809 258.403 163.013 258.163 165.365L261.222 165.731C261.33 164.745 261.042 163.757 260.416 162.966C259.79 162.175 258.873 161.641 257.85 161.471L254.702 160.755" fill="white"/>
<path d="M254.702 160.747C255.573 160.812 256.436 160.955 257.28 161.173C258.251 161.298 259.172 161.659 259.956 162.221C260.434 162.588 260.82 163.054 261.084 163.584C261.348 164.113 261.484 164.693 261.481 165.279C261.494 165.441 261.494 165.603 261.481 165.765V165.987H261.249L258.189 165.603H257.984V165.407C258.002 165.093 257.928 164.78 257.77 164.503C257.613 164.226 257.378 163.997 257.092 163.84C256.63 163.557 256.124 163.345 255.594 163.209C254.702 162.971 254.149 162.919 254.149 162.868C254.653 162.801 255.167 162.836 255.656 162.971C256.228 163.079 256.777 163.277 257.28 163.558C257.605 163.738 257.88 163.989 258.082 164.291C258.3 164.637 258.4 165.039 258.368 165.441L258.181 165.228L261.24 165.578L260.981 165.765C260.995 165.626 260.995 165.486 260.981 165.348C260.983 164.824 260.865 164.307 260.635 163.831C260.406 163.356 260.07 162.934 259.652 162.596C258.926 162.06 258.076 161.697 257.173 161.539C256.326 161.346 255.499 161.081 254.702 160.747Z" fill="#263238"/>
<path d="M262.765 184.194C262.765 184.194 265.441 174.498 265.513 173.118C265.584 171.738 261.356 163.814 259.786 163.584C258.216 163.354 255.201 162.732 254.157 165.101C254.157 165.101 250.857 164.351 249.974 168.9C249.974 168.9 247.744 169.071 247.485 170.357C247.309 171.99 247.247 173.633 247.298 175.273C246.901 175.077 246.448 175.009 246.007 175.079C245.566 175.15 245.162 175.356 244.854 175.665C243.873 176.781 244.568 177.829 245.264 178.792C245.831 179.526 246.448 180.223 247.111 180.88C247.111 180.88 246.495 185.532 246.79 186.793C246.855 187.145 247.028 187.471 247.287 187.73C247.546 187.989 247.878 188.17 248.243 188.249L262.471 185.975L262.765 184.194Z" fill="#FFBE9D"/>
<path d="M249.974 168.858C249.974 168.815 250.393 168.807 250.973 169.079C251.703 169.461 252.331 169.998 252.811 170.647C253.544 171.493 254.09 172.473 254.416 173.527C254.282 173.603 253.524 172.325 252.445 170.911C251.99 170.313 251.439 169.787 250.813 169.352C250.322 169.037 249.956 168.935 249.974 168.858Z" fill="#EB996E"/>
<path d="M247.976 173.373C248.065 173.288 248.868 173.995 249.546 175.077C250.035 175.687 250.344 176.411 250.438 177.173C249.931 176.604 249.5 175.977 249.153 175.307C248.678 174.712 248.283 174.062 247.976 173.373V173.373Z" fill="#EB996E"/>
<path d="M249.956 177.02L247.673 175.376C247.557 175.29 247.441 175.478 247.557 175.555L249.84 177.199C249.956 177.284 250.072 177.097 249.956 177.02Z" fill="#EB996E"/>
<path d="M254.157 165.058C255.373 165.843 256.349 166.922 256.985 168.185C257.342 169.082 257.765 169.953 258.252 170.792C258.662 171.388 259.072 171.644 259.028 171.704C258.983 171.763 258.51 171.584 257.993 170.979C257.409 170.173 256.933 169.3 256.575 168.381C255.487 166.43 254.041 165.16 254.157 165.058Z" fill="#EB996E"/>
<path d="M230.859 168.142C232.069 167.505 233.452 167.231 234.828 167.354C236.203 167.477 237.509 167.992 238.574 168.832C238.744 168.959 238.884 169.119 238.985 169.301C239.048 169.504 239.05 169.719 238.99 169.923C238.93 170.127 238.811 170.31 238.646 170.451C238.134 170.887 237.476 171.134 236.79 171.15C236.112 171.192 235.435 171.15 234.757 171.099C233.27 171.097 231.813 171.489 230.546 172.232" fill="#FFBE9D"/>
<path d="M230.912 168.236C231.884 167.727 232.971 167.451 234.079 167.434C235.187 167.416 236.283 167.656 237.272 168.134C237.775 168.363 238.236 168.668 238.637 169.037C239.279 169.659 238.699 170.426 238.03 170.741C236.862 171.303 235.488 170.937 234.239 171.013C232.911 171.093 231.622 171.479 230.484 172.138C230.359 172.206 230.484 172.394 230.6 172.326C231.941 171.548 233.492 171.163 235.06 171.218C236.273 171.218 237.736 171.448 238.672 170.562C238.856 170.414 238.994 170.22 239.069 170.002C239.145 169.784 239.156 169.55 239.101 169.326C238.94 168.866 238.378 168.534 237.977 168.278C236.989 167.678 235.861 167.321 234.694 167.239C233.332 167.149 231.973 167.446 230.787 168.091C230.662 168.159 230.787 168.347 230.903 168.278L230.912 168.236Z" fill="#EB996E"/>
<path d="M231.207 175.265C232.072 174.348 233.178 173.669 234.411 173.299C235.644 172.929 236.959 172.881 238.218 173.16C238.218 174.081 238.155 175.129 237.397 175.716C236.91 175.992 236.38 176.191 235.827 176.304C235.269 176.503 234.765 176.819 234.353 177.229C233.941 177.639 233.631 178.133 233.445 178.673" fill="#FFBE9D"/>
<path d="M231.287 175.342C232.138 174.44 233.226 173.772 234.438 173.406C235.65 173.041 236.943 172.991 238.182 173.263L238.102 173.16C238.153 173.815 238.043 174.471 237.78 175.077C237.388 175.81 236.594 175.929 235.854 176.168C235.265 176.368 234.733 176.693 234.297 177.12C233.861 177.547 233.533 178.064 233.338 178.63C233.285 178.758 233.508 178.818 233.552 178.681C233.791 178.007 234.231 177.414 234.819 176.977C235.456 176.588 236.155 176.3 236.888 176.125C238.173 175.64 238.325 174.37 238.325 173.203C238.324 173.18 238.316 173.158 238.301 173.14C238.287 173.121 238.267 173.108 238.244 173.101C236.964 172.815 235.627 172.861 234.372 173.236C233.117 173.61 231.99 174.299 231.108 175.231C231.01 175.333 231.171 175.486 231.269 175.384L231.287 175.342Z" fill="#EB996E"/>
<path d="M231.295 162.596C231.295 162.596 234.328 161.147 235.657 161.215C236.986 161.284 239.413 161.872 239.654 162.792C239.821 163.359 239.758 163.966 239.477 164.49C239.196 165.015 238.717 165.419 238.137 165.62C237.078 165.812 235.988 165.78 234.944 165.527L233.16 166.225" fill="#FFBE9D"/>
<path d="M233.178 166.225C233.716 165.885 234.29 165.599 234.89 165.373V165.373H234.944C235.91 165.583 236.91 165.609 237.887 165.45C238.17 165.39 238.434 165.27 238.661 165.099C238.889 164.928 239.072 164.71 239.199 164.462C239.48 163.934 239.535 163.323 239.35 162.758C239.009 162.347 238.541 162.049 238.012 161.906C237.496 161.73 236.965 161.596 236.424 161.505C235.954 161.4 235.466 161.383 234.988 161.454C234.563 161.531 234.143 161.633 233.731 161.761C232.205 162.246 231.287 162.613 231.26 162.613C231.981 162.127 232.775 161.748 233.615 161.488C234.038 161.328 234.473 161.2 234.917 161.105C235.172 161.055 235.432 161.032 235.693 161.036C235.961 161.036 236.228 161.088 236.496 161.122C237.063 161.206 237.621 161.337 238.164 161.514C238.455 161.616 238.738 161.739 239.011 161.88C239.327 162.034 239.59 162.27 239.769 162.562C239.898 162.91 239.949 163.281 239.918 163.649C239.887 164.017 239.776 164.375 239.591 164.7C239.431 164.998 239.202 165.257 238.923 165.459C238.644 165.661 238.32 165.801 237.977 165.867C236.94 166.028 235.878 165.961 234.872 165.671H234.962C234.387 165.91 233.79 166.096 233.178 166.225V166.225Z" fill="#EB996E"/>
<path d="M244.622 177.557C245.128 177.919 245.542 178.385 245.835 178.92C246.173 179.502 246.337 180.163 246.308 180.828C246.308 181.561 246.147 182.336 246.129 183.137C246.096 184.508 246.441 185.862 247.128 187.065C247.655 188.002 248.136 188.488 248.083 188.539C247.563 188.205 247.138 187.755 246.843 187.227C246.034 186 245.624 184.57 245.666 183.12C245.666 182.268 245.862 181.51 245.88 180.82C245.928 180.217 245.811 179.612 245.541 179.065C245.041 178.119 244.551 177.608 244.622 177.557Z" fill="#EB996E"/>
<path d="M256.637 139.626C256.637 139.668 256.325 139.677 256.004 140.035C255.81 140.312 255.684 140.628 255.636 140.959C255.588 141.289 255.619 141.626 255.727 141.943C255.825 142.361 256.013 142.795 256.129 143.349C256.281 143.933 256.218 144.55 255.95 145.096C255.335 146.254 254.059 146.91 253.132 147.856C252.669 148.283 252.373 148.848 252.293 149.458C252.265 150.042 252.378 150.626 252.623 151.162C253.137 152.092 253.547 153.072 253.845 154.084C253.929 154.444 253.93 154.817 253.848 155.177C253.766 155.538 253.604 155.877 253.372 156.172C253.025 156.581 252.703 156.649 252.703 156.623C252.703 156.598 252.953 156.47 253.23 156.069C253.59 155.49 253.696 154.798 253.524 154.144C253.184 153.168 252.751 152.224 252.231 151.324C251.946 150.731 251.812 150.083 251.838 149.432C251.925 148.722 252.261 148.061 252.793 147.558C253.81 146.552 255.032 145.905 255.567 144.925C256.102 143.945 255.567 142.889 255.406 142.02C255.303 141.662 255.291 141.285 255.372 140.922C255.452 140.559 255.623 140.219 255.87 139.932C256.289 139.541 256.655 139.617 256.637 139.626Z" fill="#263238"/>
<path d="M249.26 154.851C249.26 154.851 249.466 154.706 249.698 154.365C250.008 153.872 250.113 153.285 249.992 152.721C249.752 151.876 249.395 151.065 248.93 150.31C248.682 149.81 248.522 149.275 248.458 148.725C248.414 148.118 248.594 147.515 248.966 147.021C249.735 146.202 250.56 145.433 251.437 144.721C251.762 144.402 251.99 144.004 252.097 143.57C252.166 143.185 252.145 142.789 252.035 142.412C251.816 141.816 251.816 141.167 252.035 140.571C252.249 140.154 252.543 140.077 252.543 140.103C252.543 140.128 252.338 140.256 252.204 140.64C252.065 141.208 252.115 141.804 252.347 142.344C252.515 142.793 252.549 143.279 252.443 143.746C252.338 144.213 252.097 144.642 251.749 144.985C251.036 145.786 249.965 146.374 249.341 147.268C249.021 147.69 248.866 148.206 248.904 148.725C248.958 149.223 249.097 149.709 249.314 150.165C249.777 150.965 250.114 151.827 250.313 152.721C250.362 153.035 250.344 153.355 250.262 153.662C250.179 153.969 250.033 154.258 249.831 154.51C249.537 154.817 249.26 154.877 249.26 154.851Z" fill="#263238"/>
<path d="M288.598 409.752H294.324L317.231 323.138H305.439L288.598 409.752Z" fill="#263238"/>
<path d="M396.842 323.138H296.349H283.487V311.568H396.842V323.138Z" fill="#263238"/>
<path d="M397.582 409.616L391.856 409.667L368.057 323.274L379.84 323.164L397.582 409.616Z" fill="#263238"/>
<path d="M375.987 278.604H385.576C390.241 278.604 393.8 283.12 393.8 287.576V297.135C393.8 297.461 393.733 297.783 393.603 298.084C393.472 298.385 393.281 298.658 393.04 298.888C392.799 299.118 392.513 299.301 392.198 299.426C391.883 299.55 391.545 299.614 391.204 299.614V299.614C390.519 299.617 389.861 299.36 389.373 298.9C388.885 298.441 388.607 297.815 388.6 297.161C388.6 294.605 388.6 290.558 388.6 287.516C388.603 286.998 388.5 286.485 388.295 286.005C388.089 285.526 387.787 285.09 387.405 284.722C387.023 284.355 386.568 284.063 386.068 283.864C385.567 283.665 385.03 283.563 384.488 283.563H376.674L375.987 278.604Z" fill="#FF725E"/>
<path d="M346.819 281.16H352.59V283.656C352.59 283.656 344.66 285.36 344.437 294.681C344.214 304.002 344.437 305.485 344.437 305.485C344.437 305.485 345.507 311.363 352.59 311.508C358.397 311.628 372.731 311.551 377.655 311.508C379.45 311.514 381.206 311.013 382.704 310.068C383.515 309.601 384.195 308.951 384.685 308.176C385.174 307.402 385.459 306.524 385.514 305.621C385.665 301.063 385.514 291.81 385.514 291.81C385.514 291.81 384.738 285.531 378.128 283.699V278.144H350.931L346.783 279.933L346.819 281.16Z" fill="white"/>
<path d="M346.818 281.16C346.806 281.064 346.806 280.966 346.818 280.87C346.818 280.64 346.818 280.342 346.818 279.942L350.948 278.101L378.145 277.999H378.333V278.187C378.333 279.891 378.333 281.808 378.333 283.742L378.181 283.554C380.088 284.068 381.8 285.094 383.114 286.511C384.489 288.014 385.394 289.856 385.727 291.827C385.727 295.235 385.727 298.779 385.727 302.451V305.22C385.776 306.193 385.545 307.159 385.058 308.015C383.974 309.713 382.235 310.937 380.215 311.423C379.343 311.653 378.443 311.768 377.539 311.764H352.509L351.332 311.679L350.181 311.466C348.682 311.108 347.322 310.345 346.265 309.267C345.257 308.222 344.555 306.941 344.232 305.553C344.071 302.826 344.16 300.287 344.187 297.885C344.214 295.482 344.187 293.139 344.865 291.069C345.423 289.136 346.543 287.393 348.094 286.042C349.361 284.922 350.89 284.107 352.554 283.665L352.474 283.759C352.474 282.762 352.474 281.978 352.474 281.262L352.563 281.347L348.255 281.305H347.157C347.036 281.313 346.913 281.313 346.792 281.305H347.184H348.308L352.563 281.254H352.652V281.339C352.652 282.055 352.652 282.838 352.652 283.835V283.716H352.563C350.943 284.168 349.457 284.98 348.228 286.085C346.728 287.414 345.652 289.121 345.124 291.009C344.473 293.037 344.553 295.337 344.499 297.757C344.446 300.177 344.41 302.758 344.58 305.425C344.894 306.731 345.561 307.935 346.515 308.918C347.537 309.94 348.848 310.657 350.288 310.98C351.798 311.26 353.339 311.355 354.873 311.261H374.899C376.683 311.261 378.467 311.415 380.099 310.937C381.997 310.486 383.633 309.342 384.657 307.751C385.114 306.957 385.33 306.057 385.281 305.152V302.392C385.281 298.728 385.281 295.184 385.281 291.784C384.961 289.892 384.096 288.122 382.784 286.672C381.524 285.313 379.884 284.326 378.056 283.827L377.914 283.784V283.716C377.914 281.782 377.914 279.899 377.914 278.161L378.11 278.34L350.913 278.246L346.747 280.001V280.904C346.827 281.024 346.818 281.16 346.818 281.16Z" fill="#263238"/>
<path d="M383.676 295.968C383.676 295.968 383.819 300.049 383.676 304.241C383.641 305.011 383.419 305.763 383.028 306.438C382.636 307.112 382.085 307.69 381.419 308.126C380.002 309.133 378.28 309.671 376.513 309.659C372 309.659 359.048 309.762 353.785 309.659C352.068 309.707 350.387 309.179 349.036 308.165C347.685 307.152 346.749 305.718 346.39 304.113C346.39 304.113 346.132 304.641 346.346 296.053L383.676 295.968Z" fill="#8E6E68"/>
<path d="M361.394 292.798C357.913 293.094 354.412 293.094 350.931 292.798C354.412 292.503 357.913 292.503 361.394 292.798Z" fill="#455A64"/>
<path d="M361.394 297.944C357.913 298.24 354.412 298.24 350.931 297.944C354.412 297.649 357.913 297.649 361.394 297.944Z" fill="#455A64"/>
<path d="M361.394 303.099C357.913 303.394 354.412 303.394 350.931 303.099C354.412 302.804 357.913 302.804 361.394 303.099Z" fill="#455A64"/>
<path d="M350.931 278.127C350.931 278.127 352.295 274.122 363.802 274.122C375.309 274.122 377.084 278.127 377.084 278.127H350.931Z" fill="#FF725E"/>
<path d="M378.297 281.16C378.297 281.279 372.472 281.382 365.292 281.382C358.111 281.382 352.278 281.279 352.278 281.16C352.278 281.041 358.102 280.938 365.292 280.938C372.481 280.938 378.297 281.007 378.297 281.16Z" fill="#263238"/>
<path d="M378.297 283.716C378.297 283.835 372.472 283.937 365.292 283.937C358.111 283.937 352.278 283.835 352.278 283.716C352.278 283.597 358.102 283.494 365.292 283.494C372.481 283.494 378.297 283.554 378.297 283.716Z" fill="#263238"/>
<path d="M348.843 259.085C348.939 259.055 349.042 259.055 349.138 259.085C349.404 259.176 349.627 259.358 349.762 259.596C349.985 259.977 350.055 260.422 349.958 260.848C349.795 261.397 349.439 261.875 348.95 262.203C348.395 262.587 347.818 262.94 347.22 263.259C346.57 263.584 346.077 264.137 345.846 264.802C345.758 265.166 345.773 265.547 345.889 265.905C346.005 266.262 346.218 266.584 346.506 266.838C347.256 267.289 348.111 267.556 348.995 267.613C349.488 267.693 349.963 267.858 350.395 268.099C350.612 268.235 350.797 268.411 350.939 268.618C351.082 268.825 351.179 269.057 351.225 269.3C351.259 269.749 351.175 270.198 350.981 270.608C350.786 271.017 350.486 271.373 350.11 271.643C349.473 272.091 348.795 272.485 348.085 272.819C347.511 273.115 347.011 273.528 346.622 274.029C346.466 274.227 346.357 274.456 346.303 274.699C346.249 274.941 346.252 275.193 346.31 275.435C346.434 275.791 346.687 276.093 347.023 276.287C347.173 276.366 347.338 276.416 347.508 276.432C347.679 276.448 347.851 276.43 348.014 276.38C348.014 276.38 347.951 276.465 347.764 276.517C347.489 276.593 347.194 276.563 346.943 276.431C346.737 276.339 346.553 276.208 346.399 276.048C346.246 275.887 346.128 275.699 346.051 275.494C345.969 275.216 345.951 274.923 346.001 274.637C346.05 274.352 346.165 274.08 346.337 273.841C346.734 273.282 347.263 272.818 347.88 272.487C348.56 272.146 349.211 271.752 349.824 271.311C350.137 271.083 350.386 270.785 350.55 270.443C350.713 270.101 350.786 269.726 350.761 269.351C350.725 269.167 350.651 268.993 350.542 268.837C350.433 268.682 350.292 268.55 350.128 268.448C349.743 268.241 349.323 268.1 348.888 268.031C347.934 267.97 347.013 267.677 346.212 267.179C345.868 266.869 345.616 266.479 345.481 266.046C345.346 265.614 345.334 265.155 345.445 264.716C345.71 263.956 346.277 263.326 347.023 262.961C347.666 262.595 348.281 262.322 348.807 261.973C349.25 261.694 349.585 261.284 349.762 260.806C349.864 260.436 349.826 260.044 349.655 259.698C349.571 259.548 349.456 259.416 349.316 259.31C349.176 259.205 349.015 259.128 348.843 259.085V259.085Z" fill="#263238"/>
<path d="M297.767 311.576H325.901C326.157 311.576 326.411 311.528 326.647 311.434C326.884 311.34 327.099 311.203 327.279 311.029C327.46 310.856 327.603 310.65 327.7 310.424C327.797 310.198 327.847 309.955 327.846 309.71L331.824 307.402L292.264 307.001L295.832 309.515V309.71C295.832 310.202 296.035 310.674 296.398 311.024C296.76 311.373 297.252 311.572 297.767 311.576Z" fill="white"/>
<path d="M297.767 311.576C297.483 311.608 297.195 311.56 296.938 311.44C296.613 311.307 296.333 311.092 296.126 310.818C295.844 310.439 295.705 309.979 295.734 309.515V309.583L292.166 307.103L291.827 306.865H292.246C299.712 306.865 312.093 306.967 326.088 307.112L331.797 307.172H332.6L331.913 307.572L328.72 309.429L328.327 309.659L328.131 309.77L328.033 309.83H327.979C328.024 309.753 327.863 310.017 328.078 309.651C328.072 309.975 327.986 310.293 327.828 310.58C327.677 310.865 327.458 311.112 327.188 311.302C326.918 311.491 326.606 311.618 326.276 311.67C323.841 311.738 321.619 311.67 319.452 311.67L308.088 311.628L300.515 311.559L298.481 311.517C298.243 311.531 298.005 311.531 297.767 311.517C298.003 311.479 298.242 311.465 298.481 311.474H300.515L308.088 311.406H319.452C321.593 311.406 323.912 311.406 326.204 311.363C326.463 311.317 326.707 311.216 326.92 311.069C327.132 310.922 327.308 310.731 327.435 310.511C327.556 310.281 327.62 310.028 327.623 309.77V309.77C327.837 309.404 327.694 309.668 327.739 309.583H327.792L327.89 309.523L328.078 309.412L328.47 309.182L331.663 307.316L331.779 307.725L326.071 307.666C312.075 307.521 299.694 307.359 292.228 307.231L292.308 306.993L295.876 309.549C295.836 309.923 295.916 310.301 296.106 310.631C296.295 310.961 296.586 311.228 296.938 311.397C297.205 311.492 297.484 311.552 297.767 311.576V311.576Z" fill="#263238"/>
<path d="M382.82 363.974L302.914 363.753L306.108 357.9H382.82V363.974Z" fill="#263238"/>
<path d="M396.94 323.3C396.94 323.419 371.91 323.521 341.038 323.521C310.166 323.521 285.137 323.419 285.137 323.3C285.137 323.181 310.113 323.078 341.038 323.078C371.964 323.078 396.94 323.181 396.94 323.3Z" fill="#455A64"/>
</svg>
