<svg width="558" height="524" viewBox="0 0 558 524" fill="none" xmlns="http://www.w3.org/2000/svg">
<path d="M466.812 34.605H459.435V184.951H466.812V34.605Z" fill="#E0E0E0"/>
<path d="M458.196 35.7578H352.5C352.438 35.7578 352.388 35.8047 352.388 35.8626V183.694C352.388 183.751 352.438 183.798 352.5 183.798H458.196C458.258 183.798 458.308 183.751 458.308 183.694V35.8626C458.308 35.8047 458.258 35.7578 458.196 35.7578Z" fill="#F5F5F5"/>
<path d="M459.435 184.962H351.272C351.243 184.959 351.217 184.947 351.196 184.928C351.176 184.909 351.163 184.884 351.161 184.857V34.7098C351.163 34.6828 351.176 34.6575 351.196 34.6383C351.217 34.6191 351.243 34.6073 351.272 34.605H459.435C459.464 34.6073 459.491 34.6191 459.511 34.6383C459.531 34.6575 459.544 34.6828 459.547 34.7098V184.857C459.544 184.884 459.531 184.909 459.511 184.928C459.491 184.947 459.464 184.959 459.435 184.962ZM353.772 182.656H457.024C457.053 182.654 457.08 182.642 457.1 182.623C457.121 182.603 457.133 182.578 457.136 182.551V37.0154C457.133 36.9884 457.121 36.9631 457.1 36.9439C457.08 36.9247 457.053 36.9129 457.024 36.9106H353.772C353.743 36.9129 353.716 36.9247 353.696 36.9439C353.676 36.9631 353.663 36.9884 353.66 37.0154V182.551C353.663 182.578 353.676 182.603 353.696 182.623C353.716 182.642 353.743 182.654 353.772 182.656V182.656Z" fill="#EBEBEB"/>
<path d="M447.728 44.8963H363.169C363.107 44.8963 363.057 44.9432 363.057 45.0011V174.471C363.057 174.529 363.107 174.576 363.169 174.576H447.728C447.79 174.576 447.84 174.529 447.84 174.471V45.0011C447.84 44.9432 447.79 44.8963 447.728 44.8963Z" fill="white"/>
<path d="M429.08 81.6602H381.616C381.579 81.6602 381.549 81.6883 381.549 81.723V133.987C381.549 134.022 381.579 134.05 381.616 134.05H429.08C429.117 134.05 429.147 134.022 429.147 133.987V81.723C429.147 81.6883 429.117 81.6602 429.08 81.6602Z" fill="#EBEBEB"/>
<path d="M425.386 127.636C425.453 127.804 423.098 128.778 418.623 128.286C415.879 127.946 413.27 126.966 411.034 125.435C407.992 123.308 405.891 120.205 405.13 116.716C404.687 114.535 404.866 112.282 405.651 110.188C406.435 108.093 407.795 106.23 409.594 104.79C410.616 103.988 411.774 103.354 413.02 102.914C414.388 102.438 415.858 102.276 417.306 102.442C418.893 102.591 420.389 103.207 421.58 104.203C422.252 104.792 422.758 105.528 423.054 106.345C423.35 107.162 423.426 108.036 423.276 108.887C422.949 110.423 422.127 111.828 420.922 112.912C419.873 113.889 418.682 114.722 417.384 115.385C414.755 116.755 411.827 117.54 408.824 117.68C405.651 117.843 402.492 117.168 399.707 115.731C396.835 114.225 394.504 111.953 393.011 109.202C391.463 106.384 391.036 103.14 391.805 100.053C392.565 97.0699 394.373 94.415 396.939 92.5175C398.224 91.5883 399.686 90.8983 401.247 90.4843C402.827 90.085 404.485 90.0347 406.09 90.3376C407.786 90.6431 409.33 91.4599 410.487 92.6642C411.595 93.8996 412.208 95.4609 412.217 97.0763C412.238 98.5408 411.853 99.9853 411.101 101.268C410.394 102.432 409.472 103.468 408.378 104.328C406.422 105.879 404.141 107.025 401.682 107.693C399.383 108.323 396.97 108.498 394.595 108.206C392.38 107.923 390.264 107.162 388.413 105.984C386.823 105 385.475 103.708 384.459 102.195C383.443 100.683 382.782 98.984 382.52 97.2125C382.213 94.5318 383.011 91.8425 384.752 89.6983C385.774 88.3543 387.172 87.3023 388.792 86.6592C389.908 86.2714 390.533 86.2819 390.566 86.3762C390.6 86.4705 390.064 86.7535 389.16 87.3194C387.88 88.1395 386.806 89.2126 386.013 90.4634C384.786 92.3898 384.331 94.6639 384.73 96.8772C385.045 98.3062 385.674 99.6577 386.577 100.845C387.48 102.033 388.638 103.03 389.975 103.773C391.571 104.653 393.349 105.201 395.19 105.378C397.031 105.555 398.891 105.358 400.644 104.8C402.639 104.197 404.481 103.216 406.057 101.918C406.821 101.346 407.444 100.624 407.879 99.8016C408.315 98.9796 408.554 98.078 408.579 97.1601C408.575 96.3179 408.241 95.5065 407.639 94.8818C407.038 94.257 406.212 93.8629 405.32 93.7751C404.287 93.6047 403.227 93.6549 402.218 93.9218C401.152 94.2276 400.156 94.7181 399.282 95.368C397.431 96.7808 396.132 98.7308 395.588 100.912C395.035 103.157 395.355 105.514 396.492 107.556C397.636 109.661 399.419 111.401 401.615 112.555C403.765 113.672 406.203 114.205 408.657 114.096C411.081 114.001 413.45 113.392 415.587 112.314C416.598 111.83 417.53 111.213 418.355 110.48C419.033 109.927 419.522 109.198 419.761 108.384C419.83 108.074 419.814 107.753 419.715 107.45C419.615 107.148 419.435 106.874 419.192 106.655C418.554 106.121 417.754 105.787 416.904 105.701C415.998 105.577 415.073 105.652 414.203 105.921C413.294 106.214 412.445 106.65 411.692 107.21C410.26 108.283 409.153 109.689 408.479 111.289C407.806 112.888 407.59 114.626 407.853 116.328C408.367 119.269 409.977 121.943 412.395 123.874C414.289 125.35 416.519 126.397 418.913 126.934C422.964 127.751 425.352 127.322 425.386 127.636Z" fill="#E0E0E0"/>
<path d="M236.771 27.1223H63.7682V318.959H236.771V27.1223Z" fill="#EBEBEB"/>
<path d="M228.077 35.5796H70.6874V310.26H228.077V35.5796Z" fill="#FAFAFA"/>
<path d="M244.08 321.589L236.771 318.959V22.1757H244.08V321.589Z" fill="#E0E0E0"/>
<path d="M231.492 114.599H70.6874V117.523H231.492V114.599Z" fill="#E0E0E0"/>
<path d="M231.492 180.015H70.6874V182.939H231.492V180.015Z" fill="#E0E0E0"/>
<path d="M231.492 245.431H70.6874V248.355H231.492V245.431Z" fill="#E0E0E0"/>
<path d="M145.404 116.066V318.058H153.361V116.066H145.404Z" fill="#E0E0E0"/>
<path d="M104.592 35.5796H100.987V116.056H104.592V35.5796Z" fill="#E0E0E0"/>
<path d="M135.661 35.5796H132.056V116.056H135.661V35.5796Z" fill="#E0E0E0"/>
<path d="M166.73 35.5796H163.126V116.056H166.73V35.5796Z" fill="#E0E0E0"/>
<path d="M197.8 35.5796H194.195V116.056H197.8V35.5796Z" fill="#E0E0E0"/>
<path d="M63.7682 22.1652H56.4473V320.761H63.7682V22.1652Z" fill="#E0E0E0"/>
<path d="M244.08 19.1575H56.4473V27.1223H244.08V19.1575Z" fill="#E0E0E0"/>
<path d="M249.035 322.574H51.2579V329.994H249.035V322.574Z" fill="#E0E0E0"/>
<path d="M236.771 318.959L249.035 322.574H51.2579L63.7682 318.959H236.771Z" fill="#E0E0E0"/>
<path d="M178.951 162.671C178.806 162.597 182.098 156.844 186.283 149.833C190.468 142.822 193.994 137.194 194.095 137.257C194.195 137.32 190.959 143.084 186.763 150.095C182.566 157.106 179.096 162.744 178.951 162.671Z" fill="#E0E0E0"/>
<path d="M120.283 224.765C120.137 224.691 123.418 218.948 127.615 211.937C131.811 204.926 135.315 199.298 135.427 199.361C135.538 199.424 132.28 205.177 128.083 212.189C123.887 219.2 120.416 224.838 120.283 224.765Z" fill="#E0E0E0"/>
<path d="M158.059 281.21C157.914 281.136 161.206 275.393 165.391 268.382C169.576 261.371 173.092 255.743 173.203 255.806C173.315 255.869 170.056 261.623 165.86 268.644C161.664 275.666 158.193 281.294 158.059 281.21Z" fill="#E0E0E0"/>
<path d="M105.373 283.075C105.228 283.002 108.52 277.259 112.705 270.248C116.89 263.237 120.416 257.609 120.517 257.672C120.617 257.735 117.37 263.488 113.185 270.499C109 277.51 105.518 283.149 105.373 283.075Z" fill="#E0E0E0"/>
<path d="M82.8965 150.273C82.7514 150.199 86.0436 144.446 90.2286 137.435C94.4136 130.424 97.929 124.796 98.0406 124.859C98.1522 124.922 94.8935 130.686 90.7085 137.697C86.5235 144.708 83.0304 150.346 82.8965 150.273Z" fill="#E0E0E0"/>
<path d="M127.871 152.715C127.726 152.641 131.018 146.888 135.203 139.877C139.388 132.866 142.904 127.238 143.015 127.301C143.127 127.364 139.868 133.128 135.683 140.139C131.498 147.15 128.005 152.788 127.871 152.715Z" fill="#E0E0E0"/>
<path d="M113.229 109.537C113.095 109.464 116.376 103.721 120.573 96.7095C124.769 89.6983 128.273 84.0706 128.385 84.1335C128.496 84.1963 125.237 89.9499 121.041 96.961C116.845 103.972 113.374 109.61 113.229 109.537Z" fill="#E0E0E0"/>
<path d="M104.837 172.92C104.703 172.847 107.984 167.104 112.18 160.093C116.376 153.081 119.881 147.454 119.992 147.517C120.104 147.579 116.879 153.343 112.716 160.344C108.553 167.345 104.982 173.004 104.837 172.92Z" fill="#E0E0E0"/>
<path d="M181.651 108.007C181.517 107.934 184.798 102.19 188.995 95.1794C193.191 88.1682 196.695 82.5405 196.807 82.6034C196.918 82.6662 193.671 88.4198 189.475 95.4309C185.278 102.442 181.796 108.08 181.651 108.007Z" fill="#E0E0E0"/>
<path d="M160.86 178.873C160.715 178.799 164.007 173.056 168.192 166.045C172.377 159.034 175.904 153.406 176.004 153.469C176.105 153.532 172.857 159.286 168.672 166.297C164.487 173.308 161.005 178.946 160.86 178.873Z" fill="#E0E0E0"/>
<path d="M100.228 226.106C100.094 226.033 103.375 220.29 107.571 213.278C111.767 206.267 115.272 200.64 115.383 200.702C115.495 200.765 112.236 206.519 108.04 213.53C103.844 220.541 100.373 226.179 100.228 226.106Z" fill="#E0E0E0"/>
<path d="M181.651 197.496C181.517 197.422 184.798 191.679 188.995 184.668C193.191 177.657 196.695 172.029 196.807 172.092C196.918 172.155 193.671 177.908 189.475 184.92C185.278 191.931 181.796 197.569 181.651 197.496Z" fill="#E0E0E0"/>
<path d="M192.622 301.824C192.476 301.751 195.769 296.008 199.954 288.997C204.139 281.985 207.654 276.358 207.766 276.421C207.877 276.483 204.619 282.237 200.434 289.248C196.249 296.259 192.755 301.908 192.622 301.824Z" fill="#E0E0E0"/>
<path d="M83.6999 293.576C83.5548 293.503 86.8471 287.749 91.0321 280.738C95.2171 273.727 98.7436 268.099 98.8441 268.162C98.9445 268.225 95.6969 273.979 91.5119 281C87.3269 288.022 83.8673 293.65 83.6999 293.576Z" fill="#E0E0E0"/>
<path d="M183.805 230.916C183.66 230.843 186.941 225.1 191.137 218.089C195.333 211.078 198.838 205.45 198.949 205.513C199.061 205.576 195.802 211.329 191.606 218.34C187.41 225.351 183.939 230.99 183.805 230.916Z" fill="#E0E0E0"/>
<path d="M166.931 245.389C166.797 245.316 170.078 239.573 174.275 232.562C178.471 225.551 181.975 219.923 182.087 219.986C182.198 220.049 178.939 225.802 174.743 232.813C170.547 239.824 167.076 245.463 166.931 245.389Z" fill="#E0E0E0"/>
<path d="M212.408 145.022C212.263 144.949 215.544 139.206 219.74 132.195C223.937 125.184 227.441 119.556 227.552 119.619C227.664 119.682 224.405 125.435 220.209 132.446C216.013 139.457 212.542 145.096 212.408 145.022Z" fill="#E0E0E0"/>
<path d="M203.112 96.6047C202.967 96.5313 206.248 90.7883 210.444 83.7771C214.64 76.766 218.145 71.1383 218.256 71.2011C218.368 71.264 215.109 77.0175 210.913 84.0287C206.717 91.0398 203.279 96.678 203.112 96.6047Z" fill="#E0E0E0"/>
<path d="M530.558 220.531H451.02V298.387H530.558V220.531Z" fill="#E0E0E0"/>
<path d="M525.156 220.531H445.63V298.387H525.156V220.531Z" fill="#FAFAFA"/>
<path d="M525.19 298.408H445.608V220.51H525.19V298.408ZM445.663 298.408H525.145V220.552H445.663V298.408Z" fill="#E0E0E0"/>
<path d="M514.476 231H456.321V287.917H514.476V231Z" fill="white"/>
<path d="M456.321 288.294C455.917 288.872 455.437 289.401 454.893 289.866C453.966 290.789 452.661 292.036 451.199 293.388C449.737 294.74 448.386 295.945 447.393 296.794C446.888 297.29 446.327 297.732 445.719 298.114C446.121 297.538 446.601 297.013 447.148 296.553C448.074 295.63 449.38 294.383 450.842 293.031C452.304 291.679 453.665 290.464 454.658 289.604C455.157 289.109 455.715 288.669 456.321 288.294V288.294Z" fill="#E0E0E0"/>
<path d="M514.476 288.2C515.087 288.585 515.646 289.039 516.139 289.552C517.121 290.422 518.449 291.648 519.889 293.021C521.328 294.394 522.612 295.651 523.527 296.584C524.063 297.052 524.532 297.584 524.922 298.167C524.32 297.779 523.766 297.329 523.27 296.825C522.288 295.955 520.96 294.729 519.509 293.346C518.058 291.962 516.775 290.705 515.871 289.772C515.34 289.303 514.871 288.775 514.476 288.2Z" fill="#E0E0E0"/>
<path d="M514.32 231.147C514.731 230.577 515.21 230.053 515.748 229.585C516.674 228.663 517.98 227.416 519.442 226.064C520.904 224.712 522.254 223.507 523.248 222.648C523.747 222.149 524.309 221.709 524.922 221.338C524.518 221.91 524.043 222.435 523.504 222.899C522.567 223.811 521.272 225.069 519.799 226.42C518.326 227.772 516.976 228.988 515.994 229.837C515.494 230.336 514.932 230.776 514.32 231.147Z" fill="#E0E0E0"/>
<path d="M456.165 231.294C455.557 230.905 454.999 230.451 454.502 229.942C453.52 229.072 452.192 227.846 450.752 226.473C449.313 225.1 448.029 223.832 447.114 222.899C446.58 222.433 446.111 221.905 445.719 221.327C446.328 221.707 446.883 222.158 447.371 222.669C448.353 223.538 449.681 224.765 451.132 226.148C452.583 227.531 453.866 228.789 454.77 229.722C455.304 230.188 455.773 230.716 456.165 231.294V231.294Z" fill="#E0E0E0"/>
<path d="M514.32 287.917C514.307 287.827 514.307 287.735 514.32 287.645C514.32 287.445 514.32 287.183 514.32 286.848C514.32 286.135 514.32 285.108 514.32 283.777C514.32 281.084 514.32 277.154 514.264 272.176C514.264 262.21 514.197 247.999 514.152 231L514.376 231.21H456.344L456.6 230.969C456.6 251.855 456.6 271.401 456.6 287.886L456.377 287.676L498.372 287.791L510.168 287.844H513.282H513.338H510.258L498.506 287.896L456.377 288.001H456.165V287.791C456.165 271.306 456.165 251.761 456.165 230.874V230.633H456.433H514.465H514.688V230.843C514.688 247.904 514.599 262.147 514.577 272.155C514.577 277.112 514.577 281.021 514.51 283.683C514.51 285.004 514.51 286.01 514.51 286.722C514.51 287.047 514.51 287.299 514.51 287.487C514.51 287.676 514.32 287.928 514.32 287.917Z" fill="#E0E0E0"/>
<path d="M495.102 250.346H475.695V268.571H495.102V250.346Z" fill="#EBEBEB"/>
<path d="M525.692 503.899C525.692 504.046 415.208 504.172 279.056 504.172C142.904 504.172 32.364 504.088 32.364 503.899C32.364 503.711 142.848 503.627 279.067 503.627C415.286 503.627 525.692 503.742 525.692 503.899Z" fill="#263238"/>
<path d="M60.476 462.545L67.7747 507.557H110.16L119.992 463.195L60.476 462.545Z" fill="#FF725E"/>
<path d="M114.066 491.396C114.066 491.522 103.208 491.626 89.8157 491.626C76.4237 491.626 65.5538 491.522 65.5538 491.396C65.5538 491.271 76.4125 491.166 89.8157 491.166C103.219 491.166 114.066 491.271 114.066 491.396Z" fill="#FAFAFA"/>
<path d="M114.234 489.185C114.234 489.31 103.297 489.415 89.8157 489.415C76.3344 489.415 65.3976 489.31 65.3976 489.185C65.3976 489.059 76.3232 488.944 89.8157 488.944C103.308 488.944 114.234 489.049 114.234 489.185Z" fill="#FAFAFA"/>
<path d="M114.145 486.68C114.145 486.806 103.219 486.91 89.7264 486.91C76.234 486.91 65.3083 486.806 65.3083 486.68C65.3083 486.555 76.2452 486.45 89.7264 486.45C103.208 486.45 114.145 486.555 114.145 486.68Z" fill="#FAFAFA"/>
<path d="M72.6405 504.989C72.0483 503.138 71.6154 501.246 71.3459 499.33C70.9163 497.445 70.6439 495.532 70.5312 493.608C71.1234 495.463 71.56 497.359 71.837 499.278C72.2661 501.158 72.5348 503.068 72.6405 504.989Z" fill="#FAFAFA"/>
<path d="M75.5309 504.518C75.223 502.686 75.0441 500.838 74.9952 498.984C74.7796 497.144 74.6902 495.292 74.7274 493.44C75.4855 497.087 75.7554 500.808 75.5309 504.518V504.518Z" fill="#FAFAFA"/>
<path d="M80.7761 504.518C80.2039 502.667 79.83 500.768 79.6601 498.848C79.3371 496.943 79.2287 495.011 79.3365 493.084C79.7161 494.969 79.988 496.872 80.1512 498.785C80.4829 500.682 80.6916 502.597 80.7761 504.518V504.518Z" fill="#FAFAFA"/>
<path d="M84.4701 504.748C83.8179 500.937 83.6829 497.063 84.0683 493.22C84.2956 495.137 84.3999 497.066 84.3808 498.995C84.5347 500.909 84.5645 502.83 84.4701 504.748V504.748Z" fill="#FAFAFA"/>
<path d="M90.9987 504.518C90.6887 502.709 90.5394 500.879 90.5523 499.047C90.3788 497.224 90.3788 495.389 90.5523 493.566C90.8626 495.371 91.0119 497.198 90.9987 499.026C91.1582 500.854 91.1582 502.69 90.9987 504.518V504.518Z" fill="#FAFAFA"/>
<path d="M95.7639 504.748C95.4775 500.982 95.5111 497.201 95.8644 493.44C96.1658 497.206 96.1322 500.988 95.7639 504.748V504.748Z" fill="#FAFAFA"/>
<path d="M100.239 504.151C100.195 502.175 100.318 500.198 100.607 498.24C100.729 496.266 101.012 494.304 101.456 492.371C101.507 494.347 101.388 496.324 101.098 498.282C100.977 500.256 100.69 502.219 100.239 504.151V504.151Z" fill="#FAFAFA"/>
<path d="M106.02 503.564C106.03 501.866 106.27 500.175 106.734 498.534C107.017 496.862 107.527 495.231 108.252 493.681C107.984 495.349 107.611 497.001 107.136 498.628C106.862 500.291 106.489 501.939 106.02 503.564Z" fill="#FAFAFA"/>
<path d="M101.924 373.706C101.935 373.783 101.935 373.86 101.924 373.937L101.723 374.566C101.522 375.163 101.255 375.97 100.92 376.997C100.585 378.024 100.116 379.334 99.6699 380.854C99.2235 382.373 98.6432 384.061 98.141 385.978C97.6388 387.896 97.025 389.982 96.4893 392.266C95.9536 394.551 95.3733 396.951 94.86 399.508C93.8444 404.643 92.9181 410.323 92.2597 416.276C91.6012 422.229 91.3557 428.014 91.2664 433.233C91.2664 435.842 91.2664 438.326 91.3446 440.642C91.4227 442.958 91.5231 445.128 91.6459 447.098C91.7686 449.068 91.936 450.85 92.0588 452.411C92.1815 453.973 92.3378 455.325 92.4717 456.415C92.6056 457.504 92.6838 458.332 92.7507 458.951C92.7507 459.213 92.7507 459.433 92.8065 459.611C92.8163 459.687 92.8163 459.765 92.8065 459.841C92.7909 459.769 92.7909 459.694 92.8065 459.621C92.8065 459.443 92.7395 459.223 92.6949 458.961L92.3266 456.435C92.1592 455.387 91.9807 454.004 91.8356 452.443C91.6905 450.881 91.4561 449.099 91.3334 447.119C91.2106 445.138 91.0432 442.99 90.9763 440.663C90.9093 438.337 90.8647 435.853 90.8535 433.233C90.8535 427.993 91.1883 422.25 91.8133 416.234C92.4382 410.219 93.4091 404.538 94.447 399.403C95.0162 396.836 95.563 394.394 96.1322 392.141C96.7014 389.887 97.2482 387.781 97.8508 385.853C98.4535 383.924 98.9668 382.237 99.4467 380.728C99.9266 379.219 100.384 377.94 100.775 376.903C101.165 375.865 101.456 375.079 101.668 374.492L101.913 373.874C101.91 373.818 101.914 373.762 101.924 373.706V373.706Z" fill="#455A64"/>
<path d="M94.2797 401.583C95.443 398.342 97.7708 395.582 100.864 393.776C101.346 393.413 101.916 393.167 102.524 393.061C103.131 392.955 103.757 392.992 104.346 393.168C105.83 393.838 105.953 395.798 105.462 397.276C104.707 399.801 103.002 401.984 100.663 403.417C98.5969 404.854 96.0103 405.468 93.465 405.125" fill="#455A64"/>
<path d="M91.7017 420.405C92.8177 416.528 96.0988 410.973 99.5137 408.594C100.036 408.189 100.639 407.886 101.288 407.703C101.616 407.617 101.961 407.607 102.294 407.675C102.626 407.742 102.936 407.885 103.197 408.091C103.489 408.454 103.681 408.88 103.755 409.33C103.829 409.78 103.783 410.24 103.621 410.669C102.911 413.497 101.381 416.085 99.2006 418.146C97.0198 420.207 94.2735 421.66 91.2665 422.344" fill="#455A64"/>
<path d="M90.9875 437.016C92.6954 433.308 95.4223 430.092 98.8888 427.699C99.2576 427.381 99.6906 427.136 100.162 426.977C100.634 426.819 101.134 426.751 101.634 426.777C103.141 427.039 103.866 428.747 103.688 430.173C103.409 433.107 101.031 435.413 98.5651 437.278C96.3053 438.744 93.8518 439.928 91.2665 440.799" fill="#455A64"/>
<path d="M91.3892 448.89C93.0283 446.061 95.3152 443.609 98.0852 441.711C98.6746 441.284 99.3628 440.993 100.094 440.862C100.46 440.799 100.838 440.831 101.186 440.955C101.534 441.079 101.84 441.289 102.069 441.564C102.75 442.497 102.069 443.755 101.389 444.645C99.0199 447.746 95.6626 450.058 91.8021 451.248" fill="#455A64"/>
<path d="M91.0544 444.048C88.1613 440.738 84.9525 437.682 81.468 434.92C81.2342 434.665 80.936 434.469 80.6007 434.35C80.2653 434.231 79.9035 434.193 79.5484 434.239C79.2926 434.339 79.0738 434.508 78.9191 434.724C78.7643 434.94 78.6805 435.194 78.678 435.455C78.6695 435.974 78.7918 436.487 79.0351 436.953C80.1801 439.35 81.8869 441.474 84.028 443.165C86.1691 444.856 88.6892 446.072 91.4004 446.72" fill="#455A64"/>
<path d="M91.3669 428.548C88.8448 425.677 86.33 422.798 83.8228 419.913C83.1525 419.052 82.3204 418.313 81.3676 417.733C80.8838 417.455 80.3277 417.308 79.7605 417.308C79.1934 417.308 78.6373 417.455 78.1535 417.733C77.7142 418.069 77.3848 418.515 77.2032 419.019C77.0216 419.524 76.9951 420.066 77.1268 420.583C77.4033 421.606 77.9051 422.563 78.5999 423.392C80.0678 425.512 81.9273 427.368 84.0906 428.873C86.3226 430.298 88.3202 431.231 90.9763 430.864" fill="#455A64"/>
<path d="M92.416 411.099C90.9324 406.965 88.3103 403.273 84.8161 400.399C84.2616 399.894 83.5771 399.533 82.8296 399.351C82.0625 399.299 81.2998 399.497 80.6698 399.911C80.0398 400.325 79.5808 400.93 79.37 401.625C79.1334 402.41 79.0727 403.233 79.1918 404.041C79.3109 404.849 79.6072 405.625 80.0619 406.32C80.9947 407.679 82.2046 408.851 83.6219 409.768C86.1636 411.592 88.9958 413.028 92.0143 414.023" fill="#455A64"/>
<path d="M95.4291 395.536C94.6926 390.537 91.9249 386.366 88.7331 382.321C88.0524 381.462 87.1038 380.56 85.9878 380.717C85.6338 380.792 85.3045 380.946 85.0283 381.167C84.7522 381.388 84.5376 381.669 84.4031 381.986C84.1559 382.626 84.057 383.308 84.1129 383.987C84.2508 387.02 85.3373 389.948 87.2368 392.405C89.1362 394.861 91.7644 396.738 94.793 397.8" fill="#455A64"/>
<path d="M97.5385 387.592C97.1893 385.028 97.0959 382.439 97.2595 379.858C97.4327 377.26 98.3844 374.76 100.005 372.648C100.682 371.716 101.631 370.988 102.739 370.552C103.289 370.348 103.885 370.28 104.471 370.353C105.057 370.427 105.613 370.639 106.087 370.971C106.484 371.325 106.791 371.758 106.984 372.239C107.177 372.72 107.252 373.236 107.203 373.748C107.109 374.776 106.822 375.78 106.355 376.714C104.346 381.252 100.998 386.282 97.4938 387.55" fill="#455A64"/>
<path d="M64.728 393.566C64.754 393.775 64.754 393.986 64.728 394.195C64.728 394.656 64.728 395.243 64.728 396.018C64.728 396.794 64.728 397.768 64.728 398.89C64.728 400.011 64.728 401.279 64.8731 402.694C65.007 405.503 65.2971 408.856 65.7547 412.556C66.2123 416.255 66.8707 420.3 67.8416 424.513C68.8125 428.726 69.9062 432.677 71.0445 436.251C72.1829 439.825 73.377 442.979 74.4595 445.61C74.9729 446.941 75.5085 448.104 75.9549 449.152C76.4013 450.2 76.8031 451.08 77.1379 451.793L77.8968 453.47C77.9988 453.66 78.0774 453.86 78.1311 454.067C78.0114 453.888 77.9034 453.703 77.8075 453.511C77.5955 453.092 77.3165 452.547 76.9593 451.866C76.6022 451.185 76.167 450.284 75.6983 449.246C75.2295 448.209 74.6715 447.056 74.1359 445.735C73.0199 443.115 71.8034 439.94 70.6093 436.377C69.4152 432.813 68.3103 428.831 67.3506 424.608C66.3908 420.384 65.844 416.318 65.3529 412.598C64.8619 408.877 64.6722 405.524 64.5829 402.704C64.5048 401.29 64.5159 400.011 64.5048 398.89C64.4936 397.768 64.5048 396.794 64.5048 396.008C64.5048 395.222 64.5048 394.656 64.5717 394.195C64.6062 393.982 64.6584 393.771 64.728 393.566V393.566Z" fill="#263238"/>
<path d="M65.844 414.086C65.8968 411.641 66.8514 409.289 68.5447 407.431C68.7914 407.088 69.124 406.808 69.5132 406.614C69.9024 406.42 70.3363 406.319 70.7767 406.32C71.8927 406.477 72.4619 407.787 72.5065 408.888C72.5687 410.758 71.9065 412.586 70.6428 414.033C69.5763 415.421 67.9741 416.361 66.1788 416.653" fill="#263238"/>
<path d="M68.4219 427.427C68.2769 424.555 69.2589 420.091 71.0334 417.796C71.2982 417.413 71.6438 417.084 72.0489 416.832C72.2515 416.707 72.4833 416.63 72.7244 416.608C72.9654 416.587 73.2085 416.62 73.4328 416.706C73.7148 416.895 73.9421 417.148 74.0941 417.441C74.2461 417.733 74.318 418.057 74.3033 418.383C74.482 420.458 74.0397 422.539 73.0261 424.391C72.0126 426.242 70.4681 427.791 68.567 428.863" fill="#263238"/>
<path d="M71.7365 438.85C72.0421 435.978 73.1595 433.236 74.9729 430.906C75.1464 430.606 75.3834 430.343 75.6694 430.132C75.9553 429.921 76.2842 429.767 76.6357 429.68C77.7517 429.554 78.5664 430.581 78.8007 431.577C79.2918 433.673 78.2092 435.706 76.9482 437.446C75.7476 438.904 74.3481 440.208 72.7855 441.323" fill="#263238"/>
<path d="M74.772 446.878C75.2324 444.602 76.2317 442.453 77.696 440.59C77.9819 440.185 78.3639 439.848 78.812 439.605C79.0475 439.489 79.3122 439.435 79.5777 439.45C79.8431 439.465 80.0993 439.547 80.3186 439.688C80.9993 440.181 80.8431 441.166 80.5641 441.921C79.655 444.506 77.9017 446.758 75.5532 448.355" fill="#263238"/>
<path d="M73.3993 443.65C70.6574 441.962 67.7545 440.516 64.728 439.332C64.5085 439.21 64.2611 439.14 64.0066 439.127C63.7521 439.115 63.498 439.16 63.266 439.259C63.1057 439.382 62.9889 439.549 62.9311 439.736C62.8734 439.923 62.8773 440.122 62.9424 440.307C63.0876 440.652 63.3169 440.961 63.612 441.208C64.9379 442.615 66.585 443.723 68.4304 444.449C70.2758 445.174 72.2719 445.5 74.2698 445.4" fill="#263238"/>
<path d="M70.0513 433.034L62.9424 428.632C62.29 428.184 61.5565 427.85 60.7774 427.647C60.3899 427.531 59.9738 427.531 59.5864 427.647C59.199 427.763 58.8594 427.989 58.6145 428.294C58.3696 428.598 58.2314 428.967 58.2191 429.348C58.2067 429.73 58.3207 430.106 58.5454 430.424C58.9665 431.073 59.5295 431.63 60.1971 432.059C61.6824 433.207 63.376 434.095 65.1967 434.679C66.0104 435.003 66.8852 435.17 67.7691 435.17C68.653 435.17 69.5279 435.003 70.3415 434.679" fill="#263238"/>
<path d="M66.7703 420.94C64.8132 418.425 62.1838 416.44 59.148 415.186C58.6575 414.942 58.1064 414.827 57.5521 414.851C57.0154 414.968 56.5389 415.256 56.2048 415.668C55.8706 416.079 55.6999 416.587 55.7219 417.104C55.7395 417.685 55.8855 418.256 56.1506 418.781C56.4157 419.306 56.7942 419.773 57.2619 420.154C58.21 420.908 59.3055 421.481 60.4872 421.841C62.6382 422.568 64.8981 422.971 67.1832 423.036" fill="#263238"/>
<path d="M65.2525 409.768C63.612 406.509 60.7885 404.235 57.6526 402.128C57.3628 401.863 57.0042 401.675 56.6126 401.581C56.2209 401.487 55.8099 401.492 55.4206 401.594C55.1967 401.715 55.0083 401.887 54.872 402.094C54.7358 402.3 54.6559 402.535 54.6394 402.778C54.6183 403.261 54.7058 403.743 54.896 404.193C55.6877 406.23 57.1001 408.004 58.9575 409.294C60.8148 410.583 63.0351 411.331 65.3418 411.445" fill="#263238"/>
<path d="M64.8731 403.899C64.0416 402.215 63.3839 400.461 62.9089 398.659C62.4363 396.853 62.5097 394.958 63.121 393.189C63.3842 392.43 63.8672 391.755 64.516 391.239C64.8431 390.988 65.2339 390.82 65.6503 390.752C66.0667 390.684 66.4948 390.719 66.8931 390.852C67.249 391.008 67.5624 391.239 67.8098 391.525C68.0572 391.812 68.2322 392.148 68.3215 392.507C68.4889 393.227 68.5228 393.968 68.422 394.698C68.076 398.24 66.96 402.327 64.8731 403.899Z" fill="#263238"/>
<path d="M118.296 393.126C118.312 393.335 118.312 393.545 118.296 393.755C118.296 394.216 118.318 394.823 118.363 395.578C118.363 396.364 118.363 397.328 118.363 398.45C118.363 399.571 118.363 400.849 118.285 402.264C118.196 405.094 117.95 408.448 117.515 412.168C117.08 415.888 116.399 419.944 115.461 424.168C114.524 428.391 113.363 432.363 112.203 435.937C111.042 439.51 109.803 442.675 108.676 445.295C108.14 446.616 107.56 447.779 107.114 448.817C106.667 449.854 106.21 450.724 105.841 451.437L105.004 453.071C104.915 453.266 104.807 453.452 104.681 453.627C104.737 453.421 104.815 453.22 104.915 453.029L105.674 451.363C106.009 450.64 106.422 449.749 106.857 448.712C107.292 447.674 107.839 446.5 108.352 445.169C109.468 442.549 110.584 439.374 111.767 435.811C112.95 432.248 113.999 428.276 114.97 424.073C115.941 419.871 116.566 415.815 117.057 412.116C117.548 408.416 117.805 405.073 117.939 402.254C118.039 400.849 118.039 399.571 118.084 398.45C118.129 397.328 118.084 396.354 118.084 395.578C118.084 394.803 118.084 394.226 118.084 393.765C118.127 393.545 118.198 393.33 118.296 393.126V393.126Z" fill="#455A64"/>
<path d="M117.08 413.646C117.027 411.204 116.072 408.855 114.379 407.001C114.133 406.657 113.801 406.375 113.411 406.18C113.022 405.984 112.588 405.881 112.147 405.88C111.031 406.037 110.462 407.347 110.417 408.447C110.353 410.318 111.015 412.147 112.281 413.593C113.344 414.984 114.948 415.925 116.745 416.213" fill="#455A64"/>
<path d="M114.513 426.987C114.658 424.115 113.676 419.651 111.901 417.366C111.634 416.982 111.289 416.651 110.886 416.391C110.682 416.268 110.45 416.194 110.209 416.174C109.968 416.154 109.725 416.189 109.502 416.276C109.219 416.463 108.991 416.713 108.839 417.004C108.687 417.296 108.616 417.618 108.631 417.942C108.451 420.018 108.893 422.099 109.907 423.951C110.92 425.803 112.466 427.352 114.368 428.422" fill="#455A64"/>
<path d="M111.198 438.41C110.891 435.539 109.774 432.797 107.962 430.466C107.782 430.175 107.542 429.921 107.257 429.718C106.971 429.514 106.646 429.366 106.299 429.282C105.183 429.156 104.368 430.194 104.134 431.189C103.643 433.233 104.725 435.318 105.986 437.058C107.189 438.511 108.589 439.811 110.149 440.925" fill="#455A64"/>
<path d="M108.252 446.448C107.787 444.174 106.788 442.026 105.328 440.16C105.038 439.759 104.657 439.422 104.212 439.175C103.974 439.061 103.708 439.009 103.441 439.024C103.174 439.039 102.917 439.12 102.694 439.259C102.025 439.751 102.181 440.736 102.46 441.491C103.363 444.08 105.117 446.333 107.471 447.926" fill="#455A64"/>
<path d="M109.535 443.21C112.269 441.531 115.161 440.089 118.173 438.902C118.391 438.777 118.638 438.704 118.893 438.69C119.148 438.675 119.403 438.719 119.635 438.819C119.794 438.943 119.91 439.109 119.968 439.296C120.026 439.483 120.022 439.682 119.959 439.867C119.846 440.225 119.644 440.552 119.367 440.82C118.041 442.227 116.394 443.335 114.549 444.061C112.704 444.787 110.708 445.112 108.71 445.012" fill="#455A64"/>
<path d="M112.883 432.594L119.992 428.244C120.642 427.789 121.376 427.451 122.157 427.249C122.555 427.15 122.974 427.157 123.368 427.268C123.762 427.379 124.115 427.59 124.389 427.877C124.603 428.2 124.716 428.572 124.716 428.952C124.716 429.331 124.603 429.704 124.389 430.026C123.968 430.674 123.405 431.232 122.738 431.661C121.252 432.809 119.559 433.697 117.738 434.281C116.925 434.608 116.05 434.777 115.166 434.777C114.281 434.777 113.406 434.608 112.593 434.281" fill="#455A64"/>
<path d="M116.164 420.5C118.122 417.988 120.751 416.007 123.787 414.757C124.278 414.514 124.828 414.395 125.383 414.411C125.917 414.531 126.391 414.821 126.725 415.231C127.058 415.642 127.231 416.148 127.213 416.664C127.197 417.246 127.052 417.819 126.786 418.346C126.521 418.873 126.142 419.342 125.673 419.724C124.724 420.475 123.629 421.045 122.448 421.401C120.296 422.126 118.037 422.533 115.752 422.606" fill="#455A64"/>
<path d="M117.682 409.296C119.323 406.037 122.146 403.763 125.282 401.657C125.573 401.394 125.932 401.206 126.323 401.112C126.714 401.019 127.125 401.022 127.514 401.122C127.738 401.244 127.926 401.416 128.063 401.622C128.199 401.829 128.279 402.064 128.295 402.306C128.316 402.793 128.228 403.278 128.039 403.732C127.245 405.767 125.832 407.539 123.975 408.827C122.118 410.114 119.898 410.861 117.593 410.973" fill="#455A64"/>
<path d="M118.062 403.48C118.886 401.793 119.543 400.039 120.026 398.24C120.499 396.437 120.425 394.546 119.814 392.78C119.556 392.019 119.072 391.342 118.419 390.831C118.09 390.578 117.698 390.408 117.28 390.338C116.862 390.269 116.432 390.301 116.031 390.432C115.679 390.594 115.371 390.826 115.126 391.112C114.881 391.398 114.706 391.732 114.613 392.088C114.446 392.811 114.412 393.555 114.513 394.289C114.848 397.779 115.975 401.887 118.062 403.459" fill="#455A64"/>
<path d="M55.6103 453.627V462.011C55.6043 462.45 55.6916 462.886 55.8668 463.293C56.0421 463.701 56.3019 464.071 56.6312 464.383C56.9604 464.696 57.3525 464.943 57.7846 465.111C58.2167 465.28 58.6802 465.366 59.148 465.364H120.528C120.992 465.366 121.452 465.281 121.881 465.115C122.31 464.95 122.7 464.706 123.029 464.398C123.358 464.091 123.618 463.725 123.796 463.323C123.974 462.92 124.066 462.489 124.066 462.053V453.669L55.6103 453.627Z" fill="#FF725E"/>
<g opacity="0.4">
<path opacity="0.4" d="M60.9337 465.364L61.447 468.047L118.073 471.841L119.512 465.364H60.9337Z" fill="black"/>
</g>
<path d="M306.833 334.364C309.561 320.566 309.361 306.398 306.245 292.673C303.129 278.948 297.159 265.935 288.676 254.381L210.042 267.135C202.487 296.039 212.14 328.359 234.594 349.351L306.833 334.364Z" fill="#FF725E"/>
<path d="M306.833 334.364C309.561 320.566 309.361 306.398 306.245 292.673C303.129 278.948 297.159 265.935 288.676 254.381L210.042 267.135C202.487 296.039 212.14 328.359 234.594 349.351L306.833 334.364Z" fill="#455A64"/>
<g opacity="0.3">
<path opacity="0.3" d="M304.445 283.788C301.499 280.069 297.956 276.803 293.943 274.104C293.018 273.38 291.898 272.909 290.707 272.742C289.939 272.767 289.184 272.941 288.491 273.253C287.798 273.565 287.18 274.009 286.678 274.555C285.211 275.931 284.083 277.591 283.372 279.419C282.66 281.248 282.383 283.2 282.56 285.14C282.928 288.839 284.959 292.476 283.955 296.112C283.508 297.451 282.743 298.676 281.716 299.695C280.689 300.714 279.428 301.499 278.029 301.992C275.223 302.959 272.22 303.317 269.246 303.04C261.869 302.589 254.794 300.283 247.841 297.915C240.889 295.546 233.902 293.073 226.559 292.277C219.216 291.48 211.37 292.539 205.422 296.657L209.496 296.228C219.9 298.927 230.058 302.404 239.873 306.624C247.473 309.894 255.118 313.666 263.465 314.243C270.876 314.746 278.286 312.639 284.87 309.391C291.455 306.142 297.325 301.772 303.15 297.433C304.812 296.391 306.171 294.975 307.101 293.314C308.518 290.128 306.621 286.544 304.445 283.788Z" fill="black"/>
</g>
<path d="M212.297 292.622C212.095 291.493 211.976 290.351 211.939 289.206C211.772 287.11 211.527 284.176 211.169 280.969C210.812 277.762 210.411 274.859 210.12 272.752C209.903 271.627 209.769 270.489 209.719 269.346C210.096 270.439 210.364 271.561 210.522 272.7C210.924 274.796 211.393 277.689 211.75 280.906C212.107 284.123 212.285 287.058 212.352 289.185C212.447 290.33 212.429 291.481 212.297 292.622V292.622Z" fill="#263238"/>
<path d="M273.152 302.61C272.397 300.884 271.544 299.198 270.596 297.559C268.142 293.694 264.993 290.258 261.289 287.404C257.568 284.557 253.612 281.992 249.459 279.732L245.71 277.636C245.236 277.4 244.788 277.123 244.37 276.808C244.874 276.983 245.359 277.201 245.821 277.458C246.736 277.909 248.053 278.569 249.671 279.418C253.907 281.601 257.922 284.14 261.668 287.005C265.427 289.892 268.577 293.415 270.954 297.391C271.653 298.601 272.247 299.863 272.728 301.164C272.922 301.631 273.065 302.115 273.152 302.61V302.61Z" fill="#263238"/>
<path d="M269.871 287.257C269.379 286.535 268.964 285.77 268.632 284.972C267.829 283.358 266.891 281.472 265.842 279.386C264.793 277.301 263.789 275.435 262.963 273.842C262.513 273.095 262.14 272.309 261.847 271.495C262.428 272.159 262.926 272.883 263.331 273.654C264.168 275.027 265.273 276.965 266.378 279.145C267.483 281.325 268.409 283.337 269.023 284.815C269.409 285.594 269.694 286.414 269.871 287.257V287.257Z" fill="#263238"/>
<path d="M299.802 230.675L299.367 233.819C296.729 238.546 294.67 243.539 293.229 248.701C290.874 257.2 285.584 272.805 286.031 279.732C286.477 286.659 301.744 296.71 301.744 296.71L313.752 265.448L317.022 249.424C317.022 249.424 314.879 232.3 312.748 231.503C310.616 230.707 299.802 230.675 299.802 230.675Z" fill="#263238"/>
<path d="M391.805 276.221L373.581 317.324L373.76 338.923L278.33 312.084L303.217 292.926L308.719 278.139L316.799 251.038L322.658 218.351L332.401 209.076L380.232 212.115L393.948 218.571C393.948 218.571 392.229 274.377 391.805 276.221Z" fill="#263238"/>
<path d="M320.616 215.982C320.616 215.982 310.081 223.161 306.364 239.269C302.648 255.377 304.69 265.93 304.69 265.93C304.69 265.93 334.376 234.857 334.644 234.092C334.912 233.327 332.668 220.185 332.668 220.185L320.616 215.982Z" fill="#FF725E"/>
<path d="M397.474 226.431C398.59 227.102 404.394 237.603 401.938 246.867C399.483 256.131 367.588 304.14 354.999 309.16C342.411 314.18 330.883 311.486 325.504 297.485C320.124 283.484 309.567 236.701 309.567 236.701L310.214 231.87L328.015 229.061L329.789 233.096C333.201 238.654 336.113 244.469 338.494 250.482C342.623 260.784 346.563 272.794 346.563 272.794L397.474 226.431Z" fill="#263238"/>
<path d="M397.475 226.431C397.475 226.431 397.173 226.735 396.571 227.29L393.892 229.763L383.681 239.195L346.719 273.035L346.451 273.287L346.339 272.941C344.286 266.81 342.009 260.365 339.42 253.605C336.789 246.576 333.491 239.782 329.566 233.306V233.306L327.78 229.281L328.082 229.439L310.248 232.174L310.482 231.943L309.835 236.775V236.68C312 246.112 314.299 256.005 316.832 266.024C318.239 271.589 319.656 277.091 321.14 282.478C321.877 285.171 322.647 287.844 323.439 290.474C324.232 293.105 325.069 295.714 326.106 298.219C327.076 300.706 328.471 303.028 330.236 305.094C331.949 307.124 334.147 308.747 336.653 309.831C339.109 310.852 341.78 311.339 344.465 311.256C347.128 311.176 349.763 310.713 352.277 309.883C352.902 309.705 353.493 309.453 354.107 309.244C354.713 309.039 355.299 308.787 355.859 308.489C356.417 308.206 356.975 307.839 357.466 307.515C357.957 307.19 358.482 306.781 358.973 306.404C360.881 304.847 362.681 303.177 364.363 301.405C367.711 297.946 370.713 294.362 373.536 290.841C379.116 283.788 384.004 276.955 388.268 270.615C392.531 264.274 396.158 258.416 399.015 253.113C400.399 250.441 401.76 247.946 402.128 245.421C402.502 243.132 402.502 240.803 402.128 238.514C401.638 235.33 400.665 232.228 399.238 229.302C398.872 228.543 398.458 227.805 397.999 227.091C397.837 226.851 397.65 226.626 397.441 226.42C397.505 226.461 397.564 226.507 397.62 226.557C397.773 226.715 397.915 226.883 398.044 227.06C398.537 227.761 398.974 228.497 399.349 229.26C400.824 232.181 401.835 235.288 402.351 238.483C402.727 240.796 402.727 243.149 402.351 245.463C401.983 248.041 400.611 250.566 399.249 253.249C396.414 258.583 392.776 264.452 388.558 270.824C384.339 277.196 379.474 284.029 373.86 291.113C371.048 294.645 368.046 298.24 364.675 301.73C362.989 303.521 361.177 305.205 359.252 306.771C358.749 307.169 358.236 307.536 357.723 307.913C357.209 308.29 356.607 308.625 356.06 308.961C355.481 309.27 354.877 309.532 354.252 309.747C353.627 309.967 353.024 310.218 352.388 310.407C349.838 311.247 347.166 311.717 344.465 311.801C341.682 311.901 338.912 311.407 336.362 310.355C333.78 309.236 331.513 307.563 329.745 305.471C327.94 303.36 326.512 300.989 325.515 298.449C324.466 295.924 323.662 293.304 322.837 290.673C322.011 288.043 321.263 285.36 320.515 282.656C319.031 277.259 317.614 271.767 316.219 266.192C313.708 256.152 311.375 246.28 309.221 236.848V236.754C309.456 235.087 309.679 233.431 309.88 231.922V231.734H310.092L327.892 228.946H328.104L328.193 229.135L329.968 233.159C333.915 239.664 337.221 246.494 339.844 253.564C342.433 260.292 344.688 266.779 346.73 272.931L346.339 272.836C361.885 258.73 374.664 247.15 383.558 239.07L393.814 229.795L396.504 227.385L397.475 226.431Z" fill="#455A64"/>
<path d="M281.132 309.935C281.132 309.935 281.254 309.789 281.533 309.558L282.772 308.51L287.404 304.832L303.028 292.685C303.505 292.033 303.898 291.329 304.199 290.589C305.963 286.397 307.213 282.3 308.351 278.695L308.407 278.925C307.654 277.926 307.064 276.828 306.655 275.666C306.242 274.618 305.907 273.57 305.617 272.522C305.119 270.801 304.746 269.05 304.501 267.282C304.338 266.142 304.253 264.994 304.244 263.844C304.237 263.434 304.263 263.025 304.322 262.618C304.39 263.024 304.419 263.434 304.411 263.844C304.478 264.63 304.556 265.794 304.813 267.24C305.097 269.008 305.496 270.758 306.007 272.48C306.32 273.455 306.666 274.482 307.123 275.54C307.52 276.64 308.088 277.678 308.808 278.621L308.898 278.737V278.862C307.705 282.916 306.293 286.911 304.668 290.83C304.352 291.64 303.92 292.405 303.385 293.105V293.105L287.627 305.115L282.884 308.667L281.589 309.6C281.45 309.727 281.297 309.839 281.132 309.935V309.935Z" fill="#455A64"/>
<path d="M205.411 464.673L202.844 491.019V500.787C202.844 504.486 199.652 503.795 195.702 503.805L147.557 503.899C147.557 503.899 145.27 499.362 148.819 497.936C152.367 496.511 179.263 482.51 179.263 482.51L176.841 461.78L205.411 464.673Z" fill="#EBEBEB"/>
<path d="M205.411 464.673H204.886L203.391 464.536L197.699 464.012L176.841 462L177.076 461.791C177.801 467.848 178.627 474.849 179.542 482.51V482.677L179.397 482.751L161.965 491.764C158.87 493.35 155.704 494.946 152.468 496.553L150.002 497.737C149.166 498.013 148.404 498.456 147.77 499.037C147.254 499.702 147.03 500.527 147.145 501.342C147.217 502.196 147.443 503.033 147.814 503.816L147.546 503.658H149.098H185.49H193.671C194.987 503.658 196.304 503.658 197.588 503.658C198.817 503.774 200.059 503.671 201.248 503.354C201.747 503.096 202.146 502.697 202.39 502.213C202.634 501.73 202.711 501.187 202.61 500.661V497.276C202.61 495.107 202.61 493.011 202.61 490.988C203.447 482.897 204.116 476.316 204.585 471.778L205.154 466.538L205.31 465.165C205.31 464.851 205.377 464.683 205.377 464.683C205.39 464.83 205.39 464.977 205.377 465.123C205.377 465.459 205.377 465.899 205.266 466.475C205.165 467.691 205.009 469.452 204.808 471.715C204.395 476.316 203.793 482.918 203.045 491.072C203.045 493.063 203.045 495.159 203.045 497.36C203.045 498.408 203.045 499.55 203.045 500.682C203.082 501.28 202.991 501.878 202.777 502.443C202.66 502.743 202.477 503.018 202.241 503.249C202.004 503.479 201.72 503.662 201.404 503.784C200.156 504.145 198.843 504.269 197.543 504.151C196.26 504.151 194.965 504.151 193.637 504.151H185.457L149.064 504.245H147.323L147.256 504.088C146.856 503.246 146.611 502.346 146.531 501.426C146.407 500.475 146.675 499.515 147.278 498.743C147.429 498.547 147.614 498.377 147.825 498.24C148.017 498.087 148.231 497.96 148.461 497.863C148.897 497.643 149.298 497.496 149.711 497.297L152.167 496.113C155.414 494.52 158.572 492.916 161.664 491.344L179.107 482.373L178.973 482.604C178.102 474.933 177.299 467.932 176.607 461.875V461.623H176.864L197.822 463.855L203.458 464.474L204.909 464.641C205.077 464.638 205.245 464.648 205.411 464.673V464.673Z" fill="#263238"/>
<path d="M192.242 503.543C192.343 503.543 192.443 502.684 192.901 501.374C193.481 499.66 194.46 498.089 195.766 496.775C197.073 495.461 198.675 494.436 200.456 493.776C201.817 493.252 202.688 493.094 202.688 493.011C201.864 492.971 201.04 493.103 200.277 493.398C198.381 493.998 196.672 495.028 195.3 496.396C193.939 497.77 192.964 499.441 192.465 501.258C192.21 501.995 192.133 502.775 192.242 503.543V503.543Z" fill="#263238"/>
<path d="M161.82 503.868C162.113 503.36 162.267 502.79 162.266 502.212C162.391 500.812 162.085 499.408 161.385 498.167C160.664 496.945 159.684 495.875 158.505 495.023C158.056 494.635 157.529 494.336 156.954 494.142C156.954 494.216 157.434 494.625 158.238 495.316C159.277 496.209 160.162 497.248 160.86 498.397C161.511 499.561 161.851 500.856 161.853 502.17C161.797 502.734 161.786 503.302 161.82 503.868Z" fill="#263238"/>
<path d="M341.496 217.701C340.576 217.692 339.665 217.529 338.806 217.219C336.693 216.578 334.739 215.544 333.059 214.18C331.373 212.819 329.989 211.159 328.986 209.296C328.533 208.546 328.226 207.726 328.082 206.875C328.182 206.875 328.528 207.755 329.354 209.107C330.423 210.869 331.804 212.446 333.438 213.771C335.075 215.103 336.939 216.166 338.952 216.915C340.436 217.418 341.496 217.607 341.496 217.701Z" fill="#263238"/>
<path d="M182.321 322.092L132.201 387.959L157.01 402.505L227.05 326.431L182.321 322.092Z" fill="#263238"/>
<path d="M153.673 404.035L134.523 424.733L131.063 433.945C129.746 437.435 126.978 435.779 123.251 434.543L77.8521 419.462C77.8521 419.462 77.3276 414.473 81.2001 414.222C85.0726 413.97 115.394 409.275 115.394 409.275L131.688 389.164L153.673 404.035Z" fill="#EBEBEB"/>
<path d="M153.673 404.035L153.26 403.784L152.144 403.029L147.747 400.105L131.576 389.321H131.855L115.584 409.454L115.517 409.527H115.417L95.7081 412.535C92.2374 413.048 88.6997 413.583 85.0727 414.054L82.3385 414.39C81.4547 414.386 80.5814 414.569 79.7828 414.924C79.0666 415.389 78.5673 416.094 78.3878 416.894C78.1611 417.718 78.0782 418.571 78.1423 419.42L77.9526 419.189L78.4213 419.347L113.24 430.875L121.052 433.484C122.314 433.914 123.575 434.312 124.802 434.763C125.945 435.264 127.166 435.589 128.418 435.727C128.7 435.743 128.983 435.703 129.248 435.611C129.513 435.519 129.755 435.377 129.958 435.192C130.344 434.785 130.637 434.307 130.817 433.788C131.23 432.74 131.632 431.64 132.034 430.644L134.266 424.639L148.428 409.579L152.289 405.482L153.305 404.434L153.673 404.067C153.584 404.197 153.483 404.319 153.372 404.434C153.137 404.696 152.814 405.041 152.412 405.482L148.651 409.611L134.69 424.88V424.817L132.458 430.822C132.067 431.87 131.666 432.918 131.264 434.019C131.059 434.6 130.728 435.135 130.293 435.591C130.045 435.82 129.75 435.998 129.425 436.116C129.101 436.233 128.754 436.286 128.407 436.272C127.098 436.136 125.82 435.804 124.624 435.287C123.407 434.847 122.146 434.448 120.874 434.029L113.062 431.43L78.2316 419.902L77.7629 419.745L77.5843 419.682V419.514C77.5161 418.598 77.6065 417.678 77.8521 416.79C78.0695 415.86 78.6562 415.043 79.4927 414.505C79.7018 414.369 79.9312 414.263 80.1734 414.191C80.4107 414.108 80.6582 414.056 80.91 414.033C81.4122 413.96 81.8251 413.949 82.2938 413.897L85.0169 413.562C88.6327 413.08 92.1816 412.514 95.6412 412.053L115.35 409.076L115.182 409.171C121.376 401.583 126.934 394.75 131.565 389.07L131.677 388.923L131.844 389.028L147.948 400.063L152.245 403.029L153.361 403.794L153.673 404.035Z" fill="#263238"/>
<path d="M156.91 403.532L151.776 408.416C151.402 408.779 150.898 408.998 150.362 409.031C149.826 409.064 149.295 408.908 148.874 408.594L129.099 393.828C128.688 393.505 128.415 393.054 128.329 392.558C128.243 392.061 128.35 391.553 128.63 391.124L132.447 385.528C132.61 385.289 132.824 385.085 133.075 384.929C133.327 384.773 133.61 384.668 133.908 384.62C134.205 384.573 134.51 384.585 134.802 384.654C135.094 384.724 135.368 384.85 135.605 385.025L156.653 400.504C156.897 400.677 157.099 400.896 157.246 401.148C157.392 401.4 157.481 401.678 157.505 401.964C157.529 402.25 157.489 402.538 157.386 402.808C157.284 403.078 157.121 403.325 156.91 403.532V403.532Z" fill="#EBEBEB"/>
<path d="M128.34 393.293C129.183 394.234 130.105 395.11 131.096 395.913C132.86 397.464 135.348 399.55 138.239 401.719C141.129 403.889 143.819 405.702 145.883 406.959C146.899 407.578 147.725 408.06 148.316 408.374C148.602 408.569 148.919 408.72 149.254 408.825C148.26 408.032 147.213 407.3 146.118 406.634C144.154 405.314 141.475 403.49 138.607 401.3C135.739 399.11 133.206 397.108 131.375 395.641C130.426 394.79 129.411 394.006 128.34 393.293V393.293Z" fill="#263238"/>
<path d="M146.609 406.299C148.379 405.541 149.903 404.356 151.026 402.865C152.149 401.374 152.832 399.63 153.004 397.81C152.372 399.469 151.549 401.057 150.548 402.547C149.381 403.926 148.06 405.184 146.609 406.299Z" fill="#263238"/>
<path d="M138.618 401.74C140.202 400.527 141.622 399.137 142.848 397.601C144.216 396.175 145.39 394.594 146.341 392.895C144.92 394.261 143.597 395.714 142.379 397.244C141.014 398.657 139.757 400.16 138.618 401.74V401.74Z" fill="#263238"/>
<path d="M131.364 395.096C132.306 393.51 133.49 392.062 134.88 390.799C136.397 389.677 138.082 388.769 139.879 388.106C139.287 388.07 138.694 388.167 138.15 388.389C136.804 388.825 135.561 389.501 134.489 390.38C133.412 391.258 132.528 392.326 131.889 393.524C131.579 394 131.399 394.539 131.364 395.096V395.096Z" fill="#263238"/>
<path d="M120.07 433.201C120.149 433.201 120.55 432.447 121.454 431.357C122.616 429.928 124.1 428.759 125.8 427.933C127.5 427.106 129.373 426.644 131.286 426.578C132.759 426.515 133.674 426.662 133.697 426.578C132.931 426.292 132.11 426.16 131.286 426.19C129.286 426.15 127.307 426.581 125.531 427.446C123.755 428.31 122.238 429.579 121.119 431.137C120.609 431.742 120.25 432.448 120.07 433.201Z" fill="#263238"/>
<path d="M91.2553 423.916C91.7147 423.532 92.0639 423.045 92.2709 422.501C92.8861 421.218 93.0953 419.795 92.8735 418.403C92.6332 417.036 92.0936 415.73 91.2888 414.568C90.675 413.687 90.1728 413.205 90.1728 413.247C90.3617 413.784 90.6244 414.294 90.954 414.767C91.6154 415.932 92.0785 417.188 92.3267 418.487C92.5225 419.789 92.3809 421.115 91.9137 422.354C91.6475 422.856 91.4272 423.379 91.2553 423.916V423.916Z" fill="#263238"/>
<path d="M230.733 323.036H203.949C197.402 323.017 191.011 324.912 185.662 328.457C180.313 332.002 176.271 337.023 174.096 342.822V342.822C172.001 348.405 171.08 354.317 171.384 360.229L176.082 462.409L208.246 462.713L210.243 429.973L214.808 367.701L246.056 368.938L263.778 367.89L230.733 323.036Z" fill="#263238"/>
<path d="M200.222 352.442C200.155 352.631 203.916 353.49 207.922 355.859C211.928 358.227 214.495 360.9 214.618 360.763C214.218 360.054 213.685 359.419 213.044 358.888C210.157 356.129 206.593 354.078 202.666 352.914C201.888 352.621 201.06 352.461 200.222 352.442V352.442Z" fill="#263238"/>
<g opacity="0.3">
<path opacity="0.3" d="M263.209 367.9C255.932 369.168 247.93 367.072 241.681 363.415C235.436 359.751 230.917 353.985 229.048 347.297C228.255 344.341 228.01 341.281 227.218 338.326C226.581 335.292 224.856 332.554 222.329 330.571C219.272 328.475 211.75 327.07 209.507 324.209C209.507 323.78 218.435 324.744 221.414 324.901C224.673 325.069 230.141 325.844 230.03 325.488C230.03 325.488 232.206 332.667 233.177 334.228C239.694 344.708 253.979 360.135 263.209 367.9" fill="black"/>
</g>
<path d="M299.825 314.934C299.825 314.934 220.086 292.926 210.333 295.4C200.579 297.873 182.053 322.365 182.053 322.365L233.579 336.534L262.807 368.896L299.825 314.934Z" fill="#263238"/>
<path d="M176.127 462.399C176.127 462.399 176.127 462.273 176.127 462.032C176.127 461.791 176.127 461.382 176.038 460.921C175.971 459.873 175.882 458.49 175.759 456.666C175.547 452.935 175.234 447.59 174.855 441.009C174.141 427.752 173.159 409.506 172.076 389.343C171.552 379.25 171.06 369.63 170.614 360.889C170.35 356.727 170.654 352.55 171.518 348.46C172.445 344.924 173.951 341.544 175.982 338.441C177.45 335.784 179.33 333.347 181.562 331.21C183.258 329.602 185.18 328.22 187.276 327.102C188.593 326.376 190.024 325.853 191.517 325.551C192.033 325.44 192.562 325.394 193.09 325.415C193.09 325.415 192.543 325.415 191.539 325.656C190.077 326.006 188.678 326.557 187.388 327.29C182.63 330.008 178.794 333.941 176.328 338.63C174.354 341.715 172.894 345.065 171.998 348.565C171.166 352.616 170.885 356.75 171.161 360.868C171.618 369.619 172.132 379.229 172.668 389.311C173.683 409.485 174.609 427.731 175.279 440.988C175.58 447.58 175.826 452.925 176.004 456.656C176.071 458.479 176.127 459.904 176.172 460.91V462.021C176.177 462.148 176.162 462.276 176.127 462.399Z" fill="#455A64"/>
<path d="M182.053 322.365C182.053 322.365 182.165 322.187 182.421 321.841L183.537 320.332C184.564 319.011 186.093 317.072 188.146 314.631C190.2 312.189 192.767 309.223 195.958 305.932C197.554 304.297 199.306 302.579 201.282 300.86C202.275 300 203.313 299.141 204.44 298.324C205.588 297.46 206.817 296.695 208.112 296.039C208.796 295.709 209.509 295.436 210.243 295.222L211.426 295.043H212.609C214.214 295.08 215.816 295.199 217.408 295.4C220.656 295.798 224.015 296.374 227.452 297.035C234.371 298.345 241.737 299.979 249.471 301.793C264.95 305.44 281.946 309.81 299.847 314.704L300.215 314.798L300.003 315.113L293.039 325.278L262.974 369.074L262.785 369.357L262.55 369.095C251.613 356.949 241.726 345.976 233.367 336.68L233.467 336.743L201.862 327.961L193.28 325.551L191.048 324.911C190.546 324.765 190.3 324.67 190.3 324.67L191.07 324.859L193.302 325.446L201.918 327.751L233.579 336.366L262.84 368.707H262.416L292.437 324.88L299.412 314.714L299.568 315.123C281.712 310.239 264.693 305.848 249.236 302.17C241.502 300.336 234.159 298.69 227.251 297.359C223.792 296.699 220.455 296.112 217.207 295.714C215.631 295.502 214.044 295.376 212.453 295.337H211.337L210.221 295.494C209.507 295.692 208.816 295.956 208.156 296.28C206.882 296.916 205.671 297.66 204.54 298.502C203.424 299.309 202.375 300.158 201.393 301.007C199.418 302.715 197.655 304.413 196.048 306.037C192.845 309.296 190.267 312.241 188.236 314.662C186.205 317.083 184.598 319.001 183.549 320.3L182.354 321.778C182.198 322.208 182.053 322.365 182.053 322.365Z" fill="#455A64"/>
<path d="M216.08 355.89C216.236 355.89 215.756 361.392 214.964 368.131C214.172 374.87 213.446 380.33 213.29 380.309C213.134 380.288 213.625 374.817 214.406 368.079C215.187 361.34 215.924 355.88 216.08 355.89Z" fill="#455A64"/>
<path d="M327.602 135.527C328.512 132.12 330.371 129.002 332.988 126.493C335.606 123.984 338.888 122.175 342.496 121.251C346.105 120.327 349.91 120.322 353.522 121.236C357.133 122.15 360.42 123.95 363.046 126.452C365.177 128.474 366.874 130.958 369.385 132.541C372.231 134.343 372.643 133.809 375.824 134.993C379.005 136.177 384.853 144.498 384.752 147.716L386.348 161.811C386.214 165.112 381.705 166.967 378.369 165.888C375.032 164.808 372.789 161.895 371.081 159.034C369.374 156.173 367.677 153.081 364.798 151.184C360.022 148.04 353.56 149.088 347.835 150.21C342.11 151.331 335.559 152.096 331.095 148.564C327.211 145.525 326.374 140.107 327.602 135.527Z" fill="#263238"/>
<path d="M324.455 155.649C325.091 146.479 331.597 135.234 341.329 136.219L371.706 143.555C373.132 143.699 374.449 144.339 375.398 145.35C376.346 146.361 376.856 147.668 376.829 149.015L373.402 217.848H373.614C373.614 217.848 361.26 242.455 341.172 236.523C337.188 235.339 340.804 226.043 340.056 221.851H339.844C339.844 221.348 339.844 220.887 339.844 220.405C339.449 217.274 339.408 214.112 339.722 210.973V210.973C339.666 205.418 339.666 203.144 339.666 203.186C339.666 203.228 327.133 201.216 324.577 185.915C323.316 178.307 323.752 165.846 324.455 155.649Z" fill="#FFBE9D"/>
<path d="M329.053 167.963C329.046 168.475 329.252 168.969 329.627 169.341C330.002 169.712 330.517 169.932 331.061 169.954C331.328 169.973 331.595 169.941 331.849 169.862C332.102 169.783 332.336 169.657 332.537 169.493C332.739 169.328 332.903 169.127 333.022 168.903C333.14 168.678 333.209 168.433 333.226 168.183C333.23 167.673 333.022 167.181 332.648 166.812C332.273 166.443 331.76 166.224 331.218 166.202C330.952 166.182 330.685 166.212 330.431 166.29C330.178 166.368 329.944 166.493 329.742 166.657C329.541 166.82 329.376 167.02 329.258 167.245C329.139 167.469 329.07 167.713 329.053 167.963Z" fill="#263238"/>
<path d="M327.323 162.147C327.58 162.398 329.164 161.298 331.419 161.308C333.673 161.319 335.302 162.356 335.548 162.126C335.793 161.895 335.403 161.549 334.688 161.078C333.712 160.427 332.538 160.089 331.34 160.113C330.171 160.103 329.029 160.445 328.082 161.088C327.434 161.57 327.2 162.031 327.323 162.147Z" fill="#263238"/>
<path d="M349.364 168.089C349.355 168.6 349.56 169.095 349.936 169.466C350.312 169.836 350.828 170.053 351.373 170.069C351.638 170.091 351.905 170.062 352.159 169.984C352.412 169.907 352.646 169.782 352.847 169.618C353.048 169.454 353.212 169.253 353.328 169.028C353.445 168.803 353.513 168.559 353.527 168.309C353.533 167.798 353.326 167.305 352.951 166.935C352.576 166.565 352.061 166.347 351.518 166.328C351.252 166.307 350.985 166.336 350.732 166.413C350.478 166.491 350.244 166.615 350.043 166.78C349.842 166.944 349.679 167.144 349.562 167.369C349.445 167.594 349.378 167.839 349.364 168.089Z" fill="#263238"/>
<path d="M349.42 162.587C349.676 162.838 351.261 161.738 353.504 161.748C355.747 161.759 357.399 162.796 357.645 162.566C357.89 162.335 357.499 161.989 356.785 161.518C355.806 160.871 354.634 160.534 353.437 160.554C352.268 160.546 351.127 160.887 350.178 161.528C349.52 162.01 349.308 162.44 349.42 162.587Z" fill="#263238"/>
<path d="M341.217 178.223C340.035 177.864 338.808 177.652 337.568 177.594C336.999 177.531 336.452 177.426 336.362 177.06C336.312 176.505 336.444 175.948 336.742 175.467C337.289 174.157 337.858 172.794 338.449 171.358C340.826 165.521 342.545 160.721 342.288 160.637C342.032 160.554 339.911 165.207 337.545 171.044C336.976 172.49 336.429 173.863 335.905 175.173C335.55 175.818 335.443 176.559 335.604 177.269C335.689 177.459 335.818 177.627 335.983 177.764C336.147 177.9 336.341 177.999 336.552 178.055C336.868 178.139 337.195 178.181 337.523 178.181C338.748 178.34 339.989 178.354 341.217 178.223V178.223Z" fill="#263238"/>
<path d="M339.61 203.186C347.28 203.315 354.838 201.439 361.439 197.768C361.439 197.768 355.859 208.405 339.61 206.938V203.186Z" fill="#EB996E"/>
<path d="M342.166 183.306C342.593 182.801 343.151 182.408 343.785 182.162C344.42 181.917 345.111 181.827 345.793 181.901C346.289 181.945 346.771 182.081 347.21 182.303C347.648 182.524 348.036 182.826 348.348 183.19C348.649 183.542 348.826 183.973 348.856 184.423C348.886 184.873 348.767 185.321 348.516 185.706C348.156 186.086 347.682 186.356 347.157 186.481C346.632 186.606 346.079 186.58 345.569 186.408C344.507 186.052 343.532 185.499 342.701 184.783C342.445 184.618 342.226 184.408 342.054 184.165C341.972 184.048 341.928 183.912 341.928 183.772C341.928 183.632 341.972 183.496 342.054 183.379" fill="#EB996E"/>
<path d="M347.835 179.69C347.467 179.69 347.456 181.964 345.369 183.589C343.282 185.213 340.681 184.951 340.659 185.265C340.659 185.412 341.239 185.716 342.333 185.747C343.761 185.766 345.152 185.314 346.261 184.469C347.324 183.656 348.008 182.487 348.17 181.21C348.27 180.256 348.002 179.68 347.835 179.69Z" fill="#263238"/>
<path d="M348.873 154.549C349.096 155.125 351.339 154.863 353.973 155.167C356.607 155.471 358.738 156.142 359.095 155.628C359.252 155.387 358.883 154.842 357.979 154.287C356.83 153.6 355.528 153.169 354.174 153.027C352.82 152.885 351.45 153.037 350.167 153.469C349.308 153.825 348.783 154.276 348.873 154.549Z" fill="#263238"/>
<path d="M328.16 156.037C328.562 156.519 330.113 156.037 331.965 156.037C333.818 156.037 335.403 156.362 335.771 155.859C335.927 155.617 335.682 155.135 335.001 154.685C334.076 154.135 332.998 153.858 331.905 153.887C330.811 153.917 329.752 154.253 328.863 154.852C328.204 155.314 327.992 155.806 328.16 156.037Z" fill="#263238"/>
<path d="M341.864 132.31L343.248 130.644C352.655 131.662 361.871 133.872 370.646 137.215C374.15 138.546 377.699 140.149 380.087 142.905C383.435 146.678 383.915 151.897 384.284 156.77C385.712 175.33 386.895 194.446 380.679 212.105C379.183 209.852 376.215 208.835 373.469 208.332C370.724 207.829 367.767 207.651 365.256 206.446C363.879 205.757 362.671 204.806 361.71 203.652C360.749 202.499 360.056 201.169 359.676 199.749C358.946 196.885 359.301 193.873 360.68 191.229C362.198 188.284 364.887 185.444 364.229 182.237C363.571 179.03 359.441 176.997 358.47 173.664C356.808 167.963 365.323 162.849 363.604 157.169C363.202 156.143 362.58 155.206 361.778 154.415C360.976 153.624 360.01 152.995 358.939 152.568C356.852 151.593 354.576 151.059 352.466 150.136C348.978 148.531 346.094 145.964 344.199 142.779C342.305 139.593 341.49 135.941 341.864 132.31V132.31Z" fill="#263238"/>
<path d="M387.364 215.112C387.364 215.112 400.432 221.4 404.383 227.248C415.911 244.425 402.954 300.346 402.954 300.346C396.22 293.21 387.619 287.849 378 284.794L373.469 283.348C365.999 280.997 359.157 277.158 353.413 272.093C347.669 267.028 343.159 260.858 340.19 254.004L326.196 221.746L387.364 215.112Z" fill="#FF725E"/>
<path d="M363.046 126.452C372.554 126.944 376.784 128.967 386.895 142.276C398.178 157.127 406.369 187.665 399.64 203.962C396.939 210.47 393.881 212.985 393.881 212.985L367.7 212.891L345.223 212.817L335.816 207.871C342.512 210.585 355.558 205.324 361.383 201.143C367.209 196.961 370.947 191.134 374.34 185.035C377.175 179.942 379.284 175.142 378.804 169.42C378.38 164.588 375.657 159.16 373.67 154.685" fill="#FF725E"/>
<path d="M405.543 228.967C405.543 228.967 399.907 218.11 392.564 212.199C385.221 206.288 380.701 206.288 370.244 207.116C359.787 207.944 343.527 209.128 340.056 208.311C339.275 208.122 339.934 203.26 339.934 203.26C338.215 203.092 332.479 200.702 331.106 198.753L327.925 206.844L326.207 207.452C323.673 208.323 321.569 210.039 320.297 212.274C319.025 214.508 318.674 217.104 319.31 219.566C319.957 221.914 321.542 223.36 324.711 223.874C337.3 225.97 370.947 217.376 381.092 217.324C391.236 217.271 405.543 228.967 405.543 228.967Z" fill="#FF725E"/>
<path d="M323.573 223.706C323.866 223.68 324.161 223.68 324.455 223.706C325.024 223.706 325.861 223.842 326.954 223.905C330.021 224.134 333.1 224.183 336.173 224.052C340.729 223.833 345.257 223.255 349.71 222.323C352.221 221.809 354.843 221.18 357.522 220.457L365.825 218.047C371.516 216.412 377.23 215.312 382.453 215.794C387.058 216.196 391.512 217.544 395.499 219.745C398.18 221.215 400.604 223.064 402.686 225.226C403.249 225.814 403.778 226.43 404.271 227.07C404.451 227.287 404.615 227.514 404.762 227.751C404.542 227.566 404.344 227.358 404.171 227.133C403.825 226.714 403.255 226.085 402.519 225.372C397.223 220.152 390.08 216.925 382.431 216.297C377.308 215.846 371.684 216.946 366.014 218.571C363.169 219.378 360.434 220.227 357.7 220.971C354.966 221.715 352.355 222.312 349.832 222.815C345.346 223.728 340.782 224.272 336.195 224.44C333.107 224.531 330.016 224.426 326.943 224.125C325.827 224.02 325.013 223.895 324.443 223.811C324.15 223.803 323.859 223.768 323.573 223.706Z" fill="#263238"/>
<path d="M334.644 201.08C334.738 201.278 334.809 201.485 334.856 201.698C334.99 202.107 335.179 202.746 335.481 203.459C335.848 204.376 336.289 205.265 336.798 206.121C337.449 207.242 338.303 208.249 339.32 209.097C340.803 209.759 342.45 210.031 344.085 209.883C346.003 209.827 347.916 209.656 349.81 209.369C351.819 209.086 353.917 208.709 356.082 208.269L359.43 207.577C360.546 207.378 361.718 207.148 362.89 207.032C367.282 206.394 371.729 206.152 376.17 206.309C379.813 206.47 383.394 207.251 386.739 208.615C388.999 209.531 391.066 210.819 392.843 212.419C393.32 212.853 393.768 213.315 394.182 213.802C394.333 213.969 394.467 214.148 394.584 214.337C394.584 214.337 393.959 213.656 392.687 212.576C390.881 211.06 388.818 209.838 386.582 208.961C383.259 207.689 379.723 206.979 376.137 206.865C371.732 206.736 367.323 206.988 362.968 207.619C361.785 207.745 360.669 207.976 359.553 208.164L356.205 208.845C354.025 209.286 351.919 209.635 349.888 209.893C347.971 210.173 346.036 210.33 344.096 210.365C342.367 210.503 340.631 210.184 339.085 209.443C338.034 208.55 337.164 207.484 336.519 206.299C336.019 205.423 335.601 204.507 335.269 203.563C335.058 202.972 334.883 202.37 334.744 201.761C334.686 201.538 334.652 201.309 334.644 201.08V201.08Z" fill="#263238"/>
<g opacity="0.3">
<path opacity="0.3" d="M379.005 216.171C370.244 216.171 361.606 219.986 353.125 221.893C344.643 223.8 338.237 224.115 329.466 223.989L328.539 227.846C338.952 233.086 351.06 233.201 362.287 229.847C368.983 227.867 375.021 224.429 381.728 222.627C388.435 220.824 398.111 221.516 403.2 226.001C398.635 218.927 387.777 216.16 379.005 216.171Z" fill="black"/>
</g>
<g opacity="0.3">
<path opacity="0.3" d="M334.577 215.312C334.99 216.151 335.589 216.898 336.334 217.504C337.079 218.109 337.952 218.558 338.896 218.822C340.788 219.327 342.766 219.483 344.721 219.284C351.875 218.833 358.738 216.59 365.512 214.368C360.1 214.19 354.866 215.961 349.565 216.957C344.264 217.953 338.271 218.005 333.941 214.976" fill="black"/>
</g>
<path d="M209.741 458.961L208.792 466.58C208.723 467.145 208.432 467.665 207.976 468.039C207.52 468.413 206.931 468.614 206.326 468.603L177.957 468.215C177.352 468.209 176.772 467.99 176.33 467.602C175.888 467.215 175.616 466.685 175.569 466.119L174.866 458.678C174.838 458.36 174.881 458.04 174.992 457.738C175.103 457.436 175.279 457.159 175.51 456.925C175.741 456.69 176.021 456.503 176.333 456.376C176.645 456.248 176.981 456.183 177.321 456.184L207.33 456.394C207.675 456.394 208.016 456.463 208.33 456.597C208.644 456.73 208.924 456.925 209.152 457.167C209.38 457.41 209.55 457.696 209.652 458.005C209.753 458.314 209.784 458.64 209.741 458.961V458.961Z" fill="#EBEBEB"/>
<path d="M176.864 468.257C178.299 468.558 179.759 468.744 181.227 468.812C183.928 469.053 187.678 469.305 191.818 469.378C195.958 469.452 199.73 469.294 202.431 469.085C203.793 468.98 204.886 468.875 205.634 468.781C206.033 468.763 206.428 468.693 206.806 468.571C205.34 468.504 203.871 468.529 202.409 468.645C199.708 468.739 195.97 468.812 191.829 468.749C187.689 468.686 184.017 468.498 181.261 468.372C179.8 468.239 178.33 468.2 176.864 468.257V468.257Z" fill="#263238"/>
<path d="M202.61 468.058C203.63 466.242 204.119 464.205 204.027 462.154C203.935 460.103 203.265 458.111 202.085 456.383C201.896 456.456 203.201 458.898 203.358 462.178C203.514 465.459 202.409 467.995 202.61 468.058Z" fill="#263238"/>
<path d="M192.175 469.148C193.008 464.913 193.143 460.583 192.577 456.31C192.387 456.31 192.343 459.192 192.231 462.723C192.119 466.255 191.952 469.127 192.175 469.148Z" fill="#263238"/>
<path d="M180.792 467.9C181.004 467.9 180.055 465.134 180.792 461.812C181.529 458.489 183.448 456.299 183.27 456.194C183.091 456.09 182.633 456.603 181.941 457.557C181.065 458.812 180.455 460.214 180.145 461.686C179.83 463.163 179.83 464.684 180.145 466.161C180.22 466.779 180.442 467.373 180.792 467.9Z" fill="#263238"/>
<path d="M409.583 441.386L399.428 503.774H389.35L393.87 440.108L409.583 441.386Z" fill="#455A64"/>
<path d="M230.822 441.627V503.773H220.187L216.225 441.386L230.822 441.627Z" fill="#455A64"/>
<path d="M400.131 257.525C401.905 253.092 407.664 230.193 412.719 230.277C415.865 230.534 418.971 231.114 421.982 232.006C426.108 233.122 429.703 235.53 432.17 238.83C434.636 242.13 435.826 246.124 435.541 250.147L433.767 276.022C434.191 278.946 409.583 441.344 409.583 441.344H399.45L216.225 442.937L210.02 428.768L214.852 367.659L261.992 367.974C261.992 367.974 280.707 314.704 298.251 311.088C310.125 308.636 336.909 309.317 353.884 313.184L372.945 317.932L400.131 257.525Z" fill="#455A64"/>
<path d="M250.921 442.675C250.936 442.415 250.914 442.154 250.854 441.9C250.765 441.334 250.642 440.611 250.508 439.709C250.375 438.808 250.14 437.613 249.984 436.24C249.828 434.868 249.56 433.348 249.437 431.64C249.314 429.931 249.08 428.056 249.002 426.033C248.924 424.01 248.857 421.841 248.823 419.588C248.843 414.664 249.148 409.745 249.738 404.853C250.377 399.964 251.283 395.109 252.45 390.307C253.566 385.895 254.749 381.923 255.888 378.684C256.412 377.039 257.004 375.54 257.472 374.293C257.941 373.046 258.376 371.904 258.745 371.002L259.559 368.906C259.675 368.669 259.757 368.419 259.805 368.162C259.656 368.38 259.532 368.612 259.436 368.854L258.499 370.887C258.086 371.778 257.606 372.857 257.104 374.146C256.602 375.435 255.988 376.882 255.43 378.527C254.225 381.786 252.975 385.727 251.837 390.16C250.626 394.975 249.699 399.848 249.058 404.759C248.47 409.675 248.179 414.619 248.187 419.567C248.243 421.851 248.265 424.021 248.433 426.043C248.6 428.066 248.756 429.942 248.946 431.661C249.136 433.379 249.404 434.92 249.604 436.272C249.805 437.624 250.04 438.787 250.241 439.73C250.441 440.673 250.598 441.344 250.72 441.91C250.759 442.171 250.826 442.427 250.921 442.675V442.675Z" fill="#263238"/>
<path d="M408.992 333.61C408.823 333.544 408.665 333.455 408.523 333.348L407.273 332.499C406.737 332.111 406.068 331.671 405.264 331.189C404.461 330.707 403.59 330.141 402.541 329.564C401.492 328.988 400.387 328.359 399.137 327.751C397.887 327.144 396.548 326.515 395.131 325.855C392.263 324.607 389.049 323.339 385.623 322.166C378.748 319.829 372.365 318.131 367.767 316.926L362.287 315.448L360.803 315.029C360.468 314.924 360.289 314.861 360.301 314.84C360.482 314.849 360.662 314.877 360.836 314.924L362.343 315.238C363.649 315.532 365.535 315.961 367.856 316.538C372.498 317.67 378.915 319.305 385.812 321.652C389.272 322.836 392.508 324.125 395.365 325.404C396.783 326.075 398.144 326.682 399.372 327.353C400.599 328.024 401.749 328.632 402.72 329.24C403.691 329.847 404.628 330.424 405.409 330.937C406.087 331.368 406.739 331.833 407.362 332.331L408.556 333.253C408.717 333.354 408.864 333.474 408.992 333.61Z" fill="#263238"/>
<path d="M393.87 440.16C393.87 440.16 393.87 439.971 393.926 439.625C393.981 439.28 394.037 438.735 394.127 438.064C394.327 436.681 394.606 434.668 394.964 432.09C395.734 426.85 396.827 419.378 398.178 410.082C399.528 400.787 401.191 389.772 403.01 377.511C404.829 365.249 407.15 351.814 409.706 337.687C414.761 309.516 419.75 284.071 423.355 265.658C425.196 256.477 426.703 249.047 427.74 243.88C428.276 241.323 428.689 239.332 428.979 237.959L429.314 236.429C429.392 236.083 429.448 235.905 429.448 235.905C429.432 236.084 429.406 236.262 429.37 236.439C429.303 236.806 429.214 237.32 429.091 237.98C428.834 239.363 428.455 241.354 427.975 243.912C426.982 249.089 425.542 256.487 423.768 265.731C420.23 284.155 415.342 309.611 410.286 337.781C407.775 351.866 405.465 365.301 403.59 377.542C401.715 389.783 400.053 400.818 398.635 410.093C397.218 419.368 396.057 426.861 395.287 432.038L394.327 438.001C394.216 438.661 394.138 439.175 394.071 439.542C394.004 439.908 393.87 440.16 393.87 440.16Z" fill="#263238"/>
<path d="M211.259 403.868C211.259 403.721 219.562 403.595 229.807 403.595C240.051 403.595 248.343 403.721 248.343 403.868C248.343 404.014 240.04 404.151 229.807 404.151C219.573 404.151 211.259 404.025 211.259 403.868Z" fill="#263238"/>
<path d="M297.972 197.915C297.972 197.915 298.63 193.953 295.494 194.456C292.358 194.959 290.45 199.56 290.45 199.56C290.45 199.56 286.578 200.933 286.299 202.201C286.02 203.469 288.586 206.592 288.586 206.592C287.44 206.951 286.381 207.521 285.473 208.269C284.178 209.411 285.473 210.795 286.589 212.849C287.173 213.995 287.971 215.035 288.943 215.919C288.439 216.318 288.042 216.823 287.784 217.393C287.526 217.963 287.415 218.582 287.459 219.2C287.783 221.076 291.008 223.622 291.008 223.622C292.37 224.481 293.668 225.426 294.892 226.452C296.57 227.806 298.321 229.08 300.137 230.267H310.951L312.737 222.26L299.456 211.182L297.972 197.915Z" fill="#FFBE9D"/>
<path d="M326.988 195.263C327.169 195.199 327.364 195.173 327.557 195.189C327.751 195.204 327.938 195.26 328.105 195.353C328.272 195.445 328.415 195.572 328.523 195.723C328.631 195.875 328.701 196.047 328.729 196.228C329.086 198.324 329.778 201.677 330.191 202.966C330.526 204.014 328.908 208.206 328.908 208.206L324.444 203.888C324.444 203.888 323.718 199.916 324.365 197.6C324.579 197.046 324.928 196.547 325.383 196.141C325.838 195.735 326.388 195.435 326.988 195.263Z" fill="#EB996E"/>
<path d="M326.039 197.024L299.891 191.124C299.891 191.124 294.044 207.661 294.657 211.811C294.82 213.19 295.304 214.518 296.076 215.701C296.847 216.884 297.887 217.892 299.121 218.655L312.703 221.453C312.703 221.453 321.877 220.625 324.644 207.661C325.403 203.972 326.039 197.024 326.039 197.024Z" fill="white"/>
<path d="M326.039 197.024C326.057 197.209 326.057 197.395 326.039 197.579C326.039 197.988 325.961 198.523 325.917 199.193C325.783 200.598 325.593 202.662 325.214 205.251C325.021 206.682 324.73 208.099 324.343 209.495C324.176 210.271 323.841 211.036 323.573 211.843C323.255 212.667 322.882 213.472 322.457 214.253C321.542 215.986 320.289 217.543 318.763 218.843C317.071 220.307 314.975 221.295 312.714 221.694H312.625L299.043 218.927C297.17 217.754 295.762 216.034 295.037 214.033C294.64 213.002 294.439 211.912 294.445 210.816C294.511 209.76 294.653 208.709 294.87 207.672C295.282 205.576 295.807 203.647 296.343 201.74C297.459 197.915 298.575 194.404 299.769 191.071L299.836 190.862L300.07 190.914L319.042 195.326L324.321 196.584L325.693 196.93C325.851 196.955 326.004 196.997 326.151 197.055C325.974 197.041 325.799 197.013 325.626 196.972L324.198 196.678L318.841 195.536L299.947 191.344L300.249 191.187C299.133 194.456 298.017 198.03 296.901 201.834C296.365 203.731 295.852 205.701 295.45 207.724C295.234 208.733 295.096 209.756 295.037 210.784C295.028 211.818 295.221 212.844 295.606 213.813C296.281 215.69 297.594 217.307 299.345 218.414H299.255L312.837 221.222H312.748C314.9 220.831 316.899 219.896 318.529 218.518C320.019 217.264 321.248 215.761 322.156 214.085C322.569 213.317 322.942 212.53 323.272 211.727C323.54 210.931 323.874 210.187 324.053 209.422C324.455 208.043 324.768 206.644 324.99 205.23C325.403 202.652 325.649 200.598 325.827 199.204C325.917 198.533 325.984 197.999 326.039 197.6C326.01 197.409 326.01 197.215 326.039 197.024V197.024Z" fill="#263238"/>
<path d="M317.982 200.262C317.982 200.262 323.294 200.514 322.993 203.406L326.821 203.857C326.956 202.644 326.595 201.428 325.812 200.455C325.029 199.483 323.882 198.825 322.602 198.617L318.663 197.737" fill="white"/>
<path d="M318.663 197.726C319.753 197.806 320.832 197.982 321.888 198.25C323.103 198.405 324.255 198.848 325.236 199.539C325.835 199.991 326.317 200.564 326.648 201.216C326.978 201.867 327.148 202.58 327.144 203.301C327.161 203.5 327.161 203.7 327.144 203.899V204.171H326.854L323.026 203.7H322.769V203.459C322.791 203.072 322.699 202.687 322.502 202.346C322.305 202.006 322.011 201.724 321.653 201.53C321.075 201.183 320.442 200.922 319.779 200.755C318.663 200.461 317.971 200.399 317.971 200.336C318.602 200.253 319.244 200.296 319.857 200.461C320.572 200.594 321.259 200.839 321.888 201.185C322.295 201.405 322.639 201.714 322.892 202.086C323.165 202.511 323.29 203.006 323.249 203.501L323.015 203.239L326.843 203.668L326.519 203.899C326.536 203.728 326.536 203.556 326.519 203.385C326.521 202.741 326.373 202.105 326.086 201.52C325.799 200.936 325.379 200.417 324.856 200C323.947 199.341 322.884 198.895 321.754 198.701C320.695 198.463 319.66 198.137 318.663 197.726Z" fill="#263238"/>
<path d="M328.751 226.567C328.751 226.567 332.099 214.641 332.188 212.943C332.278 211.245 326.988 201.499 325.024 201.216C323.06 200.933 319.287 200.168 317.982 203.081C317.982 203.081 313.853 202.159 312.748 207.756C312.748 207.756 309.958 207.965 309.634 209.548C309.414 211.556 309.336 213.576 309.4 215.595C308.903 215.353 308.337 215.269 307.785 215.356C307.233 215.443 306.727 215.696 306.342 216.077C305.114 217.45 305.985 218.739 306.855 219.923C307.565 220.825 308.336 221.683 309.165 222.49C309.165 222.49 308.395 228.212 308.764 229.764C308.846 230.197 309.063 230.598 309.386 230.917C309.709 231.235 310.126 231.458 310.583 231.556L328.383 228.757L328.751 226.567Z" fill="#FFBE9D"/>
<path d="M312.748 207.703C312.748 207.651 313.272 207.64 313.998 207.976C314.911 208.445 315.697 209.105 316.297 209.904C317.214 210.945 317.898 212.15 318.306 213.446C318.138 213.54 317.19 211.968 315.839 210.229C315.27 209.493 314.581 208.845 313.797 208.311C313.183 207.923 312.726 207.797 312.748 207.703Z" fill="#EB996E"/>
<path d="M310.248 213.257C310.36 213.153 311.364 214.023 312.212 215.354C312.825 216.103 313.21 216.993 313.328 217.932C312.695 217.231 312.155 216.46 311.721 215.636C311.127 214.904 310.632 214.105 310.248 213.257V213.257Z" fill="#EB996E"/>
<path d="M312.725 217.743L309.869 215.72C309.723 215.615 309.578 215.846 309.723 215.94L312.58 217.963C312.725 218.068 312.871 217.837 312.725 217.743Z" fill="#EB996E"/>
<path d="M317.982 203.029C319.503 203.994 320.724 205.322 321.52 206.875C321.966 207.978 322.495 209.05 323.104 210.082C323.618 210.816 324.131 211.13 324.075 211.203C324.019 211.277 323.428 211.057 322.781 210.313C322.05 209.321 321.454 208.247 321.006 207.116C319.645 204.716 317.837 203.155 317.982 203.029Z" fill="#EB996E"/>
<path d="M288.832 206.823C290.346 206.04 292.076 205.702 293.798 205.853C295.519 206.005 297.152 206.638 298.485 207.672C298.697 207.828 298.872 208.024 298.999 208.248C299.078 208.497 299.08 208.763 299.005 209.013C298.93 209.264 298.781 209.489 298.575 209.663C297.934 210.199 297.111 210.503 296.253 210.522C295.405 210.575 294.557 210.522 293.709 210.459C291.85 210.457 290.026 210.94 288.441 211.853" fill="#FFBE9D"/>
<path d="M288.899 206.938C290.115 206.312 291.474 205.973 292.861 205.951C294.247 205.929 295.619 206.225 296.856 206.812C297.485 207.094 298.061 207.469 298.563 207.923C299.367 208.688 298.642 209.631 297.805 210.019C296.343 210.711 294.624 210.26 293.062 210.355C291.4 210.453 289.788 210.928 288.363 211.738C288.207 211.822 288.363 212.052 288.508 211.969C290.187 211.012 292.126 210.538 294.088 210.606C295.606 210.606 297.436 210.889 298.608 209.799C298.838 209.617 299.01 209.379 299.104 209.11C299.199 208.842 299.213 208.555 299.144 208.28C298.943 207.714 298.24 207.305 297.738 206.99C296.502 206.252 295.091 205.812 293.631 205.712C291.927 205.602 290.227 205.966 288.743 206.76C288.586 206.844 288.743 207.074 288.888 206.99L288.899 206.938Z" fill="#EB996E"/>
<path d="M289.267 215.584C290.35 214.456 291.734 213.621 293.277 213.166C294.82 212.711 296.464 212.652 298.039 212.996C298.039 214.127 297.961 215.416 297.012 216.14C296.404 216.479 295.74 216.723 295.048 216.863C294.35 217.107 293.72 217.496 293.204 218C292.688 218.504 292.3 219.111 292.068 219.776" fill="#FFBE9D"/>
<path d="M289.368 215.678C290.433 214.569 291.794 213.747 293.311 213.298C294.827 212.848 296.444 212.787 297.994 213.121L297.894 212.996C297.958 213.8 297.821 214.608 297.492 215.354C297.001 216.255 296.008 216.402 295.082 216.695C294.345 216.94 293.679 217.341 293.133 217.866C292.588 218.391 292.178 219.027 291.934 219.724C291.868 219.881 292.147 219.954 292.202 219.787C292.5 218.957 293.051 218.228 293.787 217.691C294.584 217.211 295.458 216.857 296.376 216.643C297.983 216.045 298.173 214.484 298.173 213.048C298.172 213.02 298.162 212.993 298.144 212.97C298.126 212.948 298.101 212.931 298.072 212.922C296.471 212.57 294.798 212.627 293.228 213.088C291.658 213.549 290.248 214.396 289.145 215.542C289.022 215.668 289.223 215.857 289.345 215.731L289.368 215.678Z" fill="#EB996E"/>
<path d="M289.379 200C289.379 200 293.173 198.219 294.836 198.303C296.499 198.386 299.534 199.11 299.836 200.241C300.046 200.939 299.967 201.686 299.615 202.331C299.263 202.976 298.664 203.473 297.939 203.721C296.614 203.956 295.25 203.917 293.943 203.605L291.711 204.465" fill="#FFBE9D"/>
<path d="M291.734 204.465C292.407 204.046 293.125 203.694 293.876 203.417V203.417H293.943C295.152 203.675 296.404 203.707 297.626 203.511C297.979 203.438 298.311 203.29 298.595 203.08C298.879 202.869 299.108 202.601 299.267 202.295C299.619 201.647 299.687 200.895 299.456 200.199C299.029 199.694 298.443 199.328 297.782 199.151C297.136 198.935 296.472 198.77 295.796 198.659C295.207 198.53 294.597 198.508 293.999 198.596C293.467 198.691 292.941 198.817 292.426 198.973C290.517 199.571 289.368 200.021 289.334 200.021C290.237 199.424 291.23 198.958 292.28 198.638C292.81 198.441 293.354 198.283 293.91 198.166C294.229 198.105 294.555 198.077 294.881 198.082C295.216 198.082 295.55 198.145 295.885 198.187C296.594 198.291 297.293 198.452 297.972 198.669C298.336 198.796 298.691 198.946 299.032 199.12C299.427 199.309 299.756 199.6 299.981 199.958C300.142 200.387 300.205 200.843 300.166 201.296C300.128 201.749 299.989 202.189 299.758 202.589C299.557 202.955 299.271 203.274 298.922 203.523C298.572 203.771 298.167 203.943 297.738 204.025C296.44 204.222 295.112 204.14 293.854 203.784H293.966C293.247 204.078 292.499 204.306 291.734 204.465V204.465Z" fill="#EB996E"/>
<path d="M306.052 218.403C306.685 218.849 307.204 219.422 307.57 220.08C307.993 220.797 308.198 221.609 308.161 222.428C308.161 223.329 307.96 224.282 307.938 225.268C307.897 226.953 308.328 228.619 309.188 230.099C309.846 231.252 310.449 231.849 310.382 231.912C309.732 231.501 309.199 230.947 308.831 230.298C307.818 228.788 307.305 227.03 307.358 225.247C307.358 224.199 307.603 223.266 307.625 222.417C307.686 221.675 307.54 220.931 307.201 220.258C306.576 219.095 305.963 218.466 306.052 218.403Z" fill="#EB996E"/>
<path d="M321.084 171.746C321.084 171.799 320.694 171.809 320.292 172.249C320.049 172.591 319.892 172.979 319.832 173.386C319.772 173.792 319.811 174.206 319.946 174.597C320.069 175.11 320.303 175.645 320.448 176.326C320.639 177.045 320.56 177.804 320.225 178.474C319.455 179.9 317.859 180.707 316.698 181.87C316.12 182.395 315.749 183.09 315.649 183.84C315.614 184.559 315.755 185.277 316.062 185.936C316.706 187.08 317.218 188.285 317.591 189.531C317.696 189.974 317.697 190.432 317.595 190.875C317.493 191.319 317.29 191.736 317 192.098C316.565 192.601 316.163 192.685 316.163 192.654C316.163 192.622 316.475 192.465 316.821 191.973C317.272 191.26 317.404 190.408 317.19 189.604C316.764 188.404 316.222 187.243 315.571 186.135C315.215 185.407 315.047 184.61 315.08 183.809C315.188 182.935 315.609 182.122 316.274 181.503C317.547 180.266 319.076 179.47 319.745 178.265C320.415 177.06 319.745 175.76 319.544 174.691C319.415 174.251 319.4 173.788 319.501 173.341C319.602 172.894 319.816 172.477 320.125 172.124C320.649 171.641 321.107 171.736 321.084 171.746Z" fill="#263238"/>
<path d="M311.855 190.474C311.855 190.474 312.112 190.296 312.402 189.877C312.79 189.269 312.921 188.548 312.77 187.854C312.47 186.814 312.023 185.817 311.442 184.888C311.131 184.274 310.931 183.615 310.851 182.939C310.796 182.192 311.021 181.45 311.487 180.843C312.448 179.835 313.481 178.89 314.578 178.013C314.985 177.621 315.271 177.132 315.404 176.598C315.49 176.124 315.464 175.637 315.326 175.173C315.053 174.44 315.053 173.642 315.326 172.91C315.594 172.396 315.962 172.302 315.962 172.333C315.962 172.365 315.705 172.522 315.538 172.993C315.364 173.692 315.426 174.425 315.716 175.089C315.927 175.642 315.969 176.24 315.837 176.814C315.705 177.388 315.404 177.916 314.969 178.338C314.076 179.323 312.737 180.046 311.956 181.147C311.555 181.666 311.362 182.3 311.409 182.939C311.477 183.551 311.65 184.15 311.922 184.71C312.501 185.694 312.923 186.754 313.172 187.854C313.233 188.24 313.211 188.634 313.108 189.012C313.004 189.39 312.821 189.744 312.569 190.055C312.201 190.432 311.855 190.505 311.855 190.474Z" fill="#263238"/>
<path d="M361.071 504.015H368.235L396.894 397.475H382.141L361.071 504.015Z" fill="#263238"/>
<path d="M496.497 397.475H370.769H354.676V383.243H496.497V397.475Z" fill="#263238"/>
<path d="M497.423 503.847L490.259 503.91L460.484 397.643L475.226 397.506L497.423 503.847Z" fill="#263238"/>
<path d="M470.405 342.696H482.402C488.239 342.696 492.692 348.25 492.692 353.731V365.49C492.692 365.89 492.608 366.287 492.444 366.657C492.281 367.027 492.042 367.363 491.741 367.646C491.439 367.93 491.081 368.154 490.687 368.307C490.293 368.461 489.871 368.54 489.444 368.54V368.54C488.587 368.542 487.763 368.227 487.152 367.661C486.542 367.096 486.194 366.327 486.185 365.521C486.185 362.377 486.185 357.399 486.185 353.658C486.19 353.021 486.06 352.389 485.803 351.8C485.547 351.21 485.169 350.673 484.69 350.221C484.212 349.769 483.644 349.411 483.017 349.166C482.391 348.921 481.719 348.795 481.041 348.795H471.265L470.405 342.696Z" fill="#FF725E"/>
<path d="M433.912 345.84H441.133V348.911C441.133 348.911 431.211 351.007 430.932 362.472C430.653 373.937 430.932 375.76 430.932 375.76C430.932 375.76 432.272 382.992 441.133 383.17C448.398 383.316 466.332 383.222 472.492 383.17C474.738 383.177 476.935 382.561 478.809 381.399C479.824 380.823 480.674 380.025 481.287 379.072C481.899 378.118 482.255 377.039 482.324 375.928C482.514 370.321 482.324 358.94 482.324 358.94C482.324 358.94 481.353 351.216 473.084 348.963V342.13H439.057L433.867 344.331L433.912 345.84Z" fill="white"/>
<path d="M433.912 345.84C433.896 345.722 433.896 345.602 433.912 345.484C433.912 345.201 433.912 344.834 433.912 344.341L439.079 342.078L473.106 341.952H473.34V342.182C473.34 344.278 473.34 346.636 473.34 349.015L473.151 348.785C475.536 349.417 477.678 350.679 479.322 352.421C481.042 354.271 482.175 356.537 482.592 358.961C482.592 363.153 482.592 367.513 482.592 372.029V375.435C482.653 376.632 482.363 377.82 481.755 378.873C480.398 380.962 478.222 382.467 475.695 383.065C474.605 383.348 473.478 383.489 472.347 383.484H441.032L439.559 383.379L438.119 383.117C436.243 382.678 434.542 381.739 433.22 380.413C431.958 379.127 431.08 377.551 430.676 375.844C430.475 372.491 430.586 369.368 430.62 366.412C430.653 363.457 430.62 360.575 431.468 358.028C432.166 355.65 433.567 353.507 435.508 351.845C437.093 350.467 439.006 349.464 441.088 348.921L440.988 349.036C440.988 347.81 440.988 346.846 440.988 345.966L441.099 346.071L435.709 346.018H434.336C434.184 346.028 434.031 346.028 433.879 346.018H434.37H435.776L441.099 345.955H441.211V346.06C441.211 346.94 441.211 347.905 441.211 349.131V348.984H441.099C439.072 349.54 437.213 350.538 435.675 351.897C433.799 353.533 432.453 355.633 431.792 357.955C430.977 360.449 431.077 363.279 431.01 366.255C430.944 369.231 430.899 372.407 431.111 375.687C431.504 377.293 432.339 378.775 433.533 379.984C434.811 381.241 436.451 382.122 438.253 382.52C440.142 382.865 442.07 382.981 443.99 382.866H469.044C471.276 382.866 473.508 383.054 475.55 382.468C477.924 381.913 479.972 380.505 481.253 378.548C481.825 377.571 482.095 376.465 482.034 375.352V371.956C482.034 367.45 482.034 363.09 482.034 358.909C481.633 356.581 480.551 354.404 478.909 352.621C477.333 350.949 475.281 349.734 472.994 349.12L472.816 349.068V348.984C472.816 346.605 472.816 344.289 472.816 342.151L473.061 342.371L439.035 342.256L433.823 344.415V345.526C433.923 345.672 433.912 345.84 433.912 345.84Z" fill="#263238"/>
<path d="M480.025 364.054C480.025 364.054 480.204 369.074 480.025 374.23C479.982 375.178 479.704 376.103 479.214 376.933C478.724 377.762 478.035 378.473 477.202 379.009C475.428 380.248 473.274 380.91 471.064 380.896C465.417 380.896 449.212 381.021 442.628 380.896C440.48 380.955 438.377 380.304 436.687 379.058C434.996 377.811 433.825 376.047 433.376 374.073C433.376 374.073 433.053 374.723 433.321 364.159L480.025 364.054Z" fill="#8E6E68"/>
<path d="M452.148 360.156C447.793 360.519 443.412 360.519 439.057 360.156C443.412 359.792 447.793 359.792 452.148 360.156Z" fill="#455A64"/>
<path d="M452.148 366.486C447.793 366.849 443.412 366.849 439.057 366.486C443.412 366.122 447.793 366.122 452.148 366.486Z" fill="#455A64"/>
<path d="M452.148 372.826C447.793 373.189 443.412 373.189 439.057 372.826C443.412 372.463 447.793 372.463 452.148 372.826Z" fill="#455A64"/>
<path d="M439.057 342.109C439.057 342.109 440.764 337.183 455.161 337.183C469.557 337.183 471.778 342.109 471.778 342.109H439.057Z" fill="#FF725E"/>
<path d="M473.296 345.84C473.296 345.987 466.008 346.112 457.024 346.112C448.041 346.112 440.742 345.987 440.742 345.84C440.742 345.693 448.029 345.568 457.024 345.568C466.019 345.568 473.296 345.651 473.296 345.84Z" fill="#263238"/>
<path d="M473.296 348.984C473.296 349.131 466.008 349.256 457.024 349.256C448.041 349.256 440.742 349.131 440.742 348.984C440.742 348.837 448.029 348.711 457.024 348.711C466.019 348.711 473.296 348.785 473.296 348.984Z" fill="#263238"/>
<path d="M436.445 318.686C436.565 318.649 436.694 318.649 436.814 318.686C437.148 318.798 437.426 319.022 437.595 319.315C437.874 319.783 437.961 320.331 437.84 320.856C437.636 321.53 437.191 322.119 436.579 322.522C435.885 322.994 435.162 323.428 434.414 323.821C433.601 324.221 432.985 324.901 432.696 325.718C432.586 326.167 432.604 326.635 432.749 327.075C432.894 327.515 433.161 327.911 433.521 328.223C434.459 328.778 435.529 329.106 436.635 329.177C437.253 329.275 437.846 329.477 438.387 329.774C438.658 329.941 438.889 330.159 439.068 330.413C439.246 330.667 439.368 330.952 439.425 331.252C439.468 331.803 439.363 332.357 439.119 332.86C438.876 333.364 438.501 333.802 438.03 334.134C437.233 334.685 436.385 335.169 435.497 335.58C434.778 335.944 434.153 336.452 433.666 337.068C433.471 337.312 433.335 337.594 433.268 337.892C433.2 338.191 433.203 338.5 433.276 338.797C433.431 339.235 433.748 339.607 434.169 339.845C434.356 339.943 434.562 340.004 434.775 340.024C434.988 340.044 435.204 340.022 435.407 339.961C435.407 339.961 435.329 340.065 435.095 340.128C434.751 340.223 434.382 340.185 434.068 340.024C433.811 339.91 433.579 339.749 433.388 339.552C433.196 339.354 433.048 339.122 432.952 338.871C432.849 338.528 432.827 338.168 432.889 337.817C432.951 337.465 433.094 337.131 433.309 336.838C433.807 336.149 434.468 335.579 435.24 335.171C436.091 334.752 436.905 334.268 437.673 333.725C438.064 333.445 438.376 333.078 438.581 332.658C438.785 332.237 438.876 331.776 438.845 331.315C438.8 331.089 438.707 330.873 438.571 330.682C438.434 330.491 438.258 330.329 438.052 330.204C437.571 329.949 437.046 329.775 436.501 329.69C435.308 329.616 434.155 329.255 433.153 328.642C432.723 328.262 432.407 327.781 432.239 327.249C432.07 326.717 432.054 326.153 432.193 325.614C432.525 324.679 433.235 323.904 434.169 323.455C434.972 323.004 435.742 322.669 436.401 322.239C436.955 321.895 437.374 321.391 437.595 320.803C437.722 320.348 437.674 319.866 437.461 319.441C437.356 319.256 437.212 319.094 437.037 318.964C436.862 318.834 436.661 318.74 436.445 318.686V318.686Z" fill="#263238"/>
<path d="M372.543 383.254H407.742C408.062 383.254 408.38 383.194 408.675 383.079C408.971 382.963 409.24 382.794 409.466 382.581C409.692 382.367 409.871 382.114 409.993 381.836C410.114 381.558 410.176 381.259 410.175 380.958L415.152 378.118L365.657 377.626L370.121 380.717V380.958C370.121 381.564 370.376 382.144 370.829 382.574C371.283 383.004 371.899 383.248 372.543 383.254Z" fill="white"/>
<path d="M372.543 383.254C372.187 383.292 371.827 383.234 371.505 383.086C371.099 382.922 370.748 382.657 370.49 382.321C370.137 381.854 369.963 381.289 369.999 380.717V380.801L365.535 377.752L365.111 377.458H365.635C374.976 377.458 390.466 377.584 407.976 377.762L415.119 377.835H416.123L415.264 378.328L411.268 380.613L410.777 380.896L410.532 381.032L410.409 381.105H410.342C410.398 381.011 410.197 381.336 410.465 380.885C410.458 381.284 410.351 381.675 410.152 382.027C409.964 382.379 409.689 382.683 409.352 382.916C409.015 383.149 408.624 383.304 408.211 383.369C405.164 383.453 402.385 383.369 399.673 383.369L385.455 383.317L375.98 383.233L373.436 383.18C373.139 383.198 372.84 383.198 372.543 383.18C372.838 383.134 373.137 383.116 373.436 383.128H375.98L385.455 383.044H399.673C402.352 383.044 405.253 383.044 408.121 382.992C408.444 382.934 408.75 382.811 409.016 382.629C409.282 382.448 409.503 382.214 409.661 381.944C409.812 381.66 409.892 381.348 409.896 381.032V381.032C410.164 380.581 409.985 380.906 410.041 380.801H410.108L410.231 380.728L410.465 380.592L410.956 380.309L414.951 378.014L415.096 378.517L407.954 378.443C390.444 378.265 374.954 378.066 365.613 377.909L365.713 377.615L370.177 380.759C370.127 381.22 370.227 381.684 370.464 382.091C370.701 382.497 371.065 382.826 371.505 383.034C371.839 383.15 372.188 383.224 372.543 383.254V383.254Z" fill="#263238"/>
<path d="M478.954 447.706L378.983 447.433L382.978 440.233H478.954V447.706Z" fill="#263238"/>
<path d="M496.62 397.674C496.62 397.821 465.305 397.947 426.68 397.947C388.056 397.947 356.741 397.821 356.741 397.674C356.741 397.527 387.989 397.402 426.68 397.402C465.372 397.402 496.62 397.527 496.62 397.674Z" fill="#455A64"/>
</svg>
