<svg viewBox="0 0 356 333" fill="none" xmlns="http://www.w3.org/2000/svg">
<path d="M297.822 21.9913H293.116V117.536H297.822V21.9913Z" fill="#E0E0E0"/>
<path d="M292.326 22.7239H224.892C224.853 22.7239 224.821 22.7537 224.821 22.7905V116.736C224.821 116.773 224.853 116.803 224.892 116.803H292.326C292.365 116.803 292.397 116.773 292.397 116.736V22.7905C292.397 22.7537 292.365 22.7239 292.326 22.7239Z" fill="#F5F5F5"/>
<path d="M293.116 117.542H224.109C224.091 117.541 224.074 117.533 224.061 117.521C224.048 117.509 224.04 117.493 224.038 117.476V22.0579C224.04 22.0408 224.048 22.0247 224.061 22.0125C224.074 22.0003 224.091 21.9928 224.109 21.9913H293.116C293.135 21.9928 293.152 22.0003 293.165 22.0125C293.178 22.0247 293.186 22.0408 293.187 22.0579V117.476C293.186 117.493 293.178 117.509 293.165 117.521C293.152 117.533 293.135 117.541 293.116 117.542ZM225.704 116.077H291.578C291.597 116.076 291.614 116.068 291.627 116.056C291.64 116.044 291.648 116.028 291.649 116.011V23.5231C291.648 23.506 291.64 23.4899 291.627 23.4777C291.614 23.4655 291.597 23.458 291.578 23.4565H225.704C225.686 23.458 225.668 23.4655 225.655 23.4777C225.642 23.4899 225.634 23.506 225.633 23.5231V116.011C225.634 116.028 225.642 116.044 225.655 116.056C225.668 116.068 225.686 116.076 225.704 116.077Z" fill="#EBEBEB"/>
<path d="M285.647 28.5314H231.699C231.66 28.5314 231.628 28.5612 231.628 28.598V110.876C231.628 110.912 231.66 110.942 231.699 110.942H285.647C285.687 110.942 285.718 110.912 285.718 110.876V28.598C285.718 28.5612 285.687 28.5314 285.647 28.5314Z" fill="white"/>
<path d="M273.75 51.8947H243.468C243.445 51.8947 243.426 51.9126 243.426 51.9347V85.1481C243.426 85.1702 243.445 85.1881 243.468 85.1881H273.75C273.773 85.1881 273.792 85.1702 273.792 85.1481V51.9347C273.792 51.9126 273.773 51.8947 273.75 51.8947Z" fill="#EBEBEB"/>
<path d="M271.393 81.1121C271.436 81.2187 269.933 81.8381 267.078 81.525C265.328 81.309 263.663 80.6862 262.237 79.7135C260.296 78.362 258.955 76.3895 258.47 74.1724C258.187 72.7864 258.302 71.355 258.802 70.0238C259.302 68.6926 260.17 67.509 261.318 66.5933C261.97 66.084 262.709 65.681 263.504 65.4012C264.377 65.0989 265.314 64.9961 266.238 65.1015C267.25 65.1963 268.205 65.5879 268.965 66.2204C269.394 66.5948 269.717 67.0625 269.906 67.5819C270.094 68.1012 270.143 68.6562 270.047 69.1974C269.838 70.1736 269.314 71.0663 268.545 71.7548C267.876 72.3759 267.116 72.9051 266.288 73.3266C264.611 74.1971 262.743 74.696 260.827 74.7851C258.802 74.8887 256.787 74.4596 255.01 73.5464C253.178 72.5898 251.691 71.1456 250.738 69.3972C249.751 67.6063 249.478 65.5449 249.969 63.583C250.453 61.6875 251.607 60.0003 253.244 58.7945C254.064 58.204 254.997 57.7655 255.992 57.5024C257.001 57.2486 258.059 57.2167 259.083 57.4092C260.165 57.6033 261.15 58.1224 261.888 58.8877C262.595 59.6728 262.985 60.665 262.991 61.6916C263.005 62.6222 262.759 63.5402 262.279 64.3556C261.828 65.095 261.24 65.7535 260.542 66.3003C259.295 67.2858 257.839 68.0142 256.27 68.4381C254.803 68.8387 253.264 68.9498 251.749 68.7645C250.335 68.5845 248.985 68.1012 247.804 67.3526C246.79 66.7269 245.93 65.906 245.282 64.9447C244.634 63.9835 244.212 62.9039 244.045 61.7781C243.849 60.0746 244.359 58.3655 245.469 57.0029C246.121 56.1488 247.013 55.4803 248.047 55.0715C248.759 54.8251 249.157 54.8318 249.179 54.8917C249.2 54.9516 248.858 55.1315 248.281 55.4911C247.465 56.0123 246.779 56.6942 246.274 57.4891C245.491 58.7133 245.201 60.1585 245.455 61.565C245.656 62.4732 246.057 63.332 246.633 64.0867C247.21 64.8413 247.948 65.475 248.801 65.9473C249.819 66.5068 250.954 66.8547 252.129 66.9673C253.303 67.0799 254.49 66.9546 255.608 66.6C256.881 66.2166 258.056 65.5933 259.061 64.7685C259.549 64.4049 259.946 63.9459 260.224 63.4235C260.502 62.9011 260.654 62.3282 260.67 61.7448C260.668 61.2096 260.455 60.694 260.071 60.297C259.687 59.8999 259.16 59.6495 258.591 59.5937C257.932 59.4854 257.256 59.5173 256.612 59.6869C255.932 59.8812 255.297 60.193 254.739 60.606C253.558 61.5038 252.729 62.743 252.383 64.1291C252.029 65.5558 252.234 67.0538 252.959 68.3516C253.689 69.6893 254.826 70.7948 256.227 71.5284C257.599 72.2378 259.155 72.5767 260.72 72.5074C262.266 72.447 263.778 72.0599 265.142 71.3752C265.787 71.0676 266.381 70.6751 266.907 70.2097C267.34 69.858 267.652 69.3946 267.805 68.8777C267.849 68.6808 267.838 68.4765 267.775 68.2843C267.711 68.092 267.597 67.9181 267.441 67.7788C267.034 67.4393 266.524 67.2273 265.982 67.1727C265.404 67.0937 264.814 67.1416 264.259 67.3126C263.679 67.4986 263.137 67.7756 262.657 68.1318C261.743 68.8135 261.036 69.7071 260.607 70.7236C260.177 71.7402 260.039 72.8442 260.207 73.926C260.535 75.7951 261.562 77.4945 263.105 78.7212C264.313 79.6595 265.736 80.3249 267.263 80.6659C269.848 81.1854 271.372 80.9123 271.393 81.1121Z" fill="#E0E0E0"/>
<path d="M151.058 17.2361H40.6837V202.697H151.058V17.2361Z" fill="#EBEBEB"/>
<path d="M145.511 22.6107H45.098V197.169H145.511V22.6107Z" fill="#FAFAFA"/>
<path d="M155.721 204.369L151.058 202.697V14.0925H155.721V204.369Z" fill="#E0E0E0"/>
<path d="M147.69 72.8271H45.098V74.6852H147.69V72.8271Z" fill="#E0E0E0"/>
<path d="M147.69 114.399H45.098V116.257H147.69V114.399Z" fill="#E0E0E0"/>
<path d="M147.69 155.971H45.098V157.829H147.69V155.971Z" fill="#E0E0E0"/>
<path d="M92.7665 73.7595L92.7665 202.124H97.843L97.843 73.7595H92.7665Z" fill="#E0E0E0"/>
<path d="M66.7286 22.6107H64.4288V73.7528H66.7286V22.6107Z" fill="#E0E0E0"/>
<path d="M86.5507 22.6107H84.251V73.7528H86.5507V22.6107Z" fill="#E0E0E0"/>
<path d="M106.373 22.6107H104.073V73.7528H106.373V22.6107Z" fill="#E0E0E0"/>
<path d="M126.195 22.6107H123.895V73.7528H126.195V22.6107Z" fill="#E0E0E0"/>
<path d="M40.6837 14.0859H36.0129V203.843H40.6837V14.0859Z" fill="#E0E0E0"/>
<path d="M155.721 12.1745H36.0129V17.2361H155.721V12.1745Z" fill="#E0E0E0"/>
<path d="M158.883 204.995H32.7021V209.71H158.883V204.995Z" fill="#E0E0E0"/>
<path d="M151.058 202.697L158.883 204.995H32.7021L40.6837 202.697H151.058Z" fill="#E0E0E0"/>
<path d="M114.169 103.377C114.077 103.33 116.177 99.6736 118.847 95.218C121.517 90.7625 123.767 87.186 123.831 87.226C123.895 87.266 121.83 90.929 119.153 95.3845C116.476 99.8401 114.262 103.423 114.169 103.377Z" fill="#E0E0E0"/>
<path d="M76.7394 142.837C76.6468 142.79 78.7401 139.141 81.4172 134.685C84.0944 130.23 86.33 126.653 86.4012 126.693C86.4724 126.733 84.3934 130.389 81.7163 134.845C79.0392 139.301 76.8248 142.884 76.7394 142.837Z" fill="#E0E0E0"/>
<path d="M100.841 178.708C100.748 178.661 102.848 175.011 105.518 170.556C108.188 166.1 110.431 162.524 110.502 162.564C110.574 162.604 108.495 166.26 105.817 170.722C103.14 175.185 100.926 178.761 100.841 178.708Z" fill="#E0E0E0"/>
<path d="M67.2271 179.893C67.1345 179.847 69.2349 176.197 71.9049 171.741C74.5749 167.286 76.8248 163.709 76.8889 163.749C76.953 163.789 74.8811 167.446 72.2111 171.901C69.5411 176.357 67.3196 179.94 67.2271 179.893Z" fill="#E0E0E0"/>
<path d="M52.8873 95.4977C52.7948 95.4511 54.8952 91.7948 57.5652 87.3392C60.2352 82.8837 62.478 79.3073 62.5492 79.3472C62.6204 79.3872 60.5413 83.0502 57.8713 87.5057C55.2013 91.9613 52.9728 95.5443 52.8873 95.4977Z" fill="#E0E0E0"/>
<path d="M81.5809 97.0495C81.4884 97.0029 83.5888 93.3466 86.2588 88.891C88.9288 84.4355 91.1716 80.8591 91.2428 80.899C91.314 80.939 89.235 84.602 86.5649 89.0575C83.8949 93.5131 81.6664 97.0961 81.5809 97.0495Z" fill="#E0E0E0"/>
<path d="M72.2395 69.6103C72.154 69.5637 74.2473 65.914 76.9244 61.4585C79.6015 57.0029 81.8372 53.4265 81.9084 53.4665C81.9796 53.5064 79.9006 57.1628 77.2235 61.6183C74.5463 66.0739 72.332 69.6569 72.2395 69.6103Z" fill="#E0E0E0"/>
<path d="M66.8852 109.89C66.7998 109.843 68.8931 106.194 71.5702 101.738C74.2473 97.2826 76.483 93.7062 76.5542 93.7461C76.6254 93.7861 74.5677 97.4491 71.9119 101.898C69.2562 106.347 66.9778 109.943 66.8852 109.89Z" fill="#E0E0E0"/>
<path d="M115.892 68.6379C115.807 68.5913 117.9 64.9416 120.577 60.4861C123.254 56.0306 125.49 52.4541 125.561 52.4941C125.632 52.5341 123.561 56.1904 120.883 60.6459C118.206 65.1015 115.985 68.6846 115.892 68.6379Z" fill="#E0E0E0"/>
<path d="M102.628 113.673C102.535 113.626 104.636 109.977 107.306 105.521C109.976 101.065 112.225 97.4891 112.29 97.529C112.354 97.569 110.282 101.225 107.612 105.681C104.942 110.136 102.72 113.719 102.628 113.673Z" fill="#E0E0E0"/>
<path d="M63.9447 143.689C63.8592 143.643 65.9525 139.993 68.6296 135.538C71.3067 131.082 73.5424 127.506 73.6136 127.546C73.6848 127.586 71.6058 131.242 68.9287 135.697C66.2515 140.153 64.0372 143.736 63.9447 143.689Z" fill="#E0E0E0"/>
<path d="M115.892 125.508C115.807 125.461 117.9 121.811 120.577 117.356C123.254 112.9 125.49 109.324 125.561 109.364C125.632 109.404 123.561 113.06 120.883 117.516C118.206 121.971 115.985 125.554 115.892 125.508Z" fill="#E0E0E0"/>
<path d="M122.891 191.808C122.799 191.761 124.899 188.112 127.569 183.656C130.239 179.201 132.482 175.624 132.553 175.664C132.624 175.704 130.545 179.36 127.875 183.816C125.205 188.272 122.977 191.861 122.891 191.808Z" fill="#E0E0E0"/>
<path d="M53.3999 186.567C53.3074 186.52 55.4078 182.864 58.0778 178.408C60.7478 173.953 62.9977 170.376 63.0618 170.416C63.1258 170.456 61.0539 174.112 58.3839 178.575C55.7139 183.037 53.5067 186.613 53.3999 186.567Z" fill="#E0E0E0"/>
<path d="M117.266 146.746C117.174 146.7 119.267 143.05 121.944 138.595C124.621 134.139 126.857 130.563 126.928 130.603C126.999 130.643 124.92 134.299 122.243 138.754C119.566 143.21 117.352 146.793 117.266 146.746Z" fill="#E0E0E0"/>
<path d="M106.501 155.944C106.415 155.897 108.509 152.248 111.186 147.792C113.863 143.337 116.099 139.76 116.17 139.8C116.241 139.84 114.162 143.496 111.485 147.952C108.808 152.407 106.593 155.99 106.501 155.944Z" fill="#E0E0E0"/>
<path d="M135.515 92.1611C135.422 92.1145 137.516 88.4648 140.193 84.0092C142.87 79.5537 145.106 75.9773 145.177 76.0172C145.248 76.0572 143.169 79.7135 140.492 84.1691C137.815 88.6246 135.6 92.2077 135.515 92.1611Z" fill="#E0E0E0"/>
<path d="M129.584 61.3919C129.491 61.3452 131.585 57.6956 134.262 53.24C136.939 48.7845 139.175 45.2081 139.246 45.248C139.317 45.288 137.238 48.9443 134.561 53.3999C131.884 57.8554 129.691 61.4385 129.584 61.3919Z" fill="#E0E0E0"/>
<path d="M338.492 140.146H287.748V189.624H338.492V140.146Z" fill="#E0E0E0"/>
<path d="M335.046 140.146H284.309V189.624H335.046V140.146Z" fill="#FAFAFA"/>
<path d="M335.067 189.637H284.294V140.133H335.067V189.637ZM284.33 189.637H335.039V140.16H284.33V189.637Z" fill="#E0E0E0"/>
<path d="M328.232 146.8H291.13V182.97H328.232V146.8Z" fill="white"/>
<path d="M291.13 183.21C290.872 183.577 290.566 183.913 290.218 184.209C289.627 184.795 288.794 185.588 287.862 186.447C286.929 187.306 286.067 188.072 285.434 188.611C285.111 188.926 284.753 189.208 284.366 189.45C284.622 189.084 284.929 188.75 285.277 188.458C285.868 187.872 286.701 187.079 287.634 186.22C288.567 185.361 289.435 184.589 290.069 184.042C290.387 183.727 290.743 183.448 291.13 183.21Z" fill="#E0E0E0"/>
<path d="M328.232 183.15C328.622 183.394 328.978 183.683 329.293 184.009C329.919 184.562 330.767 185.341 331.685 186.214C332.604 187.086 333.422 187.885 334.006 188.478C334.348 188.776 334.648 189.114 334.896 189.484C334.512 189.237 334.159 188.951 333.842 188.631C333.216 188.078 332.369 187.299 331.443 186.42C330.517 185.541 329.699 184.742 329.122 184.149C328.783 183.851 328.484 183.516 328.232 183.15Z" fill="#E0E0E0"/>
<path d="M328.132 146.893C328.394 146.531 328.7 146.198 329.044 145.901C329.635 145.315 330.468 144.522 331.4 143.663C332.333 142.804 333.195 142.038 333.828 141.492C334.147 141.175 334.506 140.895 334.896 140.659C334.639 141.023 334.335 141.356 333.992 141.652C333.394 142.231 332.568 143.03 331.628 143.889C330.688 144.748 329.827 145.521 329.2 146.06C328.882 146.377 328.523 146.657 328.132 146.893Z" fill="#E0E0E0"/>
<path d="M291.03 146.986C290.642 146.739 290.286 146.451 289.969 146.127C289.343 145.574 288.495 144.795 287.577 143.923C286.658 143.05 285.84 142.244 285.256 141.652C284.915 141.355 284.616 141.02 284.366 140.653C284.754 140.894 285.108 141.18 285.419 141.505C286.046 142.058 286.893 142.837 287.819 143.716C288.745 144.595 289.563 145.394 290.14 145.987C290.481 146.283 290.78 146.619 291.03 146.986Z" fill="#E0E0E0"/>
<path d="M328.132 182.97C328.124 182.913 328.124 182.854 328.132 182.797C328.132 182.67 328.132 182.504 328.132 182.291C328.132 181.838 328.132 181.185 328.132 180.339C328.132 178.628 328.132 176.13 328.097 172.967C328.097 166.633 328.054 157.602 328.026 146.8L328.168 146.933H291.144L291.308 146.78C291.308 160.053 291.308 172.474 291.308 182.95L291.165 182.817L317.958 182.89L325.484 182.924H327.47H327.506H325.541L318.043 182.957L291.165 183.023H291.03V182.89C291.03 172.414 291.03 159.993 291.03 146.72V146.567H291.201H328.225H328.367V146.7C328.367 157.542 328.31 166.593 328.296 172.954C328.296 176.104 328.296 178.588 328.253 180.28C328.253 181.119 328.253 181.758 328.253 182.211C328.253 182.417 328.253 182.577 328.253 182.697C328.253 182.817 328.132 182.977 328.132 182.97Z" fill="#E0E0E0"/>
<path d="M315.872 159.094H303.49V170.676H315.872V159.094Z" fill="#EBEBEB"/>
<path d="M335.388 320.226C335.388 320.319 264.9 320.399 178.036 320.399C91.1716 320.399 20.6479 320.346 20.6479 320.226C20.6479 320.106 91.1359 320.053 178.043 320.053C264.949 320.053 335.388 320.126 335.388 320.226Z" fill="#263238"/>
<path d="M38.5833 293.946L43.2397 322.55H70.2815L76.5542 294.359L38.5833 293.946Z" fill="#FF725E"/>
<path d="M72.7735 312.281C72.7735 312.361 65.8458 312.427 57.3018 312.427C48.7578 312.427 41.8229 312.361 41.8229 312.281C41.8229 312.201 48.7506 312.134 57.3018 312.134C65.8529 312.134 72.7735 312.201 72.7735 312.281Z" fill="#FAFAFA"/>
<path d="M72.8803 310.875C72.8803 310.955 65.9027 311.022 57.3017 311.022C48.7007 311.022 41.7231 310.955 41.7231 310.875C41.7231 310.796 48.6936 310.722 57.3017 310.722C65.9098 310.722 72.8803 310.789 72.8803 310.875Z" fill="#FAFAFA"/>
<path d="M72.8234 309.284C72.8234 309.364 65.8529 309.43 57.2448 309.43C48.6367 309.43 41.6663 309.364 41.6663 309.284C41.6663 309.204 48.6439 309.137 57.2448 309.137C65.8458 309.137 72.8234 309.204 72.8234 309.284Z" fill="#FAFAFA"/>
<path d="M46.3441 320.919C45.9663 319.743 45.6901 318.54 45.5182 317.322C45.2441 316.125 45.0703 314.909 44.9984 313.686C45.3762 314.865 45.6548 316.07 45.8315 317.289C46.1053 318.484 46.2767 319.698 46.3441 320.919Z" fill="#FAFAFA"/>
<path d="M48.1882 320.619C47.9917 319.455 47.8776 318.281 47.8464 317.103C47.7089 315.933 47.6518 314.756 47.6755 313.579C48.1592 315.897 48.3314 318.262 48.1882 320.619Z" fill="#FAFAFA"/>
<path d="M51.5345 320.619C51.1695 319.443 50.931 318.236 50.8225 317.016C50.6165 315.805 50.5473 314.577 50.6161 313.353C50.8582 314.551 51.0317 315.761 51.1358 316.976C51.3475 318.182 51.4806 319.398 51.5345 320.619Z" fill="#FAFAFA"/>
<path d="M53.8913 320.766C53.4752 318.344 53.3891 315.882 53.635 313.44C53.78 314.658 53.8465 315.883 53.8343 317.109C53.9325 318.326 53.9515 319.547 53.8913 320.766Z" fill="#FAFAFA"/>
<path d="M58.0565 320.619C57.8588 319.47 57.7635 318.307 57.7717 317.143C57.6611 315.984 57.6611 314.818 57.7717 313.659C57.9697 314.807 58.065 315.967 58.0565 317.129C58.1583 318.291 58.1583 319.458 58.0565 320.619Z" fill="#FAFAFA"/>
<path d="M61.0967 320.766C60.914 318.372 60.9354 315.969 61.1607 313.579C61.353 315.972 61.3316 318.376 61.0967 320.766Z" fill="#FAFAFA"/>
<path d="M63.9518 320.386C63.9234 319.13 64.002 317.874 64.1868 316.63C64.2643 315.375 64.4452 314.128 64.7279 312.9C64.761 314.156 64.6848 315.412 64.5 316.656C64.4225 317.911 64.2392 319.158 63.9518 320.386Z" fill="#FAFAFA"/>
<path d="M67.64 320.013C67.6466 318.934 67.7997 317.859 68.0957 316.816C68.276 315.754 68.6014 314.717 69.064 313.733C68.8929 314.793 68.6551 315.842 68.352 316.876C68.1769 317.933 67.9392 318.981 67.64 320.013Z" fill="#FAFAFA"/>
<path d="M65.0269 237.489C65.0339 237.538 65.0339 237.587 65.0269 237.635L64.8987 238.035C64.7706 238.415 64.5997 238.928 64.3861 239.58C64.1725 240.233 63.8735 241.065 63.5887 242.031C63.3039 242.997 62.9336 244.069 62.6132 245.288C62.2928 246.507 61.9012 247.832 61.5595 249.284C61.2177 250.736 60.8475 252.261 60.5199 253.886C59.872 257.149 59.2811 260.759 58.861 264.542C58.4409 268.325 58.2843 272.001 58.2273 275.318C58.2273 276.976 58.2273 278.555 58.2771 280.026C58.327 281.498 58.3911 282.877 58.4694 284.129C58.5477 285.381 58.6545 286.513 58.7328 287.506C58.8111 288.498 58.9108 289.357 58.9963 290.05C59.0817 290.742 59.1315 291.268 59.1743 291.661C59.1743 291.828 59.1743 291.968 59.2099 292.081C59.2161 292.13 59.2161 292.179 59.2099 292.228C59.1999 292.181 59.1999 292.134 59.2099 292.088C59.2099 291.974 59.1671 291.835 59.1387 291.668L58.9037 290.063C58.7969 289.397 58.683 288.518 58.5904 287.526C58.4979 286.533 58.3483 285.401 58.27 284.142C58.1917 282.884 58.0849 281.518 58.0422 280.04C57.9995 278.561 57.971 276.983 57.9639 275.318C57.9639 271.988 58.1775 268.338 58.5762 264.515C58.9749 260.692 59.5943 257.083 60.2565 253.819C60.6196 252.188 60.9685 250.636 61.3316 249.204C61.6947 247.772 62.0436 246.433 62.4281 245.208C62.8126 243.982 63.1401 242.91 63.4463 241.951C63.7524 240.992 64.0443 240.18 64.2935 239.52C64.5427 238.861 64.7279 238.361 64.8631 237.988L65.0198 237.596C65.0181 237.56 65.0205 237.524 65.0269 237.489Z" fill="#455A64"/>
<path d="M60.1498 255.205C60.8919 253.145 62.3771 251.391 64.3506 250.243C64.6582 250.012 65.0219 249.856 65.4095 249.789C65.797 249.722 66.1964 249.745 66.572 249.857C67.519 250.283 67.5973 251.528 67.284 252.467C66.8026 254.072 65.7147 255.459 64.2224 256.37C62.9041 257.283 61.2539 257.673 59.63 257.456" fill="#455A64"/>
<path d="M58.505 267.166C59.217 264.702 61.3103 261.172 63.489 259.66C63.8221 259.402 64.207 259.21 64.6211 259.094C64.8301 259.039 65.0503 259.033 65.2625 259.076C65.4747 259.119 65.6725 259.21 65.8386 259.34C66.0254 259.571 66.1479 259.842 66.1951 260.128C66.2424 260.414 66.2128 260.706 66.1091 260.979C65.6566 262.776 64.6805 264.421 63.2892 265.73C61.8979 267.04 60.1457 267.963 58.2273 268.398" fill="#455A64"/>
<path d="M58.0493 277.722C59.139 275.365 60.8787 273.322 63.0903 271.801C63.3256 271.599 63.6018 271.443 63.9026 271.342C64.2035 271.242 64.5228 271.199 64.8418 271.215C65.803 271.382 66.2658 272.467 66.1519 273.373C65.9739 275.238 64.4573 276.703 62.8838 277.889C61.4421 278.82 59.8767 279.573 58.2273 280.126" fill="#455A64"/>
<path d="M58.3057 285.268C59.3514 283.47 60.8104 281.912 62.5777 280.706C62.9537 280.434 63.3927 280.249 63.8593 280.166C64.0929 280.126 64.3337 280.146 64.5558 280.225C64.778 280.304 64.9729 280.438 65.1195 280.612C65.5538 281.205 65.1195 282.004 64.6852 282.571C63.174 284.541 61.032 286.01 58.5691 286.766" fill="#455A64"/>
<path d="M58.092 282.191C56.2463 280.087 54.1991 278.146 51.9759 276.39C51.8268 276.228 51.6366 276.103 51.4226 276.028C51.2087 275.952 50.9778 275.928 50.7513 275.957C50.5881 276.021 50.4485 276.128 50.3498 276.265C50.2511 276.403 50.1976 276.564 50.1959 276.73C50.1905 277.059 50.2686 277.386 50.4238 277.682C51.1543 279.205 52.2432 280.555 53.6092 281.63C54.9752 282.704 56.583 283.477 58.3127 283.889" fill="#455A64"/>
<path d="M58.2914 272.341C56.6823 270.516 55.0779 268.687 53.4783 266.853C53.0506 266.306 52.5198 265.836 51.9119 265.468C51.6032 265.291 51.2484 265.198 50.8866 265.198C50.5248 265.198 50.17 265.291 49.8613 265.468C49.581 265.681 49.3709 265.965 49.255 266.285C49.1392 266.606 49.1223 266.95 49.2063 267.279C49.3827 267.929 49.7029 268.537 50.1461 269.064C51.0827 270.411 52.269 271.591 53.6492 272.547C55.0732 273.453 56.3477 274.046 58.0422 273.813" fill="#455A64"/>
<path d="M58.9607 261.252C58.0142 258.625 56.3413 256.279 54.112 254.452C53.7583 254.131 53.3216 253.902 52.8447 253.786C52.3553 253.753 51.8687 253.879 51.4667 254.142C51.0648 254.405 50.772 254.79 50.6375 255.231C50.4865 255.73 50.4478 256.253 50.5238 256.766C50.5998 257.28 50.7888 257.773 51.0789 258.215C51.674 259.078 52.446 259.823 53.3502 260.406C54.9717 261.565 56.7787 262.478 58.7044 263.11" fill="#455A64"/>
<path d="M60.8831 251.362C60.4131 248.185 58.6474 245.534 56.6111 242.963C56.1767 242.417 55.5715 241.845 54.8595 241.945C54.6337 241.992 54.4236 242.09 54.2474 242.23C54.0712 242.371 53.9343 242.549 53.8485 242.75C53.6908 243.157 53.6277 243.591 53.6634 244.022C53.7513 245.95 54.4445 247.811 55.6564 249.372C56.8682 250.933 58.545 252.125 60.4772 252.8" fill="#455A64"/>
<path d="M62.2288 246.313C62.0061 244.684 61.9465 243.038 62.0508 241.398C62.1614 239.747 62.7685 238.159 63.8024 236.816C64.2343 236.224 64.8401 235.762 65.5467 235.484C65.8976 235.355 66.2779 235.311 66.6517 235.358C67.0255 235.405 67.3804 235.54 67.6827 235.751C67.9361 235.976 68.1318 236.251 68.2551 236.557C68.3784 236.862 68.4262 237.19 68.3947 237.516C68.335 238.169 68.1518 238.807 67.8536 239.4C66.572 242.284 64.436 245.481 62.2004 246.287" fill="#455A64"/>
<path d="M41.296 250.11C41.3126 250.242 41.3126 250.376 41.296 250.509C41.296 250.802 41.296 251.175 41.296 251.668C41.296 252.161 41.296 252.78 41.296 253.493C41.296 254.206 41.296 255.011 41.3885 255.91C41.474 257.695 41.6591 259.827 41.951 262.178C42.2429 264.529 42.663 267.099 43.2824 269.777C43.9019 272.454 44.5996 274.965 45.3259 277.236C46.0521 279.507 46.814 281.512 47.5046 283.183C47.8321 284.029 48.1739 284.768 48.4587 285.434C48.7435 286.1 48.9998 286.66 49.2134 287.113L49.6976 288.178C49.7626 288.299 49.8128 288.426 49.8471 288.558C49.7707 288.444 49.7018 288.326 49.6406 288.205C49.5053 287.938 49.3273 287.592 49.0995 287.159C48.8716 286.726 48.594 286.154 48.2949 285.494C47.9959 284.835 47.6399 284.102 47.2981 283.263C46.5861 281.598 45.81 279.58 45.0482 277.316C44.2864 275.051 43.5815 272.521 42.9692 269.837C42.3568 267.153 42.008 264.568 41.6947 262.204C41.3814 259.84 41.2604 257.709 41.2034 255.917C41.1536 255.018 41.1607 254.206 41.1536 253.493C41.1464 252.78 41.1536 252.161 41.1536 251.661C41.1536 251.162 41.1536 250.802 41.1963 250.509C41.2182 250.374 41.2516 250.24 41.296 250.11Z" fill="#263238"/>
<path d="M42.0079 263.15C42.0417 261.596 42.6506 260.101 43.731 258.921C43.8884 258.703 44.1006 258.525 44.3489 258.402C44.5972 258.279 44.874 258.214 45.155 258.215C45.867 258.315 46.2301 259.147 46.2586 259.847C46.2982 261.035 45.8758 262.197 45.0695 263.117C44.3891 263.998 43.3669 264.596 42.2215 264.782" fill="#263238"/>
<path d="M43.6527 271.628C43.5601 269.803 44.1867 266.966 45.3188 265.508C45.4877 265.264 45.7082 265.056 45.9667 264.895C46.0959 264.816 46.2438 264.767 46.3976 264.753C46.5514 264.739 46.7065 264.76 46.8496 264.815C47.0295 264.935 47.1745 265.096 47.2715 265.282C47.3684 265.468 47.4143 265.674 47.4049 265.881C47.519 267.199 47.2368 268.522 46.5901 269.699C45.9435 270.875 44.9581 271.86 43.7452 272.541" fill="#263238"/>
<path d="M45.7673 278.887C45.9624 277.063 46.6752 275.32 47.8321 273.839C47.9429 273.649 48.0941 273.481 48.2765 273.347C48.4589 273.213 48.6687 273.115 48.893 273.06C49.605 272.98 50.1248 273.633 50.2743 274.265C50.5876 275.597 49.8969 276.889 49.0924 277.995C48.3264 278.922 47.4335 279.75 46.4366 280.459" fill="#263238"/>
<path d="M47.704 283.989C47.9977 282.543 48.6352 281.177 49.5694 279.993C49.7519 279.736 49.9956 279.521 50.2814 279.367C50.4317 279.293 50.6006 279.259 50.7699 279.269C50.9393 279.278 51.1027 279.33 51.2426 279.42C51.6769 279.733 51.5773 280.359 51.3993 280.839C50.8192 282.482 49.7007 283.913 48.2024 284.928" fill="#263238"/>
<path d="M46.8282 281.938C45.0789 280.865 43.2269 279.946 41.296 279.194C41.1559 279.116 40.9981 279.072 40.8357 279.064C40.6733 279.056 40.5112 279.084 40.3632 279.147C40.2609 279.226 40.1864 279.331 40.1496 279.45C40.1127 279.569 40.1152 279.696 40.1568 279.813C40.2494 280.033 40.3957 280.229 40.584 280.386C41.4299 281.28 42.4807 281.984 43.6581 282.445C44.8354 282.907 46.1089 283.113 47.3836 283.05" fill="#263238"/>
<path d="M44.6922 275.191L40.1568 272.394C39.7405 272.109 39.2725 271.897 38.7755 271.768C38.5283 271.694 38.2628 271.695 38.0156 271.768C37.7685 271.842 37.5518 271.985 37.3956 272.179C37.2393 272.373 37.1512 272.607 37.1433 272.849C37.1354 273.092 37.2081 273.331 37.3515 273.533C37.6201 273.945 37.9793 274.299 38.4052 274.572C39.3528 275.302 40.4334 275.866 41.595 276.237C42.1141 276.443 42.6722 276.549 43.2362 276.549C43.8001 276.549 44.3582 276.443 44.8773 276.237" fill="#263238"/>
<path d="M42.599 267.506C41.3503 265.908 39.6728 264.646 37.736 263.849C37.4231 263.694 37.0715 263.621 36.7178 263.636C36.3754 263.71 36.0714 263.894 35.8582 264.155C35.6451 264.417 35.5361 264.739 35.5502 265.068C35.5614 265.437 35.6545 265.8 35.8237 266.134C35.9928 266.467 36.2343 266.764 36.5327 267.006C37.1375 267.485 37.8365 267.849 38.5904 268.078C39.9627 268.54 41.4045 268.797 42.8624 268.838" fill="#263238"/>
<path d="M41.6306 260.406C40.584 258.335 38.7826 256.89 36.7819 255.551C36.5971 255.383 36.3683 255.263 36.1184 255.203C35.8685 255.144 35.6063 255.146 35.3579 255.211C35.2151 255.289 35.0949 255.398 35.0079 255.529C34.921 255.66 34.87 255.81 34.8595 255.964C34.8461 256.271 34.9019 256.577 35.0233 256.863C35.5283 258.158 36.4294 259.285 37.6144 260.105C38.7994 260.924 40.2159 261.4 41.6876 261.472" fill="#263238"/>
<path d="M41.3885 256.676C40.858 255.606 40.4384 254.491 40.1354 253.346C39.8338 252.198 39.8807 250.994 40.2707 249.87C40.4386 249.388 40.7468 248.959 41.1607 248.631C41.3694 248.471 41.6187 248.365 41.8844 248.322C42.15 248.278 42.4232 248.3 42.6772 248.385C42.9043 248.484 43.1043 248.631 43.2621 248.813C43.42 248.995 43.5316 249.209 43.5886 249.437C43.6953 249.894 43.717 250.365 43.6527 250.829C43.432 253.08 42.72 255.677 41.3885 256.676Z" fill="#263238"/>
<path d="M75.4719 249.83C75.4823 249.963 75.4823 250.096 75.4719 250.23C75.4719 250.523 75.4862 250.909 75.5146 251.388C75.5146 251.888 75.5146 252.501 75.5146 253.213C75.5146 253.926 75.5146 254.738 75.4648 255.637C75.4078 257.436 75.2512 259.567 74.9735 261.931C74.6958 264.295 74.2615 266.873 73.6634 269.557C73.0654 272.241 72.3249 274.765 71.5844 277.036C70.8439 279.307 70.0536 281.318 69.3345 282.983C68.9927 283.823 68.6225 284.562 68.3377 285.221C68.0529 285.881 67.761 286.433 67.526 286.886L66.992 287.925C66.9352 288.049 66.8661 288.167 66.7855 288.278C66.8211 288.147 66.8712 288.02 66.935 287.898L67.4192 286.84C67.6328 286.38 67.8962 285.814 68.1739 285.155C68.4516 284.495 68.8005 283.749 69.128 282.903C69.84 281.238 70.552 279.221 71.3067 276.956C72.0614 274.692 72.7307 272.168 73.3502 269.497C73.9696 266.826 74.3683 264.249 74.6816 261.898C74.9949 259.547 75.1586 257.422 75.2441 255.631C75.3082 254.738 75.3082 253.926 75.3366 253.213C75.3651 252.501 75.3366 251.881 75.3366 251.388C75.3366 250.896 75.3366 250.529 75.3366 250.236C75.3639 250.096 75.4093 249.96 75.4719 249.83Z" fill="#455A64"/>
<path d="M74.6959 262.87C74.6623 261.318 74.0532 259.826 72.9728 258.648C72.8158 258.429 72.6039 258.25 72.3556 258.126C72.1074 258.001 71.8304 257.936 71.5488 257.935C70.8368 258.035 70.4737 258.868 70.4452 259.567C70.4043 260.756 70.8269 261.918 71.6343 262.837C72.3125 263.721 73.3358 264.319 74.4823 264.502" fill="#455A64"/>
<path d="M73.0583 271.348C73.1509 269.524 72.5243 266.686 71.3922 265.234C71.2215 264.991 71.0014 264.78 70.7443 264.615C70.6145 264.537 70.4663 264.49 70.3125 264.477C70.1587 264.464 70.0039 264.486 69.8614 264.542C69.6811 264.66 69.5357 264.82 69.4386 265.005C69.3415 265.19 69.2959 265.395 69.3061 265.601C69.1912 266.92 69.473 268.242 70.1197 269.419C70.7665 270.596 71.7523 271.581 72.9657 272.261" fill="#455A64"/>
<path d="M70.9437 278.608C70.7477 276.783 70.0349 275.041 68.8789 273.559C68.764 273.375 68.611 273.213 68.4289 273.084C68.2469 272.955 68.0392 272.861 67.818 272.807C67.106 272.727 66.5862 273.386 66.4367 274.019C66.1234 275.318 66.8141 276.643 67.6187 277.749C68.386 278.672 69.2788 279.498 70.2744 280.206" fill="#455A64"/>
<path d="M69.064 283.716C68.7671 282.271 68.1299 280.906 67.1986 279.72C67.0133 279.465 66.7702 279.251 66.4866 279.094C66.3346 279.022 66.1649 278.989 65.9947 278.998C65.8246 279.007 65.6601 279.059 65.5183 279.147C65.0911 279.46 65.1908 280.086 65.3688 280.566C65.9448 282.211 67.0642 283.643 68.5657 284.655" fill="#455A64"/>
<path d="M69.8828 281.658C71.6271 280.591 73.4717 279.675 75.3937 278.921C75.5327 278.841 75.6904 278.795 75.853 278.786C76.0156 278.776 76.1781 278.804 76.3264 278.868C76.4279 278.947 76.5019 279.052 76.5387 279.171C76.5755 279.29 76.5735 279.416 76.5329 279.534C76.4612 279.761 76.3317 279.969 76.1556 280.14C75.3096 281.034 74.2588 281.738 73.0814 282.199C71.9041 282.66 70.6306 282.867 69.356 282.804" fill="#455A64"/>
<path d="M72.0187 274.912L76.5542 272.148C76.9685 271.858 77.437 271.644 77.9355 271.515C78.1891 271.452 78.4564 271.457 78.7076 271.527C78.9589 271.598 79.1845 271.732 79.3595 271.914C79.4958 272.119 79.568 272.356 79.568 272.597C79.568 272.838 79.4958 273.075 79.3595 273.28C79.0908 273.692 78.7316 274.046 78.3057 274.319C77.3581 275.049 76.2775 275.613 75.1159 275.984C74.5974 276.192 74.039 276.299 73.4748 276.299C72.9105 276.299 72.3522 276.192 71.8336 275.984" fill="#455A64"/>
<path d="M74.1121 267.226C75.3609 265.63 77.0385 264.371 78.975 263.576C79.2885 263.422 79.6392 263.346 79.9932 263.356C80.3343 263.433 80.6367 263.617 80.8495 263.878C81.0622 264.139 81.1722 264.46 81.1609 264.788C81.1506 265.159 81.0579 265.523 80.8888 265.858C80.7196 266.192 80.4776 266.491 80.1783 266.733C79.5732 267.21 78.8742 267.572 78.1206 267.799C76.7477 268.26 75.3065 268.518 73.8486 268.565" fill="#455A64"/>
<path d="M75.0804 260.106C76.127 258.035 77.9284 256.59 79.9291 255.251C80.1147 255.084 80.3435 254.965 80.5932 254.905C80.8428 254.846 81.1046 254.848 81.3531 254.912C81.4959 254.989 81.6161 255.098 81.7031 255.229C81.79 255.361 81.841 255.51 81.8515 255.664C81.8645 255.973 81.8087 256.282 81.6878 256.57C81.1816 257.864 80.28 258.99 79.0951 259.808C77.9102 260.626 76.4943 261.1 75.0234 261.172" fill="#455A64"/>
<path d="M75.3225 256.41C75.8483 255.338 76.2678 254.224 76.5756 253.08C76.8774 251.934 76.8305 250.732 76.4404 249.61C76.2759 249.126 75.9671 248.697 75.5504 248.371C75.3409 248.211 75.0907 248.103 74.8239 248.058C74.5571 248.014 74.2825 248.035 74.0267 248.118C73.8027 248.221 73.6056 248.368 73.4494 248.55C73.2931 248.732 73.1815 248.944 73.1224 249.171C73.0157 249.63 72.994 250.103 73.0583 250.569C73.2719 252.787 73.9911 255.398 75.3225 256.397" fill="#455A64"/>
<path d="M35.4789 288.278V293.606C35.4752 293.885 35.5308 294.162 35.6426 294.421C35.7544 294.68 35.9202 294.916 36.1303 295.114C36.3403 295.312 36.5905 295.47 36.8661 295.577C37.1418 295.684 37.4375 295.738 37.736 295.737H76.896C77.192 295.738 77.4854 295.684 77.7592 295.579C78.033 295.474 78.2818 295.319 78.4915 295.123C78.7012 294.928 78.8676 294.695 78.9811 294.44C79.0946 294.184 79.153 293.91 79.153 293.633V288.305L35.4789 288.278Z" fill="#FF725E"/>
<g opacity="0.4">
<path opacity="0.4" d="M38.8752 295.737L39.2028 297.442L75.3296 299.853L76.2481 295.737H38.8752Z" fill="black"/>
</g>
<path d="M195.757 212.487C197.497 203.719 197.37 194.715 195.382 185.993C193.394 177.27 189.585 169.001 184.173 161.658L134.005 169.763C129.185 188.132 135.344 208.671 149.67 222.011L195.757 212.487Z" fill="#FF725E"/>
<path d="M195.757 212.487C197.497 203.719 197.37 194.715 195.382 185.993C193.394 177.27 189.585 169.001 184.173 161.658L134.005 169.763C129.185 188.132 135.344 208.671 149.67 222.011L195.757 212.487Z" fill="#455A64"/>
<g opacity="0.3">
<path opacity="0.3" d="M194.234 180.346C192.354 177.983 190.094 175.907 187.534 174.192C186.943 173.732 186.229 173.432 185.469 173.327C184.979 173.343 184.497 173.453 184.055 173.651C183.613 173.85 183.219 174.131 182.899 174.479C181.963 175.353 181.243 176.408 180.789 177.57C180.335 178.732 180.158 179.973 180.271 181.205C180.506 183.556 181.802 185.867 181.161 188.178C180.876 189.029 180.388 189.808 179.733 190.455C179.077 191.103 178.273 191.602 177.381 191.915C175.59 192.529 173.675 192.757 171.777 192.581C167.071 192.294 162.557 190.829 158.121 189.324C153.685 187.819 149.228 186.247 144.543 185.741C139.858 185.235 134.853 185.907 131.058 188.525L133.657 188.252C140.295 189.967 146.776 192.177 153.037 194.858C157.886 196.936 162.763 199.334 168.089 199.7C172.817 200.02 177.544 198.681 181.745 196.617C185.946 194.552 189.691 191.775 193.408 189.017C194.468 188.355 195.335 187.456 195.928 186.4C196.832 184.375 195.622 182.098 194.234 180.346Z" fill="black"/>
</g>
<path d="M135.444 185.961C135.315 185.242 135.239 184.517 135.216 183.789C135.109 182.457 134.952 180.593 134.725 178.555C134.497 176.517 134.24 174.672 134.055 173.333C133.916 172.618 133.831 171.895 133.799 171.169C134.039 171.863 134.211 172.576 134.312 173.3C134.568 174.632 134.867 176.47 135.095 178.515C135.323 180.559 135.437 182.424 135.479 183.776C135.54 184.504 135.528 185.235 135.444 185.961Z" fill="#263238"/>
<path d="M174.269 192.307C173.787 191.211 173.243 190.139 172.639 189.097C171.073 186.641 169.064 184.458 166.701 182.644C164.326 180.835 161.803 179.205 159.153 177.769L156.761 176.437C156.459 176.287 156.173 176.111 155.907 175.911C156.228 176.022 156.538 176.16 156.832 176.324C157.416 176.61 158.256 177.029 159.289 177.569C161.991 178.956 164.553 180.57 166.943 182.391C169.341 184.225 171.35 186.464 172.866 188.991C173.313 189.76 173.692 190.562 173.999 191.388C174.123 191.685 174.213 191.993 174.269 192.307Z" fill="#263238"/>
<path d="M172.176 182.551C171.862 182.092 171.597 181.606 171.385 181.099C170.873 180.073 170.275 178.874 169.605 177.549C168.936 176.224 168.295 175.038 167.769 174.026C167.481 173.551 167.243 173.051 167.057 172.534C167.427 172.956 167.745 173.416 168.003 173.906C168.537 174.778 169.242 176.01 169.947 177.396C170.652 178.781 171.243 180.06 171.635 180.999C171.881 181.494 172.063 182.015 172.176 182.551Z" fill="#263238"/>
<path d="M191.272 146.593L190.994 148.591C189.311 151.595 187.997 154.768 187.078 158.048C185.576 163.45 182.201 173.366 182.486 177.769C182.77 182.171 192.511 188.558 192.511 188.558L200.172 168.691L202.258 158.508C202.258 158.508 200.891 147.626 199.531 147.119C198.171 146.613 191.272 146.593 191.272 146.593Z" fill="#263238"/>
<path d="M249.969 175.538L238.342 201.658L238.456 215.384L177.573 198.328L193.45 186.154L196.961 176.756L202.115 159.534L205.853 138.761L212.069 132.867L242.585 134.798L251.336 138.901C251.336 138.901 250.239 174.365 249.969 175.538Z" fill="#263238"/>
<path d="M204.55 137.256C204.55 137.256 197.829 141.818 195.458 152.054C193.087 162.291 194.39 168.997 194.39 168.997C194.39 168.997 213.329 149.251 213.5 148.764C213.671 148.278 212.24 139.927 212.24 139.927L204.55 137.256Z" fill="#FF725E"/>
<path d="M253.586 143.896C254.298 144.322 258 150.995 256.434 156.883C254.867 162.77 234.518 193.28 226.487 196.47C218.456 199.66 211.101 197.948 207.669 189.051C204.237 180.153 197.502 150.423 197.502 150.423L197.915 147.352L209.271 145.568L210.403 148.132C212.58 151.664 214.438 155.359 215.957 159.181C218.591 165.727 221.104 173.36 221.104 173.36L253.586 143.896Z" fill="#263238"/>
<path d="M253.586 143.896C253.586 143.896 253.394 144.089 253.009 144.442L251.3 146.014L244.786 152.008L221.204 173.513L221.033 173.673L220.962 173.453C219.652 169.557 218.199 165.461 216.548 161.165C214.869 156.698 212.765 152.38 210.261 148.265L209.121 145.707L209.314 145.807L197.936 147.546L198.085 147.399L197.672 150.469V150.409C199.054 156.403 200.52 162.69 202.137 169.057C203.034 172.594 203.938 176.09 204.885 179.514C205.355 181.225 205.846 182.924 206.352 184.595C206.857 186.267 207.391 187.925 208.053 189.517C208.672 191.097 209.562 192.573 210.688 193.886C211.781 195.176 213.183 196.207 214.782 196.896C216.349 197.545 218.053 197.855 219.766 197.802C221.465 197.751 223.146 197.457 224.75 196.93C225.149 196.816 225.526 196.656 225.918 196.523C226.304 196.393 226.678 196.233 227.035 196.044C227.391 195.864 227.747 195.631 228.061 195.424C228.374 195.218 228.709 194.958 229.022 194.718C230.239 193.729 231.388 192.668 232.461 191.542C234.597 189.344 236.512 187.066 238.313 184.828C241.873 180.346 244.992 176.004 247.712 171.975C250.432 167.945 252.746 164.222 254.568 160.852C255.451 159.154 256.32 157.569 256.555 155.964C256.794 154.509 256.794 153.029 256.555 151.575C256.242 149.551 255.621 147.58 254.711 145.721C254.477 145.238 254.213 144.769 253.92 144.316C253.817 144.163 253.698 144.02 253.564 143.889C253.605 143.915 253.643 143.944 253.678 143.976C253.776 144.076 253.867 144.183 253.949 144.296C254.264 144.742 254.542 145.209 254.782 145.694C255.723 147.55 256.368 149.524 256.697 151.555C256.937 153.025 256.937 154.52 256.697 155.991C256.462 157.629 255.587 159.234 254.718 160.939C252.909 164.329 250.588 168.058 247.897 172.108C245.206 176.157 242.101 180.499 238.52 185.001C236.726 187.246 234.81 189.53 232.66 191.748C231.584 192.887 230.428 193.957 229.2 194.952C228.879 195.205 228.552 195.438 228.224 195.677C227.897 195.917 227.512 196.13 227.164 196.343C226.795 196.54 226.409 196.707 226.01 196.843C225.611 196.983 225.227 197.143 224.821 197.263C223.194 197.797 221.489 198.095 219.766 198.148C217.991 198.212 216.223 197.898 214.597 197.229C212.949 196.518 211.503 195.455 210.375 194.126C209.224 192.784 208.312 191.277 207.676 189.663C207.007 188.058 206.494 186.393 205.967 184.722C205.44 183.05 204.963 181.345 204.486 179.627C203.539 176.197 202.635 172.707 201.745 169.164C200.143 162.784 198.655 156.51 197.281 150.516V150.456C197.43 149.397 197.573 148.345 197.701 147.386V147.266H197.836L209.193 145.494H209.328L209.385 145.614L210.517 148.172C213.035 152.306 215.144 156.646 216.818 161.139C218.47 165.414 219.908 169.537 221.211 173.446L220.962 173.386C230.88 164.422 239.033 157.063 244.707 151.928L251.25 146.034L252.966 144.502L253.586 143.896Z" fill="#455A64"/>
<path d="M179.36 196.963C179.36 196.963 179.438 196.87 179.616 196.723L180.407 196.057L183.361 193.719L193.329 186C193.634 185.586 193.885 185.139 194.077 184.668C195.202 182.004 195.999 179.4 196.726 177.109L196.761 177.256C196.281 176.621 195.905 175.923 195.643 175.185C195.38 174.519 195.166 173.853 194.981 173.187C194.664 172.093 194.426 170.98 194.269 169.857C194.166 169.132 194.111 168.403 194.105 167.672C194.101 167.412 194.118 167.151 194.155 166.893C194.198 167.151 194.217 167.411 194.212 167.672C194.255 168.172 194.305 168.911 194.469 169.83C194.65 170.953 194.904 172.066 195.23 173.16C195.43 173.779 195.65 174.432 195.942 175.105C196.195 175.803 196.558 176.463 197.017 177.063L197.074 177.136V177.216C196.313 179.792 195.413 182.331 194.376 184.822C194.174 185.336 193.899 185.822 193.557 186.267L183.504 193.899L180.478 196.157L179.652 196.75C179.563 196.83 179.465 196.902 179.36 196.963Z" fill="#455A64"/>
<path d="M131.051 295.298L129.413 312.041V318.248C129.413 320.599 127.377 320.16 124.856 320.166L94.1406 320.226C94.1406 320.226 92.681 317.342 94.9451 316.437C97.2093 315.531 114.368 306.633 114.368 306.633L112.823 293.46L131.051 295.298Z" fill="#EBEBEB"/>
<path d="M131.051 295.298H130.716L129.762 295.211L126.131 294.878L112.823 293.599L112.973 293.466C113.436 297.316 113.963 301.765 114.546 306.633V306.74L114.454 306.786L103.332 312.514C101.358 313.522 99.3382 314.536 97.2734 315.557L95.6998 316.31C95.1665 316.485 94.6805 316.767 94.2758 317.136C93.947 317.558 93.8043 318.083 93.8771 318.601C93.9231 319.144 94.0675 319.675 94.3043 320.173L94.1334 320.073H95.1231H118.341H123.56C124.401 320.073 125.241 320.073 126.06 320.073C126.844 320.146 127.636 320.081 128.395 319.88C128.713 319.715 128.968 319.462 129.123 319.155C129.279 318.848 129.328 318.503 129.264 318.168V316.017C129.264 314.638 129.264 313.306 129.264 312.021C129.798 306.879 130.225 302.697 130.524 299.813L130.887 296.483L130.987 295.611C130.987 295.411 131.029 295.304 131.029 295.304C131.037 295.397 131.037 295.491 131.029 295.584C131.029 295.797 131.029 296.077 130.958 296.443C130.894 297.216 130.794 298.335 130.666 299.773C130.403 302.697 130.018 306.893 129.541 312.074C129.541 313.34 129.541 314.672 129.541 316.07C129.541 316.736 129.541 317.462 129.541 318.181C129.565 318.561 129.507 318.942 129.37 319.3C129.295 319.491 129.179 319.666 129.028 319.812C128.877 319.959 128.696 320.075 128.495 320.153C127.698 320.382 126.861 320.461 126.031 320.386C125.212 320.386 124.386 320.386 123.539 320.386H118.32L95.1018 320.446H93.991L93.9483 320.346C93.6931 319.811 93.5366 319.239 93.4855 318.654C93.4066 318.05 93.5773 317.44 93.9626 316.949C94.0583 316.825 94.1763 316.717 94.3114 316.63C94.4339 316.532 94.5706 316.452 94.7173 316.39C94.995 316.25 95.2513 316.157 95.5147 316.03L97.0811 315.278C99.153 314.265 101.168 313.246 103.14 312.247L114.269 306.546L114.183 306.693C113.628 301.818 113.115 297.369 112.674 293.52V293.36H112.838L126.209 294.778L129.805 295.171L130.73 295.278C130.837 295.275 130.945 295.282 131.051 295.298Z" fill="#263238"/>
<path d="M122.649 320C122.713 320 122.777 319.454 123.069 318.621C123.439 317.532 124.064 316.534 124.898 315.699C125.731 314.863 126.753 314.212 127.889 313.793C128.758 313.46 129.313 313.36 129.313 313.306C128.788 313.281 128.262 313.365 127.776 313.553C126.566 313.934 125.475 314.588 124.6 315.458C123.731 316.331 123.11 317.393 122.792 318.548C122.628 319.016 122.58 319.512 122.649 320Z" fill="#263238"/>
<path d="M103.24 320.206C103.427 319.883 103.525 319.521 103.525 319.154C103.604 318.264 103.409 317.372 102.962 316.583C102.502 315.807 101.877 315.127 101.125 314.585C100.839 314.339 100.502 314.148 100.136 314.026C100.136 314.072 100.442 314.332 100.954 314.772C101.618 315.339 102.182 315.999 102.628 316.73C103.043 317.469 103.26 318.292 103.261 319.127C103.225 319.486 103.218 319.847 103.24 320.206Z" fill="#263238"/>
<path d="M217.872 138.348C217.285 138.342 216.704 138.239 216.156 138.042C214.808 137.634 213.561 136.978 212.489 136.11C211.414 135.246 210.53 134.191 209.89 133.007C209.601 132.53 209.406 132.009 209.314 131.468C209.378 131.468 209.599 132.028 210.125 132.887C210.807 134.006 211.689 135.009 212.731 135.851C213.775 136.697 214.964 137.372 216.249 137.849C217.196 138.168 217.872 138.288 217.872 138.348Z" fill="#263238"/>
<path d="M116.319 204.688L84.3435 246.547L100.171 255.791L144.856 207.446L116.319 204.688Z" fill="#263238"/>
<path d="M98.0423 256.763L85.8244 269.916L83.6172 275.771C82.777 277.988 81.0113 276.936 78.6332 276.15L49.669 266.566C49.669 266.566 49.3344 263.396 51.805 263.236C54.2757 263.077 73.6207 260.093 73.6207 260.093L84.0159 247.312L98.0423 256.763Z" fill="#EBEBEB"/>
<path d="M98.0423 256.763L97.7789 256.603L97.0669 256.124L94.2616 254.265L83.9448 247.412H84.1227L73.7418 260.206L73.6991 260.253H73.635L61.0611 262.164C58.8468 262.491 56.5897 262.83 54.2757 263.13L52.5313 263.343C51.9675 263.341 51.4103 263.457 50.9008 263.683C50.4439 263.978 50.1254 264.426 50.0108 264.935C49.8662 265.458 49.8133 266 49.8542 266.54L49.7331 266.393L50.0322 266.493L72.2466 273.819L77.2306 275.478C78.0352 275.751 78.8397 276.004 79.6229 276.29C80.3519 276.608 81.1307 276.815 81.9298 276.903C82.1098 276.913 82.29 276.888 82.4592 276.829C82.6283 276.771 82.7826 276.68 82.9123 276.563C83.1587 276.304 83.3453 276 83.4606 275.671C83.724 275.005 83.9803 274.305 84.2367 273.673L85.6607 269.857L94.6959 260.286L97.1595 257.682L97.8074 257.016L98.0423 256.783C97.9852 256.865 97.9209 256.943 97.8501 257.016C97.7006 257.183 97.4941 257.402 97.2378 257.682L94.8383 260.306L85.9312 270.01V269.97L84.5072 273.786C84.258 274.452 84.0017 275.118 83.7454 275.817C83.6147 276.187 83.4038 276.527 83.1259 276.816C82.9679 276.962 82.7795 277.075 82.5725 277.15C82.3654 277.224 82.1443 277.258 81.9227 277.249C81.0874 277.163 80.2724 276.952 79.509 276.623C78.7329 276.343 77.9283 276.09 77.1167 275.824L72.1327 274.172L49.9111 266.846L49.6121 266.746L49.4982 266.706V266.6C49.4547 266.018 49.5124 265.433 49.6691 264.868C49.8078 264.277 50.1821 263.758 50.7157 263.416C50.8492 263.33 50.9955 263.263 51.15 263.217C51.3014 263.164 51.4594 263.131 51.62 263.117C51.9404 263.07 52.2038 263.063 52.5028 263.03L54.2401 262.817C56.547 262.511 58.8111 262.151 61.0183 261.858L73.5923 259.966L73.4855 260.026C77.4371 255.205 80.9828 250.862 83.9376 247.252L84.0088 247.159L84.1156 247.226L94.3898 254.239L97.131 256.124L97.843 256.61L98.0423 256.763Z" fill="#263238"/>
<path d="M100.107 256.443L96.832 259.547C96.5935 259.777 96.2719 259.916 95.9297 259.937C95.5876 259.958 95.2493 259.859 94.9808 259.66L82.3641 250.276C82.1022 250.071 81.9279 249.784 81.873 249.469C81.8181 249.154 81.8863 248.83 82.0651 248.558L84.5001 245.001C84.604 244.85 84.7405 244.72 84.901 244.621C85.0615 244.522 85.2424 244.455 85.4321 244.425C85.6218 244.395 85.8161 244.402 86.0026 244.446C86.1891 244.49 86.3637 244.571 86.5151 244.682L99.9434 254.519C100.099 254.629 100.228 254.768 100.322 254.928C100.415 255.088 100.472 255.265 100.487 255.447C100.503 255.628 100.477 255.811 100.411 255.983C100.346 256.155 100.242 256.312 100.107 256.443Z" fill="#EBEBEB"/>
<path d="M81.88 249.936C82.4178 250.534 83.0059 251.091 83.6386 251.601C84.7636 252.587 86.3514 253.912 88.1954 255.291C90.0395 256.67 91.7554 257.822 93.0726 258.621C93.7206 259.014 94.2474 259.32 94.6248 259.52C94.8073 259.644 95.009 259.74 95.2229 259.807C94.5889 259.303 93.9206 258.838 93.2222 258.415C91.969 257.575 90.2602 256.417 88.4304 255.025C86.6006 253.633 84.9843 252.361 83.8166 251.428C83.2106 250.888 82.5634 250.389 81.88 249.936Z" fill="#263238"/>
<path d="M93.5354 258.202C94.6645 257.72 95.6369 256.967 96.3535 256.019C97.0702 255.072 97.5055 253.963 97.6152 252.807C97.2122 253.861 96.6869 254.87 96.0488 255.817C95.304 256.693 94.4614 257.493 93.5354 258.202Z" fill="#263238"/>
<path d="M88.4375 255.304C89.4478 254.533 90.3539 253.65 91.136 252.674C92.009 251.768 92.7577 250.763 93.3645 249.683C92.4579 250.552 91.6136 251.475 90.8369 252.447C89.9657 253.345 89.1638 254.3 88.4375 255.304Z" fill="#263238"/>
<path d="M83.8094 251.082C84.41 250.074 85.1656 249.154 86.0522 248.351C87.0203 247.638 88.095 247.061 89.242 246.64C88.8641 246.617 88.4859 246.679 88.1384 246.82C87.2801 247.097 86.4871 247.526 85.803 248.085C85.1156 248.643 84.552 249.322 84.1441 250.083C83.9466 250.385 83.8316 250.728 83.8094 251.082Z" fill="#263238"/>
<path d="M76.604 275.298C76.6538 275.298 76.9102 274.818 77.4869 274.126C78.228 273.218 79.1748 272.475 80.2594 271.95C81.3439 271.424 82.5392 271.13 83.7596 271.089C84.6994 271.049 85.2833 271.142 85.2975 271.089C84.8089 270.907 84.285 270.823 83.7596 270.842C82.4836 270.817 81.2211 271.091 80.0878 271.64C78.9546 272.189 77.9868 272.996 77.2733 273.986C76.9474 274.37 76.7186 274.819 76.604 275.298Z" fill="#263238"/>
<path d="M58.2202 269.397C58.5133 269.153 58.7361 268.844 58.8681 268.498C59.2607 267.682 59.3941 266.778 59.2526 265.894C59.0993 265.025 58.755 264.195 58.2415 263.456C57.8499 262.897 57.5295 262.59 57.5295 262.617C57.6501 262.958 57.8176 263.283 58.0279 263.583C58.4499 264.323 58.7454 265.121 58.9037 265.947C59.0287 266.774 58.9383 267.617 58.6403 268.405C58.4704 268.724 58.3299 269.056 58.2202 269.397Z" fill="#263238"/>
<path d="M147.206 205.288H130.118C125.941 205.276 121.863 206.48 118.451 208.733C115.038 210.986 112.459 214.177 111.072 217.862C109.736 221.41 109.148 225.167 109.342 228.924L112.339 293.859L132.859 294.052L134.134 273.246L137.046 233.673L156.982 234.459L168.288 233.793L147.206 205.288Z" fill="#263238"/>
<path d="M127.74 223.976C127.697 224.096 130.097 224.642 132.653 226.147C135.209 227.652 136.846 229.35 136.925 229.264C136.67 228.813 136.33 228.409 135.921 228.072C134.079 226.319 131.805 225.015 129.299 224.275C128.803 224.089 128.275 223.988 127.74 223.976Z" fill="#263238"/>
<g opacity="0.3">
<path opacity="0.3" d="M167.925 233.799C163.283 234.605 158.178 233.273 154.191 230.949C150.206 228.62 147.323 224.956 146.131 220.706C145.625 218.828 145.469 216.883 144.963 215.005C144.557 213.076 143.457 211.337 141.845 210.076C139.894 208.744 135.095 207.852 133.664 206.034C133.664 205.761 139.36 206.373 141.261 206.473C143.34 206.58 146.829 207.073 146.757 206.846C146.757 206.846 148.146 211.408 148.765 212.401C152.923 219.061 162.037 228.864 167.925 233.799Z" fill="black"/>
</g>
<path d="M191.286 200.14C191.286 200.14 140.414 186.154 134.191 187.725C127.968 189.297 116.149 204.862 116.149 204.862L149.022 213.866L167.669 234.432L191.286 200.14Z" fill="#263238"/>
<path d="M112.368 293.853C112.368 293.853 112.368 293.773 112.368 293.619C112.368 293.466 112.368 293.207 112.311 292.913C112.268 292.247 112.211 291.368 112.133 290.21C111.998 287.839 111.798 284.442 111.556 280.259C111.1 271.835 110.474 260.24 109.783 247.426C109.449 241.012 109.135 234.898 108.851 229.344C108.682 226.699 108.876 224.044 109.427 221.445C110.019 219.198 110.98 217.05 112.275 215.078C113.212 213.39 114.412 211.841 115.835 210.483C116.917 209.461 118.144 208.582 119.481 207.872C120.321 207.411 121.234 207.078 122.186 206.886C122.515 206.816 122.853 206.787 123.19 206.8C123.19 206.8 122.841 206.8 122.201 206.953C121.268 207.175 120.375 207.525 119.552 207.992C116.517 209.719 114.07 212.218 112.496 215.198C111.237 217.159 110.305 219.288 109.733 221.512C109.203 224.086 109.023 226.714 109.199 229.33C109.491 234.892 109.819 240.999 110.161 247.406C110.809 260.226 111.399 271.821 111.827 280.246C112.019 284.435 112.176 287.832 112.29 290.203C112.332 291.362 112.368 292.267 112.396 292.907V293.613C112.4 293.694 112.39 293.774 112.368 293.853Z" fill="#455A64"/>
<path d="M116.149 204.862C116.149 204.862 116.22 204.748 116.384 204.529L117.096 203.57C117.751 202.73 118.726 201.498 120.036 199.947C121.346 198.395 122.984 196.51 125.02 194.419C126.038 193.38 127.156 192.287 128.416 191.195C129.05 190.649 129.712 190.103 130.431 189.584C131.164 189.034 131.948 188.548 132.774 188.132C133.21 187.922 133.665 187.748 134.134 187.612L134.888 187.499H135.643C136.667 187.522 137.689 187.598 138.705 187.725C140.777 187.978 142.92 188.345 145.113 188.764C149.527 189.597 154.226 190.636 159.16 191.788C169.036 194.106 179.88 196.883 191.3 199.993L191.535 200.053L191.4 200.253L186.957 206.713L167.776 234.545L167.655 234.725L167.505 234.559C160.528 226.84 154.219 219.867 148.886 213.959L148.95 213.999L128.787 208.418L123.311 206.886L121.887 206.48C121.567 206.387 121.41 206.327 121.41 206.327L121.902 206.447L123.326 206.82L128.822 208.285L149.022 213.759L167.69 234.312H167.42L186.572 206.46L191.022 200L191.122 200.26C179.73 197.156 168.872 194.365 159.011 192.028C154.077 190.862 149.392 189.817 144.985 188.971C142.777 188.551 140.648 188.178 138.577 187.925C137.571 187.791 136.559 187.71 135.543 187.685H134.831L134.119 187.785C133.664 187.911 133.223 188.079 132.802 188.285C131.989 188.689 131.217 189.162 130.495 189.697C129.783 190.21 129.114 190.749 128.488 191.289C127.227 192.374 126.102 193.453 125.077 194.485C123.034 196.557 121.389 198.428 120.093 199.966C118.797 201.505 117.772 202.724 117.103 203.55L116.341 204.489C116.241 204.762 116.149 204.862 116.149 204.862Z" fill="#455A64"/>
<path d="M137.857 226.167C137.957 226.167 137.651 229.663 137.145 233.946C136.64 238.228 136.177 241.698 136.077 241.685C135.978 241.671 136.291 238.195 136.789 233.912C137.288 229.63 137.758 226.16 137.857 226.167Z" fill="#455A64"/>
<path d="M209.008 86.1271C209.588 83.962 210.774 81.9805 212.444 80.3861C214.114 78.7916 216.208 77.6418 218.51 77.0546C220.812 76.4674 223.24 76.464 225.544 77.0448C227.848 77.6257 229.946 78.7697 231.621 80.3595C232.981 81.6449 234.063 83.2233 235.665 84.229C237.48 85.3745 237.744 85.0349 239.773 85.7874C241.802 86.54 245.533 91.8281 245.469 93.8727L246.487 102.83C246.402 104.928 243.525 106.107 241.396 105.421C239.268 104.735 237.836 102.884 236.747 101.065C235.658 99.2473 234.575 97.2826 232.739 96.0771C229.691 94.0791 225.569 94.7451 221.916 95.4578C218.264 96.1704 214.084 96.6566 211.236 94.4121C208.758 92.4807 208.224 89.0375 209.008 86.1271Z" fill="#263238"/>
<path d="M207 98.9143C207.406 93.0868 211.557 85.9406 217.765 86.5666L237.146 91.2287C238.056 91.3201 238.896 91.7271 239.501 92.3694C240.106 93.0117 240.432 93.8427 240.414 94.6985L238.228 138.441H238.363C238.363 138.441 230.481 154.079 217.665 150.31C215.124 149.557 217.431 143.65 216.953 140.986H216.818C216.818 140.666 216.818 140.373 216.818 140.066C216.566 138.077 216.54 136.067 216.74 134.072C216.704 130.543 216.704 129.097 216.704 129.124C216.704 129.151 208.709 127.872 207.078 118.148C206.273 113.313 206.551 105.394 207 98.9143Z" fill="#FFBE9D"/>
<path d="M209.933 106.74C209.929 107.065 210.061 107.379 210.3 107.615C210.539 107.852 210.867 107.991 211.215 108.005C211.385 108.017 211.555 107.997 211.717 107.947C211.879 107.896 212.028 107.817 212.156 107.712C212.285 107.607 212.39 107.48 212.465 107.337C212.541 107.194 212.585 107.039 212.596 106.88C212.598 106.555 212.466 106.243 212.227 106.008C211.988 105.774 211.661 105.635 211.314 105.621C211.145 105.608 210.974 105.627 210.813 105.677C210.651 105.726 210.502 105.806 210.373 105.91C210.245 106.014 210.14 106.141 210.064 106.283C209.988 106.426 209.944 106.581 209.933 106.74Z" fill="#263238"/>
<path d="M208.83 103.044C208.993 103.203 210.004 102.504 211.443 102.511C212.881 102.517 213.92 103.177 214.077 103.03C214.234 102.884 213.984 102.664 213.529 102.364C212.906 101.951 212.157 101.736 211.393 101.751C210.647 101.745 209.918 101.962 209.314 102.371C208.901 102.677 208.751 102.97 208.83 103.044Z" fill="#263238"/>
<path d="M222.892 106.82C222.886 107.145 223.017 107.459 223.257 107.695C223.496 107.93 223.826 108.068 224.173 108.078C224.343 108.092 224.513 108.074 224.675 108.024C224.836 107.975 224.986 107.896 225.114 107.792C225.242 107.687 225.346 107.56 225.421 107.417C225.495 107.274 225.538 107.118 225.547 106.96C225.551 106.635 225.42 106.322 225.18 106.086C224.941 105.851 224.613 105.713 224.266 105.701C224.096 105.687 223.926 105.706 223.764 105.755C223.603 105.804 223.453 105.883 223.325 105.988C223.197 106.092 223.092 106.22 223.018 106.363C222.943 106.505 222.9 106.661 222.892 106.82Z" fill="#263238"/>
<path d="M222.927 103.323C223.091 103.483 224.102 102.784 225.533 102.79C226.964 102.797 228.018 103.456 228.175 103.31C228.331 103.163 228.082 102.944 227.626 102.644C227.002 102.233 226.254 102.019 225.49 102.031C224.745 102.026 224.017 102.243 223.411 102.651C222.991 102.957 222.856 103.23 222.927 103.323Z" fill="#263238"/>
<path d="M217.694 113.26C216.94 113.032 216.157 112.897 215.366 112.86C215.003 112.82 214.654 112.754 214.597 112.521C214.564 112.168 214.649 111.815 214.839 111.508C215.188 110.676 215.551 109.81 215.928 108.898C217.445 105.188 218.541 102.138 218.377 102.084C218.214 102.031 216.861 104.988 215.351 108.698C214.988 109.617 214.639 110.489 214.305 111.322C214.078 111.732 214.01 112.202 214.113 112.654C214.167 112.774 214.25 112.882 214.354 112.968C214.459 113.055 214.583 113.118 214.718 113.153C214.919 113.207 215.128 113.234 215.337 113.233C216.119 113.334 216.91 113.343 217.694 113.26Z" fill="#263238"/>
<path d="M216.669 129.124C221.562 129.206 226.384 128.014 230.595 125.681C230.595 125.681 227.035 132.441 216.669 131.508V129.124Z" fill="#EB996E"/>
<path d="M218.299 116.49C218.572 116.17 218.928 115.92 219.333 115.763C219.737 115.607 220.178 115.55 220.613 115.598C220.93 115.625 221.237 115.712 221.517 115.853C221.797 115.993 222.044 116.185 222.244 116.417C222.435 116.641 222.548 116.914 222.567 117.2C222.587 117.486 222.511 117.771 222.35 118.015C222.121 118.257 221.819 118.428 221.484 118.508C221.149 118.587 220.796 118.571 220.471 118.461C219.793 118.235 219.171 117.884 218.641 117.429C218.478 117.324 218.337 117.191 218.228 117.036C218.176 116.962 218.148 116.875 218.148 116.786C218.148 116.698 218.176 116.611 218.228 116.537" fill="#EB996E"/>
<path d="M221.916 114.192C221.681 114.192 221.674 115.638 220.343 116.67C219.011 117.702 217.352 117.536 217.338 117.735C217.338 117.829 217.708 118.022 218.406 118.042C219.317 118.054 220.204 117.766 220.912 117.229C221.59 116.713 222.027 115.97 222.13 115.158C222.194 114.552 222.023 114.186 221.916 114.192Z" fill="#263238"/>
<path d="M222.578 98.215C222.721 98.5813 224.152 98.4148 225.832 98.608C227.512 98.8011 228.872 99.2273 229.1 98.901C229.2 98.7478 228.965 98.4015 228.388 98.0485C227.655 97.6119 226.825 97.3381 225.961 97.2481C225.097 97.1581 224.222 97.2542 223.404 97.529C222.856 97.7555 222.521 98.0419 222.578 98.215Z" fill="#263238"/>
<path d="M209.364 99.1607C209.62 99.4671 210.61 99.1607 211.791 99.1607C212.973 99.1607 213.984 99.3672 214.219 99.0475C214.319 98.8943 214.162 98.588 213.728 98.3016C213.138 97.9524 212.45 97.7759 211.753 97.7949C211.055 97.8139 210.379 98.0274 209.812 98.4081C209.392 98.7012 209.257 99.0142 209.364 99.1607Z" fill="#263238"/>
<path d="M218.107 84.0825L218.99 83.0236C224.991 83.6704 230.871 85.0751 236.469 87.1994C238.705 88.0452 240.969 89.0642 242.493 90.8158C244.629 93.2134 244.935 96.53 245.17 99.6269C246.081 111.422 246.836 123.57 242.87 134.792C241.916 133.36 240.022 132.714 238.271 132.394C236.519 132.074 234.632 131.961 233.03 131.195C232.152 130.758 231.381 130.153 230.768 129.42C230.155 128.687 229.713 127.842 229.47 126.94C229.005 125.12 229.232 123.205 230.111 121.525C231.08 119.654 232.796 117.849 232.375 115.811C231.955 113.773 229.321 112.481 228.702 110.363C227.641 106.74 233.073 103.49 231.977 99.88C231.72 99.2285 231.324 98.6331 230.812 98.1302C230.3 97.6274 229.684 97.2279 229.001 96.9563C227.669 96.3369 226.217 95.9972 224.871 95.4112C222.645 94.3907 220.805 92.7595 219.597 90.7353C218.388 88.7111 217.868 86.3902 218.107 84.0825Z" fill="#263238"/>
<path d="M247.135 136.703C247.135 136.703 255.473 140.699 257.993 144.415C265.348 155.331 257.082 190.869 257.082 190.869C252.786 186.334 247.298 182.927 241.162 180.986L238.271 180.066C233.504 178.572 229.14 176.133 225.475 172.914C221.811 169.695 218.933 165.774 217.039 161.418L208.11 140.919L247.135 136.703Z" fill="#FF725E"/>
<path d="M231.621 80.3596C237.687 80.6726 240.385 81.958 246.836 90.4162C254.034 99.8534 259.261 119.261 254.967 129.617C253.244 133.753 251.293 135.351 251.293 135.351L234.59 135.291L220.25 135.245L214.248 132.101C218.52 133.826 226.843 130.483 230.56 127.825C234.276 125.168 236.662 121.465 238.826 117.589C240.635 114.352 241.98 111.302 241.674 107.666C241.404 104.595 239.666 101.145 238.399 98.3016" fill="#FF725E"/>
<path d="M258.734 145.508C258.734 145.508 255.138 138.608 250.453 134.852C245.768 131.095 242.884 131.095 236.213 131.622C229.542 132.148 219.168 132.9 216.953 132.381C216.455 132.261 216.875 129.171 216.875 129.171C215.779 129.064 212.119 127.546 211.243 126.307L209.214 131.448L208.118 131.835C206.501 132.388 205.159 133.479 204.347 134.899C203.536 136.319 203.312 137.969 203.717 139.534C204.13 141.025 205.141 141.945 207.163 142.271C215.195 143.603 236.662 138.142 243.134 138.108C249.606 138.075 258.734 145.508 258.734 145.508Z" fill="#FF725E"/>
<path d="M206.437 142.164C206.624 142.148 206.813 142.148 207 142.164C207.363 142.164 207.897 142.251 208.595 142.291C210.551 142.436 212.515 142.467 214.476 142.384C217.382 142.245 220.271 141.878 223.112 141.285C224.714 140.959 226.387 140.559 228.096 140.1L233.394 138.568C237.025 137.529 240.67 136.83 244.002 137.136C246.94 137.391 249.782 138.249 252.326 139.647C254.036 140.581 255.582 141.756 256.911 143.13C257.27 143.504 257.607 143.895 257.922 144.302C258.037 144.44 258.141 144.584 258.235 144.735C258.095 144.617 257.968 144.485 257.858 144.342C257.637 144.076 257.274 143.676 256.804 143.223C253.425 139.906 248.868 137.855 243.988 137.456C240.72 137.169 237.132 137.869 233.515 138.901C231.699 139.414 229.955 139.953 228.21 140.426C226.466 140.899 224.8 141.279 223.191 141.598C220.328 142.179 217.417 142.524 214.49 142.631C212.52 142.688 210.548 142.622 208.587 142.431C207.875 142.364 207.356 142.284 206.993 142.231C206.806 142.226 206.62 142.204 206.437 142.164Z" fill="#263238"/>
<path d="M213.5 127.785C213.56 127.912 213.606 128.043 213.636 128.178C213.721 128.438 213.842 128.844 214.034 129.297C214.269 129.88 214.55 130.445 214.874 130.989C215.29 131.701 215.835 132.341 216.484 132.88C217.43 133.301 218.481 133.474 219.524 133.38C220.748 133.344 221.968 133.235 223.176 133.053C224.458 132.874 225.797 132.634 227.178 132.354L229.314 131.915C230.026 131.788 230.773 131.642 231.521 131.568C234.323 131.163 237.16 131.009 239.994 131.109C242.318 131.211 244.602 131.707 246.736 132.574C248.178 133.156 249.498 133.975 250.631 134.992C250.936 135.267 251.221 135.561 251.485 135.871C251.581 135.977 251.667 136.09 251.742 136.21C251.742 136.21 251.343 135.777 250.531 135.091C249.379 134.128 248.063 133.351 246.637 132.794C244.517 131.985 242.26 131.534 239.972 131.462C237.162 131.38 234.35 131.54 231.571 131.941C230.816 132.021 230.104 132.168 229.392 132.288L227.256 132.72C225.865 133 224.522 133.222 223.226 133.386C222.003 133.564 220.768 133.664 219.531 133.686C218.428 133.774 217.32 133.571 216.334 133.1C215.663 132.532 215.108 131.855 214.696 131.102C214.377 130.545 214.111 129.964 213.899 129.364C213.765 128.988 213.653 128.606 213.564 128.218C213.527 128.076 213.505 127.931 213.5 127.785Z" fill="#263238"/>
<g opacity="0.3">
<path opacity="0.3" d="M241.802 137.376C236.213 137.376 230.702 139.8 225.291 141.012C219.88 142.224 215.793 142.424 210.197 142.344L209.606 144.795C216.249 148.125 223.974 148.198 231.137 146.067C235.409 144.808 239.26 142.624 243.54 141.478C247.819 140.333 253.992 140.772 257.238 143.623C254.326 139.127 247.399 137.369 241.802 137.376Z" fill="black"/>
</g>
<g opacity="0.3">
<path opacity="0.3" d="M213.458 136.83C213.721 137.363 214.104 137.838 214.579 138.223C215.054 138.607 215.611 138.893 216.213 139.061C217.42 139.381 218.682 139.481 219.93 139.354C224.494 139.067 228.872 137.642 233.194 136.23C229.741 136.117 226.402 137.243 223.02 137.875C219.638 138.508 215.814 138.541 213.052 136.617" fill="black"/>
</g>
<path d="M133.813 291.668L133.208 296.51C133.164 296.869 132.978 297.2 132.687 297.437C132.396 297.675 132.021 297.803 131.635 297.795L113.535 297.549C113.15 297.545 112.779 297.406 112.497 297.16C112.215 296.913 112.042 296.577 112.012 296.217L111.563 291.488C111.545 291.286 111.573 291.082 111.644 290.891C111.714 290.699 111.827 290.523 111.974 290.374C112.121 290.225 112.3 290.106 112.499 290.025C112.698 289.944 112.913 289.902 113.13 289.903L132.275 290.036C132.495 290.037 132.712 290.081 132.913 290.165C133.113 290.25 133.292 290.374 133.437 290.528C133.583 290.682 133.691 290.864 133.756 291.06C133.821 291.257 133.84 291.464 133.813 291.668Z" fill="#EBEBEB"/>
<path d="M112.838 297.575C113.753 297.767 114.685 297.885 115.622 297.928C117.345 298.082 119.737 298.241 122.378 298.288C125.02 298.335 127.427 298.235 129.15 298.102C130.018 298.035 130.716 297.968 131.193 297.908C131.448 297.897 131.699 297.852 131.941 297.775C131.005 297.733 130.068 297.748 129.135 297.822C127.412 297.882 125.027 297.928 122.386 297.888C119.744 297.849 117.402 297.729 115.643 297.649C114.711 297.564 113.773 297.54 112.838 297.575Z" fill="#263238"/>
<path d="M129.264 297.449C129.915 296.295 130.227 295 130.168 293.697C130.109 292.394 129.682 291.128 128.929 290.03C128.808 290.076 129.641 291.628 129.741 293.713C129.84 295.797 129.135 297.409 129.264 297.449Z" fill="#263238"/>
<path d="M122.606 298.142C123.137 295.45 123.224 292.699 122.863 289.983C122.742 289.983 122.713 291.815 122.642 294.059C122.571 296.303 122.464 298.128 122.606 298.142Z" fill="#263238"/>
<path d="M115.344 297.349C115.479 297.349 114.874 295.591 115.344 293.48C115.814 291.368 117.039 289.976 116.925 289.91C116.811 289.843 116.519 290.17 116.077 290.776C115.518 291.573 115.129 292.464 114.931 293.4C114.73 294.338 114.73 295.305 114.931 296.243C114.979 296.636 115.12 297.014 115.344 297.349Z" fill="#263238"/>
<path d="M261.311 280.499L254.832 320.146H248.402L251.286 279.687L261.311 280.499Z" fill="#455A64"/>
<path d="M147.263 280.652V320.146H140.478L137.95 280.499L147.263 280.652Z" fill="#455A64"/>
<path d="M255.28 163.656C256.412 160.839 260.086 146.287 263.312 146.34C265.319 146.503 267.3 146.872 269.221 147.439C271.854 148.148 274.147 149.678 275.721 151.776C277.295 153.873 278.054 156.411 277.872 158.968L276.74 175.411C277.011 177.269 261.311 280.473 261.311 280.473H254.846L137.95 281.485L133.991 272.481L137.074 233.646L167.149 233.846C167.149 233.846 179.089 199.993 190.282 197.695C197.858 196.137 214.946 196.57 225.775 199.027L237.936 202.044L255.28 163.656Z" fill="#455A64"/>
<path d="M160.086 281.318C160.096 281.153 160.081 280.987 160.043 280.826C159.986 280.466 159.908 280.006 159.823 279.434C159.737 278.861 159.588 278.102 159.488 277.229C159.388 276.357 159.217 275.391 159.139 274.305C159.061 273.22 158.911 272.028 158.861 270.742C158.812 269.457 158.769 268.078 158.747 266.646C158.76 263.517 158.955 260.392 159.331 257.282C159.739 254.175 160.316 251.09 161.062 248.038C161.774 245.234 162.528 242.71 163.254 240.652C163.589 239.607 163.966 238.654 164.266 237.862C164.565 237.069 164.842 236.343 165.077 235.771L165.597 234.439C165.671 234.288 165.723 234.129 165.754 233.966C165.659 234.104 165.58 234.251 165.519 234.405L164.921 235.697C164.657 236.263 164.351 236.949 164.031 237.769C163.71 238.588 163.319 239.507 162.963 240.553C162.194 242.624 161.396 245.128 160.67 247.945C159.898 251.005 159.306 254.102 158.897 257.223C158.522 260.347 158.337 263.489 158.342 266.633C158.377 268.085 158.391 269.464 158.498 270.749C158.605 272.034 158.705 273.226 158.826 274.319C158.947 275.411 159.118 276.39 159.246 277.249C159.374 278.108 159.524 278.848 159.652 279.447C159.78 280.046 159.88 280.473 159.958 280.832C159.982 280.998 160.025 281.161 160.086 281.318Z" fill="#263238"/>
<path d="M260.934 212.008C260.826 211.966 260.726 211.91 260.635 211.841L259.837 211.302C259.496 211.055 259.068 210.776 258.556 210.469C258.043 210.163 257.488 209.803 256.818 209.437C256.149 209.071 255.444 208.671 254.647 208.285C253.849 207.899 252.995 207.499 252.091 207.079C250.261 206.287 248.21 205.481 246.025 204.735C241.639 203.25 237.566 202.171 234.632 201.405L231.137 200.466L230.19 200.2C229.976 200.133 229.862 200.093 229.869 200.08C229.985 200.085 230.1 200.103 230.211 200.133L231.172 200.333C232.005 200.519 233.208 200.792 234.689 201.159C237.651 201.878 241.745 202.917 246.146 204.409C248.353 205.161 250.418 205.98 252.24 206.793C253.145 207.219 254.013 207.605 254.796 208.032C255.58 208.458 256.313 208.844 256.932 209.231C257.552 209.617 258.15 209.983 258.648 210.309C259.081 210.583 259.497 210.879 259.894 211.195L260.656 211.781C260.759 211.845 260.852 211.921 260.934 212.008Z" fill="#263238"/>
<path d="M251.286 279.72C251.286 279.72 251.286 279.6 251.322 279.38C251.357 279.161 251.393 278.814 251.45 278.388C251.578 277.509 251.756 276.23 251.984 274.592C252.475 271.262 253.173 266.513 254.034 260.606C254.896 254.698 255.957 247.699 257.117 239.906C258.278 232.114 259.759 223.576 261.389 214.599C264.615 196.696 267.797 180.526 270.097 168.824C271.272 162.99 272.233 158.268 272.895 154.985C273.237 153.36 273.501 152.094 273.686 151.222L273.899 150.25C273.949 150.03 273.985 149.917 273.985 149.917C273.974 150.031 273.958 150.144 273.935 150.256C273.892 150.489 273.835 150.816 273.757 151.235C273.593 152.114 273.351 153.38 273.045 155.005C272.411 158.295 271.493 162.997 270.361 168.871C268.104 180.579 264.985 196.756 261.76 214.658C260.158 223.609 258.684 232.148 257.488 239.926C256.292 247.705 255.231 254.718 254.326 260.612C253.422 266.507 252.682 271.268 252.19 274.558L251.578 278.348C251.507 278.768 251.457 279.094 251.414 279.327C251.372 279.56 251.286 279.72 251.286 279.72Z" fill="#263238"/>
<path d="M134.781 256.656C134.781 256.563 140.079 256.483 146.615 256.483C153.151 256.483 158.441 256.563 158.441 256.656C158.441 256.75 153.144 256.836 146.615 256.836C140.086 256.836 134.781 256.756 134.781 256.656Z" fill="#263238"/>
<path d="M190.104 125.774C190.104 125.774 190.524 123.257 188.523 123.576C186.523 123.896 185.305 126.82 185.305 126.82C185.305 126.82 182.834 127.692 182.656 128.498C182.478 129.304 184.116 131.289 184.116 131.289C183.385 131.516 182.709 131.879 182.13 132.354C181.304 133.08 182.13 133.959 182.842 135.265C183.215 135.993 183.723 136.654 184.344 137.216C184.022 137.469 183.769 137.79 183.604 138.152C183.44 138.515 183.369 138.908 183.397 139.301C183.603 140.493 185.661 142.111 185.661 142.111C186.53 142.657 187.358 143.257 188.139 143.909C189.21 144.77 190.326 145.579 191.485 146.333H198.385L199.524 141.245L191.051 134.206L190.104 125.774Z" fill="#FFBE9D"/>
<path d="M208.616 124.089C208.732 124.048 208.856 124.032 208.979 124.042C209.103 124.051 209.222 124.087 209.329 124.146C209.435 124.205 209.526 124.285 209.595 124.381C209.664 124.478 209.709 124.587 209.727 124.702C209.954 126.034 210.396 128.165 210.659 128.984C210.873 129.65 209.841 132.314 209.841 132.314L206.993 129.57C206.993 129.57 206.53 127.046 206.943 125.574C207.079 125.222 207.301 124.905 207.592 124.647C207.882 124.389 208.233 124.198 208.616 124.089Z" fill="#EB996E"/>
<path d="M208.011 125.208L191.329 121.458C191.329 121.458 187.598 131.968 187.989 134.605C188.093 135.481 188.402 136.325 188.894 137.077C189.386 137.829 190.05 138.47 190.837 138.954L199.502 140.732C199.502 140.732 205.355 140.206 207.121 131.968C207.605 129.624 208.011 125.208 208.011 125.208Z" fill="white"/>
<path d="M208.011 125.208C208.022 125.325 208.022 125.444 208.011 125.561C208.011 125.821 207.961 126.16 207.933 126.587C207.847 127.479 207.726 128.791 207.484 130.436C207.361 131.345 207.175 132.246 206.929 133.133C206.822 133.626 206.608 134.112 206.437 134.625C206.234 135.149 205.997 135.661 205.725 136.157C205.141 137.259 204.342 138.248 203.369 139.074C202.289 140.004 200.952 140.632 199.51 140.886H199.453L190.788 139.127C189.593 138.382 188.694 137.289 188.231 136.017C187.978 135.362 187.85 134.67 187.854 133.973C187.896 133.302 187.986 132.634 188.125 131.975C188.388 130.643 188.723 129.417 189.064 128.205C189.776 125.774 190.488 123.543 191.25 121.425L191.293 121.292L191.443 121.325L203.547 124.129L206.914 124.928L207.79 125.148C207.89 125.164 207.988 125.191 208.082 125.228C207.969 125.219 207.857 125.201 207.747 125.175L206.836 124.988L203.418 124.262L191.364 121.598L191.556 121.498C190.844 123.576 190.132 125.847 189.42 128.265C189.079 129.47 188.751 130.722 188.495 132.008C188.357 132.649 188.269 133.299 188.231 133.953C188.226 134.609 188.349 135.262 188.595 135.877C189.025 137.07 189.863 138.098 190.98 138.801H190.923L199.588 140.586H199.531C200.904 140.337 202.179 139.743 203.219 138.868C204.17 138.07 204.954 137.115 205.533 136.05C205.797 135.562 206.035 135.062 206.245 134.552C206.416 134.046 206.63 133.573 206.743 133.087C207 132.211 207.2 131.321 207.342 130.423C207.605 128.784 207.762 127.479 207.876 126.593C207.932 126.167 207.975 125.827 208.011 125.574C207.992 125.453 207.992 125.329 208.011 125.208Z" fill="#263238"/>
<path d="M202.87 127.266C202.87 127.266 206.259 127.426 206.067 129.264L208.509 129.55C208.595 128.78 208.365 128.007 207.866 127.389C207.366 126.77 206.634 126.353 205.818 126.22L203.304 125.661" fill="white"/>
<path d="M203.304 125.654C204 125.705 204.689 125.817 205.362 125.987C206.137 126.085 206.872 126.367 207.498 126.806C207.88 127.094 208.188 127.458 208.399 127.872C208.61 128.286 208.718 128.739 208.716 129.197C208.726 129.324 208.726 129.451 208.716 129.577V129.75H208.531L206.088 129.45H205.925V129.297C205.939 129.051 205.879 128.807 205.754 128.59C205.628 128.374 205.441 128.195 205.213 128.072C204.843 127.851 204.44 127.685 204.016 127.579C203.304 127.392 202.863 127.353 202.863 127.313C203.266 127.26 203.676 127.287 204.066 127.392C204.523 127.477 204.961 127.632 205.362 127.852C205.622 127.992 205.842 128.188 206.003 128.425C206.177 128.695 206.257 129.009 206.231 129.324L206.081 129.157L208.523 129.43L208.317 129.577C208.328 129.468 208.328 129.359 208.317 129.251C208.318 128.841 208.224 128.437 208.041 128.065C207.857 127.694 207.59 127.364 207.256 127.099C206.676 126.68 205.997 126.397 205.277 126.274C204.601 126.122 203.941 125.915 203.304 125.654Z" fill="#263238"/>
<path d="M209.741 143.983C209.741 143.983 211.877 136.403 211.934 135.325C211.991 134.246 208.616 128.052 207.363 127.872C206.11 127.692 203.703 127.206 202.87 129.057C202.87 129.057 200.236 128.471 199.531 132.028C199.531 132.028 197.751 132.161 197.544 133.167C197.404 134.443 197.354 135.727 197.395 137.01C197.078 136.856 196.717 136.802 196.365 136.858C196.013 136.913 195.69 137.074 195.444 137.316C194.661 138.188 195.216 139.008 195.771 139.76C196.224 140.334 196.716 140.879 197.245 141.392C197.245 141.392 196.754 145.028 196.989 146.014C197.042 146.289 197.18 146.544 197.386 146.747C197.592 146.949 197.858 147.09 198.15 147.153L209.506 145.374L209.741 143.983Z" fill="#FFBE9D"/>
<path d="M199.531 131.995C199.531 131.961 199.866 131.955 200.328 132.168C200.911 132.466 201.412 132.885 201.795 133.393C202.381 134.055 202.816 134.821 203.077 135.644C202.97 135.704 202.365 134.705 201.503 133.6C201.14 133.132 200.7 132.72 200.2 132.381C199.809 132.134 199.517 132.054 199.531 131.995Z" fill="#EB996E"/>
<path d="M197.936 135.524C198.007 135.458 198.648 136.011 199.189 136.856C199.58 137.332 199.826 137.899 199.901 138.495C199.497 138.049 199.153 137.56 198.876 137.036C198.497 136.571 198.181 136.063 197.936 135.524Z" fill="#EB996E"/>
<path d="M199.517 138.375L197.694 137.089C197.601 137.023 197.509 137.169 197.601 137.229L199.424 138.515C199.517 138.581 199.609 138.435 199.517 138.375Z" fill="#EB996E"/>
<path d="M202.87 129.024C203.841 129.638 204.619 130.481 205.127 131.468C205.412 132.169 205.75 132.85 206.138 133.506C206.466 133.973 206.793 134.172 206.758 134.219C206.722 134.266 206.345 134.126 205.932 133.653C205.466 133.022 205.085 132.34 204.8 131.622C203.931 130.096 202.778 129.104 202.87 129.024Z" fill="#EB996E"/>
<path d="M184.273 131.435C185.239 130.937 186.343 130.723 187.441 130.819C188.539 130.915 189.581 131.318 190.431 131.975C190.567 132.074 190.678 132.199 190.759 132.341C190.81 132.499 190.811 132.668 190.763 132.827C190.715 132.986 190.62 133.129 190.488 133.24C190.08 133.581 189.555 133.774 189.007 133.786C188.466 133.819 187.925 133.786 187.384 133.746C186.198 133.745 185.034 134.051 184.023 134.632" fill="#FFBE9D"/>
<path d="M184.315 131.508C185.091 131.11 185.959 130.895 186.843 130.881C187.728 130.867 188.602 131.055 189.392 131.428C189.793 131.608 190.161 131.846 190.481 132.134C190.994 132.621 190.531 133.22 189.997 133.466C189.064 133.906 187.968 133.62 186.971 133.68C185.911 133.742 184.882 134.044 183.974 134.559C183.874 134.612 183.974 134.758 184.066 134.705C185.137 134.097 186.375 133.796 187.626 133.839C188.594 133.839 189.762 134.019 190.51 133.327C190.657 133.211 190.766 133.059 190.826 132.889C190.887 132.718 190.895 132.536 190.852 132.361C190.723 132.001 190.275 131.741 189.954 131.542C189.166 131.072 188.266 130.793 187.334 130.729C186.247 130.659 185.162 130.891 184.216 131.395C184.116 131.448 184.216 131.595 184.308 131.542L184.315 131.508Z" fill="#EB996E"/>
<path d="M184.55 137.003C185.241 136.286 186.124 135.755 187.109 135.466C188.093 135.177 189.142 135.139 190.147 135.358C190.147 136.077 190.097 136.896 189.492 137.356C189.103 137.571 188.68 137.727 188.239 137.815C187.793 137.971 187.391 138.218 187.062 138.538C186.733 138.859 186.485 139.244 186.338 139.667" fill="#FFBE9D"/>
<path d="M184.614 137.063C185.294 136.358 186.162 135.836 187.13 135.55C188.098 135.264 189.129 135.226 190.118 135.438L190.054 135.358C190.095 135.869 190.007 136.382 189.798 136.856C189.485 137.429 188.851 137.522 188.26 137.709C187.79 137.865 187.365 138.119 187.017 138.453C186.669 138.787 186.407 139.191 186.252 139.634C186.209 139.733 186.387 139.78 186.423 139.674C186.613 139.146 186.965 138.683 187.434 138.342C187.942 138.037 188.5 137.812 189.086 137.676C190.111 137.296 190.232 136.304 190.232 135.391C190.232 135.373 190.225 135.356 190.214 135.342C190.202 135.327 190.186 135.317 190.168 135.311C189.146 135.087 188.079 135.124 187.077 135.417C186.075 135.71 185.176 136.248 184.472 136.976C184.394 137.056 184.522 137.176 184.6 137.096L184.614 137.063Z" fill="#EB996E"/>
<path d="M184.622 127.099C184.622 127.099 187.042 125.967 188.103 126.021C189.164 126.074 191.101 126.533 191.293 127.253C191.427 127.696 191.377 128.17 191.152 128.581C190.928 128.991 190.546 129.306 190.083 129.464C189.237 129.613 188.367 129.588 187.534 129.39L186.11 129.937" fill="#FFBE9D"/>
<path d="M186.124 129.937C186.553 129.67 187.012 129.447 187.491 129.271H187.534C188.305 129.435 189.103 129.455 189.883 129.331C190.109 129.284 190.32 129.19 190.501 129.056C190.682 128.923 190.829 128.752 190.93 128.558C191.155 128.146 191.198 127.668 191.051 127.226C190.778 126.905 190.405 126.672 189.983 126.56C189.571 126.422 189.147 126.318 188.716 126.247C188.34 126.165 187.951 126.151 187.569 126.207C187.23 126.267 186.894 126.347 186.565 126.447C185.348 126.826 184.614 127.113 184.593 127.113C185.169 126.733 185.803 126.437 186.473 126.234C186.81 126.108 187.158 126.008 187.512 125.934C187.716 125.895 187.924 125.877 188.132 125.881C188.345 125.881 188.559 125.921 188.773 125.947C189.225 126.013 189.671 126.116 190.104 126.254C190.336 126.334 190.563 126.43 190.78 126.54C191.032 126.66 191.242 126.845 191.386 127.073C191.488 127.345 191.529 127.635 191.504 127.923C191.479 128.211 191.391 128.491 191.243 128.744C191.115 128.977 190.933 129.18 190.71 129.338C190.487 129.496 190.229 129.605 189.954 129.657C189.127 129.782 188.28 129.73 187.477 129.504H187.548C187.089 129.691 186.612 129.836 186.124 129.937Z" fill="#EB996E"/>
<path d="M195.259 138.794C195.663 139.077 195.994 139.442 196.227 139.86C196.497 140.315 196.628 140.832 196.605 141.352C196.605 141.925 196.476 142.531 196.462 143.157C196.436 144.228 196.711 145.287 197.26 146.227C197.68 146.96 198.064 147.339 198.021 147.379C197.607 147.118 197.267 146.766 197.032 146.353C196.386 145.394 196.059 144.277 196.092 143.143C196.092 142.477 196.249 141.885 196.263 141.345C196.301 140.874 196.208 140.401 195.992 139.973C195.593 139.234 195.202 138.834 195.259 138.794Z" fill="#EB996E"/>
<path d="M204.85 109.144C204.85 109.177 204.6 109.184 204.344 109.464C204.189 109.681 204.089 109.928 204.05 110.186C204.012 110.444 204.037 110.708 204.123 110.956C204.202 111.282 204.351 111.622 204.444 112.054C204.565 112.511 204.515 112.993 204.301 113.42C203.81 114.326 202.792 114.838 202.051 115.578C201.682 115.911 201.446 116.353 201.382 116.83C201.359 117.287 201.449 117.743 201.646 118.162C202.056 118.889 202.383 119.655 202.621 120.446C202.688 120.727 202.688 121.019 202.623 121.301C202.558 121.582 202.429 121.847 202.244 122.078C201.966 122.397 201.71 122.451 201.71 122.431C201.71 122.411 201.909 122.311 202.13 121.998C202.417 121.545 202.502 121.004 202.365 120.493C202.093 119.73 201.747 118.992 201.332 118.288C201.105 117.825 200.998 117.319 201.019 116.81C201.088 116.255 201.357 115.738 201.781 115.345C202.592 114.559 203.568 114.052 203.995 113.287C204.422 112.521 203.995 111.695 203.867 111.016C203.784 110.736 203.775 110.441 203.839 110.157C203.904 109.873 204.04 109.608 204.237 109.384C204.572 109.077 204.864 109.137 204.85 109.144Z" fill="#263238"/>
<path d="M198.961 121.045C198.961 121.045 199.125 120.932 199.31 120.666C199.558 120.28 199.642 119.821 199.545 119.38C199.353 118.72 199.068 118.086 198.698 117.496C198.499 117.105 198.372 116.687 198.321 116.257C198.285 115.782 198.429 115.311 198.726 114.925C199.34 114.285 199.999 113.684 200.699 113.127C200.958 112.877 201.14 112.567 201.225 112.228C201.281 111.926 201.264 111.617 201.176 111.322C201.001 110.856 201.001 110.349 201.176 109.883C201.347 109.557 201.581 109.497 201.581 109.517C201.581 109.537 201.418 109.637 201.311 109.937C201.2 110.381 201.24 110.847 201.425 111.269C201.559 111.62 201.586 112 201.502 112.365C201.418 112.73 201.226 113.065 200.948 113.333C200.378 113.959 199.524 114.419 199.025 115.118C198.77 115.448 198.647 115.851 198.677 116.257C198.72 116.646 198.83 117.026 199.004 117.382C199.374 118.008 199.642 118.681 199.801 119.38C199.84 119.626 199.826 119.876 199.76 120.116C199.694 120.356 199.578 120.582 199.417 120.779C199.182 121.019 198.961 121.065 198.961 121.045Z" fill="#263238"/>
<path d="M230.361 320.299H234.932L253.216 252.594H243.803L230.361 320.299Z" fill="#263238"/>
<path d="M316.762 252.594H236.548H226.281V243.55H316.762V252.594Z" fill="#263238"/>
<path d="M317.353 320.193L312.782 320.233L293.785 252.7L303.191 252.614L317.353 320.193Z" fill="#263238"/>
<path d="M300.115 217.782H307.769C311.493 217.782 314.334 221.312 314.334 224.795V232.268C314.334 232.522 314.28 232.774 314.176 233.009C314.072 233.244 313.919 233.458 313.727 233.638C313.535 233.818 313.306 233.961 313.055 234.058C312.803 234.155 312.534 234.206 312.262 234.206C311.715 234.207 311.189 234.007 310.8 233.647C310.41 233.288 310.189 232.799 310.183 232.287C310.183 230.289 310.183 227.126 310.183 224.748C310.186 224.343 310.103 223.942 309.939 223.567C309.776 223.192 309.534 222.852 309.229 222.564C308.924 222.277 308.561 222.049 308.162 221.894C307.762 221.738 307.333 221.658 306.901 221.658H300.663L300.115 217.782Z" fill="#FF725E"/>
<path d="M276.833 219.78H281.439V221.731C281.439 221.731 275.11 223.063 274.932 230.349C274.754 237.635 274.932 238.794 274.932 238.794C274.932 238.794 275.786 243.39 281.439 243.503C286.075 243.596 297.516 243.536 301.447 243.503C302.879 243.507 304.281 243.116 305.477 242.377C306.124 242.012 306.667 241.504 307.058 240.899C307.448 240.293 307.675 239.607 307.719 238.901C307.84 235.338 307.719 228.105 307.719 228.105C307.719 228.105 307.1 223.197 301.824 221.765V217.422H280.115L276.804 218.821L276.833 219.78Z" fill="white"/>
<path d="M276.833 219.78C276.822 219.705 276.822 219.629 276.833 219.554C276.833 219.374 276.833 219.141 276.833 218.828L280.129 217.389L301.838 217.309H301.988V217.456C301.988 218.788 301.988 220.286 301.988 221.798L301.867 221.651C303.389 222.053 304.755 222.855 305.804 223.962C306.901 225.138 307.624 226.578 307.89 228.118C307.89 230.782 307.89 233.553 307.89 236.423V238.588C307.929 239.348 307.744 240.103 307.356 240.772C306.49 242.1 305.102 243.056 303.49 243.436C302.794 243.616 302.076 243.706 301.354 243.703H281.375L280.435 243.636L279.517 243.47C278.32 243.19 277.235 242.594 276.391 241.751C275.586 240.934 275.026 239.932 274.768 238.848C274.64 236.716 274.711 234.732 274.732 232.854C274.754 230.975 274.732 229.144 275.273 227.526C275.719 226.015 276.613 224.652 277.851 223.596C278.862 222.72 280.083 222.083 281.411 221.738L281.347 221.811C281.347 221.032 281.347 220.419 281.347 219.86L281.418 219.927L277.979 219.893H277.103C277.006 219.9 276.909 219.9 276.811 219.893H277.125H278.022L281.418 219.853H281.489V219.92C281.489 220.479 281.489 221.092 281.489 221.871V221.778H281.418C280.125 222.131 278.939 222.766 277.958 223.629C276.761 224.669 275.902 226.003 275.48 227.479C274.96 229.064 275.024 230.862 274.982 232.754C274.939 234.645 274.91 236.663 275.046 238.748C275.297 239.769 275.829 240.71 276.591 241.478C277.406 242.277 278.453 242.837 279.602 243.09C280.807 243.309 282.037 243.383 283.262 243.31H299.247C300.671 243.31 302.095 243.43 303.397 243.057C304.912 242.704 306.219 241.81 307.036 240.566C307.401 239.945 307.573 239.242 307.534 238.535V236.377C307.534 233.513 307.534 230.742 307.534 228.085C307.278 226.606 306.588 225.222 305.541 224.089C304.535 223.027 303.226 222.255 301.767 221.865L301.653 221.831V221.778C301.653 220.266 301.653 218.794 301.653 217.436L301.81 217.576L280.101 217.502L276.776 218.874V219.58C276.84 219.673 276.833 219.78 276.833 219.78Z" fill="#263238"/>
<path d="M306.253 231.355C306.253 231.355 306.367 234.545 306.253 237.822C306.225 238.424 306.048 239.012 305.735 239.539C305.423 240.066 304.983 240.518 304.451 240.859C303.32 241.646 301.945 242.067 300.535 242.058C296.933 242.058 286.594 242.138 282.393 242.058C281.023 242.095 279.681 241.682 278.603 240.89C277.524 240.098 276.777 238.977 276.491 237.722C276.491 237.722 276.285 238.135 276.455 231.422L306.253 231.355Z" fill="#8E6E68"/>
<path d="M288.467 228.878C285.688 229.108 282.894 229.108 280.115 228.878C282.894 228.647 285.688 228.647 288.467 228.878Z" fill="#455A64"/>
<path d="M288.467 232.9C285.688 233.131 282.894 233.131 280.115 232.9C282.894 232.669 285.688 232.669 288.467 232.9Z" fill="#455A64"/>
<path d="M288.467 236.929C285.688 237.16 282.894 237.16 280.115 236.929C282.894 236.699 285.688 236.699 288.467 236.929Z" fill="#455A64"/>
<path d="M280.115 217.409C280.115 217.409 281.204 214.279 290.389 214.279C299.574 214.279 300.991 217.409 300.991 217.409H280.115Z" fill="#FF725E"/>
<path d="M301.959 219.78C301.959 219.873 297.31 219.953 291.578 219.953C285.847 219.953 281.19 219.873 281.19 219.78C281.19 219.687 285.84 219.607 291.578 219.607C297.317 219.607 301.959 219.66 301.959 219.78Z" fill="#263238"/>
<path d="M301.959 221.778C301.959 221.871 297.31 221.951 291.578 221.951C285.847 221.951 281.19 221.871 281.19 221.778C281.19 221.685 285.84 221.605 291.578 221.605C297.317 221.605 301.959 221.651 301.959 221.778Z" fill="#263238"/>
<path d="M278.449 202.524C278.525 202.501 278.608 202.501 278.684 202.524C278.897 202.595 279.074 202.737 279.182 202.924C279.36 203.221 279.416 203.569 279.339 203.903C279.208 204.331 278.924 204.705 278.534 204.961C278.092 205.262 277.63 205.538 277.153 205.787C276.634 206.041 276.241 206.473 276.057 206.993C275.987 207.278 275.998 207.576 276.091 207.855C276.183 208.135 276.353 208.386 276.584 208.585C277.182 208.937 277.864 209.146 278.57 209.191C278.964 209.253 279.343 209.382 279.688 209.57C279.861 209.677 280.008 209.815 280.122 209.976C280.236 210.137 280.314 210.319 280.35 210.509C280.378 210.86 280.311 211.211 280.155 211.531C279.999 211.851 279.761 212.13 279.46 212.341C278.951 212.691 278.411 212.999 277.844 213.26C277.385 213.491 276.987 213.814 276.676 214.206C276.551 214.361 276.465 214.539 276.422 214.729C276.379 214.919 276.38 215.115 276.427 215.304C276.526 215.583 276.728 215.819 276.996 215.97C277.116 216.033 277.248 216.071 277.384 216.084C277.519 216.097 277.657 216.083 277.787 216.044C277.787 216.044 277.737 216.11 277.587 216.15C277.368 216.21 277.133 216.186 276.932 216.084C276.768 216.011 276.621 215.909 276.498 215.784C276.376 215.658 276.282 215.511 276.22 215.351C276.154 215.133 276.141 214.905 276.18 214.681C276.219 214.458 276.311 214.245 276.448 214.059C276.766 213.622 277.187 213.259 277.68 213C278.223 212.734 278.742 212.426 279.232 212.081C279.482 211.903 279.681 211.67 279.811 211.403C279.942 211.136 280 210.842 279.98 210.549C279.951 210.406 279.892 210.269 279.805 210.147C279.718 210.026 279.605 209.923 279.474 209.843C279.167 209.681 278.832 209.571 278.485 209.517C277.723 209.47 276.988 209.241 276.349 208.851C276.074 208.609 275.873 208.304 275.765 207.966C275.658 207.628 275.648 207.269 275.736 206.926C275.948 206.332 276.401 205.84 276.996 205.554C277.509 205.268 278 205.055 278.42 204.782C278.774 204.563 279.041 204.243 279.182 203.869C279.263 203.58 279.233 203.274 279.097 203.003C279.03 202.886 278.938 202.783 278.826 202.7C278.715 202.618 278.586 202.558 278.449 202.524Z" fill="#263238"/>
<path d="M237.68 243.556H260.136C260.341 243.556 260.543 243.518 260.732 243.445C260.921 243.372 261.092 243.264 261.236 243.129C261.381 242.993 261.495 242.832 261.572 242.655C261.65 242.478 261.689 242.289 261.689 242.098L264.864 240.293L233.287 239.98L236.135 241.944V242.098C236.135 242.482 236.297 242.851 236.587 243.124C236.876 243.397 237.269 243.553 237.68 243.556Z" fill="white"/>
<path d="M237.68 243.556C237.453 243.581 237.223 243.544 237.018 243.45C236.759 243.345 236.535 243.177 236.37 242.963C236.145 242.667 236.034 242.308 236.057 241.944V241.998L233.209 240.06L232.938 239.873H233.273C239.232 239.873 249.115 239.953 260.286 240.066L264.843 240.113H265.484L264.935 240.426L262.386 241.878L262.073 242.058L261.916 242.144L261.838 242.191H261.795C261.831 242.131 261.703 242.337 261.874 242.051C261.869 242.304 261.801 242.553 261.674 242.777C261.554 243 261.379 243.193 261.164 243.342C260.948 243.49 260.699 243.588 260.435 243.629C258.492 243.683 256.719 243.629 254.989 243.629L245.918 243.596L239.873 243.543L238.25 243.51C238.06 243.521 237.87 243.521 237.68 243.51C237.868 243.48 238.059 243.469 238.25 243.476H239.873L245.918 243.423H254.989C256.697 243.423 258.549 243.423 260.378 243.39C260.585 243.353 260.78 243.275 260.949 243.159C261.119 243.044 261.26 242.896 261.361 242.724C261.457 242.544 261.508 242.345 261.511 242.144C261.681 241.858 261.568 242.064 261.603 241.998H261.646L261.724 241.951L261.874 241.865L262.187 241.685L264.736 240.226L264.828 240.546L260.272 240.499C249.1 240.386 239.218 240.259 233.258 240.16L233.322 239.973L236.17 241.971C236.138 242.264 236.202 242.559 236.354 242.817C236.505 243.075 236.737 243.284 237.018 243.416C237.231 243.49 237.454 243.537 237.68 243.556Z" fill="#263238"/>
<path d="M305.569 284.515L241.788 284.342L244.337 279.767H305.569V284.515Z" fill="#263238"/>
<path d="M316.84 252.72C316.84 252.814 296.861 252.894 272.219 252.894C247.577 252.894 227.598 252.814 227.598 252.72C227.598 252.627 247.534 252.547 272.219 252.547C296.904 252.547 316.84 252.627 316.84 252.72Z" fill="#455A64"/>
</svg>
