<svg viewBox="0 0 356 333" fill="none" xmlns="http://www.w3.org/2000/svg">
<path d="M37.2233 84.269C37.2233 84.269 32.9086 87.3459 37.0453 91.4085C37.1173 91.4755 37.2143 91.5137 37.3159 91.5151L75.0519 91.3086C75.0519 91.3086 78.2701 87.932 75.6001 84.0359L37.2233 84.269Z" fill="#EBEBEB"/>
<path d="M66.693 87.4791C66.693 87.5191 62.001 87.5524 56.2053 87.5524C50.4096 87.5524 45.7175 87.5191 45.7175 87.4791C45.7175 87.4392 50.4167 87.4059 56.2053 87.4059C61.9939 87.4059 66.693 87.4392 66.693 87.4791Z" fill="#E0E0E0"/>
<path d="M60.8262 88.7578C60.8262 88.7578 58.619 88.8244 55.8991 88.8244C53.1793 88.8244 50.965 88.7911 50.965 88.7578C50.965 88.7245 53.1722 88.6846 55.8991 88.6846C58.6261 88.6846 60.8262 88.7179 60.8262 88.7578Z" fill="#E0E0E0"/>
<path d="M70.5521 91.1954C70.5521 91.1954 70.6304 90.7891 70.7515 90.1364C70.9019 89.2869 70.9734 88.4268 70.9651 87.5657C70.9581 86.7029 70.8675 85.8424 70.6945 84.9949C70.5663 84.3289 70.4524 83.9493 70.4738 83.9426C70.4951 83.936 70.5236 84.0359 70.5877 84.2157C70.6726 84.4652 70.7439 84.7186 70.8013 84.9749C71.0049 85.8256 71.1123 86.694 71.1217 87.5657C71.1276 88.4354 71.0394 89.3034 70.8583 90.1564C70.7799 90.4827 70.7159 90.7492 70.6518 90.9223C70.6292 91.0164 70.5958 91.108 70.5521 91.1954Z" fill="#E0E0E0"/>
<path d="M73.3359 83.9959C73.4029 84.0727 73.458 84.1579 73.4997 84.249C73.5652 84.3514 73.6223 84.4582 73.6706 84.5687C73.7275 84.6952 73.8059 84.8351 73.8628 85.0016C74.0157 85.3802 74.1348 85.77 74.2188 86.1671C74.319 86.6569 74.3761 87.1537 74.3897 87.6523C74.3885 88.1502 74.3409 88.6472 74.2473 89.1374C74.1707 89.539 74.0564 89.9335 73.9055 90.3163C73.8557 90.4828 73.7774 90.6226 73.7275 90.7492C73.6777 90.8757 73.6136 90.9823 73.5638 91.0688C73.5173 91.1597 73.4625 91.2466 73.4 91.3286C73.4 91.3286 73.5851 90.9356 73.8059 90.283C73.9362 89.9014 74.0385 89.512 74.112 89.1175C74.191 88.6325 74.2315 88.1428 74.2331 87.6523C74.2259 87.1631 74.1759 86.6753 74.0835 86.1937C74.0068 85.8007 73.8997 85.4134 73.7631 85.0349C73.5567 84.3822 73.3359 84.0092 73.3359 83.9959Z" fill="#E0E0E0"/>
<path d="M43.1757 91.242C43.1046 91.1728 43.0446 91.0942 42.9977 91.0089C42.9345 90.9145 42.8774 90.8167 42.8268 90.7159C42.7627 90.596 42.6844 90.4628 42.6203 90.3096C42.4619 89.9504 42.3403 89.578 42.2572 89.1974C42.1574 88.728 42.1073 88.2507 42.1077 87.7721C42.1219 87.2971 42.1839 86.8244 42.2928 86.3602C42.3975 85.9777 42.5406 85.6054 42.72 85.248C42.7912 85.0948 42.8695 84.9616 42.9336 84.8484C42.9886 84.7471 43.0504 84.6492 43.1187 84.5554C43.1702 84.473 43.2324 84.397 43.3038 84.3289C43.3038 84.3289 43.0831 84.6819 42.8197 85.288C42.6669 85.6415 42.5478 86.007 42.4637 86.3802C42.3572 86.8378 42.2976 87.3039 42.2857 87.7721C42.285 88.239 42.3303 88.705 42.4209 89.1641C42.5 89.5376 42.6095 89.905 42.7485 90.263C42.9692 90.8823 43.2041 91.242 43.1757 91.242Z" fill="#E0E0E0"/>
<path d="M39.1031 92.1078C39.0302 92.0224 38.9659 91.931 38.9108 91.8347C38.8362 91.7305 38.7696 91.6214 38.7115 91.5084C38.626 91.3595 38.5499 91.206 38.4836 91.0489C38.3024 90.6463 38.1594 90.2295 38.0564 89.8034C37.9301 89.2806 37.8585 88.7475 37.8428 88.2117C37.8313 87.676 37.8766 87.1406 37.9781 86.6133C38.063 86.1846 38.1869 85.7635 38.3483 85.3546C38.4124 85.1747 38.4907 85.0282 38.5548 84.8884C38.6189 84.7485 38.683 84.6419 38.7399 84.5487C38.7886 84.452 38.8483 84.3604 38.9179 84.2756C38.9179 84.2756 38.7043 84.6886 38.448 85.3879C38.303 85.7968 38.1911 86.2153 38.1134 86.6399C38.0275 87.1599 37.987 87.6856 37.9923 88.2117C38.0075 88.738 38.0742 89.2619 38.1917 89.7768C38.2904 90.1979 38.4213 90.6119 38.5833 91.0155C38.8681 91.7015 39.16 92.0878 39.1031 92.1078Z" fill="#E0E0E0"/>
<path d="M73.6421 102.051V108.804H59.6798V102.051H73.6421Z" fill="#EBEBEB"/>
<path d="M28.5441 105.488C28.5441 105.548 28.5441 105.608 28.5441 105.668C28.6096 106.653 29.0763 107.578 29.8484 108.252C30.6204 108.926 31.6391 109.298 32.695 109.291H74.2829V108.804H64.4218C63.4644 108.804 62.5462 108.449 61.8692 107.815C61.1922 107.182 60.8119 106.323 60.8119 105.428V105.428C60.8119 104.532 61.1922 103.673 61.8692 103.04C62.5462 102.407 63.4644 102.051 64.4218 102.051H74.2972V101.339L32.695 101.465C32.1377 101.467 31.5863 101.573 31.0736 101.777C30.5609 101.982 30.0973 102.28 29.7102 102.655C29.3231 103.031 29.0205 103.474 28.8202 103.961C28.6198 104.447 28.526 104.967 28.5441 105.488V105.488Z" fill="#E0E0E0"/>
<path d="M73.6422 105.521C73.6422 105.561 70.7942 105.588 67.2342 105.588C63.6742 105.588 60.8262 105.588 60.8262 105.521C60.8262 105.454 63.6742 105.448 67.2342 105.448C70.7942 105.448 73.6422 105.481 73.6422 105.521Z" fill="#E0E0E0"/>
<path d="M73.4428 107.04C73.4428 107.08 70.7229 107.113 67.3765 107.113C64.0301 107.113 61.3103 107.08 61.3103 107.04C61.3103 107 64.023 106.966 67.3765 106.966C70.7301 106.966 73.4428 107 73.4428 107.04Z" fill="#E0E0E0"/>
<path d="M73.6421 108.431C73.6421 108.471 71.1999 108.505 68.1882 108.505C65.1764 108.505 62.7343 108.505 62.7343 108.431C62.7343 108.358 65.1764 108.358 68.1882 108.358C71.1999 108.358 73.6421 108.392 73.6421 108.431Z" fill="#E0E0E0"/>
<path d="M73.6422 104.149C73.6422 104.189 70.7942 104.222 67.3624 104.222C63.9305 104.222 61.0825 104.189 61.0825 104.149C61.0825 104.109 63.8949 104.083 67.3624 104.083C70.8298 104.083 73.6422 104.109 73.6422 104.149Z" fill="#E0E0E0"/>
<path d="M73.4428 102.784C73.4428 102.824 70.9366 102.857 67.8536 102.857C64.7706 102.857 62.2644 102.824 62.2644 102.784C62.2644 102.744 64.7635 102.717 67.8536 102.717C70.9437 102.717 73.4428 102.744 73.4428 102.784Z" fill="#E0E0E0"/>
<path d="M33.585 101.578C33.2657 101.887 32.9707 102.216 32.7021 102.564C32.0728 103.416 31.7416 104.43 31.7544 105.465C31.7671 106.5 32.1232 107.507 32.7733 108.345C33.0514 108.687 33.356 109.01 33.6847 109.311C33.5741 109.257 33.4731 109.187 33.3856 109.104C33.1232 108.907 32.8844 108.684 32.6736 108.438C31.9794 107.595 31.597 106.563 31.5842 105.499C31.5714 104.435 31.9287 103.395 32.6024 102.537C32.7987 102.277 33.0256 102.038 33.2788 101.825C33.3684 101.73 33.4714 101.647 33.585 101.578V101.578Z" fill="#F5F5F5"/>
<path d="M32.1825 101.438C31.8705 101.743 31.5848 102.071 31.3281 102.417C30.6981 103.271 30.3673 104.286 30.3813 105.323C30.3954 106.36 30.7536 107.367 31.4064 108.205C31.6796 108.547 31.982 108.868 32.3106 109.164C32.2027 109.106 32.1023 109.037 32.0116 108.958C31.747 108.763 31.508 108.539 31.2996 108.292C30.6065 107.448 30.2242 106.417 30.2101 105.353C30.196 104.29 30.5508 103.25 31.2213 102.391C31.4309 102.13 31.6696 101.892 31.9333 101.678C32.0022 101.586 32.0863 101.506 32.1825 101.438V101.438Z" fill="#F5F5F5"/>
<path d="M60.4346 101.578C60.1178 101.889 59.8229 102.218 59.5517 102.564C58.9223 103.416 58.5912 104.43 58.6039 105.465C58.6167 106.5 58.9727 107.507 59.6229 108.345C59.8963 108.687 60.1962 109.01 60.52 109.311C60.4107 109.255 60.3101 109.185 60.221 109.104C59.9585 108.907 59.7197 108.684 59.509 108.438C58.8191 107.593 58.4394 106.562 58.4266 105.499C58.4138 104.436 58.7684 103.397 59.4378 102.537C59.6472 102.277 59.8859 102.038 60.1498 101.825C60.2349 101.733 60.3303 101.651 60.4346 101.578V101.578Z" fill="#F5F5F5"/>
<path d="M59.032 101.438C58.7114 101.743 58.4162 102.071 58.1491 102.417C57.5161 103.269 57.1828 104.285 57.1956 105.322C57.2083 106.359 57.5665 107.367 58.2203 108.205C58.4869 108.544 58.7796 108.865 59.096 109.164C58.9881 109.106 58.8877 109.037 58.797 108.958C58.534 108.761 58.2952 108.538 58.085 108.292C57.3919 107.448 57.0096 106.417 56.9955 105.353C56.9814 104.29 57.3362 103.25 58.0067 102.391C58.2052 102.132 58.4318 101.893 58.6831 101.678C58.7841 101.58 58.902 101.499 59.032 101.438V101.438Z" fill="#F5F5F5"/>
<path d="M38.3198 106.44L38.277 103.696C38.2911 103.457 38.2572 103.218 38.1774 102.99C38.135 102.876 38.0603 102.775 37.9612 102.698C37.8622 102.62 37.7424 102.569 37.6149 102.551C37.2518 102.397 36.6751 102.684 36.4187 103.077C36.1985 103.489 36.1002 103.949 36.1339 104.409C36.1255 105.134 36.1636 105.859 36.2479 106.58C36.2617 106.925 36.3539 107.263 36.5184 107.572C36.5927 107.732 36.7186 107.866 36.8785 107.955C37.0384 108.044 37.2242 108.084 37.4097 108.07C37.5952 108.055 37.7711 107.986 37.9126 107.873C38.0542 107.76 38.1542 107.608 38.1987 107.439C38.3016 107.115 38.3426 106.777 38.3198 106.44V106.44Z" fill="#F5F5F5"/>
<path d="M54.468 105.648C54.468 105.688 51.4634 105.721 47.7538 105.721C44.0443 105.721 41.0397 105.688 41.0397 105.648C41.0397 105.608 44.0443 105.581 47.7538 105.581C51.4634 105.581 54.468 105.614 54.468 105.648Z" fill="#F5F5F5"/>
<path d="M35.536 101.312L35.4576 94.9117H39.1814L39.3096 101.312H35.536Z" fill="#F5F5F5"/>
<path d="M38.9606 96.0506C38.3873 96.1232 37.8083 96.1477 37.2304 96.1238C36.6525 96.1477 36.0735 96.1232 35.5002 96.0506C36.0735 95.9779 36.6525 95.9534 37.2304 95.9773C37.8083 95.9534 38.3873 95.9779 38.9606 96.0506V96.0506Z" fill="#E0E0E0"/>
<path d="M38.9606 97.0362C38.3873 97.1089 37.8083 97.1334 37.2304 97.1095C36.6525 97.1334 36.0735 97.1089 35.5002 97.0362C36.0739 96.968 36.6527 96.9457 37.2304 96.9696C37.8081 96.9457 38.3869 96.968 38.9606 97.0362V97.0362Z" fill="#E0E0E0"/>
<path d="M38.9606 98.0285C38.3866 98.0928 37.8081 98.115 37.2304 98.0951C36.6527 98.115 36.0742 98.0928 35.5002 98.0285C36.0735 97.9559 36.6525 97.9314 37.2304 97.9553C37.8083 97.9314 38.3873 97.9559 38.9606 98.0285V98.0285Z" fill="#E0E0E0"/>
<path d="M38.9606 99.0142C38.3873 99.0869 37.8083 99.1114 37.2304 99.0875C36.6525 99.1114 36.0735 99.0869 35.5002 99.0142C36.0735 98.9416 36.6525 98.9171 37.2304 98.941C37.8083 98.9171 38.3873 98.9416 38.9606 99.0142V99.0142Z" fill="#E0E0E0"/>
<path d="M38.9606 99.9999C38.3873 100.073 37.8083 100.097 37.2304 100.073C36.6525 100.097 36.0735 100.073 35.5002 99.9999C36.0735 99.9273 36.6525 99.9027 37.2304 99.9266C37.8083 99.9027 38.3873 99.9273 38.9606 99.9999V99.9999Z" fill="#E0E0E0"/>
<path d="M35.2582 94.7452H76.5542C77.0282 97.0282 77.0282 99.3752 76.5542 101.658H35.4362V101.185H37.9424C38.1006 101.19 38.2581 101.165 38.4057 101.111C38.5532 101.057 38.6877 100.977 38.8013 100.874C38.9148 100.77 39.0051 100.647 39.0667 100.511C39.1283 100.374 39.16 100.228 39.1599 100.08V96.2503C39.1599 96.1046 39.1291 95.9603 39.0693 95.8257C39.0095 95.6912 38.9218 95.569 38.8112 95.4662C38.7007 95.3635 38.5696 95.2822 38.4254 95.227C38.2812 95.1718 38.1267 95.1439 37.9709 95.1448H35.2582V94.7452Z" fill="#EBEBEB"/>
<path d="M45.0126 98.2017H45.7246C45.7478 98.195 45.7726 98.195 45.7958 98.2017C45.8195 98.2129 45.8394 98.23 45.8533 98.2512C45.8671 98.2724 45.8743 98.2968 45.8742 98.3216C45.8742 98.3216 45.8742 98.3549 45.8742 98.3682C45.8608 98.4223 45.8442 98.4757 45.8243 98.5281C45.7448 98.8 45.5985 99.0509 45.3971 99.2607C45.3249 99.3432 45.235 99.4107 45.1332 99.4589C45.0315 99.5071 44.9201 99.5348 44.8062 99.5404H44.7278C44.6285 99.5245 44.5344 99.4874 44.4529 99.4319C44.3714 99.3765 44.3047 99.3042 44.2579 99.2207C44.1138 98.9861 44.0423 98.7186 44.0514 98.4481C44.0543 98.2629 44.0855 98.079 44.144 97.902C44.2146 97.625 44.3536 97.3672 44.5498 97.1494C44.6234 97.0597 44.7169 96.9858 44.8238 96.933C44.9307 96.8801 45.0485 96.8494 45.1693 96.8431C45.2609 96.8432 45.3512 96.8637 45.4327 96.903C45.5297 96.9512 45.615 97.0174 45.6836 97.0976C45.7522 97.1777 45.8025 97.2702 45.8314 97.3692C45.839 97.3908 45.839 97.4142 45.8314 97.4358C45.8382 97.4576 45.8382 97.4807 45.8314 97.5024C45.8183 97.5237 45.7998 97.5416 45.7774 97.5544C45.755 97.5672 45.7295 97.5745 45.7033 97.5757H45.6534C45.6309 97.5686 45.6107 97.5563 45.5945 97.5401C45.5783 97.5238 45.5668 97.504 45.5609 97.4824V97.4824C45.5427 97.4269 45.5137 97.375 45.4754 97.3293C45.4526 97.2739 45.4146 97.225 45.3653 97.1876C45.316 97.1503 45.257 97.1256 45.1944 97.1162C45.1317 97.1067 45.0675 97.1128 45.0081 97.1339C44.9487 97.1549 44.8963 97.1901 44.856 97.236C44.6831 97.3693 44.5526 97.5443 44.4786 97.7422C44.3741 97.9719 44.3184 98.2185 44.3149 98.4681C44.3094 98.6651 44.3508 98.8607 44.4359 99.0409C44.4617 99.1108 44.5096 99.1717 44.5731 99.2157C44.6366 99.2597 44.7129 99.2846 44.7919 99.2873C44.8586 99.28 44.9228 99.2596 44.9805 99.2275C45.0382 99.1953 45.0879 99.1522 45.1266 99.1008C45.2871 98.9254 45.4081 98.7216 45.4826 98.5014H44.9842C44.9407 98.4982 44.9 98.4801 44.8698 98.4506C44.8396 98.4212 44.822 98.3824 44.8204 98.3416C44.8204 98.3416 44.8204 98.3416 44.8204 98.295C44.8334 98.2592 44.8607 98.2296 44.8965 98.2123C44.9323 98.1949 44.9739 98.1911 45.0126 98.2017V98.2017Z" fill="#FAFAFA"/>
<path d="M49.662 99.5603H48.416C48.3904 99.5672 48.3633 99.5672 48.3377 99.5603C48.3156 99.5419 48.2979 99.5193 48.2856 99.4941C48.2734 99.4689 48.2668 99.4415 48.2665 99.4138V99.4138C48.2665 99.3672 48.3804 98.5747 48.6082 97.0295C48.6082 97.0295 48.6082 97.0295 48.6082 96.9829C48.6175 96.9566 48.6358 96.9339 48.6603 96.9183C48.6847 96.9026 48.7139 96.8949 48.7435 96.8963H48.8076C48.8331 96.9073 48.8543 96.9253 48.8683 96.948C48.8823 96.9706 48.8885 96.9968 48.8859 97.0229C48.8859 97.1228 48.8859 97.3426 48.8005 97.6889C48.6652 98.7012 48.5869 99.2407 48.5798 99.2939H49.6406C49.6664 99.288 49.6932 99.288 49.719 99.2939C49.7478 99.3016 49.7728 99.3184 49.7897 99.3416C49.8066 99.3647 49.8143 99.3926 49.8115 99.4205C49.815 99.4358 49.815 99.4517 49.8115 99.4671C49.7998 99.4951 49.7792 99.5191 49.7525 99.5358C49.7257 99.5524 49.6941 99.561 49.662 99.5603Z" fill="#FAFAFA"/>
<path d="M53.3431 98.3216C53.4356 98.5747 53.514 98.7678 53.5638 98.901C53.692 99.234 53.756 99.4071 53.756 99.4271C53.7634 99.4511 53.7634 99.4764 53.756 99.5004C53.7426 99.5225 53.7224 99.5403 53.698 99.5514C53.6736 99.5626 53.6462 99.5667 53.6193 99.5631C53.5924 99.5595 53.5673 99.5484 53.5473 99.5313C53.5272 99.5142 53.5131 99.4918 53.5068 99.4671V99.4071C53.4356 99.2673 53.3288 98.9942 53.1722 98.588L52.4602 99.4871C52.4483 99.5092 52.4299 99.5279 52.4073 99.5408C52.3846 99.5537 52.3586 99.5605 52.332 99.5603C52.3063 99.5663 52.2794 99.5663 52.2537 99.5603C52.2314 99.55 52.2127 99.5338 52.2001 99.5137C52.1874 99.4936 52.1813 99.4704 52.1825 99.4471V99.4471C52.2009 99.4052 52.2275 99.3668 52.2608 99.3339C52.4958 99.0475 52.7592 98.7079 53.044 98.3149C53.0116 98.2431 52.983 98.1697 52.9586 98.0951C52.688 97.4291 52.5599 97.0895 52.5599 97.0628C52.5535 97.041 52.5535 97.018 52.5599 96.9962C52.5686 96.9746 52.5842 96.956 52.6046 96.9429C52.6249 96.9298 52.6491 96.9228 52.6738 96.923C52.703 96.9232 52.7316 96.9308 52.7566 96.9448C52.7817 96.9589 52.8022 96.9789 52.8162 97.0029L53.2292 98.0485L54.0622 96.9896C54.0773 96.9712 54.0967 96.9562 54.1189 96.9458C54.1411 96.9354 54.1655 96.9299 54.1904 96.9296C54.2135 96.9225 54.2384 96.9225 54.2616 96.9296C54.2851 96.9422 54.3042 96.9608 54.3169 96.9832C54.3295 97.0056 54.335 97.0309 54.3328 97.0562C54.3354 97.0761 54.3354 97.0962 54.3328 97.1161L53.3431 98.3216Z" fill="#FAFAFA"/>
<path d="M56.4188 96.8897C56.4422 96.884 56.4667 96.884 56.49 96.8897C56.5128 96.9019 56.5319 96.9193 56.5455 96.9403C56.5592 96.9612 56.5671 96.9851 56.5683 97.0096C56.3595 98.5147 56.2456 99.3273 56.2266 99.4471C56.1929 99.6744 56.1027 99.8911 55.9631 100.08C55.8704 100.203 55.7462 100.302 55.6019 100.368C55.4576 100.434 55.2978 100.466 55.1372 100.459C54.9992 100.452 54.8638 100.421 54.7385 100.366C54.5518 100.296 54.3979 100.166 54.3042 99.9999C54.297 99.9782 54.297 99.955 54.3042 99.9333C54.2978 99.9115 54.2978 99.8885 54.3042 99.8667C54.3164 99.8453 54.3351 99.8276 54.3578 99.8158C54.3805 99.8039 54.4064 99.7985 54.4323 99.8001C54.4544 99.8006 54.476 99.8056 54.4957 99.8148C54.5154 99.824 54.5326 99.8372 54.5463 99.8534C54.6153 99.9531 54.7089 100.036 54.8191 100.095C54.9293 100.154 55.053 100.188 55.1799 100.193C55.2764 100.192 55.3714 100.17 55.4577 100.13C55.5439 100.089 55.6194 100.031 55.6783 99.9599C55.8482 99.7482 55.9429 99.492 55.9489 99.2274C55.903 99.2978 55.8424 99.3589 55.7709 99.4072C55.6428 99.5002 55.4845 99.5496 55.3223 99.547H55.2369C55.1376 99.5311 55.0435 99.494 54.962 99.4386C54.8805 99.3831 54.8137 99.3109 54.767 99.2274C54.6188 98.9943 54.547 98.7257 54.5605 98.4548C54.5605 98.3127 54.5605 98.1662 54.5605 98.0152C54.5605 97.7821 54.6388 97.4491 54.7243 97.0162C54.7243 97.0162 54.7243 97.0162 54.7243 96.9763C54.7323 96.9487 54.75 96.9246 54.7745 96.9076C54.7991 96.8907 54.8291 96.882 54.8595 96.883C54.8829 96.8771 54.9074 96.8771 54.9307 96.883C54.9532 96.8914 54.9721 96.9063 54.9849 96.9255C54.9977 96.9446 55.0037 96.9671 55.0019 96.9896C55.0019 97.0629 55.0019 97.236 54.9379 97.5224C54.8893 97.7914 54.856 98.0626 54.8382 98.3349C54.829 98.5487 54.8678 98.762 54.9521 98.9609C55.0304 99.1541 55.1586 99.2473 55.3152 99.2473H55.3651C55.5239 99.2017 55.6586 99.1018 55.7424 98.9676C55.8901 98.7665 55.9941 98.5402 56.0486 98.3016L56.2337 96.9696C56.2307 96.9497 56.2307 96.9295 56.2337 96.9097C56.2442 96.8966 56.2573 96.8857 56.2725 96.8775C56.2876 96.8694 56.3043 96.8642 56.3217 96.8624C56.339 96.8605 56.3565 96.862 56.3733 96.8667C56.39 96.8714 56.4055 96.8792 56.4188 96.8897V96.8897Z" fill="#FAFAFA"/>
<path d="M74.9735 101.751C74.9308 101.751 74.9023 100.16 74.9023 98.2017C74.9023 96.2437 74.9023 94.6519 74.9735 94.6519C75.0447 94.6519 75.0519 96.2437 75.0519 98.2017C75.0519 100.16 75.0163 101.751 74.9735 101.751Z" fill="#F5F5F5"/>
<path d="M41.2034 101.751C41.1607 101.751 41.1322 100.16 41.1322 98.2017C41.1322 96.2437 41.1322 94.6519 41.2034 94.6519C41.2746 94.6519 41.2817 96.2437 41.2817 98.2017C41.2817 100.16 41.2461 101.751 41.2034 101.751Z" fill="#E0E0E0"/>
<path d="M75.6999 101.751C75.6572 101.751 75.6216 100.16 75.6216 98.2017C75.6216 96.2437 75.6572 94.6519 75.6999 94.6519C75.7426 94.6519 75.7782 96.2437 75.7782 98.2017C75.7782 100.16 75.7426 101.751 75.6999 101.751Z" fill="#F5F5F5"/>
<path d="M40.527 101.751C40.4843 101.751 40.4558 100.16 40.4558 98.2017C40.4558 96.2437 40.4558 94.6519 40.527 94.6519C40.5982 94.6519 40.6053 96.2437 40.6053 98.2017C40.6053 100.16 40.584 101.751 40.527 101.751Z" fill="#E0E0E0"/>
<path d="M64.97 95.8241L69.3346 99.1142H69.2847L68.708 99.2607L65.027 100.16L61.6948 98.8278L60.7479 98.4548L60.4987 98.3483H60.4346H60.4987L60.755 98.4482L61.7019 98.8145L65.0483 100.146L68.7223 99.234L69.299 99.0875V99.1341L64.9487 95.8041" fill="#E0E0E0"/>
<path d="M68.9287 98.588L69.1708 98.7945L69.484 98.7345L69.3488 99.0076L69.5125 99.274L69.185 99.234L68.9714 99.4605L68.9073 99.1608L68.6083 99.0409L68.9002 98.8944L68.9287 98.588Z" fill="#E0E0E0"/>
<path d="M64.7493 99.8867L64.9059 100.013L65.1124 99.96L65.034 100.14L65.148 100.306L64.9415 100.293L64.8062 100.446L64.7564 100.26L64.557 100.186L64.735 100.087L64.7493 99.8867Z" fill="#E0E0E0"/>
<path d="M60.1213 98.1151L60.3848 98.1284L60.5414 97.9353L60.6055 98.1751L60.8547 98.255L60.634 98.3815L60.6197 98.6279L60.4204 98.4748L60.1712 98.5414L60.2709 98.3149L60.1213 98.1151Z" fill="#E0E0E0"/>
<path d="M70.8867 95.8707L71.143 95.8907L71.3068 95.6976L71.3709 95.9307L71.613 96.0173L71.3922 96.1438L71.3851 96.3902L71.1858 96.237L70.9366 96.3036L71.0291 96.0772L70.8867 95.8707Z" fill="#E0E0E0"/>
<path d="M64.7563 95.7175L64.9201 95.7242L65.0269 95.6043L65.0696 95.7508L65.2192 95.8041L65.0839 95.8907L65.0768 96.0439L64.9486 95.944L64.792 95.9906L64.8489 95.8441L64.7563 95.7175Z" fill="#E0E0E0"/>
<path d="M71.2498 96.0439C71.2498 96.0439 69.8258 96.0439 68.0956 95.944C66.3655 95.8441 64.9486 95.8041 64.9486 95.7908C64.9486 95.7775 66.3726 95.7908 68.1028 95.8907C69.8329 95.9906 71.2498 96.0306 71.2498 96.0439Z" fill="#E0E0E0"/>
<path d="M72.8304 94.6852H30.9791C30.4308 93.5197 30.2671 92.4142 30.9791 91.4218H72.8304C73.0928 91.9307 73.2291 92.4885 73.2291 93.0535C73.2291 93.6185 73.0928 94.1763 72.8304 94.6852V94.6852Z" fill="#E0E0E0"/>
<path d="M62.3214 92.3542H39.6442V93.5397H62.3214V92.3542Z" fill="#EBEBEB"/>
<path d="M32.5883 94.6986C32.5883 94.6986 32.4245 94.5787 32.2536 94.3056C32.0411 93.9489 31.9125 93.5538 31.8763 93.1468C31.8383 92.7413 31.8916 92.3329 32.0329 91.948C32.0805 91.7848 32.1683 91.6343 32.2892 91.5084C32.2489 91.6685 32.199 91.8264 32.1397 91.9813C32.0293 92.3583 31.9907 92.7506 32.0258 93.1401C32.0616 93.5286 32.1725 93.9077 32.3533 94.259C32.4405 94.4012 32.519 94.548 32.5883 94.6986Z" fill="#E0E0E0"/>
<path d="M33.464 94.6986C33.464 94.6986 33.3002 94.5787 33.1365 94.3056C32.9181 93.9508 32.7868 93.5549 32.752 93.1468C32.714 92.7413 32.7674 92.3329 32.9086 91.948C32.9596 91.7861 33.047 91.6362 33.1649 91.5084C33.1246 91.6685 33.0747 91.8264 33.0154 91.9813C32.905 92.3583 32.8665 92.7506 32.9015 93.1401C32.9373 93.5286 33.0483 93.9077 33.229 94.259C33.3162 94.4012 33.3947 94.548 33.464 94.6986Z" fill="#E0E0E0"/>
<path d="M71.1431 94.6253C71.3057 94.107 71.4037 93.5729 71.435 93.0335C71.416 92.4918 71.3227 91.9546 71.1573 91.4351C71.468 91.9157 71.6169 92.4727 71.5845 93.0335C71.6036 93.5927 71.4504 94.1453 71.1431 94.6253V94.6253Z" fill="#F5F5F5"/>
<path d="M70.3599 94.6187C70.3172 94.6187 70.4952 93.9527 70.4881 93.0536C70.481 92.1545 70.3101 91.5084 70.3599 91.4951C70.5708 91.99 70.6655 92.5215 70.6376 93.0536C70.6648 93.5878 70.5701 94.1213 70.3599 94.6187V94.6187Z" fill="#F5F5F5"/>
<path d="M107.45 46.1353L92.5481 46.2107L92.6336 60.9957L107.536 60.9203L107.45 46.1353Z" fill="#EBEBEB"/>
<path d="M122.508 45.5291L107.606 45.6685L107.764 60.4537L122.666 60.3143L122.508 45.5291Z" fill="#F5F5F5"/>
<path d="M92.56 50.2963C102.464 50.3763 112.396 50.2963 122.293 50.1698C122.335 50.1698 122.374 50.1544 122.404 50.1269C122.433 50.0994 122.45 50.0621 122.45 50.0233C122.45 49.9844 122.433 49.9471 122.404 49.9197C122.374 49.8922 122.335 49.8768 122.293 49.8768C112.392 49.8235 102.48 49.879 92.56 50.0433C92.5241 50.0433 92.4897 50.0566 92.4643 50.0803C92.4389 50.104 92.4247 50.1362 92.4247 50.1698C92.4247 50.2034 92.4389 50.2355 92.4643 50.2593C92.4897 50.283 92.5241 50.2963 92.56 50.2963Z" fill="#E0E0E0"/>
<path d="M110.332 60.6726L83.2554 60.8096L83.3251 72.8574L110.402 72.7204L110.332 60.6726Z" fill="#EBEBEB"/>
<path d="M137.288 60.5362L110.211 60.6732L110.28 72.721L137.357 72.584L137.288 60.5362Z" fill="#F5F5F5"/>
<path d="M83.304 64.1691C101.289 64.3556 119.338 64.1691 137.323 63.916C137.365 63.916 137.405 63.9006 137.434 63.8731C137.464 63.8456 137.48 63.8084 137.48 63.7695C137.48 63.7306 137.464 63.6934 137.434 63.6659C137.405 63.6384 137.365 63.623 137.323 63.623C119.338 63.5364 101.282 63.5431 83.2969 63.916C83.261 63.916 83.2266 63.9294 83.2012 63.9531C83.1759 63.9768 83.1616 64.009 83.1616 64.0426C83.1616 64.0761 83.1759 64.1083 83.2012 64.132C83.2266 64.1558 83.261 64.1691 83.2969 64.1691H83.304Z" fill="#E0E0E0"/>
<path d="M85.8998 128.887L58.8229 129.024L58.8926 141.072L85.9695 140.935L85.8998 128.887Z" fill="#EBEBEB"/>
<path d="M112.848 128.744L85.7709 128.881L85.8406 140.929L112.918 140.792L112.848 128.744Z" fill="#F5F5F5"/>
<path d="M58.8325 132.374C76.8176 132.567 94.8668 132.374 112.859 132.128C112.896 132.12 112.929 132.102 112.952 132.074C112.976 132.047 112.989 132.013 112.989 131.978C112.989 131.943 112.976 131.909 112.952 131.881C112.929 131.854 112.896 131.835 112.859 131.828C94.8739 131.741 76.8247 131.748 58.8396 132.121C58.8037 132.121 58.7693 132.134 58.744 132.158C58.7186 132.182 58.7043 132.214 58.7043 132.248C58.7043 132.281 58.7186 132.313 58.744 132.337C58.7693 132.361 58.8037 132.374 58.8396 132.374H58.8325Z" fill="#E0E0E0"/>
<path d="M49.5432 41.1068L42.7152 41.1414L42.8991 72.9291L49.7271 72.8946L49.5432 41.1068Z" fill="#E0E0E0"/>
<path d="M56.2101 29.2516L49.3821 29.2861L49.635 73.0084L56.463 72.9738L56.2101 29.2516Z" fill="#EBEBEB"/>
<path d="M66.8942 37.396L56.2784 37.4497L56.4834 72.8804L67.0991 72.8267L66.8942 37.396Z" fill="#F5F5F5"/>
<path d="M66.8142 44.2224C65.052 44.3893 63.2799 44.4449 61.5098 44.3889C59.7373 44.445 57.9627 44.3894 56.1982 44.2224C57.9621 44.0471 59.7371 43.9892 61.5098 44.0493C63.28 43.9893 65.0526 44.0472 66.8142 44.2224V44.2224Z" fill="#E0E0E0"/>
<path d="M66.8142 42.7306C65.0523 42.9018 63.28 42.9597 61.5098 42.9037C59.7371 42.9598 57.9624 42.9019 56.1982 42.7306C57.9624 42.5592 59.7371 42.5013 61.5098 42.5574C63.28 42.5015 65.0523 42.5593 66.8142 42.7306V42.7306Z" fill="#E0E0E0"/>
<path d="M66.8142 67.4924C65.0526 67.6677 63.28 67.7256 61.5098 67.6656C59.7371 67.7257 57.9621 67.6678 56.1982 67.4924C57.9624 67.3211 59.7371 67.2632 61.5098 67.3193C63.28 67.2633 65.0523 67.3212 66.8142 67.4924V67.4924Z" fill="#E0E0E0"/>
<path d="M66.8142 66.0073C65.0523 66.1785 63.28 66.2364 61.5098 66.1804C59.7371 66.2365 57.9624 66.1786 56.1982 66.0073C57.9624 65.8359 59.7371 65.7781 61.5098 65.8341C63.28 65.7782 65.0523 65.836 66.8142 66.0073V66.0073Z" fill="#E0E0E0"/>
<path d="M61.6805 62.7572C61.5737 62.7572 61.4954 59.1808 61.4954 54.7652C61.4954 50.3496 61.5737 46.7732 61.6805 46.7732C61.7873 46.7732 61.8585 50.343 61.8585 54.7652C61.8585 59.1874 61.7802 62.7572 61.6805 62.7572Z" fill="#E0E0E0"/>
<path d="M78.4766 46.0939H66.928V72.8404H78.4766V46.0939Z" fill="#EBEBEB"/>
<path d="M54.6602 36.7166C54.6616 37.0801 54.5477 37.4359 54.333 37.7389C54.1182 38.0419 53.8122 38.2786 53.4537 38.4189C53.0952 38.5593 52.7002 38.597 52.3187 38.5274C51.9372 38.4577 51.5864 38.2839 51.3106 38.0277C51.0348 37.7716 50.8463 37.4447 50.7691 37.0884C50.6919 36.7321 50.7294 36.3623 50.8769 36.026C51.0243 35.6896 51.275 35.4017 51.5974 35.1986C51.9198 34.9955 52.2993 34.8864 52.688 34.8851C52.9463 34.8833 53.2024 34.9294 53.4416 35.0207C53.6808 35.1119 53.8984 35.2465 54.0817 35.4168C54.265 35.587 54.4105 35.7895 54.5098 36.0126C54.6091 36.2357 54.6602 36.4749 54.6602 36.7166V36.7166Z" fill="#E0E0E0"/>
<path d="M53.3004 41.7715H52.09V67.7788H53.3004V41.7715Z" fill="#E0E0E0"/>
<path d="M143.938 109.51H23.6882V113.36H143.938V109.51Z" fill="#E0E0E0"/>
<path d="M143.938 73.0135H23.6882V76.863H143.938V73.0135Z" fill="#E0E0E0"/>
<path d="M143.938 141.092H48.2308V144.722H143.938V141.092Z" fill="#E0E0E0"/>
<path d="M83.8095 76.1038H79.2242V112.414H83.8095V76.1038Z" fill="#E0E0E0"/>
<path d="M52.8375 109.51H48.2522V144.708H52.8375V109.51Z" fill="#E0E0E0"/>
<path d="M106.8 93.0069L103.952 96.7964C103.952 96.7964 110.296 98.4415 110.296 103.716C110.296 108.991 106.415 109.977 102.193 109.977C97.9711 109.977 93.9127 108.824 94.0836 103.55C94.2545 98.275 99.5446 96.2969 99.5446 96.2969L96.9031 93.0069H106.8Z" fill="#F5F5F5"/>
<path d="M297.951 228.691H170.659V283.603H297.951V228.691Z" fill="#F5F5F5"/>
<path d="M294.917 281.012H173.571V231.582H294.917V281.012ZM174.362 280.273H294.127V232.321H174.362V280.273Z" fill="#E0E0E0"/>
<path d="M329.051 228.691H297.951V283.603H329.051V228.691Z" fill="#E0E0E0"/>
<path d="M173.963 246.88H294.526C294.563 246.872 294.596 246.853 294.619 246.826C294.643 246.799 294.656 246.765 294.656 246.73C294.656 246.695 294.643 246.661 294.619 246.633C294.596 246.606 294.563 246.587 294.526 246.58H173.963C173.926 246.587 173.893 246.606 173.87 246.633C173.846 246.661 173.833 246.695 173.833 246.73C173.833 246.765 173.846 246.799 173.87 246.826C173.893 246.853 173.926 246.872 173.963 246.88V246.88Z" fill="#E0E0E0"/>
<path d="M234.64 246.726C234.974 241.761 234.988 236.782 234.682 231.815C234.682 231.774 234.665 231.735 234.634 231.706C234.604 231.678 234.562 231.661 234.519 231.661C234.475 231.661 234.433 231.678 234.403 231.706C234.372 231.735 234.355 231.774 234.355 231.815C234.049 236.782 234.063 241.761 234.398 246.726C234.398 246.756 234.41 246.785 234.433 246.806C234.456 246.828 234.486 246.84 234.519 246.84C234.551 246.84 234.581 246.828 234.604 246.806C234.627 246.785 234.64 246.756 234.64 246.726Z" fill="#E0E0E0"/>
<path d="M267.085 239.274C267.085 239.578 266.989 239.876 266.808 240.129C266.627 240.382 266.369 240.58 266.069 240.696C265.768 240.812 265.436 240.842 265.117 240.782C264.798 240.722 264.505 240.575 264.275 240.359C264.045 240.143 263.889 239.869 263.827 239.57C263.764 239.271 263.798 238.961 263.923 238.68C264.049 238.399 264.261 238.16 264.532 237.991C264.804 237.823 265.122 237.734 265.448 237.735C265.664 237.735 265.877 237.775 266.076 237.853C266.275 237.93 266.456 238.043 266.608 238.186C266.761 238.329 266.881 238.499 266.963 238.686C267.045 238.872 267.086 239.072 267.085 239.274V239.274Z" fill="#E0E0E0"/>
<path d="M203.817 239.274C203.823 239.581 203.73 239.882 203.551 240.139C203.372 240.396 203.115 240.598 202.813 240.717C202.511 240.837 202.178 240.869 201.856 240.81C201.534 240.751 201.239 240.603 201.007 240.386C200.776 240.168 200.619 239.891 200.557 239.59C200.496 239.288 200.532 238.977 200.661 238.695C200.79 238.413 201.006 238.173 201.282 238.007C201.558 237.841 201.88 237.755 202.208 237.762C202.634 237.769 203.04 237.931 203.34 238.213C203.641 238.495 203.812 238.876 203.817 239.274V239.274Z" fill="#E0E0E0"/>
<path d="M235.886 256.297C235.886 256.601 235.789 256.899 235.608 257.152C235.427 257.405 235.17 257.602 234.869 257.719C234.568 257.835 234.237 257.865 233.917 257.805C233.598 257.745 233.305 257.598 233.075 257.382C232.846 257.166 232.69 256.892 232.627 256.593C232.564 256.294 232.598 255.984 232.723 255.703C232.849 255.422 233.061 255.183 233.332 255.014C233.604 254.846 233.922 254.757 234.248 254.758C234.683 254.76 235.1 254.923 235.406 255.211C235.713 255.5 235.886 255.89 235.886 256.297V256.297Z" fill="#E0E0E0"/>
<path d="M185.875 283.603L179.324 318.082H183.005L195.088 283.603H185.875Z" fill="#E0E0E0"/>
<path d="M288.944 283.603L294.426 318.142H290.738L279.73 283.603H288.944Z" fill="#E0E0E0"/>
<path d="M313.551 283.603L319.759 318.142H316.071L304.337 283.603H313.551Z" fill="#E0E0E0"/>
<path d="M235.779 271.841C235.779 272.146 235.682 272.443 235.502 272.696C235.321 272.949 235.064 273.146 234.764 273.263C234.463 273.379 234.132 273.409 233.813 273.35C233.494 273.291 233.201 273.144 232.971 272.929C232.741 272.714 232.584 272.44 232.521 272.141C232.458 271.843 232.49 271.534 232.615 271.252C232.739 270.971 232.95 270.731 233.22 270.562C233.491 270.393 233.809 270.303 234.134 270.303C234.57 270.303 234.989 270.465 235.297 270.753C235.606 271.042 235.779 271.433 235.779 271.841V271.841Z" fill="#E0E0E0"/>
<path d="M173.963 263.883H294.526C294.563 263.875 294.596 263.856 294.619 263.829C294.643 263.802 294.656 263.768 294.656 263.733C294.656 263.698 294.643 263.664 294.619 263.636C294.596 263.609 294.563 263.59 294.526 263.583H173.963C173.926 263.59 173.893 263.609 173.87 263.636C173.846 263.664 173.833 263.698 173.833 263.733C173.833 263.768 173.846 263.802 173.87 263.829C173.893 263.856 173.926 263.875 173.963 263.883Z" fill="#E0E0E0"/>
<path d="M259.517 210.041L259.476 202.715L220.985 202.904L221.026 210.23L259.517 210.041Z" fill="#E0E0E0"/>
<path d="M264.14 228.531L264.077 217.143L221.179 217.353L221.243 228.742L264.14 228.531Z" fill="#F5F5F5"/>
<path d="M255.893 228.438C255.772 228.438 255.679 225.887 255.679 222.744C255.679 219.6 255.772 217.049 255.893 217.049C256.099 218.941 256.168 220.843 256.099 222.744C256.168 224.644 256.099 226.546 255.893 228.438V228.438Z" fill="#E0E0E0"/>
<path d="M257.694 228.438C257.483 226.547 257.412 224.644 257.481 222.744C257.412 220.843 257.483 218.941 257.694 217.049C257.9 218.941 257.969 220.843 257.901 222.744C257.969 224.644 257.9 226.546 257.694 228.438V228.438Z" fill="#E0E0E0"/>
<path d="M227.712 228.438C227.506 226.546 227.437 224.644 227.505 222.744C227.437 220.843 227.506 218.941 227.712 217.049C227.918 218.941 227.987 220.843 227.918 222.744C227.987 224.644 227.918 226.546 227.712 228.438V228.438Z" fill="#E0E0E0"/>
<path d="M229.513 228.438C229.307 226.546 229.238 224.644 229.307 222.744C229.238 220.843 229.307 218.941 229.513 217.049C229.719 218.941 229.788 220.843 229.72 222.744C229.788 224.644 229.719 226.546 229.513 228.438V228.438Z" fill="#E0E0E0"/>
<path d="M233.443 222.95C233.443 222.837 237.772 222.75 243.112 222.75C248.452 222.75 252.774 222.837 252.774 222.95C252.774 223.063 248.452 223.143 243.112 223.143C237.772 223.143 233.443 223.057 233.443 222.95Z" fill="#E0E0E0"/>
<path d="M280.25 217.076L280.208 209.75L227.279 210.009L227.32 217.335L280.25 217.076Z" fill="#EBEBEB"/>
<path d="M272.696 216.177C272.194 216.185 271.701 216.053 271.279 215.798C270.857 215.543 270.525 215.177 270.326 214.746C270.127 214.315 270.07 213.838 270.161 213.376C270.252 212.914 270.488 212.488 270.838 212.151C271.189 211.815 271.639 211.583 272.13 211.486C272.621 211.389 273.132 211.431 273.598 211.606C274.064 211.781 274.464 212.082 274.747 212.47C275.03 212.858 275.184 213.316 275.188 213.786C275.194 214.096 275.134 214.405 275.011 214.693C274.889 214.982 274.706 215.245 274.475 215.467C274.243 215.69 273.966 215.867 273.661 215.988C273.356 216.11 273.028 216.174 272.696 216.177V216.177Z" fill="#E0E0E0"/>
<path d="M265.804 214.539V213.073H230.368V214.539H265.804Z" fill="#E0E0E0"/>
<path d="M299.296 103.576H238.983V162.384H299.296V103.576Z" fill="#E0E0E0"/>
<path d="M295.217 103.576H234.903V162.384H295.217V103.576Z" fill="#FAFAFA"/>
<path d="M295.231 162.397H234.882V103.556H295.231V162.397ZM234.917 162.364H295.195V103.59H234.917V162.364Z" fill="#E0E0E0"/>
<path d="M287.1 111.482H243.006V154.479H287.1V111.482Z" fill="white"/>
<path d="M243.006 154.765C242.691 155.195 242.326 155.591 241.916 155.944C241.204 156.61 240.229 157.582 239.118 158.608C238.007 159.634 236.982 160.546 236.27 161.192C235.886 161.566 235.459 161.899 234.996 162.184C235.304 161.752 235.667 161.356 236.078 161.006C236.79 160.306 237.772 159.367 238.926 158.341C240.079 157.316 241.062 156.403 241.774 155.757C242.141 155.382 242.554 155.049 243.006 154.765V154.765Z" fill="#E0E0E0"/>
<path d="M287.1 154.659C287.565 154.949 287.99 155.291 288.367 155.677C289.115 156.343 290.119 157.256 291.215 158.295C292.312 159.334 293.287 160.293 293.978 160.959C294.38 161.316 294.736 161.716 295.039 162.151C294.576 161.874 294.15 161.545 293.771 161.172C293.024 160.506 292.02 159.587 290.923 158.541C289.827 157.496 288.851 156.543 288.161 155.844C287.762 155.486 287.406 155.089 287.1 154.659V154.659Z" fill="#E0E0E0"/>
<path d="M286.986 111.595C287.295 111.161 287.658 110.763 288.068 110.409C288.78 109.743 289.763 108.778 290.873 107.745C291.984 106.713 293.009 105.814 293.757 105.168C294.134 104.787 294.563 104.454 295.031 104.176C294.719 104.605 294.356 105.001 293.949 105.355C293.237 106.021 292.248 106.993 291.101 108.019C289.955 109.044 288.965 109.957 288.253 110.603C287.873 110.978 287.448 111.311 286.986 111.595Z" fill="#E0E0E0"/>
<path d="M242.885 111.702C242.423 111.409 242 111.067 241.624 110.683C240.877 110.017 239.873 109.097 238.776 108.059C237.68 107.02 236.711 106.061 236.021 105.395C235.621 105.036 235.265 104.636 234.96 104.202C235.425 104.488 235.848 104.828 236.22 105.215C236.932 105.881 237.972 106.8 239.068 107.839C240.165 108.878 241.14 109.837 241.831 110.543C242.232 110.887 242.586 111.276 242.885 111.702V111.702Z" fill="#E0E0E0"/>
<path d="M286.986 154.512C286.98 154.441 286.98 154.37 286.986 154.299C286.986 154.152 286.986 153.959 286.986 153.7C286.986 153.158 286.986 152.385 286.986 151.382C286.986 149.344 286.986 146.38 286.943 142.617C286.943 135.085 286.893 124.356 286.858 111.515L287.028 111.675H243.055L243.255 111.495C243.255 127.273 243.255 142.038 243.255 154.492L243.084 154.332L274.924 154.412L283.867 154.452H286.238H286.85H287.064H286.224H283.889L274.981 154.492L243.034 154.572H242.87V154.512C242.87 142.058 242.87 127.293 242.87 111.515V111.329H243.07H287.043H287.214V111.488C287.178 124.376 287.15 135.138 287.128 142.691C287.128 146.44 287.093 149.391 287.085 151.422C287.085 152.414 287.085 153.18 287.085 153.706C287.085 153.959 287.085 154.152 287.085 154.292C287.085 154.432 286.986 154.512 286.986 154.512Z" fill="#E0E0E0"/>
<path d="M272.418 126.094H257.701V139.86H272.418V126.094Z" fill="#EBEBEB"/>
<path d="M164.394 68.8378C160.424 71.2057 155.802 72.4393 151.093 72.3876C149.605 72.3021 148.112 72.2865 146.622 72.3409C145.122 72.3988 143.684 72.9212 142.535 73.8261C141.971 74.2872 141.569 74.8969 141.381 75.5753C141.193 76.2538 141.228 76.9695 141.481 77.629C142.322 79.4272 145.041 80.1398 145.454 82.0645C145.753 83.4498 144.65 84.7685 143.404 85.5744C142.158 86.3802 140.705 86.9064 139.659 87.932C139.027 88.5459 138.581 89.3057 138.366 90.1337C138.15 90.9616 138.174 91.8282 138.434 92.6449C138.694 93.4616 139.181 94.1991 139.845 94.7822C140.509 95.3653 141.327 95.7731 142.215 95.964C143.276 96.1971 144.579 96.2037 145.155 97.0695C145.461 97.7271 145.517 98.463 145.312 99.1541C145.032 100.638 145.243 102.167 145.917 103.536C146.264 104.214 146.805 104.789 147.48 105.197C148.155 105.605 148.937 105.83 149.741 105.847C150.367 105.847 150.98 105.648 151.606 105.661C151.919 105.643 152.23 105.714 152.498 105.865C152.766 106.016 152.979 106.24 153.108 106.507C153.175 106.906 153.155 107.313 153.051 107.706C152.824 109.67 154.917 111.209 156.946 111.768C160.997 112.9 165.49 111.808 168.936 109.477C172.382 107.146 174.739 103.696 176.341 100.033C177.943 96.3702 178.805 92.4808 179.659 88.6046" fill="#263238"/>
<path d="M209.648 166.8C209.194 165.75 208.513 164.8 207.648 164.009C202.286 158.681 194.162 156.117 186.352 156.537C178.541 156.956 171.058 160.133 164.992 164.735C161.752 167.193 157.38 171.928 156.241 175.684C160.997 176.756 168.103 175.265 172.617 173.433C177.131 171.602 181.546 169.39 186.409 168.924C192.048 168.385 197.587 170.256 203.141 171.315C204.251 171.568 205.398 171.654 206.537 171.568C207.106 171.521 207.658 171.361 208.156 171.099C208.655 170.837 209.088 170.48 209.428 170.05C209.726 169.559 209.901 169.012 209.94 168.449C209.978 167.885 209.878 167.321 209.648 166.8V166.8Z" fill="#FF725E"/>
<g opacity="0.3">
<path opacity="0.3" d="M209.648 166.8C209.194 165.75 208.513 164.8 207.648 164.009C202.286 158.681 194.162 156.117 186.352 156.537C178.541 156.956 171.058 160.133 164.992 164.735C161.752 167.193 157.38 171.928 156.241 175.684C160.997 176.756 168.103 175.265 172.617 173.433C177.131 171.602 181.546 169.39 186.409 168.924C192.048 168.385 197.587 170.256 203.141 171.315C204.251 171.568 205.398 171.654 206.537 171.568C207.106 171.521 207.658 171.361 208.156 171.099C208.655 170.837 209.088 170.48 209.428 170.05C209.726 169.559 209.901 169.012 209.94 168.449C209.978 167.885 209.878 167.321 209.648 166.8V166.8Z" fill="black"/>
</g>
<path d="M205.768 230.336L219.346 222.111C219.346 222.111 232.874 232.254 235.515 230.962L219.396 205.794L197.673 217.782L205.768 230.336Z" fill="#FF725E"/>
<path d="M213.187 214.972C213.109 214.685 213.148 214.381 213.295 214.119C213.442 213.857 213.688 213.656 213.985 213.553C214.289 213.47 214.615 213.5 214.896 213.636C215.177 213.773 215.391 214.005 215.494 214.286C215.574 214.589 215.53 214.909 215.373 215.185C215.215 215.46 214.954 215.671 214.64 215.777C214.314 215.833 213.977 215.768 213.701 215.597C213.425 215.426 213.231 215.161 213.159 214.858" fill="#E0E0E0"/>
<g opacity="0.6">
<path opacity="0.6" d="M219.396 205.794L217.26 207.086L233.536 230.729C233.536 230.729 234.775 231.562 235.537 230.962L219.396 205.794Z" fill="white"/>
</g>
<path d="M219.46 222.591C219.588 222.517 219.253 221.865 219.289 221.025C219.324 220.186 219.673 219.554 219.552 219.467C219.431 219.38 218.783 219.993 218.762 221.012C218.741 222.031 219.36 222.69 219.46 222.591Z" fill="#263238"/>
<path d="M222.322 224.582C222.464 224.542 222.322 223.916 222.635 223.15C222.949 222.384 223.44 221.971 223.347 221.851C223.255 221.731 222.472 222.071 222.13 222.983C221.788 223.896 222.194 224.648 222.322 224.582Z" fill="#263238"/>
<path d="M226.665 224.189C226.615 224.062 225.854 224.262 225.334 224.981C224.814 225.701 224.9 226.433 225.042 226.427C225.184 226.42 225.341 225.847 225.754 225.261C226.167 224.675 226.729 224.322 226.665 224.189Z" fill="#263238"/>
<path d="M216.142 224.149C216.234 224.029 215.686 223.563 215.295 222.817C214.903 222.071 214.789 221.418 214.632 221.418C214.476 221.418 214.348 222.198 214.825 223.05C215.302 223.903 216.078 224.269 216.142 224.149Z" fill="#263238"/>
<path opacity="0.3" d="M207.911 212.114L214.084 225.288L212.012 226.66L204.892 213.813L207.911 212.114Z" fill="black"/>
<path d="M199.823 160.426C199.267 160.426 181.005 160.046 171.143 166.14L163.311 170.256L163.518 177.649C163.518 177.649 161.845 180.26 162.215 181.825C162.585 183.39 162.165 190.003 162.165 190.003C162.165 190.003 159.239 190.176 158.869 194.878C158.869 194.878 154.81 196.443 153.03 199.227C151.25 202.011 133.009 233.333 131.898 238.381C130.787 243.43 130.033 252.301 134.127 255.258C138.221 258.215 147.384 257.169 147.384 257.169C147.384 257.169 148.687 260.826 156.69 260.999C164.693 261.172 176.96 252.474 176.96 252.474L213.799 228.984L205.056 211.528L192.19 218.888L205.953 203.923C205.953 203.923 212.283 193.833 210.417 183.217C209.043 175.338 199.823 160.426 199.823 160.426Z" fill="#263238"/>
<path d="M202.977 165.834H202.543H201.304C200.221 165.834 198.669 165.834 196.747 165.834C194.824 165.834 192.532 165.921 190.011 166.174C187.276 166.418 184.577 166.946 181.966 167.745C176.405 169.504 171.934 172.294 168.751 174.286L165.006 176.71L163.988 177.376C163.875 177.46 163.751 177.53 163.618 177.582C163.618 177.582 163.717 177.482 163.938 177.316L164.921 176.61C165.782 175.997 167.057 175.125 168.602 174.086C171.756 172.041 176.227 169.197 181.845 167.426C184.483 166.617 187.211 166.092 189.976 165.861C192.227 165.666 194.487 165.579 196.747 165.601C198.669 165.601 200.229 165.668 201.304 165.721L202.543 165.787C202.689 165.785 202.835 165.8 202.977 165.834Z" fill="#455A64"/>
<path d="M165.39 171.269C165.099 171.542 164.899 171.889 164.814 172.268C164.777 172.462 164.793 172.662 164.861 172.849C164.928 173.037 165.044 173.205 165.198 173.34C165.387 173.502 165.619 173.613 165.869 173.663C166.12 173.712 166.38 173.697 166.622 173.62C166.855 173.52 167.054 173.363 167.199 173.166C167.345 172.969 167.431 172.739 167.448 172.501C167.462 172.303 167.424 172.105 167.335 171.925C167.247 171.744 167.112 171.588 166.943 171.468C166.602 171.246 166.197 171.126 165.782 171.122C165.782 171.122 165.889 171.035 166.131 171.022C166.473 171.004 166.811 171.093 167.092 171.275C167.316 171.406 167.5 171.588 167.625 171.806C167.75 172.023 167.812 172.267 167.804 172.514C167.81 172.825 167.715 173.131 167.53 173.39C167.346 173.649 167.081 173.85 166.772 173.965C166.462 174.08 166.123 174.104 165.799 174.034C165.474 173.964 165.18 173.803 164.956 173.573C164.773 173.401 164.64 173.189 164.568 172.956C164.496 172.724 164.487 172.478 164.543 172.241C164.618 171.928 164.798 171.646 165.056 171.435C165.255 171.275 165.383 171.249 165.39 171.269Z" fill="#455A64"/>
<path d="M171.948 172.168C171.912 172.201 171.656 172.021 171.293 171.675C170.763 171.242 170.392 170.665 170.233 170.024C170.073 169.384 170.132 168.712 170.403 168.105C170.567 167.639 170.716 167.372 170.759 167.386C170.802 167.399 170.759 167.699 170.659 168.165C170.509 168.748 170.487 169.353 170.595 169.943C170.78 170.518 171.085 171.052 171.492 171.515C171.791 171.895 171.984 172.134 171.948 172.168Z" fill="#455A64"/>
<path d="M173.493 171.282C173.493 171.315 173.208 171.169 172.874 170.842C172.444 170.401 172.125 169.875 171.941 169.304C171.655 168.511 171.642 167.653 171.905 166.853C172.033 166.853 171.905 167.959 172.297 169.204C172.605 169.939 173.006 170.637 173.493 171.282V171.282Z" fill="#455A64"/>
<path d="M193.208 165.834C193.151 165.834 193.13 165.521 193.08 165.028C193.026 164.401 192.874 163.784 192.632 163.197C192.365 162.621 191.988 162.095 191.521 161.645C191.165 161.285 190.937 161.059 190.973 161.019C191.008 160.979 191.293 161.139 191.685 161.465C192.236 161.897 192.67 162.445 192.952 163.063C193.217 163.686 193.343 164.352 193.322 165.022C193.353 165.297 193.314 165.575 193.208 165.834V165.834Z" fill="#455A64"/>
<path d="M195.601 165.834C195.544 165.834 195.537 165.521 195.544 165.035C195.584 164.418 195.529 163.799 195.38 163.197C195.141 162.618 194.831 162.069 194.454 161.558C194.177 161.145 194.027 160.892 194.07 160.846C194.113 160.799 194.34 161.039 194.668 161.418C195.126 161.915 195.487 162.483 195.736 163.097C195.907 163.738 195.929 164.405 195.8 165.055C195.729 165.508 195.65 165.834 195.601 165.834Z" fill="#455A64"/>
<path d="M164.109 241.478C164.185 241.206 164.297 240.945 164.444 240.699C164.693 240.2 165.077 239.474 165.583 238.548C166.594 236.69 168.082 234.019 169.947 230.729C173.678 224.149 178.89 215.085 184.693 205.101L188.965 197.809C190.263 195.551 191.27 193.156 191.962 190.676C193.139 186.459 193.381 182.063 192.674 177.755C192.208 174.854 191.325 172.024 190.047 169.344C189.598 168.391 189.207 167.672 188.936 167.186L188.623 166.633C188.586 166.571 188.555 166.507 188.53 166.44C188.579 166.496 188.622 166.556 188.659 166.62L189 167.153C189.292 167.626 189.712 168.338 190.182 169.284C193.509 176.002 194.236 183.592 192.24 190.756C191.548 193.266 190.537 195.69 189.228 197.975C187.861 200.326 186.444 202.764 184.999 205.261L170.168 230.842L165.697 238.608L164.493 240.726L164.194 241.285C164.172 241.352 164.143 241.416 164.109 241.478V241.478Z" fill="#455A64"/>
<path d="M205.198 218.941C205.073 219.039 204.94 219.128 204.8 219.207L203.618 219.873L199.253 222.444C195.572 224.575 190.503 227.539 184.956 230.896C179.41 234.252 174.44 237.336 170.88 239.587L166.608 242.251L165.433 242.957C165.301 243.046 165.16 243.124 165.013 243.19C165.127 243.081 165.254 242.985 165.391 242.904L166.523 242.138L170.723 239.387C174.283 237.089 179.267 233.946 184.785 230.583C190.303 227.219 195.43 224.289 199.146 222.218C201.005 221.179 202.521 220.353 203.568 219.793L204.786 219.127C204.917 219.055 205.056 218.992 205.198 218.941Z" fill="#455A64"/>
<path d="M210.958 230.769C210.821 230.558 210.706 230.335 210.617 230.103L209.727 228.212C208.958 226.62 207.861 224.435 206.629 222.031C205.398 219.627 204.33 217.516 203.49 215.864L202.557 213.986C202.429 213.762 202.328 213.525 202.258 213.28C202.431 213.483 202.574 213.707 202.685 213.946C202.941 214.379 203.297 214.998 203.725 215.777C204.579 217.329 205.739 219.494 206.964 221.905C208.189 224.315 209.257 226.513 209.969 228.138C210.325 228.944 210.588 229.61 210.752 230.076C210.846 230.3 210.916 230.532 210.958 230.769V230.769Z" fill="#455A64"/>
<path d="M164.109 241.478C164.045 241.405 170.339 236.197 178.178 229.843C186.017 223.49 192.418 218.401 192.489 218.475C192.56 218.548 186.259 223.776 178.42 230.103C170.581 236.43 164.18 241.552 164.109 241.478Z" fill="#455A64"/>
<path d="M156.305 253.686C156.881 253.223 157.39 252.692 157.822 252.108C158.584 251.002 159.517 249.377 160.57 247.612C161.624 245.847 162.514 244.202 163.169 243.023C163.487 242.37 163.859 241.739 164.28 241.139C164.052 241.828 163.759 242.496 163.404 243.137C162.806 244.349 161.937 246 160.898 247.799C159.858 249.597 158.876 251.169 158.05 252.267C157.719 252.704 157.32 253.092 156.868 253.42C156.701 253.543 156.51 253.633 156.305 253.686V253.686Z" fill="#455A64"/>
<path d="M162.977 255.571C162.92 255.571 163.326 254.818 163.774 253.573C164.334 251.938 164.72 250.257 164.928 248.551C165.182 246.855 165.182 245.133 164.928 243.436C164.844 242.929 164.683 242.436 164.451 241.971C164.33 241.819 164.225 241.656 164.137 241.485C164.137 241.485 164.322 241.598 164.572 241.905C164.868 242.362 165.075 242.865 165.184 243.39C165.528 245.105 165.576 246.861 165.326 248.591C165.121 250.323 164.691 252.025 164.045 253.659C163.846 254.153 163.608 254.631 163.333 255.091C163.119 255.411 162.998 255.584 162.977 255.571Z" fill="#455A64"/>
<path d="M155.266 245.454C155.721 245.261 156.199 245.118 156.69 245.028C157.812 244.744 158.91 244.378 159.972 243.936C162.443 242.857 164.059 241.372 164.144 241.478C163.835 241.846 163.465 242.165 163.048 242.424C162.147 243.149 161.143 243.754 160.065 244.222C158.984 244.678 157.852 245.02 156.69 245.241C156.228 245.372 155.749 245.444 155.266 245.454V245.454Z" fill="#455A64"/>
<path d="M164.686 197.063C164.659 197.113 164.625 197.16 164.586 197.203L164.273 197.596C163.995 197.942 163.596 198.455 163.119 199.134C161.778 201.07 160.647 203.127 159.744 205.275C158.437 208.47 157.351 211.74 156.49 215.065C155.43 218.801 154.354 222.963 152.567 227.119C150.78 231.275 148.459 234.965 146.992 238.575C145.614 241.74 144.863 245.114 144.778 248.531C144.778 249.838 144.935 251.14 145.248 252.414C145.499 253.375 145.839 254.313 146.266 255.218C146.538 255.791 146.845 256.349 147.185 256.89C147.284 257.063 147.37 257.203 147.441 257.316C147.472 257.365 147.498 257.416 147.519 257.469C147.475 257.429 147.437 257.385 147.405 257.336L147.121 256.93C146.754 256.399 146.423 255.847 146.131 255.278C145.678 254.372 145.316 253.429 145.049 252.461C144.711 251.172 144.532 249.851 144.515 248.525C144.552 245.073 145.276 241.658 146.651 238.455C148.11 234.812 150.367 231.089 152.197 226.979C154.027 222.87 155.045 218.708 156.127 214.991C157.01 211.658 158.127 208.383 159.474 205.188C160.401 203.036 161.573 200.984 162.97 199.067C163.468 198.401 163.888 197.889 164.187 197.562L164.529 197.189C164.636 197.136 164.678 197.056 164.686 197.063Z" fill="#455A64"/>
<path d="M165.896 176.044C165.792 176.322 165.669 176.594 165.526 176.856C165.185 177.589 164.946 178.359 164.814 179.147C164.655 180.318 164.698 181.506 164.942 182.664C165.163 183.996 165.754 185.328 166.152 186.886C166.354 187.639 166.424 188.417 166.359 189.191C166.297 189.902 166.176 190.608 165.996 191.302C165.694 192.467 165.326 193.617 164.892 194.745C164.529 195.711 164.18 196.477 163.981 197.009C163.882 197.291 163.751 197.561 163.589 197.815C163.647 197.524 163.732 197.239 163.845 196.963C164.059 196.357 164.322 195.584 164.643 194.665C164.963 193.746 165.355 192.541 165.661 191.229C166.069 189.838 166.113 188.376 165.789 186.966C165.405 185.481 164.807 184.076 164.607 182.717C164.369 181.526 164.35 180.305 164.55 179.107C164.702 178.304 164.983 177.528 165.383 176.803C165.486 176.605 165.603 176.414 165.732 176.23C165.818 176.104 165.896 176.037 165.896 176.044Z" fill="#455A64"/>
<path d="M166.75 196.084C167.542 195.258 168.152 194.293 168.545 193.247C168.94 192.108 169.128 190.914 169.1 189.717C169.044 188.243 168.849 186.776 168.516 185.335C168.17 183.881 167.907 182.412 167.726 180.932C167.612 179.712 167.639 178.484 167.804 177.269C167.907 176.449 168.117 175.644 168.431 174.872C168.515 174.663 168.614 174.461 168.73 174.266C168.815 174.132 168.858 174.066 168.872 174.066C168.886 174.066 168.751 174.372 168.566 174.918C168.31 175.695 168.14 176.494 168.06 177.303C167.939 178.499 167.939 179.703 168.06 180.899C168.196 182.231 168.552 183.716 168.872 185.268C169.211 186.731 169.399 188.22 169.435 189.717C169.449 190.947 169.227 192.17 168.78 193.327C168.481 194.11 168.032 194.837 167.455 195.471C167.296 195.639 167.124 195.797 166.943 195.944C166.829 196.044 166.757 196.09 166.75 196.084Z" fill="#455A64"/>
<path d="M184.807 190.836C184.525 190.91 184.237 190.959 183.945 190.982C183.39 191.049 182.585 191.169 181.603 191.328C179.035 191.745 176.507 192.351 174.041 193.14C171.579 193.939 169.186 194.917 166.886 196.064C166.003 196.51 165.298 196.876 164.814 197.143C164.572 197.298 164.312 197.425 164.038 197.522C164.255 197.334 164.494 197.169 164.75 197.029C165.213 196.73 165.903 196.324 166.772 195.851C171.336 193.404 176.353 191.786 181.56 191.082C182.557 190.956 183.368 190.876 183.931 190.849C184.221 190.811 184.515 190.806 184.807 190.836Z" fill="#455A64"/>
<path d="M185.967 183.57C185.967 183.636 184.914 183.623 183.255 183.863C182.29 184.007 181.338 184.216 180.407 184.489C178.107 185.164 175.956 186.22 174.056 187.606C173.28 188.172 172.549 188.791 171.87 189.457C170.716 190.596 170.132 191.415 170.075 191.375C170.168 191.16 170.292 190.958 170.446 190.776C170.816 190.252 171.227 189.756 171.677 189.291C172.329 188.589 173.044 187.941 173.813 187.352C174.773 186.643 175.797 186.015 176.875 185.474C177.967 184.951 179.106 184.519 180.278 184.182C181.235 183.918 182.214 183.731 183.205 183.623C183.873 183.54 184.546 183.504 185.22 183.516C185.47 183.507 185.721 183.525 185.967 183.57V183.57Z" fill="#455A64"/>
<path d="M187.555 198.808C187.302 198.931 187.034 199.027 186.758 199.094C186.231 199.254 185.483 199.494 184.55 199.8C182.14 200.606 179.779 201.538 177.48 202.591C175.188 203.651 172.963 204.834 170.816 206.134C169.99 206.633 169.328 207.046 168.872 207.339C168.652 207.503 168.413 207.643 168.16 207.759C168.353 207.56 168.571 207.383 168.808 207.233C169.235 206.906 169.876 206.46 170.688 205.901C172.804 204.529 175.027 203.306 177.338 202.244C179.638 201.181 182.018 200.276 184.458 199.534C185.398 199.261 186.167 199.054 186.701 198.934C186.979 198.859 187.266 198.816 187.555 198.808V198.808Z" fill="#455A64"/>
<path d="M210.04 181.378C209.794 181.331 209.555 181.257 209.328 181.159C208.886 180.999 208.239 180.772 207.398 180.493C205.084 179.784 202.698 179.295 200.278 179.034L200.456 178.881C200.542 181.751 200.52 185.155 200.25 188.784C199.994 192.321 199.493 195.838 198.748 199.314V199.241C199.406 201.256 200.198 203.231 201.119 205.155C201.453 205.821 201.759 206.367 201.966 206.726C202.089 206.9 202.201 207.08 202.3 207.266C202.145 207.113 202.007 206.946 201.888 206.766C201.545 206.271 201.234 205.757 200.955 205.228C199.973 203.319 199.138 201.347 198.456 199.327V199.294V199.254C199.151 195.785 199.627 192.28 199.88 188.758C200.15 185.141 200.186 181.751 200.143 178.888V178.714H200.328C202.756 178.997 205.144 179.529 207.448 180.3C208.281 180.586 208.915 180.846 209.349 181.025C209.59 181.123 209.822 181.242 210.04 181.378Z" fill="#455A64"/>
<path d="M210.581 184.269C210.072 184.18 209.572 184.051 209.086 183.883C208.175 183.63 206.9 183.297 205.483 182.99C202.635 182.364 200.314 181.965 200.328 181.865C200.849 181.846 201.371 181.888 201.88 181.991C202.835 182.118 204.138 182.331 205.569 182.657C208.438 183.257 210.631 184.176 210.581 184.269Z" fill="#455A64"/>
<path d="M207.192 174.019C207.192 174.066 206.323 173.833 204.935 173.526C203.126 173.131 201.289 172.857 199.438 172.707C197.586 172.572 195.726 172.549 193.87 172.641C193.099 172.708 192.324 172.735 191.549 172.72C191.745 172.648 191.952 172.603 192.162 172.587C192.56 172.527 193.137 172.454 193.849 172.394C195.717 172.233 197.597 172.222 199.467 172.361C201.338 172.508 203.19 172.818 204.999 173.287C205.711 173.473 206.245 173.64 206.615 173.779C206.82 173.83 207.015 173.911 207.192 174.019V174.019Z" fill="#455A64"/>
<path d="M192.674 177.023C192.369 177.142 192.052 177.233 191.727 177.296C191.115 177.449 190.218 177.636 189.093 177.822C186.168 178.3 183.19 178.439 180.229 178.235C178.513 178.075 176.797 177.902 175.458 177.116C174.827 176.748 174.314 176.228 173.97 175.611C173.686 175.056 173.601 174.43 173.728 173.826C173.872 172.99 174.138 172.177 174.518 171.408C174.638 171.118 174.809 170.848 175.024 170.609C175.024 170.609 174.881 170.909 174.654 171.455C174.333 172.23 174.108 173.037 173.984 173.859C173.894 174.408 173.988 174.969 174.255 175.464C174.592 176.021 175.084 176.481 175.679 176.796C176.925 177.516 178.598 177.689 180.3 177.842C183.237 178.042 186.188 177.937 189.1 177.529C190.218 177.382 191.122 177.229 191.742 177.116C192.049 177.059 192.361 177.028 192.674 177.023Z" fill="#455A64"/>
<path d="M190.859 57.649C187.455 50.7492 179.032 52.1079 175.002 53.9394C170.952 55.7279 167.772 58.8789 166.095 62.7639C164.913 65.4279 163.959 68.4648 161.581 70.0899C160.488 70.6972 159.359 71.2464 158.199 71.7349C157.604 72.005 157.081 72.3975 156.671 72.883C156.26 73.3685 155.972 73.9345 155.828 74.5387C155.472 76.8364 157.964 78.4282 160.015 79.3539C158.783 80.1398 158.463 81.918 158.897 83.3499C159.423 84.7182 160.253 85.9667 161.332 87.0129C164.964 90.7641 169.119 94.0414 173.685 96.7565C177.573 99.0209 180.093 99.2873 184.266 97.6623C185.96 96.9963 187.541 95.9173 189.349 95.7242C191.45 95.5044 193.457 96.5101 195.537 96.9163C197.616 97.3226 200.236 96.7632 200.912 94.7185C201.08 93.9036 201.175 93.0772 201.197 92.2477C201.304 91.4285 201.738 90.5361 202.528 90.3496C203.169 90.1964 203.81 90.5627 204.437 90.7558C205.939 91.222 208.203 101.652 209.641 101.019C209.641 101.019 211.735 83.3433 207.705 73.0003C206.416 69.6703 203.668 62.664 201.475 59.9267C198.456 56.1705 191.222 57.003 190.859 57.669" fill="#263238"/>
<path d="M186.544 58.7945C181.183 57.0429 173.949 60.8924 172.304 65.974C170.474 71.615 168.488 78.5747 168.139 83.0103C167.427 91.928 174.212 94.572 174.212 94.572L171.457 108.511L194.689 101.485L202.799 68.638L203.554 65.8807L186.544 58.7945Z" fill="#FFBE9D"/>
<path d="M172.304 72.8471C172.382 73.0403 173.486 72.7605 174.696 73.2068C175.907 73.653 176.562 74.5388 176.747 74.4588C176.932 74.3789 176.804 74.1258 176.526 73.7196C176.145 73.1854 175.595 72.7756 174.953 72.5474C174.324 72.3085 173.63 72.2664 172.973 72.4275C172.496 72.594 172.304 72.7605 172.304 72.8471Z" fill="#263238"/>
<path d="M184.33 75.8108C184.472 75.964 185.433 75.3912 186.729 75.4778C188.025 75.5644 188.936 76.2304 189.093 76.0905C189.25 75.9506 189.036 75.7508 188.637 75.4245C188.101 75.0281 187.447 74.7956 186.765 74.7585C186.087 74.7131 185.412 74.8693 184.835 75.2047C184.408 75.4778 184.266 75.7375 184.33 75.8108Z" fill="#263238"/>
<path d="M178.933 80.7992C178.314 80.4553 177.652 80.1867 176.96 80C176.647 79.8934 176.355 79.7669 176.355 79.5471C176.404 79.2289 176.559 78.9331 176.797 78.7013L178.328 76.6034C180.464 73.613 182.122 71.1222 181.994 71.0423C181.866 70.9623 180.015 73.32 177.858 76.3103C177.338 77.0562 176.839 77.7555 176.362 78.4349C176.063 78.7539 175.897 79.1627 175.892 79.587C175.914 79.7035 175.963 79.8142 176.035 79.9109C176.108 80.0076 176.203 80.0881 176.313 80.1465C176.483 80.2273 176.662 80.292 176.847 80.3396C177.518 80.5753 178.219 80.7297 178.933 80.7992V80.7992Z" fill="#263238"/>
<path d="M174.219 94.572C178.631 95.6107 183.262 95.5025 187.612 94.259C187.612 94.259 183.105 99.6269 173.785 96.7498L174.219 94.572Z" fill="#EB996E"/>
<path d="M178.242 84.7818C178.121 84.6353 178.299 84.9616 178.242 84.7818V84.7818Z" fill="#EB996E"/>
<path d="M182.379 84.2024C182.239 83.9281 182.041 83.6836 181.796 83.4842C181.551 83.2849 181.265 83.1348 180.955 83.0435C180.536 82.903 180.085 82.8641 179.646 82.9305C179.206 82.9969 178.792 83.1664 178.441 83.4232C178.298 83.6145 178.204 83.8342 178.165 84.0651C178.127 84.2961 178.146 84.5322 178.221 84.7552C178.669 85.2946 178.712 85.7475 179.339 86.0871C179.79 86.2263 180.268 86.2722 180.74 86.2216C181.212 86.171 181.667 86.0252 182.073 85.7941C182.292 85.5901 182.439 85.328 182.494 85.0433C182.548 84.7586 182.508 84.4651 182.379 84.2024V84.2024Z" fill="#EB996E"/>
<path d="M182.464 82.4375C182.258 82.3842 181.93 83.6696 180.528 84.3223C179.125 84.975 177.68 84.5154 177.63 84.6953C177.63 84.7685 177.893 85.0149 178.513 85.1681C179.315 85.3564 180.162 85.2738 180.905 84.935C181.621 84.6072 182.173 84.0315 182.443 83.33C182.635 82.8038 182.557 82.4508 182.464 82.4375Z" fill="#263238"/>
<path d="M186.95 69.5304C186.879 69.8701 187.939 70.1964 189.015 70.9556C190.09 71.7149 190.823 72.4941 191.151 72.2876C191.293 72.1944 191.286 71.8414 191.072 71.3686C190.784 70.7812 190.334 70.2757 189.769 69.9034C189.22 69.5235 188.57 69.293 187.89 69.2374C187.327 69.264 186.985 69.3706 186.95 69.5304Z" fill="#263238"/>
<path d="M173.087 68.285C173.365 68.538 174.34 68.1584 175.536 68.0386C176.733 67.9187 177.779 68.0385 177.986 67.7189C178.071 67.5657 177.886 67.306 177.409 67.0529C176.769 66.7843 176.061 66.6896 175.366 66.7798C174.671 66.8479 174.012 67.0997 173.465 67.5058C173.066 67.8654 172.959 68.1584 173.087 68.285Z" fill="#263238"/>
<path d="M204.864 65.8608C204.464 65.194 203.838 64.6712 203.084 64.3756C198.462 62.0029 193.676 59.9203 188.758 58.1418L186.736 59.2141C186.471 61.0564 186.796 62.931 187.671 64.6004C188.545 66.2697 189.93 67.6587 191.649 68.5913C193.03 69.3106 194.825 69.99 195.003 71.4618C195.181 72.9337 193.479 74.0259 192.518 75.2647C191.93 76.038 191.601 76.957 191.571 77.9054C191.542 78.8539 191.815 79.7891 192.354 80.5927C192.973 81.4918 193.913 82.1711 194.49 83.0968C194.847 83.7251 195.05 84.4201 195.083 85.1311C195.117 85.8421 194.98 86.551 194.682 87.206C194.105 88.538 193.144 90.2896 191.834 91.0289C193.603 91.4007 195.451 91.247 197.122 90.5892C198.793 89.9313 200.202 88.8022 201.154 87.3592C202.237 85.6409 202.322 83.5564 202.464 81.565C202.791 77.0354 203.561 72.5434 204.764 68.1451C205.067 67.4151 205.102 66.6115 204.864 65.8608V65.8608Z" fill="#263238"/>
<path d="M189.079 58.3483C187.833 59.8897 186.336 61.2382 184.643 62.3443C182.891 63.3632 180.656 63.8428 178.74 63.1235C179.218 62.6306 179.702 62.1378 180.164 61.6383C176.756 63.8215 172.898 65.3141 168.837 66.0206C171.386 63.1235 174.013 60.1664 177.494 58.295C180.976 56.4235 185.54 55.8508 188.936 57.8421" fill="#263238"/>
<path d="M205.334 75.1914L194.483 83.0768C195.729 84.3489 195.245 87.5857 194.02 88.871C192.795 90.1564 191.172 91.2553 190.695 92.9203C190.168 94.7385 191.2 96.6233 191.229 98.5081C191.272 101.172 189.356 103.463 187.875 105.741C186.394 108.019 185.326 111.069 186.978 113.247C188.837 115.698 193.045 115.345 195.586 113.513C198.128 111.682 199.581 108.851 201.468 106.427C203.354 104.003 206.302 102.144 209.499 102.431C210.49 93.1694 209.061 83.8215 205.334 75.1914V75.1914Z" fill="#263238"/>
<path d="M207.149 97.1761C207.085 97.0628 207.726 96.6299 208.822 95.8041C210.37 94.6862 211.75 93.3778 212.924 91.9147C213.699 90.9175 214.315 89.8205 214.753 88.6579C215.259 87.3537 215.477 85.9672 215.394 84.582C215.281 83.0724 214.77 81.6126 213.906 80.3329C212.942 78.9311 211.719 77.7 210.296 76.6966C207.377 74.572 203.888 73.3666 200.841 72.0945C198.004 71.0696 195.327 69.6943 192.881 68.0053C191.211 66.8399 189.83 65.3521 188.829 63.643C188.167 62.4109 188.061 61.645 188.16 61.645C188.26 61.645 188.637 62.2643 189.442 63.3166C190.605 64.7791 192.031 66.0411 193.657 67.0462C196.115 68.5072 198.746 69.6983 201.496 70.596C203.048 71.1754 204.707 71.7748 206.402 72.5074C208.198 73.2634 209.897 74.2086 211.464 75.3246C213.061 76.4591 214.424 77.856 215.487 79.4471C216.483 80.9751 217.049 82.7142 217.132 84.5021C217.179 86.0985 216.868 87.6866 216.22 89.1641C215.673 90.4308 214.919 91.6104 213.984 92.6606C212.654 94.1443 211.054 95.3958 209.257 96.3569C207.968 97.0362 207.192 97.2693 207.149 97.1761Z" fill="#263238"/>
<path d="M207.356 73.26C207.03 73.1969 206.712 73.1008 206.409 72.9736C205.811 72.7672 204.985 72.4542 203.895 72.0412C201.117 71.0113 198.507 69.6213 196.142 67.912C193.766 66.1663 191.979 63.817 190.994 61.1455C190.707 60.3377 190.537 59.4978 190.488 58.648C190.476 58.4261 190.476 58.2038 190.488 57.982C190.477 57.9024 190.477 57.8218 190.488 57.7422C190.598 58.8728 190.837 59.9892 191.2 61.0722C192.248 63.6571 194.025 65.9286 196.341 67.6456C198.687 69.3299 201.248 70.7327 203.967 71.8215L206.43 72.8471C206.752 72.9577 207.062 73.0959 207.356 73.26V73.26Z" fill="#455A64"/>
<path d="M207.697 83.3433C207.655 83.3433 207.875 82.9437 207.989 82.1977C208.116 81.1308 207.916 80.0523 207.413 79.0875C206.676 77.6515 205.54 76.4276 204.123 75.5444C202.564 74.4855 200.627 73.6463 198.691 72.5607C196.86 71.5427 195.22 70.2514 193.835 68.7379C192.701 67.5029 191.743 66.1349 190.987 64.6686C190.483 63.6845 190.085 62.6561 189.798 61.5984C189.684 61.2254 189.641 60.9324 189.598 60.7326C189.565 60.6335 189.551 60.5299 189.556 60.4262C189.704 60.7989 189.83 61.1791 189.933 61.5651C190.272 62.596 190.704 63.5985 191.222 64.5621C191.988 66.0008 192.945 67.3434 194.07 68.5581C195.441 70.0369 197.056 71.3006 198.854 72.301C200.763 73.3666 202.713 74.2257 204.294 75.318C205.747 76.2431 206.9 77.5242 207.626 79.0209C208.124 80.0295 208.29 81.1539 208.103 82.251C208.048 82.5447 207.955 82.831 207.826 83.1035C207.762 83.25 207.712 83.3499 207.697 83.3433Z" fill="#455A64"/>
<path d="M147.697 76.59C147.697 76.59 147.697 76.5501 147.761 76.4835C147.833 76.381 147.911 76.2831 147.996 76.1904C148.323 75.8249 148.738 75.5372 149.207 75.3513C149.962 75.1038 150.756 74.9755 151.556 74.9716C152.475 74.925 153.529 74.8584 154.689 74.8584C155.944 74.8793 157.198 74.7699 158.427 74.5321C159.814 74.1985 161.099 73.5668 162.179 72.6873C163.37 71.699 164.401 70.555 165.241 69.2907C166.134 67.9201 166.95 66.5062 167.683 65.0549C168.432 63.5935 169.288 62.1826 170.246 60.8325C171.152 59.5636 172.289 58.4544 173.607 57.5557C175.877 56.0748 178.565 55.2545 181.332 55.1981C183.183 55.1378 185.026 55.4419 186.743 56.0905L187.541 56.4169L188.089 56.7099C188.246 56.7848 188.396 56.8717 188.538 56.9697C188.372 56.9185 188.212 56.8515 188.061 56.7699L187.491 56.5101L186.694 56.2171C184.982 55.6275 183.161 55.3648 181.339 55.4445C178.636 55.5363 176.019 56.3599 173.806 57.8155C172.526 58.6979 171.422 59.7846 170.545 61.0256C169.606 62.357 168.766 63.7479 168.032 65.1881C167.29 66.6512 166.465 68.0762 165.561 69.4572C164.699 70.7451 163.638 71.9074 162.414 72.907C161.29 73.813 159.953 74.4587 158.513 74.7918C157.259 75.0243 155.981 75.1226 154.703 75.0849C153.543 75.0849 152.503 75.0849 151.578 75.1448C150.798 75.1306 150.021 75.2364 149.278 75.4578C148.818 75.6208 148.403 75.8805 148.068 76.2171C147.952 76.3483 147.829 76.4729 147.697 76.59V76.59Z" fill="#455A64"/>
<path d="M143.34 67.6057C139.068 57.5158 133.372 47.6257 132.589 40.1065L124.08 40.4262C124.258 43.3366 125.376 67.5591 131.407 77.1361C137.437 86.7132 157.573 109.104 157.573 109.104L164.657 92.0612C164.657 92.0612 147.619 77.7022 143.34 67.6057Z" fill="#FFBE9D"/>
<path d="M129.157 24.4422H125.433C125.433 24.4422 125.796 26.4935 127.484 26.6067C129.171 26.7199 128.843 26.3603 128.843 26.3603L128.466 26.6866L126.145 27.1129C126.145 27.1129 126.259 28.8045 127.79 29.0709L130.047 27.1129L129.157 24.4422Z" fill="#FFBE9D"/>
<path d="M139.353 24.1359C139.011 26.7599 138.975 26.6001 138.975 26.6001L135.572 29.2241L134.703 25.3613C134.647 25.1053 134.502 24.8738 134.291 24.7028C134.08 24.5318 133.814 24.4308 133.536 24.4156L131.991 24.3223C131.991 24.3223 132.589 22.3243 130.645 22.4908C130.645 22.4908 129.577 22.2178 128.715 25.5611C127.776 29.2174 123.731 37.8088 124.08 40.6793L132.71 41.0056C132.617 38.3416 134.967 35.4978 136.127 34.2724C136.478 33.9075 136.723 33.4651 136.839 32.987C136.999 32.3301 137.332 31.7211 137.808 31.2154C138.876 30.1099 141.118 28.1185 141.118 28.1185V22.038C141.118 22.038 139.68 21.6051 139.353 24.1359ZM132.432 30.01L130.659 30.7626L130.958 29.0709L132.432 28.9377V30.01Z" fill="#FFBE9D"/>
<path d="M130.567 30.9424C130.566 30.7025 130.594 30.4634 130.652 30.2298C130.737 29.7702 130.858 29.1175 131.022 28.305L131.62 25.4679C131.761 24.9225 131.858 24.3682 131.912 23.8095C131.912 23.2701 131.699 22.6507 131.079 22.6174C130.46 22.5841 130.004 22.977 129.705 23.4499C129.563 23.6955 129.448 23.9544 129.363 24.2224L129.086 25.015L128.16 27.7722C127.882 28.5581 127.626 29.1841 127.448 29.6104C127.367 29.8471 127.249 30.0714 127.099 30.2764C127.14 30.0469 127.212 29.8232 127.313 29.6104C127.462 29.1708 127.683 28.5381 127.925 27.7522C128.167 26.9664 128.459 25.994 128.772 24.9684C128.865 24.702 128.95 24.4356 129.043 24.1625C129.13 23.8708 129.251 23.5893 129.406 23.3233C129.578 23.0423 129.805 22.7939 130.075 22.5907C130.226 22.48 130.398 22.3987 130.583 22.3518C130.768 22.3049 130.961 22.2933 131.15 22.3177C131.341 22.3465 131.524 22.4074 131.692 22.4975C131.852 22.6025 131.984 22.7418 132.076 22.9038C132.231 23.2019 132.305 23.5315 132.29 23.8628C132.231 24.4403 132.124 25.0126 131.969 25.5744L131.257 28.4049C131.065 29.2041 130.901 29.8568 130.773 30.303C130.734 30.5236 130.665 30.7385 130.567 30.9424V30.9424Z" fill="#EB996E"/>
<path d="M132.332 30.03C132.246 29.3806 132.21 28.7262 132.226 28.0719C132.226 27.8055 132.183 27.5524 132.161 27.3193C132.173 27.1439 132.114 26.9708 131.998 26.8332C131.756 26.6667 131.464 26.6667 131.478 26.6067C131.492 26.5468 131.542 26.5601 131.656 26.5468C131.828 26.5242 132.003 26.5546 132.154 26.6334C132.261 26.7136 132.347 26.815 132.406 26.9302C132.465 27.0455 132.496 27.1716 132.496 27.2994C132.549 27.5565 132.583 27.8169 132.596 28.0786C132.695 28.7394 132.604 29.413 132.332 30.03V30.03Z" fill="#EB996E"/>
<path d="M136.562 28.5448C136.562 28.5448 136.327 28.8378 135.85 29.2108C135.247 29.7103 134.577 30.1336 133.856 30.4695C133.105 30.7741 132.302 30.9523 131.485 30.9957C131.153 31.0562 130.813 31.0562 130.481 30.9957C130.789 30.873 131.116 30.7987 131.449 30.7759C132.224 30.6667 132.98 30.4652 133.699 30.1765C134.408 29.8556 135.084 29.4767 135.721 29.0443C136.206 28.698 136.526 28.5048 136.562 28.5448Z" fill="#EB996E"/>
<path d="M204.223 104.189C204.223 104.189 213.806 103.923 219.545 102.324C225.284 100.726 247.313 95.8241 247.313 95.8241L282.664 90.3096L283.376 98.8611C283.376 98.8611 250.531 107.845 244.152 109.89C237.772 111.935 208.616 121.292 203.105 120.106L199.688 113.533L204.223 104.189Z" fill="#FFBE9D"/>
<path d="M299.659 80.253C299.083 80.1331 296.22 81.3519 296.22 81.3519C296.493 81.0425 296.647 80.6565 296.657 80.2556C296.668 79.8547 296.534 79.4622 296.277 79.1408L292.347 80.9457C291.308 81.9311 290.212 82.8627 289.065 83.7362C287.257 85.2941 285.59 86.9893 284.081 88.8045L281.731 90.8491L283.191 98.941C284.219 99.0212 285.253 98.894 286.224 98.568C287.441 98.0419 289.221 95.904 289.221 95.904L292.575 95.6376C292.965 95.611 293.338 95.474 293.643 95.2447C293.945 94.969 294.177 94.6329 294.322 94.2616C294.466 93.8902 294.519 93.4932 294.476 93.1002C296.612 91.968 295.366 90.5294 295.366 90.5294C296.041 90.4519 296.657 90.1347 297.089 89.6436C297.272 89.3775 297.36 89.0641 297.341 88.7483C297.322 88.4325 297.196 88.1304 296.982 87.8854C296.583 87.2194 293.508 87.4259 293.508 87.4259L293.344 86.58C293.344 86.58 298.043 83.0902 299.097 82.3309C300.151 81.5717 300.2 80.3662 299.659 80.253Z" fill="#FFBE9D"/>
<path d="M296.277 81.252C295.939 81.8832 295.452 82.4343 294.853 82.8637C294.244 83.3509 293.671 83.876 293.138 84.4355C292.545 85.1548 292.116 85.9797 291.877 86.8597C291.63 87.7807 291.277 88.6739 290.824 89.5237C290.435 90.2033 289.957 90.8343 289.4 91.4019C289.023 91.7799 288.611 92.1254 288.168 92.4341C288.013 92.5568 287.838 92.6537 287.648 92.7205C287.605 92.6739 288.317 92.2144 289.207 91.2354C289.721 90.6651 290.163 90.0416 290.525 89.3772C290.95 88.5484 291.288 87.683 291.536 86.7931C291.785 85.8692 292.244 85.0062 292.881 84.2623C293.438 83.7003 294.043 83.1814 294.69 82.7106C295.25 82.2548 295.78 81.7678 296.277 81.252V81.252Z" fill="#EB996E"/>
<path d="M294.547 93.0802C294.069 93.3833 293.54 93.6085 292.981 93.7462C292.377 93.9361 291.751 94.0569 291.115 94.1058C290.739 94.1323 290.36 94.1323 289.983 94.1058C289.553 94.0778 289.138 93.9446 288.78 93.7195C288.594 93.5957 288.443 93.4318 288.339 93.2417C288.234 93.0516 288.181 92.8409 288.182 92.6273C288.261 92.2441 288.483 91.8996 288.809 91.6549C289.068 91.4226 289.387 91.2554 289.734 91.1687C290.047 91.0888 290.332 91.0289 290.596 90.9823C291.154 90.8244 291.737 90.7613 292.319 90.7958C292.319 90.8357 291.678 90.9556 290.653 91.2154L289.827 91.4418C289.53 91.5267 289.26 91.6802 289.044 91.888C288.795 92.0851 288.621 92.351 288.545 92.6473C288.547 92.804 288.589 92.9581 288.668 93.0962C288.748 93.2343 288.862 93.3522 289.001 93.4398C289.644 93.753 290.374 93.8782 291.094 93.7994C291.706 93.7661 292.312 93.6723 292.903 93.5197C293.921 93.2733 294.526 93.0269 294.547 93.0802Z" fill="#EB996E"/>
<path d="M295.48 90.5294C295.108 90.7239 294.695 90.8399 294.27 90.8691C293.816 90.9416 293.356 90.9728 292.895 90.9623C292.593 90.9825 292.29 90.9405 292.007 90.8393C291.724 90.738 291.468 90.5799 291.258 90.3762C291.078 90.1364 290.975 89.8531 290.962 89.5602C290.95 89.2672 291.028 88.9771 291.187 88.7245C291.427 88.3285 291.793 88.012 292.233 87.8188C292.606 87.6159 293.027 87.5037 293.458 87.4924C293.458 87.5457 293.009 87.6789 292.361 88.0319C291.993 88.2293 291.692 88.5203 291.493 88.8711C291.373 89.0686 291.314 89.2934 291.323 89.5203C291.332 89.7473 291.408 89.9675 291.543 90.1564C291.723 90.3201 291.938 90.4476 292.173 90.5312C292.408 90.6147 292.658 90.6527 292.91 90.6426C293.353 90.67 293.798 90.67 294.241 90.6426C294.65 90.5759 295.065 90.5381 295.48 90.5294V90.5294Z" fill="#EB996E"/>
<path d="M293.159 95.5244C292.848 95.6697 292.514 95.7665 292.169 95.8108C291.359 96.0217 290.518 96.116 289.677 96.0905C289.534 96.0967 289.392 96.073 289.26 96.0211C289.128 95.9693 289.011 95.8906 288.915 95.7908C288.761 95.5994 288.683 95.364 288.695 95.1248C288.711 94.9294 288.773 94.7398 288.876 94.5695C288.979 94.3991 289.122 94.2521 289.293 94.1391C289.919 93.7861 290.375 94.0059 290.347 94.0325C290.025 94.0644 289.717 94.1696 289.449 94.3389C289.325 94.4379 289.224 94.5601 289.153 94.6978C289.082 94.8354 289.042 94.9853 289.036 95.1381C289.033 95.3033 289.088 95.4649 289.193 95.5976C289.257 95.661 289.336 95.7096 289.424 95.7397C289.512 95.7697 289.606 95.7804 289.699 95.7708C290.51 95.7879 291.321 95.7299 292.119 95.5976C292.458 95.5114 292.811 95.4865 293.159 95.5244V95.5244Z" fill="#EB996E"/>
<path d="M187.968 132.581C187.763 132.728 187.538 132.849 187.299 132.94C186.668 133.215 186.013 133.438 185.341 133.606C183.102 134.218 180.741 134.328 178.449 133.926C176.159 133.522 174.008 132.609 172.176 131.262C171.626 130.86 171.114 130.414 170.645 129.93C170.463 129.758 170.305 129.566 170.175 129.357C170.232 129.311 170.93 130.103 172.311 131.075C174.146 132.341 176.26 133.208 178.498 133.613C180.737 134.006 183.041 133.936 185.248 133.406C186.95 133 187.925 132.534 187.968 132.581Z" fill="#FF725E"/>
<path d="M171.784 107.952C171.784 107.952 194.312 101.212 195.152 100.999C195.992 100.786 215.864 102.444 215.864 102.444C215.864 102.444 215.024 114.758 220.008 118.748L205.391 123.676L200.784 135.538C200.784 135.538 198.214 140.373 200.257 144.908C204.123 153.493 210.83 167.039 209.841 168.591C209.734 168.751 209.129 163.929 199.595 161.372C196.704 160.606 191.457 160.593 186.708 161.492C166.273 165.341 158.384 174.146 156.092 175.684C156.092 175.684 160.3 144.802 158.313 139.98C156.327 135.158 154.219 131.988 155.857 127.719C157.494 123.45 159.951 116.55 159.951 116.55L151.898 108.025L163.148 90.5294L173.443 98.5214L171.784 107.952Z" fill="#FF725E"/>
<path d="M179.275 136.563C179.017 136.594 178.756 136.594 178.498 136.563C177.792 136.537 177.089 136.452 176.398 136.31C174.098 135.843 171.977 134.8 170.261 133.293C168.55 131.776 167.346 129.829 166.793 127.686C166.629 127.03 166.534 126.361 166.508 125.688C166.486 125.447 166.5 125.205 166.551 124.968C166.663 125.851 166.829 126.727 167.049 127.592C167.66 129.659 168.858 131.533 170.517 133.014C172.194 134.475 174.239 135.515 176.462 136.037C178.171 136.53 179.275 136.53 179.275 136.563Z" fill="#263238"/>
<path d="M158.121 110.456C158.998 111.504 159.541 112.762 159.687 114.086C159.954 115.394 159.826 116.745 159.317 117.989C159.456 116.709 159.456 115.419 159.317 114.139C159.052 112.877 158.652 111.643 158.121 110.456V110.456Z" fill="#263238"/>
<path d="M205.932 114.106C205.932 114.159 205.469 114.459 204.785 115.078C203.901 115.879 203.188 116.831 202.685 117.882C202.186 118.932 201.915 120.063 201.888 121.212C201.888 122.098 201.98 122.644 201.888 122.657C201.685 122.199 201.586 121.707 201.596 121.212C201.543 120.015 201.786 118.823 202.308 117.729C202.823 116.633 203.595 115.659 204.565 114.878C204.96 114.537 205.425 114.274 205.932 114.106V114.106Z" fill="#263238"/>
<g opacity="0.3">
<path opacity="0.3" d="M175.928 136.104C173.755 135.7 171.778 134.654 170.289 133.12C169.278 132.211 168.451 131.14 167.847 129.957C167.334 132.048 170.446 135.757 173.479 137.123C175.016 137.793 176.699 138.119 178.395 138.075C180.091 138.031 181.752 137.619 183.247 136.87C180.786 136.845 178.334 136.589 175.928 136.104V136.104Z" fill="black"/>
</g>
<path d="M203.518 151.408C203.518 151.448 202.927 151.029 201.759 150.536C200.098 149.865 198.308 149.516 196.498 149.51C193.806 149.495 191.139 150.001 188.666 150.996C185.665 152.26 182.804 153.794 180.122 155.578C175.177 158.784 169.904 161.521 164.379 163.749C162.243 164.595 160.506 165.201 159.289 165.594C158.683 165.801 158.206 165.941 157.865 166.034C157.704 166.092 157.537 166.135 157.366 166.16C157.517 166.08 157.677 166.015 157.843 165.967L159.225 165.468C160.428 165.035 162.158 164.402 164.258 163.523C169.743 161.242 174.987 158.486 179.922 155.291C182.624 153.492 185.513 151.952 188.545 150.696C191.064 149.702 193.778 149.214 196.512 149.264C198.352 149.292 200.165 149.685 201.831 150.416C202.435 150.68 203.002 151.014 203.518 151.408V151.408Z" fill="white"/>
<path d="M199.445 140.366C199.018 140.011 198.566 139.681 198.093 139.38C196.764 138.619 195.255 138.175 193.7 138.088C191.389 137.986 189.084 138.382 186.964 139.247C184.357 140.306 181.812 141.493 179.339 142.804C176.842 144.101 174.268 145.262 171.628 146.28C169.453 147.095 167.183 147.663 164.864 147.972C163.302 148.176 161.719 148.201 160.15 148.045C159.724 148.001 159.301 147.937 158.883 147.852C158.734 147.832 158.588 147.796 158.448 147.745C158.448 147.712 159.061 147.825 160.164 147.912C161.721 148.012 163.285 147.951 164.828 147.732C167.116 147.39 169.354 146.804 171.499 145.987C174.117 144.961 176.675 143.805 179.161 142.524C181.647 141.21 184.21 140.025 186.836 138.974C189.008 138.11 191.365 137.731 193.721 137.869C195.311 137.977 196.844 138.468 198.171 139.294C198.659 139.58 199.09 139.943 199.445 140.366V140.366Z" fill="white"/>
<path d="M169.37 131.975C169.37 131.975 169.221 132.114 168.915 132.321C168.73 132.45 168.534 132.565 168.331 132.667C168.072 132.815 167.803 132.949 167.526 133.067C166.807 133.383 166.056 133.631 165.284 133.806C164.336 134.017 163.367 134.133 162.393 134.152C161.417 134.151 160.443 134.055 159.488 133.866C158.711 133.716 157.953 133.493 157.224 133.2C156.944 133.09 156.67 132.966 156.405 132.827C156.198 132.732 156.001 132.62 155.814 132.494C155.501 132.301 155.337 132.181 155.351 132.161C155.365 132.141 156.063 132.527 157.323 132.974C158.047 133.229 158.793 133.427 159.552 133.566C160.491 133.727 161.445 133.805 162.4 133.799C163.346 133.779 164.288 133.674 165.212 133.486C165.97 133.326 166.711 133.103 167.427 132.82C168.644 132.361 169.328 131.921 169.37 131.975Z" fill="white"/>
<path d="M202.842 130.303C202.76 130.389 202.667 130.465 202.564 130.529C202.282 130.728 201.982 130.904 201.667 131.056C200.507 131.62 199.239 131.961 197.936 132.061C196.009 132.203 194.071 132.037 192.204 131.568C190.068 131.089 187.854 130.31 185.469 129.677C181.379 128.614 177.097 128.355 172.895 128.918C171.62 129.087 170.358 129.33 169.114 129.644C168.239 129.863 167.754 130.003 167.747 129.977C167.74 129.95 167.854 129.917 168.082 129.837C168.31 129.757 168.637 129.637 169.079 129.517C170.313 129.151 171.574 128.871 172.852 128.678C177.093 128.035 181.432 128.262 185.569 129.344C187.975 130.01 190.197 130.769 192.283 131.255C194.114 131.732 196.017 131.921 197.915 131.815C199.192 131.737 200.442 131.439 201.603 130.936C202.422 130.569 202.82 130.27 202.842 130.303Z" fill="white"/>
<path d="M202.251 120.306C202.102 120.344 201.949 120.366 201.795 120.373C201.496 120.373 201.083 120.453 200.478 120.493C198.859 120.53 197.24 120.42 195.643 120.166C193.621 119.86 191.257 119.301 188.651 118.641C185.857 117.867 183 117.31 180.107 116.976C179.347 116.918 178.585 116.896 177.822 116.91C177.445 116.91 177.074 116.91 176.704 116.943L175.615 117.063C174.228 117.247 172.865 117.566 171.549 118.015C169.015 118.854 166.8 119.82 164.856 120.433C163.335 120.955 161.744 121.282 160.129 121.405C159.691 121.442 159.25 121.442 158.812 121.405C158.656 121.409 158.501 121.396 158.349 121.365C158.503 121.354 158.658 121.354 158.812 121.365C159.247 121.367 159.682 121.343 160.115 121.292C161.709 121.119 163.273 120.759 164.771 120.22C166.686 119.587 168.879 118.601 171.435 117.735C172.769 117.271 174.15 116.939 175.558 116.743L176.676 116.617C177.053 116.617 177.43 116.617 177.815 116.617C178.589 116.602 179.364 116.625 180.136 116.683C183.054 117.019 185.936 117.587 188.751 118.381C191.35 119.047 193.692 119.647 195.7 119.98C197.278 120.254 198.88 120.397 200.485 120.406L201.795 120.36C201.944 120.325 202.097 120.307 202.251 120.306Z" fill="white"/>
<path d="M209.328 102.437C209.392 102.471 208.666 103.443 207.982 105.208C207.087 107.511 206.842 109.99 207.27 112.407C207.735 114.817 208.842 117.078 210.489 118.981C211.756 120.439 212.774 121.145 212.724 121.199C212.468 121.065 212.229 120.904 212.012 120.719C211.392 120.239 210.817 119.709 210.296 119.134C208.554 117.235 207.384 114.936 206.907 112.474C206.466 110.008 206.747 107.477 207.719 105.148C208.013 104.454 208.373 103.785 208.794 103.15C208.941 102.894 209.121 102.655 209.328 102.437V102.437Z" fill="white"/>
<path d="M171.77 104.562C171.571 104.64 171.359 104.685 171.143 104.695C170.561 104.786 169.974 104.846 169.385 104.875C168.504 104.928 167.619 104.863 166.757 104.682C165.673 104.451 164.684 103.93 163.909 103.183C163.084 102.424 162.485 101.598 161.823 100.912C161.275 100.3 160.626 99.7742 159.901 99.3539C159.22 98.9883 158.456 98.7783 157.672 98.7411C157.88 98.6724 158.102 98.6496 158.32 98.6745C158.92 98.7064 159.505 98.8658 160.029 99.1407C160.806 99.5446 161.501 100.075 162.08 100.706C162.742 101.372 163.375 102.211 164.166 102.937C164.888 103.635 165.802 104.132 166.807 104.376C167.637 104.562 168.489 104.647 169.342 104.629C170.88 104.562 171.77 104.475 171.77 104.562Z" fill="white"/>
<path d="M170.339 307.372C170.239 307.372 170.154 300.393 170.154 291.781C170.154 283.17 170.239 276.19 170.339 276.19C170.439 276.19 170.524 283.17 170.524 291.781C170.524 300.393 170.446 307.372 170.339 307.372Z" fill="#263238"/>
<path d="M173.493 299.36C173.386 299.36 173.308 292.381 173.308 283.769C173.308 275.158 173.386 268.178 173.493 268.178C173.6 268.178 173.678 275.158 173.678 283.769C173.678 292.381 173.593 299.36 173.493 299.36Z" fill="#263238"/>
<path d="M320.628 317.769C320.628 317.862 256.761 317.942 178.007 317.942C99.2528 317.942 35.3722 317.862 35.3722 317.769C35.3722 317.675 99.2243 317.595 178.007 317.595C256.79 317.595 320.628 317.682 320.628 317.769Z" fill="#263238"/>
</svg>
