<svg width="312" height="286" viewBox="0 0 312 286" fill="none" xmlns="http://www.w3.org/2000/svg">
<path d="M261.013 18.8875H256.888V100.947H261.013V18.8875Z" fill="#E0E0E0"/>
<path d="M256.196 19.5167H197.097C197.062 19.5167 197.034 19.5423 197.034 19.5739V100.26C197.034 100.292 197.062 100.317 197.097 100.317H256.196C256.23 100.317 256.258 100.292 256.258 100.26V19.5739C256.258 19.5423 256.23 19.5167 256.196 19.5167Z" fill="#F5F5F5"/>
<path d="M256.888 100.952H196.41C196.394 100.951 196.379 100.945 196.368 100.934C196.356 100.924 196.349 100.91 196.348 100.895V18.9447C196.349 18.9299 196.356 18.9161 196.368 18.9056C196.379 18.8952 196.394 18.8887 196.41 18.8875H256.888C256.904 18.8887 256.919 18.8952 256.931 18.9056C256.942 18.9161 256.949 18.9299 256.951 18.9447V100.895C256.949 100.91 256.942 100.924 256.931 100.934C256.919 100.945 256.904 100.951 256.888 100.952ZM197.808 99.6939H255.54C255.557 99.6926 255.572 99.6861 255.583 99.6757C255.594 99.6652 255.601 99.6514 255.603 99.6367V20.2031C255.601 20.1883 255.594 20.1745 255.583 20.164C255.572 20.1536 255.557 20.1471 255.54 20.1459H197.808C197.792 20.1471 197.777 20.1536 197.765 20.164C197.754 20.1745 197.747 20.1883 197.746 20.2031V99.6367C197.747 99.6514 197.754 99.6652 197.765 99.6757C197.777 99.6861 197.792 99.6926 197.808 99.6939V99.6939Z" fill="#EBEBEB"/>
<path d="M250.343 24.5045H203.062C203.028 24.5045 203 24.5301 203 24.5617V95.2265C203 95.2581 203.028 95.2837 203.062 95.2837H250.343C250.377 95.2837 250.405 95.2581 250.405 95.2265V24.5617C250.405 24.5301 250.377 24.5045 250.343 24.5045Z" fill="white"/>
<path d="M239.916 44.5703H213.377C213.356 44.5703 213.339 44.5856 213.339 44.6046V73.1302C213.339 73.1492 213.356 73.1645 213.377 73.1645H239.916C239.936 73.1645 239.953 73.1492 239.953 73.1302V44.6046C239.953 44.5856 239.936 44.5703 239.916 44.5703Z" fill="#EBEBEB"/>
<path d="M237.85 69.6639C237.888 69.7554 236.571 70.2874 234.069 70.0186C232.535 69.833 231.076 69.2981 229.825 68.4627C228.125 67.302 226.95 65.6079 226.525 63.7037C226.277 62.5133 226.377 61.2839 226.815 60.1406C227.254 58.9973 228.015 57.9808 229.02 57.1943C229.592 56.7569 230.239 56.4108 230.936 56.1704C231.701 55.9108 232.523 55.8225 233.332 55.913C234.22 55.9945 235.056 56.3308 235.722 56.874C236.098 57.1956 236.381 57.5973 236.546 58.0433C236.712 58.4894 236.755 58.966 236.671 59.4308C236.488 60.2693 236.028 61.036 235.354 61.6273C234.768 62.1608 234.102 62.6153 233.376 62.9772C231.906 63.7249 230.269 64.1534 228.59 64.2299C226.816 64.3189 225.049 63.9503 223.492 63.166C221.886 62.3444 220.583 61.1041 219.748 59.6024C218.883 58.0644 218.644 56.2939 219.074 54.6089C219.499 52.9809 220.51 51.5319 221.944 50.4962C222.663 49.9891 223.48 49.6124 224.353 49.3865C225.237 49.1685 226.164 49.1411 227.061 49.3064C228.01 49.4732 228.873 49.919 229.52 50.5763C230.139 51.2506 230.482 52.1027 230.487 52.9844C230.499 53.7837 230.284 54.5721 229.863 55.2724C229.467 55.9075 228.952 56.4731 228.34 56.9426C227.247 57.789 225.971 58.4147 224.596 58.7788C223.311 59.1228 221.962 59.2182 220.634 59.059C219.395 58.9044 218.212 58.4894 217.177 57.8464C216.288 57.309 215.534 56.604 214.966 55.7784C214.398 54.9528 214.029 54.0256 213.882 53.0588C213.71 51.5956 214.157 50.1278 215.13 48.9575C215.702 48.2239 216.484 47.6498 217.389 47.2987C218.013 47.0871 218.363 47.0928 218.381 47.1443C218.4 47.1958 218.101 47.3502 217.595 47.6591C216.879 48.1067 216.279 48.6924 215.835 49.3751C215.149 50.4265 214.895 51.6677 215.118 52.8757C215.294 53.6557 215.646 54.3933 216.151 55.0415C216.656 55.6896 217.303 56.2339 218.051 56.6395C218.943 57.12 219.937 57.4188 220.967 57.5155C221.996 57.6122 223.036 57.5046 224.016 57.2C225.132 56.8708 226.162 56.3354 227.042 55.627C227.47 55.3148 227.818 54.9205 228.062 54.4719C228.305 54.0233 228.439 53.5311 228.453 53.0302C228.451 52.5705 228.264 52.1276 227.927 51.7866C227.591 51.4456 227.129 51.2305 226.631 51.1826C226.053 51.0896 225.46 51.117 224.896 51.2627C224.3 51.4296 223.743 51.6973 223.255 52.052C222.22 52.8231 221.493 53.8874 221.189 55.0779C220.88 56.3033 221.059 57.5898 221.695 58.7044C222.334 59.8533 223.331 60.8028 224.559 61.4328C225.761 62.0421 227.124 62.3332 228.496 62.2737C229.852 62.2218 231.176 61.8893 232.371 61.3013C232.937 61.0371 233.458 60.7 233.919 60.3003C234.298 59.9982 234.572 59.6002 234.705 59.1563C234.744 58.9871 234.735 58.8117 234.679 58.6466C234.624 58.4815 234.523 58.3321 234.387 58.2125C234.03 57.9209 233.583 57.7388 233.108 57.692C232.601 57.6241 232.084 57.6652 231.598 57.8121C231.089 57.9718 230.615 58.2097 230.194 58.5156C229.393 59.1011 228.774 59.8686 228.397 60.7417C228.02 61.6147 227.9 62.563 228.047 63.492C228.334 65.0973 229.235 66.5569 230.587 67.6104C231.645 68.4163 232.892 68.9878 234.231 69.2807C236.496 69.7268 237.831 69.4923 237.85 69.6639Z" fill="#E0E0E0"/>
<path d="M132.388 14.8034H35.6554V174.088H132.388V14.8034Z" fill="#EBEBEB"/>
<path d="M127.527 19.4194H39.5241V169.341H127.527V19.4194Z" fill="#FAFAFA"/>
<path d="M136.475 175.524L132.388 174.088V12.1035H136.475V175.524Z" fill="#E0E0E0"/>
<path d="M129.436 62.5482H39.5241V64.1441H129.436V62.5482Z" fill="#E0E0E0"/>
<path d="M129.436 98.2524H39.5241V99.8483H129.436V98.2524Z" fill="#E0E0E0"/>
<path d="M129.436 133.957H39.5241V135.553H129.436V133.957Z" fill="#E0E0E0"/>
<path d="M81.3009 63.349L81.3009 173.596H85.7501V63.349H81.3009Z" fill="#E0E0E0"/>
<path d="M58.4813 19.4194H56.4658V63.3432H58.4813V19.4194Z" fill="#E0E0E0"/>
<path d="M75.8534 19.4194H73.8379V63.3432H75.8534V19.4194Z" fill="#E0E0E0"/>
<path d="M93.2256 19.4194H91.2101V63.3432H93.2256V19.4194Z" fill="#E0E0E0"/>
<path d="M110.598 19.4194H108.582V63.3432H110.598V19.4194Z" fill="#E0E0E0"/>
<path d="M35.6553 12.0978H31.5619V175.072H35.6553V12.0978Z" fill="#E0E0E0"/>
<path d="M136.475 10.4562H31.5619V14.8034H136.475V10.4562Z" fill="#E0E0E0"/>
<path d="M139.246 176.062H28.6603V180.111H139.246V176.062Z" fill="#E0E0E0"/>
<path d="M132.388 174.088L139.246 176.062H28.6603L35.6553 174.088H132.388Z" fill="#E0E0E0"/>
<path d="M100.058 88.7858C99.9773 88.7458 101.818 85.6055 104.158 81.7788C106.498 77.9522 108.47 74.8805 108.526 74.9148C108.582 74.9492 106.773 78.0952 104.426 81.9218C102.08 85.7485 100.14 88.8259 100.058 88.7858Z" fill="#E0E0E0"/>
<path d="M67.2547 122.677C67.1736 122.637 69.0082 119.502 71.3544 115.676C73.7007 111.849 75.66 108.777 75.7224 108.812C75.7848 108.846 73.9627 111.986 71.6165 115.813C69.2702 119.64 67.3296 122.717 67.2547 122.677Z" fill="#E0E0E0"/>
<path d="M88.3771 153.485C88.296 153.445 90.1368 150.31 92.4768 146.483C94.8168 142.657 96.7824 139.585 96.8448 139.619C96.9072 139.654 95.0851 142.794 92.7389 146.626C90.3926 150.459 88.452 153.531 88.3771 153.485Z" fill="#E0E0E0"/>
<path d="M58.9181 154.503C58.837 154.463 60.6778 151.328 63.0178 147.502C65.3578 143.675 67.3296 140.603 67.3858 140.638C67.4419 140.672 65.6261 143.812 63.2861 147.639C60.9461 151.466 58.9992 154.543 58.9181 154.503Z" fill="#E0E0E0"/>
<path d="M46.3507 82.0191C46.2696 81.9791 48.1104 78.8388 50.4504 75.0121C52.7904 71.1854 54.756 68.1138 54.8184 68.1481C54.8808 68.1824 53.0587 71.3284 50.7187 75.1551C48.3787 78.9818 46.4256 82.0591 46.3507 82.0191Z" fill="#E0E0E0"/>
<path d="M71.4979 83.3519C71.4168 83.3118 73.2576 80.1716 75.5976 76.3449C77.9376 72.5182 79.9032 69.4466 79.9656 69.4809C80.028 69.5152 78.2059 72.6612 75.8659 76.4879C73.5259 80.3146 71.5728 83.3919 71.4979 83.3519Z" fill="#E0E0E0"/>
<path d="M63.311 59.7855C63.2361 59.7454 65.0707 56.6109 67.4169 52.7842C69.7632 48.9575 71.7225 45.8859 71.7849 45.9202C71.8473 45.9545 70.0253 49.0948 67.679 52.9215C65.3328 56.7482 63.3921 59.8255 63.311 59.7855Z" fill="#E0E0E0"/>
<path d="M58.6185 94.38C58.5437 94.34 60.3782 91.2054 62.7245 87.3788C65.0707 83.5521 67.0301 80.4804 67.0925 80.5148C67.1549 80.5491 65.3515 83.6951 63.024 87.516C60.6965 91.337 58.6997 94.4258 58.6185 94.38Z" fill="#E0E0E0"/>
<path d="M101.568 58.9503C101.494 58.9103 103.328 55.7757 105.674 51.9491C108.021 48.1224 109.98 45.0507 110.042 45.0851C110.105 45.1194 108.289 48.2597 105.943 52.0863C103.596 55.913 101.65 58.9904 101.568 58.9503Z" fill="#E0E0E0"/>
<path d="M89.9434 97.629C89.8623 97.5889 91.7031 94.4544 94.0431 90.6277C96.3831 86.801 98.3549 83.7294 98.4111 83.7637C98.4672 83.798 96.6514 86.9383 94.3114 90.765C91.9714 94.5917 90.0245 97.669 89.9434 97.629Z" fill="#E0E0E0"/>
<path d="M56.0414 123.409C55.9665 123.369 57.8011 120.234 60.1474 116.408C62.4936 112.581 64.453 109.509 64.5154 109.544C64.5778 109.578 62.7557 112.718 60.4094 116.545C58.0632 120.372 56.1225 123.449 56.0414 123.409Z" fill="#E0E0E0"/>
<path d="M101.568 107.793C101.494 107.753 103.328 104.619 105.674 100.792C108.021 96.9655 109.98 93.8938 110.042 93.9281C110.105 93.9625 108.289 97.1027 105.943 100.929C103.596 104.756 101.65 107.833 101.568 107.793Z" fill="#E0E0E0"/>
<path d="M107.702 164.736C107.621 164.696 109.462 161.561 111.802 157.735C114.142 153.908 116.108 150.836 116.17 150.871C116.232 150.905 114.41 154.045 112.07 157.872C109.73 161.699 107.777 164.782 107.702 164.736Z" fill="#E0E0E0"/>
<path d="M46.8 160.234C46.7189 160.194 48.5597 157.054 50.8997 153.227C53.2397 149.401 55.2115 146.329 55.2677 146.363C55.3238 146.398 53.508 149.538 51.168 153.37C48.828 157.203 46.8936 160.274 46.8 160.234Z" fill="#E0E0E0"/>
<path d="M102.773 126.035C102.692 125.994 104.526 122.86 106.872 119.033C109.219 115.207 111.178 112.135 111.24 112.169C111.303 112.204 109.481 115.344 107.135 119.171C104.788 122.997 102.848 126.075 102.773 126.035Z" fill="#E0E0E0"/>
<path d="M93.3379 133.934C93.263 133.894 95.0976 130.759 97.4438 126.933C99.7901 123.106 101.749 120.034 101.812 120.069C101.874 120.103 100.052 123.243 97.7059 127.07C95.3597 130.896 93.419 133.974 93.3379 133.934Z" fill="#E0E0E0"/>
<path d="M118.766 79.1534C118.685 79.1134 120.519 75.9788 122.866 72.1521C125.212 68.3254 127.171 65.2538 127.234 65.2881C127.296 65.3224 125.474 68.4627 123.128 72.2894C120.781 76.1161 118.841 79.1935 118.766 79.1534Z" fill="#E0E0E0"/>
<path d="M113.568 52.727C113.487 52.6869 115.321 49.5524 117.668 45.7257C120.014 41.899 121.973 38.8274 122.036 38.8617C122.098 38.896 120.276 42.0363 117.93 45.863C115.584 49.6896 113.662 52.767 113.568 52.727Z" fill="#E0E0E0"/>
<path d="M296.656 120.366H252.183V162.86H296.656V120.366Z" fill="#E0E0E0"/>
<path d="M293.636 120.366H249.169V162.86H293.636V120.366Z" fill="#FAFAFA"/>
<path d="M293.654 162.871H249.157V120.355H293.654V162.871ZM249.188 162.871H293.63V120.377H249.188V162.871Z" fill="#E0E0E0"/>
<path d="M287.664 126.08H255.147V157.146H287.664V126.08Z" fill="white"/>
<path d="M255.147 157.352C254.921 157.667 254.653 157.955 254.349 158.209C253.831 158.713 253.101 159.394 252.283 160.131C251.466 160.869 250.711 161.527 250.155 161.99C249.873 162.261 249.559 162.503 249.219 162.711C249.444 162.396 249.713 162.11 250.018 161.859C250.536 161.355 251.266 160.675 252.084 159.937C252.901 159.199 253.662 158.536 254.218 158.066C254.496 157.796 254.808 157.556 255.147 157.352V157.352Z" fill="#E0E0E0"/>
<path d="M287.664 157.3C288.006 157.51 288.318 157.758 288.594 158.038C289.143 158.513 289.885 159.182 290.69 159.931C291.495 160.681 292.213 161.367 292.725 161.876C293.024 162.132 293.287 162.422 293.505 162.74C293.168 162.528 292.858 162.282 292.581 162.008C292.032 161.533 291.289 160.864 290.478 160.109C289.667 159.354 288.949 158.667 288.444 158.158C288.147 157.902 287.885 157.614 287.664 157.3Z" fill="#E0E0E0"/>
<path d="M287.577 126.16C287.806 125.849 288.074 125.563 288.375 125.308C288.893 124.805 289.623 124.124 290.441 123.386C291.258 122.648 292.013 121.99 292.569 121.521C292.848 121.249 293.162 121.009 293.505 120.806C293.279 121.119 293.013 121.405 292.712 121.659C292.188 122.156 291.464 122.843 290.64 123.581C289.817 124.318 289.062 124.982 288.513 125.445C288.233 125.718 287.919 125.958 287.577 126.16Z" fill="#E0E0E0"/>
<path d="M255.06 126.24C254.72 126.028 254.408 125.781 254.13 125.503C253.581 125.028 252.839 124.359 252.034 123.609C251.229 122.86 250.511 122.168 249.999 121.659C249.701 121.404 249.439 121.116 249.219 120.801C249.56 121.008 249.87 121.254 250.143 121.533C250.692 122.008 251.435 122.677 252.246 123.432C253.057 124.187 253.775 124.873 254.28 125.382C254.579 125.637 254.841 125.925 255.06 126.24V126.24Z" fill="#E0E0E0"/>
<path d="M287.577 157.146C287.57 157.096 287.57 157.046 287.577 156.997C287.577 156.888 287.577 156.745 287.577 156.562C287.577 156.173 287.577 155.613 287.577 154.886C287.577 153.416 287.577 151.271 287.545 148.554C287.545 143.114 287.508 135.358 287.483 126.08L287.608 126.195H255.16L255.303 126.063C255.303 137.463 255.303 148.131 255.303 157.128L255.178 157.014L278.66 157.077L285.255 157.106H286.996H287.028H285.305L278.735 157.134L255.178 157.191H255.06V157.077C255.06 148.079 255.06 137.412 255.06 126.012V125.88H255.21H287.658H287.783V125.994C287.783 135.307 287.733 143.08 287.72 148.543C287.72 151.248 287.72 153.382 287.683 154.835C287.683 155.555 287.683 156.105 287.683 156.494C287.683 156.671 287.683 156.808 287.683 156.911C287.683 157.014 287.577 157.151 287.577 157.146Z" fill="#E0E0E0"/>
<path d="M276.831 136.639H265.98V146.586H276.831V136.639Z" fill="#EBEBEB"/>
<path d="M293.935 275.029C293.935 275.109 232.159 275.178 156.031 275.178C79.9032 275.178 18.096 275.132 18.096 275.029C18.096 274.926 79.872 274.88 156.037 274.88C232.203 274.88 293.935 274.943 293.935 275.029Z" fill="#263238"/>
<path d="M33.8145 252.458L37.8955 277.025H61.595L67.0925 252.813L33.8145 252.458Z" fill="#FF725E"/>
<path d="M63.779 268.205C63.779 268.274 57.7075 268.331 50.2195 268.331C42.7315 268.331 36.6537 268.274 36.6537 268.205C36.6537 268.136 42.7253 268.079 50.2195 268.079C57.7138 268.079 63.779 268.136 63.779 268.205Z" fill="#FAFAFA"/>
<path d="M63.8726 266.998C63.8726 267.067 57.7574 267.124 50.2195 267.124C42.6816 267.124 36.5664 267.067 36.5664 266.998C36.5664 266.929 42.6754 266.867 50.2195 266.867C57.7637 266.867 63.8726 266.924 63.8726 266.998Z" fill="#FAFAFA"/>
<path d="M63.8227 265.631C63.8227 265.7 57.7138 265.757 50.1696 265.757C42.6254 265.757 36.5165 265.7 36.5165 265.631C36.5165 265.562 42.6317 265.505 50.1696 265.505C57.7075 265.505 63.8227 265.562 63.8227 265.631Z" fill="#FAFAFA"/>
<path d="M40.6161 275.624C40.285 274.614 40.0429 273.581 39.8923 272.535C39.6521 271.507 39.4998 270.462 39.4368 269.412C39.7679 270.424 40.012 271.459 40.1669 272.507C40.4068 273.533 40.557 274.575 40.6161 275.624Z" fill="#FAFAFA"/>
<path d="M42.2323 275.367C42.0602 274.367 41.9601 273.358 41.9328 272.346C41.8122 271.342 41.7622 270.331 41.783 269.321C42.2069 271.311 42.3578 273.342 42.2323 275.367V275.367Z" fill="#FAFAFA"/>
<path d="M45.1651 275.366C44.8452 274.357 44.6361 273.32 44.5411 272.272C44.3605 271.232 44.2999 270.178 44.3602 269.126C44.5724 270.155 44.7245 271.194 44.8157 272.238C45.0012 273.273 45.1179 274.318 45.1651 275.366V275.366Z" fill="#FAFAFA"/>
<path d="M47.2306 275.492C46.8659 273.412 46.7904 271.298 47.0059 269.2C47.133 270.247 47.1914 271.299 47.1806 272.352C47.2667 273.397 47.2834 274.446 47.2306 275.492V275.492Z" fill="#FAFAFA"/>
<path d="M50.881 275.367C50.7077 274.379 50.6242 273.381 50.6314 272.381C50.5344 271.385 50.5344 270.384 50.6314 269.389C50.8049 270.374 50.8884 271.371 50.881 272.369C50.9702 273.367 50.9702 274.369 50.881 275.367V275.367Z" fill="#FAFAFA"/>
<path d="M53.5448 275.492C53.3856 273.437 53.4043 271.373 53.6006 269.321C53.7681 271.376 53.7494 273.44 53.5448 275.492V275.492Z" fill="#FAFAFA"/>
<path d="M56.0477 275.166C56.0228 274.088 56.0917 273.009 56.2536 271.94C56.3215 270.863 56.4801 269.792 56.7278 268.737C56.7568 269.816 56.6901 270.895 56.5282 271.963C56.4602 273.041 56.2995 274.112 56.0477 275.166V275.166Z" fill="#FAFAFA"/>
<path d="M59.28 274.846C59.2858 273.919 59.42 272.996 59.6794 272.1C59.8374 271.188 60.1226 270.298 60.528 269.452C60.378 270.362 60.1696 271.264 59.904 272.152C59.7505 273.06 59.5422 273.959 59.28 274.846Z" fill="#FAFAFA"/>
<path d="M56.9899 203.969C56.996 204.011 56.996 204.054 56.9899 204.095L56.8776 204.439C56.7653 204.765 56.6155 205.205 56.4283 205.766C56.2411 206.326 55.979 207.041 55.7294 207.871C55.4798 208.7 55.1554 209.621 54.8746 210.668C54.5938 211.714 54.2506 212.853 53.951 214.1C53.6515 215.347 53.327 216.656 53.04 218.052C52.4722 220.855 51.9542 223.955 51.5861 227.204C51.2179 230.453 51.0806 233.611 51.0307 236.459C51.0307 237.883 51.0307 239.239 51.0744 240.503C51.1181 241.767 51.1742 242.951 51.2429 244.027C51.3115 245.102 51.4051 246.074 51.4738 246.927C51.5424 247.779 51.6298 248.517 51.7046 249.112C51.7795 249.707 51.8232 250.159 51.8606 250.496C51.8606 250.639 51.8606 250.759 51.8918 250.856C51.8973 250.898 51.8973 250.94 51.8918 250.982C51.8831 250.943 51.8831 250.902 51.8918 250.862C51.8918 250.765 51.8544 250.645 51.8294 250.502L51.6235 249.123C51.5299 248.551 51.4301 247.796 51.349 246.944C51.2678 246.092 51.1368 245.119 51.0682 244.038C50.9995 242.957 50.9059 241.784 50.8685 240.515C50.831 239.245 50.8061 237.889 50.7998 236.459C50.7998 233.599 50.987 230.465 51.3365 227.181C51.6859 223.898 52.2288 220.798 52.8091 217.995C53.1274 216.594 53.4331 215.261 53.7514 214.031C54.0696 212.801 54.3754 211.651 54.7123 210.599C55.0493 209.546 55.3363 208.626 55.6046 207.802C55.873 206.978 56.1288 206.28 56.3472 205.714C56.5656 205.148 56.7278 204.719 56.8464 204.398L56.9837 204.061C56.9822 204.03 56.9843 204 56.9899 203.969V203.969Z" fill="#455A64"/>
<path d="M52.7155 219.185C53.3659 217.416 54.6675 215.909 56.3971 214.923C56.6667 214.725 56.9855 214.591 57.3251 214.533C57.6648 214.476 58.0148 214.496 58.344 214.592C59.1739 214.958 59.2425 216.027 58.968 216.834C58.5461 218.212 57.5926 219.403 56.2848 220.186C55.1294 220.97 53.6832 221.305 52.26 221.118" fill="#455A64"/>
<path d="M51.2741 229.458C51.8981 227.341 53.7326 224.31 55.6421 223.011C55.934 222.79 56.2714 222.625 56.6342 222.525C56.8174 222.478 57.0104 222.473 57.1964 222.51C57.3824 222.546 57.5557 222.624 57.7013 222.737C57.865 222.935 57.9724 223.167 58.0138 223.413C58.0552 223.659 58.0292 223.91 57.9384 224.144C57.5418 225.687 56.6864 227.1 55.467 228.225C54.2476 229.35 52.712 230.143 51.0307 230.516" fill="#455A64"/>
<path d="M50.8747 238.524C51.8297 236.5 53.3544 234.745 55.2926 233.439C55.4989 233.265 55.7409 233.131 56.0046 233.045C56.2682 232.958 56.5481 232.921 56.8277 232.936C57.6701 233.079 58.0757 234.011 57.9758 234.789C57.8198 236.39 56.4907 237.649 55.1117 238.667C53.8481 239.467 52.4763 240.113 51.0307 240.589" fill="#455A64"/>
<path d="M51.0993 245.005C52.0158 243.461 53.2945 242.123 54.8433 241.087C55.1729 240.854 55.5577 240.695 55.9665 240.623C56.1713 240.589 56.3824 240.606 56.577 240.674C56.7717 240.741 56.9425 240.856 57.071 241.007C57.4517 241.516 57.071 242.202 56.6904 242.688C55.3659 244.38 53.4887 245.642 51.3302 246.292" fill="#455A64"/>
<path d="M50.9121 242.362C49.2945 240.555 47.5004 238.888 45.552 237.38C45.4213 237.241 45.2546 237.134 45.0671 237.069C44.8796 237.004 44.6773 236.983 44.4787 237.008C44.3357 237.063 44.2133 237.155 44.1268 237.273C44.0403 237.391 43.9934 237.53 43.992 237.672C43.9872 237.955 44.0557 238.235 44.1917 238.49C44.8319 239.798 45.7862 240.957 46.9834 241.88C48.1806 242.803 49.5897 243.467 51.1056 243.821" fill="#455A64"/>
<path d="M51.0869 233.902C49.6766 232.335 48.2705 230.764 46.8686 229.189C46.4938 228.719 46.0286 228.316 45.4958 227.999C45.2253 227.848 44.9144 227.767 44.5973 227.767C44.2802 227.767 43.9692 227.848 43.6987 227.999C43.4531 228.183 43.2689 228.426 43.1673 228.701C43.0658 228.977 43.051 229.273 43.1246 229.555C43.2793 230.113 43.5599 230.635 43.9483 231.088C44.7691 232.245 45.8088 233.258 47.0184 234.08C48.2664 234.858 49.3833 235.367 50.8685 235.166" fill="#455A64"/>
<path d="M51.6734 224.378C50.8439 222.122 49.3778 220.107 47.424 218.538C47.114 218.263 46.7313 218.066 46.3133 217.966C45.8844 217.938 45.4579 218.046 45.1057 218.272C44.7534 218.498 44.4967 218.829 44.3789 219.208C44.2466 219.636 44.2127 220.085 44.2793 220.526C44.3459 220.967 44.5115 221.391 44.7658 221.77C45.2873 222.512 45.9638 223.151 46.7563 223.652C48.1774 224.648 49.7611 225.431 51.4488 225.974" fill="#455A64"/>
<path d="M53.3582 215.884C52.9464 213.156 51.3989 210.879 49.6142 208.671C49.2336 208.202 48.7032 207.71 48.0792 207.796C47.8812 207.837 47.6971 207.921 47.5427 208.042C47.3883 208.162 47.2683 208.316 47.1931 208.488C47.0549 208.838 46.9996 209.21 47.0309 209.581C47.108 211.236 47.7155 212.834 48.7775 214.175C49.8396 215.516 51.3091 216.54 53.0025 217.12" fill="#455A64"/>
<path d="M54.5376 211.548C54.3424 210.149 54.2901 208.736 54.3816 207.327C54.4785 205.909 55.0106 204.545 55.9167 203.392C56.2952 202.883 56.8262 202.486 57.4455 202.248C57.7529 202.137 58.0863 202.099 58.4139 202.139C58.7415 202.179 59.0525 202.295 59.3175 202.477C59.5395 202.67 59.711 202.906 59.8191 203.169C59.9271 203.431 59.969 203.713 59.9415 203.992C59.8891 204.553 59.7285 205.101 59.4672 205.611C58.344 208.088 56.472 210.833 54.5127 211.526" fill="#455A64"/>
<path d="M36.192 214.809C36.2066 214.923 36.2066 215.038 36.192 215.152C36.192 215.404 36.192 215.724 36.192 216.147C36.192 216.571 36.192 217.103 36.192 217.715C36.192 218.327 36.192 219.019 36.2731 219.791C36.348 221.324 36.5102 223.154 36.7661 225.173C37.0219 227.193 37.3901 229.401 37.933 231.7C38.4758 233.999 39.0874 236.156 39.7238 238.106C40.3603 240.057 41.028 241.779 41.6333 243.214C41.9203 243.941 42.2198 244.576 42.4694 245.148C42.719 245.72 42.9437 246.2 43.1309 246.589L43.5552 247.504C43.6122 247.608 43.6562 247.718 43.6862 247.83C43.6193 247.733 43.5589 247.632 43.5053 247.527C43.3867 247.298 43.2307 247.001 43.031 246.629C42.8314 246.257 42.588 245.765 42.3259 245.199C42.0638 244.633 41.7518 244.004 41.4523 243.283C40.8283 241.853 40.1482 240.12 39.4805 238.175C38.8128 236.23 38.195 234.057 37.6584 231.751C37.1218 229.446 36.816 227.227 36.5414 225.196C36.2669 223.166 36.1608 221.335 36.1109 219.797C36.0672 219.024 36.0734 218.327 36.0672 217.715C36.061 217.103 36.0672 216.571 36.0672 216.142C36.0672 215.713 36.0672 215.404 36.1046 215.152C36.1239 215.036 36.1531 214.921 36.192 214.809V214.809Z" fill="#263238"/>
<path d="M36.816 226.009C36.8456 224.674 37.3793 223.39 38.3261 222.376C38.464 222.189 38.65 222.036 38.8676 221.931C39.0852 221.825 39.3278 221.77 39.5741 221.77C40.1981 221.856 40.5163 222.571 40.5413 223.172C40.576 224.192 40.2058 225.19 39.4992 225.98C38.9029 226.737 38.007 227.251 37.0032 227.41" fill="#263238"/>
<path d="M38.2574 233.29C38.1763 231.723 38.7254 229.286 39.7176 228.034C39.8657 227.824 40.0589 227.645 40.2854 227.507C40.3987 227.439 40.5283 227.397 40.6631 227.386C40.7979 227.374 40.9338 227.392 41.0592 227.439C41.2169 227.542 41.344 227.68 41.429 227.84C41.5139 228 41.5541 228.176 41.5459 228.354C41.6459 229.487 41.3985 230.622 40.8318 231.633C40.2651 232.644 39.4015 233.489 38.3385 234.074" fill="#263238"/>
<path d="M40.1107 239.525C40.2816 237.958 40.9064 236.461 41.9203 235.189C42.0174 235.026 42.1499 234.882 42.3098 234.767C42.4697 234.651 42.6535 234.568 42.8501 234.52C43.4741 234.451 43.9296 235.012 44.0606 235.555C44.3352 236.699 43.7299 237.809 43.0248 238.759C42.3535 239.554 41.571 240.266 40.6973 240.875" fill="#263238"/>
<path d="M41.808 243.907C42.0654 242.665 42.6242 241.492 43.4429 240.475C43.6028 240.254 43.8164 240.069 44.0669 239.937C44.1986 239.874 44.3466 239.844 44.495 239.852C44.6435 239.86 44.7867 239.905 44.9093 239.983C45.2899 240.251 45.2026 240.789 45.0466 241.201C44.5382 242.612 43.558 243.841 42.2448 244.713" fill="#263238"/>
<path d="M41.0405 242.145C39.5074 241.223 37.8842 240.434 36.192 239.788C36.0693 239.722 35.9309 239.683 35.7886 239.676C35.6463 239.669 35.5043 239.694 35.3745 239.748C35.2849 239.816 35.2196 239.906 35.1873 240.008C35.155 240.11 35.1572 240.219 35.1936 240.32C35.2748 240.509 35.403 240.677 35.568 240.812C36.3094 241.58 37.2303 242.185 38.2622 242.581C39.294 242.977 40.4101 243.154 41.5272 243.1" fill="#263238"/>
<path d="M39.1685 236.35L35.1936 233.948C34.8288 233.703 34.4187 233.521 33.983 233.41C33.7664 233.347 33.5337 233.347 33.3171 233.41C33.1005 233.474 32.9106 233.597 32.7737 233.763C32.6368 233.93 32.5595 234.131 32.5526 234.339C32.5456 234.547 32.6094 234.752 32.735 234.926C32.9705 235.28 33.2853 235.584 33.6586 235.818C34.489 236.445 35.436 236.93 36.4541 237.248C36.909 237.425 37.3982 237.517 37.8924 237.517C38.3866 237.517 38.8758 237.425 39.3307 237.248" fill="#263238"/>
<path d="M37.3339 229.75C36.2396 228.377 34.7694 227.294 33.072 226.609C32.7977 226.476 32.4896 226.413 32.1797 226.426C31.8796 226.49 31.6131 226.648 31.4263 226.872C31.2395 227.097 31.144 227.374 31.1563 227.656C31.1662 227.973 31.2478 228.285 31.396 228.571C31.5443 228.858 31.7559 229.113 32.0174 229.321C32.5475 229.732 33.1601 230.045 33.8208 230.241C35.0235 230.638 36.2871 230.858 37.5648 230.894" fill="#263238"/>
<path d="M36.4853 223.652C35.568 221.873 33.9893 220.632 32.2358 219.482C32.0738 219.338 31.8733 219.235 31.6543 219.184C31.4353 219.132 31.2055 219.135 30.9878 219.19C30.8627 219.257 30.7573 219.351 30.6811 219.463C30.6049 219.576 30.5603 219.704 30.551 219.837C30.5393 220.101 30.5882 220.364 30.6946 220.609C31.1372 221.721 31.9269 222.689 32.9655 223.393C34.004 224.097 35.2454 224.505 36.5352 224.567" fill="#263238"/>
<path d="M36.2731 220.449C35.8082 219.53 35.4404 218.572 35.1749 217.589C34.9106 216.603 34.9516 215.569 35.2934 214.603C35.4406 214.189 35.7107 213.82 36.0734 213.539C36.2564 213.402 36.4748 213.31 36.7077 213.273C36.9405 213.236 37.1799 213.255 37.4025 213.327C37.6015 213.413 37.7768 213.539 37.9151 213.695C38.0535 213.852 38.1513 214.035 38.2013 214.231C38.2948 214.624 38.3138 215.028 38.2574 215.427C38.064 217.36 37.44 219.591 36.2731 220.449Z" fill="#263238"/>
<path d="M66.144 214.569C66.1531 214.683 66.1531 214.798 66.144 214.912C66.144 215.163 66.1565 215.495 66.1814 215.907C66.1814 216.336 66.1814 216.862 66.1814 217.474C66.1814 218.086 66.1814 218.784 66.1378 219.556C66.0878 221.101 65.9506 222.931 65.7072 224.962C65.4638 226.992 65.0832 229.206 64.559 231.511C64.0349 233.816 63.3859 235.984 62.737 237.935C62.088 239.885 61.3954 241.613 60.7651 243.043C60.4656 243.764 60.1411 244.398 59.8915 244.965C59.6419 245.531 59.3861 246.006 59.1801 246.395L58.7121 247.287C58.6624 247.393 58.6018 247.495 58.5312 247.59C58.5624 247.478 58.6063 247.368 58.6622 247.264L59.0866 246.355C59.2738 245.96 59.5046 245.474 59.748 244.908C59.9914 244.341 60.2971 243.701 60.5842 242.974C61.2082 241.544 61.8322 239.811 62.4936 237.866C63.155 235.921 63.7416 233.753 64.2845 231.46C64.8274 229.166 65.1768 226.952 65.4514 224.933C65.7259 222.914 65.8694 221.089 65.9443 219.551C66.0005 218.784 66.0005 218.086 66.0254 217.474C66.0504 216.862 66.0254 216.33 66.0254 215.907C66.0254 215.484 66.0254 215.169 66.0254 214.918C66.0494 214.797 66.0892 214.68 66.144 214.569V214.569Z" fill="#455A64"/>
<path d="M65.4638 225.768C65.4344 224.436 64.9006 223.154 63.9538 222.142C63.8161 221.954 63.6304 221.8 63.4128 221.694C63.1953 221.587 62.9525 221.531 62.7058 221.53C62.0818 221.616 61.7635 222.331 61.7386 222.931C61.7027 223.952 62.073 224.951 62.7806 225.74C63.3751 226.499 64.2718 227.013 65.2766 227.17" fill="#455A64"/>
<path d="M64.0286 233.05C64.1098 231.483 63.5606 229.046 62.5685 227.799C62.4188 227.589 62.2259 227.409 62.0006 227.267C61.8868 227.2 61.757 227.159 61.6222 227.148C61.4874 227.137 61.3518 227.156 61.2269 227.204C61.0688 227.306 60.9414 227.443 60.8563 227.602C60.7712 227.761 60.7313 227.937 60.7402 228.114C60.6395 229.246 60.8865 230.382 61.4533 231.393C62.0201 232.404 62.884 233.249 63.9475 233.834" fill="#455A64"/>
<path d="M62.1753 239.285C62.0035 237.718 61.3789 236.221 60.3657 234.949C60.265 234.79 60.131 234.651 59.9714 234.541C59.8118 234.43 59.6298 234.349 59.436 234.303C58.812 234.234 58.3565 234.8 58.2254 235.344C57.9509 236.459 58.5561 237.597 59.2613 238.547C59.9338 239.34 60.7162 240.05 61.5888 240.658" fill="#455A64"/>
<path d="M60.528 243.672C60.2677 242.431 59.7093 241.259 58.8931 240.24C58.7307 240.021 58.5177 239.837 58.2691 239.702C58.1359 239.64 57.9872 239.612 57.838 239.62C57.6889 239.628 57.5448 239.672 57.4205 239.748C57.0461 240.017 57.1334 240.555 57.2894 240.966C57.7943 242.379 58.7753 243.609 60.0912 244.479" fill="#455A64"/>
<path d="M61.2456 241.905C62.7743 240.988 64.3909 240.201 66.0754 239.554C66.1972 239.485 66.3354 239.446 66.4779 239.438C66.6204 239.43 66.7628 239.454 66.8928 239.508C66.9818 239.576 67.0465 239.667 67.0788 239.768C67.111 239.87 67.1093 239.979 67.0738 240.08C67.0109 240.275 66.8974 240.454 66.743 240.6C66.0016 241.368 65.0807 241.973 64.0489 242.369C63.017 242.765 61.901 242.943 60.7838 242.888" fill="#455A64"/>
<path d="M63.1176 236.11L67.0925 233.736C67.4556 233.488 67.8662 233.303 68.303 233.193C68.5254 233.139 68.7596 233.143 68.9798 233.203C69.2 233.264 69.3977 233.379 69.551 233.536C69.6705 233.712 69.7338 233.915 69.7338 234.122C69.7338 234.33 69.6705 234.533 69.551 234.709C69.3156 235.063 69.0008 235.367 68.6275 235.601C67.797 236.228 66.85 236.712 65.832 237.031C65.3775 237.21 64.8882 237.302 64.3937 237.302C63.8992 237.302 63.4098 237.21 62.9554 237.031" fill="#455A64"/>
<path d="M64.9522 229.509C66.0466 228.138 67.5169 227.057 69.2141 226.375C69.4889 226.242 69.7962 226.177 70.1064 226.186C70.4053 226.252 70.6704 226.41 70.8568 226.634C71.0433 226.858 71.1397 227.134 71.1298 227.416C71.1208 227.734 71.0396 228.047 70.8913 228.334C70.743 228.622 70.531 228.878 70.2687 229.086C69.7383 229.496 69.1257 229.807 68.4653 230.001C67.262 230.397 65.9989 230.619 64.7213 230.659" fill="#455A64"/>
<path d="M65.8008 223.395C66.7181 221.616 68.2968 220.374 70.0502 219.225C70.2129 219.081 70.4134 218.979 70.6322 218.928C70.851 218.877 71.0805 218.878 71.2982 218.933C71.4234 219 71.5287 219.093 71.6049 219.206C71.6811 219.319 71.7258 219.447 71.735 219.579C71.7464 219.845 71.6975 220.11 71.5915 220.357C71.1479 221.468 70.3577 222.436 69.3193 223.138C68.2808 223.841 67.0399 224.248 65.7509 224.31" fill="#455A64"/>
<path d="M66.0129 220.22C66.4738 219.299 66.8414 218.342 67.1112 217.36C67.3756 216.376 67.3345 215.344 66.9926 214.38C66.8485 213.964 66.5779 213.595 66.2126 213.316C66.029 213.178 65.8098 213.085 65.5759 213.047C65.3421 213.009 65.1015 213.027 64.8773 213.099C64.681 213.187 64.5083 213.313 64.3713 213.47C64.2344 213.626 64.1365 213.808 64.0848 214.002C63.9912 214.397 63.9722 214.803 64.0286 215.204C64.2158 217.108 64.8461 219.351 66.0129 220.209" fill="#455A64"/>
<path d="M31.0939 247.59V252.166C31.0906 252.406 31.1393 252.644 31.2373 252.866C31.3353 253.089 31.4806 253.291 31.6647 253.461C31.8488 253.632 32.068 253.767 32.3096 253.859C32.5512 253.95 32.8104 253.997 33.072 253.997H67.392C67.6514 253.997 67.9085 253.951 68.1485 253.861C68.3884 253.77 68.6065 253.637 68.7903 253.469C68.9741 253.301 69.1199 253.102 69.2194 252.882C69.3188 252.662 69.37 252.427 69.37 252.189V247.613L31.0939 247.59Z" fill="#FF725E"/>
<g opacity="0.4">
<path opacity="0.4" d="M34.0704 253.997L34.3574 255.461L66.0192 257.532L66.8242 253.997H34.0704Z" fill="black"/>
</g>
<path d="M171.563 182.497C173.088 174.966 172.976 167.233 171.234 159.741C169.492 152.25 166.153 145.148 161.41 138.842L117.443 145.803C113.219 161.579 118.616 179.219 131.171 190.676L171.563 182.497Z" fill="#FF725E"/>
<path d="M171.563 182.497C173.088 174.966 172.976 167.233 171.234 159.741C169.492 152.25 166.153 145.148 161.41 138.842L117.443 145.803C113.219 161.579 118.616 179.219 131.171 190.676L171.563 182.497Z" fill="#455A64"/>
<g opacity="0.3">
<path opacity="0.3" d="M170.227 154.892C168.58 152.862 166.599 151.079 164.355 149.607C163.838 149.211 163.212 148.954 162.546 148.863C162.116 148.877 161.694 148.972 161.307 149.142C160.919 149.312 160.574 149.554 160.293 149.853C159.473 150.603 158.842 151.51 158.444 152.508C158.047 153.506 157.892 154.571 157.991 155.63C158.196 157.649 159.332 159.634 158.771 161.619C158.521 162.349 158.093 163.018 157.518 163.574C156.944 164.13 156.239 164.559 155.457 164.827C153.888 165.355 152.209 165.551 150.546 165.399C146.422 165.154 142.465 163.895 138.578 162.602C134.69 161.31 130.784 159.96 126.678 159.525C122.572 159.09 118.186 159.668 114.86 161.916L117.137 161.681C122.955 163.155 128.635 165.052 134.123 167.356C138.372 169.14 142.646 171.2 147.314 171.514C151.457 171.789 155.601 170.639 159.282 168.866C162.964 167.093 166.246 164.707 169.503 162.339C170.433 161.771 171.192 160.998 171.712 160.091C172.505 158.352 171.444 156.396 170.227 154.892Z" fill="black"/>
</g>
<path d="M118.704 159.714C118.591 159.097 118.524 158.474 118.504 157.849C118.41 156.705 118.273 155.103 118.073 153.353C117.874 151.603 117.649 150.018 117.487 148.869C117.365 148.255 117.29 147.633 117.262 147.01C117.473 147.606 117.623 148.219 117.711 148.84C117.936 149.984 118.198 151.563 118.398 153.319C118.597 155.075 118.697 156.676 118.735 157.838C118.788 158.463 118.777 159.091 118.704 159.714V159.714Z" fill="#263238"/>
<path d="M152.73 165.165C152.308 164.223 151.831 163.303 151.301 162.408C149.929 160.299 148.168 158.423 146.097 156.865C144.016 155.312 141.805 153.912 139.483 152.678L137.386 151.534C137.121 151.406 136.871 151.254 136.637 151.082C136.919 151.178 137.19 151.297 137.448 151.437C137.96 151.683 138.696 152.043 139.601 152.507C141.969 153.698 144.215 155.084 146.309 156.648C148.411 158.223 150.172 160.146 151.501 162.316C151.892 162.977 152.224 163.666 152.493 164.376C152.602 164.63 152.681 164.895 152.73 165.165V165.165Z" fill="#263238"/>
<path d="M150.896 156.785C150.62 156.391 150.388 155.974 150.203 155.538C149.754 154.657 149.23 153.628 148.643 152.489C148.056 151.351 147.495 150.333 147.033 149.464C146.782 149.055 146.573 148.626 146.409 148.182C146.734 148.545 147.012 148.94 147.239 149.361C147.707 150.11 148.325 151.168 148.943 152.358C149.56 153.548 150.078 154.646 150.421 155.452C150.637 155.878 150.797 156.325 150.896 156.785V156.785Z" fill="#263238"/>
<path d="M167.631 125.903L167.388 127.619C165.913 130.199 164.762 132.924 163.956 135.741C162.639 140.38 159.682 148.897 159.931 152.678C160.181 156.459 168.717 161.945 168.717 161.945L175.431 144.882L177.26 136.136C177.26 136.136 176.062 126.789 174.87 126.355C173.678 125.92 167.631 125.903 167.631 125.903Z" fill="#263238"/>
<path d="M219.074 150.762L208.884 173.196L208.984 184.985L155.626 170.336L169.541 159.88L172.617 151.809L177.135 137.017L180.411 119.176L185.858 114.114L212.603 115.773L220.272 119.296C220.272 119.296 219.311 149.755 219.074 150.762Z" fill="#263238"/>
<path d="M179.269 117.883C179.269 117.883 173.378 121.802 171.3 130.593C169.223 139.385 170.364 145.145 170.364 145.145C170.364 145.145 186.963 128.185 187.113 127.768C187.262 127.35 186.008 120.177 186.008 120.177L179.269 117.883Z" fill="#FF725E"/>
<path d="M222.244 123.586C222.868 123.952 226.113 129.684 224.74 134.74C223.367 139.797 205.533 166 198.494 168.74C191.456 171.48 185.01 170.01 182.002 162.368C178.994 154.726 173.091 129.192 173.091 129.192L173.453 126.555L183.406 125.022L184.398 127.224C186.306 130.258 187.934 133.432 189.265 136.714C191.574 142.336 193.777 148.892 193.777 148.892L222.244 123.586Z" fill="#263238"/>
<path d="M222.244 123.586C222.244 123.586 222.075 123.752 221.738 124.055L220.241 125.405L214.531 130.553L193.864 149.023L193.715 149.16L193.652 148.972C192.504 145.625 191.231 142.108 189.783 138.418C188.312 134.581 186.468 130.873 184.273 127.339V127.339L183.275 125.142L183.444 125.228L173.472 126.721L173.603 126.595L173.241 129.232V129.18C174.452 134.328 175.737 139.728 177.154 145.196C177.94 148.234 178.732 151.237 179.562 154.177C179.974 155.647 180.405 157.106 180.848 158.541C181.291 159.977 181.759 161.401 182.339 162.768C182.881 164.126 183.661 165.393 184.648 166.521C185.606 167.629 186.835 168.514 188.236 169.106C189.61 169.663 191.103 169.929 192.604 169.884C194.093 169.84 195.566 169.587 196.972 169.135C197.321 169.037 197.652 168.9 197.995 168.786C198.334 168.674 198.662 168.536 198.975 168.374C199.287 168.219 199.599 168.019 199.873 167.842C200.148 167.665 200.441 167.442 200.716 167.236C201.783 166.386 202.79 165.475 203.73 164.507C205.602 162.62 207.28 160.663 208.859 158.741C211.979 154.892 214.712 151.162 217.096 147.702C219.48 144.241 221.508 141.044 223.105 138.149C223.879 136.691 224.64 135.329 224.846 133.951C225.055 132.702 225.055 131.431 224.846 130.181C224.572 128.443 224.028 126.75 223.23 125.154C223.025 124.739 222.794 124.336 222.537 123.947C222.447 123.815 222.342 123.693 222.225 123.581C222.261 123.603 222.294 123.628 222.325 123.655C222.411 123.741 222.49 123.833 222.562 123.929C222.838 124.313 223.082 124.714 223.292 125.131C224.116 126.725 224.682 128.42 224.971 130.164C225.181 131.427 225.181 132.711 224.971 133.974C224.765 135.381 223.997 136.759 223.236 138.224C221.651 141.135 219.617 144.338 217.258 147.816C214.899 151.294 212.179 155.023 209.04 158.89C207.468 160.818 205.789 162.78 203.905 164.685C202.961 165.662 201.948 166.581 200.872 167.436C200.591 167.653 200.304 167.853 200.017 168.059C199.73 168.265 199.393 168.448 199.087 168.631C198.764 168.8 198.426 168.943 198.076 169.06C197.727 169.18 197.39 169.318 197.034 169.421C195.608 169.879 194.114 170.136 192.604 170.181C191.048 170.236 189.499 169.966 188.074 169.392C186.629 168.782 185.362 167.868 184.373 166.727C183.365 165.574 182.566 164.28 182.008 162.894C181.422 161.516 180.973 160.086 180.511 158.65C180.049 157.214 179.631 155.75 179.213 154.274C178.383 151.328 177.59 148.331 176.81 145.288C175.406 139.808 174.102 134.42 172.898 129.272V129.22C173.029 128.311 173.154 127.407 173.266 126.584V126.481H173.385L183.337 124.959H183.456L183.506 125.062L184.498 127.259C186.705 130.809 188.553 134.537 190.021 138.395C191.468 142.068 192.729 145.608 193.871 148.966L193.652 148.914C202.345 141.215 209.489 134.895 214.463 130.485L220.197 125.422L221.701 124.107L222.244 123.586Z" fill="#455A64"/>
<path d="M157.192 169.163C157.192 169.163 157.26 169.083 157.416 168.957L158.109 168.385L160.699 166.378L169.435 159.748C169.702 159.392 169.922 159.008 170.09 158.604C171.076 156.316 171.775 154.08 172.411 152.112L172.442 152.238C172.022 151.692 171.692 151.093 171.463 150.459C171.232 149.887 171.045 149.315 170.882 148.743C170.604 147.803 170.396 146.848 170.258 145.883C170.168 145.261 170.12 144.634 170.115 144.007C170.111 143.783 170.126 143.559 170.159 143.337C170.196 143.559 170.213 143.783 170.208 144.007C170.246 144.436 170.29 145.071 170.433 145.86C170.592 146.825 170.815 147.78 171.101 148.72C171.276 149.252 171.469 149.812 171.725 150.39C171.947 150.99 172.264 151.557 172.667 152.072L172.717 152.135V152.203C172.05 154.416 171.261 156.596 170.352 158.736C170.175 159.177 169.934 159.595 169.634 159.977V159.977L160.824 166.532L158.172 168.471L157.448 168.98C157.37 169.049 157.284 169.111 157.192 169.163V169.163Z" fill="#455A64"/>
<path d="M114.853 253.619L113.418 267.999V273.33C113.418 275.349 111.634 274.972 109.425 274.978L82.5053 275.029C82.5053 275.029 81.2261 272.552 83.2104 271.774C85.1947 270.996 100.233 263.354 100.233 263.354L98.879 252.04L114.853 253.619Z" fill="#EBEBEB"/>
<path d="M114.853 253.619H114.56L113.724 253.545L110.542 253.259L98.879 252.16L99.0101 252.046C99.4157 255.352 99.8774 259.173 100.389 263.354V263.446L100.308 263.486L90.5611 268.405C88.8305 269.271 87.0605 270.142 85.2509 271.019L83.8718 271.666C83.4044 271.816 82.9785 272.058 82.6238 272.375C82.3356 272.738 82.2105 273.188 82.2744 273.633C82.3147 274.1 82.4413 274.556 82.6488 274.983L82.499 274.897H83.3664H103.715H108.289C109.025 274.897 109.762 274.897 110.479 274.897C111.167 274.961 111.861 274.904 112.526 274.732C112.805 274.59 113.028 274.372 113.164 274.109C113.301 273.845 113.344 273.549 113.287 273.262V271.414C113.287 270.23 113.287 269.086 113.287 267.982C113.755 263.566 114.13 259.974 114.392 257.497L114.71 254.637L114.797 253.888C114.797 253.716 114.835 253.625 114.835 253.625C114.842 253.705 114.842 253.785 114.835 253.865C114.835 254.048 114.835 254.288 114.772 254.603C114.716 255.266 114.629 256.227 114.516 257.463C114.286 259.974 113.949 263.578 113.531 268.028C113.531 269.114 113.531 270.258 113.531 271.46C113.531 272.032 113.531 272.655 113.531 273.273C113.551 273.599 113.5 273.926 113.381 274.234C113.315 274.398 113.213 274.548 113.081 274.674C112.949 274.8 112.789 274.899 112.613 274.966C111.915 275.163 111.181 275.231 110.454 275.166C109.737 275.166 109.013 275.166 108.27 275.166H103.696L83.3477 275.218H82.3742L82.3368 275.132C82.1131 274.672 81.976 274.181 81.9312 273.679C81.8621 273.16 82.0116 272.636 82.3493 272.215C82.4332 272.108 82.5366 272.015 82.655 271.94C82.7624 271.856 82.8821 271.787 83.0107 271.734C83.2541 271.614 83.4787 271.534 83.7096 271.425L85.0824 270.779C86.8982 269.91 88.6641 269.034 90.3926 268.176L100.146 263.28L100.071 263.406C99.5841 259.219 99.1349 255.398 98.748 252.092V251.954H98.8915L110.61 253.173L113.761 253.51L114.573 253.602C114.667 253.6 114.761 253.606 114.853 253.619V253.619Z" fill="#263238"/>
<path d="M107.49 274.834C107.546 274.834 107.603 274.365 107.858 273.65C108.183 272.715 108.73 271.858 109.461 271.14C110.191 270.423 111.087 269.864 112.083 269.503C112.844 269.217 113.331 269.132 113.331 269.086C112.87 269.064 112.41 269.137 111.983 269.298C110.923 269.625 109.967 270.187 109.2 270.933C108.439 271.683 107.894 272.596 107.615 273.588C107.472 273.989 107.429 274.416 107.49 274.834V274.834Z" fill="#263238"/>
<path d="M90.48 275.012C90.6441 274.734 90.7299 274.424 90.7296 274.108C90.7993 273.344 90.6282 272.578 90.2366 271.9C89.8336 271.233 89.2857 270.649 88.6267 270.184C88.3755 269.972 88.0806 269.809 87.7593 269.704C87.7593 269.744 88.0277 269.967 88.4769 270.344C89.0583 270.831 89.5531 271.399 89.9434 272.026C90.3071 272.661 90.4976 273.368 90.4987 274.085C90.4673 274.393 90.4611 274.703 90.48 275.012Z" fill="#263238"/>
<path d="M190.944 118.822C190.43 118.817 189.92 118.727 189.44 118.558C188.259 118.208 187.166 117.644 186.227 116.9C185.284 116.157 184.51 115.251 183.949 114.234C183.696 113.825 183.525 113.377 183.444 112.913C183.5 112.913 183.693 113.393 184.155 114.131C184.753 115.093 185.525 115.953 186.439 116.677C187.354 117.403 188.396 117.984 189.521 118.393C190.351 118.667 190.944 118.77 190.944 118.822Z" fill="#263238"/>
<path d="M101.943 175.798L73.919 211.749L87.7906 219.688L126.953 178.167L101.943 175.798Z" fill="#263238"/>
<path d="M85.9239 220.523L75.2161 231.82L73.2817 236.848C72.5453 238.753 70.9978 237.849 68.9137 237.174L43.5293 228.943C43.5293 228.943 43.2361 226.22 45.4013 226.083C47.5666 225.946 64.5207 223.383 64.5207 223.383L73.6311 212.406L85.9239 220.523Z" fill="#EBEBEB"/>
<path d="M85.9248 220.523L85.6939 220.386L85.0699 219.974L82.6114 218.378L73.5696 212.492H73.7256L64.6277 223.48L64.5902 223.52H64.5341L53.5142 225.162C51.5736 225.442 49.5955 225.734 47.5675 225.991L46.0387 226.174C45.5446 226.172 45.0563 226.272 44.6098 226.466C44.2093 226.72 43.9301 227.105 43.8298 227.542C43.703 227.991 43.6566 228.457 43.6925 228.92L43.5864 228.794L43.8485 228.88L63.3173 235.172L67.6853 236.596C68.3904 236.831 69.0955 237.048 69.7819 237.294C70.4208 237.568 71.1034 237.745 71.8037 237.82C71.9614 237.829 72.1194 237.808 72.2676 237.757C72.4159 237.707 72.5511 237.629 72.6648 237.529C72.8807 237.306 73.0443 237.045 73.1453 236.762C73.3762 236.19 73.6008 235.59 73.8254 235.046L75.0734 231.769L82.992 223.549L85.151 221.312L85.7189 220.74L85.9248 220.54C85.8747 220.611 85.8184 220.678 85.7563 220.74C85.6253 220.883 85.4443 221.072 85.2197 221.312L83.1168 223.566L75.3106 231.9V231.866L74.0626 235.143C73.8442 235.715 73.6195 236.287 73.3949 236.888C73.2803 237.205 73.0955 237.497 72.852 237.746C72.7135 237.871 72.5483 237.969 72.3669 238.033C72.1855 238.096 71.9916 238.126 71.7974 238.118C71.0654 238.044 70.3512 237.862 69.6821 237.58C69.0019 237.34 68.2968 237.123 67.5854 236.894L63.2174 235.475L43.7424 229.183L43.4803 229.097L43.3805 229.063V228.972C43.3423 228.472 43.3929 227.969 43.5302 227.484C43.6518 226.977 43.9798 226.531 44.4475 226.237C44.5645 226.163 44.6927 226.105 44.8282 226.066C44.9608 226.021 45.0993 225.992 45.24 225.98C45.5208 225.94 45.7517 225.934 46.0138 225.906L47.5363 225.723C49.5581 225.459 51.5424 225.151 53.4768 224.899L64.4966 223.274L64.403 223.326C67.8662 219.185 70.9738 215.455 73.5634 212.355L73.6258 212.275L73.7194 212.332L82.7237 218.355L85.1261 219.974L85.7501 220.392L85.9248 220.523Z" fill="#263238"/>
<path d="M87.7344 220.249L84.864 222.914C84.655 223.112 84.3731 223.232 84.0732 223.249C83.7734 223.267 83.4769 223.183 83.2416 223.011L72.1843 214.952C71.9547 214.776 71.802 214.53 71.7539 214.259C71.7057 213.988 71.7655 213.71 71.9222 213.476L74.0563 210.422C74.1473 210.291 74.267 210.18 74.4076 210.095C74.5482 210.01 74.7068 209.952 74.873 209.926C75.0393 209.9 75.2096 209.907 75.3731 209.945C75.5365 209.983 75.6895 210.052 75.8222 210.147L87.5909 218.595C87.7271 218.69 87.8401 218.81 87.9222 218.947C88.0043 219.085 88.0538 219.236 88.0674 219.392C88.0809 219.549 88.0583 219.706 88.0009 219.853C87.9435 220.001 87.8527 220.135 87.7344 220.249V220.249Z" fill="#EBEBEB"/>
<path d="M71.76 214.66C72.2313 215.174 72.7468 215.652 73.3013 216.09C74.2872 216.937 75.6787 218.075 77.2949 219.259C78.9111 220.443 80.4149 221.433 81.5693 222.119C82.1371 222.457 82.5989 222.72 82.9296 222.891C83.0896 222.997 83.2663 223.08 83.4538 223.137C82.8981 222.704 82.3124 222.305 81.7003 221.942C80.6021 221.221 79.1045 220.226 77.5008 219.03C75.8971 217.835 74.4807 216.742 73.4573 215.941C72.9262 215.477 72.3589 215.049 71.76 214.66V214.66Z" fill="#263238"/>
<path d="M81.9749 221.759C82.9644 221.345 83.8166 220.698 84.4447 219.884C85.0728 219.07 85.4544 218.118 85.5504 217.125C85.1973 218.031 84.7369 218.898 84.1776 219.711C83.5249 220.463 82.7864 221.15 81.9749 221.759Z" fill="#263238"/>
<path d="M77.507 219.27C78.3925 218.608 79.1866 217.849 79.872 217.011C80.6371 216.233 81.2933 215.37 81.8251 214.443C81.0306 215.188 80.2906 215.981 79.6099 216.817C78.8464 217.588 78.1436 218.408 77.507 219.27V219.27Z" fill="#263238"/>
<path d="M73.451 215.644C73.9773 214.778 74.6396 213.988 75.4166 213.299C76.2651 212.686 77.2069 212.191 78.2122 211.829C77.881 211.809 77.5495 211.862 77.245 211.983C76.4927 212.221 75.7978 212.59 75.1982 213.07C74.5958 213.549 74.1018 214.132 73.7443 214.786C73.5712 215.046 73.4705 215.34 73.451 215.644V215.644Z" fill="#263238"/>
<path d="M67.1362 236.442C67.1798 236.442 67.4045 236.03 67.9099 235.435C68.5595 234.655 69.3893 234.017 70.3397 233.566C71.2902 233.115 72.3378 232.863 73.4074 232.827C74.231 232.793 74.7427 232.873 74.7552 232.827C74.327 232.671 73.8678 232.599 73.4074 232.615C72.2891 232.593 71.1826 232.829 70.1894 233.301C69.1962 233.772 68.3481 234.465 67.7227 235.315C67.4371 235.645 67.2366 236.031 67.1362 236.442Z" fill="#263238"/>
<path d="M51.0245 231.374C51.2813 231.164 51.4766 230.899 51.5923 230.602C51.9363 229.901 52.0533 229.125 51.9293 228.365C51.7949 227.619 51.4932 226.906 51.0432 226.272C50.7 225.791 50.4192 225.528 50.4192 225.551C50.5248 225.844 50.6717 226.123 50.856 226.38C51.2258 227.016 51.4848 227.702 51.6235 228.411C51.733 229.121 51.6538 229.845 51.3926 230.522C51.2438 230.796 51.1206 231.081 51.0245 231.374V231.374Z" fill="#263238"/>
<path d="M129.012 176.313H114.036C110.375 176.303 106.802 177.337 103.811 179.272C100.82 181.207 98.5599 183.947 97.344 187.113V187.113C96.1727 190.16 95.6578 193.386 95.8277 196.614L98.4547 252.384L116.438 252.549L117.555 234.68L120.108 200.692L137.58 201.367L147.489 200.795L129.012 176.313Z" fill="#263238"/>
<path d="M111.952 192.364C111.914 192.467 114.017 192.936 116.257 194.228C118.498 195.521 119.933 196.98 120.001 196.905C119.778 196.518 119.48 196.171 119.122 195.881C117.507 194.376 115.515 193.257 113.318 192.621C112.883 192.461 112.42 192.374 111.952 192.364V192.364Z" fill="#263238"/>
<g opacity="0.3">
<path opacity="0.3" d="M147.17 200.801C143.102 201.493 138.628 200.349 135.133 198.352C131.642 196.353 129.115 193.206 128.07 189.555C127.627 187.942 127.489 186.272 127.046 184.659C126.691 183.003 125.726 181.508 124.313 180.426C122.604 179.282 118.398 178.515 117.144 176.954C117.144 176.719 122.136 177.246 123.802 177.331C125.624 177.423 128.681 177.846 128.619 177.652C128.619 177.652 129.836 181.57 130.379 182.422C134.023 188.142 142.01 196.562 147.17 200.801" fill="black"/>
</g>
<path d="M167.644 171.892C167.644 171.892 123.059 159.88 117.605 161.23C112.152 162.58 101.793 175.947 101.793 175.947L130.603 183.681L146.946 201.344L167.644 171.892Z" fill="#263238"/>
<path d="M98.4797 252.378C98.4797 252.378 98.4797 252.309 98.4797 252.178C98.4797 252.046 98.4797 251.823 98.4298 251.571C98.3923 250.999 98.3424 250.244 98.2738 249.249C98.1552 247.213 97.9805 244.295 97.7683 240.703C97.369 233.467 96.8198 223.509 96.2146 212.504C95.9213 206.995 95.6467 201.744 95.3971 196.974C95.2493 194.702 95.4192 192.422 95.9026 190.19C96.4211 188.26 97.2631 186.415 98.3986 184.722C99.2193 183.272 100.271 181.941 101.519 180.775C102.467 179.897 103.542 179.143 104.713 178.533C105.45 178.137 106.25 177.851 107.085 177.686C107.373 177.626 107.669 177.601 107.964 177.612C107.964 177.612 107.659 177.612 107.097 177.743C106.28 177.934 105.497 178.235 104.776 178.636C102.116 180.119 99.971 182.266 98.592 184.825C97.4883 186.509 96.6719 188.337 96.1709 190.247C95.7058 192.458 95.5485 194.715 95.7029 196.962C95.9587 201.739 96.2458 206.984 96.5453 212.487C97.1131 223.498 97.631 233.456 98.0054 240.692C98.1739 244.29 98.3112 247.207 98.411 249.243C98.4485 250.239 98.4797 251.016 98.5046 251.566V252.172C98.5075 252.241 98.499 252.311 98.4797 252.378Z" fill="#455A64"/>
<path d="M101.793 175.947C101.793 175.947 101.856 175.85 101.999 175.661L102.623 174.838C103.197 174.117 104.052 173.059 105.2 171.726C106.348 170.393 107.784 168.774 109.568 166.978C110.461 166.086 111.44 165.148 112.545 164.21C113.1 163.741 113.68 163.272 114.311 162.826C114.952 162.354 115.64 161.937 116.364 161.579C116.746 161.399 117.145 161.249 117.555 161.132L118.217 161.035H118.878C119.776 161.055 120.672 161.12 121.561 161.23C123.377 161.447 125.256 161.762 127.177 162.122C131.046 162.837 135.165 163.729 139.489 164.719C148.144 166.709 157.647 169.095 167.656 171.766L167.862 171.817L167.744 171.989L163.85 177.537L147.039 201.441L146.933 201.596L146.802 201.453C140.687 194.823 135.158 188.834 130.485 183.761L130.541 183.795L112.869 179.002L108.071 177.686L106.823 177.337C106.542 177.257 106.405 177.206 106.405 177.206L106.835 177.309L108.083 177.629L112.9 178.887L130.603 183.589L146.964 201.241H146.727L163.513 177.32L167.413 171.772L167.5 171.995C157.516 169.329 148 166.932 139.358 164.925C135.034 163.924 130.928 163.026 127.065 162.299C125.131 161.939 123.265 161.619 121.449 161.401C120.568 161.286 119.681 161.217 118.791 161.195H118.167L117.543 161.281C117.144 161.389 116.757 161.533 116.389 161.71C115.676 162.057 114.999 162.463 114.367 162.923C113.743 163.363 113.156 163.827 112.607 164.29C111.503 165.222 110.517 166.149 109.618 167.035C107.827 168.814 106.386 170.422 105.25 171.743C104.114 173.064 103.216 174.111 102.629 174.82L101.962 175.627C101.874 175.861 101.793 175.947 101.793 175.947Z" fill="#455A64"/>
<path d="M120.819 194.245C120.906 194.245 120.638 197.248 120.195 200.926C119.752 204.604 119.346 207.584 119.259 207.573C119.172 207.562 119.446 204.576 119.883 200.898C120.32 197.22 120.732 194.24 120.819 194.245Z" fill="#455A64"/>
<path d="M183.175 73.971C183.684 72.1115 184.723 70.4097 186.187 69.0403C187.651 67.6709 189.486 66.6833 191.503 66.179C193.521 65.6746 195.649 65.6718 197.668 66.1706C199.687 66.6695 201.525 67.6521 202.993 69.0175C204.185 70.1214 205.134 71.4771 206.538 72.3408C208.129 73.3246 208.36 73.0329 210.138 73.6793C211.917 74.3256 215.186 78.8673 215.13 80.6234L216.023 88.3168C215.948 90.1186 213.427 91.131 211.561 90.5418C209.695 89.9527 208.441 88.3625 207.486 86.801C206.532 85.2394 205.583 83.552 203.973 82.5167C201.302 80.8007 197.689 81.3727 194.488 81.9847C191.287 82.5968 187.624 83.0143 185.128 81.0867C182.957 79.4279 182.489 76.4706 183.175 73.971Z" fill="#263238"/>
<path d="M181.416 84.9534C181.771 79.9484 185.409 73.8108 190.85 74.3485L207.836 78.3525C208.633 78.431 209.37 78.7806 209.9 79.3322C210.43 79.8839 210.715 80.5976 210.7 81.3326L208.784 118.902H208.903C208.903 118.902 201.995 132.332 190.763 129.095C188.535 128.448 190.557 123.375 190.139 121.087H190.02C190.02 120.812 190.02 120.56 190.02 120.297C189.8 118.588 189.777 116.863 189.952 115.149V115.149C189.921 112.118 189.921 110.876 189.921 110.899C189.921 110.922 182.913 109.824 181.484 101.473C180.779 97.32 181.022 90.5189 181.416 84.9534Z" fill="#FFBE9D"/>
<path d="M183.986 91.6744C183.983 91.9538 184.098 92.2235 184.308 92.4264C184.518 92.6292 184.805 92.7493 185.11 92.7612C185.259 92.7713 185.408 92.7542 185.55 92.711C185.691 92.6678 185.822 92.5992 185.935 92.5094C186.048 92.4195 186.14 92.31 186.206 92.1873C186.272 92.0646 186.311 91.9311 186.32 91.7945C186.322 91.5161 186.206 91.2478 185.997 91.0462C185.787 90.8446 185.501 90.7253 185.197 90.7134C185.048 90.7025 184.899 90.7188 184.757 90.7614C184.616 90.804 184.485 90.872 184.372 90.9614C184.259 91.0509 184.167 91.16 184.101 91.2824C184.035 91.4048 183.996 91.538 183.986 91.6744Z" fill="#263238"/>
<path d="M183.019 88.4998C183.163 88.6371 184.049 88.0365 185.309 88.0422C186.57 88.0479 187.481 88.6142 187.618 88.4884C187.755 88.3625 187.537 88.1738 187.138 87.9164C186.591 87.5614 185.935 87.3769 185.266 87.3901C184.612 87.3847 183.973 87.5711 183.444 87.9221C183.082 88.1852 182.951 88.4369 183.019 88.4998Z" fill="#263238"/>
<path d="M195.343 91.743C195.338 92.0223 195.453 92.2922 195.663 92.4945C195.873 92.6967 196.162 92.8151 196.466 92.8241C196.615 92.8358 196.764 92.82 196.906 92.7777C197.048 92.7353 197.178 92.6673 197.291 92.5777C197.403 92.488 197.495 92.3785 197.56 92.2558C197.625 92.133 197.663 91.9995 197.671 91.8631C197.674 91.5843 197.559 91.3152 197.349 91.1133C197.139 90.9113 196.852 90.7925 196.548 90.7821C196.399 90.7704 196.25 90.7862 196.108 90.8285C195.966 90.8708 195.835 90.9389 195.723 91.0285C195.611 91.1182 195.519 91.2276 195.454 91.3504C195.389 91.4731 195.351 91.6067 195.343 91.743Z" fill="#263238"/>
<path d="M195.374 88.74C195.518 88.8773 196.404 88.2767 197.658 88.2824C198.912 88.2881 199.836 88.8544 199.973 88.7286C200.111 88.6027 199.892 88.414 199.493 88.1566C198.945 87.8038 198.29 87.6195 197.621 87.6303C196.967 87.6261 196.329 87.8124 195.799 88.1623C195.431 88.4254 195.312 88.6599 195.374 88.74Z" fill="#263238"/>
<path d="M190.788 97.2743C190.127 97.0784 189.441 96.963 188.748 96.9311C188.429 96.8968 188.124 96.8396 188.074 96.6394C188.045 96.3365 188.119 96.0329 188.286 95.7699C188.592 95.0549 188.91 94.3113 189.241 93.5277C190.57 90.3417 191.531 87.7219 191.387 87.6761C191.244 87.6304 190.058 90.1701 188.735 93.3561C188.417 94.1455 188.111 94.8948 187.818 95.6098C187.619 95.9618 187.56 96.3661 187.649 96.7538C187.697 96.8571 187.769 96.9494 187.861 97.0236C187.953 97.0979 188.062 97.1523 188.18 97.1828C188.356 97.2286 188.539 97.2517 188.723 97.2514C189.407 97.3382 190.101 97.3459 190.788 97.2743V97.2743Z" fill="#263238"/>
<path d="M189.889 110.899C194.178 110.97 198.404 109.946 202.095 107.942C202.095 107.942 198.975 113.748 189.889 112.947V110.899Z" fill="#EB996E"/>
<path d="M191.318 100.049C191.558 99.7733 191.869 99.5586 192.224 99.4245C192.579 99.2904 192.965 99.2413 193.346 99.282C193.624 99.3058 193.893 99.3803 194.139 99.5011C194.384 99.622 194.601 99.7867 194.775 99.9856C194.943 100.178 195.042 100.413 195.059 100.658C195.076 100.904 195.01 101.149 194.869 101.358C194.668 101.566 194.403 101.713 194.109 101.781C193.816 101.85 193.507 101.836 193.222 101.742C192.628 101.547 192.083 101.246 191.618 100.855C191.475 100.765 191.352 100.65 191.256 100.518C191.21 100.454 191.186 100.379 191.186 100.303C191.186 100.227 191.21 100.152 191.256 100.089" fill="#EB996E"/>
<path d="M194.488 98.0751C194.282 98.0751 194.276 99.3163 193.109 100.203C191.942 101.09 190.488 100.947 190.476 101.118C190.476 101.198 190.8 101.364 191.412 101.381C192.211 101.391 192.988 101.144 193.609 100.683C194.203 100.24 194.585 99.6019 194.676 98.9045C194.732 98.384 194.582 98.0694 194.488 98.0751Z" fill="#263238"/>
<path d="M195.069 84.3528C195.193 84.6674 196.448 84.5244 197.92 84.6903C199.393 84.8562 200.585 85.2222 200.784 84.942C200.872 84.8104 200.666 84.513 200.16 84.2098C199.518 83.8348 198.79 83.5997 198.033 83.5223C197.276 83.445 196.509 83.5276 195.792 83.7636C195.312 83.9581 195.019 84.2041 195.069 84.3528Z" fill="#263238"/>
<path d="M183.487 85.1651C183.712 85.4282 184.579 85.1651 185.615 85.1651C186.651 85.1651 187.537 85.3424 187.743 85.0678C187.83 84.9363 187.693 84.6731 187.312 84.4272C186.795 84.1273 186.193 83.9757 185.581 83.992C184.97 84.0083 184.377 84.1917 183.88 84.5187C183.512 84.7704 183.394 85.0392 183.487 85.1651Z" fill="#263238"/>
<path d="M191.15 72.215L191.924 71.3055C197.183 71.861 202.337 73.0675 207.243 74.8919C209.202 75.6184 211.187 76.4935 212.522 77.9979C214.394 80.0571 214.662 82.9056 214.868 85.5654C215.667 95.6956 216.328 106.129 212.853 115.767C212.016 114.537 210.357 113.982 208.822 113.708C207.287 113.433 205.633 113.336 204.229 112.678C203.459 112.303 202.784 111.783 202.246 111.154C201.709 110.524 201.322 109.798 201.109 109.023C200.701 107.46 200.9 105.816 201.671 104.373C202.519 102.765 204.023 101.215 203.655 99.465C203.287 97.7147 200.978 96.605 200.435 94.7861C199.505 91.6744 204.266 88.883 203.305 85.7828C203.081 85.2233 202.733 84.7118 202.285 84.28C201.836 83.8481 201.296 83.505 200.697 83.2717C199.53 82.7398 198.257 82.448 197.078 81.9447C195.127 81.0683 193.515 79.6673 192.456 77.9288C191.396 76.1903 190.941 74.197 191.15 72.215V72.215Z" fill="#263238"/>
<path d="M216.59 117.409C216.59 117.409 223.897 120.841 226.106 124.032C232.552 133.408 225.308 163.929 225.308 163.929C221.543 160.034 216.733 157.108 211.355 155.441L208.822 154.652C204.644 153.368 200.819 151.273 197.607 148.509C194.396 145.744 191.874 142.376 190.214 138.636L182.389 121.029L216.59 117.409Z" fill="#FF725E"/>
<path d="M202.993 69.0175C208.31 69.2863 210.675 70.3903 216.328 77.6547C222.637 85.7599 227.217 102.428 223.454 111.323C221.944 114.875 220.235 116.248 220.235 116.248L205.596 116.196L193.028 116.156L187.768 113.456C191.512 114.938 198.806 112.066 202.064 109.784C205.321 107.502 207.411 104.321 209.308 100.992C210.893 98.2123 212.073 95.5926 211.804 92.4695C211.567 89.8325 210.045 86.8696 208.934 84.4271" fill="#FF725E"/>
<path d="M226.755 124.971C226.755 124.971 223.604 119.045 219.498 115.819C215.392 112.592 212.865 112.592 207.018 113.044C201.171 113.496 192.08 114.143 190.139 113.696C189.702 113.593 190.07 110.939 190.07 110.939C189.109 110.848 185.902 109.544 185.135 108.48L183.356 112.896L182.395 113.227C180.979 113.703 179.802 114.64 179.091 115.859C178.38 117.079 178.183 118.496 178.539 119.84C178.901 121.121 179.787 121.91 181.559 122.191C188.598 123.335 207.411 118.644 213.084 118.616C218.756 118.587 226.755 124.971 226.755 124.971Z" fill="#FF725E"/>
<path d="M180.923 122.099C181.087 122.085 181.252 122.085 181.416 122.099C181.734 122.099 182.202 122.173 182.813 122.208C184.528 122.333 186.249 122.359 187.968 122.288C190.515 122.168 193.047 121.853 195.537 121.344C196.941 121.064 198.407 120.721 199.905 120.326L204.547 119.01C207.73 118.118 210.925 117.517 213.845 117.781C216.42 118 218.91 118.736 221.139 119.937C222.638 120.74 223.994 121.749 225.158 122.929C225.472 123.25 225.768 123.586 226.044 123.935C226.145 124.053 226.236 124.178 226.319 124.307C226.195 124.206 226.085 124.093 225.988 123.97C225.794 123.741 225.476 123.398 225.064 123.009C222.103 120.159 218.109 118.398 213.832 118.055C210.968 117.809 207.823 118.41 204.653 119.296C203.062 119.737 201.533 120.2 200.005 120.606C198.476 121.012 197.016 121.338 195.605 121.613C193.097 122.111 190.545 122.408 187.98 122.5C186.253 122.549 184.525 122.492 182.807 122.328C182.183 122.271 181.728 122.202 181.409 122.156C181.245 122.152 181.082 122.133 180.923 122.099Z" fill="#263238"/>
<path d="M187.113 109.75C187.165 109.858 187.205 109.971 187.231 110.087C187.306 110.31 187.412 110.659 187.581 111.048C187.786 111.549 188.032 112.034 188.317 112.501C188.681 113.113 189.158 113.663 189.727 114.125C190.557 114.487 191.478 114.635 192.392 114.554C193.464 114.524 194.533 114.43 195.593 114.274C196.716 114.12 197.889 113.914 199.1 113.674L200.972 113.296C201.596 113.187 202.251 113.062 202.906 112.999C205.362 112.65 207.848 112.518 210.332 112.604C212.368 112.691 214.371 113.118 216.241 113.862C217.505 114.362 218.661 115.065 219.654 115.939C219.921 116.176 220.171 116.428 220.403 116.694C220.487 116.785 220.562 116.882 220.628 116.985C220.628 116.985 220.278 116.614 219.567 116.024C218.557 115.197 217.404 114.53 216.154 114.051C214.296 113.357 212.318 112.97 210.313 112.907C207.85 112.837 205.385 112.974 202.95 113.319C202.288 113.388 201.664 113.513 201.04 113.616L199.168 113.988C197.949 114.228 196.772 114.419 195.637 114.56C194.565 114.713 193.483 114.799 192.398 114.818C191.431 114.893 190.46 114.719 189.596 114.314C189.008 113.827 188.522 113.245 188.161 112.598C187.881 112.12 187.648 111.62 187.462 111.105C187.344 110.783 187.247 110.454 187.169 110.121C187.136 110 187.117 109.875 187.113 109.75V109.75Z" fill="#263238"/>
<g opacity="0.3">
<path opacity="0.3" d="M211.917 117.986C207.018 117.986 202.189 120.068 197.446 121.11C192.704 122.151 189.122 122.322 184.217 122.254L183.699 124.358C189.521 127.218 196.292 127.281 202.569 125.451C206.313 124.37 209.689 122.494 213.439 121.51C217.189 120.526 222.6 120.904 225.445 123.352C222.893 119.491 216.821 117.981 211.917 117.986Z" fill="black"/>
</g>
<g opacity="0.3">
<path opacity="0.3" d="M187.075 117.517C187.306 117.975 187.641 118.383 188.058 118.714C188.474 119.044 188.962 119.289 189.49 119.434C190.548 119.709 191.654 119.794 192.747 119.685C196.747 119.439 200.585 118.215 204.372 117.003C201.346 116.905 198.42 117.872 195.456 118.415C192.492 118.959 189.141 118.987 186.72 117.334" fill="black"/>
</g>
<path d="M117.275 250.502L116.744 254.66C116.705 254.968 116.543 255.252 116.288 255.457C116.033 255.661 115.704 255.77 115.365 255.764L99.503 255.552C99.1648 255.549 98.8402 255.43 98.593 255.218C98.3459 255.006 98.1942 254.718 98.1677 254.408L97.7746 250.347C97.759 250.174 97.783 249.999 97.845 249.834C97.907 249.669 98.0056 249.518 98.1347 249.39C98.2637 249.262 98.4204 249.16 98.5947 249.09C98.769 249.021 98.9572 248.985 99.1474 248.986L115.927 249.1C116.119 249.1 116.31 249.138 116.485 249.211C116.661 249.284 116.818 249.39 116.945 249.523C117.073 249.655 117.168 249.811 117.225 249.98C117.281 250.148 117.298 250.326 117.275 250.502V250.502Z" fill="#EBEBEB"/>
<path d="M98.8915 255.575C99.694 255.74 100.51 255.841 101.331 255.878C102.841 256.01 104.938 256.147 107.253 256.187C109.568 256.227 111.677 256.142 113.187 256.027C113.949 255.97 114.56 255.913 114.978 255.861C115.201 255.852 115.422 255.813 115.633 255.747C114.814 255.71 113.993 255.724 113.175 255.787C111.665 255.838 109.574 255.878 107.259 255.844C104.944 255.81 102.891 255.707 101.35 255.638C100.533 255.566 99.7116 255.545 98.8915 255.575V255.575Z" fill="#263238"/>
<path d="M113.287 255.467C113.858 254.476 114.131 253.364 114.08 252.244C114.028 251.125 113.653 250.038 112.994 249.094C112.888 249.135 113.618 250.467 113.705 252.258C113.793 254.048 113.175 255.432 113.287 255.467Z" fill="#263238"/>
<path d="M107.453 256.061C107.918 253.75 107.994 251.387 107.677 249.054C107.571 249.054 107.546 250.627 107.484 252.555C107.422 254.483 107.328 256.05 107.453 256.061Z" fill="#263238"/>
<path d="M101.088 255.381C101.207 255.381 100.676 253.871 101.088 252.058C101.5 250.244 102.573 249.049 102.473 248.992C102.373 248.934 102.118 249.215 101.731 249.735C101.241 250.42 100.899 251.185 100.726 251.989C100.55 252.795 100.55 253.625 100.726 254.431C100.768 254.769 100.892 255.093 101.088 255.381Z" fill="#263238"/>
<path d="M229.014 240.909L223.336 274.96H217.701L220.228 240.211L229.014 240.909Z" fill="#455A64"/>
<path d="M129.062 241.041V274.96H123.115L120.9 240.909L129.062 241.041Z" fill="#455A64"/>
<path d="M223.729 140.557C224.721 138.138 227.941 125.64 230.768 125.685C232.527 125.826 234.263 126.142 235.947 126.629C238.254 127.238 240.264 128.553 241.643 130.354C243.022 132.155 243.688 134.335 243.528 136.531L242.536 150.653C242.773 152.249 229.014 240.886 229.014 240.886H223.348L120.9 241.756L117.431 234.022L120.133 200.669L146.49 200.841C146.49 200.841 156.955 171.766 166.764 169.792C173.403 168.454 188.379 168.826 197.87 170.936L208.528 173.528L223.729 140.557Z" fill="#455A64"/>
<path d="M140.3 241.613C140.309 241.471 140.296 241.328 140.263 241.189C140.213 240.881 140.144 240.486 140.069 239.994C139.994 239.502 139.863 238.85 139.776 238.101C139.689 237.351 139.539 236.522 139.47 235.59C139.402 234.657 139.271 233.633 139.227 232.529C139.183 231.425 139.146 230.241 139.127 229.012C139.138 226.324 139.309 223.639 139.639 220.969C139.996 218.301 140.502 215.651 141.155 213.03C141.779 210.622 142.44 208.454 143.077 206.686C143.37 205.788 143.701 204.97 143.963 204.29C144.225 203.609 144.468 202.986 144.674 202.494L145.13 201.35C145.194 201.22 145.241 201.084 145.267 200.943C145.184 201.062 145.115 201.189 145.061 201.321L144.537 202.431C144.306 202.917 144.038 203.506 143.757 204.21C143.476 204.913 143.133 205.703 142.821 206.601C142.147 208.379 141.448 210.53 140.812 212.95C140.135 215.578 139.616 218.238 139.258 220.918C138.929 223.601 138.767 226.3 138.771 229C138.803 230.247 138.815 231.431 138.909 232.535C139.002 233.639 139.09 234.663 139.196 235.601C139.302 236.539 139.451 237.38 139.564 238.118C139.676 238.856 139.807 239.491 139.919 240.005C140.032 240.52 140.119 240.886 140.188 241.195C140.209 241.338 140.247 241.478 140.3 241.613V241.613Z" fill="#263238"/>
<path d="M228.684 182.085C228.589 182.049 228.501 182 228.421 181.942L227.723 181.478C227.423 181.267 227.049 181.027 226.599 180.763C226.15 180.5 225.663 180.191 225.077 179.877C224.49 179.562 223.873 179.219 223.174 178.887C222.475 178.555 221.726 178.212 220.933 177.852C219.33 177.171 217.533 176.479 215.617 175.838C211.773 174.563 208.204 173.636 205.633 172.978L202.569 172.172L201.739 171.943C201.552 171.886 201.452 171.852 201.458 171.84C201.56 171.845 201.66 171.86 201.758 171.886L202.6 172.058C203.33 172.218 204.385 172.452 205.683 172.767C208.279 173.385 211.867 174.277 215.723 175.558C217.657 176.205 219.467 176.908 221.065 177.606C221.857 177.972 222.618 178.304 223.305 178.67C223.991 179.036 224.634 179.368 225.177 179.699C225.72 180.031 226.244 180.346 226.681 180.626C227.059 180.861 227.424 181.115 227.773 181.387L228.44 181.89C228.53 181.945 228.612 182.01 228.684 182.085Z" fill="#263238"/>
<path d="M220.228 240.24C220.228 240.24 220.228 240.137 220.26 239.948C220.291 239.76 220.322 239.462 220.372 239.096C220.484 238.341 220.64 237.243 220.84 235.836C221.27 232.976 221.882 228.897 222.637 223.824C223.392 218.75 224.322 212.738 225.339 206.046C226.356 199.353 227.654 192.02 229.083 184.31C231.91 168.934 234.699 155.046 236.714 144.996C237.744 139.986 238.586 135.93 239.167 133.11C239.466 131.714 239.697 130.628 239.859 129.878L240.047 129.043C240.09 128.854 240.121 128.757 240.121 128.757C240.112 128.855 240.098 128.952 240.078 129.049C240.04 129.249 239.99 129.529 239.922 129.89C239.778 130.645 239.566 131.732 239.298 133.127C238.742 135.953 237.937 139.991 236.945 145.036C234.967 155.092 232.234 168.986 229.407 184.361C228.003 192.049 226.712 199.382 225.663 206.063C224.615 212.744 223.685 218.767 222.893 223.829C222.1 228.892 221.451 232.981 221.021 235.807L220.484 239.062C220.422 239.422 220.378 239.702 220.341 239.903C220.303 240.103 220.228 240.24 220.228 240.24Z" fill="#263238"/>
<path d="M118.123 220.432C118.123 220.351 122.766 220.283 128.494 220.283C134.222 220.283 138.859 220.351 138.859 220.432C138.859 220.512 134.216 220.586 128.494 220.586C122.772 220.586 118.123 220.517 118.123 220.432Z" fill="#263238"/>
<path d="M166.608 108.022C166.608 108.022 166.976 105.86 165.223 106.135C163.469 106.409 162.402 108.92 162.402 108.92C162.402 108.92 160.237 109.67 160.081 110.362C159.925 111.054 161.36 112.758 161.36 112.758C160.719 112.954 160.127 113.265 159.619 113.674C158.895 114.297 159.619 115.052 160.243 116.173C160.57 116.799 161.016 117.367 161.56 117.849C161.278 118.067 161.056 118.342 160.911 118.653C160.767 118.964 160.705 119.302 160.73 119.639C160.911 120.663 162.714 122.053 162.714 122.053C163.476 122.522 164.201 123.038 164.886 123.598C165.824 124.337 166.803 125.032 167.819 125.68H173.865L174.863 121.31L167.438 115.264L166.608 108.022Z" fill="#FFBE9D"/>
<path d="M182.832 106.575C182.933 106.54 183.042 106.526 183.15 106.534C183.258 106.543 183.363 106.573 183.457 106.624C183.55 106.674 183.63 106.743 183.69 106.826C183.751 106.909 183.79 107.003 183.805 107.101C184.005 108.245 184.392 110.076 184.623 110.779C184.81 111.351 183.905 113.639 183.905 113.639L181.409 111.283C181.409 111.283 181.004 109.115 181.366 107.851C181.485 107.548 181.68 107.275 181.934 107.054C182.189 106.833 182.496 106.669 182.832 106.575Z" fill="#EB996E"/>
<path d="M182.302 107.536L167.681 104.316C167.681 104.316 164.412 113.342 164.755 115.607C164.846 116.359 165.116 117.084 165.548 117.73C165.979 118.376 166.561 118.926 167.251 119.342L174.845 120.869C174.845 120.869 179.974 120.417 181.522 113.342C181.946 111.328 182.302 107.536 182.302 107.536Z" fill="white"/>
<path d="M182.302 107.536C182.311 107.637 182.311 107.738 182.302 107.839C182.302 108.062 182.258 108.354 182.233 108.72C182.158 109.486 182.052 110.613 181.84 112.026C181.732 112.807 181.569 113.581 181.353 114.343C181.26 114.766 181.072 115.184 180.923 115.624C180.745 116.074 180.536 116.514 180.299 116.94C179.787 117.886 179.086 118.735 178.233 119.445C177.287 120.244 176.115 120.783 174.851 121.001H174.801L167.207 119.491C166.16 118.851 165.372 117.912 164.967 116.82C164.745 116.257 164.633 115.662 164.636 115.063C164.673 114.487 164.752 113.914 164.873 113.347C165.104 112.203 165.397 111.151 165.697 110.11C166.321 108.022 166.945 106.106 167.613 104.287L167.65 104.173L167.781 104.201L178.389 106.609L181.341 107.296L182.108 107.484C182.196 107.498 182.282 107.521 182.364 107.553C182.265 107.545 182.167 107.53 182.071 107.507L181.272 107.347L178.277 106.724L167.712 104.436L167.881 104.35C167.257 106.135 166.633 108.085 166.009 110.161C165.709 111.197 165.422 112.272 165.198 113.376C165.077 113.927 165 114.485 164.967 115.046C164.962 115.611 165.07 116.171 165.285 116.699C165.662 117.724 166.397 118.607 167.376 119.21H167.326L174.92 120.743H174.87C176.073 120.53 177.191 120.02 178.102 119.268C178.935 118.583 179.623 117.762 180.13 116.848C180.361 116.429 180.57 115.999 180.754 115.561C180.904 115.126 181.091 114.72 181.191 114.303C181.416 113.55 181.591 112.786 181.715 112.015C181.946 110.608 182.083 109.486 182.183 108.726C182.233 108.36 182.27 108.068 182.302 107.851C182.285 107.746 182.285 107.64 182.302 107.536V107.536Z" fill="#263238"/>
<path d="M177.796 109.303C177.796 109.303 180.767 109.441 180.598 111.019L182.738 111.265C182.814 110.603 182.612 109.94 182.175 109.409C181.737 108.878 181.095 108.519 180.38 108.405L178.177 107.925" fill="white"/>
<path d="M178.177 107.919C178.786 107.963 179.39 108.059 179.98 108.205C180.66 108.29 181.304 108.532 181.852 108.909C182.187 109.156 182.457 109.468 182.642 109.824C182.826 110.179 182.921 110.568 182.919 110.962C182.929 111.071 182.929 111.18 182.919 111.288V111.437H182.757L180.617 111.18H180.473V111.048C180.486 110.837 180.434 110.627 180.324 110.441C180.213 110.255 180.049 110.101 179.849 109.996C179.526 109.806 179.172 109.663 178.801 109.572C178.177 109.412 177.79 109.378 177.79 109.343C178.143 109.298 178.502 109.322 178.845 109.412C179.245 109.485 179.628 109.618 179.98 109.807C180.208 109.927 180.401 110.096 180.542 110.299C180.694 110.531 180.764 110.801 180.742 111.071L180.611 110.928L182.751 111.162L182.57 111.288C182.579 111.195 182.579 111.101 182.57 111.008C182.571 110.657 182.488 110.309 182.328 109.99C182.167 109.671 181.933 109.388 181.64 109.16C181.132 108.801 180.537 108.557 179.905 108.451C179.313 108.321 178.735 108.143 178.177 107.919Z" fill="#263238"/>
<path d="M183.818 123.661C183.818 123.661 185.69 117.151 185.74 116.225C185.79 115.298 182.832 109.978 181.734 109.824C180.636 109.67 178.526 109.252 177.796 110.842C177.796 110.842 175.487 110.339 174.87 113.393C174.87 113.393 173.31 113.508 173.129 114.371C173.006 115.468 172.962 116.57 172.998 117.672C172.72 117.54 172.403 117.494 172.095 117.541C171.786 117.589 171.503 117.727 171.288 117.935C170.602 118.684 171.088 119.388 171.575 120.034C171.972 120.527 172.403 120.995 172.867 121.436C172.867 121.436 172.436 124.559 172.642 125.405C172.688 125.642 172.809 125.861 172.99 126.035C173.171 126.209 173.404 126.33 173.659 126.383L183.612 124.856L183.818 123.661Z" fill="#FFBE9D"/>
<path d="M174.87 113.365C174.87 113.336 175.163 113.33 175.569 113.513C176.079 113.77 176.519 114.13 176.854 114.566C177.367 115.134 177.749 115.792 177.977 116.499C177.884 116.551 177.353 115.693 176.598 114.743C176.28 114.341 175.895 113.988 175.456 113.696C175.113 113.485 174.857 113.416 174.87 113.365Z" fill="#EB996E"/>
<path d="M173.472 116.396C173.534 116.339 174.096 116.814 174.57 117.54C174.913 117.949 175.128 118.435 175.194 118.947C174.84 118.565 174.538 118.144 174.296 117.695C173.963 117.295 173.687 116.859 173.472 116.396V116.396Z" fill="#EB996E"/>
<path d="M174.857 118.844L173.26 117.74C173.179 117.683 173.098 117.809 173.179 117.861L174.776 118.965C174.857 119.022 174.938 118.896 174.857 118.844Z" fill="#EB996E"/>
<path d="M177.796 110.814C178.647 111.34 179.329 112.065 179.774 112.913C180.024 113.515 180.32 114.1 180.66 114.663C180.948 115.064 181.235 115.235 181.203 115.275C181.172 115.315 180.841 115.195 180.48 114.789C180.071 114.247 179.738 113.661 179.487 113.044C178.726 111.734 177.715 110.882 177.796 110.814Z" fill="#EB996E"/>
<path d="M161.497 112.884C162.344 112.457 163.312 112.272 164.274 112.355C165.236 112.438 166.15 112.783 166.895 113.347C167.014 113.433 167.111 113.54 167.182 113.662C167.226 113.798 167.228 113.943 167.186 114.08C167.144 114.216 167.06 114.339 166.945 114.434C166.587 114.727 166.127 114.893 165.647 114.903C165.173 114.932 164.699 114.903 164.224 114.869C163.185 114.868 162.165 115.131 161.279 115.63" fill="#FFBE9D"/>
<path d="M161.535 112.947C162.215 112.605 162.975 112.42 163.75 112.409C164.525 112.397 165.292 112.558 165.984 112.878C166.336 113.032 166.658 113.237 166.939 113.485C167.388 113.902 166.982 114.417 166.514 114.629C165.697 115.006 164.736 114.76 163.862 114.812C162.933 114.866 162.032 115.125 161.235 115.567C161.148 115.613 161.235 115.738 161.316 115.693C162.255 115.171 163.34 114.912 164.436 114.949C165.285 114.949 166.309 115.104 166.964 114.509C167.092 114.409 167.188 114.279 167.241 114.133C167.294 113.986 167.302 113.829 167.263 113.679C167.151 113.37 166.758 113.147 166.477 112.976C165.786 112.573 164.997 112.333 164.181 112.278C163.228 112.218 162.277 112.417 161.448 112.85C161.36 112.896 161.448 113.021 161.529 112.976L161.535 112.947Z" fill="#EB996E"/>
<path d="M161.741 117.666C162.346 117.05 163.12 116.595 163.983 116.346C164.845 116.098 165.765 116.066 166.645 116.253C166.645 116.871 166.602 117.575 166.071 117.969C165.731 118.154 165.36 118.288 164.973 118.364C164.583 118.497 164.23 118.709 163.942 118.985C163.654 119.26 163.437 119.591 163.307 119.954" fill="#FFBE9D"/>
<path d="M161.797 117.718C162.392 117.112 163.154 116.664 164.002 116.418C164.85 116.173 165.754 116.14 166.62 116.322L166.564 116.253C166.6 116.692 166.523 117.133 166.34 117.54C166.065 118.032 165.51 118.112 164.992 118.272C164.58 118.406 164.208 118.625 163.903 118.912C163.598 119.198 163.368 119.545 163.232 119.925C163.195 120.011 163.351 120.051 163.382 119.96C163.549 119.507 163.857 119.109 164.268 118.816C164.713 118.554 165.202 118.361 165.716 118.244C166.614 117.918 166.72 117.065 166.72 116.282C166.72 116.266 166.714 116.252 166.704 116.239C166.694 116.227 166.68 116.218 166.664 116.213C165.769 116.021 164.833 116.052 163.955 116.304C163.077 116.555 162.289 117.018 161.672 117.643C161.604 117.712 161.716 117.815 161.784 117.746L161.797 117.718Z" fill="#EB996E"/>
<path d="M161.803 109.16C161.803 109.16 163.925 108.188 164.855 108.234C165.784 108.28 167.482 108.674 167.65 109.292C167.767 109.673 167.723 110.08 167.527 110.433C167.33 110.785 166.995 111.056 166.589 111.191C165.849 111.32 165.086 111.298 164.355 111.128L163.107 111.597" fill="#FFBE9D"/>
<path d="M163.12 111.597C163.496 111.368 163.898 111.177 164.318 111.025V111.025H164.355C165.031 111.166 165.731 111.184 166.415 111.077C166.612 111.037 166.797 110.956 166.956 110.841C167.115 110.726 167.243 110.58 167.332 110.413C167.529 110.059 167.567 109.649 167.438 109.269C167.199 108.993 166.872 108.793 166.502 108.697C166.141 108.579 165.769 108.489 165.391 108.428C165.062 108.358 164.721 108.346 164.387 108.394C164.089 108.446 163.795 108.514 163.507 108.6C162.44 108.926 161.797 109.172 161.778 109.172C162.283 108.846 162.838 108.591 163.426 108.417C163.721 108.309 164.026 108.223 164.337 108.159C164.515 108.126 164.697 108.111 164.88 108.114C165.067 108.114 165.254 108.148 165.441 108.171C165.838 108.227 166.228 108.315 166.608 108.434C166.812 108.503 167.01 108.585 167.201 108.68C167.421 108.783 167.605 108.942 167.731 109.138C167.821 109.372 167.856 109.62 167.835 109.868C167.813 110.115 167.736 110.355 167.606 110.573C167.494 110.773 167.335 110.947 167.139 111.083C166.944 111.219 166.717 111.312 166.477 111.357C165.752 111.465 165.009 111.42 164.305 111.225H164.368C163.966 111.386 163.548 111.51 163.12 111.597V111.597Z" fill="#EB996E"/>
<path d="M171.126 119.205C171.48 119.448 171.77 119.761 171.974 120.12C172.211 120.511 172.326 120.954 172.305 121.401C172.305 121.893 172.193 122.414 172.18 122.951C172.157 123.871 172.398 124.781 172.879 125.588C173.247 126.217 173.584 126.544 173.547 126.578C173.184 126.354 172.886 126.051 172.68 125.697C172.113 124.873 171.827 123.913 171.856 122.94C171.856 122.368 171.993 121.859 172.006 121.396C172.04 120.991 171.958 120.584 171.768 120.217C171.419 119.582 171.076 119.239 171.126 119.205Z" fill="#EB996E"/>
<path d="M179.531 93.7393C179.531 93.7679 179.313 93.7737 179.088 94.0139C178.952 94.2002 178.864 94.4122 178.831 94.6342C178.797 94.8561 178.819 95.0821 178.895 95.2952C178.963 95.5755 179.094 95.8672 179.175 96.239C179.282 96.6314 179.238 97.0454 179.051 97.4116C178.62 98.1895 177.728 98.6299 177.079 99.2649C176.755 99.5515 176.548 99.9309 176.492 100.34C176.472 100.733 176.551 101.124 176.723 101.484C177.083 102.109 177.369 102.766 177.578 103.446C177.636 103.688 177.637 103.938 177.58 104.18C177.523 104.422 177.409 104.65 177.247 104.848C177.004 105.122 176.779 105.168 176.779 105.151C176.779 105.134 176.954 105.048 177.147 104.779C177.399 104.39 177.473 103.925 177.353 103.486C177.115 102.831 176.812 102.197 176.449 101.593C176.25 101.195 176.155 100.76 176.174 100.323C176.234 99.8463 176.47 99.4026 176.842 99.0647C177.553 98.3897 178.408 97.955 178.782 97.2972C179.157 96.6394 178.782 95.9301 178.67 95.3467C178.598 95.1063 178.589 94.8536 178.646 94.6097C178.702 94.3658 178.822 94.1379 178.994 93.9453C179.288 93.6821 179.544 93.7336 179.531 93.7393Z" fill="#263238"/>
<path d="M174.371 103.961C174.371 103.961 174.514 103.864 174.676 103.635C174.893 103.304 174.967 102.91 174.882 102.531C174.714 101.964 174.465 101.419 174.14 100.912C173.966 100.577 173.854 100.217 173.809 99.8483C173.778 99.4406 173.904 99.0359 174.165 98.7043C174.702 98.1544 175.28 97.6384 175.893 97.1599C176.121 96.9457 176.28 96.6787 176.355 96.3877C176.403 96.1286 176.388 95.8629 176.311 95.6098C176.159 95.2098 176.159 94.7742 176.311 94.3743C176.461 94.094 176.667 94.0425 176.667 94.0597C176.667 94.0768 176.523 94.1626 176.43 94.42C176.332 94.8016 176.367 95.2015 176.53 95.564C176.648 95.8659 176.671 96.192 176.597 96.5054C176.523 96.8188 176.355 97.107 176.112 97.3372C175.612 97.8749 174.864 98.2696 174.427 98.8702C174.203 99.1533 174.095 99.4995 174.121 99.8483C174.159 100.183 174.256 100.509 174.408 100.815C174.732 101.352 174.967 101.931 175.107 102.531C175.141 102.742 175.129 102.956 175.071 103.163C175.013 103.369 174.911 103.563 174.77 103.732C174.564 103.938 174.371 103.978 174.371 103.961Z" fill="#263238"/>
<path d="M201.889 275.092H205.895L221.919 216.942H213.67L201.889 275.092Z" fill="#263238"/>
<path d="M277.611 216.942H207.312H198.313V209.175H277.611V216.942Z" fill="#263238"/>
<path d="M278.129 275L274.123 275.035L257.475 217.034L265.718 216.96L278.129 275Z" fill="#263238"/>
<path d="M263.022 187.044H269.73C272.994 187.044 275.484 190.076 275.484 193.067V199.485C275.484 199.704 275.437 199.92 275.345 200.122C275.254 200.324 275.12 200.507 274.952 200.662C274.783 200.817 274.583 200.939 274.363 201.023C274.142 201.106 273.906 201.15 273.668 201.15V201.15C273.188 201.151 272.728 200.979 272.386 200.67C272.045 200.362 271.851 199.942 271.846 199.502C271.846 197.786 271.846 195.069 271.846 193.027C271.848 192.679 271.775 192.335 271.632 192.013C271.489 191.691 271.277 191.398 271.01 191.151C270.742 190.905 270.424 190.709 270.074 190.575C269.724 190.442 269.348 190.373 268.969 190.373H263.503L263.022 187.044Z" fill="#FF725E"/>
<path d="M242.617 188.76H246.655V190.436C246.655 190.436 241.107 191.58 240.951 197.838C240.795 204.095 240.951 205.091 240.951 205.091C240.951 205.091 241.7 209.037 246.655 209.135C250.717 209.215 260.745 209.163 264.189 209.135C265.445 209.138 266.673 208.802 267.721 208.168C268.288 207.854 268.764 207.418 269.107 206.898C269.449 206.378 269.648 205.789 269.687 205.182C269.793 202.122 269.687 195.91 269.687 195.91C269.687 195.91 269.144 191.694 264.52 190.465V186.735H245.494L242.592 187.936L242.617 188.76Z" fill="white"/>
<path d="M242.617 188.76C242.608 188.695 242.608 188.63 242.617 188.566C242.617 188.411 242.617 188.211 242.617 187.942L245.507 186.707L264.532 186.638H264.663V186.764C264.663 187.908 264.663 189.195 264.663 190.493L264.557 190.367C265.891 190.713 267.089 191.401 268.008 192.352C268.97 193.362 269.603 194.598 269.836 195.921C269.836 198.209 269.836 200.589 269.836 203.054V204.913C269.87 205.566 269.708 206.215 269.368 206.789C268.61 207.93 267.393 208.751 265.98 209.077C265.37 209.232 264.74 209.309 264.108 209.306H246.599L245.775 209.249L244.97 209.106C243.921 208.866 242.97 208.354 242.231 207.63C241.525 206.928 241.034 206.068 240.808 205.136C240.696 203.306 240.758 201.601 240.777 199.988C240.795 198.375 240.777 196.802 241.251 195.412C241.641 194.115 242.424 192.945 243.51 192.038C244.396 191.285 245.466 190.738 246.63 190.442L246.574 190.505C246.574 189.835 246.574 189.309 246.574 188.829L246.636 188.886L243.622 188.857H242.855C242.769 188.863 242.684 188.863 242.599 188.857H242.873H243.66L246.636 188.823H246.698V188.88C246.698 189.361 246.698 189.887 246.698 190.556V190.476H246.636C245.502 190.779 244.463 191.324 243.603 192.066C242.554 192.959 241.802 194.105 241.432 195.372C240.976 196.734 241.032 198.278 240.995 199.903C240.958 201.527 240.933 203.26 241.051 205.051C241.271 205.927 241.738 206.736 242.405 207.396C243.12 208.082 244.037 208.563 245.045 208.78C246.101 208.968 247.179 209.032 248.252 208.969H262.261C263.509 208.969 264.757 209.072 265.899 208.751C267.226 208.449 268.371 207.681 269.087 206.612C269.407 206.079 269.558 205.475 269.524 204.868V203.014C269.524 200.555 269.524 198.175 269.524 195.893C269.3 194.623 268.695 193.434 267.777 192.461C266.896 191.548 265.748 190.886 264.47 190.55L264.37 190.522V190.476C264.37 189.178 264.37 187.914 264.37 186.747L264.507 186.867L245.482 186.804L242.568 187.982V188.588C242.624 188.669 242.617 188.76 242.617 188.76Z" fill="#263238"/>
<path d="M268.401 198.701C268.401 198.701 268.501 201.441 268.401 204.256C268.377 204.773 268.222 205.278 267.948 205.731C267.674 206.183 267.288 206.571 266.822 206.864C265.831 207.54 264.626 207.901 263.39 207.893C260.233 207.893 251.172 207.962 247.491 207.893C246.29 207.926 245.114 207.571 244.169 206.89C243.224 206.21 242.569 205.247 242.318 204.17C242.318 204.17 242.137 204.524 242.287 198.759L268.401 198.701Z" fill="#8E6E68"/>
<path d="M252.814 196.574C250.379 196.772 247.929 196.772 245.494 196.574C247.929 196.375 250.379 196.375 252.814 196.574Z" fill="#455A64"/>
<path d="M252.814 200.028C250.379 200.227 247.929 200.227 245.494 200.028C247.929 199.83 250.379 199.83 252.814 200.028Z" fill="#455A64"/>
<path d="M252.814 203.489C250.379 203.687 247.929 203.687 245.494 203.489C247.929 203.291 250.379 203.291 252.814 203.489Z" fill="#455A64"/>
<path d="M245.494 186.724C245.494 186.724 246.449 184.035 254.498 184.035C262.548 184.035 263.79 186.724 263.79 186.724H245.494Z" fill="#FF725E"/>
<path d="M264.638 188.76C264.638 188.84 260.564 188.909 255.54 188.909C250.517 188.909 246.436 188.84 246.436 188.76C246.436 188.68 250.511 188.611 255.54 188.611C260.57 188.611 264.638 188.657 264.638 188.76Z" fill="#263238"/>
<path d="M264.638 190.476C264.638 190.556 260.564 190.625 255.54 190.625C250.517 190.625 246.436 190.556 246.436 190.476C246.436 190.396 250.511 190.327 255.54 190.327C260.57 190.327 264.638 190.367 264.638 190.476Z" fill="#263238"/>
<path d="M244.034 173.94C244.101 173.919 244.173 173.919 244.24 173.94C244.427 174.001 244.582 174.123 244.677 174.283C244.833 174.538 244.881 174.837 244.814 175.124C244.7 175.492 244.451 175.813 244.109 176.033C243.721 176.291 243.316 176.528 242.898 176.742C242.444 176.96 242.099 177.331 241.937 177.778C241.876 178.023 241.886 178.278 241.967 178.518C242.048 178.758 242.197 178.974 242.399 179.145C242.923 179.448 243.522 179.626 244.14 179.665C244.485 179.719 244.817 179.829 245.12 179.991C245.271 180.083 245.401 180.201 245.5 180.34C245.6 180.478 245.668 180.634 245.7 180.798C245.724 181.099 245.665 181.401 245.529 181.676C245.393 181.95 245.183 182.189 244.92 182.371C244.474 182.672 244 182.936 243.503 183.16C243.102 183.359 242.752 183.636 242.48 183.972C242.371 184.106 242.295 184.259 242.257 184.422C242.219 184.585 242.221 184.754 242.262 184.916C242.348 185.155 242.526 185.358 242.761 185.488C242.865 185.542 242.981 185.575 243.1 185.586C243.219 185.596 243.34 185.585 243.454 185.551C243.454 185.551 243.41 185.608 243.279 185.643C243.087 185.694 242.88 185.673 242.705 185.585C242.561 185.523 242.431 185.436 242.324 185.328C242.217 185.22 242.135 185.094 242.081 184.956C242.023 184.769 242.011 184.573 242.045 184.381C242.08 184.189 242.16 184.007 242.28 183.847C242.559 183.471 242.928 183.16 243.36 182.937C243.836 182.708 244.291 182.444 244.72 182.148C244.939 181.995 245.113 181.795 245.228 181.565C245.342 181.336 245.393 181.084 245.375 180.832C245.351 180.709 245.298 180.591 245.222 180.487C245.146 180.383 245.047 180.294 244.932 180.226C244.663 180.087 244.37 179.992 244.065 179.946C243.398 179.905 242.753 179.708 242.193 179.374C241.952 179.166 241.776 178.904 241.682 178.613C241.587 178.323 241.579 178.015 241.656 177.72C241.842 177.21 242.239 176.787 242.761 176.542C243.21 176.296 243.641 176.113 244.009 175.879C244.319 175.691 244.553 175.416 244.677 175.095C244.748 174.847 244.721 174.583 244.602 174.351C244.543 174.251 244.462 174.162 244.365 174.091C244.267 174.02 244.154 173.969 244.034 173.94V173.94Z" fill="#263238"/>
<path d="M208.304 209.18H227.985C228.164 209.18 228.341 209.148 228.507 209.085C228.672 209.022 228.822 208.93 228.949 208.813C229.075 208.697 229.175 208.559 229.243 208.407C229.311 208.255 229.346 208.092 229.345 207.928L232.128 206.378L204.454 206.109L206.95 207.796V207.928C206.95 208.258 207.092 208.575 207.345 208.81C207.599 209.044 207.943 209.177 208.304 209.18Z" fill="white"/>
<path d="M208.304 209.18C208.105 209.201 207.903 209.17 207.723 209.089C207.496 208.999 207.3 208.855 207.156 208.671C206.958 208.417 206.861 208.108 206.881 207.796V207.842L204.385 206.177L204.148 206.017H204.441C209.664 206.017 218.325 206.086 228.116 206.183L232.109 206.223H232.671L232.19 206.492L229.956 207.739L229.682 207.893L229.545 207.968L229.476 208.008H229.439C229.47 207.956 229.357 208.134 229.507 207.888C229.503 208.105 229.443 208.319 229.332 208.511C229.227 208.703 229.074 208.869 228.885 208.996C228.696 209.123 228.478 209.208 228.247 209.243C226.543 209.289 224.989 209.243 223.473 209.243L215.523 209.215L210.226 209.169L208.803 209.14C208.637 209.15 208.47 209.15 208.304 209.14C208.469 209.115 208.636 209.105 208.803 209.112H210.226L215.523 209.066H223.473C224.971 209.066 226.593 209.066 228.197 209.037C228.377 209.006 228.548 208.939 228.697 208.84C228.846 208.741 228.969 208.613 229.058 208.465C229.142 208.311 229.187 208.141 229.189 207.968V207.968C229.339 207.722 229.239 207.899 229.27 207.842H229.308L229.376 207.802L229.507 207.728L229.782 207.573L232.016 206.32L232.097 206.595L228.103 206.555C218.313 206.458 209.651 206.349 204.429 206.263L204.485 206.103L206.981 207.819C206.953 208.071 207.009 208.324 207.141 208.546C207.274 208.767 207.477 208.947 207.723 209.06C207.91 209.124 208.105 209.164 208.304 209.18V209.18Z" fill="#263238"/>
<path d="M267.802 244.358L211.904 244.21L214.138 240.28H267.802V244.358Z" fill="#263238"/>
<path d="M277.68 217.051C277.68 217.131 260.171 217.2 238.574 217.2C216.977 217.2 199.468 217.131 199.468 217.051C199.468 216.971 216.94 216.902 238.574 216.902C260.208 216.902 277.68 216.971 277.68 217.051Z" fill="#455A64"/>
</svg>
