<svg width="356" height="345" viewBox="0 0 356 345" fill="none" xmlns="http://www.w3.org/2000/svg">
<path d="M297.823 22.7838H293.116V121.771H297.823V22.7838Z" fill="#E0E0E0"/>
<path d="M292.326 23.5428H224.892C224.853 23.5428 224.821 23.5737 224.821 23.6118V120.943C224.821 120.981 224.853 121.012 224.892 121.012H292.326C292.365 121.012 292.397 120.981 292.397 120.943V23.6118C292.397 23.5737 292.365 23.5428 292.326 23.5428Z" fill="#F5F5F5"/>
<path d="M293.116 121.778H224.109C224.091 121.777 224.074 121.769 224.061 121.756C224.048 121.744 224.04 121.727 224.038 121.709V22.8528C224.04 22.835 224.048 22.8184 224.061 22.8058C224.074 22.7931 224.091 22.7854 224.109 22.7838H293.116C293.134 22.7854 293.152 22.7931 293.165 22.8058C293.178 22.8184 293.186 22.835 293.187 22.8528V121.709C293.186 121.727 293.178 121.744 293.165 121.756C293.152 121.769 293.134 121.777 293.116 121.778ZM225.704 120.26H291.578C291.597 120.259 291.614 120.251 291.627 120.238C291.64 120.226 291.648 120.209 291.649 120.191V24.3708C291.648 24.353 291.64 24.3364 291.627 24.3238C291.614 24.3111 291.597 24.3034 291.578 24.3018H225.704C225.686 24.3034 225.668 24.3111 225.655 24.3238C225.642 24.3364 225.634 24.353 225.633 24.3708V120.191C225.634 120.209 225.642 120.226 225.655 120.238C225.668 120.251 225.686 120.259 225.704 120.26V120.26Z" fill="#EBEBEB"/>
<path d="M285.647 29.5596H231.699C231.66 29.5596 231.628 29.5905 231.628 29.6286V114.871C231.628 114.909 231.66 114.94 231.699 114.94H285.647C285.687 114.94 285.718 114.909 285.718 114.871V29.6286C285.718 29.5905 285.687 29.5596 285.647 29.5596Z" fill="white"/>
<path d="M273.75 53.7648H243.468C243.445 53.7648 243.426 53.7834 243.426 53.8062V88.2165C243.426 88.2394 243.445 88.2579 243.468 88.2579H273.75C273.773 88.2579 273.792 88.2394 273.792 88.2165V53.8062C273.792 53.7834 273.773 53.7648 273.75 53.7648Z" fill="#EBEBEB"/>
<path d="M271.393 84.0351C271.436 84.1455 269.933 84.7872 267.078 84.4629C265.328 84.2391 263.664 83.5939 262.237 82.5861C260.296 81.1859 258.955 79.1423 258.47 76.8453C258.187 75.4093 258.302 73.9264 258.802 72.5472C259.302 71.168 260.171 69.9418 261.318 68.9931C261.97 68.4654 262.709 68.0479 263.504 67.758C264.377 67.4448 265.314 67.3383 266.238 67.4475C267.251 67.5458 268.205 67.9515 268.965 68.6067C269.394 68.9946 269.717 69.4792 269.906 70.0173C270.094 70.5553 270.143 71.1303 270.047 71.691C269.838 72.7024 269.314 73.6273 268.545 74.3406C267.876 74.9841 267.116 75.5323 266.288 75.969C264.611 76.8708 262.743 77.3878 260.827 77.4801C258.802 77.5874 256.787 77.1428 255.01 76.1967C253.178 75.2057 251.691 73.7095 250.738 71.898C249.751 70.0426 249.478 67.9069 249.969 65.8743C250.453 63.9105 251.607 62.1625 253.244 60.9132C254.064 60.3015 254.997 59.8471 255.993 59.5746C257.001 59.3116 258.059 59.2786 259.083 59.478C260.165 59.6791 261.15 60.2169 261.888 61.0098C262.595 61.8232 262.986 62.8511 262.992 63.9147C263.005 64.8789 262.759 65.83 262.28 66.6747C261.828 67.4408 261.24 68.123 260.542 68.6895C259.295 69.7105 257.839 70.4652 256.27 70.9044C254.804 71.3194 253.264 71.4345 251.749 71.2425C250.335 71.056 248.986 70.5554 247.805 69.7797C246.79 69.1314 245.93 68.281 245.282 67.2851C244.634 66.2892 244.212 65.1707 244.045 64.0044C243.849 62.2395 244.359 60.4688 245.469 59.0571C246.121 58.1722 247.013 57.4796 248.047 57.0561C248.759 56.8008 249.157 56.8077 249.179 56.8698C249.2 56.9319 248.858 57.1182 248.282 57.4908C247.465 58.0308 246.779 58.7373 246.274 59.5608C245.491 60.8291 245.201 62.3264 245.455 63.7836C245.656 64.7245 246.057 65.6143 246.634 66.3961C247.21 67.1779 247.948 67.8345 248.801 68.3238C249.819 68.9034 250.954 69.2639 252.129 69.3805C253.303 69.4972 254.49 69.3674 255.608 69C256.881 68.6028 258.056 67.9571 259.061 67.1025C259.549 66.7259 259.946 66.2502 260.224 65.7091C260.502 65.1679 260.654 64.5742 260.67 63.9699C260.668 63.4154 260.455 62.8812 260.071 62.4699C259.687 62.0585 259.16 61.799 258.591 61.7412C257.932 61.629 257.256 61.6621 256.612 61.8378C255.932 62.0392 255.297 62.3621 254.739 62.79C253.558 63.7202 252.729 65.004 252.383 66.4401C252.029 67.9182 252.234 69.4702 252.959 70.8147C253.689 72.2007 254.826 73.346 256.228 74.106C257.599 74.841 259.155 75.1921 260.72 75.1203C262.267 75.0577 263.778 74.6567 265.142 73.9473C265.787 73.6286 266.381 73.222 266.907 72.7398C267.34 72.3754 267.652 71.8953 267.805 71.3598C267.849 71.1558 267.839 70.9442 267.775 70.745C267.712 70.5458 267.597 70.3656 267.441 70.2213C267.034 69.8695 266.524 69.65 265.982 69.5934C265.404 69.5115 264.814 69.5611 264.259 69.7383C263.679 69.931 263.137 70.218 262.657 70.587C261.743 71.2933 261.037 72.2191 260.607 73.2722C260.177 74.3254 260.04 75.4693 260.208 76.59C260.536 78.5265 261.563 80.2871 263.105 81.558C264.313 82.5301 265.736 83.2195 267.263 83.5728C269.848 84.111 271.372 83.8281 271.393 84.0351Z" fill="#E0E0E0"/>
<path d="M151.058 17.8572H40.6837V210.002H151.058V17.8572Z" fill="#EBEBEB"/>
<path d="M145.511 23.4255H45.0981V204.274H145.511V23.4255Z" fill="#FAFAFA"/>
<path d="M155.722 211.733L151.058 210.002V14.6004H155.722V211.733Z" fill="#E0E0E0"/>
<path d="M147.69 75.4515H45.0981V77.3766H147.69V75.4515Z" fill="#E0E0E0"/>
<path d="M147.69 118.521H45.0981V120.446H147.69V118.521Z" fill="#E0E0E0"/>
<path d="M147.69 161.591H45.0981V163.516H147.69V161.591Z" fill="#E0E0E0"/>
<path d="M92.7664 76.4175L92.7664 209.408H97.843L97.843 76.4175H92.7664Z" fill="#E0E0E0"/>
<path d="M66.7286 23.4255H64.4289V76.4106H66.7286V23.4255Z" fill="#E0E0E0"/>
<path d="M86.5507 23.4255H84.2509V76.4106H86.5507V23.4255Z" fill="#E0E0E0"/>
<path d="M106.373 23.4255H104.073V76.4106H106.373V23.4255Z" fill="#E0E0E0"/>
<path d="M126.195 23.4255H123.895V76.4106H126.195V23.4255Z" fill="#E0E0E0"/>
<path d="M40.6837 14.5935H36.0129V211.188H40.6837V14.5935Z" fill="#E0E0E0"/>
<path d="M155.722 12.6132H36.0129V17.8572H155.722V12.6132Z" fill="#E0E0E0"/>
<path d="M158.883 212.382H32.7021V217.267H158.883V212.382Z" fill="#E0E0E0"/>
<path d="M151.058 210.002L158.883 212.382H32.7021L40.6837 210.002H151.058Z" fill="#E0E0E0"/>
<path d="M114.169 107.102C114.077 107.054 116.177 103.265 118.847 98.6494C121.517 94.0333 123.767 90.328 123.831 90.3694C123.895 90.4108 121.83 94.2058 119.153 98.8219C116.476 103.438 114.262 107.15 114.169 107.102Z" fill="#E0E0E0"/>
<path d="M76.7393 147.984C76.6468 147.936 78.7401 144.155 81.4172 139.539C84.0943 134.923 86.33 131.217 86.4012 131.259C86.4724 131.3 84.3934 135.088 81.7162 139.704C79.0391 144.32 76.8248 148.033 76.7393 147.984Z" fill="#E0E0E0"/>
<path d="M100.841 185.148C100.748 185.099 102.848 181.318 105.518 176.702C108.188 172.086 110.431 168.381 110.502 168.422C110.574 168.463 108.495 172.252 105.817 176.875C103.14 181.498 100.926 185.203 100.841 185.148Z" fill="#E0E0E0"/>
<path d="M67.227 186.376C67.1345 186.328 69.2349 182.546 71.9049 177.93C74.5749 173.314 76.8248 169.609 76.8889 169.65C76.953 169.692 74.881 173.48 72.211 178.096C69.541 182.712 67.3196 186.424 67.227 186.376Z" fill="#E0E0E0"/>
<path d="M52.8873 98.9391C52.7948 98.8908 54.8952 95.1027 57.5652 90.4866C60.2352 85.8705 62.478 82.1652 62.5492 82.2066C62.6204 82.248 60.5414 86.043 57.8713 90.6591C55.2013 95.2752 52.9728 98.9874 52.8873 98.9391Z" fill="#E0E0E0"/>
<path d="M81.5809 100.547C81.4884 100.499 83.5888 96.7104 86.2588 92.0943C88.9288 87.4782 91.1716 83.7729 91.2428 83.8143C91.314 83.8557 89.2349 87.6507 86.5649 92.2668C83.8949 96.8829 81.6664 100.595 81.5809 100.547Z" fill="#E0E0E0"/>
<path d="M72.2395 72.1188C72.1541 72.0705 74.2473 68.2893 76.9245 63.6732C79.6016 59.0571 81.8373 55.3518 81.9085 55.3932C81.9797 55.4346 79.9006 59.2227 77.2235 63.8388C74.5464 68.4549 72.3321 72.1671 72.2395 72.1188Z" fill="#E0E0E0"/>
<path d="M66.8853 113.85C66.7998 113.802 68.8931 110.021 71.5702 105.404C74.2474 100.788 76.483 97.083 76.5542 97.1244C76.6254 97.1658 74.5678 100.961 71.912 105.57C69.2562 110.179 66.9778 113.905 66.8853 113.85Z" fill="#E0E0E0"/>
<path d="M115.892 71.1114C115.807 71.0631 117.9 67.2819 120.577 62.6658C123.254 58.0497 125.49 54.3444 125.561 54.3858C125.632 54.4272 123.56 58.2153 120.883 62.8314C118.206 67.4475 115.985 71.1597 115.892 71.1114Z" fill="#E0E0E0"/>
<path d="M102.628 117.769C102.535 117.721 104.636 113.94 107.306 109.324C109.976 104.708 112.225 101.002 112.29 101.044C112.354 101.085 110.282 104.873 107.612 109.489C104.942 114.105 102.72 117.818 102.628 117.769Z" fill="#E0E0E0"/>
<path d="M63.9447 148.867C63.8593 148.819 65.9525 145.038 68.6297 140.422C71.3068 135.806 73.5425 132.1 73.6137 132.142C73.6849 132.183 71.6058 135.971 68.9287 140.587C66.2516 145.204 64.0373 148.916 63.9447 148.867Z" fill="#E0E0E0"/>
<path d="M115.892 130.03C115.807 129.982 117.9 126.201 120.577 121.585C123.254 116.969 125.49 113.264 125.561 113.305C125.632 113.346 123.56 117.134 120.883 121.75C118.206 126.367 115.985 130.079 115.892 130.03Z" fill="#E0E0E0"/>
<path d="M122.891 198.72C122.799 198.672 124.899 194.891 127.569 190.274C130.239 185.658 132.482 181.953 132.553 181.994C132.624 182.036 130.545 185.824 127.875 190.44C125.205 195.056 122.977 198.775 122.891 198.72Z" fill="#E0E0E0"/>
<path d="M53.4 193.29C53.3074 193.241 55.4078 189.453 58.0778 184.837C60.7478 180.221 62.9977 176.516 63.0618 176.557C63.1259 176.599 61.054 180.387 58.384 185.01C55.714 189.633 53.5068 193.338 53.4 193.29Z" fill="#E0E0E0"/>
<path d="M117.266 152.035C117.174 151.986 119.267 148.205 121.944 143.589C124.621 138.973 126.857 135.268 126.928 135.309C126.999 135.35 124.92 139.138 122.243 143.755C119.566 148.371 117.352 152.083 117.266 152.035Z" fill="#E0E0E0"/>
<path d="M106.501 161.564C106.415 161.515 108.509 157.734 111.186 153.118C113.863 148.502 116.099 144.797 116.17 144.838C116.241 144.879 114.162 148.667 111.485 153.284C108.808 157.9 106.593 161.612 106.501 161.564Z" fill="#E0E0E0"/>
<path d="M135.515 95.4822C135.422 95.4339 137.516 91.6527 140.193 87.0366C142.87 82.4205 145.106 78.7152 145.177 78.7566C145.248 78.798 143.169 82.5861 140.492 87.2022C137.815 91.8183 135.6 95.5305 135.515 95.4822Z" fill="#E0E0E0"/>
<path d="M129.584 63.6042C129.491 63.5559 131.585 59.7747 134.262 55.1586C136.939 50.5425 139.175 46.8372 139.246 46.8786C139.317 46.92 137.238 50.7081 134.561 55.3242C131.884 59.9403 129.691 63.6525 129.584 63.6042Z" fill="#E0E0E0"/>
<path d="M338.492 145.197H287.748V196.457H338.492V145.197Z" fill="#E0E0E0"/>
<path d="M335.046 145.197H284.309V196.457H335.046V145.197Z" fill="#FAFAFA"/>
<path d="M335.067 196.471H284.294V145.183H335.067V196.471ZM284.33 196.471H335.039V145.211H284.33V196.471Z" fill="#E0E0E0"/>
<path d="M328.232 152.09H291.13V189.564H328.232V152.09Z" fill="white"/>
<path d="M291.13 189.812C290.872 190.193 290.566 190.54 290.218 190.847C289.627 191.454 288.794 192.275 287.862 193.166C286.929 194.056 286.067 194.849 285.434 195.408C285.111 195.735 284.753 196.026 284.366 196.277C284.622 195.898 284.929 195.552 285.277 195.249C285.868 194.642 286.701 193.821 287.634 192.931C288.566 192.041 289.435 191.24 290.069 190.675C290.387 190.348 290.743 190.059 291.13 189.812V189.812Z" fill="#E0E0E0"/>
<path d="M328.232 189.75C328.622 190.003 328.978 190.302 329.293 190.64C329.919 191.213 330.767 192.02 331.685 192.924C332.604 193.828 333.422 194.656 334.006 195.27C334.348 195.578 334.648 195.929 334.896 196.312C334.512 196.056 334.159 195.76 333.842 195.429C333.216 194.856 332.369 194.049 331.443 193.138C330.517 192.227 329.699 191.399 329.122 190.785C328.783 190.476 328.484 190.129 328.232 189.75Z" fill="#E0E0E0"/>
<path d="M328.132 152.186C328.394 151.811 328.7 151.466 329.044 151.158C329.635 150.551 330.468 149.73 331.4 148.84C332.333 147.95 333.195 147.156 333.828 146.591C334.147 146.262 334.506 145.973 334.896 145.728C334.639 146.105 334.335 146.45 333.992 146.756C333.394 147.356 332.568 148.184 331.628 149.075C330.688 149.965 329.827 150.765 329.2 151.324C328.882 151.652 328.523 151.942 328.132 152.186Z" fill="#E0E0E0"/>
<path d="M291.03 152.283C290.642 152.027 290.286 151.728 289.969 151.393C289.343 150.82 288.495 150.013 287.577 149.109C286.658 148.205 285.84 147.37 285.256 146.756C284.915 146.449 284.616 146.101 284.366 145.721C284.754 145.971 285.108 146.268 285.419 146.604C286.046 147.177 286.893 147.984 287.819 148.895C288.744 149.806 289.563 150.634 290.14 151.248C290.481 151.555 290.78 151.903 291.03 152.283V152.283Z" fill="#E0E0E0"/>
<path d="M328.132 189.564C328.124 189.504 328.124 189.444 328.132 189.384C328.132 189.253 328.132 189.081 328.132 188.86C328.132 188.391 328.132 187.715 328.132 186.838C328.132 185.065 328.132 182.477 328.097 179.2C328.097 172.638 328.054 163.282 328.026 152.09L328.168 152.228H291.144L291.308 152.069C291.308 165.821 291.308 178.689 291.308 189.543L291.165 189.405L317.958 189.481L325.484 189.515H327.47H327.506H325.541L318.043 189.55L291.165 189.619H291.03V189.481C291.03 178.627 291.03 165.759 291.03 152.007V151.848H291.201H328.225H328.367V151.986C328.367 163.22 328.31 172.597 328.296 179.186C328.296 182.45 328.296 185.024 328.253 186.776C328.253 187.646 328.253 188.308 328.253 188.777C328.253 188.991 328.253 189.157 328.253 189.281C328.253 189.405 328.132 189.571 328.132 189.564Z" fill="#E0E0E0"/>
<path d="M315.872 164.827H303.49V176.826H315.872V164.827Z" fill="#EBEBEB"/>
<path d="M335.388 331.766C335.388 331.862 264.9 331.945 178.036 331.945C91.1716 331.945 20.648 331.89 20.648 331.766C20.648 331.642 91.136 331.586 178.043 331.586C264.949 331.586 335.388 331.662 335.388 331.766Z" fill="#263238"/>
<path d="M38.5833 304.538L43.2397 334.174H70.2815L76.5542 304.966L38.5833 304.538Z" fill="#FF725E"/>
<path d="M72.7735 323.534C72.7735 323.616 65.8458 323.685 57.3018 323.685C48.7578 323.685 41.8229 323.616 41.8229 323.534C41.8229 323.451 48.7506 323.382 57.3018 323.382C65.8529 323.382 72.7735 323.451 72.7735 323.534Z" fill="#FAFAFA"/>
<path d="M72.8803 322.078C72.8803 322.16 65.9027 322.229 57.3018 322.229C48.7008 322.229 41.7232 322.16 41.7232 322.078C41.7232 321.995 48.6937 321.919 57.3018 321.919C65.9098 321.919 72.8803 321.988 72.8803 322.078Z" fill="#FAFAFA"/>
<path d="M72.8233 320.429C72.8233 320.511 65.8529 320.58 57.2448 320.58C48.6367 320.58 41.6662 320.511 41.6662 320.429C41.6662 320.346 48.6438 320.277 57.2448 320.277C65.8457 320.277 72.8233 320.346 72.8233 320.429Z" fill="#FAFAFA"/>
<path d="M46.344 332.483C45.9662 331.265 45.69 330.019 45.5181 328.757C45.244 327.517 45.0703 326.257 44.9984 324.99C45.3762 326.211 45.6547 327.459 45.8314 328.723C46.1052 329.961 46.2766 331.219 46.344 332.483Z" fill="#FAFAFA"/>
<path d="M48.1882 332.173C47.9917 330.967 47.8776 329.75 47.8464 328.53C47.7088 327.318 47.6518 326.099 47.6755 324.88C48.1592 327.281 48.3314 329.731 48.1882 332.173V332.173Z" fill="#FAFAFA"/>
<path d="M51.5345 332.173C51.1695 330.955 50.931 329.704 50.8225 328.44C50.6165 327.186 50.5473 325.914 50.6161 324.645C50.8582 325.886 51.0317 327.139 51.1358 328.399C51.3475 329.648 51.4806 330.908 51.5345 332.173V332.173Z" fill="#FAFAFA"/>
<path d="M53.8913 332.325C53.4752 329.815 53.3891 327.265 53.635 324.735C53.78 325.997 53.8465 327.267 53.8343 328.537C53.9325 329.797 53.9515 331.062 53.8913 332.325V332.325Z" fill="#FAFAFA"/>
<path d="M58.0565 332.173C57.8587 330.982 57.7635 329.777 57.7717 328.571C57.661 327.371 57.661 326.163 57.7717 324.962C57.9697 326.151 58.0649 327.353 58.0565 328.557C58.1582 329.76 58.1582 330.97 58.0565 332.173V332.173Z" fill="#FAFAFA"/>
<path d="M61.0956 332.325C60.9146 329.845 60.9358 327.356 61.1591 324.88C61.3497 327.359 61.3285 329.849 61.0956 332.325V332.325Z" fill="#FAFAFA"/>
<path d="M63.9518 331.931C63.9234 330.63 64.002 329.329 64.1868 328.04C64.2643 326.74 64.4452 325.448 64.7279 324.176C64.761 325.477 64.6848 326.778 64.5001 328.067C64.4225 329.367 64.2392 330.659 63.9518 331.931V331.931Z" fill="#FAFAFA"/>
<path d="M67.64 331.545C67.6466 330.427 67.7997 329.314 68.0957 328.233C68.276 327.132 68.6014 326.059 69.064 325.038C68.8929 326.136 68.6551 327.224 68.352 328.295C68.1769 329.39 67.9392 330.475 67.64 331.545Z" fill="#FAFAFA"/>
<path d="M65.0269 246.047C65.0339 246.097 65.0339 246.149 65.0269 246.199L64.8988 246.613C64.7706 247.006 64.5997 247.538 64.3861 248.214C64.1725 248.89 63.8735 249.752 63.5887 250.753C63.3039 251.753 62.9337 252.864 62.6133 254.127C62.2929 255.39 61.9013 256.763 61.5595 258.267C61.2177 259.771 60.8475 261.351 60.52 263.035C59.8721 266.416 59.2811 270.156 58.861 274.075C58.4409 277.994 58.2843 281.803 58.2273 285.239C58.2273 286.957 58.2273 288.593 58.2772 290.117C58.327 291.642 58.3911 293.071 58.4694 294.368C58.5477 295.665 58.6545 296.838 58.7329 297.866C58.8112 298.894 58.9109 299.784 58.9963 300.502C59.0817 301.22 59.1316 301.765 59.1743 302.172C59.1743 302.344 59.1743 302.489 59.2099 302.607C59.2162 302.657 59.2162 302.708 59.2099 302.758C59.1999 302.71 59.1999 302.661 59.2099 302.613C59.2099 302.496 59.1672 302.351 59.1387 302.179L58.9037 300.516C58.7969 299.826 58.683 298.915 58.5905 297.887C58.4979 296.859 58.3484 295.686 58.2701 294.382C58.1917 293.078 58.0849 291.663 58.0422 290.131C57.9995 288.599 57.971 286.964 57.9639 285.239C57.9639 281.789 58.1775 278.008 58.5762 274.047C58.9749 270.087 59.5944 266.347 60.2565 262.966C60.6197 261.275 60.9685 259.668 61.3317 258.184C61.6948 256.701 62.0437 255.314 62.4281 254.044C62.8126 252.775 63.1401 251.664 63.4463 250.67C63.7525 249.677 64.0444 248.835 64.2936 248.152C64.5428 247.469 64.7279 246.951 64.8632 246.565L65.0198 246.158C65.0181 246.121 65.0205 246.084 65.0269 246.047V246.047Z" fill="#455A64"/>
<path d="M60.1497 264.401C60.8919 262.267 62.377 260.45 64.3505 259.261C64.6581 259.022 65.0219 258.86 65.4094 258.79C65.797 258.721 66.1963 258.745 66.572 258.86C67.5189 259.302 67.5973 260.592 67.284 261.565C66.8026 263.228 65.7147 264.665 64.2224 265.609C62.9041 266.555 61.2539 266.959 59.63 266.733" fill="#455A64"/>
<path d="M58.505 276.793C59.217 274.24 61.3103 270.583 63.489 269.017C63.8221 268.75 64.2071 268.551 64.6211 268.431C64.8301 268.374 65.0504 268.367 65.2626 268.412C65.4748 268.456 65.6726 268.55 65.8386 268.686C66.0254 268.925 66.148 269.205 66.1952 269.502C66.2424 269.798 66.2129 270.101 66.1092 270.383C65.6567 272.245 64.6806 273.949 63.2893 275.306C61.8979 276.663 60.1458 277.62 58.2274 278.07" fill="#455A64"/>
<path d="M58.0493 287.73C59.139 285.288 60.8787 283.171 63.0903 281.596C63.3256 281.386 63.6018 281.225 63.9027 281.121C64.2035 281.016 64.5228 280.971 64.8418 280.989C65.803 281.161 66.2658 282.286 66.1519 283.224C65.9739 285.156 64.4573 286.674 62.8838 287.902C61.4421 288.868 59.8768 289.647 58.2273 290.221" fill="#455A64"/>
<path d="M58.3057 295.548C59.3514 293.685 60.8104 292.071 62.5777 290.821C62.9537 290.54 63.3927 290.349 63.8593 290.262C64.0929 290.221 64.3337 290.242 64.5559 290.323C64.778 290.405 64.9729 290.544 65.1195 290.725C65.5538 291.339 65.1195 292.167 64.6852 292.753C63.174 294.794 61.032 296.317 58.5691 297.1" fill="#455A64"/>
<path d="M58.0921 292.36C56.2463 290.18 54.1991 288.169 51.976 286.35C51.8269 286.182 51.6366 286.053 51.4227 285.974C51.2087 285.896 50.9779 285.871 50.7514 285.902C50.5881 285.968 50.4485 286.079 50.3498 286.221C50.2511 286.363 50.1976 286.53 50.196 286.702C50.1906 287.044 50.2687 287.382 50.4238 287.689C51.1544 289.267 52.2433 290.665 53.6093 291.779C54.9753 292.892 56.5831 293.692 58.3128 294.119" fill="#455A64"/>
<path d="M58.2914 282.155C56.6823 280.264 55.0779 278.369 53.4783 276.469C53.0506 275.902 52.5198 275.416 51.9119 275.034C51.6032 274.851 51.2484 274.754 50.8866 274.754C50.5248 274.754 50.17 274.851 49.8613 275.034C49.581 275.255 49.3709 275.549 49.255 275.881C49.1392 276.213 49.1223 276.57 49.2063 276.911C49.3827 277.584 49.7029 278.214 50.1461 278.76C51.0827 280.156 52.269 281.378 53.6492 282.369C55.0732 283.307 56.3476 283.921 58.0422 283.68" fill="#455A64"/>
<path d="M58.9607 270.666C58.0141 267.945 56.3413 265.514 54.112 263.621C53.7582 263.289 53.3216 263.051 52.8446 262.931C52.3552 262.897 51.8687 263.028 51.4667 263.3C51.0648 263.573 50.7719 263.971 50.6374 264.429C50.4865 264.946 50.4478 265.487 50.5238 266.019C50.5998 266.551 50.7888 267.062 51.0789 267.52C51.674 268.414 52.4459 269.186 53.3502 269.79C54.9717 270.991 56.7787 271.936 58.7044 272.591" fill="#455A64"/>
<path d="M60.8831 260.42C60.4132 257.129 58.6474 254.382 56.6111 251.719C56.1768 251.153 55.5716 250.56 54.8596 250.663C54.6337 250.712 54.4236 250.814 54.2474 250.959C54.0713 251.105 53.9343 251.29 53.8485 251.498C53.6908 251.92 53.6277 252.369 53.6634 252.816C53.7514 254.813 54.4446 256.741 55.6564 258.358C56.8683 259.975 58.545 261.211 60.4772 261.91" fill="#455A64"/>
<path d="M62.2288 255.19C62.006 253.501 61.9464 251.796 62.0508 250.097C62.1613 248.387 62.7685 246.741 63.8023 245.35C64.2343 244.737 64.8401 244.258 65.5467 243.97C65.8975 243.836 66.2779 243.791 66.6517 243.839C67.0255 243.888 67.3804 244.028 67.6827 244.246C67.9361 244.479 68.1318 244.765 68.2551 245.081C68.3784 245.398 68.4261 245.738 68.3947 246.075C68.335 246.751 68.1518 247.413 67.8536 248.027C66.572 251.015 64.436 254.327 62.2003 255.162" fill="#455A64"/>
<path d="M41.296 259.123C41.3126 259.26 41.3126 259.399 41.296 259.537C41.296 259.84 41.296 260.227 41.296 260.737C41.296 261.248 41.296 261.889 41.296 262.628C41.296 263.366 41.296 264.201 41.3886 265.132C41.474 266.982 41.6591 269.19 41.9511 271.625C42.243 274.061 42.6631 276.724 43.2825 279.498C43.9019 282.272 44.5997 284.873 45.3259 287.226C46.0522 289.579 46.814 291.656 47.5047 293.388C47.8322 294.264 48.1739 295.03 48.4587 295.72C48.7435 296.41 48.9999 296.99 49.2135 297.459L49.6976 298.563C49.7627 298.688 49.8128 298.82 49.8471 298.956C49.7708 298.838 49.7018 298.716 49.6406 298.591C49.5054 298.315 49.3274 297.956 49.0995 297.507C48.8717 297.059 48.594 296.465 48.295 295.782C47.9959 295.099 47.6399 294.34 47.2982 293.471C46.5862 291.746 45.8101 289.655 45.0483 287.309C44.2864 284.963 43.5815 282.341 42.9692 279.56C42.3569 276.78 42.008 274.102 41.6947 271.653C41.3815 269.203 41.2604 266.995 41.2035 265.139C41.1536 264.208 41.1607 263.366 41.1536 262.628C41.1465 261.889 41.1536 261.248 41.1536 260.73C41.1536 260.213 41.1536 259.84 41.1963 259.537C41.2183 259.396 41.2516 259.258 41.296 259.123V259.123Z" fill="#263238"/>
<path d="M42.008 272.633C42.0417 271.023 42.6507 269.474 43.731 268.251C43.8884 268.026 44.1006 267.841 44.3489 267.714C44.5972 267.586 44.874 267.519 45.155 267.52C45.867 267.623 46.2302 268.486 46.2586 269.21C46.2983 270.442 45.8758 271.646 45.0696 272.598C44.3892 273.512 43.367 274.131 42.2216 274.323" fill="#263238"/>
<path d="M43.6527 281.416C43.5601 279.526 44.1867 276.586 45.3188 275.075C45.4877 274.823 45.7082 274.607 45.9667 274.441C46.096 274.359 46.2438 274.308 46.3976 274.294C46.5514 274.279 46.7065 274.301 46.8496 274.358C47.0295 274.483 47.1745 274.649 47.2715 274.842C47.3685 275.034 47.4143 275.248 47.405 275.462C47.519 276.828 47.2368 278.198 46.5902 279.417C45.9435 280.637 44.9582 281.656 43.7453 282.362" fill="#263238"/>
<path d="M45.7673 288.937C45.9624 287.047 46.6752 285.241 47.8321 283.707C47.9429 283.51 48.0941 283.336 48.2765 283.197C48.4589 283.059 48.6687 282.957 48.893 282.9C49.605 282.817 50.1248 283.493 50.2743 284.149C50.5876 285.529 49.8969 286.867 49.0924 288.013C48.3264 288.973 47.4335 289.831 46.4366 290.566" fill="#263238"/>
<path d="M47.704 294.223C47.9977 292.725 48.6352 291.31 49.5694 290.083C49.7519 289.816 49.9956 289.594 50.2814 289.434C50.4317 289.358 50.6006 289.323 50.7699 289.332C50.9393 289.342 51.1027 289.396 51.2426 289.489C51.6769 289.814 51.5773 290.462 51.3993 290.959C50.8192 292.662 49.7007 294.144 48.2024 295.196" fill="#263238"/>
<path d="M46.8282 292.098C45.0789 290.986 43.2269 290.035 41.296 289.255C41.156 289.175 40.9981 289.129 40.8357 289.12C40.6734 289.112 40.5113 289.141 40.3633 289.207C40.261 289.288 40.1865 289.397 40.1496 289.521C40.1127 289.644 40.1153 289.775 40.1568 289.897C40.2494 290.124 40.3957 290.327 40.584 290.49C41.4299 291.416 42.4808 292.146 43.6581 292.624C44.8355 293.101 46.1089 293.316 47.3836 293.25" fill="#263238"/>
<path d="M44.6922 285.108L40.1568 282.21C39.7405 281.915 39.2726 281.695 38.7755 281.561C38.5283 281.485 38.2628 281.485 38.0157 281.562C37.7685 281.638 37.5519 281.786 37.3956 281.987C37.2394 282.188 37.1512 282.43 37.1433 282.682C37.1354 282.933 37.2082 283.18 37.3515 283.39C37.6202 283.817 37.9793 284.184 38.4053 284.466C39.3529 285.222 40.4334 285.807 41.595 286.191C42.1141 286.405 42.6723 286.515 43.2362 286.515C43.8001 286.515 44.3582 286.405 44.8773 286.191" fill="#263238"/>
<path d="M42.5989 277.145C41.3503 275.49 39.6728 274.183 37.736 273.357C37.4231 273.197 37.0715 273.121 36.7178 273.136C36.3754 273.213 36.0714 273.404 35.8582 273.674C35.645 273.945 35.5361 274.28 35.5501 274.62C35.5614 275.002 35.6545 275.378 35.8237 275.724C35.9928 276.07 36.2343 276.377 36.5327 276.628C37.1375 277.124 37.8365 277.502 38.5904 277.739C39.9627 278.217 41.4045 278.483 42.8624 278.525" fill="#263238"/>
<path d="M41.6306 269.79C40.584 267.644 38.7826 266.147 36.7819 264.76C36.5971 264.586 36.3683 264.461 36.1184 264.4C35.8685 264.338 35.6063 264.341 35.3579 264.408C35.2151 264.488 35.0949 264.601 35.0079 264.737C34.921 264.873 34.87 265.028 34.8595 265.188C34.8461 265.506 34.9019 265.823 35.0233 266.119C35.5283 267.461 36.4294 268.629 37.6144 269.478C38.7994 270.327 40.2159 270.819 41.6876 270.894" fill="#263238"/>
<path d="M41.3885 265.926C40.8581 264.817 40.4384 263.662 40.1354 262.476C39.8339 261.287 39.8807 260.039 40.2707 258.874C40.4386 258.375 40.7468 257.93 41.1607 257.591C41.3694 257.425 41.6187 257.315 41.8844 257.27C42.1501 257.225 42.4232 257.248 42.6773 257.336C42.9043 257.439 43.1043 257.59 43.2621 257.779C43.42 257.968 43.5316 258.189 43.5886 258.426C43.6954 258.899 43.717 259.387 43.6527 259.868C43.432 262.2 42.72 264.891 41.3885 265.926Z" fill="#263238"/>
<path d="M75.472 258.833C75.4824 258.971 75.4824 259.109 75.472 259.247C75.472 259.55 75.4862 259.951 75.5147 260.447C75.5147 260.965 75.5147 261.6 75.5147 262.338C75.5147 263.076 75.5147 263.918 75.4649 264.85C75.4079 266.713 75.2513 268.921 74.9736 271.37C74.6959 273.82 74.2616 276.49 73.6635 279.271C73.0654 282.051 72.325 284.666 71.5845 287.019C70.844 289.372 70.0537 291.456 69.3345 293.181C68.9928 294.05 68.6225 294.816 68.3377 295.499C68.0529 296.183 67.761 296.755 67.5261 297.224L66.9921 298.301C66.9353 298.429 66.8662 298.551 66.7856 298.667C66.8212 298.531 66.8713 298.399 66.9351 298.273L67.4193 297.176C67.6329 296.7 67.8963 296.114 68.174 295.43C68.4517 294.747 68.8005 293.974 69.1281 293.098C69.8401 291.373 70.5521 289.282 71.3068 286.936C72.0615 284.59 72.7308 281.975 73.3502 279.208C73.9697 276.442 74.3684 273.771 74.6817 271.336C74.995 268.9 75.1587 266.699 75.2442 264.843C75.3082 263.918 75.3082 263.076 75.3367 262.338C75.3652 261.6 75.3367 260.958 75.3367 260.447C75.3367 259.937 75.3367 259.557 75.3367 259.254C75.364 259.109 75.4094 258.967 75.472 258.833V258.833Z" fill="#455A64"/>
<path d="M74.6959 272.343C74.6623 270.735 74.0532 269.189 72.9729 267.968C72.8158 267.742 72.6039 267.556 72.3557 267.428C72.1074 267.299 71.8304 267.231 71.5489 267.23C70.8369 267.334 70.4738 268.196 70.4453 268.921C70.4043 270.152 70.8269 271.356 71.6343 272.309C72.3126 273.224 73.3358 273.844 74.4823 274.034" fill="#455A64"/>
<path d="M73.0583 281.127C73.1509 279.236 72.5243 276.297 71.3922 274.792C71.2215 274.54 71.0014 274.322 70.7443 274.151C70.6145 274.07 70.4663 274.021 70.3125 274.007C70.1587 273.994 70.0039 274.017 69.8614 274.075C69.6811 274.198 69.5357 274.363 69.4386 274.554C69.3415 274.746 69.2959 274.959 69.3061 275.172C69.1912 276.538 69.473 277.909 70.1197 279.128C70.7665 280.347 71.7523 281.367 72.9657 282.072" fill="#455A64"/>
<path d="M70.9436 288.648C70.7476 286.757 70.0348 284.952 68.8788 283.417C68.7639 283.226 68.611 283.059 68.4289 282.925C68.2468 282.791 68.0392 282.693 67.818 282.638C67.106 282.555 66.5862 283.238 66.4367 283.894C66.1234 285.239 66.814 286.612 67.6186 287.758C68.386 288.715 69.2788 289.57 70.2744 290.304" fill="#455A64"/>
<path d="M69.064 293.94C68.7671 292.443 68.1298 291.029 67.1985 289.8C67.0133 289.536 66.7702 289.314 66.4865 289.151C66.3346 289.077 66.1648 289.042 65.9947 289.052C65.8245 289.062 65.6601 289.115 65.5182 289.207C65.091 289.531 65.1907 290.18 65.3687 290.676C65.9448 292.381 67.0641 293.864 68.5656 294.913" fill="#455A64"/>
<path d="M69.8828 291.808C71.627 290.702 73.4716 289.753 75.3936 288.972C75.5326 288.89 75.6903 288.842 75.8529 288.832C76.0155 288.822 76.1781 288.851 76.3264 288.917C76.4279 288.999 76.5018 289.108 76.5386 289.231C76.5754 289.354 76.5734 289.485 76.5328 289.607C76.4611 289.843 76.3316 290.058 76.1555 290.235C75.3095 291.161 74.2587 291.89 73.0814 292.368C71.904 292.846 70.6305 293.06 69.3559 292.995" fill="#455A64"/>
<path d="M72.0188 284.818L76.5542 281.955C76.9686 281.655 77.437 281.433 77.9355 281.299C78.1892 281.234 78.4564 281.239 78.7077 281.312C78.959 281.385 79.1845 281.524 79.3595 281.713C79.4958 281.925 79.5681 282.17 79.5681 282.42C79.5681 282.67 79.4958 282.915 79.3595 283.128C79.0909 283.555 78.7317 283.922 78.3058 284.204C77.3582 284.96 76.2776 285.545 75.116 285.929C74.5974 286.145 74.0391 286.256 73.4748 286.256C72.9106 286.256 72.3523 286.145 71.8337 285.929" fill="#455A64"/>
<path d="M74.1121 276.856C75.3609 275.202 77.0385 273.897 78.975 273.074C79.2886 272.915 79.6393 272.836 79.9932 272.847C80.3343 272.926 80.6367 273.117 80.8495 273.387C81.0622 273.657 81.1722 273.99 81.1609 274.33C81.1506 274.714 81.0579 275.091 80.8888 275.438C80.7196 275.785 80.4776 276.094 80.1783 276.345C79.5732 276.839 78.8742 277.215 78.1206 277.449C76.7477 277.927 75.3065 278.194 73.8486 278.243" fill="#455A64"/>
<path d="M75.0804 269.479C76.127 267.334 77.9284 265.836 79.9291 264.449C80.1147 264.276 80.3435 264.153 80.5931 264.091C80.8428 264.03 81.1046 264.032 81.3531 264.098C81.4959 264.178 81.6161 264.291 81.7031 264.427C81.79 264.563 81.841 264.718 81.8515 264.877C81.8645 265.198 81.8087 265.517 81.6877 265.816C81.1816 267.156 80.28 268.323 79.0951 269.17C77.9102 270.018 76.4943 270.509 75.0234 270.583" fill="#455A64"/>
<path d="M75.3224 265.65C75.8482 264.54 76.2677 263.385 76.5756 262.2C76.8773 261.013 76.8304 259.768 76.4403 258.605C76.2759 258.104 75.9671 257.659 75.5503 257.322C75.3408 257.155 75.0906 257.043 74.8238 256.997C74.557 256.952 74.2825 256.973 74.0266 257.059C73.8026 257.166 73.6056 257.319 73.4493 257.507C73.293 257.695 73.1814 257.915 73.1224 258.15C73.0156 258.626 72.994 259.116 73.0583 259.599C73.2719 261.896 73.991 264.601 75.3224 265.636" fill="#455A64"/>
<path d="M35.4789 298.667V304.187C35.4751 304.476 35.5308 304.763 35.6426 305.031C35.7544 305.299 35.9202 305.543 36.1302 305.749C36.3403 305.954 36.5904 306.117 36.8661 306.228C37.1418 306.339 37.4375 306.395 37.7359 306.395H76.8959C77.192 306.395 77.4853 306.34 77.7591 306.231C78.0329 306.121 78.2818 305.961 78.4915 305.758C78.7012 305.556 78.8675 305.315 78.981 305.05C79.0946 304.785 79.153 304.501 79.153 304.214V298.694L35.4789 298.667Z" fill="#FF725E"/>
<g opacity="0.4">
<path opacity="0.4" d="M38.8752 306.395L39.2027 308.161L75.3296 310.659L76.2481 306.395H38.8752Z" fill="black"/>
</g>
<path d="M195.757 220.145C197.498 211.06 197.37 201.732 195.382 192.695C193.394 183.658 189.585 175.091 184.173 167.484L134.005 175.881C129.185 194.911 135.344 216.191 149.67 230.012L195.757 220.145Z" fill="#FF725E"/>
<path d="M195.757 220.145C197.498 211.06 197.37 201.732 195.382 192.695C193.394 183.658 189.585 175.091 184.173 167.484L134.005 175.881C129.185 194.911 135.344 216.191 149.67 230.012L195.757 220.145Z" fill="#455A64"/>
<g opacity="0.3">
<path opacity="0.3" d="M194.234 186.845C192.354 184.397 190.094 182.246 187.534 180.47C186.943 179.993 186.229 179.682 185.469 179.573C184.979 179.589 184.497 179.704 184.055 179.909C183.613 180.115 183.219 180.406 182.899 180.766C181.963 181.672 181.243 182.765 180.789 183.969C180.335 185.173 180.158 186.458 180.271 187.735C180.506 190.171 181.802 192.565 181.161 194.959C180.876 195.841 180.388 196.648 179.733 197.318C179.077 197.989 178.273 198.506 177.381 198.83C175.59 199.467 173.675 199.703 171.777 199.52C167.071 199.224 162.557 197.706 158.121 196.146C153.685 194.587 149.228 192.959 144.543 192.434C139.858 191.91 134.853 192.607 131.058 195.318L133.657 195.035C140.295 196.813 146.776 199.102 153.037 201.88C157.886 204.033 162.763 206.517 168.089 206.897C172.817 207.228 177.544 205.841 181.745 203.702C185.946 201.563 189.691 198.686 193.408 195.829C194.468 195.143 195.335 194.211 195.928 193.117C196.832 191.02 195.622 188.66 194.234 186.845Z" fill="black"/>
</g>
<path d="M135.444 192.662C135.315 191.918 135.239 191.166 135.216 190.412C135.109 189.032 134.952 187.1 134.725 184.989C134.497 182.878 134.24 180.966 134.055 179.579C133.917 178.839 133.831 178.089 133.799 177.337C134.039 178.056 134.211 178.795 134.312 179.545C134.568 180.925 134.867 182.829 135.095 184.948C135.323 187.066 135.437 188.998 135.479 190.399C135.54 191.152 135.528 191.91 135.444 192.662V192.662Z" fill="#263238"/>
<path d="M174.269 199.238C173.787 198.101 173.243 196.991 172.639 195.912C171.073 193.367 169.064 191.105 166.701 189.226C164.326 187.351 161.803 185.663 159.153 184.175L156.761 182.795C156.459 182.64 156.173 182.457 155.907 182.25C156.228 182.365 156.538 182.508 156.832 182.677C157.416 182.974 158.256 183.409 159.289 183.968C161.991 185.405 164.553 187.077 166.943 188.963C169.341 190.864 171.35 193.183 172.866 195.801C173.313 196.598 173.692 197.429 173.999 198.285C174.123 198.593 174.213 198.912 174.269 199.238V199.238Z" fill="#263238"/>
<path d="M172.176 189.129C171.862 188.654 171.597 188.15 171.386 187.625C170.873 186.562 170.275 185.32 169.606 183.947C168.936 182.574 168.295 181.346 167.769 180.297C167.482 179.805 167.243 179.287 167.057 178.751C167.427 179.189 167.745 179.666 168.004 180.173C168.538 181.077 169.242 182.353 169.947 183.788C170.652 185.224 171.243 186.548 171.635 187.521C171.881 188.034 172.063 188.574 172.176 189.129V189.129Z" fill="#263238"/>
<path d="M191.272 151.876L190.994 153.946C189.311 157.058 187.997 160.345 187.078 163.744C185.576 169.34 182.201 179.614 182.486 184.175C182.77 188.736 192.511 195.353 192.511 195.353L200.172 174.77L202.258 164.22C202.258 164.22 200.891 152.945 199.531 152.421C198.171 151.897 191.272 151.876 191.272 151.876Z" fill="#263238"/>
<path d="M249.969 181.863L238.342 208.925L238.456 223.146L177.573 205.475L193.45 192.862L196.961 183.126L202.115 165.283L205.853 143.761L212.069 137.655L242.586 139.656L251.336 143.906C251.336 143.906 250.24 180.649 249.969 181.863Z" fill="#263238"/>
<path d="M204.55 142.202C204.55 142.202 197.829 146.929 195.458 157.534C193.087 168.139 194.39 175.087 194.39 175.087C194.39 175.087 213.329 154.629 213.5 154.125C213.671 153.622 212.24 144.969 212.24 144.969L204.55 142.202Z" fill="#FF725E"/>
<path d="M253.586 149.081C254.298 149.523 258 156.437 256.434 162.536C254.868 168.636 234.519 200.245 226.487 203.55C218.456 206.855 211.101 205.082 207.669 195.863C204.237 186.645 197.502 155.843 197.502 155.843L197.915 152.662L209.271 150.813L210.403 153.47C212.58 157.129 214.438 160.958 215.957 164.917C218.591 171.7 221.105 179.607 221.105 179.607L253.586 149.081Z" fill="#263238"/>
<path d="M253.586 149.081C253.586 149.081 253.394 149.281 253.009 149.647L251.3 151.276L244.786 157.486L221.204 179.766L221.033 179.931L220.962 179.704C219.652 175.667 218.2 171.424 216.548 166.973C214.869 162.345 212.765 157.872 210.261 153.608V153.608L209.122 150.958L209.314 151.062L197.936 152.863L198.086 152.711L197.673 155.892V155.83C199.054 162.04 200.521 168.553 202.137 175.15C203.034 178.813 203.938 182.436 204.885 185.983C205.355 187.756 205.846 189.515 206.352 191.247C206.857 192.979 207.391 194.697 208.054 196.346C208.672 197.984 209.562 199.513 210.688 200.873C211.781 202.21 213.184 203.278 214.782 203.992C216.349 204.664 218.053 204.985 219.766 204.93C221.465 204.877 223.146 204.572 224.75 204.026C225.149 203.909 225.526 203.743 225.918 203.605C226.304 203.471 226.678 203.304 227.036 203.108C227.392 202.922 227.748 202.681 228.061 202.467C228.374 202.253 228.709 201.984 229.022 201.735C230.24 200.71 231.388 199.611 232.461 198.444C234.597 196.167 236.512 193.807 238.314 191.489C241.874 186.845 244.992 182.346 247.712 178.172C250.432 173.997 252.746 170.14 254.569 166.649C255.451 164.889 256.32 163.247 256.555 161.584C256.794 160.077 256.794 158.544 256.555 157.037C256.242 154.94 255.621 152.898 254.711 150.972C254.477 150.472 254.213 149.986 253.921 149.516C253.817 149.358 253.698 149.21 253.565 149.074C253.605 149.101 253.643 149.131 253.679 149.164C253.777 149.268 253.867 149.379 253.949 149.495C254.264 149.957 254.542 150.442 254.782 150.944C255.723 152.867 256.368 154.913 256.697 157.016C256.937 158.539 256.937 160.089 256.697 161.612C256.462 163.309 255.587 164.972 254.718 166.738C252.91 170.251 250.588 174.115 247.897 178.31C245.206 182.505 242.101 187.004 238.52 191.668C236.726 193.994 234.811 196.36 232.66 198.658C231.584 199.837 230.428 200.946 229.2 201.977C228.88 202.239 228.552 202.481 228.225 202.729C227.897 202.977 227.513 203.198 227.164 203.419C226.795 203.622 226.409 203.795 226.01 203.936C225.612 204.081 225.227 204.247 224.821 204.371C223.194 204.924 221.489 205.234 219.766 205.289C217.991 205.355 216.223 205.029 214.597 204.337C212.949 203.6 211.503 202.499 210.375 201.121C209.224 199.731 208.312 198.17 207.676 196.498C207.007 194.835 206.494 193.11 205.967 191.378C205.441 189.646 204.964 187.88 204.486 186.1C203.54 182.546 202.635 178.931 201.745 175.26C200.143 168.65 198.655 162.15 197.281 155.94V155.878C197.431 154.781 197.573 153.691 197.701 152.697V152.573H197.836L209.193 150.737H209.328L209.385 150.862L210.517 153.511C213.035 157.794 215.144 162.291 216.818 166.945C218.47 171.375 219.908 175.646 221.211 179.697L220.962 179.635C230.88 170.347 239.033 162.723 244.707 157.403L251.251 151.296L252.967 149.709L253.586 149.081Z" fill="#455A64"/>
<path d="M179.36 204.061C179.36 204.061 179.438 203.964 179.616 203.812L180.407 203.122L183.361 200.7L193.329 192.703C193.634 192.273 193.885 191.81 194.077 191.323C195.202 188.563 195.999 185.865 196.726 183.492L196.761 183.643C196.281 182.986 195.905 182.262 195.643 181.498C195.38 180.808 195.166 180.118 194.981 179.428C194.664 178.294 194.426 177.142 194.269 175.978C194.166 175.227 194.111 174.471 194.105 173.714C194.101 173.444 194.118 173.175 194.155 172.907C194.198 173.174 194.217 173.444 194.212 173.714C194.255 174.232 194.305 174.998 194.469 175.95C194.65 177.114 194.904 178.266 195.23 179.4C195.43 180.042 195.65 180.718 195.942 181.415C196.195 182.139 196.558 182.822 197.018 183.443L197.074 183.519V183.602C196.313 186.271 195.413 188.901 194.376 191.482C194.174 192.015 193.899 192.518 193.557 192.979V192.979L183.504 200.887L180.478 203.226L179.652 203.84C179.563 203.923 179.465 203.997 179.36 204.061V204.061Z" fill="#455A64"/>
<path d="M131.051 305.939L129.413 323.286V329.717C129.413 332.152 127.377 331.697 124.856 331.704L94.1406 331.766C94.1406 331.766 92.681 328.778 94.9452 327.84C97.2094 326.901 114.369 317.683 114.369 317.683L112.824 304.035L131.051 305.939Z" fill="#EBEBEB"/>
<path d="M131.051 305.939H130.716L129.762 305.849L126.131 305.504L112.823 304.18L112.973 304.042C113.436 308.03 113.963 312.639 114.547 317.683V317.793L114.454 317.842L103.333 323.776C101.358 324.82 99.3382 325.871 97.2734 326.929L95.6999 327.709C95.1666 327.89 94.6806 328.182 94.2759 328.564C93.9471 329.002 93.8043 329.545 93.8772 330.082C93.9231 330.645 94.0676 331.195 94.3044 331.711L94.1335 331.607H95.1232H118.341H123.56C124.401 331.607 125.241 331.607 126.06 331.607C126.844 331.683 127.636 331.615 128.395 331.407C128.713 331.237 128.968 330.974 129.124 330.656C129.279 330.338 129.328 329.98 129.264 329.634V327.405C129.264 325.977 129.264 324.597 129.264 323.265C129.798 317.938 130.225 313.605 130.524 310.617L130.887 307.167L130.987 306.263C130.987 306.056 131.029 305.946 131.029 305.946C131.037 306.042 131.037 306.139 131.029 306.236C131.029 306.457 131.029 306.746 130.958 307.126C130.894 307.926 130.794 309.085 130.666 310.576C130.403 313.605 130.018 317.952 129.541 323.32C129.541 324.631 129.541 326.011 129.541 327.46C129.541 328.15 129.541 328.902 129.541 329.647C129.565 330.041 129.507 330.435 129.37 330.807C129.295 331.005 129.179 331.185 129.028 331.337C128.877 331.489 128.696 331.609 128.495 331.69C127.698 331.927 126.861 332.009 126.031 331.931C125.212 331.931 124.386 331.931 123.539 331.931H118.32L95.1018 331.993H93.9911L93.9484 331.89C93.6932 331.335 93.5367 330.743 93.4856 330.137C93.4067 329.511 93.5773 328.879 93.9626 328.371C94.0584 328.242 94.1764 328.13 94.3115 328.04C94.434 327.939 94.5706 327.855 94.7173 327.791C94.995 327.646 95.2513 327.55 95.5148 327.419L97.0812 326.639C99.1531 325.59 101.168 324.535 103.14 323.5L114.269 317.593L114.183 317.745C113.628 312.694 113.115 308.085 112.674 304.097V303.931H112.838L126.209 305.401L129.805 305.808L130.73 305.918C130.838 305.916 130.945 305.923 131.051 305.939V305.939Z" fill="#263238"/>
<path d="M122.649 331.531C122.713 331.531 122.777 330.965 123.069 330.103C123.439 328.975 124.064 327.94 124.898 327.075C125.731 326.21 126.753 325.535 127.889 325.1C128.758 324.755 129.313 324.652 129.313 324.597C128.788 324.571 128.262 324.658 127.776 324.852C126.566 325.247 125.475 325.925 124.6 326.825C123.731 327.73 123.11 328.83 122.792 330.027C122.628 330.512 122.58 331.026 122.649 331.531V331.531Z" fill="#263238"/>
<path d="M103.24 331.745C103.427 331.41 103.525 331.036 103.525 330.655C103.604 329.733 103.409 328.809 102.962 327.992C102.502 327.187 101.877 326.483 101.125 325.922C100.839 325.666 100.502 325.469 100.136 325.342C100.136 325.39 100.442 325.659 100.954 326.115C101.618 326.702 102.182 327.387 102.628 328.143C103.043 328.91 103.26 329.762 103.261 330.627C103.226 330.999 103.218 331.373 103.24 331.745Z" fill="#263238"/>
<path d="M217.872 143.334C217.285 143.328 216.704 143.22 216.156 143.016C214.808 142.594 213.561 141.914 212.489 141.015C211.414 140.119 210.53 139.027 209.89 137.8C209.601 137.306 209.406 136.766 209.314 136.206C209.378 136.206 209.599 136.786 210.125 137.676C210.807 138.835 211.689 139.874 212.731 140.746C213.775 141.623 214.964 142.323 216.249 142.816C217.196 143.147 217.872 143.272 217.872 143.334Z" fill="#263238"/>
<path d="M116.319 212.065L84.3435 255.431L100.171 265.008L144.856 214.921L116.319 212.065Z" fill="#263238"/>
<path d="M98.0399 266.016L85.822 279.643L83.6148 285.708C82.7747 288.006 81.0089 286.916 78.6308 286.102L49.6667 276.172C49.6667 276.172 49.332 272.888 51.8027 272.722C54.2733 272.557 73.6183 269.466 73.6183 269.466L84.0135 256.225L98.0399 266.016Z" fill="#EBEBEB"/>
<path d="M98.0424 266.016L97.779 265.85L97.067 265.353L94.2617 263.428L83.9448 256.328H84.1228L73.7418 269.583L73.6991 269.631H73.635L61.0611 271.612C58.8468 271.95 56.5898 272.302 54.2758 272.612L52.5314 272.833C51.9675 272.83 51.4104 272.951 50.9009 273.185C50.4439 273.491 50.1254 273.955 50.0109 274.482C49.8663 275.024 49.8134 275.586 49.8542 276.145L49.7332 275.993L50.0322 276.097L72.2466 283.687L77.2306 285.405C78.0352 285.688 78.8398 285.95 79.623 286.246C80.3519 286.576 81.1308 286.791 81.9298 286.881C82.1098 286.892 82.2901 286.866 82.4592 286.805C82.6284 286.745 82.7827 286.651 82.9124 286.529C83.1587 286.261 83.3454 285.946 83.4606 285.605C83.7241 284.915 83.9804 284.19 84.2367 283.535L85.6607 279.581L94.696 269.666L97.1595 266.968L97.8074 266.278L98.0424 266.036C97.9853 266.122 97.921 266.203 97.8502 266.278C97.7006 266.45 97.4942 266.678 97.2378 266.968L94.8384 269.686L85.9313 279.74V279.698L84.5073 283.652C84.2581 284.342 84.0018 285.032 83.7454 285.757C83.6147 286.139 83.4039 286.492 83.126 286.792C82.9679 286.942 82.7795 287.06 82.5725 287.137C82.3655 287.214 82.1443 287.249 81.9227 287.24C81.0875 287.151 80.2725 286.932 79.509 286.591C78.733 286.302 77.9284 286.039 77.1167 285.763L72.1327 284.052L49.9112 276.462L49.6122 276.359L49.4982 276.317V276.207C49.4547 275.604 49.5124 274.998 49.6691 274.413C49.8078 273.801 50.1821 273.263 50.7158 272.909C50.8492 272.819 50.9956 272.75 51.1501 272.702C51.3015 272.648 51.4594 272.613 51.62 272.598C51.9404 272.55 52.2038 272.543 52.5029 272.509L54.2402 272.288C56.5471 271.97 58.8112 271.598 61.0184 271.294L73.5923 269.335L73.4855 269.397C77.4371 264.401 80.9829 259.902 83.9377 256.162L84.0089 256.066L84.1157 256.135L94.3898 263.401L97.131 265.353L97.843 265.857L98.0424 266.016Z" fill="#263238"/>
<path d="M100.107 265.684L96.832 268.9C96.5935 269.139 96.2719 269.283 95.9297 269.304C95.5876 269.326 95.2493 269.224 94.9808 269.017L82.3641 259.295C82.1022 259.082 81.9279 258.786 81.873 258.459C81.8181 258.132 81.8863 257.797 82.0651 257.515L84.5001 253.83C84.604 253.673 84.7405 253.539 84.901 253.436C85.0615 253.333 85.2424 253.264 85.4321 253.233C85.6218 253.202 85.8161 253.209 86.0026 253.255C86.1891 253.301 86.3637 253.384 86.5151 253.499L99.9434 263.69C100.099 263.804 100.228 263.949 100.321 264.115C100.415 264.28 100.472 264.463 100.487 264.652C100.503 264.84 100.477 265.03 100.411 265.208C100.346 265.386 100.242 265.548 100.107 265.684V265.684Z" fill="#EBEBEB"/>
<path d="M81.88 258.943C82.4178 259.563 83.0059 260.14 83.6386 260.668C84.7636 261.689 86.3514 263.062 88.1954 264.491C90.0395 265.919 91.7554 267.113 93.0726 267.941C93.7206 268.348 94.2474 268.665 94.6248 268.872C94.8073 269 95.009 269.1 95.2229 269.169C94.5889 268.647 93.9206 268.165 93.2222 267.727C91.969 266.857 90.2602 265.657 88.4304 264.215C86.6006 262.773 84.9843 261.455 83.8166 260.489C83.2106 259.929 82.5634 259.412 81.88 258.943V258.943Z" fill="#263238"/>
<path d="M93.5354 267.506C94.6645 267.007 95.6369 266.227 96.3536 265.245C97.0703 264.263 97.5056 263.115 97.6152 261.917C97.2122 263.009 96.6869 264.055 96.0488 265.036C95.304 265.944 94.4614 266.772 93.5354 267.506Z" fill="#263238"/>
<path d="M88.4375 264.505C89.4478 263.706 90.354 262.79 91.136 261.779C92.009 260.84 92.7577 259.8 93.3646 258.681C92.458 259.581 91.6136 260.537 90.837 261.545C89.9657 262.475 89.1639 263.464 88.4375 264.505V264.505Z" fill="#263238"/>
<path d="M83.8095 260.13C84.41 259.086 85.1657 258.132 86.0523 257.301C87.0204 256.562 88.0951 255.964 89.2421 255.528C88.8642 255.504 88.486 255.568 88.1385 255.714C87.2802 256.001 86.4872 256.446 85.8031 257.025C85.1157 257.603 84.5521 258.306 84.1442 259.095C83.9467 259.408 83.8317 259.764 83.8095 260.13V260.13Z" fill="#263238"/>
<path d="M76.6041 285.218C76.6539 285.218 76.9103 284.722 77.487 284.004C78.2281 283.063 79.1749 282.293 80.2595 281.749C81.344 281.205 82.5393 280.901 83.7597 280.858C84.6995 280.816 85.2834 280.913 85.2976 280.858C84.809 280.669 84.2851 280.582 83.7597 280.602C82.4837 280.576 81.2212 280.86 80.0879 281.429C78.9547 281.998 77.9869 282.834 77.2734 283.859C76.9475 284.258 76.7187 284.722 76.6041 285.218Z" fill="#263238"/>
<path d="M58.2202 279.105C58.5133 278.852 58.7361 278.532 58.8682 278.173C59.2607 277.329 59.3942 276.392 59.2526 275.476C59.0993 274.575 58.7551 273.715 58.2416 272.95C57.85 272.371 57.5296 272.053 57.5296 272.081C57.6502 272.434 57.8177 272.77 58.028 273.081C58.45 273.848 58.7454 274.675 58.9038 275.531C59.0287 276.388 58.9383 277.261 58.6403 278.077C58.4705 278.407 58.3299 278.751 58.2202 279.105V279.105Z" fill="#263238"/>
<path d="M147.206 212.686H130.118C125.941 212.673 121.864 213.921 118.451 216.255C115.038 218.589 112.459 221.895 111.072 225.713V225.713C109.736 229.389 109.148 233.281 109.342 237.174L112.339 304.449L132.859 304.649L134.134 283.093L137.046 242.093L156.982 242.908L168.288 242.218L147.206 212.686Z" fill="#263238"/>
<path d="M127.74 232.047C127.697 232.171 130.097 232.737 132.653 234.296C135.209 235.856 136.846 237.615 136.925 237.526C136.67 237.058 136.33 236.64 135.921 236.29C134.079 234.475 131.805 233.124 129.299 232.358C128.803 232.164 128.275 232.059 127.74 232.047V232.047Z" fill="#263238"/>
<g opacity="0.3">
<path opacity="0.3" d="M167.925 242.224C163.283 243.059 158.178 241.679 154.191 239.271C150.206 236.859 147.323 233.063 146.131 228.659C145.625 226.713 145.469 224.698 144.963 222.753C144.557 220.755 143.457 218.953 141.845 217.647C139.894 216.267 135.095 215.342 133.664 213.458C133.664 213.175 139.36 213.81 141.261 213.914C143.34 214.024 146.829 214.535 146.757 214.3C146.757 214.3 148.146 219.027 148.765 220.055C152.923 226.955 162.037 237.112 167.925 242.224" fill="black"/>
</g>
<path d="M191.286 207.352C191.286 207.352 140.414 192.862 134.191 194.49C127.968 196.119 116.149 212.244 116.149 212.244L149.022 221.573L167.669 242.88L191.286 207.352Z" fill="#263238"/>
<path d="M112.368 304.442C112.368 304.442 112.368 304.359 112.368 304.2C112.368 304.042 112.368 303.773 112.311 303.469C112.268 302.779 112.211 301.868 112.133 300.668C111.998 298.211 111.798 294.692 111.556 290.359C111.1 281.63 110.474 269.618 109.783 256.342C109.449 249.697 109.135 243.363 108.851 237.608C108.682 234.868 108.876 232.118 109.427 229.425C110.019 227.097 110.98 224.871 112.275 222.829C113.212 221.079 114.412 219.475 115.835 218.068C116.917 217.009 118.144 216.099 119.481 215.363C120.321 214.885 121.234 214.54 122.186 214.342C122.515 214.269 122.853 214.239 123.19 214.252C123.19 214.252 122.841 214.252 122.201 214.411C121.268 214.641 120.375 215.004 119.552 215.487C116.517 217.277 114.07 219.866 112.496 222.953C111.237 224.984 110.305 227.19 109.733 229.494C109.203 232.161 109.023 234.883 109.199 237.595C109.491 243.356 109.819 249.683 110.161 256.321C110.809 269.604 111.4 281.617 111.827 290.345C112.019 294.685 112.176 298.204 112.29 300.661C112.332 301.861 112.368 302.8 112.396 303.462V304.193C112.4 304.277 112.39 304.361 112.368 304.442Z" fill="#455A64"/>
<path d="M116.149 212.244C116.149 212.244 116.22 212.127 116.384 211.899L117.096 210.905C117.751 210.036 118.726 208.759 120.036 207.152C121.346 205.544 122.984 203.591 125.02 201.425C126.038 200.348 127.156 199.217 128.416 198.085C129.05 197.519 129.712 196.954 130.431 196.415C131.164 195.846 131.948 195.343 132.774 194.911C133.21 194.694 133.665 194.514 134.134 194.373L134.888 194.256H135.643C136.667 194.28 137.689 194.358 138.705 194.49C140.777 194.752 142.92 195.132 145.113 195.567C149.527 196.429 154.226 197.506 159.161 198.699C169.036 201.1 179.88 203.978 191.3 207.2L191.535 207.262L191.4 207.469L186.957 214.162L167.776 242.997L167.655 243.184L167.505 243.011C160.528 235.014 154.219 227.79 148.886 221.669L148.95 221.711L128.787 215.929L123.311 214.342L121.887 213.921C121.567 213.824 121.41 213.762 121.41 213.762L121.902 213.886L123.326 214.273L128.822 215.791L149.022 221.462L167.69 242.756H167.42L186.573 213.9L191.023 207.207L191.122 207.476C179.73 204.261 168.872 201.37 159.011 198.948C154.077 197.74 149.392 196.657 144.985 195.781C142.777 195.346 140.649 194.959 138.577 194.697C137.571 194.558 136.559 194.475 135.543 194.449H134.831L134.119 194.552C133.664 194.683 133.223 194.856 132.802 195.07C131.989 195.489 131.217 195.978 130.495 196.533C129.783 197.064 129.114 197.623 128.488 198.182C127.227 199.306 126.102 200.424 125.077 201.494C123.034 203.64 121.389 205.579 120.093 207.172C118.797 208.766 117.772 210.029 117.103 210.885L116.341 211.858C116.241 212.14 116.149 212.244 116.149 212.244Z" fill="#455A64"/>
<path d="M137.857 234.317C137.957 234.317 137.651 237.94 137.145 242.376C136.64 246.813 136.177 250.408 136.077 250.394C135.978 250.38 136.291 246.778 136.789 242.342C137.288 237.905 137.758 234.31 137.857 234.317Z" fill="#455A64"/>
<path d="M209.008 89.2308C209.588 86.9877 210.774 84.9347 212.444 83.2828C214.114 81.631 216.208 80.4396 218.51 79.8313C220.812 79.2229 223.24 79.2194 225.544 79.8212C227.848 80.423 229.946 81.6083 231.621 83.2554C232.981 84.5871 234.063 86.2224 235.665 87.2643C237.48 88.4511 237.744 88.0992 239.773 88.8789C241.802 89.6586 245.533 95.1372 245.469 97.2555L246.487 106.536C246.402 108.709 243.525 109.931 241.396 109.22C239.268 108.509 237.836 106.591 236.747 104.707C235.658 102.824 234.575 100.788 232.739 99.5394C229.691 97.4694 225.569 98.1594 221.916 98.8977C218.264 99.636 214.084 100.14 211.236 97.8144C208.758 95.8134 208.224 92.2461 209.008 89.2308Z" fill="#263238"/>
<path d="M207 102.479C207.406 96.4413 211.557 89.0376 217.765 89.6862L237.146 94.5162C238.056 94.6109 238.896 95.0326 239.501 95.698C240.106 96.3635 240.432 97.2244 240.414 98.1111L238.228 143.43H238.363C238.363 143.43 230.482 159.632 217.666 155.726C215.124 154.946 217.431 148.826 216.954 146.066H216.818C216.818 145.735 216.818 145.431 216.818 145.114C216.566 143.052 216.54 140.971 216.74 138.904V138.904C216.704 135.247 216.704 133.75 216.704 133.777C216.704 133.805 208.709 132.48 207.078 122.406C206.274 117.397 206.551 109.192 207 102.479Z" fill="#FFBE9D"/>
<path d="M209.933 110.586C209.929 110.923 210.061 111.249 210.3 111.493C210.539 111.738 210.867 111.883 211.215 111.897C211.385 111.909 211.555 111.889 211.717 111.837C211.879 111.785 212.028 111.702 212.157 111.593C212.285 111.485 212.39 111.353 212.465 111.205C212.541 111.057 212.585 110.896 212.596 110.731C212.598 110.395 212.466 110.072 212.227 109.828C211.988 109.585 211.661 109.441 211.315 109.427C211.145 109.414 210.974 109.434 210.813 109.485C210.651 109.536 210.502 109.618 210.373 109.726C210.245 109.834 210.14 109.966 210.064 110.113C209.989 110.261 209.944 110.422 209.933 110.586Z" fill="#263238"/>
<path d="M208.83 106.757C208.993 106.922 210.004 106.198 211.443 106.205C212.881 106.212 213.92 106.895 214.077 106.743C214.234 106.591 213.984 106.363 213.529 106.053C212.906 105.625 212.157 105.402 211.393 105.418C210.647 105.412 209.918 105.636 209.314 106.06C208.901 106.377 208.751 106.681 208.83 106.757Z" fill="#263238"/>
<path d="M222.892 110.669C222.886 111.006 223.017 111.332 223.257 111.576C223.497 111.82 223.826 111.962 224.173 111.973C224.343 111.987 224.513 111.968 224.675 111.917C224.836 111.866 224.986 111.784 225.114 111.676C225.242 111.568 225.347 111.436 225.421 111.288C225.495 111.14 225.538 110.978 225.547 110.814C225.551 110.478 225.42 110.153 225.18 109.909C224.941 109.666 224.613 109.522 224.266 109.51C224.096 109.496 223.926 109.515 223.764 109.566C223.603 109.617 223.453 109.699 223.325 109.807C223.197 109.915 223.092 110.047 223.018 110.195C222.944 110.344 222.901 110.505 222.892 110.669Z" fill="#263238"/>
<path d="M222.927 107.047C223.091 107.212 224.102 106.488 225.533 106.495C226.964 106.501 228.018 107.185 228.175 107.033C228.331 106.881 228.082 106.653 227.626 106.343C227.002 105.917 226.254 105.695 225.49 105.708C224.745 105.703 224.017 105.928 223.411 106.35C222.991 106.667 222.856 106.95 222.927 107.047Z" fill="#263238"/>
<path d="M217.694 117.341C216.94 117.105 216.157 116.966 215.366 116.927C215.003 116.886 214.654 116.817 214.597 116.575C214.565 116.21 214.649 115.844 214.839 115.527C215.188 114.664 215.551 113.767 215.928 112.822C217.445 108.979 218.541 105.818 218.378 105.763C218.214 105.708 216.861 108.772 215.352 112.615C214.988 113.567 214.64 114.471 214.305 115.333C214.078 115.758 214.01 116.246 214.113 116.713C214.167 116.838 214.25 116.949 214.355 117.039C214.459 117.129 214.583 117.194 214.718 117.231C214.919 117.286 215.128 117.314 215.337 117.314C216.119 117.418 216.91 117.428 217.694 117.341V117.341Z" fill="#263238"/>
<path d="M216.669 133.777C221.562 133.862 226.384 132.627 230.595 130.21C230.595 130.21 227.035 137.213 216.669 136.247V133.777Z" fill="#EB996E"/>
<path d="M218.299 120.688C218.572 120.356 218.928 120.097 219.333 119.935C219.738 119.773 220.178 119.714 220.613 119.763C220.93 119.792 221.237 119.882 221.517 120.028C221.797 120.173 222.044 120.372 222.244 120.612C222.435 120.844 222.548 121.127 222.568 121.424C222.587 121.72 222.511 122.015 222.351 122.268C222.121 122.518 221.819 122.696 221.484 122.778C221.149 122.861 220.796 122.844 220.471 122.73C219.793 122.496 219.171 122.132 218.641 121.661C218.478 121.552 218.337 121.414 218.228 121.254C218.176 121.177 218.148 121.087 218.148 120.995C218.148 120.903 218.176 120.813 218.228 120.736" fill="#EB996E"/>
<path d="M221.916 118.307C221.681 118.307 221.674 119.805 220.343 120.874C219.011 121.944 217.352 121.771 217.338 121.978C217.338 122.075 217.708 122.275 218.406 122.296C219.317 122.308 220.204 122.01 220.912 121.454C221.59 120.919 222.027 120.149 222.13 119.308C222.194 118.68 222.023 118.301 221.916 118.307Z" fill="#263238"/>
<path d="M222.578 101.754C222.721 102.134 224.152 101.961 225.832 102.161C227.512 102.361 228.872 102.803 229.1 102.465C229.2 102.306 228.965 101.947 228.388 101.582C227.655 101.129 226.825 100.846 225.961 100.753C225.097 100.659 224.222 100.759 223.404 101.044C222.856 101.278 222.521 101.575 222.578 101.754Z" fill="#263238"/>
<path d="M209.364 102.734C209.62 103.051 210.61 102.734 211.792 102.734C212.973 102.734 213.984 102.948 214.219 102.617C214.319 102.458 214.162 102.141 213.728 101.844C213.138 101.482 212.451 101.299 211.753 101.319C211.055 101.339 210.379 101.56 209.812 101.954C209.392 102.258 209.257 102.582 209.364 102.734Z" fill="#263238"/>
<path d="M218.107 87.1125L218.99 86.0154C224.991 86.6855 230.871 88.1409 236.469 90.3417C238.705 91.218 240.969 92.2737 242.493 94.0884C244.629 96.5724 244.935 100.009 245.17 103.217C246.081 115.437 246.836 128.023 242.87 139.649C241.916 138.166 240.022 137.496 238.271 137.165C236.519 136.834 234.632 136.717 233.03 135.923C232.152 135.47 231.381 134.844 230.768 134.084C230.155 133.325 229.713 132.449 229.47 131.514C229.005 129.629 229.232 127.645 230.111 125.904C231.08 123.965 232.796 122.095 232.375 119.984C231.955 117.873 229.321 116.534 228.702 114.34C227.641 110.586 233.073 107.219 231.977 103.479C231.72 102.804 231.324 102.187 230.812 101.666C230.3 101.146 229.684 100.732 229.001 100.45C227.669 99.8085 226.217 99.4566 224.871 98.8494C222.645 97.7922 220.805 96.1022 219.597 94.005C218.388 91.9079 217.868 89.5034 218.107 87.1125V87.1125Z" fill="#263238"/>
<path d="M247.135 141.629C247.135 141.629 255.473 145.769 257.993 149.62C265.348 160.929 257.082 197.747 257.082 197.747C252.786 193.049 247.298 189.519 241.161 187.507L238.271 186.555C233.504 185.007 229.14 182.48 225.475 179.145C221.81 175.81 218.933 171.748 217.039 167.235L208.11 145.997L247.135 141.629Z" fill="#FF725E"/>
<path d="M231.621 83.2554C237.687 83.5797 240.385 84.9114 246.836 93.6744C254.035 103.452 259.261 123.558 254.967 134.288C253.244 138.573 251.293 140.229 251.293 140.229L234.59 140.167L220.25 140.118L214.248 136.861C218.52 138.649 226.843 135.185 230.56 132.432C234.277 129.679 236.662 125.842 238.826 121.826C240.635 118.473 241.98 115.313 241.674 111.545C241.404 108.364 239.666 104.79 238.399 101.844" fill="#FF725E"/>
<path d="M258.734 150.751C258.734 150.751 255.138 143.603 250.453 139.711C245.768 135.82 242.885 135.82 236.213 136.365C229.542 136.91 219.168 137.689 216.954 137.151C216.455 137.027 216.875 133.825 216.875 133.825C215.779 133.715 212.119 132.142 211.243 130.858L209.214 136.185L208.118 136.585C206.501 137.159 205.159 138.289 204.348 139.76C203.536 141.231 203.312 142.941 203.717 144.562C204.13 146.107 205.141 147.06 207.164 147.398C215.195 148.778 236.662 143.12 243.134 143.085C249.606 143.051 258.734 150.751 258.734 150.751Z" fill="#FF725E"/>
<path d="M206.437 147.287C206.624 147.271 206.813 147.271 207 147.287C207.363 147.287 207.897 147.377 208.595 147.418C210.551 147.569 212.515 147.601 214.476 147.515C217.383 147.371 220.272 146.99 223.112 146.377C224.714 146.038 226.388 145.624 228.096 145.148L233.394 143.561C237.025 142.485 240.67 141.76 244.002 142.078C246.94 142.342 249.782 143.231 252.326 144.679C254.036 145.647 255.582 146.864 256.911 148.288C257.27 148.675 257.607 149.081 257.922 149.502C258.037 149.645 258.141 149.795 258.235 149.951C258.095 149.829 257.968 149.692 257.858 149.544C257.637 149.268 257.274 148.854 256.804 148.384C253.425 144.947 248.868 142.823 243.988 142.409C240.72 142.112 237.132 142.837 233.515 143.906C231.699 144.438 229.955 144.997 228.21 145.486C226.466 145.976 224.8 146.37 223.191 146.701C220.328 147.302 217.417 147.66 214.49 147.77C212.52 147.83 210.548 147.761 208.588 147.563C207.876 147.494 207.356 147.412 206.993 147.356C206.806 147.351 206.62 147.328 206.437 147.287Z" fill="#263238"/>
<path d="M213.5 132.39C213.56 132.521 213.606 132.657 213.636 132.797C213.721 133.066 213.842 133.487 214.034 133.957C214.269 134.56 214.55 135.146 214.875 135.709C215.29 136.447 215.835 137.11 216.484 137.669C217.43 138.105 218.481 138.284 219.524 138.186C220.748 138.15 221.968 138.037 223.176 137.848C224.458 137.662 225.797 137.413 227.178 137.124L229.314 136.668C230.026 136.537 230.773 136.385 231.521 136.309C234.323 135.889 237.16 135.73 239.994 135.833C242.318 135.939 244.603 136.453 246.737 137.351C248.179 137.954 249.498 138.803 250.631 139.856C250.936 140.142 251.221 140.446 251.486 140.767C251.582 140.877 251.667 140.994 251.742 141.119C251.742 141.119 251.343 140.67 250.531 139.96C249.379 138.961 248.063 138.156 246.637 137.579C244.517 136.742 242.261 136.274 239.973 136.199C237.162 136.114 234.35 136.28 231.571 136.696C230.816 136.779 230.104 136.93 229.392 137.055L227.256 137.503C225.865 137.793 224.522 138.023 223.226 138.193C222.003 138.377 220.769 138.481 219.531 138.504C218.428 138.595 217.32 138.384 216.334 137.896C215.663 137.308 215.108 136.607 214.697 135.826C214.378 135.25 214.111 134.647 213.899 134.026C213.765 133.636 213.653 133.24 213.564 132.839C213.527 132.692 213.506 132.542 213.5 132.39V132.39Z" fill="#263238"/>
<g opacity="0.3">
<path opacity="0.3" d="M241.802 142.326C236.213 142.326 230.702 144.838 225.291 146.094C219.88 147.349 215.793 147.556 210.197 147.474L209.606 150.013C216.249 153.463 223.974 153.539 231.137 151.331C235.409 150.027 239.261 147.763 243.54 146.577C247.819 145.39 253.992 145.845 257.239 148.798C254.326 144.141 247.399 142.319 241.802 142.326Z" fill="black"/>
</g>
<g opacity="0.3">
<path opacity="0.3" d="M213.458 141.76C213.721 142.313 214.104 142.805 214.579 143.204C215.054 143.602 215.611 143.898 216.213 144.072C217.42 144.404 218.682 144.507 219.93 144.376C224.494 144.079 228.872 142.602 233.194 141.139C229.741 141.022 226.402 142.188 223.02 142.844C219.638 143.499 215.814 143.534 213.052 141.54" fill="black"/>
</g>
<path d="M133.813 302.179L133.208 307.195C133.164 307.567 132.978 307.909 132.687 308.156C132.396 308.402 132.021 308.534 131.635 308.527L113.536 308.271C113.15 308.267 112.779 308.123 112.497 307.868C112.215 307.613 112.042 307.264 112.012 306.891L111.563 301.992C111.546 301.783 111.573 301.572 111.644 301.373C111.714 301.174 111.827 300.992 111.974 300.838C112.121 300.683 112.3 300.56 112.499 300.476C112.698 300.392 112.913 300.349 113.13 300.35L132.275 300.488C132.495 300.488 132.712 300.534 132.913 300.622C133.113 300.71 133.292 300.838 133.437 300.998C133.583 301.157 133.691 301.345 133.756 301.549C133.821 301.753 133.84 301.967 133.813 302.179V302.179Z" fill="#EBEBEB"/>
<path d="M112.838 308.299C113.753 308.497 114.685 308.619 115.622 308.665C117.345 308.823 119.737 308.989 122.379 309.037C125.02 309.086 127.427 308.982 129.15 308.844C130.018 308.775 130.716 308.706 131.193 308.644C131.448 308.632 131.7 308.586 131.941 308.506C131.006 308.462 130.068 308.478 129.135 308.554C127.412 308.616 125.027 308.665 122.386 308.623C119.744 308.582 117.402 308.458 115.643 308.375C114.711 308.287 113.774 308.262 112.838 308.299V308.299Z" fill="#263238"/>
<path d="M129.264 308.168C129.915 306.972 130.227 305.631 130.168 304.281C130.109 302.93 129.682 301.619 128.929 300.481C128.808 300.53 129.641 302.137 129.741 304.297C129.84 306.457 129.135 308.126 129.264 308.168Z" fill="#263238"/>
<path d="M122.606 308.885C123.138 306.097 123.224 303.246 122.863 300.433C122.742 300.433 122.713 302.33 122.642 304.656C122.571 306.981 122.464 308.872 122.606 308.885Z" fill="#263238"/>
<path d="M115.344 308.064C115.479 308.064 114.874 306.243 115.344 304.055C115.814 301.868 117.039 300.426 116.925 300.357C116.811 300.288 116.519 300.626 116.077 301.254C115.518 302.08 115.129 303.003 114.931 303.973C114.73 304.945 114.73 305.946 114.931 306.919C114.979 307.326 115.12 307.717 115.344 308.064Z" fill="#263238"/>
<path d="M261.311 290.607L254.832 331.683H248.403L251.286 289.766L261.311 290.607Z" fill="#455A64"/>
<path d="M147.263 290.766V331.683H140.478L137.95 290.607L147.263 290.766Z" fill="#455A64"/>
<path d="M255.28 169.554C256.413 166.635 260.086 151.558 263.312 151.614C265.319 151.783 267.3 152.164 269.221 152.752C271.854 153.487 274.147 155.072 275.721 157.245C277.295 159.418 278.054 162.047 277.872 164.696L276.74 181.732C277.011 183.657 261.311 290.58 261.311 290.58H254.846L137.95 291.628L133.991 282.3L137.074 242.066L167.149 242.273C167.149 242.273 179.089 207.2 190.282 204.82C197.858 203.205 214.946 203.653 225.775 206.2L237.936 209.325L255.28 169.554Z" fill="#455A64"/>
<path d="M160.086 291.456C160.096 291.285 160.081 291.113 160.043 290.945C159.986 290.573 159.908 290.097 159.823 289.503C159.737 288.91 159.588 288.123 159.488 287.219C159.388 286.315 159.217 285.315 159.139 284.19C159.061 283.066 158.911 281.83 158.861 280.499C158.812 279.167 158.769 277.739 158.747 276.255C158.76 273.014 158.955 269.775 159.331 266.554C159.739 263.335 160.316 260.138 161.062 256.977C161.774 254.072 162.528 251.457 163.254 249.325C163.589 248.241 163.966 247.255 164.266 246.433C164.565 245.612 164.842 244.86 165.077 244.267L165.597 242.887C165.671 242.731 165.723 242.566 165.754 242.397C165.659 242.54 165.58 242.693 165.519 242.852L164.921 244.191C164.657 244.777 164.351 245.488 164.031 246.337C163.71 247.186 163.319 248.138 162.963 249.221C162.194 251.367 161.396 253.961 160.67 256.88C159.898 260.05 159.306 263.259 158.897 266.492C158.522 269.729 158.337 272.984 158.342 276.241C158.377 277.746 158.391 279.174 158.498 280.506C158.605 281.837 158.705 283.072 158.826 284.204C158.947 285.336 159.118 286.35 159.246 287.24C159.374 288.13 159.524 288.896 159.652 289.517C159.78 290.138 159.88 290.58 159.958 290.952C159.982 291.124 160.025 291.293 160.086 291.456V291.456Z" fill="#263238"/>
<path d="M260.934 219.648C260.826 219.604 260.726 219.546 260.635 219.475L259.837 218.916C259.496 218.661 259.068 218.371 258.556 218.054C258.043 217.736 257.488 217.364 256.818 216.984C256.149 216.605 255.444 216.191 254.647 215.791C253.849 215.39 252.995 214.976 252.091 214.542C250.261 213.721 248.21 212.886 246.025 212.113C241.639 210.574 237.566 209.456 234.632 208.663L231.137 207.69L230.19 207.414C229.976 207.345 229.862 207.304 229.869 207.29C229.985 207.296 230.1 207.314 230.211 207.345L231.172 207.552C232.005 207.745 233.208 208.028 234.689 208.408C237.651 209.153 241.745 210.229 246.146 211.775C248.353 212.554 250.418 213.403 252.24 214.245C253.144 214.687 254.013 215.087 254.796 215.528C255.58 215.97 256.313 216.37 256.932 216.77C257.552 217.171 258.15 217.55 258.648 217.888C259.081 218.172 259.497 218.478 259.894 218.806L260.656 219.413C260.759 219.479 260.852 219.558 260.934 219.648Z" fill="#263238"/>
<path d="M251.286 289.8C251.286 289.8 251.286 289.676 251.322 289.448C251.357 289.22 251.393 288.862 251.45 288.42C251.578 287.509 251.756 286.184 251.984 284.487C252.475 281.037 253.173 276.117 254.035 269.997C254.896 263.877 255.957 256.625 257.117 248.552C258.278 240.479 259.759 231.633 261.389 222.332C264.615 203.785 267.797 187.031 270.097 174.908C271.272 168.864 272.233 163.972 272.895 160.57C273.237 158.886 273.501 157.575 273.686 156.671L273.899 155.664C273.949 155.436 273.985 155.319 273.985 155.319C273.974 155.437 273.958 155.554 273.935 155.671C273.892 155.912 273.835 156.25 273.757 156.685C273.593 157.596 273.351 158.907 273.045 160.591C272.411 163.999 271.493 168.871 270.361 174.956C268.104 187.087 264.985 203.847 261.76 222.394C260.158 231.667 258.684 240.513 257.488 248.572C256.292 256.632 255.231 263.897 254.326 270.004C253.422 276.11 252.682 281.044 252.19 284.452L251.578 288.379C251.507 288.813 251.457 289.151 251.414 289.393C251.372 289.634 251.286 289.8 251.286 289.8Z" fill="#263238"/>
<path d="M134.782 265.905C134.782 265.809 140.079 265.726 146.615 265.726C153.151 265.726 158.441 265.809 158.441 265.905C158.441 266.002 153.144 266.092 146.615 266.092C140.086 266.092 134.782 266.009 134.782 265.905Z" fill="#263238"/>
<path d="M190.104 130.306C190.104 130.306 190.524 127.698 188.523 128.029C186.523 128.361 185.305 131.39 185.305 131.39C185.305 131.39 182.834 132.294 182.656 133.129C182.478 133.963 184.116 136.02 184.116 136.02C183.385 136.256 182.709 136.631 182.13 137.124C181.304 137.876 182.13 138.787 182.842 140.139C183.215 140.894 183.723 141.578 184.344 142.161C184.022 142.423 183.769 142.756 183.604 143.131C183.44 143.506 183.369 143.914 183.397 144.32C183.603 145.555 185.661 147.232 185.661 147.232C186.53 147.797 187.358 148.42 188.139 149.095C189.21 149.987 190.326 150.825 191.485 151.607H198.385L199.524 146.335L191.051 139.042L190.104 130.306Z" fill="#FFBE9D"/>
<path d="M208.616 128.561C208.732 128.518 208.856 128.501 208.979 128.512C209.103 128.522 209.222 128.559 209.329 128.62C209.435 128.681 209.526 128.764 209.595 128.864C209.664 128.963 209.709 129.077 209.727 129.196C209.955 130.576 210.396 132.784 210.659 133.632C210.873 134.322 209.841 137.082 209.841 137.082L206.993 134.239C206.993 134.239 206.53 131.624 206.943 130.099C207.079 129.735 207.301 129.406 207.592 129.139C207.882 128.872 208.233 128.674 208.616 128.561Z" fill="#EB996E"/>
<path d="M208.011 129.72L191.329 125.835C191.329 125.835 187.598 136.723 187.989 139.456C188.093 140.364 188.402 141.238 188.894 142.017C189.386 142.796 190.05 143.46 190.837 143.962L199.502 145.804C199.502 145.804 205.355 145.259 207.121 136.723C207.605 134.295 208.011 129.72 208.011 129.72Z" fill="white"/>
<path d="M208.011 129.72C208.022 129.842 208.022 129.964 208.011 130.086C208.011 130.355 207.961 130.707 207.933 131.148C207.847 132.073 207.726 133.432 207.484 135.136C207.361 136.079 207.175 137.012 206.929 137.931C206.822 138.442 206.608 138.945 206.437 139.477C206.234 140.019 205.997 140.55 205.725 141.064C205.141 142.205 204.342 143.23 203.369 144.086C202.289 145.049 200.952 145.7 199.51 145.963H199.453L190.788 144.141C189.593 143.369 188.694 142.236 188.231 140.919C187.978 140.24 187.85 139.523 187.854 138.8C187.896 138.105 187.986 137.414 188.125 136.73C188.388 135.35 188.723 134.081 189.064 132.825C189.776 130.306 190.488 127.995 191.25 125.801L191.293 125.663L191.443 125.697L203.547 128.602L206.914 129.43L207.79 129.658C207.89 129.675 207.988 129.702 208.082 129.741C207.969 129.731 207.857 129.713 207.747 129.685L206.836 129.492L203.418 128.74L191.364 125.98L191.557 125.877C190.845 128.029 190.132 130.382 189.42 132.887C189.079 134.136 188.751 135.433 188.495 136.765C188.357 137.429 188.269 138.103 188.231 138.78C188.226 139.46 188.349 140.136 188.595 140.774C189.025 142.01 189.863 143.074 190.98 143.803H190.923L199.588 145.652H199.531C200.904 145.394 202.179 144.779 203.219 143.872C204.17 143.046 204.954 142.056 205.533 140.953C205.797 140.448 206.035 139.929 206.245 139.401C206.416 138.876 206.63 138.386 206.743 137.883C207 136.975 207.2 136.054 207.342 135.123C207.605 133.425 207.762 132.073 207.876 131.155C207.933 130.714 207.975 130.362 208.011 130.099C207.992 129.974 207.992 129.846 208.011 129.72V129.72Z" fill="#263238"/>
<path d="M202.87 131.852C202.87 131.852 206.259 132.018 206.067 133.922L208.509 134.219C208.595 133.42 208.365 132.62 207.866 131.979C207.366 131.339 206.634 130.906 205.818 130.769L203.305 130.189" fill="white"/>
<path d="M203.304 130.182C204 130.235 204.689 130.35 205.362 130.527C206.137 130.629 206.872 130.921 207.498 131.376C207.88 131.674 208.188 132.051 208.399 132.48C208.61 132.909 208.718 133.378 208.716 133.853C208.726 133.984 208.726 134.115 208.716 134.246V134.426H208.531L206.088 134.115H205.925V133.957C205.939 133.702 205.879 133.448 205.754 133.224C205.628 133 205.441 132.814 205.213 132.687C204.843 132.458 204.44 132.286 204.016 132.176C203.304 131.983 202.863 131.942 202.863 131.9C203.266 131.846 203.676 131.874 204.066 131.983C204.523 132.071 204.961 132.232 205.362 132.459C205.622 132.604 205.842 132.808 206.003 133.053C206.177 133.333 206.257 133.658 206.231 133.984L206.081 133.812L208.523 134.095L208.317 134.246C208.328 134.134 208.328 134.021 208.317 133.908C208.318 133.484 208.224 133.065 208.041 132.68C207.857 132.295 207.59 131.954 207.256 131.68C206.676 131.245 205.997 130.952 205.277 130.824C204.601 130.667 203.941 130.453 203.304 130.182Z" fill="#263238"/>
<path d="M209.741 149.171C209.741 149.171 211.877 141.319 211.934 140.201C211.991 139.083 208.616 132.666 207.363 132.48C206.11 132.294 203.703 131.79 202.87 133.708C202.87 133.708 200.236 133.101 199.531 136.786C199.531 136.786 197.751 136.924 197.544 137.965C197.404 139.288 197.354 140.618 197.395 141.947C197.078 141.787 196.717 141.732 196.365 141.789C196.013 141.847 195.69 142.013 195.444 142.264C194.661 143.168 195.216 144.017 195.772 144.796C196.224 145.391 196.716 145.955 197.245 146.487C197.245 146.487 196.754 150.254 196.989 151.276C197.042 151.561 197.18 151.825 197.386 152.035C197.592 152.245 197.858 152.391 198.15 152.455L209.506 150.613L209.741 149.171Z" fill="#FFBE9D"/>
<path d="M199.531 136.751C199.531 136.717 199.866 136.71 200.328 136.931C200.911 137.24 201.412 137.674 201.795 138.2C202.381 138.886 202.817 139.679 203.077 140.532C202.97 140.594 202.365 139.559 201.503 138.414C201.14 137.929 200.7 137.503 200.2 137.151C199.809 136.896 199.517 136.813 199.531 136.751Z" fill="#EB996E"/>
<path d="M197.936 140.408C198.007 140.339 198.648 140.912 199.189 141.788C199.58 142.281 199.826 142.868 199.901 143.485C199.497 143.024 199.153 142.517 198.876 141.974C198.497 141.492 198.181 140.966 197.936 140.408V140.408Z" fill="#EB996E"/>
<path d="M199.517 143.361L197.694 142.03C197.601 141.961 197.509 142.112 197.601 142.174L199.424 143.506C199.517 143.575 199.609 143.423 199.517 143.361Z" fill="#EB996E"/>
<path d="M202.87 133.674C203.841 134.309 204.619 135.183 205.127 136.206C205.412 136.932 205.75 137.638 206.138 138.317C206.466 138.8 206.793 139.007 206.758 139.056C206.722 139.104 206.345 138.959 205.932 138.469C205.466 137.816 205.085 137.109 204.8 136.365C203.931 134.785 202.778 133.756 202.87 133.674Z" fill="#EB996E"/>
<path d="M184.273 136.172C185.239 135.656 186.343 135.433 187.441 135.533C188.539 135.633 189.581 136.05 190.432 136.73C190.567 136.833 190.678 136.963 190.759 137.11C190.81 137.274 190.811 137.449 190.763 137.614C190.715 137.779 190.62 137.927 190.489 138.041C190.08 138.394 189.555 138.595 189.008 138.607C188.466 138.642 187.925 138.607 187.384 138.566C186.198 138.564 185.035 138.882 184.024 139.483" fill="#FFBE9D"/>
<path d="M184.315 136.247C185.091 135.835 185.959 135.612 186.843 135.598C187.728 135.583 188.603 135.778 189.392 136.165C189.793 136.35 190.161 136.597 190.481 136.896C190.994 137.4 190.531 138.021 189.997 138.276C189.065 138.731 187.968 138.435 186.971 138.497C185.911 138.562 184.882 138.874 183.974 139.408C183.874 139.463 183.974 139.615 184.066 139.559C185.137 138.93 186.375 138.618 187.626 138.662C188.595 138.662 189.762 138.849 190.51 138.131C190.657 138.011 190.766 137.854 190.827 137.678C190.887 137.501 190.896 137.312 190.852 137.131C190.723 136.758 190.275 136.489 189.955 136.282C189.166 135.796 188.266 135.506 187.334 135.44C186.247 135.367 185.163 135.607 184.216 136.13C184.116 136.185 184.216 136.337 184.308 136.282L184.315 136.247Z" fill="#EB996E"/>
<path d="M184.55 141.94C185.241 141.197 186.124 140.647 187.109 140.348C188.093 140.048 189.142 140.009 190.147 140.236C190.147 140.981 190.097 141.83 189.492 142.306C189.103 142.529 188.68 142.69 188.239 142.782C187.793 142.942 187.391 143.198 187.062 143.53C186.733 143.863 186.485 144.262 186.338 144.7" fill="#FFBE9D"/>
<path d="M184.615 142.002C185.294 141.272 186.162 140.731 187.13 140.435C188.098 140.139 189.129 140.098 190.118 140.318L190.054 140.236C190.095 140.765 190.008 141.297 189.798 141.788C189.485 142.381 188.851 142.478 188.26 142.671C187.79 142.833 187.365 143.097 187.017 143.442C186.669 143.788 186.407 144.206 186.252 144.665C186.209 144.769 186.387 144.817 186.423 144.707C186.613 144.161 186.965 143.681 187.434 143.327C187.942 143.011 188.5 142.778 189.086 142.637C190.111 142.243 190.232 141.215 190.232 140.27C190.232 140.252 190.225 140.234 190.214 140.219C190.202 140.204 190.186 140.193 190.168 140.187C189.146 139.955 188.079 139.993 187.077 140.297C186.076 140.6 185.176 141.158 184.472 141.912C184.394 141.995 184.522 142.119 184.6 142.036L184.615 142.002Z" fill="#EB996E"/>
<path d="M184.622 131.68C184.622 131.68 187.042 130.507 188.103 130.562C189.164 130.617 191.101 131.093 191.293 131.838C191.427 132.298 191.377 132.789 191.152 133.214C190.928 133.639 190.546 133.966 190.083 134.129C189.237 134.284 188.367 134.258 187.534 134.053L186.11 134.619" fill="#FFBE9D"/>
<path d="M186.124 134.619C186.553 134.343 187.012 134.112 187.491 133.929V133.929H187.534C188.305 134.099 189.103 134.12 189.883 133.991C190.109 133.943 190.32 133.846 190.501 133.707C190.682 133.568 190.829 133.392 190.93 133.191C191.155 132.764 191.198 132.268 191.051 131.811C190.778 131.478 190.405 131.237 189.983 131.121C189.571 130.978 189.147 130.87 188.716 130.796C188.34 130.711 187.951 130.697 187.569 130.755C187.23 130.817 186.894 130.9 186.565 131.003C185.348 131.397 184.614 131.693 184.593 131.693C185.169 131.3 185.803 130.993 186.473 130.783C186.81 130.653 187.158 130.549 187.512 130.472C187.716 130.432 187.924 130.413 188.132 130.417C188.345 130.417 188.559 130.458 188.773 130.486C189.225 130.554 189.671 130.66 190.104 130.803C190.336 130.886 190.562 130.986 190.78 131.1C191.032 131.225 191.242 131.416 191.386 131.652C191.488 131.934 191.529 132.234 191.504 132.533C191.479 132.831 191.391 133.121 191.243 133.384C191.115 133.625 190.933 133.835 190.71 133.999C190.487 134.162 190.229 134.275 189.954 134.329C189.127 134.459 188.28 134.405 187.477 134.17H187.548C187.089 134.364 186.612 134.514 186.124 134.619V134.619Z" fill="#EB996E"/>
<path d="M195.259 143.796C195.663 144.089 195.994 144.466 196.227 144.9C196.497 145.372 196.628 145.907 196.605 146.446C196.605 147.039 196.476 147.667 196.462 148.315C196.436 149.425 196.711 150.522 197.26 151.496C197.68 152.255 198.064 152.649 198.021 152.69C197.607 152.42 197.267 152.055 197.032 151.627C196.386 150.633 196.059 149.476 196.092 148.302C196.092 147.612 196.249 146.998 196.263 146.439C196.301 145.95 196.208 145.46 195.992 145.017C195.594 144.251 195.202 143.837 195.259 143.796Z" fill="#EB996E"/>
<path d="M204.85 113.077C204.85 113.112 204.6 113.119 204.344 113.408C204.189 113.633 204.089 113.889 204.05 114.157C204.012 114.424 204.037 114.697 204.123 114.954C204.202 115.292 204.351 115.644 204.444 116.092C204.565 116.566 204.515 117.065 204.301 117.507C203.81 118.445 202.792 118.977 202.051 119.743C201.682 120.088 201.446 120.546 201.382 121.04C201.359 121.513 201.45 121.985 201.646 122.42C202.056 123.173 202.383 123.966 202.621 124.786C202.688 125.078 202.688 125.38 202.623 125.672C202.558 125.964 202.429 126.238 202.244 126.477C201.966 126.808 201.71 126.863 201.71 126.843C201.71 126.822 201.909 126.718 202.13 126.394C202.417 125.925 202.502 125.364 202.365 124.835C202.093 124.045 201.748 123.28 201.332 122.551C201.105 122.071 200.998 121.546 201.019 121.019C201.088 120.444 201.357 119.909 201.781 119.501C202.593 118.687 203.568 118.162 203.995 117.369C204.422 116.575 203.995 115.72 203.867 115.016C203.784 114.726 203.775 114.421 203.839 114.127C203.904 113.833 204.04 113.558 204.237 113.326C204.572 113.008 204.864 113.07 204.85 113.077Z" fill="#263238"/>
<path d="M198.961 125.407C198.961 125.407 199.125 125.29 199.31 125.014C199.558 124.614 199.642 124.139 199.545 123.682C199.353 122.998 199.069 122.341 198.698 121.73C198.5 121.325 198.372 120.892 198.321 120.446C198.285 119.955 198.429 119.466 198.726 119.066C199.34 118.403 199.999 117.781 200.699 117.203C200.958 116.945 201.14 116.623 201.225 116.272C201.281 115.959 201.264 115.639 201.176 115.333C201.001 114.851 201.001 114.326 201.176 113.843C201.347 113.505 201.581 113.443 201.581 113.464C201.581 113.484 201.418 113.588 201.311 113.898C201.2 114.359 201.24 114.841 201.425 115.278C201.559 115.642 201.586 116.036 201.502 116.414C201.418 116.792 201.226 117.14 200.948 117.417C200.378 118.066 199.524 118.542 199.025 119.266C198.77 119.608 198.647 120.026 198.677 120.446C198.72 120.85 198.831 121.244 199.004 121.612C199.374 122.261 199.642 122.958 199.802 123.682C199.84 123.937 199.826 124.196 199.76 124.445C199.694 124.694 199.578 124.927 199.417 125.131C199.182 125.38 198.961 125.428 198.961 125.407Z" fill="#263238"/>
<path d="M230.36 331.842H234.931L253.216 261.696H243.803L230.36 331.842Z" fill="#263238"/>
<path d="M316.762 261.696H236.548H226.281V252.326H316.762V261.696Z" fill="#263238"/>
<path d="M317.353 331.731L312.782 331.773L293.785 261.807L303.191 261.717L317.353 331.731Z" fill="#263238"/>
<path d="M300.115 225.63H307.769C311.493 225.63 314.334 229.287 314.334 232.896V240.638C314.334 240.901 314.28 241.162 314.176 241.406C314.072 241.65 313.919 241.871 313.727 242.057C313.535 242.244 313.306 242.392 313.055 242.493C312.803 242.593 312.534 242.645 312.262 242.645V242.645C311.715 242.647 311.189 242.439 310.8 242.067C310.41 241.695 310.188 241.188 310.183 240.658C310.183 238.588 310.183 235.311 310.183 232.847C310.186 232.428 310.103 232.012 309.939 231.624C309.775 231.235 309.534 230.882 309.229 230.585C308.924 230.287 308.561 230.051 308.162 229.89C307.762 229.729 307.333 229.646 306.901 229.646H300.663L300.115 225.63Z" fill="#FF725E"/>
<path d="M276.833 227.7H281.439V229.722C281.439 229.722 275.11 231.102 274.932 238.65C274.754 246.199 274.932 247.4 274.932 247.4C274.932 247.4 275.786 252.161 281.439 252.278C286.074 252.374 297.516 252.312 301.446 252.278C302.879 252.282 304.281 251.877 305.476 251.112C306.124 250.733 306.667 250.207 307.057 249.58C307.448 248.952 307.675 248.242 307.719 247.51C307.84 243.818 307.719 236.325 307.719 236.325C307.719 236.325 307.1 231.24 301.824 229.756V225.257H280.115L276.804 226.706L276.833 227.7Z" fill="white"/>
<path d="M276.833 227.7C276.822 227.622 276.822 227.543 276.833 227.465C276.833 227.279 276.833 227.038 276.833 226.713L280.129 225.223L301.838 225.14H301.988V225.292C301.988 226.672 301.988 228.224 301.988 229.791L301.867 229.639C303.389 230.055 304.755 230.886 305.804 232.033C306.901 233.251 307.624 234.743 307.89 236.339C307.89 239.099 307.89 241.969 307.89 244.943V247.186C307.929 247.973 307.744 248.756 307.356 249.449C306.49 250.824 305.102 251.815 303.49 252.209C302.794 252.395 302.076 252.488 301.354 252.485H281.375L280.435 252.416L279.517 252.243C278.32 251.954 277.235 251.336 276.391 250.463C275.586 249.616 275.026 248.579 274.768 247.455C274.64 245.247 274.711 243.191 274.732 241.245C274.754 239.299 274.732 237.401 275.273 235.725C275.719 234.159 276.612 232.748 277.851 231.654C278.862 230.746 280.083 230.086 281.411 229.729L281.347 229.805C281.347 228.997 281.347 228.362 281.347 227.783L281.418 227.852L277.979 227.817H277.103C277.006 227.824 276.908 227.824 276.811 227.817H277.125H278.022L281.418 227.776H281.489V227.845C281.489 228.425 281.489 229.059 281.489 229.867V229.77H281.418C280.125 230.136 278.939 230.793 277.958 231.688C276.761 232.765 275.902 234.147 275.48 235.676C274.96 237.319 275.024 239.182 274.981 241.141C274.939 243.101 274.91 245.192 275.046 247.351C275.297 248.409 275.829 249.384 276.591 250.18C277.406 251.008 278.453 251.588 279.602 251.85C280.807 252.077 282.037 252.154 283.262 252.078H299.246C300.67 252.078 302.094 252.202 303.397 251.816C304.912 251.45 306.218 250.524 307.036 249.235C307.4 248.592 307.573 247.863 307.534 247.13V244.895C307.534 241.928 307.534 239.057 307.534 236.304C307.278 234.772 306.588 233.339 305.541 232.164C304.535 231.064 303.226 230.264 301.767 229.86L301.653 229.825V229.77C301.653 228.204 301.653 226.679 301.653 225.271L301.81 225.416L280.101 225.34L276.776 226.762V227.493C276.84 227.59 276.833 227.7 276.833 227.7Z" fill="#263238"/>
<path d="M306.253 239.692C306.253 239.692 306.366 242.997 306.253 246.392C306.225 247.016 306.048 247.625 305.735 248.171C305.422 248.718 304.983 249.186 304.451 249.539C303.32 250.354 301.945 250.79 300.535 250.781C296.932 250.781 286.594 250.863 282.393 250.781C281.023 250.819 279.681 250.391 278.603 249.57C277.524 248.75 276.777 247.588 276.491 246.289C276.491 246.289 276.285 246.716 276.455 239.761L306.253 239.692Z" fill="#8E6E68"/>
<path d="M288.467 237.125C285.688 237.365 282.894 237.365 280.115 237.125C282.894 236.886 285.688 236.886 288.467 237.125Z" fill="#455A64"/>
<path d="M288.467 241.293C285.688 241.532 282.894 241.532 280.115 241.293C282.894 241.054 285.688 241.054 288.467 241.293Z" fill="#455A64"/>
<path d="M288.467 245.468C285.688 245.707 282.894 245.707 280.115 245.468C282.894 245.228 285.688 245.228 288.467 245.468Z" fill="#455A64"/>
<path d="M280.115 225.244C280.115 225.244 281.204 222.001 290.389 222.001C299.574 222.001 300.991 225.244 300.991 225.244H280.115Z" fill="#FF725E"/>
<path d="M301.959 227.7C301.959 227.797 297.31 227.879 291.578 227.879C285.847 227.879 281.19 227.797 281.19 227.7C281.19 227.603 285.84 227.521 291.578 227.521C297.317 227.521 301.959 227.576 301.959 227.7Z" fill="#263238"/>
<path d="M301.959 229.77C301.959 229.867 297.31 229.949 291.578 229.949C285.847 229.949 281.19 229.867 281.19 229.77C281.19 229.673 285.84 229.591 291.578 229.591C297.317 229.591 301.959 229.639 301.959 229.77Z" fill="#263238"/>
<path d="M278.449 209.822C278.525 209.798 278.608 209.798 278.684 209.822C278.897 209.896 279.074 210.043 279.182 210.236C279.36 210.544 279.416 210.905 279.339 211.25C279.208 211.695 278.924 212.082 278.534 212.348C278.092 212.659 277.63 212.944 277.153 213.203C276.634 213.466 276.241 213.914 276.057 214.452C275.986 214.748 275.998 215.056 276.091 215.345C276.183 215.635 276.353 215.896 276.583 216.101C277.182 216.467 277.864 216.682 278.57 216.729C278.964 216.794 279.343 216.927 279.688 217.122C279.861 217.232 280.008 217.376 280.122 217.543C280.236 217.71 280.314 217.898 280.35 218.095C280.378 218.458 280.311 218.823 280.155 219.154C279.999 219.486 279.761 219.774 279.46 219.993C278.951 220.356 278.41 220.674 277.844 220.945C277.385 221.185 276.987 221.519 276.676 221.925C276.551 222.085 276.465 222.271 276.422 222.467C276.378 222.664 276.38 222.867 276.427 223.063C276.526 223.352 276.728 223.596 276.996 223.753C277.116 223.818 277.248 223.858 277.383 223.871C277.519 223.884 277.657 223.87 277.787 223.829C277.787 223.829 277.737 223.898 277.587 223.94C277.368 224.002 277.133 223.977 276.932 223.871C276.768 223.796 276.621 223.69 276.498 223.56C276.376 223.429 276.282 223.277 276.22 223.112C276.154 222.886 276.141 222.649 276.18 222.418C276.219 222.186 276.311 221.966 276.448 221.773C276.766 221.32 277.187 220.944 277.68 220.676C278.223 220.4 278.742 220.081 279.232 219.724C279.482 219.539 279.681 219.298 279.811 219.021C279.942 218.744 280 218.44 279.98 218.137C279.951 217.988 279.892 217.846 279.805 217.72C279.718 217.595 279.605 217.487 279.474 217.405C279.167 217.237 278.832 217.123 278.485 217.067C277.723 217.018 276.988 216.781 276.349 216.377C276.074 216.127 275.873 215.81 275.765 215.46C275.658 215.11 275.648 214.738 275.736 214.383C275.948 213.768 276.401 213.257 276.996 212.962C277.509 212.665 278 212.444 278.42 212.161C278.774 211.935 279.041 211.603 279.182 211.216C279.263 210.916 279.233 210.599 279.097 210.319C279.03 210.197 278.938 210.09 278.826 210.005C278.715 209.92 278.586 209.857 278.449 209.822V209.822Z" fill="#263238"/>
<path d="M237.68 252.333H260.136C260.341 252.333 260.543 252.294 260.732 252.218C260.921 252.142 261.092 252.03 261.236 251.89C261.381 251.75 261.495 251.583 261.572 251.4C261.65 251.216 261.689 251.02 261.688 250.822L264.864 248.952L233.287 248.628L236.135 250.663V250.822C236.135 251.22 236.297 251.603 236.586 251.886C236.876 252.169 237.269 252.329 237.68 252.333Z" fill="white"/>
<path d="M237.68 252.333C237.453 252.358 237.223 252.32 237.018 252.223C236.759 252.115 236.535 251.941 236.37 251.719C236.144 251.412 236.034 251.039 236.056 250.663V250.718L233.208 248.711L232.938 248.517H233.273C239.232 248.517 249.115 248.6 260.286 248.717L264.843 248.766H265.483L264.935 249.09L262.386 250.594L262.073 250.781L261.916 250.87L261.838 250.919H261.795C261.831 250.856 261.703 251.07 261.874 250.774C261.869 251.036 261.801 251.294 261.674 251.526C261.554 251.757 261.379 251.957 261.164 252.111C260.948 252.264 260.699 252.366 260.435 252.409C258.492 252.464 256.719 252.409 254.989 252.409L245.918 252.374L239.873 252.319L238.249 252.285C238.06 252.296 237.869 252.296 237.68 252.285C237.868 252.254 238.059 252.243 238.249 252.25H239.873L245.918 252.195H254.989C256.697 252.195 258.549 252.195 260.378 252.161C260.584 252.123 260.779 252.041 260.949 251.922C261.119 251.803 261.26 251.649 261.361 251.471C261.457 251.284 261.508 251.079 261.51 250.87V250.87C261.681 250.574 261.567 250.787 261.603 250.718H261.646L261.724 250.67L261.874 250.58L262.187 250.394L264.736 248.883L264.828 249.214L260.272 249.166C249.1 249.049 239.218 248.918 233.258 248.814L233.322 248.621L236.17 250.691C236.138 250.994 236.202 251.3 236.353 251.567C236.505 251.835 236.736 252.051 237.018 252.188C237.231 252.264 237.453 252.313 237.68 252.333V252.333Z" fill="#263238"/>
<path d="M305.569 294.768L241.788 294.589L244.337 289.848H305.569V294.768Z" fill="#263238"/>
<path d="M316.84 261.827C316.84 261.924 296.861 262.007 272.219 262.007C247.577 262.007 227.598 261.924 227.598 261.827C227.598 261.731 247.534 261.648 272.219 261.648C296.904 261.648 316.84 261.731 316.84 261.827Z" fill="#455A64"/>
</svg>
